<svg version="1.1" xmlns="http://www.w3.org/2000/svg" xmlns:xlink="http://www.w3.org/1999/xlink" width="7.91946" height="15.56021" viewBox="0,0,7.91946,15.56021"><g transform="translate(-261.40135,-181.42788)"><g fill="#ff0000" fill-rule="evenodd" stroke="#ffffff" stroke-width="0" stroke-linecap="round" stroke-linejoin="round" stroke-miterlimit="10"><path d="M267.88239,188.21991l-0.03469,0.25275l0.04956,0.02849l0.02602,0.22054l0.12886,0.0793l0.0384,0.11274l0.24161,-0.04833l0.28124,0.19948l0.22797,-0.00124l0.06442,0.13877l0.09663,0.07186l0.21186,-0.06195l0.10654,0.26019l-0.46089,0.02106l-0.28621,0.05327l-0.24035,0.15115l-0.09044,0.13753l-0.057,0.23541l-0.15362,0.31717l-0.19081,0.12762l0.057,0.07433l-0.28992,0.19699l-0.06815,0.11895l0.03593,0.3878l0.09788,0.15859l0.06566,-0.1623l-0.12142,-0.08797l0.01735,-0.14l0.19948,-0.02725l0.04336,-0.11026l0.14124,0.11522l-0.08426,0.27257l-0.23788,0.26267l-0.46833,0.2701l-0.72603,0.28621l-0.11152,0.13628l-0.38532,0.14992l-0.1685,0.10284l-0.11646,0.28621l-0.10532,0.11026l-0.01362,0.11646l-0.13505,0.20939l-0.02602,0.22301l0.12142,0.11895l0.02479,0.24409l-0.42373,0.66285l0.01487,0.10902l-0.18708,0.22301l-0.27258,0.14495l-0.33079,0.23664l-0.20815,0.22301l-0.11151,0.18832l-0.00744,0.1623l-0.23044,0.51913l-0.02849,0.3023l0.05452,0.17965l0.11646,0.18584l-0.14124,0.02229l-0.18832,-0.1016l-0.11275,0.01982l-0.03221,-0.29487l0.17965,-0.23664l-0.00744,-0.1462l-0.10655,-0.03346l-0.00744,-0.15611l-0.1239,-0.1363l-0.21929,-0.1016l0.00247,-0.22921l-0.07186,-0.19699l0.02354,-0.23044l-0.12389,-0.14495l0.03593,-0.19824l0.06566,-0.03098l0.01362,-0.28124l-0.09416,-0.33452l-0.12637,0.20566l-0.0892,-0.09167l-0.08301,-0.18337l-0.09541,-0.02849l-0.05204,-0.11151l0.01487,-0.16973l-0.06938,-0.11522l-0.22178,-0.04708l-0.06319,-0.21807l-0.27628,-0.03098l-0.02725,-0.34567l0.1338,-0.19204l0.00247,-0.19081l-0.12143,-0.07062l-0.04831,-0.19948l-0.08176,-0.09788l-0.19204,-0.05327l-0.07062,-0.1177l0.0062,-0.18584l-0.07062,-0.27877l0.01858,-0.11026l0.21434,-0.15115l0.08673,-0.1177l-0.03593,-0.14991l-0.15115,-0.15115l0.00124,-0.08426l0.32585,-0.21682l-0.00124,-0.16355l-0.10654,-0.27133l0.08426,-0.0793l-0.00496,-0.23417l0.14371,-0.27628l-0.35187,-0.34814l-0.2069,0.02354l-0.06071,-0.22921l-0.08797,-0.05203l0.01735,-0.30604l0.09044,-0.1747l0.35187,-0.49807l-0.04336,-0.1462l0.04336,-0.10284l-0.29859,-0.21929l0.04336,-0.1623l-0.03346,-0.09663l-0.12389,0.00373l-0.02229,-0.08797l0.16106,-0.14248l-0.02478,-0.22921l0.08053,-0.18461l0.11026,-0.15982l-0.01982,-0.13009l0.15982,-0.08797l-0.01981,-0.09912l0.16353,-0.0446l0.13256,-0.17841l0.12266,0.00247l0.19204,0.14124l0.11895,-0.03346l0.04708,-0.21434l0.18584,-0.16479l0.17593,-0.0062l0.1462,-0.06319l0.14124,-0.43364l-0.10037,-0.12266l-0.11769,-0.02602l0.06071,-0.2255l-0.22673,-0.09044l0.03098,-0.10779l-0.05824,-0.15735l0.03221,-0.15859l0.12018,0.04708l0.11646,-0.08673l0.19699,-0.01487l0.01362,-0.5216l-0.11646,-0.08673l-0.10408,0.00373l0.07558,-0.28744l-0.09912,-0.05452l0.10779,-0.11275l0.15362,-0.23291l-0.04213,-0.10408l-0.12266,-0.08053l0.07062,-0.21186l0.1276,-0.15735l0.13256,-0.00496l0.14371,0.13009l0.12637,-0.23664l0.01735,-0.10532l0.12514,-0.19699l-0.04585,-0.14868l0.01239,-0.2131l0.09663,-0.04584l0.09293,-0.14248l0.11646,-0.02106l0.05204,0.08797l-0.04956,0.19699l0.09664,0.07559l-0.00496,0.24531l0.06071,0.01612l0.03717,0.20689l-0.05204,0.07433l0.06195,0.3531l0.18708,0.15982l-0.02725,0.337l0.06566,0.05575l0.0793,0.19824l-0.10902,0.12514l-0.02849,0.45471l-0.05452,0.15362l-0.0892,0.03718l-0.02479,0.14248l0.13628,0.14495l0.0508,0.20567l-0.01611,0.36053l-0.14495,0.11522l-0.0062,0.13256l-0.07186,0.0446l-0.10035,0.25647l0.23911,0.11769l0.07062,0.37789l-0.10283,0.10654l0.11399,0.23044l0.14744,0.03098l0.19204,0.15362l0.13876,-0.18584l0.07929,-0.00124l0.26763,-0.16107l0.13381,0.00992l0.10035,0.13009l0.17593,0.00371l0.16107,0.19699l0.02354,0.08177l-0.07062,0.13753l0.00247,0.30604l0.13876,0.24655l0.09912,0.11646l0.06939,0.32461l0.03098,0.2577l0.06566,0.11523l0.09912,-0.04089l0.14124,0.08053l0.14744,0.26142l0.32089,0.03346l0.05327,-0.01982l0.28745,0.08053l0.0892,0.08796l0.11895,-0.12389l0.06319,-0.14497l0.20072,-0.19824"></path></g></g></svg>