<svg version="1.1" xmlns="http://www.w3.org/2000/svg" xmlns:xlink="http://www.w3.org/1999/xlink" width="11.01194" height="14.21601" viewBox="0,0,11.01194,14.21601"><g transform="translate(-240.05901,-174.98759)"><g fill="#ff0000" fill-rule="evenodd" stroke="#ffffff" stroke-width="0" stroke-linecap="round" stroke-linejoin="round" stroke-miterlimit="10"><path d="M246.10135,174.98774l0.04708,0.14991l0.11275,0.08053l0.22177,0.01735l0.08426,0.13009l-0.03717,0.14867l0.10655,0.08673l0.05947,0.19699l0.14248,0.07433l0.26763,0.02354l0.23541,-0.09541l0.12639,-0.01611l0.2639,-0.1846l0.09912,0.14495l0.33329,0.19204l0.00991,0.11275l0.24409,0.28496l0.10037,0.01858l0.07682,0.25522l0.07186,0.07559l-0.03593,0.12637l0.04956,0.16479l-0.0062,0.20319l0.13505,0.10902l0.11275,-0.16353l0.09044,-0.0384l-0.01859,-0.13134l0.13009,-0.18088l0.10407,-0.02229l0.09044,-0.12389l0.19204,0.10655l0.11151,-0.10408l0.11646,0.19204l0.13877,0.13505l-0.04584,0.07558l0.05204,0.25771l0.11647,0.07309l0.06939,0.2069l0.07062,0.00991l0.03346,-0.22798l-0.02973,-0.11522l0.05947,-0.12266l0.08673,0.04956l0.07433,0.17097l0.1685,0.05823l0.22798,0.42745l0.30974,0.34196l-0.0062,0.20318l-0.11769,0.02725l-0.14495,-0.08301l-0.17964,0.07558l-0.08053,0.18832l0.0954,0.44727l-0.01487,0.22921l0.04336,0.06566l-0.06319,0.12142l0.04956,0.1177l-0.01982,0.15735l0.02478,0.27257l-0.09788,0.07681l-0.16479,0.02479l-0.17222,0.12142l-0.19328,0.00991l-0.15239,0.08797l-0.02973,0.24656l-0.18584,0.06938l-0.00744,0.08053l0.15239,0.09787l0.21434,0.07062l0.02229,0.08673l0.20566,-0.03222l-0.03469,0.33205l-0.12762,0.12142l0.08549,0.06195l-0.02106,0.21557l-0.33948,0.12639l-0.13133,0.45593l0.06071,0.13753l0.09167,0.06815l0.07309,0.14l-0.24903,0.17593l-0.08921,0.14248l-0.09663,-0.05574l-0.08921,0.2069l-0.16106,0.03964l-0.17097,0.21187l-0.10532,0.18957l-0.55259,0.05451l-0.02354,0.1239l0.06691,0.18708l0.08426,0.06939l-0.06815,0.13504l0.11275,0.07433l-0.04089,0.33079l-0.11769,0.33452l0.03593,0.15983l0.09912,-0.00744l0.00744,0.2255l-0.32956,0.17593l-0.16107,0.13753l-0.4448,0.02478l-0.2639,0.07433l-0.0446,0.06442l-0.33452,0.18832l-0.37293,-0.06319l-0.12018,-0.1239l-0.23292,-0.01982l-0.09416,0.04089l-0.11151,0.14744l-0.11152,0.3147l-0.1685,0.31221l-0.1016,0.24655l-0.11026,0.16602l-0.16355,0.16355l-0.12637,0.29364l-0.22424,0.26019l0.06442,0.63188l-0.13381,0.16726l-0.01487,0.23292l0.03966,0.31718l-0.01859,0.26886l-0.14,-0.21929l-0.07309,-0.17965l-0.11522,-0.07186l-0.00371,0.27505l-0.19204,-0.0384l-0.07682,0.05575l-0.10779,-0.0508l-0.0384,-0.14495l-0.19204,-0.2701l-0.1462,-0.26019l-0.13256,-0.11026l-0.15859,-0.05823l-0.06071,-0.22921l-0.12142,-0.02726l0.04089,-0.14371l-0.13009,-0.13753l-0.07806,-0.21807l-0.06815,-0.03469l-0.17841,0.11026l-0.03469,0.17593l-0.05947,0.057l-0.28744,-0.07186l-0.03099,0.07309l-0.17964,-0.0384l-0.14867,0.12018l-0.1623,0.19452l-0.12142,-0.19204l-0.19576,0.17717l-0.19824,-0.12639l-0.0954,-0.12637l-0.14495,-0.09912l-0.00744,-0.09788l0.12513,-0.03593l0.0954,-0.1239l-0.04213,-0.06071l0.02725,-0.28868l-0.057,-0.14l0.06195,-0.06195l0.20072,-0.32337l-0.01362,-0.18834l0.13753,-0.31098l-0.10902,-0.17593l-0.01982,-0.14992l0.17593,-0.05204l0.13381,-0.08921l0.08921,-0.14371l-0.03966,-0.0793l-0.15983,-0.10532l-0.09541,-0.18461l-0.10532,-0.08673l0.08797,-0.13877l-0.03964,-0.08673l0.09167,-0.0954l0.0384,-0.12886l-0.05823,-0.11275l-0.01362,-0.16107l-0.23044,-0.057l-0.04708,-0.16726l-0.13753,-0.11399l0.01115,-0.12762l0.17964,-0.25027l-0.02354,-0.25647l-0.19948,-0.04584l-0.13256,-0.40018l-0.13753,0.01362l-0.07186,0.28249l-0.19576,0.04089l-0.0446,-0.19824l-0.09293,-0.00991l-0.09541,0.10035l-0.07186,-0.17717l0.08053,-0.2131l-0.01362,-0.43116l-0.03221,-0.08426l0.057,-0.19328l-0.10037,-0.10532l-0.21557,0.09044l-0.11895,-0.04708l-0.01487,-0.11275l-0.10158,-0.13381l0.04833,-0.10654l-0.08053,-0.11895l0.0508,-0.10902l0.12018,-0.10902l-0.01487,-0.09044l0.12018,-0.10779l-0.08673,-0.08053l0.26267,-0.43984l0.11895,-0.04089l-0.02726,-0.11151l0.08053,-0.13134l-0.02479,-0.20071l-0.08177,-0.09663l0.04089,-0.21807l0.07681,-0.14992l0.23417,-0.01734l0.01982,-0.05823l0.35063,-0.23169l0.28992,0.08921l0.10902,0.13876l0.12513,-0.03098l0.14497,0.11151l0.38285,-0.057l0.07433,0.08426l0.21063,-0.02973l0.14744,0.14744l0.08549,0.22301l0.10532,-0.11646l0.00124,-0.20442l0.16353,-0.24531l0.24903,0.14124l0.06691,-0.03593l0.26763,0.04708l0.16973,-0.09788l0.00124,-0.10902l0.16106,-0.10655l0.15363,0.14868l0.14248,0.0161l0.0384,-0.11769l0.14992,-0.03098l0.08673,-0.14248l0.09044,0.1239l0.02229,0.19576l0.1462,0.01114l0.07309,-0.09416l0.22054,0.03098l0.12637,-0.07433l0.1239,0.03221l0.13134,-0.12513l0.04831,-0.12142l0.20566,0.10902l0.16602,-0.12513l0.11647,-0.02106l0.13009,0.06071l-0.00373,0.10037l0.18832,0.00992l0.08176,-0.14744l0.0793,-0.534l0.1623,0.02229l0.12018,-0.04336l0.09044,-0.18461l-0.07929,-0.26142l-0.07186,-0.07309l0.0446,-0.20442l-0.12514,-0.27877l-0.09788,-0.02973l-0.07806,-0.11399l-0.16106,-0.02973l-0.03221,-0.08426l0.11769,-0.20072l-0.05327,-0.11895l-0.21063,-0.02354l-0.23788,-0.09541l0.00744,-0.17841l-0.04708,-0.34939l-0.28001,-0.07186l0.02229,-0.21063l0.06815,-0.17841l0.01239,-0.41134l0.11151,-0.18461l0.24655,-0.11895"></path></g></g></svg>