<svg version="1.1" xmlns="http://www.w3.org/2000/svg" xmlns:xlink="http://www.w3.org/1999/xlink" width="9.91175" height="5.41938" viewBox="0,0,9.91175,5.41938"><g transform="translate(-275.04484,-174.37188)"><g fill="#ff0000" fill-rule="evenodd" stroke="#ffffff" stroke-width="0" stroke-linecap="round" stroke-linejoin="round" stroke-miterlimit="10"><path d="M283.41905,174.62845l0.08796,0.32585l0.10035,0.1747l0.16355,0.2069l0.11275,0.09416l0.04461,0.13381l-0.04833,0.1016l0.04336,0.31717l-0.03221,0.08177l0.15362,0.2131l-0.01858,0.11646l0.0954,0.0954l0.06071,0.23664l0.10779,0.19699l0.17841,0.13009l0.13628,0.25399l0.22301,0.35683l0.12886,0.43364l-0.1276,0.3085l-0.02479,0.30107l0.04336,0.07559l-0.03718,0.35062l0.06566,0.20938l-0.20566,0.02354l-0.07309,-0.06689l0.06566,-0.12639l-0.07186,-0.05327l-0.22548,0.0793l-0.18088,-0.13256l-0.14744,0.11399l-0.15859,-0.22921l-0.25896,0.04708l-0.16355,-0.04584l-0.09167,-0.13133l-0.26019,0.10284l0.1239,0.19452l-0.07186,0.16107l-0.2131,0.09663l-0.04833,-0.14495l-0.30603,-0.03098l-0.16107,-0.11026l-0.53027,-0.01487l-0.15859,0.0384l-0.01487,0.07433l-0.18461,0.18461l-0.01858,0.21186l-0.23044,-0.12389l-0.19328,-0.05327l-0.08177,0.11152l-0.24036,0.1462l-0.19328,0.12637l0.00744,-0.3147l-0.05947,-0.08921l0.00991,-0.12886l-0.07681,-0.0384l0.11893,-0.18214l-0.06815,-0.07062l-0.15362,0.20072l-0.28001,0.17345l-0.337,0.04336l-0.10284,0.10035l-0.32461,0.10284l-0.3147,0.01114l-0.18213,-0.04956l-0.0793,0.07309l-0.22674,-0.03098l-0.00124,-0.18834l-0.12637,-0.04213l-0.01487,-0.1338l-0.22797,-0.04833l-0.0446,-0.04584l-0.20195,0.04336l-0.1016,-0.09168l-0.08921,-0.22425l0.01487,-0.14371l-0.1685,-0.0062l-0.01735,-0.16602l-0.24035,-0.06938l-0.2639,0.05327l-0.1016,-0.03469l-0.24531,0.02478l-0.24656,-0.15239l-0.1177,0.083l-0.13256,0.01362l-0.22301,-0.12266l-0.13876,-0.04089l-0.04708,-0.09293l-0.29735,-0.12762l-0.29364,0.01115l-0.14124,-0.0384l0.09663,-0.08426l0.03099,-0.14248l0.12637,-0.20443l-0.10902,-0.19081l0.0062,-0.18214l-0.12018,-0.11646l0.17222,-0.05204l0.33576,-0.17222l0.23291,-0.05947l0.06815,-0.057l0.13009,-0.30727l0.28372,0.06071l0.14124,0.14248l0.21929,-0.27628l0.36302,-0.18337l0.1462,0.02354l0.13381,-0.10655l0.23292,0.1016l0.25275,0.31223l0.21929,0.0384l0.23788,-0.21806l0.254,-0.07433l0.31346,-0.05947l0.37293,-0.28001l0.24903,-0.02106l0.00496,-0.07309l0.18957,-0.12637l0.11026,-0.02602l0.24035,0.07558l0.15611,-0.30107l0.14248,-0.02479l-0.02602,-0.17593l0.15362,-0.06195l0.16602,0.11399l0.08797,-0.00373l0.41505,0.23788l0.25152,-0.16974l0.08426,-0.14744l0.07558,0.07433l0.38779,0.10037l0.25027,-0.09293l0.15859,0.0161l0.00124,-0.22177l0.17717,-0.00247l0.13009,-0.1747l-0.01362,-0.08177l-0.14371,-0.03718l-0.06815,-0.11151l0.11028,-0.21062l0.24903,-0.04708l0.08549,-0.09912l0.01487,0.26637l0.04336,0.05575l0.18584,-0.00867l0.23541,0.1016l0.12886,-0.15859"></path></g></g></svg>