<svg version="1.1" xmlns="http://www.w3.org/2000/svg" xmlns:xlink="http://www.w3.org/1999/xlink" width="343" height="343" viewBox="0,0,343,343"><defs><radialGradient cx="240" cy="180" r="171.5" gradientUnits="userSpaceOnUse" id="color-1"><stop offset="0" stop-color="#ffffff" stop-opacity="0.40392"></stop><stop offset="1" stop-color="#ffffff" stop-opacity="0"></stop></radialGradient></defs><g transform="translate(-68.5,-8.5)"><g stroke="#ffffff" stroke-miterlimit="10"><path d="M68.5,180c0,-94.71683 76.78317,-171.5 171.5,-171.5c94.71683,0 171.5,76.78317 171.5,171.5c0,94.71683 -76.78317,171.5 -171.5,171.5c-94.71683,0 -171.5,-76.78317 -171.5,-171.5z" fill="url(#color-1)" stroke-width="0"></path><path d="M108.12459,268.74191l220.61732,-220.61732l43.13351,43.13351l-220.61732,220.61732z" fill="#ffffff" stroke-width="31.5"></path><path d="M151.25811,48.12459l220.61731,220.61731l-43.13351,43.13351l-220.61731,-220.61731z" fill="#ffffff" stroke-width="31.5"></path><path d="M151.25811,63.68094l205.06097,205.06096l-27.57717,27.57717l-205.06096,-205.06096z" fill="#ff0000" stroke-width="0"></path><path d="M123.68093,268.74191l205.06097,-205.06097l27.57716,27.57716l-205.06097,205.06097z" fill="#ff0000" stroke-width="0"></path></g></g></svg>