<svg version="1.1" xmlns="http://www.w3.org/2000/svg" xmlns:xlink="http://www.w3.org/1999/xlink" width="7.48595" height="9.34442" viewBox="0,0,7.48595,9.34442"><g transform="translate(-197.62291,-193.33427)"><g fill="#ff0000" stroke="#ffffff" stroke-width="0" stroke-linecap="round" stroke-linejoin="round" stroke-miterlimit="10"><path d="M203.84017,193.79527l0.07309,0.16602l0.11151,0.00992l0.12637,0.15982l-0.0062,0.17097l-0.09663,0.11026l0.03221,0.1462l-0.0954,0.19576l0.05823,0.34691l-0.10532,0.14371l0.00744,0.11151l0.09416,0.05452l0.06319,0.42496l0.15115,0.14992l-0.01115,0.11769l0.19699,0.05327l0.01735,0.10532l-0.17717,0.35557l0.04213,0.18461l-0.08549,0.08797l-0.00247,0.12886l0.13753,0.17222l0.01362,0.15735l0.10902,0.08426l0.21557,0.05574l0.04336,0.24779l0.10407,0.04956l0.13504,0.14124l0.04585,0.26761l0.05204,0.12762l-0.08176,0.16107l0.07558,0.19081l0.02478,0.17841l-0.08176,0.0954l-0.02354,0.1239l-0.01735,0.45841l-0.03469,0.06938l-0.3494,-0.21062l0.00744,0.09541l0.24903,0.14744l0.06566,0.1016l-0.11399,0.18213l-0.22674,-0.18213l-0.06195,0.09912l-0.14992,0.0446l-0.13009,0.09416l-0.04213,0.19328l-0.03221,0.37416l-0.15239,0.2069l-0.19081,0.04336l-0.057,-0.14867l-0.15115,-0.07806l-0.13381,0.03221l-0.11646,-0.03099l-0.10532,-0.0954l-0.16355,0.06319l-0.11151,-0.14248l-0.16355,0.01239l-0.09912,-0.04214l-0.09168,0.08549l-0.13504,-0.03222l0.00867,-0.10655l0.33328,-0.1276l0.02229,-0.18461l-0.0446,-0.2069l-0.15982,-0.04831l-0.18957,0.00124l0.04213,0.1747l-0.09044,0.04336l-0.06938,0.1462l-0.14992,0.0384l-0.13628,-0.02354l-0.26763,0.14371l-0.47824,0.1239l-0.2701,0.15362l-0.12639,-0.00867l-0.12886,-0.09168l-0.17222,0.00373l-0.11275,0.34196l-0.03098,0.2515l-0.04584,0.07558l-0.30479,0.01858l-0.16355,0.16602l-0.12142,-0.00992l-0.24161,0.05452l-0.00991,-0.22425l-0.09044,-0.08053l-0.21186,0.03964l-0.30479,-0.14867l-0.13009,0.07062l-0.12514,-0.08177l0.00373,-0.24161l-0.10532,-0.12637l-0.23417,-0.14744l-0.10284,-0.10532l0.04213,-0.10037l-0.05204,-0.35806l-0.12639,-0.0793l0.11274,-0.12637l-0.00991,-0.07558l-0.15362,-0.21929l0.11275,-0.04089l0.07309,0.08426l0.13877,0.02973l0.06195,-0.14495l-0.10902,-0.11275l-0.22425,-0.41134l0.00496,-0.07062l-0.10283,-0.17222l-0.22798,-0.02478l-0.14,-0.06319l-0.06442,-0.3085l0.26267,-0.0892l0.14744,-0.12514l-0.06442,-0.23417l0.09044,-0.0062l0.11895,-0.12142l-0.02973,-0.1809l-0.08053,-0.04336l-0.1338,-0.24161l-0.06566,-0.09416l0.07806,-0.20442l-0.06442,-0.04833l0.00496,-0.14248l0.08176,-0.04956l-0.01114,-0.21434l0.22425,-0.30356l0.33823,0.09788l0.18337,-0.07062l0.02602,0.27505l0.16106,0.13876l0.16602,-0.03469l0.03221,-0.11522l0.16107,-0.06319l0.03346,-0.12142l0.41134,-0.02229l0.02849,0.08053l0.13504,0.05327l0.20938,0.18461l0.14497,-0.02229l0.02478,0.10283l0.28002,-0.1276l0.01487,-0.23417l0.19328,-0.25771l-0.05947,-0.15488l0.06442,-0.11275l-0.04833,-0.12639l0.08797,-0.22797l0.15736,-0.0062l0.02354,-0.08301l0.19699,-0.22921l0.16974,0.02354l0.20195,-0.06566l0.02849,-0.11522l-0.24409,-0.2515l-0.1276,-0.05575l0.04089,-0.26514l0.04584,-0.08797l-0.1239,-0.2131l0.09044,-0.08053v-0.14744l0.18214,-0.09416l0.07062,-0.12639l0.16602,0.07309l0.28124,-0.05327l0.14248,-0.13256l0.18088,0.20938l0.13009,0.29612l-0.06071,0.04956l0.16107,0.15859l0.1276,-0.1685l0.20195,-0.08673l0.0892,-0.24779l0.0062,-0.1016l0.14,0.00247l0.13009,0.09044l0.1809,0.00124l0.18213,-0.08053l0.04584,0.18584l0.11895,0.15735l0.13381,-0.00496" fill-rule="evenodd"></path><path d="M202.04365,202.4185l0.06815,0.20072l-0.16602,0.05947l-0.02229,-0.43116l0.22178,-0.23044l0.1524,-0.11399l0.09663,0.22054l-0.12142,0.15735l-0.08053,0.01239l-0.14868,0.12514" fill-rule="evenodd"></path><path d="M201.12683,202.66628l-0.03717,-0.23044l0.02106,-0.13009l0.13256,-0.19204l0.11522,-0.03718l0.1623,0.29612v0.08053l-0.1623,0.13876l-0.23169,0.07433" fill-rule="evenodd"></path><path d="M201.59763,202.23265l-0.06938,-0.16602l0.07309,-0.06815l0.17345,0.24656l0.00247,0.15982l-0.16479,0.00744l-0.01487,-0.17965" fill-rule="evenodd"></path><path d="M203.84017,193.79527l0.07309,0.16602l0.11151,0.00992l0.12637,0.15982l-0.0062,0.17097l-0.09663,0.11026l0.03221,0.1462l-0.0954,0.19576l0.05823,0.34691l-0.10532,0.14371l0.00744,0.11151l0.09416,0.05452l0.06319,0.42496l0.15115,0.14992l-0.01115,0.11769l0.19699,0.05327l0.01735,0.10532l-0.17717,0.35557l0.04213,0.18461l-0.08549,0.08797l-0.00247,0.12886l0.13753,0.17222l0.01362,0.15735l0.10902,0.08426l0.21557,0.05574l0.04336,0.24779l0.10407,0.04956l0.13504,0.14124l0.04585,0.26761l0.05204,0.12762l-0.08176,0.16107l0.07558,0.19081l0.02478,0.17841l-0.08176,0.0954l-0.02354,0.1239l-0.01735,0.45841l-0.03469,0.06938l-0.3494,-0.21062l0.00744,0.09541l0.24903,0.14744l0.06566,0.1016l-0.11399,0.18213l-0.22674,-0.18213l-0.06195,0.09912l-0.14992,0.0446l-0.13009,0.09416l-0.04213,0.19328l-0.03221,0.37416l-0.15239,0.2069l-0.19081,0.04336l-0.057,-0.14867l-0.15115,-0.07806l-0.13381,0.03221l-0.11646,-0.03099l-0.10532,-0.0954l-0.16355,0.06319l-0.11151,-0.14248l-0.16355,0.01239l-0.09912,-0.04214l-0.09168,0.08549l-0.13504,-0.03222l0.00867,-0.10655l0.33328,-0.1276l0.02229,-0.18461l-0.0446,-0.2069l-0.15982,-0.04831l-0.18957,0.00124l0.04213,0.1747l-0.09044,0.04336l-0.06938,0.1462l-0.14992,0.0384l-0.13628,-0.02354l-0.26763,0.14371l-0.47824,0.1239l-0.2701,0.15362l-0.12639,-0.00867l-0.12886,-0.09168l-0.17222,0.00373l-0.11275,0.34196l-0.03098,0.2515l-0.04584,0.07558l-0.30479,0.01858l-0.16355,0.16602l-0.12142,-0.00992l-0.24161,0.05452l-0.00991,-0.22425l-0.09044,-0.08053l-0.21186,0.03964l-0.30479,-0.14867l-0.13009,0.07062l-0.12514,-0.08177l0.00373,-0.24161l-0.10532,-0.12637l-0.23417,-0.14744l-0.10284,-0.10532l0.04213,-0.10037l-0.05204,-0.35806l-0.12639,-0.0793l0.11274,-0.12637l-0.00991,-0.07558l-0.15362,-0.21929l0.11275,-0.04089l0.07309,0.08426l0.13877,0.02973l0.06195,-0.14495l-0.10902,-0.11275l-0.22425,-0.41134l0.00496,-0.07062l-0.10283,-0.17222l-0.22798,-0.02478l-0.14,-0.06319l-0.06442,-0.3085l0.26267,-0.0892l0.14744,-0.12514l-0.06442,-0.23417l0.09044,-0.0062l0.11895,-0.12142l-0.02973,-0.1809l-0.08053,-0.04336l-0.1338,-0.24161l-0.06566,-0.09416l0.07806,-0.20442l-0.06442,-0.04833l0.00496,-0.14248l0.08176,-0.04956l-0.01114,-0.21434l0.22425,-0.30356l0.33823,0.09788l0.18337,-0.07062l0.02602,0.27505l0.16106,0.13876l0.16602,-0.03469l0.03221,-0.11522l0.16107,-0.06319l0.03346,-0.12142l0.41134,-0.02229l0.02849,0.08053l0.13504,0.05327l0.20938,0.18461l0.14497,-0.02229l0.02478,0.10283l0.28002,-0.1276l0.01487,-0.23417l0.19328,-0.25771l-0.05947,-0.15488l0.06442,-0.11275l-0.04833,-0.12639l0.08797,-0.22797l0.15736,-0.0062l0.02354,-0.08301l0.19699,-0.22921l0.16974,0.02354l0.20195,-0.06566l0.02849,-0.11522l-0.24409,-0.2515l-0.1276,-0.05575l0.04089,-0.26514l0.04584,-0.08797l-0.1239,-0.2131l0.09044,-0.08053v-0.14744l0.18214,-0.09416l0.07062,-0.12639l0.16602,0.07309l0.28124,-0.05327l0.14248,-0.13256l0.18088,0.20938l0.13009,0.29612l-0.06071,0.04956l0.16107,0.15859l0.1276,-0.1685l0.20195,-0.08673l0.0892,-0.24779l0.0062,-0.1016l0.14,0.00247l0.13009,0.09044l0.1809,0.00124l0.18213,-0.08053l0.04584,0.18584l0.11895,0.15735l0.13381,-0.00496" fill-rule="evenodd"></path><path d="M201.91976,201.32819l0.15362,0.1747l0.00496,0.07062l-0.15115,0.09293l-0.06566,0.11769l0.14248,0.12639l-0.10655,0.08177l0.0384,0.09788l-0.09788,0.06814l-0.13505,-0.08549l-0.08176,-0.17469l-0.22301,-0.1016l-0.18213,-0.40762l-0.08426,-0.03964l0.04213,-0.22177l0.12886,-0.08426l0.04213,-0.14l0.26886,0.01487l0.03964,0.20815l0.26637,0.20195" fill-rule="evenodd"></path><path d="M201.2755,201.97246l-0.2639,0.13133l-0.13876,0.09788l-0.01859,0.08426l-0.13009,0.08797l-0.24035,0.06938l-0.18708,-0.15362l0.07806,-0.3023l0.19081,-0.39771l0.08549,0.08921l0.27133,-0.05204l0.19204,-0.09663l0.09293,0.03345l0.1016,0.20442l-0.03346,0.20442" fill-rule="evenodd"></path><path d="M200.82948,201.52643l-0.18834,-0.11522l0.06691,-0.14001l-0.02229,-0.09044l0.07433,-0.11646l-0.00496,-0.11895l0.16355,-0.06319l0.06319,0.10037l0.04708,0.2515l-0.12886,0.26017l-0.07062,0.03222" fill-rule="evenodd"></path><path d="M200.32149,201.73705l-0.09044,-0.18088l0.05327,-0.16726l0.15488,-0.10902l0.10407,0.29735l-0.06566,0.14744l-0.15611,0.01239" fill-rule="evenodd"></path><path d="M202.76226,201.22908l-0.02725,-0.1685l0.27628,-0.14868l0.02229,0.08673l-0.03469,0.21062l-0.07559,0.0446l-0.16106,-0.02478" fill-rule="evenodd"></path><path d="M200.90699,202.19446l-0.01858,0.08426l-0.1301,0.08797l-0.24036,0.06938l-0.12143,-0.05824l-0.06566,-0.0954l0.07806,-0.30233l0.19082,-0.39772l0.0855,0.08921l0.27134,-0.05205l0.19204,-0.09664l0.09293,0.03346l0.10158,0.20443l-0.03345,0.20443l-0.26391,0.13134l-0.13877,0.09789" fill-rule="nonzero"></path><path d="M202.10883,201.57494l-0.15116,0.09293l-0.06566,0.1177l0.14249,0.12639l-0.10655,0.08177l0.0384,0.09788l-0.09788,0.06815l-0.13505,-0.0855l-0.08177,-0.1747l-0.22301,-0.1016l-0.08798,-0.23294l-0.09417,-0.1747l-0.08426,-0.03964l0.04213,-0.22179l0.12886,-0.08426l0.04213,-0.14001l0.26887,0.01487l0.03964,0.20816l0.26638,0.20195l0.15363,0.1747l0.00496,0.07062" fill-rule="nonzero"></path><path d="M200.31226,201.3891l0.15488,-0.10903l0.10408,0.29737l-0.06566,0.14744l-0.15612,0.01239l-0.09044,-0.18088l0.05327,-0.16727" fill-rule="nonzero"></path><path d="M200.85743,201.52538l-0.18834,-0.11523l0.06691,-0.14001l-0.02231,-0.09044l0.07433,-0.11647l-0.00496,-0.11896l0.16356,-0.06319l0.06319,0.10037l0.04708,0.25152l-0.12886,0.2602l-0.07062,0.03221" fill-rule="nonzero"></path><path d="M202.76552,201.06695l0.27629,-0.14868l0.02231,0.08673l-0.0347,0.21064l-0.07558,0.0446l-0.16107,-0.02479l-0.02725,-0.1685" fill-rule="nonzero"></path><path d="M201.15479,202.66527l-0.03718,-0.23046l0.02106,-0.1301l0.13257,-0.19204l0.11523,-0.03717l0.16232,0.29613v0.08053l-0.16232,0.13877l-0.23169,0.07433" fill-rule="nonzero"></path><path d="M202.14601,202.61572l-0.16602,0.05947l-0.02231,-0.43117l0.22179,-0.23045l0.1524,-0.11399l0.09664,0.22054l-0.12143,0.15736l-0.08053,0.01238l-0.14869,0.12514l0.06815,0.20073" fill-rule="nonzero"></path><path d="M201.55128,202.07054l0.0731,-0.06815l0.17346,0.24656l0.00247,0.15983l-0.16479,0.00744l-0.01487,-0.17967l-0.06939,-0.16602" fill-rule="nonzero"></path></g></g></svg>