<svg version="1.1" xmlns="http://www.w3.org/2000/svg" xmlns:xlink="http://www.w3.org/1999/xlink" width="14.10963" height="39.888" viewBox="0,0,14.10963,39.888"><g transform="translate(-142.09901,-195.7419)"><g stroke-miterlimit="10"><g><g fill="#ff0000" fill-rule="evenodd" stroke="#ffffff" stroke-width="0" stroke-linecap="round" stroke-linejoin="round"><path d="M142.71731,234.806l0.15703,0.0787l-0.01857,0.16724l-0.17094,-0.11805l0.03247,-0.1279"></path><path d="M142.17746,235.6299l-0.07845,-0.09961l0.1574,-0.0578l-0.07893,0.1574"></path></g><g fill="none" fill-rule="nonzero" stroke="none" stroke-width="1" stroke-linecap="butt" stroke-linejoin="miter" font-family="sans-serif" font-weight="normal" font-size="12" text-anchor="start"></g><g fill="#ff0000" fill-rule="evenodd" stroke="#ffffff" stroke-width="0" stroke-linecap="round" stroke-linejoin="round"><path d="M155.9772,196.02116l0.02693,0.13404l0.10232,0.05533l0.0782,0.17831l-0.13698,0.11682l-0.0241,0.1697l0.18507,-0.00369l-0.11793,0.26071l-0.01341,0.11436l-0.25492,0.04673l-0.16245,-0.1033l0.04464,0.23365l0.24139,0.0455l0.12089,0.17217l-0.12913,0.37014l0.0316,0.10821l-0.0375,0.15863l-0.12137,-0.03321l0.02705,0.17708l-0.1167,0.25577l-0.17683,0.23857l-0.31763,0.28529l-0.29243,0.37014l-0.01464,0.09346l-0.15101,0.14388l0.13552,0.27668l-0.23783,-0.05042l0.0214,0.19182l0.10034,-0.09346l0.03664,0.18569l-0.23512,0.32833l0.12309,-0.01967l0.08264,-0.08485l0.20414,0.00984l0.00924,0.07993l-0.16097,0.06763l-0.04106,0.13527l0.1049,0.19799l0.09604,0.08362l-0.07268,0.14019l0.00787,0.14388l0.07009,0.09715l-0.10958,0.05657l-0.04857,-0.08977l-0.14597,0.02583l0.10908,0.15002l0.00861,0.10698l-0.31899,0.3271l-0.19393,-0.18446l-0.04341,-0.17094l0.17819,-0.05903l-0.04106,-0.20414l0.10255,-0.10576l-0.1172,-0.19553l0.06898,-0.09837l-0.24459,-0.05657l-0.07304,0.03197l0.03394,0.16601l-0.10009,0.07501l-0.08977,0.14879l-0.13244,-0.15249l0.10084,-0.05657l-0.10698,-0.24964l0.17229,-0.20414l-0.05055,-0.03074l-0.23512,0.22135l-0.07993,0.17708l0.10501,0.00861l-0.00763,0.2029l-0.15924,-0.02951l-0.0246,-0.11313h-0.20537l-0.10624,0.0455l-0.21348,-0.0246l-0.06972,-0.15372l0.13379,-0.05533l0.07464,0.10944l0.07956,-0.08239l0.1408,-0.03935l0.17265,-0.22997l-0.06173,-0.10453l0.03124,-0.21028l-0.04746,-0.34185l0.09492,-0.24718l0.11818,-0.07624l-0.17289,-0.11068l-0.00898,-0.14019l0.1022,-0.22504l0.0728,-0.03197l0.10932,-0.23119l0.00394,-0.11805l0.13675,-0.27176l0.3469,-0.09715l-0.1039,-0.09592l0.01598,-0.08116l-0.10637,-0.06887l-0.15802,-0.28899l-0.15002,0.16601l-0.07858,-0.00122l-0.02286,-0.19676l0.11288,-0.08363l0.03541,-0.14511l0.10145,-0.18323l-0.02914,-0.08731l0.10194,-0.17094l0.05865,-0.19553l0.02251,-0.29758l0.0985,-0.04919l0.17731,0.07625l0.20131,-0.05903l0.0851,0.15987l0.1087,-0.1242l0.05595,0.06518l0.17498,-0.2029l0.18728,-0.33079l0.13035,-0.14511l-0.00492,-0.11436l0.17387,0.05657l0.10649,-0.06763l0.09984,-0.15249l0.07711,0.18569l0.12285,-0.02706l0.08141,0.12052"></path><path d="M152.89801,201.35806l0.07255,0.08854l-0.01525,0.24226l-0.05202,0.13527l0.11314,0.10084l0.22504,-0.19553l0.1017,-0.03935l0.09899,0.04919l0.10194,-0.08116l-0.02078,-0.13281l0.15703,-0.02337l0.08977,0.13895l0.14991,0.0332l-0.01918,0.19676l-0.05805,0.13281l0.04525,0.06641l0.14584,-0.02583l0.10895,-0.14634l0.18889,-0.08238l0.12285,0.10576l-0.0284,0.08608l0.0851,0.13404l-0.27201,0.02582l-0.13821,0.24103l-0.05373,0.2398l0.12998,0.25454l-0.3153,0.21889l-0.0011,0.18077l-0.1022,0.13527l0.06357,0.26438l-0.01267,0.15987l-0.12506,-0.0578l-0.06566,0.17831l0.04723,0.13035l-0.08424,0.0578l0.03726,0.09961l-0.19945,0.12052l-0.02509,0.14511l-0.10501,0.10084l-0.43285,0.21274l-0.09948,-0.18077l-0.16798,0.01967l-0.00824,-0.10206l-0.10797,-0.0455l-0.12383,0.04182l-0.06837,-0.06641l-0.04844,-0.18446l-0.00209,-0.16847l0.08596,-0.12174l-0.0064,-0.2693l0.05989,-0.18444l0.00885,-0.58534l0.02876,-0.11805l0.11597,-0.09961l-0.0787,-0.17339l0.13047,-0.33693l0.02755,-0.20291l-0.0348,-0.05902l0.04723,-0.24103l-0.03075,-0.1611l0.11154,-0.27301l0.0712,0.06764l0.13096,-0.04673"></path><path d="M154.89137,202.0098l-0.19466,0.11682l-0.10428,0.11314l-0.10932,-0.18815l-0.00012,-0.14265l0.07095,-0.07747l0.15814,-0.07009l0.16809,-0.0209l0.12778,0.06149l-0.11657,0.20782"></path><path d="M154.18551,201.27198l0.00701,0.21275l0.07772,0.19182l-0.12335,0.00369l-0.11387,-0.15618l-0.22799,-0.06025l-0.04783,-0.06641l0.07107,-0.13773l0.19182,0.1574l0.1654,-0.14511"></path><path d="M154.95407,201.21051l0.03407,-0.20414l0.06197,-0.08977l0.11166,0.15126l0.02053,0.17339l-0.22824,-0.03075"></path></g></g><path d="M154.48168,202.05879l-0.00012,-0.14265l0.07095,-0.07747l0.15814,-0.0701l0.16811,-0.02091l0.12778,0.06149l-0.11659,0.20782l-0.19466,0.11683l-0.10428,0.11314l-0.10932,-0.18815" fill="#ff0000" fill-rule="nonzero" stroke="#ffffff" stroke-width="0" stroke-linecap="round" stroke-linejoin="round"></path><path d="M154.03157,201.51769l-0.228,-0.06025l-0.04784,-0.06641l0.07107,-0.13773l0.19184,0.15741l0.1654,-0.14512l0.00701,0.21275l0.07773,0.19185l-0.12335,0.00369l-0.11387,-0.15618" fill="#ff0000" fill-rule="nonzero" stroke="#ffffff" stroke-width="0" stroke-linecap="round" stroke-linejoin="round"></path><path d="M155.04858,200.91512l0.11166,0.15126l0.02053,0.1734l-0.15335,0.01352l-0.07489,-0.04427l0.03406,-0.20414l0.06199,-0.08977" fill="#ff0000" fill-rule="nonzero" stroke="#ffffff" stroke-width="0" stroke-linecap="round" stroke-linejoin="round"></path></g></g></svg>