<svg version="1.1" xmlns="http://www.w3.org/2000/svg" xmlns:xlink="http://www.w3.org/1999/xlink" width="6.89387" height="7.51362" viewBox="0,0,6.89387,7.51362"><g transform="translate(-166.63981,-213.49515)"><g fill="#ff0000" fill-rule="evenodd" stroke="#ffffff" stroke-width="0" stroke-linecap="round" stroke-linejoin="round" stroke-miterlimit="10"><path d="M173.53368,214.40522l-0.03321,0.1574l-0.07255,0.12666l-0.08731,0.59641l0.01476,0.15126l-0.28776,0.03688l-0.00738,0.20782l-0.32587,0.28037l0.08362,0.10084h0.10452l0.07009,0.26684l0.08238,0.19922l0.04058,0.18938l-0.11314,0.10576l-0.00738,0.14141l0.091,0.20905l-0.10453,-0.0209l-0.1242,0.07379l-0.20414,0.00123l-0.04919,0.09469l0.01967,0.20905l0.32218,0.06641l0.08731,0.04673l-0.25579,0.17831l-0.02828,0.09346l0.33447,0.25825l0.29268,0.09961l-0.02214,0.14634l-0.09715,0.03074l-0.01476,0.14019l0.03689,0.17093l-0.10207,0.08116l-0.06271,0.30373l-0.05657,0.1365l-0.10207,0.12297l-0.16601,0.07501l-0.16233,-0.03812l-0.182,-0.14634l-0.05533,0.01106l-0.22258,-0.12052l-0.22504,-0.00369l-0.20905,-0.19307l-0.20168,-0.13035l-0.03689,-0.10452l-0.14141,0.02214l-0.13035,-0.05042l-0.09961,0.05411l-0.16355,-0.04796l0.02582,-0.07379l-0.09715,-0.13404l-0.21766,0.17831l-0.01476,0.19922l-0.07378,0.37137l-0.05043,0.14019l-0.19797,-0.07132l-0.30129,0.07132l-0.17954,-0.091l-0.25579,-0.01844l-0.11559,0.1365l-0.11068,0.03689l-0.00738,0.12174l0.05411,0.12911l-0.11805,0.01476l-0.25333,0.11805l-0.03935,0.18446l-0.18815,-0.00123l-0.1574,0.11067l-0.11191,0.13774l0.11682,0.17339l0.01353,0.1574l0.12543,0.17708l-0.10698,0.14879l-0.09837,-0.03935l-0.18569,0.07255l-0.5878,-0.05042l-0.27176,0.04058l-0.21397,0.0332l-0.00123,-0.07009l0.15618,-0.06764l0.16971,-0.29512l-0.04673,-0.09592l0.07378,-0.24841l-0.08854,-0.25825l-0.11559,-0.24964l-0.23486,-0.08977l-0.02459,-0.04181l0.1242,-0.16601l-0.30006,-0.17217l0.0455,-0.12666l-0.0455,-0.19184l-0.2152,0.01352l0.00122,-0.19676l-0.04673,-0.23119l0.0123,-0.1611l-0.15372,-0.11682l-0.01106,-0.24349l0.18813,-0.06271l0.08731,-0.08731l0.17339,-0.06887l0.03444,-0.1365l-0.1033,-0.10207l0.0332,-0.11928l0.14879,0.0541l0.06026,-0.07009l-0.01599,-0.17339l0.13527,-0.02951l0.02582,0.15372l0.1574,-0.05902l0.19676,-0.40949l-0.04919,-0.14142l0.14264,0.01107l-0.04181,0.19922l0.091,0.17337l0.08854,-0.01476l-0.01229,-0.19676l0.05287,-0.06641l0.14634,-0.02828l0.01599,-0.07993l-0.12297,-0.05165l-0.00738,-0.1033l0.1365,-0.0578l0.22381,-0.0209l0.05533,-0.14388l-0.15249,-0.14757l0.08731,-0.10207l0.18938,0.10821l0.07501,-0.08116l0.01353,-0.14879l0.15863,0.00983l0.20168,-0.03565l0.07379,-0.34432l-0.01106,-0.80791l-0.07255,-0.1943l0.01598,-0.06764l0.16109,-0.02582l0.04919,-0.13528l0.09715,0.03321l0.23611,0.15618l-0.22996,-0.37875l0.05287,-0.20905l0.1697,0.06148l0.10945,-0.19182l0.26069,-0.1033l0.13773,-0.19676l0.25454,0.00861l0.13527,-0.07993l0.20536,0.182l0.13158,0.0455l0.38244,0.06887l0.19061,0.10698l0.18077,-0.06641l0.29389,0.00246l0.26563,0.12297l0.08116,0.10576l0.15002,0.0086l0.06887,-0.22748l0.21766,-0.01353l0.16478,0.03935l0.06148,0.091l-0.14141,0.10576l0.20782,0.36153l0.42793,-0.04427l0.15126,0.0209"></path></g></g></svg>