<svg version="1.1" xmlns="http://www.w3.org/2000/svg" xmlns:xlink="http://www.w3.org/1999/xlink" width="185.48866" height="47.45469" viewBox="0,0,185.48866,47.45469"><g transform="translate(-124.08494,-154.55691)"><g fill-rule="evenodd" stroke-miterlimit="10"><path d="M162.4659,155.05691c1.66248,2.10582 3.09539,4.63122 4.29872,7.5762l-2.87373,1.21124c-1.12416,-2.73916 -2.51748,-5.31205 -4.17997,-7.71869zM156.48095,156.74316c1.83666,2.56498 3.26956,5.11412 4.29872,7.64745l-2.92122,1.21124c-1.07665,-2.69164 -2.48582,-5.27247 -4.22747,-7.74245l2.84999,-1.11625zM153.03723,161.94437v3.70498h-23.86858v-3.70498zM127.88615,180.73047l2.96873,1.99499c-1.42499,1.66249 -2.13749,3.38831 -2.13749,5.17746c0,1.82082 1.12416,3.1904 3.37247,4.10871c2.32748,0.94999 6.4758,1.42499 12.44492,1.42499c5.39914,0 10.50534,-0.36417 15.31865,-1.09249l0.52249,3.94247c-4.9083,0.72832 -10.01451,1.09249 -15.31864,1.09249c-5.47829,0 -9.96701,-0.46708 -13.46615,-1.40124c-1.75749,-0.475 -3.26164,-1.22708 -4.51246,-2.25623c-1.66249,-1.39333 -2.49373,-3.22206 -2.49373,-5.48621c0,-2.78665 1.1004,-5.28829 3.30122,-7.50495z" fill="#ffffff" stroke="none" stroke-linecap="square" stroke-linejoin="miter"></path><path d="M203.29186,157.7169l2.18499,2.96873c-2.56498,1.86831 -5.65246,3.97414 -9.26245,6.31745c-6.14329,3.98997 -11.22575,7.07744 -15.24739,9.26243c-1.23499,0.665 -1.85248,1.15583 -1.85248,1.4725c0,0.30083 0.28499,0.64124 0.855,1.02124c0.17417,0.12668 0.94208,0.57 2.30373,1.32999c5.71578,3.16665 12.07283,7.1566 19.07111,11.96991c1.72582,1.20333 3.53873,2.50165 5.43871,3.89497l-2.32748,3.53873c-6.77661,-5.30412 -15.80947,-11.31284 -27.09856,-18.02611c-2.04248,-1.21916 -3.06373,-2.40665 -3.06373,-3.56247c0,-1.02916 0.55416,-1.94749 1.66248,-2.75498c0.30083,-0.22166 1.19541,-0.73623 2.68373,-1.54374c4.29081,-2.31165 9.99077,-5.84246 17.09989,-10.59243c2.72331,-1.83666 5.24079,-3.60205 7.55244,-5.29621z" fill="#ffffff" stroke="none" stroke-linecap="square" stroke-linejoin="miter"></path><path d="M250.57776,155.24691c2.58083,1.37748 4.97955,3.00039 7.1962,4.86872l-2.68373,2.32748c-1.93165,-1.75749 -4.26705,-3.47539 -7.0062,-5.15372l2.49372,-2.04248zM221.98297,156.07816c2.62832,1.99499 5.12205,4.30664 7.4812,6.93495l-2.63623,2.87373c-2.32748,-2.67582 -4.80538,-5.07454 -7.43369,-7.1962l2.58874,-2.61248zM219.86925,168.23806c2.86581,2.04248 5.46246,4.35413 7.78994,6.93495l-2.73122,3.06373c-2.39081,-2.77081 -4.91622,-5.18538 -7.5762,-7.2437l2.51749,-2.75498zM226.82794,182.58297l2.96871,2.46997c-2.48581,6.25412 -5.30412,11.60576 -8.45494,16.05488l-3.06373,-2.92122c3.05581,-4.06914 5.9058,-9.27036 8.54993,-15.60364zM244.92532,155.43691c0.12666,3.70498 0.2454,6.5312 0.35626,8.47869l15.41363,-1.28249l0.2375,3.20623l-15.43739,1.30625l0.11875,1.54374l0.11875,1.56748l0.11875,1.32999l13.63241,-1.21124l0.23748,3.11124l-13.51365,1.235c0.17417,1.59915 0.40375,3.07955 0.68875,4.44122l15.84114,-1.49624l0.28498,3.11122l-15.36613,1.56748c0.61749,2.13749 1.46457,4.15622 2.54122,6.0562c2.48582,-1.61499 4.99538,-3.53873 7.52871,-5.77121l2.56498,2.37498c-2.72332,2.29582 -5.50205,4.36206 -8.33619,6.19871c1.67831,2.32748 3.3408,4.06914 4.98746,5.22495c0.80751,0.57 1.36957,0.855 1.68625,0.855c0.77583,0 1.40123,-2.46998 1.87623,-7.40994l3.30124,1.99499c-0.39582,3.15082 -0.84707,5.40704 -1.35374,6.7687c-0.71249,1.91582 -1.71791,2.87373 -3.01623,2.87373c-1.04501,0 -2.46998,-0.59375 -4.27497,-1.78124c-2.23248,-1.45666 -4.37788,-3.64165 -6.43621,-6.55495c-4.84498,2.80248 -10.3391,5.33579 -16.48239,7.59994l-2.13749,-3.06373c6.57078,-2.18499 12.19157,-4.62329 16.86238,-7.31495c-1.32998,-2.43833 -2.36707,-4.98746 -3.11122,-7.64745l-13.13365,1.32999l-0.3325,-3.34873l12.7299,-1.21124c-0.15832,-0.855 -0.38791,-2.34331 -0.68874,-4.46496l-9.85618,0.9025l-0.23749,-3.15873l9.73743,-0.87874c-0.14251,-1.50416 -0.26916,-2.99247 -0.38,-4.46496l-11.06743,0.92625l-0.3325,-3.20623l11.20991,-0.94999c-0.12666,-2.16916 -0.22958,-5.0983 -0.30874,-8.78743z" fill="#ffffff" stroke="none" stroke-linecap="square" stroke-linejoin="miter"></path><path d="M300.95117,161.80186c2.27998,4.46496 4.0612,8.93785 5.3437,13.41865c1.09248,3.87915 2.01872,8.8587 2.77873,14.93865l-3.98998,0.97374c-0.82333,-6.34912 -1.8129,-11.63741 -2.96871,-15.86488c-1.18748,-4.29081 -2.7708,-8.4866 -4.74997,-12.5874l3.58624,-0.87874zM270.36139,160.68562l3.94247,0.28499c-0.17417,2.58081 -0.26125,5.07454 -0.26125,7.4812c0,7.33079 0.41957,12.91991 1.25873,16.76738c0.64917,3.05581 1.48043,5.33581 2.49373,6.83995c0.75999,1.13999 1.42499,1.70999 1.995,1.70999c0.56999,0 1.26664,-0.61749 2.08997,-1.85248c1.26664,-1.86831 2.53332,-4.49663 3.79997,-7.88494l3.06373,2.42248c-1.29832,3.72081 -2.81039,6.76078 -4.53621,9.11994c-1.36165,1.85249 -2.82623,2.77873 -4.39371,2.77873c-2.34331,0 -4.36999,-1.7654 -6.07997,-5.29621c-1.40915,-2.88164 -2.35123,-6.09578 -2.82623,-9.64242c-0.56999,-4.16414 -0.855,-8.92994 -0.855,-14.2974c0,-2.72331 0.10292,-5.53372 0.30875,-8.43119z" fill="#ffffff" stroke="none" stroke-linecap="square" stroke-linejoin="miter"></path><path d="M162.4659,155.05691c1.66248,2.10582 3.09539,4.63122 4.29872,7.5762l-2.87373,1.21124c-1.12416,-2.73916 -2.51748,-5.31205 -4.17997,-7.71869zM156.48095,156.74316c1.83666,2.56498 3.26956,5.11412 4.29872,7.64745l-2.92122,1.21124c-1.07665,-2.69164 -2.48582,-5.27247 -4.22747,-7.74245l2.84999,-1.11625zM153.03723,161.94437v3.70498h-23.86858v-3.70498zM127.88615,180.73047l2.96873,1.99499c-1.42499,1.66249 -2.13749,3.38831 -2.13749,5.17746c0,1.82082 1.12416,3.1904 3.37247,4.10871c2.32748,0.94999 6.4758,1.42499 12.44492,1.42499c5.39914,0 10.50534,-0.36417 15.31865,-1.09249l0.52249,3.94247c-4.9083,0.72832 -10.01451,1.09249 -15.31864,1.09249c-5.47829,0 -9.96701,-0.46708 -13.46615,-1.40124c-1.75749,-0.475 -3.26164,-1.22708 -4.51246,-2.25623c-1.66249,-1.39333 -2.49373,-3.22206 -2.49373,-5.48621c0,-2.78665 1.1004,-5.28829 3.30122,-7.50495z" fill="none" stroke="#ffffff" stroke-linecap="butt" stroke-linejoin="round"></path><path d="M203.29186,157.7169l2.18499,2.96873c-2.56498,1.86831 -5.65246,3.97414 -9.26245,6.31745c-6.14329,3.98997 -11.22575,7.07744 -15.24739,9.26243c-1.23499,0.665 -1.85248,1.15583 -1.85248,1.4725c0,0.30083 0.28499,0.64124 0.855,1.02124c0.17417,0.12668 0.94208,0.57 2.30373,1.32999c5.71578,3.16665 12.07283,7.1566 19.07111,11.96991c1.72582,1.20333 3.53873,2.50165 5.43871,3.89497l-2.32748,3.53873c-6.77661,-5.30412 -15.80947,-11.31284 -27.09856,-18.02611c-2.04248,-1.21916 -3.06373,-2.40665 -3.06373,-3.56247c0,-1.02916 0.55416,-1.94749 1.66248,-2.75498c0.30083,-0.22166 1.19541,-0.73623 2.68373,-1.54374c4.29081,-2.31165 9.99077,-5.84246 17.09989,-10.59243c2.72331,-1.83666 5.24079,-3.60205 7.55244,-5.29621z" fill="none" stroke="#ffffff" stroke-linecap="butt" stroke-linejoin="round"></path><path d="M250.57776,155.24691c2.58083,1.37748 4.97955,3.00039 7.1962,4.86872l-2.68373,2.32748c-1.93165,-1.75749 -4.26705,-3.47539 -7.0062,-5.15372l2.49372,-2.04248zM221.98297,156.07816c2.62832,1.99499 5.12205,4.30664 7.4812,6.93495l-2.63623,2.87373c-2.32748,-2.67582 -4.80538,-5.07454 -7.43369,-7.1962l2.58874,-2.61248zM219.86925,168.23806c2.86581,2.04248 5.46246,4.35413 7.78994,6.93495l-2.73122,3.06373c-2.39081,-2.77081 -4.91622,-5.18538 -7.5762,-7.2437l2.51749,-2.75498zM226.82794,182.58297l2.96871,2.46997c-2.48581,6.25412 -5.30412,11.60576 -8.45494,16.05488l-3.06373,-2.92122c3.05581,-4.06914 5.9058,-9.27036 8.54993,-15.60364zM244.92532,155.43691c0.12666,3.70498 0.2454,6.5312 0.35626,8.47869l15.41363,-1.28249l0.2375,3.20623l-15.43739,1.30625l0.11875,1.54374l0.11875,1.56748l0.11875,1.32999l13.63241,-1.21124l0.23748,3.11124l-13.51365,1.235c0.17417,1.59915 0.40375,3.07955 0.68875,4.44122l15.84114,-1.49624l0.28498,3.11122l-15.36613,1.56748c0.61749,2.13749 1.46457,4.15622 2.54122,6.0562c2.48582,-1.61499 4.99538,-3.53873 7.52871,-5.77121l2.56498,2.37498c-2.72332,2.29582 -5.50205,4.36206 -8.33619,6.19871c1.67831,2.32748 3.3408,4.06914 4.98746,5.22495c0.80751,0.57 1.36957,0.855 1.68625,0.855c0.77583,0 1.40123,-2.46998 1.87623,-7.40994l3.30124,1.99499c-0.39582,3.15082 -0.84707,5.40704 -1.35374,6.7687c-0.71249,1.91582 -1.71791,2.87373 -3.01623,2.87373c-1.04501,0 -2.46998,-0.59375 -4.27497,-1.78124c-2.23248,-1.45666 -4.37788,-3.64165 -6.43621,-6.55495c-4.84498,2.80248 -10.3391,5.33579 -16.48239,7.59994l-2.13749,-3.06373c6.57078,-2.18499 12.19157,-4.62329 16.86238,-7.31495c-1.32998,-2.43833 -2.36707,-4.98746 -3.11122,-7.64745l-13.13365,1.32999l-0.3325,-3.34873l12.7299,-1.21124c-0.15832,-0.855 -0.38791,-2.34331 -0.68874,-4.46496l-9.85618,0.9025l-0.23749,-3.15873l9.73743,-0.87874c-0.14251,-1.50416 -0.26916,-2.99247 -0.38,-4.46496l-11.06743,0.92625l-0.3325,-3.20623l11.20991,-0.94999c-0.12666,-2.16916 -0.22958,-5.0983 -0.30874,-8.78743z" fill="none" stroke="#ffffff" stroke-linecap="butt" stroke-linejoin="round"></path><path d="M300.95117,161.80186c2.27998,4.46496 4.0612,8.93785 5.3437,13.41865c1.09248,3.87915 2.01872,8.8587 2.77873,14.93865l-3.98998,0.97374c-0.82333,-6.34912 -1.8129,-11.63741 -2.96871,-15.86488c-1.18748,-4.29081 -2.7708,-8.4866 -4.74997,-12.5874l3.58624,-0.87874zM270.36139,160.68562l3.94247,0.28499c-0.17417,2.58081 -0.26125,5.07454 -0.26125,7.4812c0,7.33079 0.41957,12.91991 1.25873,16.76738c0.64917,3.05581 1.48043,5.33581 2.49373,6.83995c0.75999,1.13999 1.42499,1.70999 1.995,1.70999c0.56999,0 1.26664,-0.61749 2.08997,-1.85248c1.26664,-1.86831 2.53332,-4.49663 3.79997,-7.88494l3.06373,2.42248c-1.29832,3.72081 -2.81039,6.76078 -4.53621,9.11994c-1.36165,1.85249 -2.82623,2.77873 -4.39371,2.77873c-2.34331,0 -4.36999,-1.7654 -6.07997,-5.29621c-1.40915,-2.88164 -2.35123,-6.09578 -2.82623,-9.64242c-0.56999,-4.16414 -0.855,-8.92994 -0.855,-14.2974c0,-2.72331 0.10292,-5.53372 0.30875,-8.43119z" fill="none" stroke="#ffffff" stroke-linecap="butt" stroke-linejoin="round"></path></g></g></svg>