<svg version="1.1" xmlns="http://www.w3.org/2000/svg" xmlns:xlink="http://www.w3.org/1999/xlink" width="11.36717" height="18.57499" viewBox="0,0,11.36717,18.57499"><g transform="translate(-285.7752,-145.25173)"><g fill="#ff0000" fill-rule="evenodd" stroke="#ffffff" stroke-width="0" stroke-linecap="round" stroke-linejoin="round" stroke-miterlimit="10"><path d="M294.87509,148.24016l0.07475,0.26909l0.18811,0.09841l0.03736,0.06977l0.26286,-0.03612l0.15073,-0.1009l0.00248,0.17565l-0.09342,0.08222l-0.2915,0.02742l-0.05231,0.08222l-0.22298,0.04734l-0.07847,0.08596l-0.00124,0.13205l-0.0872,0.08719l-0.01745,0.17565l-0.07972,0.04111l-0.20927,0.26908l0.13827,0.06354l0.13827,0.18064l-0.02866,0.32015l0.04859,0.04733l-0.02616,0.1769l0.02492,0.18686l0.10589,0.14326l0.27281,0.23793l0.09342,-0.01371l0.14575,0.07723l0.1009,0.12583l-0.1607,0.31891l-0.15073,-0.03612l-0.08097,0.23669l-0.1607,0.35005l0.17565,0.19185l0.11834,0.03986l-0.16569,0.31269l0.12955,0.02117l0.35628,0.18686l0.11461,-0.00623l0.16818,0.07972l0.22048,0.20928l0.10465,-0.05482l0.14824,0.10837l0.09468,-0.06104l0.17565,0.03114l0.07599,0.10589l0.17316,-0.06851l0.02866,0.12083l0.09966,0.04111l0.01495,0.26035l0.06354,0.04484l0.02117,0.19061l0.06603,0.1769l0.03987,0.25039l-0.00747,0.18935l-0.1009,0.05481l-0.01371,0.16942l-0.19557,-0.03862l-0.24291,-0.11212l-0.25039,0.02242l-0.31269,-0.09966l-0.07474,0.05854l-0.10963,-0.147l-0.15572,-0.01122l-0.02866,-0.11585l-0.15073,-0.05606l-0.16817,0.11461l0.01121,0.12582l-0.19932,0.23171l0.06104,0.11212l-0.04609,0.1582l0.07599,0.17191l0.14325,0.18811l0.01121,0.15696l-0.1582,0.14575l-0.14077,-0.00124l-0.06727,0.23171l0.0573,0.02367l-0.03489,0.22051l0.02367,0.10712l-0.10339,0.14701l-0.03364,0.23543l0.03114,0.13703l-0.03238,0.1582l-0.18686,0.13953l-0.06602,-0.04236l-0.15945,0.09342l-0.0299,0.07225l-0.24666,0.09218l-0.12332,0.12707l-0.13205,-0.00499l0.01121,0.24791l-0.08472,0.14325l0.10713,0.1445l0.02742,0.24416l0.19433,0.09592l0.19059,0.22797l-0.01869,0.09841l0.11834,0.11212l0.13827,0.29275l0.0299,0.15572l-0.14077,0.09342l0.06354,0.13579l-0.21924,0.11834l0.0299,0.19059l-0.11336,0.01743l-0.1196,0.12707l-0.04484,0.20305l0.00248,0.22298l-0.08222,0.10838l-0.09218,-0.02367l-0.09218,0.14824l-0.33635,0.21676l-0.08097,0.0872l0.05232,0.16569l0.15073,0.14824l0.04859,0.31641l-0.23295,0.13453l0.03862,0.0872l-0.05979,0.22798l0.1881,0.1881l-0.01743,0.12831l0.17316,0.25413l-0.15945,0.20181l-0.06229,-0.03489l-0.37371,0.17067l-0.09342,-0.00996l-0.12332,0.15945l0.00498,0.13329l-0.11709,0.05979l-0.0299,0.1495l-0.17191,0.1171l-0.1744,0.00498l0.00374,0.14575l-0.11336,0.14824l-0.16942,0.12332l-0.16443,-0.17316l-0.17191,-0.27156l-0.10713,0.04859l-0.21676,-0.23045l-0.1308,0.01245l-0.32139,-0.10215l-0.02866,-0.20055l-0.05357,-0.06853l0.01619,-0.23295l-0.08346,-0.22051l-0.23171,-0.01121l-0.28153,-0.12955l-0.02616,-0.22423l-0.17689,-0.17813l-0.06229,-0.12208l-0.20804,-0.1308l-0.16195,0.08222l-0.10837,-0.04982l-0.03238,-0.06478l-0.22547,-0.0897l-0.03736,-0.10339l0.15572,-0.2043l-0.11461,-0.15945l0.08846,-0.1582l-0.13453,-0.26409l0.13827,-0.13703l-0.0299,-0.26161l-0.30146,0.03114l-0.06229,0.08346l-0.2043,-0.08346l-0.04983,-0.07101l0.00623,-0.30146l-0.11336,-0.13953l0.0299,-0.13827l-0.25289,-0.07475l-0.24042,-0.26286l0.03364,-0.06602l-0.23918,-0.23543l-0.11212,0.03489l-0.31517,-0.26286l-0.16567,-0.00872l-0.2915,-0.0897l-0.10589,0.01993l-0.12955,-0.147l-0.28278,-0.11834l-0.12208,0.04485l-0.44099,-0.10465l-0.20055,-0.02492l-0.02242,-0.07599l0.03364,-0.1196l-0.05108,-0.29647l0.2753,-0.33759l-0.20181,-0.0872l-0.09716,-0.1495l-0.12582,-0.07349l0.05232,-0.23046l0.17813,-0.16693l0.03489,-0.19683l-0.07724,-0.21676h0.18187l-0.02367,-0.15322l0.20181,-0.22298l0.01745,-0.1632l0.1009,-0.17068l0.1582,-0.07599l0.01993,-0.10339l0.12083,-0.19059l0.13953,0.07475l0.17689,-0.28651l0.03364,-0.16443l-0.08596,-0.35752l0.05481,-0.39862l0.08097,-0.05854l0.06976,-0.16443l0.09716,-0.03489l0.00498,0.04733l0.08097,0.11211l0.37371,0.03737l0.09342,0.08222l0.12208,-0.07349l0.24291,-0.26159l0.11336,-0.23794l0.01495,-0.18811l0.14701,0.05856l0.11335,-0.00374l0.08097,0.10589l0.20181,0.03612l0.04111,-0.18935l-0.0299,-0.13953l-0.07973,-0.05979l0.07225,-0.17316l-0.1445,-0.1769l0.03114,-0.22547l-0.14077,-0.04236l-0.1607,-0.22299l0.31767,-0.27406l0.01494,-0.14201l0.22174,-0.13703l0.10589,0.12583l0.12208,-0.00872l0.04111,-0.15696l0.08846,-0.1171l-0.00498,-0.27281l0.12955,-0.14326l0.15572,-0.04609l0.17191,-0.26286l0.12831,-0.13827l-0.05979,-0.21924l0.02616,-0.2043l-0.0573,-0.11834l-0.22299,-0.07972l-0.1856,-0.14575l-0.18064,-0.04859l0.07225,-0.38742l-0.0897,-0.19932l0.03238,-0.21551l0.14326,-0.05979l-0.076,-0.19683l0.08846,-0.1881l0.13205,-0.09716l0.13953,-0.22921l0.12583,-0.04111l0.07349,-0.25911l0.20679,-0.15198l-0.10215,-0.11461l-0.27156,-0.14202l-0.08346,-0.16319l0.06478,-0.20928l-0.02118,-0.2342l0.05357,-0.1856l-0.06229,-0.18811l0.07225,-0.07101l-0.07599,-0.24416l0.02492,-0.17191l0.06977,-0.04609l0.08846,-0.21676l-0.09964,-0.51947l0.10837,-0.1582l0.1445,0.09966l0.1333,0.01993l0.17813,0.17316l0.15198,-0.00248l0.24666,0.1283l0.08097,-0.12208l0.37995,0.06602v-0.17689l0.16195,-0.15073l0.11087,0.01245l0.02118,0.15696l0.31018,0.15696l0.13205,-0.04983l0.03862,0.09218l0.17068,-0.02367l0.16693,0.09218l-0.09218,0.14077l0.02492,0.31516l0.08969,0.17316l0.1445,0.11585l0.17316,-0.07847l0.16942,0.01619l0.07474,-0.08346l0.1881,0.01869l0.32513,-0.05979l0.04236,-0.17938l0.22298,0.21924l0.14326,0.04235l0.24791,-0.13579l0.1445,0.2479l0.21676,0.0573l0.19059,-0.08596l0.0872,0.09218l0.26783,0.09342l0.0299,0.0872l-0.1009,0.15073l0.12583,0.26909l-0.07475,0.23295l-0.09218,0.08597l0.1856,0.52944l-0.19932,0.25163"></path></g></g></svg>