<svg version="1.1" xmlns="http://www.w3.org/2000/svg" xmlns:xlink="http://www.w3.org/1999/xlink" width="12.44175" height="7.89459" viewBox="0,0,12.44175,7.89459"><g transform="translate(-203.54402,-191.8464)"><g fill="#ff0000" fill-rule="evenodd" stroke="#ffffff" stroke-width="0" stroke-linecap="round" stroke-linejoin="round" stroke-miterlimit="10"><path d="M215.26344,192.38285l0.25027,0.25522l-0.07309,0.14744l-0.14001,0.0384l-0.10532,0.09167l-0.02725,0.20567l-0.1623,0.27877l0.08673,0.15115l0.06566,0.32212l0.21063,-0.06195l0.057,0.1239l0.24161,0.15982l0.11151,0.12639l0.03469,0.21682l-0.04213,0.10779l0.17097,0.10283l0.04336,0.12762l-0.14371,0.06071l-0.06071,0.26514l0.05204,0.13257l0.01115,0.20195l-0.08177,-0.15488l-0.21062,-0.06442l-0.23664,0.0384l-0.12886,0.22301l-0.20938,0.01115l-0.09416,0.04708l-0.14991,-0.11151l-0.03346,-0.12637l-0.2639,0.01611l-0.0446,0.10902l-0.13009,0.03964l0.14371,0.14248l0.18214,0.03221l0.09912,-0.08921l0.21186,0.20195l-0.21806,0.19824l-0.12143,0.18213l-0.13876,0.08549l-0.2255,0.29116l-0.14744,-0.04336l-0.057,0.06195l0.06689,0.38408l-0.1338,0.16602l-0.05452,-0.0508l-0.18461,0.00247l-0.11026,0.2515l-0.12886,0.01487l-0.09912,0.14991l-0.20442,-0.01487l-0.08426,0.1016l-0.15115,0.02725l-0.05823,-0.08177l-0.1338,0.03966l-0.18088,-0.0384l-0.01487,-0.14495l-0.07186,-0.02354l-0.06442,-0.16107l-0.16355,0.02849l-0.40018,-0.10779l-0.09912,0.03717l-0.0508,0.1239l-0.33948,0.08921l0.03966,0.14124l0.16602,-0.10408l0.38036,-0.0062l0.26761,-0.06195l0.18088,0.17345l0.00496,0.16602l-0.09912,0.04956l-0.05575,0.27505l-0.15362,0.15115l-0.07433,-0.09044l-0.11151,0.0793l-0.07062,0.17717l-0.10035,0.04708l-0.11895,-0.03593l-0.22674,0.15488l0.02725,0.13876l-0.06442,0.11275l0.10283,0.1623l-0.18088,0.03593l-0.03099,0.12018l-0.12018,0.05452l-0.04584,0.11893l0.11522,0.13505l-0.00496,0.13628l-0.10532,0.06442h-0.30354l-0.13257,-0.09044l-0.21806,0.01115l-0.18337,-0.16602l-0.46338,-0.0793l-0.25647,0.17097l0.06691,0.34814l-0.09044,0.03098l-0.19081,-0.05204l-0.08053,0.04956l-0.057,-0.14l-0.26017,-0.37293l-0.03098,-0.17222l-0.10902,-0.11647l-0.06691,-0.17717l-0.09663,0.03966l-0.16602,-0.03469l-0.03345,0.06815l0.22548,0.08673l0.07682,0.30107l-0.29735,-0.0384l-0.19081,-0.07062l0.01611,-0.6802l-0.17965,0.00373l-0.00373,0.15735l-0.07929,0.07929l-0.17222,-0.00371l-0.00496,-0.15736l-0.13877,-0.0384l-0.13134,0.1239l-0.00992,0.12514l-0.27133,0.04214l-0.07309,0.13628l-0.09663,-0.05204l-0.21559,0.06442l-0.06815,0.12886l0.09293,0.10408l-0.0508,0.07309l-0.16602,0.00373l-0.02602,0.07062l-0.19699,-0.0384l-0.25152,0.10408l-0.15362,-0.10283l-0.04833,0.25646l-0.12018,0.02973l-0.16726,-0.0384l-0.14248,0.15982l-0.20319,-0.09663l0.21434,-0.18584l-0.07806,-0.07186l-0.26267,0.15362l-0.08053,-0.00124l-0.01362,-0.34319l-0.10283,-0.04336l0.02354,-0.1239l0.08177,-0.09541l-0.02478,-0.17841l-0.07558,-0.19081l0.08177,-0.16106l-0.05204,-0.12762l-0.04584,-0.26761l-0.13504,-0.14124l-0.10407,-0.04956l-0.04336,-0.24779l-0.21557,-0.05575l-0.10902,-0.08426l-0.01362,-0.15735l-0.13753,-0.17222l0.00247,-0.12886l0.08549,-0.08797l-0.04214,-0.18461l0.17717,-0.35557l-0.01734,-0.10532l-0.19699,-0.05327l0.01115,-0.1177l-0.15115,-0.14991l-0.06319,-0.42496l-0.09416,-0.05452l-0.00743,-0.11151l0.10532,-0.14371l-0.05823,-0.3469l0.09541,-0.19576l-0.03222,-0.1462l0.09663,-0.11026l0.0062,-0.17097l-0.12639,-0.15983l-0.11151,-0.00992l-0.07309,-0.16602l-0.13381,0.00496l-0.11895,-0.15735l-0.04584,-0.18584l0.02229,-0.04336l0.22053,-0.29115l0.31346,0.01239l0.23664,0.06689l0.07682,-0.0793l0.19452,-0.02478l0.15982,-0.09663l0.20938,0.05947l0.08177,0.07682l0.30727,-0.06195l0.09663,0.09416l0.1462,-0.03221l0.23169,0.12514l0.1462,-0.16602h0.11769l0.09788,-0.07558l0.11893,-0.00373l0.10779,-0.07186l0.09912,-0.16602l-0.09912,-0.23541l0.13009,-0.23044l0.17097,-0.01362l0.04956,-0.10283l-0.07433,-0.15736l0.08301,-0.06566l0.16479,-0.01982l-0.00496,0.09416l0.16479,0.2131l0.04833,0.24903l-0.01982,0.23417l0.1623,-0.057l0.01364,-0.08176l0.20072,-0.08673l-0.02106,-0.38656l0.12513,0.03718l0.17097,-0.07186l0.10902,-0.1363l0.08921,0.06939l0.18461,-0.09663l0.03221,-0.09044l0.19328,0.09912l0.36053,0.11646l0.06566,-0.09788l0.09167,0.00373l0.04584,0.22053l0.32338,0.12514l0.07309,-0.15859l0.10407,-0.00991l0.19081,-0.19576l0.11274,0.02229l0.05204,0.09912h0.10654l0.03966,0.12266l0.16479,-0.10408l0.03966,0.10037l0.1363,-0.04087l0.09912,-0.12886l0.06442,0.06442l0.16479,0.01612l0.06071,0.07309l0.02849,0.1747l-0.02849,0.12639l-0.14991,0.13133l0.10407,0.12143l0.08177,-0.07806l0.16106,0.08797l0.10408,0.19699l0.09787,0.05823l-0.13256,0.14l0.23665,0.05823l0.20815,-0.05204l0.15611,-0.09293l0.03966,-0.08921l0.24284,-0.06442l0.06566,-0.08177l-0.03964,-0.09416l0.12886,-0.28992l0.0384,-0.23664l0.12886,-0.20689l0.10532,0.10035l0.22425,0.10655l0.19328,0.00496l0.06689,-0.06815l0.16726,-0.01982l0.06319,0.09167l-0.04089,0.10779l0.2069,0.16107l0.07682,0.11895l0.11522,-0.07806l0.08921,0.03718l-0.03718,0.34814l0.17717,0.04956l0.18832,-0.00744l0.14744,0.10284l0.07558,-0.26886l0.17964,0.02106l0.07062,0.10655l0.09416,-0.06071l-0.05947,-0.10532v-0.1462l0.35931,0.057l0.03098,-0.24655l0.11895,-0.09168l-0.00496,-0.11893l0.23045,-0.13009l-0.0062,0.10532l0.11399,0.02106l0.16353,0.12143l-0.0161,0.08053M210.88864,197.42916l0.11647,0.38408l0.15362,0.11026l0.04831,-0.27257l0.11895,-0.14992l-0.18708,-0.08549l-0.00247,0.00124l-0.24779,0.01239"></path></g></g></svg>