<svg version="1.1" xmlns="http://www.w3.org/2000/svg" xmlns:xlink="http://www.w3.org/1999/xlink" width="8.1004" height="9.32938" viewBox="0,0,8.1004,9.32938"><g transform="translate(-215.00447,-186.10632)"><g fill="#ff0000" fill-rule="evenodd" stroke="#ffffff" stroke-width="0" stroke-linecap="round" stroke-linejoin="round" stroke-miterlimit="10"><path d="M223.05656,188.80223l-0.21434,0.22301l-0.13505,0.10035l-0.10158,0.28496l-0.1648,0.11275l-0.04708,0.14868l0.07558,0.21682l-0.13876,0.07806l-0.03099,0.20815l-0.09293,0.09541l0.16107,0.25026l-0.12514,0.14867l0.12762,0.20072l-0.01735,0.08549l-0.1747,0.19824l0.01859,0.1177l-0.07309,0.10283l-0.18461,0.09663l-0.11646,0.34816l-0.09912,0.12265l0.05452,0.26019l-0.07682,0.10779l-0.01115,0.18088l0.04213,0.17346l-0.03346,0.15239l-0.09787,0.12266l0.0384,0.09416l0.26514,0.14124l-0.11399,0.25152l-0.03098,0.23044l-0.17222,0.04833l-0.10037,-0.03964l-0.02478,0.23417l0.05823,0.09912l-0.2069,0.29612l-0.11647,0.03718l-0.10408,0.11151l0.27381,0.08797l-0.07309,0.29859l-0.18584,-0.10037l-0.25894,-0.03593l-0.17222,-0.08053l-0.14992,0.0062l-0.08177,0.08921l-0.23664,-0.09541l-0.15982,-0.11026l-0.1016,0.19948l-0.23788,0.04956l-0.01859,-0.15362l-0.25275,0.1462l-0.03346,-0.10779l-0.29735,0.09416l0.01982,0.10283l-0.20319,0.05947l-0.14495,-0.09663l0.01487,-0.07682l-0.14371,-0.057l-0.1016,0.03346l-0.20815,-0.1239l-0.04708,0.09787l-0.13009,0.10655l-0.17594,-0.09168l-0.16355,0.08797l-0.0954,0.14992l-0.04336,-0.23664l-0.00373,-0.19081l-0.15362,-0.02229l-0.0062,0.10408l0.09293,0.22054l-0.18088,-0.06939l-0.20567,0.04087l-0.08673,0.16602l0.02229,0.14744l-0.14371,0.2131l-0.28992,0.03346l-0.09416,0.04336l-0.12018,-0.08176l-0.08796,-0.19948l-0.05824,0.05947l-0.23291,0.08176l-0.06566,-0.05204l-0.22301,0.25522l-0.01115,-0.20195l-0.05204,-0.13256l0.06071,-0.26515l0.14371,-0.06071l-0.04336,-0.12762l-0.17097,-0.10283l0.04213,-0.10779l-0.03469,-0.21682l-0.11152,-0.12637l-0.24159,-0.15983l-0.057,-0.1239l-0.21063,0.06195l-0.06566,-0.32212l-0.08673,-0.15115l0.1623,-0.27877l0.02725,-0.20567l0.10532,-0.09168l0.14001,-0.0384l0.07309,-0.14744l-0.25027,-0.25522l0.0161,-0.08053l-0.16355,-0.12142l-0.11399,-0.02106l0.0062,-0.10532l0.07186,-0.09416l0.21062,-0.16726l0.00124,-0.18832l-0.07433,-0.12266l0.083,-0.04833l0.057,-0.14371l-0.04213,-0.06691l-0.16355,-0.05947l-0.01735,-0.17717l0.13381,-0.10035l0.07929,-0.15611l0.20072,-0.14371l0.12266,-0.03593l0.10655,0.03469l-0.02229,-0.26761l0.08301,-0.10037l-0.02602,-0.24159l0.21559,-0.08053l0.1623,-0.02229l0.06691,-0.13876l-0.03346,-0.17717l0.10407,-0.14l-0.05327,-0.06691l0.13628,-0.33576l0.19451,-0.08426l0.17841,0.00496l0.11769,0.07309l0.07682,-0.17097l-0.08673,-0.10779l0.0793,-0.1809l-0.01859,-0.14124l-0.14124,-0.00991l-0.19824,-0.09541l-0.02973,-0.18832l0.01487,-0.23291l0.17964,-0.08921l0.07186,-0.20319l0.15488,0.02849l0.24779,0.15115l0.15735,-0.13256l0.19576,0.00744l-0.02478,-0.08673l0.18213,-0.09044l0.08797,-0.16974l0.39151,-0.25771l-0.07309,-0.25027l0.06814,-0.21187l-0.12142,-0.13009l-0.0384,-0.15611l0.06071,-0.18213l0.27257,0.24035l0.20319,0.10532l0.06071,0.09663l0.13877,0.03098l0.13876,0.14371l0.08177,0.02478l0.02602,0.22054l0.24035,0.22921l0.15982,-0.04336l0.07806,-0.12886l0.17717,-0.00992l0.21187,0.25522l0.03098,0.12639l0.20815,0.05204l0.14371,0.1276l0.08053,-0.08176l0.10408,0.08176l-0.08177,0.10283l0.08673,0.08921l0.00496,0.22054l0.15488,0.03593l0.12266,0.14867l0.0892,0.20072l-0.12142,0.14495l0.13256,0.20442l-0.05947,0.09168l0.1462,0.28621l0.24656,0.06691l0.10779,-0.12142l0.12142,0.28619l0.19948,-0.25027l0.19081,0.03346l0.10408,-0.02973l0.14371,0.11399l0.12639,-0.08301l0.11275,-0.14124l-0.00247,-0.19452l0.27628,-0.09168l0.15611,-0.10283l0.04708,-0.15859l0.10655,-0.13133l0.12266,-0.0062l0.07433,0.08673l-0.12266,0.26267l0.07433,0.16106"></path></g></g></svg>