<svg version="1.1" xmlns="http://www.w3.org/2000/svg" xmlns:xlink="http://www.w3.org/1999/xlink" width="279" height="279" viewBox="0,0,279,279"><defs><radialGradient cx="240" cy="180" r="139.5" gradientUnits="userSpaceOnUse" id="color-1"><stop offset="0" stop-color="#ffffff" stop-opacity="0.13333"></stop><stop offset="1" stop-color="#ffffff" stop-opacity="0"></stop></radialGradient></defs><g transform="translate(-100.5,-40.5)"><g stroke-miterlimit="10"><path d="M100.5,180c0,-77.04372 62.45628,-139.5 139.5,-139.5c77.04372,0 139.5,62.45628 139.5,139.5c0,77.04372 -62.45628,139.5 -139.5,139.5c-77.04372,0 -139.5,-62.45628 -139.5,-139.5z" fill="url(#color-1)" fill-rule="nonzero" stroke="#000000" stroke-width="0" stroke-linecap="butt" stroke-linejoin="miter"></path><path d="M176.99216,116.99212v0c0,-0.00058 0.00043,-0.00105 0.00104,-0.00105l126.01471,0.00105c0.00024,0 0.00055,0.00011 0.00073,0.00031c0.00018,0.0002 0.00031,0.00046 0.00031,0.00075l-0.00104,126.01468c0,0.00058 -0.00049,0.00107 -0.0011,0.00107l-126.01465,-0.00107v0c-0.00061,0 -0.0011,-0.00046 -0.0011,-0.00104z" fill="#bc9a00" fill-rule="evenodd" stroke="none" stroke-width="1" stroke-linecap="square" stroke-linejoin="miter"></path><path d="M187.92833,127.92826v0c0,-0.00049 0.00037,-0.00085 0.00085,-0.00085l104.12512,0.00085c0.00018,0 0.00043,0.00009 0.00061,0.00024c0.00012,0.00018 0.00024,0.0004 0.00024,0.00064l-0.00085,104.12509c0,0.00049 -0.00043,0.00089 -0.00092,0.00089l-104.12506,-0.00089v0c-0.00049,0 -0.00092,-0.00037 -0.00092,-0.00085z" fill="#ffd200" fill-rule="evenodd" stroke="none" stroke-width="1" stroke-linecap="square" stroke-linejoin="miter"></path><path d="M248.12954,137.91938v10.04013h-34.41846l-2.48364,23.34582v0c0.14478,-0.09195 0.29095,-0.18161 0.43848,-0.26904c1.75122,-1.03775 3.74237,-1.83551 5.97351,-2.39331c2.23114,-0.55777 4.8255,-0.83667 7.78308,-0.83667c5.73352,0 10.59143,1.19989 14.57373,3.59967c3.98236,2.38678 7.0307,5.61029 9.14514,9.67044c2.11438,4.06018 3.17157,8.60028 3.17157,13.62036c0,5.26654 -1.29718,9.97528 -3.89154,14.12625c-2.58136,4.138 -6.14862,7.38092 -10.70172,9.72882c-4.5401,2.34787 -9.71582,3.52182 -15.52716,3.52182c-5.6687,0 -10.71466,-1.01178 -15.13806,-3.0354c-4.4104,-2.03656 -8.1333,-5.00708 -11.1687,-8.91159l7.64685,-7.64685c1.84198,2.78894 4.37152,5.00061 7.5885,6.63507c3.22998,1.63443 6.83612,2.45166 10.81842,2.45166c3.74884,0 7.03723,-0.71344 9.86505,-2.14035c2.82782,-1.43988 5.05902,-3.45697 6.69342,-6.05133c1.63446,-2.59436 2.45166,-5.68164 2.45166,-9.26184c0,-3.67102 -0.79773,-6.77774 -2.39325,-9.32022c-1.58258,-2.55542 -3.70996,-4.48822 -6.38214,-5.79837c-2.67218,-1.32312 -5.60382,-1.98468 -8.79486,-1.98468c-3.26886,0 -6.23938,0.40213 -8.91156,1.20639c-2.65924,0.79126 -5.18872,2.14032 -7.5885,4.04718l-6.09027,-6.09024l3.69696,-38.25372z" fill="#453700" fill-rule="evenodd" stroke="none" stroke-width="1" stroke-linecap="square" stroke-linejoin="miter"></path><path d="M248.12954,137.91938v10.04013h-34.41846l-2.48364,23.34582v0c0.14478,-0.09195 0.29095,-0.18161 0.43848,-0.26904c1.75122,-1.03775 3.74237,-1.83551 5.97351,-2.39331c2.23114,-0.55777 4.8255,-0.83667 7.78308,-0.83667c5.73352,0 10.59143,1.19989 14.57373,3.59967c3.98236,2.38678 7.0307,5.61029 9.14514,9.67044c2.11438,4.06018 3.17157,8.60028 3.17157,13.62036c0,5.26654 -1.29718,9.97528 -3.89154,14.12625c-2.58136,4.138 -6.14862,7.38092 -10.70172,9.72882c-4.5401,2.34787 -9.71582,3.52182 -15.52716,3.52182c-5.6687,0 -10.71466,-1.01178 -15.13806,-3.0354c-4.4104,-2.03656 -8.1333,-5.00708 -11.1687,-8.91159l7.64685,-7.64685c1.84198,2.78894 4.37152,5.00061 7.5885,6.63507c3.22998,1.63443 6.83612,2.45166 10.81842,2.45166c3.74884,0 7.03723,-0.71344 9.86505,-2.14035c2.82782,-1.43988 5.05902,-3.45697 6.69342,-6.05133c1.63446,-2.59436 2.45166,-5.68164 2.45166,-9.26184c0,-3.67102 -0.79773,-6.77774 -2.39325,-9.32022c-1.58258,-2.55542 -3.70996,-4.48822 -6.38214,-5.79837c-2.67218,-1.32312 -5.60382,-1.98468 -8.79486,-1.98468c-3.26886,0 -6.23938,0.40213 -8.91156,1.20639c-2.65924,0.79126 -5.18872,2.14032 -7.5885,4.04718l-6.09027,-6.09024l3.69696,-38.25372z" fill="none" fill-rule="evenodd" stroke="#453700" stroke-width="2" stroke-linecap="butt" stroke-linejoin="round"></path><path d="M284.10654,153.91938v10.15689h-39.32391v-10.15689z" fill="#453700" fill-rule="evenodd" stroke="none" stroke-width="1" stroke-linecap="square" stroke-linejoin="miter"></path><path d="M284.10654,153.91938v10.15689h-39.32391v-10.15689z" fill="none" fill-rule="evenodd" stroke="#453700" stroke-width="1" stroke-linecap="butt" stroke-linejoin="round"></path></g></g></svg>