<svg version="1.1" xmlns="http://www.w3.org/2000/svg" xmlns:xlink="http://www.w3.org/1999/xlink" width="10.96356" height="15.57637" viewBox="0,0,10.96356,15.57637"><g transform="translate(-266.72923,-149.08117)"><g fill="#ff0000" fill-rule="evenodd" stroke="#ffffff" stroke-width="0" stroke-linecap="round" stroke-linejoin="round" stroke-miterlimit="10"><path d="M276.93671,153.6217l-0.18064,-0.05357l-0.12456,0.15572l-0.06853,0.15322l0.01121,0.1856l-0.12083,0.06354l0.20679,0.34133l0.08222,-0.03238l0.12208,0.09342l-0.00248,0.11212l0.08097,0.11336l-0.05481,0.25039v0.20927l-0.06851,0.00623l-0.12707,0.1445l0.05232,0.29774l-0.07973,0.09964l-0.04236,0.3513l-0.08597,0.04111l-0.16942,0.22299l-0.21302,0.20305l-0.12332,0.26534l0.01371,0.11336l0.21426,0.23171l0.14575,0.20927l0.02367,0.15572l0.10713,-0.00248l0.09716,-0.08472l0.05856,-0.15447l0.33385,0.44348l-0.01745,0.16817l0.12208,0.14202l-0.06851,0.19184l-0.00375,-0.04111l-0.19433,0.11212l0.04359,0.1607l-0.23543,0.13453l0.25289,0.15073l-0.01371,0.03114l0.03987,0.36625l0.12582,0.142l-0.02118,0.16569l0.12831,0.23171l0.02866,0.19683l-0.13827,0.19433l-0.06354,0.24541l0.09468,0.16443l0.03488,0.22299l-0.02118,0.21426l-0.04983,0.07972l0.03862,0.14701l-0.1171,0.20181l-0.01745,0.12208l-0.10589,0.01121l0.07349,-0.09094l-0.11335,-0.23171l-0.12458,0.00747l-0.16569,0.07474l-0.14824,-0.07972l-0.12955,-0.00623l-0.09841,-0.18935l0.05232,-0.26783l-0.10465,-0.17439l-0.26658,-0.12831l-0.05357,-0.13703l-0.16693,-0.10589l-0.11212,-0.33386l-0.09342,-0.00623l-0.05107,-0.1196l-0.17813,-0.05357l-0.08222,0.21426l-0.01993,0.24914l0.0299,0.14077l-0.13329,0.17565l-0.0872,0.00248l-0.2915,0.21302l-0.0299,0.11211l-0.21676,0.06229l-0.18437,-0.07225l-0.1856,0.14201l-0.38369,-0.03489l-0.04111,0.03987l-0.00498,0.33136l-0.02866,0.07599l0.03737,0.34257l0.12333,0.15572l-0.02866,0.11834l0.06602,0.13578l-0.00623,0.20679l-0.09466,0.06104l-0.22299,-0.12332l-0.16569,0.00124l-0.11461,0.05357l-0.10215,0.12955l-0.07225,0.20181l0.06104,0.14575l-0.06229,0.18811l0.08595,0.0274l0.06354,0.22673l-0.33012,0.08596l-0.28776,0.03362l-0.04859,0.09841l-0.3077,0.10215l-0.14077,-0.07973l-0.22298,-0.00746l0.09218,0.34632l-0.0274,0.36001l-0.11336,0.16567l-0.14326,-0.04609l-0.13703,0.09966l-0.07349,0.20679l-0.23793,-0.01993l-0.21177,-0.13702l-0.32762,-0.14326l-0.06977,0.07724l0.00623,0.14824l-0.10963,0.16195l-0.21426,0.01121l-0.04983,-0.11834l-0.04859,-0.30644l-0.09964,-0.00872l-0.1308,-0.11336l0.0274,-0.15447l0.15572,-0.06727l0.1445,-0.32887l-0.18811,-0.2342l0.11585,-0.12831l0.00124,-0.21426l0.03862,-0.13453l-0.20804,-0.19433l-0.23793,-0.01245l-0.07972,-0.09841l-0.34383,-0.15944l-0.06976,-0.11336l0.03986,-0.18935l-0.1009,-0.06976l-0.20804,0.02241l-0.08597,-0.12955l0.03364,-0.15572l-0.09342,-0.1009l0.04609,-0.70259l-0.02367,-0.15447l-0.13205,-0.15198l-0.12208,-0.38492l-0.16693,-0.03612l-0.19932,0.04236l-0.147,-0.14824l0.00499,-0.06104l0.18935,-0.16319l-0.04485,-0.17565l-0.00996,-0.24417l0.10713,-0.21924l-0.11958,-0.09218l-0.00872,-0.11336l-0.13703,-0.19682l0.076,-0.19309l-0.04983,-0.07847l0.04859,-0.14077l0.1607,-0.01869l0.0872,-0.12332l0.16071,-0.13205l0.08595,-0.36874l-0.18686,-0.17689l0.02742,-0.12955l-0.09342,-0.05107l-0.15073,0.05357l-0.10713,-0.10837l-0.01619,-0.18437l-0.26909,-0.18437l0.1308,-0.147l0.05606,-0.22299l0.1856,-0.1495l-0.06478,-0.16941l-0.08471,-0.05482l-0.13453,0.04983l-0.27406,-0.23171l-0.20928,-0.02742l-0.36624,-0.10837l-0.1283,-0.07599l-0.13329,0.11212l-0.0598,-0.19059l0.23543,-0.24541l0.11585,-0.0299l0.18562,-0.19308l0.04236,0.01371l0.26409,-0.16569l0.03612,-0.08222l0.1445,-0.00747l0.18562,-0.07724l0.1445,-0.13827l0.21302,-0.04734l0.18811,-0.23046l0.35877,-0.58798l0.23171,-0.47836l0.14575,-0.37247l-0.00872,-0.14201l0.17689,-0.07225l0.19932,-0.2753l0.0897,-0.21426l0.27031,-0.28651l0.40611,-0.27156l0.16569,-0.23918l0.12955,-0.32389l0.19433,-0.23171l0.23045,-0.60044l0.19557,-0.7574l0.03612,-0.23543l0.14575,-0.04609l0.13953,0.05357l0.03737,0.09342l-0.08222,0.23543l0.01993,0.10465l-0.15945,0.00498l-0.06727,0.11336l-0.01121,0.25787l0.25911,0.29399l0.06727,-0.10339l0.1171,-0.03238l0.00747,0.15073l0.17439,0.2753l-0.14824,0.1495l0.06853,0.07599l0.12083,-0.02118l0.13453,-0.09716l0.38243,-0.1445l0.20305,-0.03238l0.26035,-0.1308l0.16443,-0.00125l-0.06851,-0.15198l-0.00997,-0.23045l0.12458,0.11212l0.21676,-0.15696l0.0274,-0.23046l0.06603,-0.0872l0.39116,-0.02241l0.00125,-0.24914l0.1009,-0.12707l0.19932,-0.10837l0.09966,0.07475l0.00124,0.1769l0.21302,-0.24666l0.06354,-0.1445l0.26783,-0.1769l0.1744,0.06354l0.2043,-0.11585l0.10963,0.12955l-0.09716,0.08097l-0.08471,0.17565l0.14575,0.14326l-0.06354,0.48334l0.11834,0.14077l0.13827,0.06229h0.16941l-0.00248,0.23046l0.07847,0.19932l0.12706,0.05606l0.04983,0.27156l0.32265,0.14202l0.17439,-0.22921l0.30272,0.1881l0.07847,0.31392l0.07599,0.07101l0.03737,0.35752l0.10339,0.0872l0.06602,0.17439l0.13827,0.04112l-0.03862,0.14575l0.05232,0.22547l0.17689,-0.05854l0.0299,0.1171l0.13703,0.01245l0.03364,0.15572l0.1009,0.19932l-0.1881,0.01869l-0.08472,0.12955l-0.23669,0.17316l-0.07599,0.18811l-0.17067,0.11461"></path></g></g></svg>