<svg version="1.1" xmlns="http://www.w3.org/2000/svg" xmlns:xlink="http://www.w3.org/1999/xlink" width="11.2975" height="10.99471" viewBox="0,0,11.2975,10.99471"><g transform="translate(-312.976,-60.7442)"><g fill="#ff0000" fill-rule="evenodd" stroke="#ffffff" stroke-width="0" stroke-linecap="round" stroke-linejoin="round" stroke-miterlimit="10"><path d="M323.62805,60.83087l0.05506,0.13487l0.2546,0.15827l-0.01927,0.22158l-0.09772,0.04679l-0.07294,0.19542l0.13625,0.41975l0.17753,0.11284l0.07707,0.20368l-0.0977,0.12661l-0.20368,0.39635l0.09358,0.09359l0.1156,0.38534l0.19405,0.06331l0.03302,0.10597l-0.21469,0.22845l-0.2133,-0.01238l-0.17891,0.08532l-0.15964,0.21469l-0.03853,0.30552l-0.12524,0.28488l0.01927,0.23258l-0.07155,0.15552l0.04679,0.14588l-0.30278,0.15414l-0.15,0.32893l0.11284,0.2133l-0.04129,0.23671l-0.19818,0.14313l-0.05092,-0.11423l-0.20919,-0.06331l-0.17478,0.04267l-0.41975,-0.04542l-0.09909,-0.17203l-0.28626,0.02065l-0.07569,0.15552l-0.14313,-0.00137l-0.07707,0.12524l-0.05643,0.2725l-0.15552,0.03578l0.01927,0.19543l-0.09634,0.06056l0.06468,0.31103l-0.10736,0.14313l0.11147,0.15002l-0.10597,0.12661l0.04129,0.23121l-0.20093,0.13625l-0.43076,-0.04679l-0.20919,0.26149l0.12661,0.14863l0.02477,0.15827l-0.23534,0.18028l-0.09909,-0.01927l-0.07155,0.22433l-0.14038,0.16927l-0.2835,0.18442h-0.35369l-0.10184,0.16927l-0.18716,0.13762l-0.03165,0.11561l-0.20232,-0.00138l-0.20919,-0.07432l-0.33717,0.06744l0.08119,0.23671l-0.07018,0.17891l-0.15413,0.01927l-0.21883,0.35094l0.0523,0.33443l-0.18716,0.51472l-0.28488,0.26699l-0.00826,0.09634l-0.39911,0.17203l-0.31653,0.07155l-0.20368,-0.16513l-0.00413,-0.12387l-0.21469,-0.20643l-0.26286,-0.15413l-0.42526,-0.15552l-0.4404,-0.06744l-0.48718,-0.01927l-0.04817,-0.14175l-0.59867,-0.13212l-0.1624,-0.26699l-0.19818,-0.17065l-0.26561,-0.13075l-0.2023,-0.24084l0.16789,-0.13212l0.04679,-0.18167l0.18167,0.0055l0.21607,0.09496l0.01514,-0.11698l0.30415,-0.11147l0.22295,-0.18992l0.13487,-0.20369l0.08257,0.03441l0.24222,-0.06331l0.08946,-0.13487l0.25736,-0.16927l0.13487,-0.04129l0.0523,-0.48306l0.10047,-0.30552l0.10872,-0.15827l0.01377,-0.22845l0.12937,-0.09358l-0.00276,-0.20368l0.13349,-0.0468l0.02891,-0.17617l0.09496,-0.16102l0.2546,-0.15552l0.05506,-0.3647l0.30966,-0.06881l0.10734,-0.19405l-0.00276,-0.19266l0.45278,-0.04954l0.17203,-0.2202l0.46242,-0.26424l0.00413,-0.26286l0.08532,-0.06881l0.03853,-0.23395l-0.011,-0.29451l0.06331,-0.11423l-0.10047,-0.32754l0.04403,-0.18992l0.14175,-0.24222l-0.06744,-0.30001l0.15828,-0.17617l0.20368,0.13075l0.29176,-0.1445l0.28625,0.07707l0.31516,-0.50507l-0.07431,-0.32341l0.13899,-0.03992l0.2133,0.09084l0.04542,0.12387l0.21745,0.20092l0.30552,-0.10734l0.12524,0.0454l0.15964,-0.1624l0.22845,0.17754l0.25186,-0.17478l0.15552,0.11284l0.04817,0.12387l0.13487,-0.00413l0.19268,-0.11698l0.1789,-0.27113l-0.02614,-0.19542l0.08946,-0.10873l0.13074,-0.34268l0.26837,-0.14038l0.09909,0.0055l0.24909,-0.24772l0.28075,0.00827l0.1913,0.07294l0.16377,-0.16514l0.1569,0.05506l0.28764,-0.11011l0.23809,-0.29864l0.18165,0.0867"></path></g></g></svg>