<svg version="1.1" xmlns="http://www.w3.org/2000/svg" xmlns:xlink="http://www.w3.org/1999/xlink" width="7.05224" height="6.7698" viewBox="0,0,7.05224,6.7698"><g transform="translate(-211.18843,-181.90482)"><g fill="#ff0000" fill-rule="evenodd" stroke="#ffffff" stroke-width="0" stroke-linecap="round" stroke-linejoin="round" stroke-miterlimit="10"><path d="M218.0759,186.28713l0.0384,0.15611l0.12143,0.13009l-0.06815,0.21187l0.07309,0.25027l-0.39151,0.2577l-0.08797,0.16973l-0.18214,0.09044l0.02478,0.08673l-0.19576,-0.00744l-0.15735,0.13256l-0.24779,-0.15115l-0.15488,-0.02849l-0.01362,-0.07309l-0.14867,-0.09541l-0.20442,0.09416l0.01858,0.13133l-0.07186,0.08426l-0.22921,0.13505l-0.17097,0.0508l-0.02354,0.09912l-0.14868,0.15362l-0.11026,0.03346l-0.18337,-0.01982l-0.25399,0.07558l-0.21807,-0.20567l-0.13753,0.14868l-0.27505,0.05327l-0.07433,0.1016l-0.35557,0.02849l-0.03718,0.19204l-0.1524,0.1016l-0.12762,-0.04708l0.01982,-0.11893l-0.04831,-0.11895l-0.1363,-0.10037l0.00373,-0.16602l0.09788,-0.16479l0.02478,-0.1747l-0.07433,-0.10037l-0.16974,0.04956l-0.08673,-0.12018l0.09788,-0.05452l-0.03221,-0.10035l0.09663,-0.13009l-0.16106,-0.17593l0.04584,-0.08177l-0.06939,-0.11151l-0.16602,0.01859l-0.24159,-0.23169l-0.06071,-0.10532l-0.14371,-0.06071l-0.19328,0.12266l-0.10532,-0.05823l-0.09293,0.07433l-0.30974,-0.14l-0.09912,0.02725l-0.17222,-0.04213l-0.10283,-0.09541l0.05823,-0.16107l0.13877,-0.13133l-0.057,-0.09912l0.04956,-0.15115l0.03717,-0.1623l0.17097,-0.08053l0.12266,-0.15362l-0.30727,-0.15859l-0.3147,-0.10284l0.11769,-0.19328l-0.21929,-0.28496l-0.15115,0.04584l-0.07558,-0.06815l-0.16479,-0.02106l-0.0508,-0.19948l0.07806,-0.14744l-0.09541,-0.16726l0.12142,-0.36797l0.01735,-0.20072l0.16974,-0.19824l-0.07062,-0.1623l0.29983,-0.00124l0.14,-0.04708l0.09663,-0.17717l0.16479,0.27381l0.43612,0.01114l0.24409,-0.02973l0.07309,-0.06691l0.19576,0.01362l0.8809,-0.14l0.34196,-0.11026l0.42249,-0.08549l0.32708,-0.1239l0.18461,-0.09293l0.03469,-0.11151l0.14992,-0.08426l0.11769,-0.2515l0.23541,-0.05823l0.09912,0.0508l0.16355,-0.04336l0.13133,-0.12018l0.14745,0.01239l0.14124,-0.08549l-0.01362,-0.13009l0.01982,0.09168l0.19575,0.07433l0.17717,0.13256l0.08301,0.1177l-0.03964,0.25275l0.06071,0.11895h0.14248l0.0446,0.16602l-0.05452,0.35683l-0.09416,0.16727l0.22054,0.23044l-0.04336,0.08921l0.13009,0.33948l-0.04584,0.07062l0.06691,0.39027l0.15735,0.11399l0.12886,-0.00496l0.2131,0.17964l-0.03964,0.15859l0.05823,0.06195l-0.12389,0.46213l0.04089,0.08176l0.14744,0.08301l0.20319,0.05204l0.09044,0.22674l-0.04336,0.18708l-0.06071,0.18214M213.58341,183.71751l0.17346,-0.01487l0.23292,-0.10037l-0.17345,-0.27257l-0.18832,0.05452l-0.09293,0.17345l0.04831,0.15983"></path></g></g></svg>