<svg version="1.1" xmlns="http://www.w3.org/2000/svg" xmlns:xlink="http://www.w3.org/1999/xlink" width="5.78844" height="4.70305" viewBox="0,0,5.78844,4.70305"><g transform="translate(-270.23397,-173.77122)"><g fill="#ff0000" fill-rule="evenodd" stroke="#ffffff" stroke-width="0" stroke-linecap="round" stroke-linejoin="round" stroke-miterlimit="10"><path d="M276.02241,176.4869l-0.13009,0.30727l-0.06814,0.057l-0.23294,0.05947l-0.33576,0.17222l-0.17222,0.05204l0.12018,0.11647l-0.0062,0.18213l0.10902,0.19081l-0.12637,0.20442l-0.03098,0.14248l-0.09663,0.08426l-0.22054,-0.11769l-0.12266,0.04833l-0.28248,-0.10902l-0.15115,-0.15611l-0.17345,-0.12637l-0.1623,0.00373l-0.12018,0.20072l-0.19204,0.04213l-0.0793,-0.05823l-0.13504,0.04336l-0.1685,0.12266l-0.14248,0.21434l0.01239,0.08176l-0.21682,0.09044l-0.19204,-0.05824l-0.23417,0.19699l-0.15239,-0.10902l-0.1276,-0.15735l-0.08301,-0.02354l-0.07558,-0.0892l-0.13876,-0.04213l-0.16107,0.07806l-0.04833,-0.05327l-0.1846,0.05204l-0.06442,-0.11769l-0.14125,-0.03221l-0.09787,-0.32212l-0.14744,-0.11026l-0.14248,0.01982l-0.20567,-0.0384l-0.24903,-0.11646l0.00124,-0.12143l0.11647,-0.18088l0.00991,-0.15488l-0.1016,-0.09168l-0.06814,-0.19081l-0.14124,-0.12143l-0.03469,-0.08797l0.01487,-0.21557l0.05204,-0.11522l0.19081,-0.08301l0.14371,-0.18088l0.12142,-0.27877l0.00991,-0.0954l0.18214,-0.06566l0.14248,0.02973l0.12885,0.11398l0.13877,-0.06071l0.14744,-0.00373l0.17841,-0.05823l0.04584,-0.15735l0.13134,-0.12389l0.03964,-0.16602l0.19204,-0.07309l0.03469,-0.08673l0.27752,-0.10902l0.13877,-0.09912l0.22796,-0.04833l0.18832,0.08673l0.16479,-0.09788l0.1462,-0.17097l0.02354,-0.28249l0.14248,-0.00247l0.08053,0.10779l0.2069,0.33576l0.04708,-0.02725l0.46213,-0.05327l0.11152,-0.10532l0.01981,-0.13381l0.11151,-0.13628l0.21434,0.09416l0.20566,-0.07558l0.00247,-0.1177l0.22301,-0.18708l0.16974,-0.04956l0.47947,0.11522l-0.12637,0.09663l-0.02849,0.1685l-0.07682,0.13381l-0.01114,0.33823l0.15735,0.04585l0.05327,0.08673l0.0446,0.36548l-0.04336,0.08549l0.01239,0.32832l-0.0446,0.13133l0.17097,0.26886l0.09664,0.08177l-0.00373,0.17345l-0.05452,0.0446l0.10407,0.2515"></path></g></g></svg>