<svg version="1.1" xmlns="http://www.w3.org/2000/svg" xmlns:xlink="http://www.w3.org/1999/xlink" width="7.49765" height="6.65549" viewBox="0,0,7.49765,6.65549"><g transform="translate(-293.64141,-60.66984)"><g fill="#ff0000" fill-rule="evenodd" stroke="none" stroke-width="0.4" stroke-linecap="round" stroke-linejoin="round" stroke-miterlimit="10"><path d="M299.64034,61.18869l0.11284,0.14175l0.09909,0.24772l0.3702,0.13899l0.1679,0.10322l-0.06331,0.23258l-0.07294,0.07157l-0.12661,0.35231l-0.0922,0.09359l0.09633,0.11973l0.07707,0.39361l0.11698,0.03166l0.43214,-0.03166l0.10322,0.11561l0.17065,-0.08395l0.10736,0.20643l-0.07431,0.06056l-0.05781,0.26424l0.08395,0.14863l-0.12661,0.08809l0.0867,0.278l-0.10322,0.0922l-0.30552,-0.07981l-0.07981,0.07844l-0.01238,0.21469l0.18579,0.10873l0.11146,0.15964l0.05092,0.23534l-0.12661,0.26424l0.01788,0.26424l-0.13349,0.28074l-0.40324,0.1624l-0.03853,0.32341l-0.07981,-0.03028l-0.33718,0.03992l0.01514,0.09359l-0.14863,0.09496l-0.12661,0.23121l-0.01788,0.17203l-0.27663,0.23258l-0.18028,-0.07844l-0.17065,-0.16377l-0.21883,-0.01514l-0.1156,-0.06744l-0.15276,0.04403l-0.24496,-0.02891l-0.10459,-0.08808l-0.35094,-0.13212l-0.11835,0.05367l-0.0922,0.20092l-0.41976,0.14588l-0.18028,0.15414l-0.28488,0.02891l-0.00551,0.14038l-0.2202,0.03166l-0.0867,-0.38397l0.09909,-0.26148l-0.02477,-0.15827l-0.20506,-0.21607l-0.56839,-0.07844l-0.18165,0.00963l-0.30001,0.16514l-0.19268,-0.03578l-0.28213,0.05917l-0.30689,-0.07982l-0.14175,0.07844l-0.15414,-0.0055l-0.23258,-0.15276l-0.16377,-0.02891l0.07707,-0.1913l0.19266,-0.28213l-0.0055,-0.19955l0.14175,-0.32341l0.12937,-0.19818l0.04129,-0.16651l-0.04679,-0.12111l0.1679,-0.1679l0.12387,0.07018l0.14038,-0.04267l-0.06607,-0.40324l-0.05643,-0.05917l-0.04542,-0.3248l0.00826,-0.2202l0.06468,-0.13625l0.15414,-0.08532l0.0922,-0.17478l-0.0922,-0.07707l-0.25598,-0.04954l0.09634,-0.27249l0.11835,-0.15552l0.17617,-0.07844l0.35094,-0.01238l0.20369,-0.15276l0.29726,0.01238l0.18028,-0.08946l0.20643,-0.25185l-0.00137,-0.42526l0.16102,-0.26974l0.12524,-0.03853l0.13625,-0.58766l0.06193,-0.07294l0.18028,-0.01927l0.1679,0.05367l0.05506,0.13487l0.13899,0.03853l0.15413,-0.1156l0.18579,0.0922l0.02615,0.15139l0.15964,0.01652l0.06744,0.22983l0.15139,0.1734l0.10734,-0.04954l0.20368,0.02614l0.22984,-0.03165l0.08532,0.23946l0.09908,0.14313l0.26974,-0.22845l0.12937,-0.20643l0.50231,-0.04954l0.2078,-0.09909"></path></g></g></svg>