<svg version="1.1" xmlns="http://www.w3.org/2000/svg" xmlns:xlink="http://www.w3.org/1999/xlink" width="9.4787" height="11.64757" viewBox="0,0,9.4787,11.64757"><g transform="translate(-289.34535,-104.49031)"><g fill="#ff0000" fill-rule="evenodd" stroke="#ffffff" stroke-width="0" stroke-linecap="round" stroke-linejoin="round" stroke-miterlimit="10"><path d="M297.36655,104.67724l-0.10339,0.03362l-0.09218,-0.04859l-0.24417,0.06602l-0.11585,0.08846l-0.06478,0.22797l0.20181,0.34133l-0.06229,0.13827l0.19807,0.27655l0.02118,0.18062l0.24666,0.1009l0.19557,-0.1283l-0.00124,-0.04112l0.33136,-0.06354l0.17191,0.09841l0.11212,-0.14575l0.11585,0.06354l0.26035,-0.07475l0.16195,0.05979l-0.04734,0.35254l0.07349,0.1196l-0.03612,0.16195l0.13205,0.29897l-0.04734,0.04609l0.04983,0.19807l-0.1744,0.19433l-0.22797,-0.05481l0.07101,0.15073l-0.12083,0.25911l-0.01619,0.24666l-0.16941,0.16693l0.10463,0.1445l0.00498,0.26409l-0.08846,0.2155l0.1171,0.17068l-0.10339,0.01121l-0.08346,0.10963l0.02615,0.1881l-0.45718,0.10713l-0.12083,0.13827l0.03114,0.07599l-0.10963,0.13828l0.03612,0.13453l-0.24791,0.22798l-0.16443,0.10963l0.12208,0.19683l0.16569,0.00747l0.00996,0.08846l-0.19932,0.37371l0.14326,0.25413l-0.01745,0.27655l-0.17439,0.21426l-0.07225,-0.02118l-0.16195,0.18935l0.1358,0.45344l-0.06229,0.24416l0.06478,0.15572l-0.00124,0.13453l-0.08097,0.09468l0.02242,0.23295l-0.04859,0.28527l0.01245,0.27406l-0.12208,-0.09841l-0.32762,-0.16941l-0.12955,0.1009l-0.11087,-0.01743l-0.13953,0.10713l-0.30645,0.00124l-0.06851,-0.12456l0.04859,-0.15696l-0.20679,-0.25787l-0.09716,-0.03862l-0.20055,0.03612l-0.00747,0.1308l-0.17566,0.07847l-0.10465,0.2778l-0.33385,0.24416l-0.06602,0.1881l-0.15447,0.12333l-0.15696,0.01494l-0.0573,0.07724l0.07724,0.35752l-0.13205,0.25288l-0.1495,0.09219l-0.23918,-0.00623l-0.1445,-0.16195l-0.15696,0.00872l-0.16071,0.16319l-0.24042,0.04734l-0.01121,0.32513l-0.11335,0.17316l-0.17068,0.06229l-0.05606,0.10713l0.09342,0.37995l-0.05481,0.10465l-0.26409,0.09218l-0.13827,0.12706l-0.06229,0.01495l-0.19309,-0.43475l-0.09342,-0.03238l-0.26409,0.06727l-0.18187,-0.13579l-0.15696,-0.00746l-0.04111,-0.09094l-0.2753,0.01245l-0.07973,-0.0299l-0.10712,0.12831l-0.09841,0.0274l-0.19059,0.35129l-0.24666,0.1308l-0.12083,-0.01121l0.04359,-0.16817l-0.09592,-0.3625l-0.12707,-0.04982l0.12458,-0.2342l-0.01869,-0.21551l-0.08346,-0.08471l0.04859,-0.19683l-0.06727,-0.16693l0.01371,-0.17316l-0.06354,-0.21052l0.03488,-0.12831l-0.03986,-0.12332l-0.22673,-0.07349l-0.10463,-0.09466l-0.05606,-0.19433l-0.17067,-0.16942l0.06352,-0.16195l-0.02865,-0.21924l-0.20055,-0.13329l0.01619,-0.27406l0.10339,-0.13703l0.01371,-0.19932l-0.10339,-0.29524l0.07101,-0.06851l-0.02492,-0.14201l0.12208,-0.04859l0.05481,-0.36999l-0.09716,-0.04112l0.04111,-0.17191l-0.08969,-0.20554l0.05979,-0.09094l0.00374,-0.28153l0.10589,-0.28403l-0.04359,-0.27158l0.02367,-0.22921l0.13578,-0.00997l0.09593,-0.20928l0.26658,-0.02742l-0.03612,-0.13578l-0.16693,-0.13827l0.05357,-0.15945l-0.11709,-0.18687l0.17565,-0.28651l0.27778,-0.02616l0.01495,-0.15198l0.1582,-0.16818l0.04485,-0.24042l-0.0573,-0.20305l0.03238,-0.15821l0.09966,-0.07475l0.02616,-0.25413l0.19185,-0.29275l0.06851,-0.27655l-0.07599,-0.11087l-0.1495,-0.08346l-0.04859,-0.1196l-0.01495,-0.28527l0.04111,-0.13953l-0.04734,-0.12955l0.03114,-0.32265l0.10713,-0.20928l-0.00498,-0.15572l0.22298,-0.27406l0.20679,0.03114l0.11335,-0.17316l0.12083,0.1445l0.11709,0.05979l0.26161,-0.1308l0.12707,0.06727l-0.04734,0.17689l0.05107,0.20305l0.07724,0.07599l0.19433,-0.09466l0.22673,0.05481l0.09466,0.19931l0.15945,0.07349l0.1308,0.12955l0.24168,-0.04609l0.05357,0.32762l0.10713,0.14077l0.08097,-0.01993l0.147,0.11212l0.08595,-0.15447l-0.15945,-0.22049l0.05481,-0.09342l0.20554,-0.00747l0.18187,-0.06603l0.01245,-0.09716l0.2778,0.20305l0.1445,-0.01371l0.11585,0.11212l0.04236,0.13453l0.11087,0.10465l0.23793,-0.06229l0.28651,-0.18935l0.00248,-0.14077l0.14575,-0.03862l0.21052,0.0299l0.08597,0.17938l0.13205,0.01371l0.02865,-0.19807l-0.02242,-0.19308l0.23171,0.00872l0.12458,-0.19807h0.12083l0.17938,-0.09841l0.08346,0.12955l0.12333,0.01245l0.05357,-0.15073l0.04734,-0.34009l-0.01121,-0.14077l0.42853,-0.33136l0.09094,0.03489l0.34632,-0.08222l-0.02367,0.18686"></path></g></g></svg>