<svg version="1.1" xmlns="http://www.w3.org/2000/svg" xmlns:xlink="http://www.w3.org/1999/xlink" width="11.28316" height="13.53943" viewBox="0,0,11.28316,13.53943"><g transform="translate(-253.06073,-174.69538)"><g fill="#ff0000" fill-rule="evenodd" stroke="#ffffff" stroke-width="0" stroke-linecap="round" stroke-linejoin="round" stroke-miterlimit="10"><path d="M263.86814,179.3613l0.08673,-0.01487l0.24035,0.25771l0.14867,0.12142l-0.18088,0.11026l-0.03593,0.07682l-0.26886,0.28124l-0.19452,0.13256l-0.01115,0.10902l0.16232,0.24035l-0.00867,0.35435l0.15115,0.12142l0.03221,0.12886l0.13133,0.17222l-0.09293,0.14248l-0.09663,0.04584l-0.01239,0.2131l0.04584,0.14868l-0.12514,0.19699l-0.01734,0.10532l-0.12637,0.23664l-0.14371,-0.13009l-0.13256,0.00496l-0.12762,0.15736l-0.07062,0.21187l0.12266,0.08053l0.04213,0.10407l-0.15362,0.23292l-0.10779,0.11274l0.09912,0.05452l-0.07558,0.28744l0.10408,-0.00373l0.11646,0.08673l-0.01362,0.52161l-0.19699,0.01487l-0.11646,0.08673l-0.12018,-0.04708l-0.03221,0.15859l0.05824,0.15735l-0.03098,0.10779l0.22674,0.09044l-0.06071,0.2255l0.1177,0.02602l0.10035,0.12266l-0.14124,0.43364l-0.1462,0.06319l-0.17593,0.0062l-0.18584,0.16479l-0.04708,0.21434l-0.11895,0.03346l-0.19204,-0.14124l-0.12266,-0.00247l-0.13256,0.17841l-0.16355,0.0446l0.01982,0.09912l-0.15983,0.08797l0.01982,0.13009l-0.11026,0.15983l-0.1623,-0.04956l-0.1685,0.04089l-0.12018,0.14124l-0.11151,-0.00991l-0.07558,0.1338l-0.19081,0.01735l-0.0954,0.10283l-0.18461,0.01239l-0.05575,0.23044l-0.07682,0.08921l-0.14495,0.00247l-0.14248,-0.057l-0.15982,0.14991l0.02973,0.17965l-0.05575,0.14992l-0.09787,0.11399l-0.16479,-0.06689l-0.17717,0.03469l-0.08426,0.12886l-0.20567,-0.04833l-0.26142,0.15239l-0.20938,-0.00496l-0.05452,0.04833l-0.14124,-0.06195l0.00373,-0.17593l-0.09416,-0.03469l-0.21186,0.02849l-0.09664,-0.05824l-0.1623,0.00868l-0.00247,-0.12762l-0.12886,0.02602l-0.07433,-0.07558l-0.23044,0.04708l-0.07309,-0.06689l-0.16602,0.11895l-0.17345,0.00867l-0.00124,0.13256l-0.11399,0.13628l-0.22054,-0.04336l-0.29363,0.08797l-0.14371,0.1016l-0.15859,0.01362v-0.31841l-0.19948,-0.24161l-0.15115,-0.11399l-0.05452,-0.13504l0.02973,-0.12018l0.11275,-0.07309l-0.01982,-0.12018l0.18337,-0.16107l-0.10779,-0.09541l-0.05451,-0.08176l0.03098,-0.2255l0.34071,-0.21434l0.03593,-0.10283l0.13628,-0.00867l0.01362,-0.35557l-0.057,-0.16974l0.00496,-0.20566l-0.254,-0.16726l-0.03098,-0.15115l0.18957,0.09912l0.34319,0.02849l0.18957,-0.11151l-0.02106,-0.17717l-0.12389,-0.01858l-0.07806,-0.17345l-0.00496,-0.11399l-0.27505,-0.24409l0.31223,-0.31841l0.12513,0.00743l0.01487,-0.15239l-0.06319,-0.35435l0.08797,-0.12637l-0.30107,-0.37418l-0.05947,0.04336l-0.34691,-0.21062l-0.04213,-0.27628l-0.08053,-0.057l0.07186,-0.20567l-0.06195,-0.07806l-0.23788,-0.03346l-0.09787,0.03717l-0.2255,-0.23417l-0.07806,-0.12018l0.03964,-0.15982l0.07062,-0.01364l0.06691,-0.25275l0.12513,-0.03593l0.08921,-0.19452l-0.12389,-0.22424l-0.20072,-0.17717l-0.27257,-0.1685l0.01858,-0.11769l-0.15735,-0.14248l-0.00991,-0.2924l-0.17841,-0.16973l-0.06566,-0.12143l-0.00868,-0.19203l-0.06442,-0.07682l-0.24035,0.04336l-0.08053,-0.14124l-0.12018,-0.10037l-0.15982,-0.0446l-0.13876,0.02849l-0.10037,-0.35435l-0.13133,-0.04089l-0.25894,0.08176l-0.08177,-0.083l-0.21559,0.0384l-0.04956,-0.15982l-0.07806,-0.04336l0.07558,-0.43612l0.04833,-0.05327l0.25771,0.02229l0.1338,-0.27381l-0.00496,-0.24655l0.1685,-0.23912l0.21062,-0.04956l0.20567,-0.08797l0.28744,-0.05574l0.13753,0.18584l0.12266,0.05451l0.20815,-0.06566l0.08053,-0.10532l0.02849,-0.23912l0.16726,-0.19451l0.09788,-0.17965l0.16479,0.01362l0.06691,-0.08053l0.10283,-0.25522l0.14495,-0.16479l-0.00991,-0.15982l0.38656,-0.19699l0.19328,-0.16602l0.11399,-0.29735l0.0954,0.00992l0.07062,0.10532l0.25027,-0.12762l0.25646,0.11895l0.04213,0.08549l0.1363,0.04584l0.16479,-0.09664l0.17345,0.03346l0.07062,0.07558l0.23044,-0.25647l0.03718,-0.11895l0.17717,-0.21062l-0.01735,-0.33205l0.23292,-0.26019l0.33948,0.20443l0.18337,-0.07433l0.01735,0.14867l0.06939,0.04213l0.03718,0.16479l0.10158,0.10532l-0.05575,0.15239l0.01115,0.13256l-0.03964,0.20815l0.01115,0.27257l-0.0508,0.27628l0.02106,0.10407l-0.13877,0.20195l0.07682,0.36921l-0.00496,0.2131l0.06815,0.11275l-0.02478,0.24284l0.12265,0.16974l0.01858,0.13753l-0.11895,0.13753l-0.02602,0.29363l0.07062,0.03469l-0.01735,0.26017l0.09293,0.03593l0.06442,0.21186h0.08177l0.11151,-0.12886l0.12514,-0.21559l-0.00373,-0.31594l0.09044,-0.02354l0.03593,-0.26886l-0.12142,-0.20071l0.05204,-0.24161l0.08673,-0.09044l-0.08301,-0.18213l-0.20938,-0.06566l-0.07062,-0.14495l0.02725,-0.15611l0.0954,-0.13753l0.08921,-0.02354l0.06319,-0.14744l0.12514,-0.05204l0.11399,-0.16973l0.03098,-0.14495l0.09168,-0.1462l0.10655,-0.05327l0.19081,-0.20319l-0.06815,-0.09788l0.09293,-0.15239l0.10902,-0.00124l0.14868,-0.11895l0.00496,-0.10532l0.12762,-0.057l0.00867,-0.13009l0.13628,-0.03469l0.00992,0.14124l0.11026,0.00744l0.25152,0.15115l0.22301,-0.13505l0.10035,0.01362l-0.07558,0.17345l-0.03098,0.27133l-0.06939,0.10283l0.34443,0.08673l0.14495,-0.05823l0.07062,0.19824l0.10532,0.03098l0.03593,0.38532l-0.02849,0.14248l-0.12886,0.08673l0.29116,0.20195l0.18584,-0.06195l0.06939,-0.15611l0.08673,0.00496l0.06691,-0.11151l0.09044,0.00496l0.22178,-0.11275l0.41383,0.31223l-0.04833,0.17717l0.1747,0.13876l0.05575,0.2069l0.10532,0.11646l-0.05452,0.11895l0.05947,0.2131l0.083,0.02229l-0.04087,0.33452l0.12637,0.06442l0.01362,0.08053l-0.1462,0.19824l0.0446,0.17841l-0.06442,0.15115l-0.03964,0.34444l0.06442,0.22178l0.12639,0.07186l0.13133,-0.00124"></path></g></g></svg>