<svg version="1.1" xmlns="http://www.w3.org/2000/svg" xmlns:xlink="http://www.w3.org/1999/xlink" width="8.57667" height="11.252" viewBox="0,0,8.57667,11.252"><g transform="translate(-284.82936,-67.91303)"><g fill="#ff0000" fill-rule="evenodd" stroke="#ffffff" stroke-width="0" stroke-linecap="round" stroke-linejoin="round" stroke-miterlimit="10"><path d="M293.40602,68.37261l-0.0055,0.1569l-0.10047,0.13487l-0.28901,-0.03441l-0.07018,0.09496l-0.24359,0.00827l-0.23946,-0.09909l-0.12524,0.07294l-0.34956,0.3303l-0.3702,0.40186l-0.2202,0.27113l-0.35506,0.51883l-0.21057,0.35783l-0.39498,0.7872l-0.26974,0.6551l-0.19405,0.54361l-0.14313,0.53397l-0.10183,0.53536l-0.02891,0.47755l0.01514,0.28762l0.11423,0.43076l0.15276,0.22984l0.1569,0.11973l0.18992,0.04954l0.37709,0.18578l0.54361,0.04817l0.15552,0.12387l0.15827,0.26974l0.32204,0.18716l0.12387,0.2023l0.19405,0.06194l-0.07982,0.13349l-0.1679,0.02202l-0.1679,0.10873l-0.19405,0.22707l-0.20093,0.30828l-0.06056,0.19818l0.27938,0.17065l0.10047,0.21607l-0.01377,0.11973l0.11834,0.19542l-0.07431,0.22295l0.11284,0.19818l0.03715,0.28901l-0.07018,0.43901l-0.07019,-0.03992l-0.32066,0.00551l-0.17203,-0.08808l-0.13075,-0.24634l-0.24496,-0.00688l-0.13074,0.13899l-0.10873,-0.12248l-0.1624,-0.04817l-0.14038,0.06331l-0.13625,-0.20782l-0.41976,0.08532l-0.11284,-0.10322l-0.34544,-0.12111l-0.02891,-0.0922l-0.35369,-0.24496l0.11698,-0.11973l-0.09909,-0.14726l-0.12523,0.09359l-0.18992,0.01238l-0.07019,0.14588l-0.00551,0.2078l-0.24909,-0.02891l-0.28075,0.10322l-0.11284,-0.15414l-0.139,0.06331l-0.45002,-0.07155l-0.22845,0.09358l-0.22571,0.14588l-0.05229,-0.18304l-0.13075,-0.23534l-0.46379,-0.59178l-0.17341,-0.11423l-0.17065,-0.02614l-0.09633,-0.10459l-0.37847,-0.0523l-0.22157,0.02341l-0.36333,-0.11423l0.10873,-0.08119l-0.02341,-0.25185l0.12248,-0.26836l0.0055,-0.29176l0.1968,-0.14726l0.15964,-0.23809l0.08808,-0.02752l0.30828,0.15139l0.16377,-0.10322l-0.00963,-0.1445l0.18165,-0.19818l0.19542,0.02477l0.10734,-0.05092l-0.05092,-0.25598l-0.10873,-0.20368l0.04817,-0.15827l-0.1445,-0.03028l0.09909,-0.45416l0.18992,-0.02752l0.13763,0.12111l0.10322,-0.03715l0.13625,-0.2202l0.24359,-0.18854l-0.04403,-0.11423l0.13487,-0.41012l-0.0922,-0.09772l0.16653,-0.13625l0.36882,-0.01788l0.11698,-0.27524l0.19266,0.02752l0.17478,-0.29589l0.37021,-0.12661l0.41012,-0.25323l0.17478,-0.04542l0.10459,-0.15552l-0.07844,-0.1156l-0.07707,-0.26837l0.011,-0.1789l-0.13487,-0.24772l-0.02202,-0.3702l-0.05367,-0.18992l0.20093,-0.1789l0.14175,-0.26837l0.05092,-0.26837l0.2202,-0.26149l0.14588,-0.36195l-0.25048,-0.13625l-0.0399,-0.24496l-0.17891,0.05506l-0.04679,-0.12798l-0.23534,0.00551l-0.14313,-0.15964l-0.16377,-0.10183l-0.00826,-0.31103l0.06743,-0.08532l0.27938,-0.04267l0.11284,0.14588l0.22157,0.0867l0.14038,-0.12248h0.3881l0.20919,-0.36195l0.1101,0.02478l0.24772,-0.10184l0.1569,0.10873l0.21057,0.00276l0.2202,0.14726l0.14725,0.22707l0.19818,0.20369l0.10873,-0.04403l0.23534,0.0578l0.21194,-0.17478l-0.00688,-0.13349l0.28213,-0.04128l0.09358,0.06605l0.15827,-0.04129l0.35506,0.31653l0.54361,-0.04817l0.21057,-0.18716"></path></g></g></svg>