<svg version="1.1" xmlns="http://www.w3.org/2000/svg" xmlns:xlink="http://www.w3.org/1999/xlink" width="16.79825" height="8.44181" viewBox="0,0,16.79825,8.44181"><g transform="translate(-276.74814,-83.05698)"><g fill="#ff0000" fill-rule="evenodd" stroke="#ffffff" stroke-width="0" stroke-linecap="round" stroke-linejoin="round" stroke-miterlimit="10"><path d="M292.09859,83.52492l0.18992,-0.02341l0.07707,0.07982l0.24909,0.10597l0.09634,0.10873l0.16378,0.03302l0.29451,0.34818l0.30416,0.14038l-0.06194,0.18028l0.13487,0.22707l-0.08946,0.03715l-0.22983,0.24084l-0.07569,0.13349l-0.11011,-0.02065l-0.48169,0.06881l-0.30139,0.00963l-0.09496,0.05367l-0.18442,0.24634l-0.06881,0.20643l-0.04954,0.35783l-0.05917,0.80784l0.00276,0.58489l0.02615,0.22571l0.07707,0.07019l0.00551,0.1968l-0.05368,0.11698l-0.28625,0.36882l-0.3771,0.12249l-0.1445,-0.02752l-0.29588,0.07982l-0.10734,0.13212l-0.11698,-0.03853l-0.1789,0.13074l-0.31377,0.15552l-0.19818,0.02615l-0.38948,0.18028l-0.02891,0.26424l-0.12798,0.0578l-0.13349,0.39222l-0.19405,0.22845l-0.09358,0.34406l-0.30415,0.21469l-0.18028,-0.10183l-0.29589,-0.33167l-0.22295,-0.11835l-0.21056,-0.04267l-0.19542,0.07157l-0.29176,0.03853l-0.03441,0.07569l-0.2078,-0.06881l-0.03166,-0.07707l-0.34544,-0.32066l-0.09633,-0.02202l-0.18167,-0.27663l0.02065,-0.1968l-0.18992,-0.3592l0.02615,-0.12111l-0.20643,-0.46655l-0.05643,-0.28211l-0.0867,-0.06331l-0.09496,-0.32066l0.02891,-0.06331l-0.06331,-0.66472l0.01789,-0.16653l0.13899,-0.38259l0.2601,0.02341l0.18716,-0.05367l0.12387,0.08119l0.19405,0.32754l0.139,0.06194l0.04954,0.25322l0.39361,0.04129l0.1101,-0.03853l0.15413,0.13075l0.10183,0.17065l0.17065,-0.13349l0.27387,-0.01927l0.19543,0.12523l0.15963,-0.19542l0.10734,-0.03578l0.14175,-0.18304l0.00276,-0.36195l0.08946,-0.13212l0.18028,0.04817l0.16102,-0.17753l0.13762,0.00964l0.18167,-0.14725l0.11973,-0.20369l0.33167,-0.13625l0.00276,-0.20232l0.19818,-0.18028l0.11423,-0.57663l0.06056,-0.11147l0.4225,-0.07844l0.14726,-0.39635l-0.12387,-0.13762l0.11698,-0.10046l0.03028,-0.19268l-0.0399,-0.15276l0.05367,-0.18855l0.25736,-0.15963l0.0867,-0.20782l0.13625,-0.04679l0.13763,0.04267l0.14863,-0.13487l0.17617,-0.00551l0.12248,0.09772l0.06468,0.21607l0.21056,0.15413"></path><path d="M277.41422,88.68578l-0.15,0.11423l-0.17478,0.01377l-0.26149,0.10183l-0.07981,-0.35645l0.08395,-0.19542l0.48306,0.04817l0.09909,0.27387"></path><path d="M283.37329,91.39696l-0.11147,0.10183l-0.11835,-0.0867l0.06607,-0.13349l0.16377,0.11835"></path></g></g></svg>