<svg version="1.1" xmlns="http://www.w3.org/2000/svg" xmlns:xlink="http://www.w3.org/1999/xlink" width="9.20418" height="9.88417" viewBox="0,0,9.20418,9.88417"><g transform="translate(-316.4868,-65.83473)"><g fill="#ff0000" fill-rule="evenodd" stroke="#ffffff" stroke-width="0" stroke-linecap="round" stroke-linejoin="round" stroke-miterlimit="10"><path d="M323.94459,66.85875l-0.15139,0.28488l0.0399,0.21331l-0.01375,0.23257l0.17753,0.15276l0.04403,0.2835l0.24222,0.03166l0.10047,0.13075l0.06331,0.30966l0.13212,0.15139l0.02065,0.19955l0.18165,0.12523l0.0454,0.41149l0.48994,0.13626l-0.02891,0.33992l-0.07707,0.18579l0.2078,0.26699l0.19405,0.02891l0.07844,0.16653l-0.12248,0.41699l-0.18579,0.04679l-0.03028,0.21057l-0.2133,0.00413l-0.1445,0.10047l-0.1156,-0.04679l-0.20643,0.16927l-0.17617,0.08119l-0.35232,0.07155l-0.02202,0.37709l0.15827,0.22983l-0.06607,0.17203l0.13212,0.20782l-0.2078,0.42113l-0.12798,0.14175l-0.05092,0.18579l0.04403,0.34818l-0.24496,0.3413l0.00276,0.16927l-0.11423,0.22983l-0.09634,0.08395l0.04954,0.14725l-0.24634,0.22984l-0.10183,0.1445l-0.20093,0.15414l-0.21883,0.01652l-0.19266,0.13625l0.03165,0.15l-0.25322,0.10322l-0.05643,0.16514l-0.28488,-0.2546l-0.17891,-0.04817l-0.41562,-0.33443l-0.21057,-0.02477l-0.3592,-0.11835l-0.50095,-0.3014l-0.16513,0.02752l-0.26697,-0.16102l-0.32754,-0.38396l-0.011,-0.08809l-0.17617,-0.12387l-0.28488,-0.06194l-0.1569,0.02065l-0.15827,-0.13762l-0.33718,-0.15552l-0.11284,-0.17754l-0.34819,-0.18028l-0.22983,-0.21057l-0.2725,-0.14175l-0.32617,-0.25736l-0.14863,-0.26699l-0.33305,-0.33443l-0.23121,-0.16514l-0.03853,-0.09772l0.31653,-0.07157l0.39911,-0.17203l0.00826,-0.09634l0.28488,-0.26699l0.18718,-0.51471l-0.0523,-0.33443l0.21883,-0.35094l0.15413,-0.01927l0.07019,-0.17891l-0.08119,-0.23671l0.33718,-0.06744l0.20919,0.07432l0.2023,0.00138l0.03165,-0.11561l0.18718,-0.13763l0.10183,-0.16927h0.35369l0.2835,-0.18442l0.14038,-0.16927l0.07157,-0.22433l0.09909,0.01927l0.23534,-0.18028l-0.02477,-0.15827l-0.12661,-0.14863l0.20919,-0.26149l0.43076,0.04679l0.20093,-0.13625l-0.04129,-0.23121l0.10597,-0.12661l-0.11147,-0.15l0.10734,-0.14313l-0.06468,-0.31103l0.09634,-0.06056l-0.01927,-0.19542l0.15552,-0.03578l0.05643,-0.2725l0.07707,-0.12523l0.14313,0.00137l0.07569,-0.15552l0.28626,-0.02065l0.09909,0.17203l0.41975,0.04542l0.17478,-0.04267l0.20919,0.06331l0.05092,0.11423l0.19818,-0.14313l0.04129,-0.23671l0.27663,0.00826l0.13211,0.10046l0.12938,0.21469l0.20643,-0.06468l0.08946,0.0523l0.03578,0.36882l-0.03164,0.21469l0.11146,0.12937"></path></g></g></svg>