<svg version="1.1" xmlns="http://www.w3.org/2000/svg" xmlns:xlink="http://www.w3.org/1999/xlink" width="5.19388" height="6.00011" viewBox="0,0,5.19388,6.00011"><g transform="translate(-343.9481,-47.59772)"><g fill-rule="evenodd" stroke="#ffffff" stroke-width="0" stroke-linecap="round" stroke-linejoin="round" stroke-miterlimit="10"><path d="M348.92318,50.02196l-0.0922,0.16363l-0.24772,0.27154l0.16377,0.29906l0.10183,0.11243l0.08532,0.2341l0.2078,0.36992l-0.28075,0.01528l0.08257,0.23148l-0.0633,0.13474l0.04128,0.32658l-0.22983,0.24608l-0.03992,0.55435l-0.37846,0.22253l0.13349,0.38397l-0.20369,0.01018l-0.11147,-0.06428l0.00963,-0.13005l-0.1569,-0.15263l-0.1624,0.02491l-0.16789,-0.13005l-0.44728,-0.14326l-0.15413,-0.09606l-0.139,0.15744l0.00827,0.1708l-0.44727,0.29218l-0.07982,-0.09702l-0.23534,0.00564l-0.32617,-0.5798l-0.33855,0.04129l-0.19679,-0.11451l-0.03578,-0.13144l-0.15276,0.06358l-0.29588,-0.09649l-0.24359,-0.03895l-0.15139,-0.22404l-0.17341,-0.01595l-0.10459,-0.21304l0.11835,-0.12523l-0.0867,-0.15015l0.0578,-0.12414l0.07155,-0.36279l0.08946,-0.1101l-0.3413,-0.1712l0.15689,-0.23274l0.02615,-0.2323l-0.03853,-0.19061l-0.20643,-0.65233l0.00826,-0.19996l0.12248,-0.54154l0.22157,-0.20987l0.07155,-0.1646l0.14863,-0.09332l0.1624,-0.24552l0.11973,-0.3636l0.34956,-0.11437l0.25185,-0.22227l0.3248,-0.02174l0.3124,0.10474l0.12937,0.19432l0.16102,0.01595l0.52572,-0.17602l0.38948,0.0896l0.24221,0.12812l0.09359,0.1401l0.06468,0.34434l0.36332,0.10433l0.11284,0.3091l-0.03303,0.15496l0.15963,0.35273l0.13349,0.07569l0.11698,-0.09743l0.2023,0.09069l0.10459,0.14161l0.11561,0.45141M348.55986,49.45343l-0.37159,0.09689l-0.21607,0.25365l-0.04817,0.29754l0.06468,0.32313l0.17341,0.08795l0.15,-0.08368l0.1101,-0.34874l0.40599,-0.32796l-0.10183,-0.20589l-0.16653,-0.09289M344.84127,48.51622l-0.18028,0.36622l0.01377,0.15056l-0.11561,0.18895l-0.03715,0.21868l0.05917,0.19846l0.18442,0.24511l0.23671,0.13378l0.37159,0.07542l0.06194,0.28859l0.15689,-0.0183l0.18167,-0.42664l-0.02615,-0.36966l0.1679,-0.21786l-0.00688,-0.31199l0.3124,-0.38136l0.11011,0.07899l0.28764,-0.05863l0.00413,-0.39554l-0.2601,-0.09482l-0.21607,0.03536l-0.26423,-0.0607l-0.1968,0.07047l-0.37709,0.01114l-0.10046,0.16735l-0.36746,0.10639" fill="#ff0000"></path><path d="M345.12479,48.75857l0.18165,0.02119l0.09634,0.21758l-0.21331,0.23671l-0.21607,-0.15207l-0.07981,-0.18387l0.23121,-0.13955" fill="#3b4238"></path></g></g></svg>