<svg version="1.1" xmlns="http://www.w3.org/2000/svg" xmlns:xlink="http://www.w3.org/1999/xlink" width="14.18476" height="11.64443" viewBox="0,0,14.18476,11.64443"><g transform="translate(-315.48215,-41.39675)"><g fill="#ff0000" fill-rule="evenodd" stroke="none" stroke-width="0.4" stroke-linecap="round" stroke-linejoin="round" stroke-miterlimit="10"><path d="M325.56854,42.85317l0.09083,0.51142l0.16102,0.08753l0.15,-0.0973l0.33305,0.00591l0.28901,-0.12413l0.23533,-0.16433l0.13349,-0.02779l0.22983,0.28956l0.19268,0.12111l0.32066,-0.12455l0.23121,0.19612l-0.07569,0.21359l-0.15,0.07569l-0.04954,0.14616l-0.20368,0.18291l-0.02891,0.21346l0.04403,0.20534l-0.12387,0.04046l0.03853,0.32673l-0.06743,0.13982l0.01514,0.19887l0.16651,0.18002l0.20782,0.15346l-0.24772,0.12964l-0.09772,0.1507l0.02478,0.26244l-0.09496,0.10115l0.05643,0.33223l0.18028,0.20382l0.11284,-0.03262l0.25322,0.09427l0.24772,-0.04596l0.07431,0.16156l0.29589,-0.0977l0.30966,-0.2096l0.24634,-0.00413l0.08532,-0.14355l0.15139,-0.03083l0.20643,0.14423l0.15414,0.3969l-0.07157,0.07681l-0.08809,0.27993l0.05092,0.17767l-0.1445,0.01143l-0.20093,0.29851l-0.00551,0.17507l-0.09083,0.07198l0.02752,0.17588l0.26837,0.16336l0.01789,0.13762l0.10872,0.06881l0.04129,0.21661l-0.24359,0.16777l-0.10459,0.24402l-0.15964,0.1529l-0.00276,0.15552l0.08532,0.08643l-0.11423,0.13735l-0.25322,0.08602l-0.19268,0.19281l-0.57663,0.34296l-0.25736,-0.15056l-0.14863,0.24718l-0.14038,0.14588l0.04679,0.14823l-0.13626,0.11533l-0.38948,-0.10693l-0.15964,-0.00578l-0.22157,0.15552l-0.19405,-0.18703l-0.07018,-0.17134l-0.20369,-0.13886l-0.2601,-0.24318l-0.1913,-0.00811l-0.2133,-0.08162l-0.34681,0.40035l0.02891,0.35686l-0.17891,0.15194l-0.12661,-0.02464l-0.21057,-0.13899l-0.02065,0.31984l-0.10734,0.05491l-0.10322,0.19171l-0.25185,0.10721l-0.03992,0.15386l-0.61518,0.48237l-0.11147,0.18345l-0.12937,0.00454l-0.05506,0.36043l-0.33443,0.28337l-0.13212,-0.1646l-0.21607,-0.17217l-0.3248,-0.43503l-0.34406,-0.1518l-0.24772,-0.32618l-0.05504,-0.19693l0.09084,-0.07171l-0.25186,-0.24896l-0.11284,-0.05284l-0.13348,0.11203l-0.20643,0.07267l-0.10184,-0.10514l-0.19542,-0.04417l-0.21057,0.17698l-0.37433,-0.0794l-0.15827,-0.10197l-0.1445,-0.23739l-0.24496,-0.26631l-0.06605,-0.18578l-0.16927,0.2623l-0.1101,0.01982l-0.09496,-0.12688l-0.10184,0.04417l-0.02341,0.38466l0.01927,0.26767l-0.0578,0.08051l0.00963,0.48457l-0.23808,0.10376l-0.06744,-0.05753l-0.26837,0.09799l-0.02202,-0.15179l0.17478,-0.23107l-0.05092,-0.15813l-0.2601,-0.22337l-0.11698,0.00881l-0.07294,-0.28845l-0.15414,-0.2286l0.01789,-0.2089l-0.2835,-0.14562l-0.03165,-0.22722l-0.15414,-0.19942l-0.01788,-0.3775l-0.04403,-0.20025l0.11011,-0.13816l-0.04129,-0.15964l0.06605,-0.21977l-0.19266,-0.38108l-0.16102,-0.15716l-0.14038,-0.00674l-0.25598,0.15963l-0.40598,0.11644l-0.12248,0.0973l-0.06881,-0.24731l-0.23395,-0.36167l0.00963,-0.4836l0.05092,-0.32713l-0.12523,-0.1006l0.03302,-0.1873l0.26974,-0.0117l0.0578,-0.06151l-0.0523,-0.2235l0.01927,-0.16474l0.30828,-0.36732l0.09909,-0.03963l-0.06605,-0.21951l0.08119,-0.14863l0.16653,-0.06538l-0.02615,-0.173l-0.11011,-0.06647l-0.29451,-0.49834l0.16102,-0.34929l-0.13074,-0.2052h-0.31653l-0.21744,-0.04293l-0.17754,-0.11478l0.03853,-0.32878l-0.1789,-0.1251l0.0055,-0.12331l0.3014,-0.3347l0.12387,-0.04859l0.25185,-0.38026l0.12661,-0.07197l0.17341,0.02574l0.37709,-0.1134l0.20643,0.1862l0.2725,0.08368l0.07431,-0.10873l0.22571,-0.00289l0.09496,-0.26354l0.20643,0.08753l0.08395,-0.07047l0.40598,-0.08699l0.07569,0.08451l0.27663,0.06634l0.34544,0.02905l0.16651,0.20932l0.10186,-0.09193l0.07294,-0.26396l0.14863,-0.1218l0.24084,0.03839l0.30139,0.17395l0.05504,-0.37337l0.08119,-0.10226l0.22708,-0.09634l0.08532,-0.13432l0.22157,-0.01665l0.15827,-0.25296l0.21057,-0.00564l0.34956,-0.15456l-0.02065,-0.11767l0.3303,-0.14106l0.23671,0.21414l0.12524,0.02367l0.09496,0.12551l0.21057,-0.11023l0.30415,-0.07267l0.09359,0.13114l0.26286,0.24276l0.1968,0.124l0.06743,0.29259l0.10322,0.05106l0.06193,0.29038l0.11284,0.21579l0.50231,0.46655l0.17203,0.0512l0.03302,0.1163l0.24496,0.02285l0.19543,-0.13102l0.00137,-0.15483l0.278,-0.27911l0.16377,0.03936l0.09084,-0.15456l0.17617,-0.0483"></path></g></g></svg>