<svg version="1.1" xmlns="http://www.w3.org/2000/svg" xmlns:xlink="http://www.w3.org/1999/xlink" width="1.49129" height="2.08542" viewBox="0,0,1.49129,2.08542"><g transform="translate(-176.14493,-321.55689)"><g fill="#ff0000" stroke="#ffffff" stroke-width="0" stroke-linecap="round" stroke-linejoin="round" stroke-miterlimit="10"><path d="M176.6272,322.80781l0.17044,0.07196l0.10226,0.202l-0.0745,0.19443v0.12119l-0.13004,0.17548l-0.29795,0.06944l-0.11109,-0.03788l-0.14139,-0.10731l0.04797,-0.11489v-0.23608l0.10226,-0.31184l0.19315,-0.03155l0.13887,0.00504" fill-rule="evenodd"></path><path d="M177.30893,321.6337l0.16413,-0.0101l0.16159,0.07322l-0.11362,0.27017l-0.22473,0.04924l-0.13886,-0.07322l-0.11615,-0.20831l0.0101,-0.17675l0.25755,0.07575" fill-rule="evenodd"></path><path d="M176.62872,322.8068l0.17044,0.07196l0.10227,0.202l-0.07449,0.19444v0.1212l-0.13004,0.1755l-0.29796,0.06945l-0.1111,-0.03788l-0.14139,-0.10732l0.04797,-0.11489v-0.23609l0.10227,-0.31185l0.19316,-0.03155l0.13887,0.00504" fill-rule="nonzero"></path><path d="M177.31048,321.63263l0.16413,-0.0101l0.16161,0.07322l-0.11364,0.27019l-0.22474,0.04924l-0.13887,-0.07323l-0.11615,-0.20831l0.0101,-0.17675l0.25756,0.07575" fill-rule="nonzero"></path></g></g></svg>