<svg version="1.1" xmlns="http://www.w3.org/2000/svg" xmlns:xlink="http://www.w3.org/1999/xlink" width="266.38617" height="100.14532" viewBox="0,0,266.38617,100.14532"><g transform="translate(-239.28482,-179.95836)"><g stroke="none" stroke-miterlimit="10"><path d="M505.67098,183.60999v92.84277c0,2.01328 -1.63693,3.65093 -3.65163,3.65093h-259.08359c-2.01258,0 -3.65093,-1.63764 -3.65093,-3.65093v-92.84346c0,-2.01328 1.63835,-3.65093 3.65093,-3.65093h259.08361c2.0147,0 3.65164,1.63835 3.65164,3.65162z" fill="#262740"></path><path d="M498.67098,194.60998v75.84276c0,2.01328 -1.63693,3.65093 -3.65163,3.65093h-244.58359c-2.01258,0 -3.65093,-1.63765 -3.65093,-3.65093v-75.84346c0,-2.01328 1.63835,-3.65093 3.65093,-3.65093h244.58361c2.0147,0 3.65164,1.63835 3.65164,3.65162z" fill="#333456"></path></g></g></svg>