<svg version="1.1" xmlns="http://www.w3.org/2000/svg" xmlns:xlink="http://www.w3.org/1999/xlink" width="6.51255" height="5.87805" viewBox="0,0,6.51255,5.87805"><g transform="translate(-169.58754,-228.3377)"><g fill="#ff0000" fill-rule="evenodd" stroke="#ffffff" stroke-width="0" stroke-linecap="round" stroke-linejoin="round" stroke-miterlimit="10"><path d="M174.93553,228.86653l0.02706,0.21889l0.20168,0.3935l0.13404,0.18323l0.29758,0.00738l0.07624,0.3603l0.0701,0.12543l-0.07255,0.12173l0.04919,0.15741l0.2152,0.06271l0.14388,0.25333l-0.01476,0.13035l-0.19061,0.44269l-0.24595,0.19799l-0.14388,-0.09346l-0.11068,0.05042l0.05411,0.23732l-0.11928,0.0578l-0.02214,0.21643l0.17585,0.03197l0.17093,0.16356l0.03444,0.15372l0.13035,0.26071l0.19922,0.06763l0.04673,0.13895l-0.03565,0.27422l0.09346,0.18815l-0.15741,0.11314l-0.31972,-0.10576l-0.13158,0.05288l-0.17462,-0.07625l-0.08854,-0.12543l-0.23857,0.00122l-0.06763,-0.06641l-0.1156,0.07132l-0.11559,0.16601l-0.02214,0.14511l-0.22012,0.16356l-0.00246,0.23119l-0.16109,0.0123l-0.07747,0.06763l-0.13527,-0.06149l-0.14141,0.04673l-0.06271,-0.08854l-0.13773,-0.03935l-0.12666,-0.12174l-0.10698,0.11068l-0.23609,0.07132l-0.10698,0.08731l-0.08608,0.19182l-0.06518,0.03075l-0.22258,-0.10945l-0.19799,0.10945l-0.02582,0.06886l-0.15863,-0.06394l-0.35047,-0.00123l-0.15372,-0.02951l-0.091,0.06763l-0.07255,-0.09591l-0.4058,0.03812l-0.26438,-0.08977l-0.35293,-0.31849l-0.18938,-0.09838l-0.04182,-0.22627l-0.35538,-0.06886l-0.06271,-0.10207l-0.02828,-0.19061l-0.05903,-0.15249l-0.23119,0.00984l-0.15126,-0.12174l0.09346,-0.18569l-0.06641,-0.05533l0.07132,-0.26563l-0.03443,-0.19305l0.08609,-0.09346l-0.01353,-0.19307l0.17831,-0.24964l-0.01476,-0.18077l-0.06395,-0.04303l0.16971,-0.22996l-0.14141,-0.24349l0.04058,-0.22627l0.38982,-0.17585l0.07747,-0.14511l0.12666,-0.12543l0.08238,0.19307l0.07501,0.091l0.06763,0.20168l0.16233,0.02214l0.20782,-0.12297l-0.04427,-0.10206l0.05657,-0.1279l0.09715,-0.07624l0.14141,-0.26684l0.22012,-0.09346l0.03197,-0.11805l-0.2152,-0.06763l-0.04673,-0.19676l0.10822,-0.13281l-0.08731,-0.30744l0.23242,-0.05902l-0.03812,-0.12052l0.05533,-0.11314l0.19184,-0.13157l0.34431,-0.091l0.10576,-0.13896l0.14757,-0.00246l0.11929,0.05287l0.28774,-0.12052l0.15249,0.16233l0.12666,-0.08485l0.17093,0.12543l0.04796,0.10576l0.11559,0.00738l0.14019,0.14511l-0.03689,0.22627l0.0578,0.13404l0.11805,0.02828l0.20045,-0.01353l0.15126,0.04673l0.15249,-0.07501l0.06763,-0.09837l0.23242,-0.0123l0.11436,0.06025l0.1574,-0.07747l0.17708,-0.15126"></path></g></g></svg>