<svg version="1.1" xmlns="http://www.w3.org/2000/svg" xmlns:xlink="http://www.w3.org/1999/xlink" width="169" height="169" viewBox="0,0,169,169"><defs><radialGradient cx="240" cy="180" r="84.5" gradientUnits="userSpaceOnUse" id="color-1"><stop offset="0" stop-color="#ffffff" stop-opacity="0.13333"></stop><stop offset="1" stop-color="#ffffff" stop-opacity="0"></stop></radialGradient></defs><g transform="translate(-155.5,-95.5)"><g stroke-miterlimit="10"><path d="M155.5,180c0,-46.66806 37.83194,-84.5 84.5,-84.5c46.66806,0 84.5,37.83194 84.5,84.5c0,46.66806 -37.83194,84.5 -84.5,84.5c-46.66806,0 -84.5,-37.83194 -84.5,-84.5z" fill="url(#color-1)" fill-rule="nonzero" stroke="#000000" stroke-width="0" stroke-linecap="butt" stroke-linejoin="miter"></path><path d="M176.99214,180v0c0,-34.79828 28.2096,-63.00787 63.00788,-63.00787v0v0c16.71072,0 32.73702,6.63831 44.55331,18.45459c11.81626,11.81628 18.45456,27.84259 18.45456,44.55328v0v0c0,34.79828 -28.20956,63.00787 -63.00787,63.00787v0v0c-34.79828,0 -63.00788,-28.20959 -63.00788,-63.00787z" fill="#65001a" fill-rule="evenodd" stroke="none" stroke-width="1" stroke-linecap="square" stroke-linejoin="miter"></path><path d="M187.9283,179.99126v0c0,-28.7536 23.30939,-52.06299 52.06299,-52.06299v0v0c13.80799,0 27.05038,5.48516 36.81408,15.2489c9.76373,9.76373 15.2489,23.0061 15.2489,36.81409v0v0c0,28.7536 -23.30939,52.06299 -52.06299,52.06299v0v0c-28.7536,0 -52.06299,-23.30939 -52.06299,-52.06299z" fill="#8c0028" fill-rule="evenodd" stroke="none" stroke-width="1" stroke-linecap="square" stroke-linejoin="miter"></path><path d="M265.11342,142.14331v6.29725l-27.61218,69.12768h-10.75476l26.98507,-66.29748h-38.83654v-9.12744z" fill="#fef8f8" fill-rule="evenodd" stroke="none" stroke-width="1" stroke-linecap="square" stroke-linejoin="miter"></path><path d="M265.11342,142.14331v6.29725l-27.61218,69.12768h-10.75476l26.98507,-66.29748h-38.83654v-9.12744z" fill="none" fill-rule="evenodd" stroke="#fef8f8" stroke-width="4" stroke-linecap="butt" stroke-linejoin="round"></path></g></g></svg>