<svg version="1.1" xmlns="http://www.w3.org/2000/svg" xmlns:xlink="http://www.w3.org/1999/xlink" width="8.26172" height="10.79918" viewBox="0,0,8.26172,10.79918"><g transform="translate(-282.6047,-105.20289)"><g fill="#ff0000" fill-rule="evenodd" stroke="#ffffff" stroke-width="0" stroke-linecap="round" stroke-linejoin="round" stroke-miterlimit="10"><path d="M284.52314,114.81741l0.03114,0.22921l-0.14575,0.00623l-0.0897,-0.09593l-0.1196,0.16443l-0.15696,0.00248l-0.17068,-0.1445l-0.41607,0.08596l-0.18187,-0.05357l-0.12332,-0.24417l-0.02616,-0.40236l-0.1196,-0.03737l-0.24541,-0.3351l-0.00747,-0.26409l0.17565,-0.02616l0.02616,-0.13205l-0.15322,-0.03612l-0.1009,-0.19557l0.00124,-0.13329l-0.09592,-0.30768l0.10713,-0.18064l0.27031,0.40859l0.13453,-0.03612l0.07973,0.07847l0.31143,0.06727l0.21551,0.12583l0.03737,0.10215l0.14575,0.06602l0.147,-0.01619l0.27281,-0.11212l0.17067,-0.1009l0.34382,-0.29025l0.36249,-0.44099l0.27406,-0.40985l0.31392,-0.6129l0.13951,-0.33634l0.19683,-0.54313l0.20181,-0.70134l-0.10215,-0.12707l0.05481,-0.27156l0.08222,0.01494l0.07225,-0.34133l0.05107,-0.06977l0.13329,-0.65277l0.10589,-0.8147l0.02492,-0.39739l-0.03862,-0.30894l-0.1034,-0.09841l-0.01619,-0.13205l-0.41358,-0.26409l-0.02241,-0.17067l-0.37869,-0.24666l-0.04734,-0.15198l-0.09841,-0.09094l0.29275,-0.10837l0.17068,0.13453l0.34257,-0.10339l0.1283,0.11336l0.12831,-0.0573l0.04609,-0.16567l-0.06352,-0.11336l0.05856,-0.10713l0.16817,-0.12583l0.11212,0.00125l0.14701,-0.10713l0.24042,0.00499l0.26159,0.22921l-0.00374,0.147l0.10465,0.13205l0.4933,-0.03737l0.41358,-0.04859l0.20679,0.10713l0.1632,-0.06229l0.12582,0.11834l0.2778,-0.09966l0.11212,-0.07599l0.19185,0.01869l0.15447,-0.08719l0.24416,-0.00248l0.13205,0.1582l0.32016,-0.0461l-0.03114,0.32265l0.04734,0.12955l-0.04111,0.13951l0.01495,0.28527l0.04859,0.1196l0.1495,0.08346l0.07599,0.11087l-0.06851,0.27655l-0.19185,0.29275l-0.02616,0.25413l-0.09964,0.07474l-0.03238,0.1582l0.0573,0.20305l-0.04485,0.24042l-0.1582,0.16817l-0.01495,0.15198l-0.2778,0.02615l-0.17565,0.28651l0.11709,0.18686l-0.05357,0.15945l0.16693,0.13827l0.03612,0.13579l-0.26658,0.0274l-0.09592,0.20928l-0.13579,0.00996l-0.02367,0.22921l0.04359,0.27156l-0.10589,0.28403l-0.00375,0.28153l-0.05979,0.09094l0.08969,0.20554l-0.04111,0.17191l0.09716,0.04111l-0.05481,0.36999l-0.12208,0.04859l0.02492,0.14202l-0.07101,0.06851l0.10339,0.29524l-0.01371,0.19932l-0.10339,0.13703l-0.01619,0.27406l0.20055,0.13329l0.02865,0.21925l-0.06354,0.16195l0.17067,0.16942l0.05606,0.19433l0.10465,0.09466l0.22673,0.07349l0.03986,0.12332l-0.03489,0.12831l0.06354,0.21054l-0.01371,0.17316l0.06727,0.16693l-0.04859,0.19683l0.08346,0.08472l0.01869,0.2155l-0.12458,0.2342l-0.18312,-0.03238l-0.09966,0.12333l-0.1856,-0.04236l-0.10215,0.03862l-0.21054,-0.22673l-0.13827,-0.31516l-0.18187,-0.06603l-0.09593,0.01869l-0.01743,0.13579l-0.1582,0.11709l-0.24541,0.05856l-0.14077,-0.07847l-0.10091,0.07847l-0.17813,-0.00248l-0.19184,-0.09466l-0.11834,0.13703l-0.11585,0.01869l-0.22174,-0.05606l-0.10465,-0.21054l-0.07847,0.11585l-0.12332,-0.01869l-0.09466,0.11336l0.07724,0.25661l0.00997,0.35254l-0.27032,0.04111l-0.18312,-0.42354l-0.1881,-0.30395l-0.3077,-0.36001l-0.3625,-0.29648l-0.31765,-0.1582l-0.34133,-0.04485l-0.48334,0.10837l0.06229,0.08346l-0.20554,0.21054M285.79004,113.77724l0.12831,0.58175l0.15696,-0.24291l0.56681,0.17439l-0.00374,0.08471l0.26783,0.4248l0.07225,0.00747l0.14326,-0.67892l-0.15322,-0.25288l-0.0872,-0.03114l-0.26909,0.14824l-0.77235,-0.21054l-0.04983,-0.00498"></path></g></g></svg>