<svg version="1.1" xmlns="http://www.w3.org/2000/svg" xmlns:xlink="http://www.w3.org/1999/xlink" width="12.74663" height="19.26129" viewBox="0,0,12.74663,19.26129"><g transform="translate(-313.10261,-24.5043)"><g fill="#ff0000" fill-rule="evenodd" stroke="none" stroke-width="0.4" stroke-linecap="round" stroke-linejoin="round" stroke-miterlimit="10"><path d="M315.52206,24.88096l0.1101,0.30512l-0.13212,0.19295l0.02065,0.10115l0.18716,0.04982l-0.05092,0.30482l0.05367,0.25874l-0.09909,0.20863l0.03441,0.15923l0.17203,0.12304l0.23808,-0.02341l0.19405,-0.17451l0.05367,-0.25199l0.24634,-0.03702l0.50095,0.11216l0.24496,-0.09606l-0.011,0.37997l0.04403,0.27483l0.16653,0.00481l0.21883,0.17436l-0.09084,0.32947l-0.03028,0.27827l0.29865,0.41025l0.04267,0.32162l0.20919,0.07914l0.22295,-0.07762l0.0523,0.09372l0.18716,0.06661l0.2601,0.02065l0.02339,0.11107l0.17065,0.15303l0.12523,0.25859l-0.07155,0.09235l-0.10597,0.39264l0.10872,0.2319l0.25048,0.1705l0.0578,0.14465l0.30966,0.08147l0.14175,-0.07184l0.14313,0.26974l-0.01789,0.18359l0.0867,0.1273l0.12524,0.01101l0.03165,0.20973l0.20919,-0.09399l0.11973,-0.24318l0.06881,-0.25516l0.17065,-0.10954l0.28901,-0.00964l0.09633,0.28791l0.15139,0.00247l0.25048,0.12482l0.20919,-0.08106l0.18165,0.06124l0.26837,-0.04637l0.07157,0.13982l-0.02341,0.18042l0.14313,0.04803l-0.03853,0.20369l-0.22983,0.2718v0.33581l0.13625,0.10708l-0.25048,0.14642l-0.10183,0.16433l-0.03028,0.27758l-0.23121,0.26244l-0.06607,0.22708l0.01652,0.16323l-0.18304,0.45581l-0.00688,0.17231l0.13487,0.02671l0.17341,-0.08409l0.18442,0.03853l0.42389,-0.05987l0.05643,-0.1924l0.17617,-0.11822l0.21744,-0.37819l0.15964,-0.16254l0.24359,0.01294l0.11011,0.24496l0.00688,0.14863l0.24772,-0.04596l0.13762,0.15923l0.22295,-0.18345l0.40736,0.1573l0.22983,-0.04707l0.13899,0.07569l0.30002,-0.0885l-0.04542,0.24951l0.15139,0.15703l-0.21469,0.23601l-0.15413,0.04584l-0.08395,0.18909l0.16514,0.32039l-0.08946,0.16927l0.06605,0.17505l-0.04128,0.1913l-0.31929,0.51676l0.00137,0.21277l0.2023,-0.01128l0.09496,0.06303l-0.00551,0.45884l0.07431,0.22351l-0.06881,0.27193l0.03028,0.13102l0.26423,0.09923l0.18855,0.19171l0.10184,0.16997l-0.01238,0.15028l0.07294,0.27373l-0.0867,0.14795l0.10597,0.29038l0.06881,0.55022l0.06744,0.11863l-0.07569,0.17313l-0.19405,0.09332l-0.29038,-0.07927l-0.04679,0.16528l0.06605,0.08876l-0.04542,0.19061l0.02615,0.15359l0.13212,0.09772l0.12661,0.28929l-0.0578,0.06261l0.00826,0.26644l0.18716,0.10419l-0.13626,0.28474l0.05092,0.12221l0.13763,0.07981l0.06468,0.20106l-0.17203,0.16624l0.139,0.14795l-0.03441,0.24718l0.2133,-0.02051l0.11835,0.20836l-0.05368,0.12124l0.11423,0.26451l-0.03992,0.1522l-0.14863,0.09937l0.02752,0.10611l-0.12387,0.34199l-0.17615,0.0483l-0.09084,0.15456l-0.16377,-0.03936l-0.278,0.2791l-0.00137,0.15483l-0.19543,0.13102l-0.24496,-0.02285l-0.03302,-0.11628l-0.17203,-0.0512l-0.50231,-0.46655l-0.11284,-0.21579l-0.06193,-0.29038l-0.10322,-0.05106l-0.06743,-0.29258l-0.1968,-0.124l-0.26286,-0.24276l-0.09359,-0.13115l-0.30415,0.07267l-0.21057,0.11023l-0.09496,-0.12551l-0.12524,-0.02367l-0.23671,-0.21414l-0.3303,0.14107l0.02065,0.11767l-0.34956,0.15456l-0.21057,0.00564l-0.15827,0.25295l-0.22157,0.01665l-0.08532,0.13432l-0.22707,0.09634l-0.08119,0.10226l-0.05504,0.37337l-0.3014,-0.17395l-0.24084,-0.03839l-0.14863,0.1218l-0.07294,0.26396l-0.10186,0.09193l-0.16651,-0.20932l-0.34544,-0.02905l-0.27663,-0.06634l-0.07569,-0.08451l-0.40598,0.08698l-0.08395,0.07047l-0.20643,-0.08753l-0.09496,0.26354l-0.22571,0.0029l-0.07431,0.10872l-0.2725,-0.08368l-0.20643,-0.1862l-0.37709,0.1134l-0.17341,-0.02572l-0.12661,0.07197l-0.25185,0.38026l-0.12387,0.04859l-0.30139,0.33471l-0.13211,-0.25873l-0.23534,-0.28461l-0.10459,-0.42306l-0.13487,-0.1796l0.10183,-0.22832l-0.11147,-0.16955l-0.03441,-0.21564l-0.15276,-0.33043l-0.03302,-0.28061l0.13075,-0.19281l-0.04267,-0.10033l-0.39774,-0.06935l-0.12523,-0.14726l0.17891,-0.25983l-0.10459,-0.17094l-0.13626,-0.49668l0.25322,-0.28888l0.01514,-0.38384l0.04817,-0.12702l-0.0578,-0.22405l0.05917,-0.13735l0.17203,-0.33208l-0.08533,-0.25777l-0.30276,-0.03509l-0.14175,-0.12579l-0.08395,-0.16184l0.08809,-0.09359l-0.08946,-0.19955l0.31653,-0.14809l-0.11973,-0.39195l-0.25598,-0.26657l-0.11284,-0.28695l0.40736,-0.259l-0.09909,-0.20092l0.07707,-0.11587l-0.07019,-0.22845l0.09909,-0.18455l-0.17478,-0.16308l-0.15964,-0.02559l-0.10873,-0.48016l0.03853,-0.12964l-0.14175,-0.24401l0.19818,-0.20286l-0.0055,-0.09276l0.26149,-0.0629l0.46792,-0.57499l0.23671,-0.00234l0.139,-0.50989l-0.00276,-0.18028l-0.09496,-0.2718l-0.30828,-0.00661l-0.18167,-0.13762l-0.07707,-0.16115l-0.17753,-0.17547l-0.18855,-0.32727l0.13349,-0.19749l0.06744,-0.21758l-0.11147,-0.15523l-0.09496,-0.49944l-0.3413,-0.13171l-0.10873,-0.25501l0.09222,-0.08009l-0.00276,-0.18304l-0.14863,-0.09316l-0.00276,-0.41576l0.0922,-0.15634l-0.15689,-0.0977l-0.01514,-0.30966l-0.11834,-0.20877l0.09909,-0.08299l0.07431,-0.20823l-0.10322,-0.09345l0.01927,-0.27071l-0.14726,-0.17093l-0.11147,-0.33113l0.18304,-0.29864l-0.03578,-0.14079l0.19266,-0.63252l-0.05504,-0.08299l0.10873,-0.26369l-0.0977,-0.28598l0.13212,-0.37626l-0.05917,-0.16019l-0.18992,-0.18607l0.13763,-0.18456l0.05229,-0.2696l0.22295,-0.04377l0.12111,-0.17244l0.01927,0.12744l0.32341,0.00647l0.22845,-0.06041l0.36607,0.00441l0.33992,0.0629l0.16927,-0.08188l0.2601,0.31777M316.19916,34.94535l0.12248,0.19583l-0.21607,0.32796l-0.13212,0.08643l0.02065,0.33608l-0.05367,0.31172l0.24084,0.16845l0.09358,-0.15097l0.18028,0.0472l0.2725,-0.29245l-0.01377,-0.42277l-0.12111,0.05987l-0.24084,-0.32713l0.09358,-0.25392l-0.06468,-0.1522l-0.18167,0.06592"></path></g></g></svg>