<svg version="1.1" xmlns="http://www.w3.org/2000/svg" xmlns:xlink="http://www.w3.org/1999/xlink" width="22.33752" height="13.87833" viewBox="0,0,22.33752,13.87833"><g transform="translate(-336.87014,-50.0166)"><g fill="#ff0000" fill-rule="evenodd" stroke="#ffffff" stroke-width="0" stroke-linecap="round" stroke-linejoin="round" stroke-miterlimit="10"><path d="M350.29941,52.58312l-0.36609,-0.08863l-0.14726,0.19378l-0.04267,0.33552l0.07981,0.21469l0.16377,0.2268l0.10459,0.27373l-0.02341,0.11794l0.08808,0.21387l0.01652,0.21938l0.11284,0.04197l0.14175,0.18428l0.10734,-0.09042l0.36057,0.36209l0.05367,0.1533l0.16102,-0.00234l0.41562,0.24634l0.27663,0.06607l0.47617,0.05064l0.24772,0.11644l0.08395,0.17698l0.21194,0.10927l0.12937,-0.09097l0.32754,0.3091l0.21193,0.1584l0.08395,0.24166l0.278,-0.09358l0.13487,0.01569l0.21194,0.18772l0.3124,0.08876l0.15139,0.17588l0.23121,0.16212l0.15,0.01775l0.1569,-0.09592l0.11973,-0.22887l0.30552,-0.19556l0.11284,0.0512l0.53536,0.05904l0.13763,0.05478l0.25873,-0.20437l0.10734,0.02037l0.09909,-0.16129l0.14725,-0.12055l0.38535,0.01528l0.41286,0.9763l0.28626,-0.29108l0.29312,-0.11147l0.21194,0.28997l0.42113,0.17341l0.04267,0.29066l0.12937,0.26231l-0.13626,0.11284l-0.26423,-0.09772l-0.1789,0.0472l-0.48581,0.21331l-0.24359,0.18372l-0.07982,0.13542l-0.3248,0.11161l-0.25048,-0.06785l-0.07294,-0.15922l-0.12387,-0.04239l-0.32341,0.1057l-0.19818,0.20506l-0.12523,0.02615l-0.13212,0.2546l-0.03715,0.29038l0.07707,0.36332l0.30828,0.06881l0.29038,-0.07707l-0.13487,0.28074l-0.22707,0.01652l-0.14313,-0.1734l-0.23946,-0.02202l-0.14863,0.0977l-0.10047,0.18718l-0.01377,0.36333l-0.35506,0.09496l-0.13349,0.1679l-0.28075,0.0523l-0.0867,0.15827l0.08946,0.17617l-0.07844,0.18442l-0.32893,0.17754l-0.06744,-0.04954l-0.30276,0.22983l-0.3303,-0.01927l-0.15689,-0.10459l-0.1624,-0.03165l-0.11284,0.06881l-0.26286,-0.0578l-0.24634,0.08808l-0.16927,-0.23121l-0.17341,-0.06744l0.03853,-0.0977l-0.1445,-0.16927l-0.20643,-0.01652l0.06605,-0.16102l-0.03165,-0.18442l0.21193,-0.23671l0.00276,0.01789l0.17753,0.30276l0.12248,-0.00826l0.13075,0.15276l0.18992,0.0867l0.17478,-0.03028l0.07707,-0.17203l0.2202,0.04403l0.04817,-0.24496l0.12248,-0.09084l-0.13763,-0.21883l-0.20093,-0.16513l-0.278,-0.1101l-0.2078,0.011l-0.41287,-0.11835l-0.01788,0.19955l-0.05092,0.14588l0.02614,0.12938l-0.29589,-0.14175l-0.36195,-0.02478l-0.24084,0.06468l-0.11147,0.08258l-0.19955,0.27387l-0.22845,0.23808l-0.26149,0.52572l-0.06881,0.32754l0.08395,0.13487l0.12937,0.05367l0.14175,0.24359l0.12111,0.02891l0.40049,0.33167l-0.05781,0.04267l-0.73079,0.00137l-0.47066,-0.07707l-0.26424,-0.01377l-0.13487,-0.11147l-0.34268,-0.01788l-0.14725,-0.10322l-0.4803,0.04129l-0.27387,-0.02615l-0.32066,0.06881l-0.30552,-0.08258l-0.21057,0.05643l-0.20643,0.12248l-0.18442,0.04267l-0.3413,-0.10322l-0.14313,0.02202l-0.15139,-0.15689l-0.22571,-0.00688l-0.33855,-0.14725l-0.12387,-0.16653l-0.20368,0.03028l-0.03992,-0.3413l-0.10873,-0.14863l-0.19266,-0.08257l-0.12661,0.07569l-0.36057,-0.07155l-0.15002,-0.13487l-0.3881,0.02752l-0.86151,0.1624l-0.68536,0.22983l-0.5271,0.2546l-0.18442,0.15276l-0.30689,0.15827l-0.11835,-0.01514l-0.65096,0.34681l-0.66609,0.45966l-0.76931,0.56839l-0.46241,0.37984l-0.35506,0.33167l-0.278,-0.18442l-0.14726,-0.21194l-0.25873,-0.22571l-0.16651,-0.06607l-0.26149,-0.23808l-0.15552,-0.0867l0.07294,-0.12248l-0.15413,-0.19542l-0.00276,-0.17341l-0.09083,-0.12937l-0.03441,-0.2546l0.06056,-0.11973l0.00276,-0.20643l-0.2202,-0.20092l0.00413,-0.12798l-0.23671,-0.26287l-0.13349,-0.08119l-0.10734,0.10872l-0.18028,-0.25048l0.10184,-0.54637v-0.1968l0.20782,-0.26561l0.2023,-0.04403l0.03303,-0.26149l0.18028,-0.18578l-0.03853,-0.66335l0.10183,-0.18579l0.10596,-0.07155l0.08946,-0.42237l-0.10047,-0.09056l0.13487,-0.34709l-0.00137,-0.17174l0.17753,-0.12235l0.03853,-0.19915l0.05367,-0.16968l-0.0922,-0.07707l0.0523,-0.24828l0.08257,-0.02161l0.03578,-0.3369l0.24496,-0.22227l0.09909,-0.03138l-0.03715,-0.43352l0.01789,-0.113l0.27524,0.12124l0.24084,-0.32933l0.11561,-0.1006l0.11973,0.02119l0.21331,-0.34061l0.14313,-0.08602l0.20093,-0.21703l0.16651,0.05339l0.06194,-0.12248l0.18992,-0.12221l0.2023,-0.21153l0.24359,-0.06138l0.33992,-0.20506l0.02477,-0.10927l0.22983,-0.19611l-0.06605,-0.07432l0.09772,-0.30456l-0.04679,-0.31474l-0.12661,0.01899l-0.17065,-0.14423l-0.0523,-0.14712l0.06331,-0.11518l-0.0867,-0.30346l0.29589,0.07459l0.27386,-0.0618l0.35232,-0.20176l0.16653,-0.30414l-0.08946,-0.20135l0.14863,-0.25418l0.19405,-0.02752l0.33992,0.08477l0.1624,-0.10225l0.02615,-0.18249l0.10597,-0.08038l0.29451,0.11066l0.23671,0.27676l0.12937,-0.21263l0.14863,-0.06056l0.07707,0.08368l0.20919,-0.00606l0.3413,0.1712l-0.08946,0.1101l-0.07157,0.36279l-0.0578,0.12414l0.0867,0.15015l-0.11835,0.12524l0.10459,0.21304l0.17341,0.01597l0.15139,0.22404l0.24359,0.03895l0.29589,0.09649l0.15276,-0.06358l0.03578,0.13144l0.1968,0.11451l0.33855,-0.04129l0.32617,0.57982l0.23533,-0.00564l0.07982,0.09702l0.44727,-0.29218l-0.00826,-0.17078l0.139,-0.15746l0.15414,0.09606l0.44727,0.14326l0.1679,0.13005l0.1624,-0.02491l0.1569,0.15263l-0.00963,0.13005l0.11146,0.06427l0.20369,-0.01018l-0.13349,-0.38397l0.37846,-0.22253l0.0399,-0.55435l0.22983,-0.24608l-0.04129,-0.32657l0.06331,-0.13474l-0.08258,-0.23148l0.28075,-0.01528l-0.2078,-0.36993l-0.08532,-0.2341l-0.10183,-0.11244l-0.16377,-0.29905l0.24772,-0.27154l0.0922,-0.16363l0.15827,-0.00593l0.32891,0.12607l0.7473,0.44672l1.05144,1.1603l-0.91106,0.83345"></path></g></g></svg>