<svg version="1.1" xmlns="http://www.w3.org/2000/svg" xmlns:xlink="http://www.w3.org/1999/xlink" width="5.04307" height="5.52269" viewBox="0,0,5.04307,5.52269"><g transform="translate(-169.10545,-208.90712)"><g fill="#ff0000" fill-rule="evenodd" stroke="#ffffff" stroke-width="0" stroke-linecap="round" stroke-linejoin="round" stroke-miterlimit="10"><path d="M174.14852,213.83955l-0.09223,0.03075l-0.15495,0.27913l-0.04304,0.13281l-0.1943,0.11559l-0.12543,0.00861l-0.15126,-0.0209l-0.42794,0.04427l-0.20782,-0.36153l0.14141,-0.10576l-0.06148,-0.091l-0.16478,-0.03935l-0.21766,0.01352l-0.06887,0.22748l-0.15003,-0.0086l-0.08116,-0.10576l-0.26563,-0.12297l-0.29389,-0.00246l-0.18077,0.06641l-0.19061,-0.10698l-0.38243,-0.06886l-0.13158,-0.0455l-0.20536,-0.182l-0.13527,0.07993l-0.25454,-0.00861l-0.11436,-0.2816l-0.17585,-0.19553l-0.02706,-0.10576l-0.11436,-0.09223l-0.22258,-0.40826l-0.02214,-0.16601l-0.08116,-0.08239l0.10206,-0.15618l0.14388,0.06271l0.16847,-0.08977l-0.02214,-0.15126l-0.11068,-0.21274l-0.20044,-0.19307l0.10945,-0.16356l-0.11928,-0.11559l-0.17585,-0.03935l-0.14141,-0.19676l0.06271,-0.18446l-0.04795,-0.06641l0.08977,-0.28529l0.12789,-0.03566l-0.06148,-0.11682l0.01721,-0.34801l0.05657,-0.05042l0.22504,-0.01353l0.08116,-0.05902l0.2398,-0.07009l-0.03935,-0.08977l0.05533,-0.09469l0.12297,-0.06764l0.20905,0.0209l0.04427,-0.48205l0.15987,0.04673l0.11068,-0.14141l0.2029,-0.03566l0.07625,0.15495l0.2447,0.06887l0.16478,0.27791l0.08238,0.19922l0.21398,0.05411l0.23732,0.01598l0.13158,-0.11559l0.05902,-0.1365l0.14388,0.01967l0.12543,0.07255l0.09346,0.14388l-0.03689,0.0787l0.07624,0.45253l0.1033,0.09592l0.15863,0.06394l0.25331,-0.03075l0.09469,-0.14511l0.14879,0.00615l0.02214,0.29883l0.04058,0.14757l0.07379,0.08116l-0.03566,0.15987l0.08608,0.10206l0.08854,0.18938l-0.091,0.16724l0.13035,0.12051l-0.03197,0.11929l0.22012,0.07132l-0.02951,0.14388l-0.09592,0.17831l0.06149,0.1574l0.18692,0.26192l0.04919,0.16971l0.01721,0.21397l-0.04303,0.12666l0.16109,0.28651l-0.0246,0.1033l0.04795,0.18077l0.06272,0.06026l-0.02706,0.14634l0.11314,0.05411l0.0332,0.11559"></path></g></g></svg>