<svg version="1.1" xmlns="http://www.w3.org/2000/svg" xmlns:xlink="http://www.w3.org/1999/xlink" width="12.28306" height="6.70274" viewBox="0,0,12.28306,6.70274"><g transform="translate(-207.65004,-202.68496)"><g fill="#ff0000" fill-rule="evenodd" stroke="#ffffff" stroke-width="0" stroke-linecap="round" stroke-linejoin="round" stroke-miterlimit="10"><path d="M219.72373,206.81682l-0.12266,-0.07433l-0.12266,0.07682l-0.04336,0.19204l-0.16973,0.01734l-0.28619,0.07806l-0.10655,-0.27381l-0.16849,0.01858l-0.18584,0.09044l-0.06566,-0.06566l-0.17222,-0.05204l-0.10408,0.01612l-0.12514,-0.11152l-0.22424,0.07186l-0.06319,-0.01734l-0.11026,0.20566l-0.54019,-0.05452l-0.29239,0.06689l0.00247,0.08797l-0.14744,0.06939l-0.07062,-0.02354l-0.22301,0.13256l-0.15859,0.0161l-0.14868,0.11026l-0.17593,-0.14124l-0.15362,0.12513l-0.13009,0.00247l-0.06319,0.19328l-0.10035,0.09293l-0.0508,-0.12514l-0.29983,-0.03717l-0.1623,0.03346l-0.21807,0.11151l0.09416,0.24284l-0.2131,0.0384l-0.19328,0.12266l-0.19452,-0.06815l-0.16479,0.11646l-0.05452,0.11399l-0.10035,0.06442l-0.20567,-0.05575l-0.15983,0.057l-0.1239,0.12143l-0.18214,0.07062l-0.18708,-0.03469l-0.1239,0.16479l-0.08549,-0.02973l-0.35931,0.1747l-0.12018,-0.01115l-0.08673,0.09912l-0.25399,0.09788l-0.20319,-0.00124l-0.10902,-0.22054l-0.33823,0.02973l-0.10779,0.08921l0.01982,0.19699l-0.06442,0.1747l-0.07682,0.06939l-0.20319,-0.02229l-0.14992,0.13753l-0.14495,-0.0446l-0.06319,-0.11895l-0.29239,-0.057l-0.07433,-0.19452l-0.15982,-0.22921l-0.11895,-0.05204l-0.06442,-0.10532l-0.12637,0.0062l-0.13256,0.11026l-0.36178,0.01611l-0.15859,-0.09044l-0.24284,0.08797l-0.09912,-0.00496l-0.09912,-0.16479l-0.13877,-0.04833l-0.33823,0.01858l-0.08426,-0.09663l-0.2131,-0.03346l-0.18337,-0.17593l-0.02725,-0.17097l0.01487,-0.05947l0.19824,-0.10902l-0.04213,-0.15115l0.0384,-0.0954l0.12762,-0.09912l-0.02849,-0.14124l-0.11274,-0.10902l0.19948,-0.16478l-0.06815,-0.1685l0.06566,-0.10655l-0.14991,-0.11646l0.04708,-0.09167l-0.09416,-0.24161l0.11399,-0.16602l-0.07682,-0.13256l0.11151,0.00247l0.1462,-0.08177l0.10532,0.03718l0.15488,-0.10407l0.02229,-0.21186l0.07309,-0.11522l0.25399,-0.15115l0.17222,-0.23292l0.27133,-0.14867l0.18337,0.15362l0.23541,-0.08549l0.03345,-0.24655l0.15239,-0.09044l0.10037,0.04213l0.15611,-0.13753l0.15239,0.05947l0.31965,-0.12018l0.10407,0.12142l0.12762,-0.06442l0.13256,-0.14992l0.21682,-0.00744l-0.02725,0.10037l0.08426,0.09663l-0.0062,0.10779l0.15611,0.09664l0.03222,0.083l0.12266,0.01858l0.09787,0.08301l0.21063,0.04708l0.20442,-0.21187l0.14124,0.03345l0.1177,-0.19328l0.10779,-0.0508l0.02725,-0.14248l0.0954,-0.10532l0.14248,0.09541l0.11769,-0.02602l0.13256,-0.12762l0.15982,0.10037l0.34444,-0.06319l0.21062,-0.22921l-0.04956,-0.26637l0.12886,-0.18957l0.15362,-0.0446l0.18584,-0.12389l0.27257,0.05947l0.11399,-0.01239l0.20195,-0.10779l0.33205,0.01735l0.15983,-0.07309l0.1623,0.03718l0.04708,0.06939l0.18584,-0.03964l0.09912,0.13256l0.09788,-0.00744l0.07806,-0.09663l0.17222,0.06071l0.19699,0.01115l0.04833,-0.17097l0.12266,-0.01239l0.34071,0.29364l0.1016,0.02229l0.13009,-0.05203l0.10655,0.14867l0.08426,-0.01239l0.06939,-0.11646l0.10779,-0.057l-0.057,-0.2069l0.10779,-0.09168l0.02725,-0.27505l0.16107,0.03345l0.23044,-0.04708l0.14868,-0.15115l0.15735,-0.08301l0.26267,-0.02849l0.29363,-0.00124l0.22301,0.07186l0.14124,-0.23664l0.18955,-0.03717l0.00124,0.11151l0.05327,0.1239l-0.10035,0.20567l0.0508,0.1363l0.11151,0.08921l0.19328,0.06814l0.16479,0.14992l0.21682,0.01115l-0.14992,0.30354l-0.1685,0.22921l0.11522,0.11895l-0.02602,0.12513l-0.08921,-0.00867l-0.14744,0.14124l-0.03593,0.17965l0.05452,0.07186l-0.00867,0.17593l-0.1016,0.33948l-0.14,0.23541l0.06689,0.11523l-0.0508,0.14l0.02354,0.10779l0.11769,0.07309l-0.08053,0.10655v0.12018l0.10035,0.13504l0.14867,0.10779l0.19328,0.00496l0.04708,-0.12514l-0.0793,-0.06442l0.09663,-0.09912l0.1016,0.06442l0.13876,0.30727l-0.09416,0.05327l-0.11522,0.27752"></path></g></g></svg>