<svg version="1.1" xmlns="http://www.w3.org/2000/svg" xmlns:xlink="http://www.w3.org/1999/xlink" width="9.06788" height="7.96734" viewBox="0,0,9.06788,7.96734"><g transform="translate(-179.03413,-216.91013)"><g fill="#ff0000" fill-rule="evenodd" stroke="#ffffff" stroke-width="0" stroke-linecap="round" stroke-linejoin="round" stroke-miterlimit="10"><g><path d="M186.88824,220.2955l-0.12912,0.03566l-0.21889,-0.07747l-0.08608,0.03321l-0.09591,-0.06518l-0.13404,0.00984l-0.12666,0.12174l0.00984,0.17093l-0.2398,0.36522l0.06518,0.11928l-0.22504,0.11191l0.07747,0.13895l0.09837,0.03197l0.24226,0.23611l0.27422,0.07132l0.16355,0.19922l0.10453,-0.09715l0.17093,0.19922l0.1943,-0.14757l-0.0086,0.16601l0.16971,0.07747l0.15495,-0.10945l0.13035,0.00861l-0.00246,-0.18569l0.12666,0.07747l0.10453,-0.03197l0.08116,0.05533l0.14757,-0.03689l0.13404,0.07009l0.03075,0.16971l-0.1033,0.00246l-0.09961,-0.0787l-0.40457,-0.00123l-0.21151,0.08609l-0.02828,0.10822l-0.08731,0.03197l0.01599,0.22874l-0.13404,-0.0578l-0.14019,-0.14388l-0.03689,0.09469l0.01967,0.26684l0.10207,-0.04673l0.12543,0.10084l-0.11313,0.19676l-0.10822,0.11068l-0.04182,0.11191l-0.08854,-0.01352l-0.17585,0.24347l-0.09223,0.02706l0.10576,0.38489l0.18323,-0.08977l0.11682,-0.11191l-0.09715,-0.10698l0.08731,-0.09223l0.14019,0.1156l0.12543,0.0209l-0.00123,0.14757l-0.26807,0.15495l-0.17585,0.19799l-0.00368,0.15863l-0.10206,-0.03689l0.03689,-0.11436l-0.14757,-0.08731l-0.09837,0.0578l0.03075,0.10576l-0.15126,0.182l-0.20291,-0.01598l-0.16478,-0.11068l-0.08485,-0.13158l-0.13528,-0.01721l-0.03935,0.1943l-0.1525,0.05902l0.05165,0.08854l-0.09837,0.11314l0.12912,0.14511l-0.08239,0.10576l0.00984,0.08609l0.14634,0.04795l-0.15003,0.0787l-0.14757,0.00492l-0.17831,0.06148l-0.03566,-0.17093l0.0701,-0.12174l-0.06764,-0.30618l0.06149,-0.19799l0.13281,-0.22873l-0.01598,-0.22504l-0.13158,0.05287l-0.16724,-0.02705l-0.12297,-0.14879l-0.21889,0.11314l-0.23242,-0.08485l-0.00615,-0.08363l-0.22748,-0.04795l-0.18077,0.00738l-0.22627,0.07747l-0.05657,0.22258l-0.03935,0.27176l-0.11805,0.09469l-0.07132,0.25331l-0.19922,-0.01598l-0.24595,0.091l-0.34431,-0.04919l-0.09346,0.0209l-0.18938,-0.06149l-0.091,0.0209l-0.34185,-0.01476l-0.13404,0.19182l-0.12666,0.09961l-0.40088,-0.06763l-0.29758,-0.15863l-0.04427,-0.06641l0.02828,-0.23242l0.08239,-0.15617l-0.29635,-0.22012l-0.20905,-0.29758l-0.27301,0.10453l-0.21151,0.00615l-0.07009,0.15002l-0.1242,0.09347l-0.25825,-0.02214l-0.2693,0.05902l-0.17708,0.08854l-0.18815,-0.10698l0.0246,-0.091l-0.04304,-0.16233l0.03197,-0.06026l0.15372,-0.02828l0.30496,-0.19182l0.12297,-0.20782l-0.10945,-0.08362l0.15618,-0.2066l-0.01598,-0.25087l-0.07747,-0.14879l0.09837,-0.19676l-0.03075,-0.10084l0.11682,-0.09592l0.0123,-0.18938l0.17462,-0.29145l-0.06518,-0.5091l-0.13527,-0.07993l-0.13527,-0.02706l-0.06887,-0.10084l-0.09715,0.01476l-0.04673,-0.19922l0.14141,-0.02706l0.14879,-0.28899l-0.07993,-0.13773l0.10453,-0.07132l-0.06148,-0.09961l0.07624,-0.14511l0.1611,-0.14634l0.06025,0.18815l0.21028,-0.12912l0.04058,-0.08116l0.12912,0.0455l0.02828,0.15618l0.10698,0.11191l0.1156,0.02706l0.2447,-0.08485l0.08854,-0.1611l-0.06763,-0.07009l0.13773,-0.11929l0.17585,-0.03935l0.24841,-0.20414l0.15126,-0.01476l0.06025,0.09469l0.10945,0.01598l0.0787,0.11806l0.16109,0.06641l0.07501,-0.06887l0.1365,-0.00369l0.28529,0.18077l0.15987,0.04426l0.06271,0.07132l0.182,-0.09469l-0.00246,0.14511l-0.091,0.182l0.00246,0.19059l0.07256,0.05287l-0.01106,0.18692l-0.15003,0.08977l-0.11313,-0.06148l-0.06887,0.24347l0.04304,0.13404l0.10576,0.1156l0.08731,0.24349l0.07624,0.08239l0.06025,0.23365l0.10576,0.18446l0.13035,-0.00984l0.1574,-0.08854l0.09469,-0.11436l0.2398,-0.07501l0.15741,0.03566l0.21274,-0.05533l0.11682,0.02706l0.2693,-0.13404l-0.10207,-0.35661l0.08485,-0.10698l0.04795,-0.17217l0.08977,-0.06271l0.00738,-0.12913l0.13281,0.04427l0.13528,-0.0086l0.08731,0.06025l0.15495,-0.15495l0.20168,-0.03197l0.47466,0.00123l0.22012,-0.21766l0.13281,-0.00369l0.23857,-0.11436l0.15987,0.08854l0.0787,-0.04673l0.19061,0.11928l0.17954,-0.09961l0.00861,-0.05533l0.18077,-0.08608l0.05042,0.13404l-0.257,0.17585"></path><path d="M186.34718,221.05791l-0.20168,0.16601l-0.17339,0.0209l0.0123,-0.13895l0.14388,-0.09715l-0.06395,-0.18077l0.1943,-0.05657l-0.00615,0.16478l0.09469,0.12174"></path><path d="M187.9335,221.67276l-0.04795,-0.1365l0.07625,-0.05042l0.01844,-0.14019l0.0578,0.20291l-0.10452,0.1242"></path><path d="M185.96597,224.39041l-0.0332,-0.17217l0.182,0.1611l-0.14879,0.01107"></path></g><path d="M186.32258,216.93841l0.20905,-0.02828l-0.13895,0.11436l-0.0701,-0.08609"></path></g></g></svg>