<svg version="1.1" xmlns="http://www.w3.org/2000/svg" xmlns:xlink="http://www.w3.org/1999/xlink" width="169" height="169" viewBox="0,0,169,169"><defs><radialGradient cx="240" cy="180" r="84.5" gradientUnits="userSpaceOnUse" id="color-1"><stop offset="0" stop-color="#ffffff" stop-opacity="0.13333"></stop><stop offset="1" stop-color="#ffffff" stop-opacity="0"></stop></radialGradient></defs><g transform="translate(-155.5,-95.5)"><g stroke-miterlimit="10"><path d="M155.5,180c0,-46.66806 37.83194,-84.5 84.5,-84.5c46.66806,0 84.5,37.83194 84.5,84.5c0,46.66806 -37.83194,84.5 -84.5,84.5c-46.66806,0 -84.5,-37.83194 -84.5,-84.5z" fill="url(#color-1)" fill-rule="nonzero" stroke="#000000" stroke-width="0" stroke-linecap="butt" stroke-linejoin="miter"></path><path d="M176.99212,180.00002v0c0,-34.79828 28.2096,-63.00788 63.00788,-63.00788v0v0c16.71072,0 32.73702,6.63831 44.55331,18.45459c11.81626,11.81628 18.45456,27.84259 18.45456,44.55329v0v0c0,34.79828 -28.20956,63.00787 -63.00787,63.00787v0v0c-34.79828,0 -63.00788,-28.20959 -63.00788,-63.00787z" fill="#56a9a1" fill-rule="evenodd" stroke="none" stroke-width="1" stroke-linecap="square" stroke-linejoin="miter"></path><path d="M187.92829,179.99128v0c0,-28.7536 23.30939,-52.06299 52.06299,-52.06299v0v0c13.80799,0 27.05038,5.48517 36.81408,15.2489c9.76373,9.76373 15.2489,23.00611 15.2489,36.8141v0v0c0,28.7536 -23.30939,52.06299 -52.06299,52.06299v0v0c-28.7536,0 -52.06299,-23.30939 -52.06299,-52.06299z" fill="#78e6dc" fill-rule="evenodd" stroke="none" stroke-width="1" stroke-linecap="square" stroke-linejoin="miter"></path><path d="M264.29918,141.73705v6.0849l-20.70013,23.47308h-0.00003c0.01322,-0.00006 0.02646,-0.00006 0.03968,-0.00006c4.06842,0 7.71231,0.94342 10.93167,2.8302c3.21936,1.88678 5.7901,4.53424 7.71228,7.94226c1.92218,3.39624 2.88327,7.34082 2.88327,11.8338c0,4.78772 -1.14386,9.00946 -3.43161,12.66516c-2.27597,3.65564 -5.40686,6.51533 -9.39273,8.57905c-3.98587,2.06366 -8.62033,3.09552 -13.90338,3.09552c-4.92926,0 -9.40454,-0.9198 -13.42578,-2.75946c-4.02124,-1.85144 -7.41159,-4.55188 -10.17102,-8.10144l6.96936,-6.95166c1.66275,2.53534 3.93869,4.54596 6.82788,6.03186c2.90094,1.48584 6.12619,2.22876 9.67575,2.22876c3.33728,0 6.22055,-0.63086 8.64981,-1.8927c2.42926,-1.27356 4.34552,-3.06604 5.74884,-5.37738c1.4151,-2.32312 2.12265,-5.01184 2.12265,-8.06611c0,-3.11322 -0.70755,-5.8078 -2.12265,-8.08374c-1.40332,-2.28772 -3.37265,-4.04486 -5.90805,-5.27124c-2.5354,-1.23822 -5.54248,-1.85736 -9.02127,-1.85736c-1.30896,0 -2.61795,0.09436 -3.92691,0.28302c-1.29718,0.17694 -2.56488,0.44812 -3.80307,0.81372v-6.1911l19.49491,-22.1817h-31.11643v-9.12738z" fill="#1b3e3a" fill-rule="evenodd" stroke="none" stroke-width="1" stroke-linecap="square" stroke-linejoin="miter"></path><path d="M264.29918,141.73705v6.0849l-20.70013,23.47308h-0.00003c0.01322,-0.00006 0.02646,-0.00006 0.03968,-0.00006c4.06842,0 7.71231,0.94342 10.93167,2.8302c3.21936,1.88678 5.7901,4.53424 7.71228,7.94226c1.92218,3.39624 2.88327,7.34082 2.88327,11.8338c0,4.78772 -1.14386,9.00946 -3.43161,12.66516c-2.27597,3.65564 -5.40686,6.51533 -9.39273,8.57905c-3.98587,2.06366 -8.62033,3.09552 -13.90338,3.09552c-4.92926,0 -9.40454,-0.9198 -13.42578,-2.75946c-4.02124,-1.85144 -7.41159,-4.55188 -10.17102,-8.10144l6.96936,-6.95166c1.66275,2.53534 3.93869,4.54596 6.82788,6.03186c2.90094,1.48584 6.12619,2.22876 9.67575,2.22876c3.33728,0 6.22055,-0.63086 8.64981,-1.8927c2.42926,-1.27356 4.34552,-3.06604 5.74884,-5.37738c1.4151,-2.32312 2.12265,-5.01184 2.12265,-8.06611c0,-3.11322 -0.70755,-5.8078 -2.12265,-8.08374c-1.40332,-2.28772 -3.37265,-4.04486 -5.90805,-5.27124c-2.5354,-1.23822 -5.54248,-1.85736 -9.02127,-1.85736c-1.30896,0 -2.61795,0.09436 -3.92691,0.28302c-1.29718,0.17694 -2.56488,0.44812 -3.80307,0.81372v-6.1911l19.49491,-22.1817h-31.11643v-9.12738z" fill="none" fill-rule="evenodd" stroke="#1b3e3a" stroke-width="2" stroke-linecap="butt" stroke-linejoin="round"></path></g></g></svg>