<svg version="1.1" xmlns="http://www.w3.org/2000/svg" xmlns:xlink="http://www.w3.org/1999/xlink" width="50.20214" height="38.76266" viewBox="0,0,50.20214,38.76266"><g transform="translate(-358.1381,-11.76825)"><g fill="#ff0000" fill-rule="evenodd" stroke="#ffffff" stroke-width="0" stroke-linecap="round" stroke-linejoin="round" stroke-miterlimit="10"><g><path d="M379.97334,44.11792l0.11147,-0.03701l0.16377,0.11945l-0.03302,0.10983l0.19405,0.04005l0.43351,0.53508l0.33717,0.20299l-0.07569,0.09786l-0.1569,0.01555l0.03853,0.21263l-0.10047,0.2513l-0.08119,-0.09949l-0.18442,-0.06854l-0.23808,0.15759l-0.26149,-0.06234l-0.22845,0.16198l0.1156,0.19006l-0.50094,0.08656l-0.12799,0.1434l0.06331,0.19845l-0.15552,0.22598l-0.12248,-0.04253l-0.18028,0.17932l-0.3647,0.03262l-0.00551,0.20534l-0.1624,0.06715l-0.27111,-0.25061l-0.14313,0.06508l-0.11284,0.19116l0.05092,0.27842l-0.14588,0.08038v0.13487l-0.37984,-0.0596l-0.25185,-0.19253l-0.15964,-0.38396l0.03165,-0.31515l-0.12248,0.00578l-0.07155,0.17424l-0.24222,-0.01788l0.03853,-0.18539l0.2133,-0.17822l-0.02203,-0.20382l-0.15276,-0.09606l-0.13625,-0.36277l0.1624,-0.1229l0.1789,-0.21221l0.24359,0.03275l0.30689,-0.08725l0.17203,-0.10019l0.26699,0.0512l0.56013,-0.22446l-0.02341,-0.14175l0.40049,-0.25365l0.24084,-0.21083l0.08532,-0.12991l0.2725,0.13171l0.16513,-0.02561l0.23534,0.07294l-0.05504,-0.37159l0.18716,-0.01541"></path><path d="M370.82141,32.0126l0.03715,0.1668l0.1968,0.07418l0.20506,0.26411l0.37709,0.17767l0.18579,0.51485l0.22433,0.06991l0.12523,0.17341l0.19405,-0.00578l0.05917,0.1661l0.40599,0.11284l0.26286,0.1229l0.07982,0.09289l0.19543,0.00854l0.62756,-0.09592l0.55324,0.05931l0.53673,-0.04335l0.4404,-0.10129l0.50784,-0.20547l0.08808,-0.16873l0.2601,-0.10542l-0.26837,0.46516l-0.09358,0.37916l-0.13763,0.25116l-0.01238,0.27154l-0.1913,0.09675l-0.04679,0.12745l-0.20506,0.0578l-0.14863,0.22501l-0.14038,-0.08862l-0.23808,-0.26988l-0.13349,-0.08711l-0.36883,0.04653l-0.52572,0.29437l-0.30828,0.40792l0.01927,0.15097l-0.0867,0.19818l-0.15963,-0.00537l-0.09084,0.21717l-0.2133,0.14739l-0.34956,0.30415l-0.08257,0.19061l-0.32066,-0.00166l-0.1266,0.05147l-0.36884,0.04693l-0.16513,-0.04156l-0.6482,0.07418l-0.12111,-0.04747l-0.35094,0.13336l-0.23808,-0.03702l-0.29589,0.13378l-0.29589,0.26589l-0.19955,0.22267l-0.1624,0.28213l-0.10184,0.43627l-0.10734,0.24951l-0.18579,-0.00826l-0.05092,0.13362l-0.32891,0.10789l-0.28213,0.05216l-0.19266,0.30593l-0.11835,-0.06495l-0.16653,0.0629l-0.22295,0.2634l-0.09634,0.05849l-0.2202,0.29204l-0.09358,0.24263l0.06881,0.14326l-0.1968,0.13114l-0.12798,0.15496l-0.02202,0.19915l-0.11147,0.1039l-0.10459,0.43447l0.0399,0.47659l-0.18304,0.02215l0.02752,-0.15689l-0.31103,-0.02216l-0.12661,0.08863l-0.17341,0.25116l-0.10734,0.30498l-0.1624,0.33608l-0.04129,0.20369l0.01651,0.38328l-0.10873,0.13516l-0.03715,0.18882l-0.18442,-0.00591l-0.60417,0.35052l-0.2546,0.08987l-0.2023,-0.02229l-0.2023,0.08835l-0.19543,-0.10171l-0.28764,0.1606l-0.19542,0.3636l-0.11284,-0.01885l-0.1624,0.31172l-0.18165,-0.02271l-0.08258,0.13625l-0.13074,0.39897l-0.00688,0.28007l-0.05506,0.28502l-0.02202,0.33388l0.03578,0.30429l-0.03715,0.35589l-0.12111,0.67105l-0.01377,0.43144l-0.06605,0.30773l-0.00413,0.28557l-0.08395,0.27126l-0.13625,0.04376l-0.04542,-0.32273l0.03716,-0.37586l0.07707,-0.22337l0.10047,-0.54443l-0.32754,-0.07858l-0.4858,0.03647l-0.18165,0.07804l-0.4225,0.06784l-0.19542,0.08477l-0.16515,-0.32451l-0.04403,-0.26382l0.10046,-0.29562l0.00826,-0.24565l-0.13899,-0.51348l-0.10597,-0.25722l-0.13212,-0.14023l0.11284,-0.2769l0.46792,-0.15303l0.30966,-0.74027l0.13348,-0.17795l0.17203,-0.11877l0.19955,-0.05284l0.46516,-0.26699l-0.00826,-0.14092l0.26286,-0.13088l0.06056,-0.10115l0.35645,-0.11877l0.10459,-0.09096l0.05367,-0.30139l0.24909,-0.16653l0.24496,-0.21291l0.14726,-0.02614l0.19543,-0.28571l0.29451,-0.14876l0.05781,-0.09249l-0.03716,-0.17244l0.27663,-0.13996l0.26149,-0.08822l0.26149,-0.1807l0.15964,-0.26602l-0.07018,-0.59784l0.02065,-0.23382l0.13626,-0.0984l0.21745,-0.38865l0.11147,-0.08134l0.13625,-0.28653l0.17203,-0.1657l0.24222,-0.15992l0.27111,-0.31833l0.24359,-0.37157l0.07981,-0.3391l0.139,-0.16143l0.2023,-0.38164l0.68673,-0.59701l0.14863,-0.00908l0.10459,-0.24125l0.13899,-0.07294l0.07155,-0.13816l0.2546,-0.30869l0.16927,-0.33608l0.00963,-0.2173l0.12387,-0.46283l-0.05506,-0.16776l0.24084,-0.19542l0.06468,-0.15l0.31377,-0.37213l0.28764,-0.63417l0.13626,-0.45526l0.25048,-0.26079l0.11697,-0.05037l0.28762,-0.3413l0.17617,-0.06345l0.23395,-0.00937l0.10459,-0.11216"></path><path d="M406.41075,11.76825l0.40049,0.07128l0.40049,0.01128l0.63032,0.24125l0.21745,0.17094l0.23671,0.2733l0.04403,0.16102l-0.03165,0.44618l-0.2202,0.24221l-0.26837,0.09896l-0.31929,0.19735l-0.07707,0.36195l0.03303,0.24868l0.32617,0.17424l0.10873,0.20836l0.19956,0.22693l0.011,0.18566l-0.26149,0.39787l-0.06605,0.19749l-0.11698,0.05161l0.07019,0.17712l-0.07982,0.17643l-0.3413,-0.02669l-0.24772,0.06138l-0.31653,0.24043l-0.29176,-0.21648l-0.21331,-0.07569l-0.1968,0.06234l-0.19266,-0.03578l-0.26287,0.04747l-0.18854,-0.02105l-0.40186,0.07294l-0.09083,-0.0706l-0.29178,0.07514l-0.11973,0.12042l-0.24634,0.12648l-0.29726,0.03468l-0.14175,0.08905l-0.27937,0.30525l-0.16102,0.07047l-0.18992,0.24676l-0.1679,0.02546l-0.09083,0.20616l0.03302,0.14355l-0.12661,0.08422l-0.09496,-0.08684l-0.21606,0.0567l-0.21745,0.17505l-0.15414,-0.08271l-0.3248,0.17602l-0.23258,0.24098l-0.14863,-0.02848l-0.0922,0.08024l-0.82987,0.14245l-0.39635,0.20396l-0.23397,0.20025l-0.19956,0.25378l-0.3248,0.09069l-0.34955,0.28791l-0.01514,0.12372l-0.1968,0.09303l-0.0922,0.17491l-0.34681,0.04267l-0.32066,0.22321l-0.16653,0.17451l-0.13625,0.04252l-0.31103,0.22748l-0.45002,0.51292l-0.16377,0.37667l-0.1913,0.03399l-0.45141,0.57953l-0.37846,0.6482l-0.39774,0.11712l-0.08258,0.1207l-0.15414,0.03523l-0.11834,0.12235l-0.10184,0.23601l-0.19955,0.17134l-0.12111,-0.01927l-0.07294,-0.13144l-0.16514,0.12841l-0.10322,-0.0655l-0.27387,0.00166l-0.52847,0.26272l-0.37847,0.08215l-0.12937,-0.05422l-0.43902,-0.30498l-0.2202,-0.28942l0.02615,-0.27538l-0.04403,-0.1489l-0.27524,-0.06991l-0.28213,0.02312l-0.43076,0.21414l-0.31653,0.32341l-0.19955,0.32673l-0.06744,0.2319l0.00551,0.21883l0.32341,0.22227l0.20643,0.03482l-0.01238,0.13404l-0.13212,0.06275l-0.3881,0.66692l-0.19268,0.29039l-0.01788,0.22681l-0.17203,0.21262l-0.26836,0.25212l-0.20093,0.2579l-0.22157,-0.00811l-0.25048,0.07252l-0.2725,0.25145l-0.01927,0.24758l-0.11835,0.11327l-0.32617,0.02546l-0.31103,0.14272l-0.08808,0.13501l-0.12387,-0.00041l-0.17753,0.10927l-0.19542,0.20672l-0.17203,0.06812l-0.14863,0.25116l-0.19955,0.20809l-0.32341,0.13789l-0.39361,0.6244l-0.09358,0.28034l-0.24496,0.1796l-0.24222,0.42953l-0.08532,0.4664l-0.11147,0.24511l-0.24496,0.13198l-0.34544,0.38782l-0.22845,0.01872l-0.51058,0.2301l-0.30415,-0.01212l-0.31929,-0.1573l-0.25874,0.10183l-0.21469,0.15317l-0.33717,0.35299l-0.30828,0.36553l-0.31103,0.55131l-0.01101,0.13611l-0.22845,0.47329l-0.06331,0.26106l-0.23671,0.17134l-0.0867,0.12111l-0.17341,0.07294l-0.23397,-0.06895l-0.30552,0.01445l-0.59454,-0.2802l-0.07844,-0.25295l0.10322,-0.29286l0.13625,-0.54554l0.28626,-0.39622l0.3303,-0.07294l0.21194,-0.18951l0.20919,-0.28845l0.03028,-0.13859l-0.2078,-0.38066l-0.09496,-0.08546l-0.01514,-0.17891l0.06468,-0.11354l-0.00688,-0.20272l0.14863,-0.4287l0.14588,0.33662l0.04129,0.30979l0.24772,0.31763l0.19405,0.05614l0.1789,-0.11327l0.30002,-0.34034l0.10183,-0.39442l-0.04129,-0.15249l0.03302,-0.22638l-0.23945,-0.12207l-0.16378,-0.2041l0.06607,-0.09977l0.27111,-0.03138l0.14588,0.08795l0.11423,-0.03302l0.19266,0.10626l0.12524,0.16156l0.04817,0.16308l0.26423,-0.0172l0.20368,-0.06992l0.30139,-0.20603l0.21193,-0.29479l0.26424,-0.29548l0.19955,-0.10363l0.09634,-0.17437l0.1156,-0.3369l0.08119,-0.53356l-0.01651,-0.19887l-0.12248,-0.24896l-0.27937,0.03111l-0.12661,-0.11203l-0.28764,0.02518l-0.36057,-0.218l-0.17341,-0.42787l-0.01377,-0.26493l0.10047,-0.13762l0.34956,-0.1485l0.3647,0.21993l0.1445,-0.00606l0.24772,0.282l0.07294,0.13638l0.19955,-0.0073l0.28488,-0.0977l0.23397,-0.1423l0.10597,-0.45237l0.14726,-0.29988l-0.00276,-0.30098l0.13348,-0.16418l0.83813,-0.32026l0.67711,-0.43323l0.17615,-0.15235l0.17478,-0.26671l0.1445,-0.10171l0.47205,-0.65055l0.48581,-0.35699l0.24634,0.01472l0.14588,-0.15676l-0.04817,-0.19199l0.02477,-0.25322l-0.04954,-0.08629l0.16789,-0.44768l-0.00688,-0.24166l0.09084,-0.27676l0.02477,-0.2133l-0.07155,-0.2674l-0.28625,-0.16129l0.00826,-0.15249l0.41425,0.17932l0.2023,-0.07197l0.26974,0.10307l-0.02339,0.14863l0.12387,0.17864l0.17065,0.08148l0.43764,0.03055l0.05506,0.10047l0.16102,0.02326l0.17478,-0.06524l0.18167,-0.14368l0.34956,-0.169l0.11284,-0.18359l-0.03028,-0.27511l0.04679,-0.10019l-0.09634,-0.18909l0.01377,-0.17203l0.1156,-0.07267l0.07431,-0.20727l0.00413,-0.18661l0.2725,-0.18524l0.11147,-0.36043l0.31515,-0.07239l0.11011,0.04872l0.18716,-0.2736l0.23809,0.01734l0.25874,-0.16543l0.15689,-0.01692l0.15139,0.18482l0.22434,-0.06771l0.2133,-0.24689l-0.02614,-0.17767l0.18992,-0.34515l-0.02752,-0.17369l-0.18167,-0.09482l0.05506,-0.21854l-0.04679,-0.11175l0.07294,-0.27937l-0.20919,-0.44795l0.02339,-0.20836l-0.09084,-0.32286l0.04403,-0.16543l-0.08532,-0.25116l0.38672,-0.78045l0.15,-0.12744l0.22157,-0.32975l0.29176,-0.15345l0.22708,0.15207l0.05643,0.10087l0.24634,0.09372l-0.03028,0.1529l0.04679,0.33443l0.13212,0.17533l-0.07844,0.05766l0.20506,0.63953l0.23258,0.26396l-0.07844,0.15359l0.15827,0.413l-0.03853,0.14368l0.06605,0.21139l0.12661,0.02037l0.12798,0.19432l0.03165,0.16433l0.12661,0.09015l0.43076,0.13487l0.46241,0.0545l0.46516,-0.00358l0.39911,-0.03412l0.87804,-0.13362l0.57251,-0.12937l0.54637,-0.16968l0.39085,-0.16254l0.16378,-0.34392l0.42387,-0.25365l0.1445,-0.01734l0.13488,-0.13776l0.23534,-0.03578l-0.04679,-0.14286l0.38672,-0.3248l0.14313,-0.2469l0.07157,-0.21207l0.2078,-0.05037l0.06331,-0.13748l-0.13348,-0.27016l0.14863,-0.19803l0.07018,-0.20436l0.1156,-0.01528l0.24222,-0.21221l0.11697,-0.29782l0.34544,-0.08203l0.15276,-0.12798l0.02065,-0.16308l0.09772,-0.06207l0.17478,-0.39168l0.39361,-0.0373l0.10322,-0.12978l0.12798,-0.01472l0.2133,-0.19803v-0.27084l0.17341,-0.28998l0.25185,0.01335l0.55187,-0.09619l0.47343,-0.16349l0.11147,-0.13859"></path></g><path d=""></path><path d="M358.91702,49.5045l0.35094,0.15703l0.13763,0.12138l0.10873,0.18057l0.0578,0.25516l-0.06881,0.16308l-0.30002,0.14919l-0.27937,-0.02794l0.03715,-0.25749l0.37433,0.04183l0.11284,-0.16307l0.00137,-0.14795l-0.08119,-0.20079l-0.38259,-0.20396l-0.33717,0.16239l-0.1445,-0.13419l-0.07294,-0.21427l-0.29312,-0.064v-0.02532l0.77895,0.20836"></path></g></g></svg>