<svg version="1.1" xmlns="http://www.w3.org/2000/svg" xmlns:xlink="http://www.w3.org/1999/xlink" width="5.05495" height="8.75935" viewBox="0,0,5.05495,8.75935"><g transform="translate(-270.5871,-188.479)"><g fill="#ff0000" fill-rule="evenodd" stroke="#ffffff" stroke-width="0" stroke-linecap="round" stroke-linejoin="round" stroke-miterlimit="10"><path d="M275.19231,189.09958l-0.03717,0.17717l-0.14124,0.19081l-0.09912,0.04833l-0.08796,0.19948l-0.06442,0.04213l0.06319,0.18337l-0.09044,0.07433l0.06071,0.17717l-0.12142,0.19576l0.05327,0.14371l0.14867,0.03099l0.08301,-0.0793l0.09293,0.08053l-0.05204,0.56869l-0.12018,-0.01362l-0.04336,0.10655l0.13876,0.17841l-0.00373,0.1338l0.14744,0.15983l0.17097,-0.04956l0.10902,0.05947l0.05204,0.25522l0.17841,-0.03098l-0.03593,0.22797l0.04833,0.04956l-0.0954,0.22425l0.00124,0.16602l-0.0954,0.21929l0.08426,0.07186l-0.09044,0.16726l-0.17841,0.12018l-0.17222,0.02354l-0.06815,0.18461l-0.14,-0.00496l-0.12514,0.25275l-0.01362,0.19081l0.04336,0.07433l-0.2131,0.34814l-0.04956,0.23291l-0.20319,0.17594l-0.057,0.12266l-0.08301,-0.03469l-0.09044,0.08797l-0.03717,0.12266l-0.19204,0.03966l-0.08673,0.14124l0.03221,0.08053l-0.10654,0.15859l0.00496,0.12637l-0.15115,0.12514l-0.07062,0.21434l0.06319,0.41134l0.07062,0.08426l-0.09663,0.13381l-0.21682,-0.02355l-0.03593,-0.32337l-0.20815,0.1239l-0.28992,0.27628l-0.0508,0.22797l-0.10902,0.06814l-0.13753,-0.07309l-0.04833,0.15362l-0.12265,0.00496l-0.08053,0.09912l-0.0892,-0.02106l-0.26761,0.25522l-0.21559,-0.08177l-0.21929,-0.30727l-0.18957,0.07186l0.01114,-0.16353l-0.07806,-0.08673l-0.14371,-0.0161l-0.05575,-0.11522l0.15239,-0.18337l-0.07929,-0.21929l-0.26514,-0.24284l-0.16974,0.05947l0.01487,-0.18708l-0.0446,-0.07309l0.02478,-0.28868l0.06194,-0.13134l0.18214,-0.09663l-0.01115,-0.1524l0.18708,-0.07682l0.01362,-0.08176l-0.17593,-0.38408l-0.10035,-0.26637l0.01858,-0.13009l-0.06071,-0.13628l0.15115,-0.1685l-0.03966,-0.15736l0.15115,-0.07309l0.02106,-0.15239l-0.19204,-0.06442l-0.02479,-0.36177l0.1177,-0.15239l0.0892,0.00743l0.19824,-0.17097l-0.04708,-0.20442l-0.0954,-0.11522l-0.02229,-0.17593l0.17345,-0.01362l0.18832,-0.11522l0.08301,0.0384l0.13009,-0.06071l0.19824,0.07433l-0.01735,-0.44107l0.14001,-0.03469l0.11274,-0.1177l0.23169,-0.08426l0.1016,-0.13009l0.14371,-0.07062l0.19824,-0.35063l-0.11274,-0.09788l0.11026,-0.08053l-0.04708,-0.17965l0.03098,-0.17096l0.14495,-0.16107l0.16107,-0.26142l0.1276,-0.02229l0.10408,-0.29983l0.23664,-0.28619l0.0161,-0.06442l0.19948,-0.15611l0.04213,-0.14495l0.09417,-0.07433l0.02478,-0.16974l0.13009,-0.20566l0.09663,0.0062l0.09293,0.17593l-0.03345,0.14868l0.04956,0.16355l0.11399,-0.01362l0.32833,0.09912l0.08301,-0.01611l0.21434,0.07558l0.26637,-0.01858"></path></g></g></svg>