<svg version="1.1" xmlns="http://www.w3.org/2000/svg" xmlns:xlink="http://www.w3.org/1999/xlink" width="94.09828" height="45.78146" viewBox="0,0,94.09828,45.78146"><g transform="translate(-210.95086,-157.10928)"><g fill-rule="evenodd" stroke-miterlimit="10"><path d="M241.15284,170.11538c6.36528,4.3611 11.94493,8.71419 16.73893,13.05925l-2.81387,3.19867c-4.6978,-4.55351 -10.21331,-9.09899 -16.54652,-13.63646l2.62147,-2.62147zM256.71331,159.12444v3.65563h-16.40222c-0.86581,1.42698 -1.95608,3.01429 -3.27083,4.76193l-0.50505,0.69746v34.10316h-3.99233v-29.36527c-5.37121,5.82014 -11.58417,10.81456 -18.6389,14.98327l-2.45312,-3.17463c10.30952,-5.75602 18.40641,-13.09132 24.29069,-22.00593h-23.01603v-3.65563z" fill="#ffffff" stroke="none" stroke-linecap="square" stroke-linejoin="miter"></path><path d="M288.09881,161.00036v8.41757h12.6023v-8.41757zM266.62199,161.14465v11.18334h9.25933v-11.18334zM288.09881,172.66469v7.98466c0,0.40084 0,0.68143 0,0.84176h12.6023v-8.82642zM266.62199,175.52667v11.977h9.25933v-11.977zM279.58505,157.80168v33.09306h-12.96306v4.68978h-3.79993v-37.78284zM304.54914,157.60928v40.09167c0,1.29872 -0.26455,2.26873 -0.79366,2.91007c-0.65737,0.81771 -1.90798,1.22656 -3.75183,1.22656c-1.36285,0 -3.60753,-0.11224 -6.73405,-0.3367l-0.69745,-3.84804v0c2.53328,0.36877 4.67375,0.55316 6.42139,0.55316c0.88184,0 1.40293,-0.24051 1.56326,-0.7215c0.0962,-0.27258 0.14431,-0.67341 0.14431,-1.20251v-11.54409h-12.72255c-0.20843,3.57546 -0.84978,6.65388 -1.92402,9.23528c-1.21855,2.95015 -3.41512,5.75601 -6.58975,8.41756l-2.83793,-2.81387c2.26072,-1.74764 3.95225,-3.66364 5.07459,-5.74799c1.73162,-3.20669 2.59743,-7.50366 2.59743,-12.8909v-23.32869z" fill="#ffffff" stroke="none" stroke-linecap="square" stroke-linejoin="miter"></path><path d="M241.15284,170.11538c6.36528,4.3611 11.94493,8.71419 16.73893,13.05925l-2.81387,3.19867c-4.6978,-4.55351 -10.21331,-9.09899 -16.54652,-13.63646l2.62147,-2.62147zM256.71331,159.12444v3.65563h-16.40222c-0.86581,1.42698 -1.95608,3.01429 -3.27083,4.76193l-0.50505,0.69746v34.10316h-3.99233v-29.36527c-5.37121,5.82014 -11.58417,10.81456 -18.6389,14.98327l-2.45312,-3.17463c10.30952,-5.75602 18.40641,-13.09132 24.29069,-22.00593h-23.01603v-3.65563z" fill="none" stroke="#ffffff" stroke-linecap="butt" stroke-linejoin="round"></path><path d="M288.09881,161.00036v8.41757h12.6023v-8.41757zM266.62199,161.14465v11.18334h9.25933v-11.18334zM288.09881,172.66469v7.98466c0,0.40084 0,0.68143 0,0.84176h12.6023v-8.82642zM266.62199,175.52667v11.977h9.25933v-11.977zM279.58505,157.80168v33.09306h-12.96306v4.68978h-3.79993v-37.78284zM304.54914,157.60928v40.09167c0,1.29872 -0.26455,2.26873 -0.79366,2.91007c-0.65737,0.81771 -1.90798,1.22656 -3.75183,1.22656c-1.36285,0 -3.60753,-0.11224 -6.73405,-0.3367l-0.69745,-3.84804v0c2.53328,0.36877 4.67375,0.55316 6.42139,0.55316c0.88184,0 1.40293,-0.24051 1.56326,-0.7215c0.0962,-0.27258 0.14431,-0.67341 0.14431,-1.20251v-11.54409h-12.72255c-0.20843,3.57546 -0.84978,6.65388 -1.92402,9.23528c-1.21855,2.95015 -3.41512,5.75601 -6.58975,8.41756l-2.83793,-2.81387c2.26072,-1.74764 3.95225,-3.66364 5.07459,-5.74799c1.73162,-3.20669 2.59743,-7.50366 2.59743,-12.8909v-23.32869z" fill="none" stroke="#ffffff" stroke-linecap="butt" stroke-linejoin="round"></path></g></g></svg>