<svg version="1.1" xmlns="http://www.w3.org/2000/svg" xmlns:xlink="http://www.w3.org/1999/xlink" width="11.15677" height="11.15314" viewBox="0,0,11.15677,11.15314"><g transform="translate(-187.39023,-211.42714)"><g fill="#ff0000" stroke="#ffffff" stroke-width="0" stroke-linecap="round" stroke-linejoin="round" stroke-miterlimit="10"><path d="" fill-rule="evenodd"></path><path d="M197.78161,214.13913l-0.21062,-0.1016l-0.08797,0.06566l-0.21559,0.02725l-0.0508,0.09416l-0.09663,0.00744l-0.03718,0.18214l0.22921,0.12142l0.01487,0.10902l-0.05452,0.12513l0.01859,0.10284l0.11275,0.04089l-0.02973,0.1685l0.1177,0.1623l0.16602,-0.0062l0.02602,0.29983l0.04213,0.14371l0.29487,0.09044l0.20567,0.27628l0.03593,0.20072l-0.05947,0.22921l-0.1685,0.11275l-0.15362,0.03222l-0.18337,0.1747l-0.41258,0.1623l-0.08426,-0.02478l-0.21187,0.1239l-0.09168,0.00991l-0.07186,0.18214l-0.19081,0.31841l0.03717,0.10407l-0.04708,0.11399l0.05947,0.26515l-0.20443,0.09912l-0.23291,0.0062l0.0161,0.17097l-0.19948,0.31841l-0.07682,0.02229l-0.11151,0.20072l-0.14867,0.10035l-0.03469,0.13009l-0.11026,0.04087l-0.16479,-0.22424l-0.13876,-0.06566l-0.03346,-0.08176l-0.16106,-0.17594l-0.1524,-0.10283l0.01611,-0.11275l-0.20195,0.08177l-0.05575,0.17222l0.21557,0.29612l-0.0508,0.21434l0.11522,0.03469l0.11275,0.24903l0.20938,0.09788l0.07186,0.24531l-0.03221,0.17593l0.03469,0.13753l-0.1462,0.20938l0.25152,0.28124l-0.03099,0.23044l0.01858,0.16726l0.12018,0.20319l-0.06566,0.05204l0.12513,0.29859l-0.09912,0.15488l0.01239,0.19948l-0.07681,0.09788l-0.21807,0.00744l-0.1016,0.04833l0.03718,0.2069l-0.10158,-0.04336l-0.20319,0.06071l-0.39524,0.1685l-0.15983,-0.32461l0.01362,-0.06195l-0.19081,-0.10902l-0.25399,-0.01362l-0.01982,0.21187l-0.12018,-0.04336l-0.02725,-0.16974l-0.31098,-0.04336l0.04213,0.26515l-0.23417,0.18708l0.09663,0.07062l0.18955,-0.07433l0.06939,0.08921l-0.13134,0.15488l-0.19824,-0.03469l-0.12513,0.04956l-0.15859,-0.03593l-0.03593,-0.27752l-0.05947,-0.24284l0.27258,-0.00124l0.11274,-0.12639l0.03718,-0.11151l-0.16107,-0.04956l-0.1363,-0.18214l0.09787,-0.02478l0.01982,-0.10655l0.09167,-0.07433l0.06442,0.09167l-0.01611,0.21187l0.19328,-0.01982l0.0161,0.08177l0.25894,-0.04833l0.15983,0.10779l0.0446,-0.04956l-0.20567,-0.12389l-0.05947,-0.07309l-0.2639,-0.04708l-0.13134,-0.2515l0.06689,-0.16479l-0.1239,-0.10532l-0.13753,0.02106l-0.04213,-0.25522l0.05452,-0.21063l-0.24656,-0.11151l-0.07309,0.05204l-0.34691,-0.07062l-0.17345,-0.10407l-0.13133,0.04584l0.02849,0.13381l-0.07062,0.16602l-0.07062,-0.02354l0.08053,-0.16479l-0.0954,-0.1462l0.34319,-0.14744l0.04089,0.15488l0.11522,0.02849l0.23541,-0.02973l0.06939,-0.08549l0.21682,0.09044l0.08921,-0.16106l-0.06815,-0.13381l-0.13504,-0.10532l-0.02478,-0.09044l0.08301,-0.25647l-0.11026,-0.07309l-0.08797,-0.19081l0.26886,0.07682l0.13256,-0.00744l0.10283,-0.10407l0.0062,-0.1462l-0.16726,0.00496l-0.24161,-0.06442l-0.19081,0.13877l-0.12143,-0.09044l0.01115,-0.15983l-0.11151,-0.14371l0.03098,-0.16726l0.17097,-0.03222l0.09044,-0.10654l-0.13009,-0.08301l0.00991,-0.10655l-0.11399,-0.02106l-0.09416,-0.14495l-0.1363,-0.07929l-0.18957,0.1276l0.12762,0.13877l-0.1747,0.08549l-0.07186,-0.31965l0.20442,-0.00373l0.13628,-0.06566l0.35187,0.12639l0.07682,0.08177l0.01115,0.18584l0.3531,0.29487l0.1239,-0.1016l0.1623,-0.06938l0.00992,-0.14124l-0.08673,-0.25522l0.10283,-0.15611l0.18957,-0.00991l0.14248,-0.12886l0.15611,-0.04584l-0.01611,-0.12142l-0.13877,-0.01735l-0.19204,-0.2639l0.21807,-0.08549l-0.07558,-0.09417l-0.34814,0.08053l-0.03593,-0.12513l-0.25894,-0.10035l0.00247,-0.21929l0.07806,-0.07309l0.28372,-0.14495l0.14744,0.00247l0.02849,-0.1276l-0.17841,-0.09044l-0.18708,0.09168l-0.01487,-0.13877l-0.24409,0.05823l-0.11151,-0.00744l-0.07806,0.12514l-0.25152,-0.01611l-0.13381,-0.11769l-0.08176,0.22177l-0.27877,-0.07433l-0.01982,-0.10779l-0.20442,-0.06814l-0.14744,0.03717l0.07186,-0.27381l0.19452,-0.0384l0.21186,-0.20072l0.12514,-0.0161l-0.11275,-0.14495l0.05947,-0.26515l-0.3085,0.24903l-0.01239,-0.10035l-0.11151,-0.24903l0.20195,-0.1239l-0.05575,-0.06815l0.02478,-0.17222l-0.09912,-0.06566l0.11895,-0.17345l0.05824,0.05452l0.10158,-0.1623l0.00496,-0.2069l-0.08053,-0.13256l-0.18088,0.00124l0.03221,-0.26142l-0.09293,0.0384l-0.06442,0.18708l-0.16726,-0.26886l-0.14248,-0.05947l-0.03593,0.16849l-0.15859,-0.03717l-0.15611,0.03098l-0.08549,0.23788l-0.13504,-0.24284l-0.08301,-0.01982l-0.05823,0.14495l-0.17965,0.2639l-0.14497,0.01487l-0.1685,0.07186l-0.22548,0.23541l-0.20815,0.00867l-0.21557,0.14868l-0.23788,0.03346l-0.21557,0.23044l-0.1623,0.12142l-0.01239,0.19328l-0.09168,0.00247l-0.24159,0.1524l-0.27258,0.05204l0.00744,-0.17097l0.20442,-0.11522l-0.02106,-0.14372l-0.30727,0.05204l-0.12142,0.10655l-0.19452,0.05452l-0.20938,0.23664l-0.31841,0.23911l0.05327,-0.18214l0.28248,-0.28372l0.32956,-0.18957l0.06071,-0.14124l0.29115,-0.15362l0.05204,-0.09788l0.14867,-0.07558l0.14991,0.20319l0.02602,-0.21682l0.11522,0.07558l0.07062,0.13256l0.14744,-0.05823l0.05575,-0.11399l-0.22797,-0.17593l0.06195,-0.10655l0.16479,0.15859l0.08673,-0.01362l-0.05947,-0.25275l0.28001,-0.08921l0.06442,-0.07558l0.14,0.15859l0.16974,0.01362l0.01487,-0.21806l0.0892,-0.04336l0.22054,0.06939l0.11026,0.11151l0.06319,-0.09663l0.00247,-0.18088l0.09541,-0.13256l0.08549,0.03717l0.19452,-0.18337h0.1462l0.337,-0.24779l0.22797,-0.09293l0.3147,-0.23417l0.15982,-0.05327l0.05327,-0.09663l0.21929,-0.12762l0.06939,-0.00373l0.18708,-0.21807l-0.00247,-0.13256l0.10779,-0.07433l0.17096,-0.22178l0.01239,-0.09788l0.21806,-0.17841l0.04831,-0.14497l0.14371,-0.01114l0.22301,-0.19081l0.09416,0.01982l0.19328,-0.12886l0.08053,0.13256l0.19576,0.20938l0.00496,0.13381l0.08053,0.05575l0.18708,-0.23541l0.06815,-0.12637l0.22674,0.06071l0.12142,-0.23541l0.16602,-0.18584l0.11274,0.00867l0.09044,-0.07186l0.15982,0.03964l0.03346,0.19699l-0.04584,0.23417l0.12637,0.10283l0.18832,-0.07186l0.41381,0.18708l0.15362,-0.07062l0.07682,-0.17345l0.26886,-0.04089l0.11646,0.10283l0.08549,0.19948l0.14992,-0.07681l0.1338,-0.11769l0.08921,0.02478l0.20319,-0.14371l0.1462,-0.01858l0.18708,-0.15362l0.17593,0.15486l0.0384,0.1177l-0.09416,0.19452l-0.06319,0.01611l0.02849,0.19081l0.12142,0.00373l0.13505,0.08426l0.17097,-0.03964l0.20319,0.06938l0.09663,0.1623l0.26017,0.22797l-0.05823,0.07806l-0.05575,0.20442l0.05327,0.11522l-0.14371,0.23665l-0.11522,0.04956l-0.00247,0.16107l-0.05327,0.10037l0.06195,0.15611l-0.06195,0.15362l0.05823,0.08426l-0.20566,-0.03964l-0.24284,0.00991" fill-rule="evenodd"></path><path d="M190.66993,218.52507l0.04087,0.09416l-0.33452,0.01859l-0.03345,-0.24161l0.1685,0.19824l0.15859,-0.06938" fill-rule="evenodd"></path><path d="M191.5496,218.14098l0.17593,-0.28868l0.09416,0.14867l-0.2701,0.14001" fill-rule="evenodd"></path><path d="M190.40013,218.63621l-0.03346,-0.24161l0.1685,0.19825l0.1586,-0.06939l0.04089,0.09417l-0.33454,0.01858" fill-rule="nonzero"></path><path d="M191.57718,218.1406l0.17594,-0.28868l0.09417,0.14869l-0.27012,0.14001" fill-rule="nonzero"></path></g></g></svg>