<svg version="1.1" xmlns="http://www.w3.org/2000/svg" xmlns:xlink="http://www.w3.org/1999/xlink" width="8.08351" height="12.41743" viewBox="0,0,8.08351,12.41743"><g transform="translate(-140.58849,-294.1801)"><g fill="#ff0000" stroke="#ffffff" stroke-width="0" stroke-linecap="round" stroke-linejoin="round" stroke-miterlimit="10"><path d="M147.3944,294.21257l0.16135,0.02777l0.25528,-0.04293l-0.00923,0.09342l0.08964,0.19569l-0.13484,0.02147l-0.11653,0.11867l0.19757,0.10857l-0.06602,0.44944l0.05529,0.10984l0.13067,0.05429l0.06148,0.11236l0.14985,0.0303l0.14709,0.13004l0.06728,0.17423l0.2256,0.0808l0.06249,0.09974l-0.01262,0.16034l-0.05619,0.14898l-0.07878,0.07197l-0.08648,0.24366l0.0317,0.08711l-0.1736,0.10479l-0.11287,0.19569l-0.01729,0.1818l-0.12271,0.19064l-0.07222,0.03788l-0.20718,-0.03535l-0.16589,0.10604l-0.20705,0.03662l-0.13142,-0.07196l-0.06666,-0.11742l-0.00908,-0.20073l-0.0409,-0.11362l-0.23067,-0.17171l-0.0606,0.00505l-0.15744,-0.20326l0.23633,-0.19695l0.01579,-0.20705l0.06552,-0.21336l-0.11716,-0.09089l-0.01844,-0.16539l-0.07006,-0.04672l-0.02992,-0.46963l-0.10604,-0.09847l0.06148,-0.18558l0.10037,-0.18559l0.01578,-0.12626l-0.06173,-0.05302l0.0063,-0.16918l0.10278,-0.19821l0.12309,-0.04167l0.26412,0.07322l0.11274,-0.04545" fill-rule="evenodd"></path><path d="M144.58157,300.72698l-0.15782,0.15528l-0.17827,0.11236l-0.1246,0.02652l-0.18142,0.26259l-0.1837,0.21336l-0.15452,0.21841l-0.15781,0.04672l-0.21033,0.24618l-0.18217,0.1111l-0.30742,0.09847l-0.22649,-0.03535l-0.23646,-0.22978l-0.1443,-0.34971l0.04494,-0.25376l0.075,-0.15654l0.37002,0.08964l0.23154,-0.07827l0.17485,0.02399l0.27864,-0.13636l0.10239,0.06059l0.17309,-0.06312l0.25262,-0.202l0.07613,0.00378l0.22397,-0.09721l0.06982,-0.09721l0.12346,-0.05681l0.21727,0.02904l0.03157,0.05807" fill-rule="evenodd"></path><path d="M141.13248,305.96628l0.18495,0.25755l-0.02084,0.10226l0.04975,0.23861l-0.19316,0.03283l-0.24139,-0.02777l-0.13255,-0.07197l-0.08673,-0.14139l-0.10402,-0.0101l0.02197,-0.17296l0.1563,0.05176l0.04697,-0.17421l0.0765,-0.08584l0.13546,-0.03157l0.10681,0.03283" fill-rule="evenodd"></path><path d="M141.2967,306.3181l0.04975,0.23862l-0.19316,0.03283l-0.24139,-0.02777l-0.13256,-0.07196l-0.08673,-0.14139l-0.10403,-0.0101l0.02199,-0.17297l0.1563,0.05176l0.04697,-0.17424l0.0765,-0.08585l0.13547,-0.03155l0.10681,0.03283l0.18497,0.25756l-0.02083,0.10226" fill-rule="nonzero"></path><path d="M144.42398,300.87658l-0.17827,0.11237l-0.12461,0.02652l-0.18143,0.2626l-0.1837,0.21336l-0.15453,0.21841l-0.15782,0.04672l-0.21033,0.24619l-0.18219,0.1111l-0.30744,0.09847l-0.22649,-0.03535l-0.23647,-0.22979l-0.14432,-0.34972l0.04494,-0.25378l0.075,-0.15656l0.37006,0.08964l0.23154,-0.07828l0.17486,0.024l0.27864,-0.13636l0.10239,0.0606l0.17309,-0.06312l0.25264,-0.20201l0.07613,0.0038l0.22397,-0.09722l0.06982,-0.09721l0.12349,-0.05681l0.21728,0.02905l0.03155,0.05807l-0.15782,0.15529" fill-rule="nonzero"></path><path d="M147.55633,294.23565l0.25529,-0.04292l-0.00923,0.09342l0.08963,0.19569l-0.13483,0.02147l-0.11653,0.11867l0.19757,0.10859l-0.02234,0.25124l-0.04369,0.19822l0.0553,0.10984l0.13067,0.05429l0.06149,0.11237l0.14986,0.0303l0.14709,0.13004l0.0673,0.17424l0.09961,0.06565l0.12599,0.01515l0.06249,0.09974l-0.01262,0.16034l-0.05619,0.14898l-0.07878,0.07197l-0.08649,0.24366l0.03168,0.08711l-0.1736,0.10479l-0.11287,0.19569l-0.01729,0.18181l-0.12272,0.19064l-0.07222,0.03787l-0.20718,-0.03535l-0.16589,0.10605l-0.20706,0.03662l-0.13144,-0.07196l-0.06666,-0.11742l-0.00908,-0.20074l-0.0409,-0.11362l-0.23067,-0.17171l-0.0606,0.00504l-0.15744,-0.20327l0.23634,-0.19695l0.01579,-0.20706l0.06552,-0.21336l-0.11717,-0.0909l-0.01844,-0.16539l-0.07006,-0.04672l-0.03219,-0.29038l0.00227,-0.17928l-0.10605,-0.09847l0.06149,-0.18559l0.10038,-0.18559l0.01578,-0.12626l-0.06173,-0.05302l0.00632,-0.16919l0.10278,-0.19822l0.1231,-0.04167l0.26412,0.07322l0.11274,-0.04545l0.16136,0.02777" fill-rule="nonzero"></path></g></g></svg>