<svg version="1.1" xmlns="http://www.w3.org/2000/svg" xmlns:xlink="http://www.w3.org/1999/xlink" width="26.12826" height="54.68744" viewBox="0,0,26.12826,54.68744"><g transform="translate(-226.93587,-152.65628)"><g fill-rule="evenodd" stroke-miterlimit="10"><path d="M239.82529,153.15628c4.2357,0 7.50777,1.59897 9.81622,4.79692c1.71546,2.37199 2.57319,5.28403 2.57319,8.73612c0,3.19795 -0.86832,6.37473 -2.60495,9.53031c-0.42357,0.76243 -2.06491,2.79556 -4.924,6.09941c-0.29649,0.33886 -0.70948,0.83655 -1.23894,1.49308l-1.62016,1.93783c-2.49906,2.98616 -4.41571,5.8982 -5.74996,8.73612c-1.41895,2.94381 -2.17079,5.32639 -2.25551,7.14774h18.74295v5.20991h-24.33407v-4.95576c0.63536,-3.83331 1.8743,-7.3807 3.71682,-10.64218c1.4825,-2.62613 3.66388,-5.66525 6.54415,-9.11733l1.30248,-1.58839c2.43553,-2.92263 4.02391,-5.00871 4.76516,-6.25824c1.33425,-2.28728 2.00137,-4.73338 2.00137,-7.33834c0,-2.07549 -0.40239,-3.85449 -1.20717,-5.33698c-1.29189,-2.37199 -3.22972,-3.55798 -5.8135,-3.55798c-3.47327,0 -6.24765,2.29786 -8.32314,6.8936l-3.78036,-3.0497c0.99539,-2.32963 2.34023,-4.21452 4.0345,-5.65465c2.43553,-2.05432 5.2205,-3.08147 8.35491,-3.08147z" fill="#ffffff" stroke="none" stroke-linecap="square" stroke-linejoin="miter"></path><path d="M239.82529,153.15628c4.2357,0 7.50777,1.59897 9.81622,4.79692c1.71546,2.37199 2.57319,5.28403 2.57319,8.73612c0,3.19795 -0.86832,6.37473 -2.60495,9.53031c-0.42357,0.76243 -2.06491,2.79556 -4.924,6.09941c-0.29649,0.33886 -0.70948,0.83655 -1.23894,1.49308l-1.62016,1.93783c-2.49906,2.98616 -4.41571,5.8982 -5.74996,8.73612c-1.41895,2.94381 -2.17079,5.32639 -2.25551,7.14774h18.74295v5.20991h-24.33407v-4.95576c0.63536,-3.83331 1.8743,-7.3807 3.71682,-10.64218c1.4825,-2.62613 3.66388,-5.66525 6.54415,-9.11733l1.30248,-1.58839c2.43553,-2.92263 4.02391,-5.00871 4.76516,-6.25824c1.33425,-2.28728 2.00137,-4.73338 2.00137,-7.33834c0,-2.07549 -0.40239,-3.85449 -1.20717,-5.33698c-1.29189,-2.37199 -3.22972,-3.55798 -5.8135,-3.55798c-3.47327,0 -6.24765,2.29786 -8.32314,6.8936l-3.78036,-3.0497c0.99539,-2.32963 2.34023,-4.21452 4.0345,-5.65465c2.43553,-2.05432 5.2205,-3.08147 8.35491,-3.08147z" fill="none" stroke="#ffffff" stroke-linecap="butt" stroke-linejoin="round"></path></g></g></svg>