<svg version="1.1" xmlns="http://www.w3.org/2000/svg" xmlns:xlink="http://www.w3.org/1999/xlink" width="253.43275" height="85.55959" viewBox="0,0,253.43275,85.55959"><g transform="translate(-245.71725,-188.97375)"><g stroke-miterlimit="10"><path d="M337.15,274.53334v-85.48116h162v85.48116z" fill-opacity="0.57647" fill="#000000" stroke="none" stroke-width="0"></path><path d="M337.18652,213.25233v-24.27226h161.04452v24.27226z" fill-opacity="0.45098" fill="#000000" stroke="#000000" stroke-width="0"></path><text transform="translate(341.78083,226.47762) scale(0.29663,0.29663)" font-size="40" xml:space="preserve" fill="#ffffff" stroke="none" stroke-width="1" font-family="&quot;BIZ UDPGothic&quot;, Sans Serif" font-weight="normal" text-anchor="start"><tspan x="0" dy="0">震源地</tspan></text><text transform="translate(486.74731,209.98353) scale(0.21341,0.21341)" font-size="40" xml:space="preserve" fill="#ffffff" stroke="none" stroke-width="1" font-family="Sans Serif" font-weight="normal" text-anchor="start"><tspan x="0" dy="0">頃</tspan></text><path d="M324.78386,188.97375c5.0428,0 12.44067,0 12.44067,0c0,0 0,7.22743 0,13.80145c0,-7.98858 -5.03771,-13.50905 -12.44067,-13.80145z" fill-opacity="0.57647" fill="#000000" stroke="none" stroke-width="0"></path><path d="M337.18537,262.07324c0,5.0428 0,12.44067 0,12.44067c0,0 -7.22744,0 -13.80145,0c7.98858,0 13.50905,-5.03771 13.80145,-12.44067z" fill-opacity="0.57647" fill="#000000" stroke="none" stroke-width="0"></path><path d="M245.71725,202.7752c0,-6.57402 0,-13.80145 0,-13.80145c0,0 7.39787,0 12.44067,0c-7.40296,0.2924 -12.44067,5.81287 -12.44067,13.80145z" fill-opacity="0.57647" fill="#000000" stroke="none" stroke-width="0"></path><path d="M259.55787,274.51391c-6.57402,0 -13.80145,0 -13.80145,0c0,0 0,-7.39787 0,-12.44067c0.2924,7.40296 5.81287,12.44067 13.80145,12.44067z" fill-opacity="0.57647" fill="#000000" stroke="none" stroke-width="0"></path></g></g></svg>