<svg version="1.1" xmlns="http://www.w3.org/2000/svg" xmlns:xlink="http://www.w3.org/1999/xlink" width="169" height="169" viewBox="0,0,169,169"><defs><radialGradient cx="240" cy="180" r="84.5" gradientUnits="userSpaceOnUse" id="color-1"><stop offset="0" stop-color="#ffffff" stop-opacity="0.13333"></stop><stop offset="1" stop-color="#ffffff" stop-opacity="0"></stop></radialGradient></defs><g transform="translate(-155.5,-95.5)"><g stroke-miterlimit="10"><path d="M155.5,180c0,-46.66806 37.83194,-84.5 84.5,-84.5c46.66806,0 84.5,37.83194 84.5,84.5c0,46.66806 -37.83194,84.5 -84.5,84.5c-46.66806,0 -84.5,-37.83194 -84.5,-84.5z" fill="url(#color-1)" fill-rule="nonzero" stroke="#000000" stroke-width="0" stroke-linecap="butt" stroke-linejoin="miter"></path><path d="M176.99212,180v0c0,-34.79828 28.20959,-63.00787 63.00788,-63.00787v0v0c16.71073,0 32.73702,6.63831 44.55329,18.45459c11.81627,11.81628 18.45459,27.84259 18.45459,44.55328v0v0c0,34.79828 -28.2096,63.00787 -63.00788,63.00787v0v0c-34.79829,0 -63.00788,-28.20959 -63.00788,-63.00787z" fill="#b02200" fill-rule="evenodd" stroke="none" stroke-width="1" stroke-linecap="square" stroke-linejoin="miter"></path><path d="M187.92828,179.99126v0c0,-28.7536 23.30939,-52.06299 52.06299,-52.06299v0v0c13.80796,0 27.05039,5.48516 36.8141,15.2489c9.7637,9.76373 15.2489,23.0061 15.2489,36.81409v0v0c0,28.7536 -23.3094,52.06299 -52.06299,52.06299v0v0c-28.7536,0 -52.06299,-23.30939 -52.06299,-52.06299z" fill="#f03200" fill-rule="evenodd" stroke="none" stroke-width="1" stroke-linecap="square" stroke-linejoin="miter"></path><path d="M219.99379,177.78907c-2.20841,1.3186 -3.95585,3.11432 -5.2423,5.38703c-1.28645,2.27276 -1.92969,4.82421 -1.92969,7.65441c0,2.8302 0.64323,5.39777 1.92969,7.70264c1.28645,2.30493 3.0339,4.11662 5.2423,5.43529c2.20841,1.31861 4.69557,1.9779 7.46144,1.9779c2.76587,0 5.24766,-0.67541 7.44536,-2.02618c2.20841,-1.35077 3.95585,-3.16254 5.24231,-5.43524c1.28646,-2.27276 1.92968,-4.82422 1.92968,-7.65442c0,-2.8302 -0.64322,-5.38165 -1.92968,-7.65441c-1.28646,-2.2727 -3.0339,-4.06842 -5.24231,-5.38703c-2.1977,-1.3186 -4.67948,-1.9779 -7.44536,-1.9779c-2.76587,0 -5.25303,0.65931 -7.46144,1.97791zM240.78612,145.08094l-18.01677,24.56964v0c0.32801,-0.13288 0.66783,-0.25556 1.01949,-0.36822c1.65095,-0.52527 3.59671,-0.7879 5.83729,-0.7879c4.02017,0 7.65976,0.95947 10.91878,2.87842c3.25902,1.90826 5.89089,4.52405 7.89562,7.84735c2.01544,3.32337 3.02316,7.19348 3.02316,11.61029c0,4.34179 -1.07204,8.3244 -3.21613,11.94794c-2.14409,3.62353 -5.04397,6.50732 -8.69965,8.65141c-3.65568,2.13336 -7.68657,3.20002 -12.09267,3.20002c-4.54548,0 -8.61389,-1.0506 -12.20524,-3.15179c-3.59134,-2.11194 -6.44299,-4.94214 -8.55493,-8.4906c-2.1012,-3.55921 -3.15181,-7.51502 -3.15181,-11.86756c0,-6.05707 2.10657,-12.08197 6.31971,-18.07471l20.1491,-27.96429z" fill="#fef8f8" fill-rule="evenodd" stroke="none" stroke-width="1" stroke-linecap="square" stroke-linejoin="miter"></path><path d="M219.99379,177.78907c-2.20841,1.3186 -3.95585,3.11432 -5.2423,5.38703c-1.28645,2.27276 -1.92969,4.82421 -1.92969,7.65441c0,2.8302 0.64323,5.39777 1.92969,7.70264c1.28645,2.30493 3.0339,4.11662 5.2423,5.43529c2.20841,1.31861 4.69557,1.9779 7.46144,1.9779c2.76587,0 5.24766,-0.67541 7.44536,-2.02618c2.20841,-1.35077 3.95585,-3.16254 5.24231,-5.43524c1.28646,-2.27276 1.92968,-4.82422 1.92968,-7.65442c0,-2.8302 -0.64322,-5.38165 -1.92968,-7.65441c-1.28646,-2.2727 -3.0339,-4.06842 -5.24231,-5.38703c-2.1977,-1.3186 -4.67948,-1.9779 -7.44536,-1.9779c-2.76587,0 -5.25303,0.65931 -7.46144,1.97791zM240.78612,145.08094l-18.01677,24.56964v0c0.32801,-0.13288 0.66783,-0.25556 1.01949,-0.36822c1.65095,-0.52527 3.59671,-0.7879 5.83729,-0.7879c4.02017,0 7.65976,0.95947 10.91878,2.87842c3.25902,1.90826 5.89089,4.52405 7.89562,7.84735c2.01544,3.32337 3.02316,7.19348 3.02316,11.61029c0,4.34179 -1.07204,8.3244 -3.21613,11.94794c-2.14409,3.62353 -5.04397,6.50732 -8.69965,8.65141c-3.65568,2.13336 -7.68657,3.20002 -12.09267,3.20002c-4.54548,0 -8.61389,-1.0506 -12.20524,-3.15179c-3.59134,-2.11194 -6.44299,-4.94214 -8.55493,-8.4906c-2.1012,-3.55921 -3.15181,-7.51502 -3.15181,-11.86756c0,-6.05707 2.10657,-12.08197 6.31971,-18.07471l20.1491,-27.96429z" fill="none" fill-rule="evenodd" stroke="#fef8f8" stroke-width="2" stroke-linecap="butt" stroke-linejoin="round"></path><path d="M276.45295,158.30406v8.3941h-32.49907v-8.3941z" fill="#fef8f8" fill-rule="evenodd" stroke="none" stroke-width="1" stroke-linecap="square" stroke-linejoin="miter"></path><path d="M276.45295,158.30406v8.3941h-32.49907v-8.3941z" fill="none" fill-rule="evenodd" stroke="#fef8f8" stroke-width="1" stroke-linecap="butt" stroke-linejoin="round"></path></g></g></svg>