<svg version="1.1" xmlns="http://www.w3.org/2000/svg" xmlns:xlink="http://www.w3.org/1999/xlink" width="10.92312" height="8.63454" viewBox="0,0,10.92312,8.63454"><g transform="translate(-291.32798,-76.32314)"><g fill="#ff0000" fill-rule="evenodd" stroke="#ffffff" stroke-width="0" stroke-linecap="round" stroke-linejoin="round" stroke-miterlimit="10"><path d="M293.55742,84.72225l-0.13487,-0.22708l0.06193,-0.18028l-0.30415,-0.14038l-0.29451,-0.34818l-0.16377,-0.03302l-0.09634,-0.10873l-0.24909,-0.10597l-0.07707,-0.07982l-0.18992,0.02341l-0.21056,-0.15414l-0.06468,-0.21607l0.05643,-0.13075l-0.09772,-0.18304l0.00964,-0.12387l0.17341,-0.12523l0.26974,-0.1156l0.00688,-0.11835l-0.17754,-0.19542l0.17341,-0.03716l0.04954,-0.27524l0.05917,-0.07431l0.07019,-0.33855l-0.20092,-0.18167l-0.11973,-0.19542l0.03578,-0.15689l-0.13349,-0.139l0.1913,-0.14038l0.04542,-0.12937l0.14175,-0.03853l-0.0867,-0.40461v-0.1913l0.08946,-0.13625l-0.23535,-0.3413l-0.33717,-0.20782l0.07019,-0.43901l-0.03716,-0.28901l-0.11284,-0.19818l0.07431,-0.22295l-0.11834,-0.19542l0.01377,-0.11973l-0.10047,-0.21607l-0.27937,-0.17065l0.06056,-0.19818l0.20093,-0.30828l0.19405,-0.22707l0.1679,-0.10873l0.16789,-0.02202l0.07982,-0.13349l0.08257,0.19818l0.17617,0.15139l0.30415,0.19405l0.22707,0.3358l0.28762,0.14725l0.21744,0.1569l0.38947,0.08808l0.49407,-0.12248l0.5381,-0.24772l0.46929,0.04129l0.22295,-0.21331l0.1445,0.01377l0.14588,0.15963l0.4982,0.2601l0.10734,0.42939l0.24772,0.25736h0.19956l0.01238,0.35645l0.11698,0.12798l0.13349,0.31103l0.29864,0.21883l0.13763,0.1624l0.20232,0.12111l0.10596,0.00137l0.45554,0.4404l0.07844,0.2601l0.1913,0.18992l0.07155,0.29176l0.10047,0.15552l0.11973,0.03302l0.06468,0.20092l0.09772,0.12524l0.31103,0.19818l0.49682,0.23809l0.18028,-0.06881l0.61655,0.17341l0.06607,0.07157l0.33443,0.13212l0.37296,0.31103l0.22295,0.10184l-0.0922,0.09083l0.03853,0.28764l0.33992,0.22983l0.09496,-0.02065l0.13074,0.2202l-0.01927,0.11973l-0.29588,0.16927l-0.11698,0.15963l-0.19405,-0.00963l-0.20919,-0.07155l-0.25737,0.0922l-0.26837,0.41425l-0.11835,0.07844l-0.07018,0.26563l-0.30828,0.15689l-0.06881,0.17203l-0.15689,-0.04817l-0.18854,0.1569l-0.07431,-0.06056l-0.14175,0.13075l-0.20232,-0.03303l-0.3248,0.13075l-0.24084,-0.09909l-0.01377,-0.11698l-0.11698,-0.15963l-0.19405,-0.14588l-0.60692,-0.25598l-0.14863,-0.02065l-0.26286,-0.12111l-0.23671,0.01789l-0.63307,-0.26287l-0.36882,-0.01101l-0.34544,0.09909l-0.15827,0.13075l-0.11698,0.18716l0.05643,0.10459l-0.25046,0.10322l-0.1445,-0.25873l-0.01238,-0.19405l0.18442,-0.17617l0.11973,0.13626l0.13075,-0.13075l0.03302,-0.31515l-0.1789,-0.29039l-0.1624,-0.16377l-0.26563,-0.10597l-0.37709,0.00137l-0.27387,0.11973l-0.17203,0.17478l-0.06468,0.18442l0.03578,0.14175l-0.09772,0.18167l-0.02065,0.16927l-0.10459,0.10873l-0.03578,0.36607l-0.2835,0.10184l-0.04679,0.10734l-0.21745,0.06056l-0.0867,0.09633"></path></g></g></svg>