<svg version="1.1" xmlns="http://www.w3.org/2000/svg" xmlns:xlink="http://www.w3.org/1999/xlink" width="11.97191" height="17.16051" viewBox="0,0,11.97191,17.16051"><g transform="translate(-148.46928,-264.17871)"><g stroke-miterlimit="10"><g><g fill="none" fill-rule="nonzero" stroke="none" stroke-width="1" stroke-linecap="butt" stroke-linejoin="miter" font-family="sans-serif" font-weight="normal" font-size="12" text-anchor="start"/><g fill="none" fill-rule="nonzero" stroke="none" stroke-width="1" stroke-linecap="butt" stroke-linejoin="miter" font-family="sans-serif" font-weight="normal" font-size="12" text-anchor="start"/><g fill="none" fill-rule="nonzero" stroke="none" stroke-width="1" stroke-linecap="butt" stroke-linejoin="miter" font-family="sans-serif" font-weight="normal" font-size="12" text-anchor="start"/><g fill="#ff0000" fill-rule="evenodd" stroke="#ffffff" stroke-width="0" stroke-linecap="round" stroke-linejoin="round"><path d="M159.69317,266.10195l0.13294,0.17217l-0.04562,0.09469l0.02362,0.1365l0.21729,0.19799l0.03124,0.13035l-0.33435,-0.0209l-0.11351,0.07747l-0.13919,-0.01353l-0.08829,-0.05902l-0.10453,-0.23611l-0.15151,-0.09715l-0.06985,-0.2066l0.0798,-0.23119l0.13748,-0.10453l0.2008,0.0332v0.06025l0.22369,0.06641"/><path d="M157.88551,269.38526l-0.07071,0.17831l-0.12187,0.06641l-0.14695,0.14511l-0.0632,0.14757l-0.10501,-0.01476l-0.01254,-0.11191l-0.0889,-0.15126l0.00713,-0.15863l-0.07723,-0.12666l-0.00516,-0.14019l0.11707,-0.11559l0.348,-0.14265l0.22959,-0.02337l0.03554,0.03566l-0.06013,0.2816l0.01439,0.13035"/><path d="M160.37441,264.7124l0.06678,0.14019l-0.03578,0.1033l-0.12027,0.05164l-0.25553,-0.12174l-0.10784,-0.11067l-0.05042,-0.1242l0.08067,-0.16847l0.08927,-0.07747l-0.06443,-0.13773l0.09026,-0.08854l0.07206,0.26069l0.13207,0.21151l0.10318,0.06148"/><path d="M151.48243,276.36997l0.01881,0.26315l-0.24299,-0.16847l-0.16797,-0.2066l0.17954,-0.07993l0.21262,0.00615l0.04943,0.09592l-0.04943,0.08977"/><path d="M156.32994,272.13981l-0.20327,-0.00122l-0.00591,-0.14511l-0.11056,-0.06025l0.02668,-0.14634l0.07845,-0.09715l0.17401,0.06886l0.13146,0.31111l-0.09088,0.07009"/><path d="M155.53062,265.80682l-0.19282,-0.04058l-0.0241,-0.22381l0.08177,-0.06763l0.16245,0.12543l0.05411,0.13896l-0.08141,0.06763"/><path d="M148.63322,281.27649l-0.10662,0.0455l-0.05533,-0.09592l0.16122,-0.01967l0.09248,-0.07624l0.11326,0.10945l-0.10624,0.09961l-0.09876,-0.06271"/><path d="M155.26624,268.77041l0.02005,-0.14019l0.08116,-0.04919l0.05743,0.03321l-0.02201,0.23119l-0.13663,-0.07502"/></g><g fill="none" fill-rule="nonzero" stroke="none" stroke-width="1" stroke-linecap="butt" stroke-linejoin="miter" font-family="sans-serif" font-weight="normal" font-size="12" text-anchor="start"/><g fill="#ff0000" fill-rule="evenodd" stroke="#ffffff" stroke-width="0" stroke-linecap="round" stroke-linejoin="round"><path d=""/></g></g><path d="M148.52461,281.31637l-0.05533,-0.09592l0.16122,-0.01967l0.09248,-0.07625l0.11327,0.10945l-0.10624,0.09961l-0.09876,-0.06272l-0.10662,0.0455" fill="#ff0000" fill-rule="nonzero" stroke="#ffffff" stroke-width="0" stroke-linecap="round" stroke-linejoin="round"/><path d="M151.25711,276.47113l-0.16798,-0.2066l0.17955,-0.07993l0.21262,0.00615l0.04944,0.09593l-0.04944,0.08977l0.01882,0.26317l-0.243,-0.16848" fill="#ff0000" fill-rule="nonzero" stroke="#ffffff" stroke-width="0" stroke-linecap="round" stroke-linejoin="round"/><path d="M156.11957,271.99483l-0.11056,-0.06026l0.02668,-0.14634l0.07845,-0.09715l0.17401,0.06886l0.13146,0.31113l-0.09088,0.0701l-0.20327,-0.00122l-0.0059,-0.14511" fill="#ff0000" fill-rule="nonzero" stroke="#ffffff" stroke-width="0" stroke-linecap="round" stroke-linejoin="round"/><path d="M157.81293,269.57222l-0.12188,0.06641l-0.14695,0.14511l-0.0632,0.14757l-0.10501,-0.01476l-0.01254,-0.11191l-0.08892,-0.15126l0.00714,-0.15863l-0.07723,-0.12666l-0.00517,-0.1402l0.11707,-0.1156l0.34803,-0.14265l0.2296,-0.02337l0.03554,0.03566l-0.06013,0.28162l0.01439,0.13035l-0.07071,0.17832" fill="#ff0000" fill-rule="nonzero" stroke="#ffffff" stroke-width="0" stroke-linecap="round" stroke-linejoin="round"/><path d="M155.36573,268.58843l0.05743,0.0332l-0.02202,0.2312l-0.13663,-0.07501l0.02005,-0.14019l0.08117,-0.04919" fill="#ff0000" fill-rule="nonzero" stroke="#ffffff" stroke-width="0" stroke-linecap="round" stroke-linejoin="round"/><path d="M159.77931,266.36257l0.02361,0.13651l0.2173,0.19799l0.03122,0.13035l-0.33438,-0.0209l-0.11351,0.07748l-0.13921,-0.01353l-0.0883,-0.05903l-0.10453,-0.23612l-0.15151,-0.09715l-0.06985,-0.2066l0.07981,-0.2312l0.13749,-0.10453l0.20083,0.03321v0.06025l0.22369,0.06641l0.13294,0.17217l-0.04563,0.09469" fill="#ff0000" fill-rule="nonzero" stroke="#ffffff" stroke-width="0" stroke-linecap="round" stroke-linejoin="round"/><path d="M155.33744,265.77228l-0.0241,-0.22381l0.08177,-0.06764l0.16245,0.12543l0.05411,0.13896l-0.08141,0.06764l-0.19282,-0.04058" fill="#ff0000" fill-rule="nonzero" stroke="#ffffff" stroke-width="0" stroke-linecap="round" stroke-linejoin="round"/><path d="M160.40401,264.96064l-0.12027,0.05165l-0.25554,-0.12175l-0.10785,-0.11068l-0.05042,-0.1242l0.08067,-0.16848l0.08927,-0.07747l-0.06443,-0.13773l0.09026,-0.08855l0.07206,0.26071l0.13207,0.21153l0.10317,0.06149l0.06678,0.14019l-0.03578,0.10331" fill="#ff0000" fill-rule="nonzero" stroke="#ffffff" stroke-width="0" stroke-linecap="round" stroke-linejoin="round"/></g></g></svg>