<svg version="1.1" xmlns="http://www.w3.org/2000/svg" xmlns:xlink="http://www.w3.org/1999/xlink" width="6.28024" height="7.68038" viewBox="0,0,6.28024,7.68038"><g transform="translate(-267.75485,-184.48063)"><g fill="#ff0000" fill-rule="evenodd" stroke="#ffffff" stroke-width="0" stroke-linecap="round" stroke-linejoin="round" stroke-miterlimit="10"><path d="M273.38341,185.14728l0.0384,-0.04584l0.18088,0.04833l0.11769,-0.02602l0.1016,0.06815l-0.03964,0.22674l0.09044,0.13134l0.02725,0.38159l0.03346,0.18461l0.1016,0.1338l-0.11646,0.23788l0.01362,0.04708l-0.0954,0.32089l-0.07186,0.01115l-0.13876,0.15859l-0.13009,0.21929l-0.01239,0.24159l0.16479,0.534l-0.00124,0.17965l0.18957,0.19824l0.13381,0.08176l-0.13009,0.20567l-0.02478,0.16973l-0.09416,0.07433l-0.04213,0.14495l-0.19948,0.15611l-0.0161,0.06442l-0.23665,0.28619l-0.10407,0.29983l-0.1276,0.02229l-0.16107,0.26142l-0.14495,0.16107l-0.03099,0.17097l0.04708,0.17965l-0.11026,0.08053l0.11275,0.09788l-0.19824,0.35063l-0.14371,0.07062l-0.1016,0.13009l-0.23169,0.08426l-0.11274,0.11769l-0.14001,0.03469l0.01735,0.44107l-0.19824,-0.07433l-0.13009,0.06071l-0.083,-0.0384l-0.18832,0.11522l-0.17345,0.01362l-0.10532,-0.15362l-0.06566,-0.34814l0.17964,-0.02478l-0.09788,-0.12514l0.07559,-0.22674l0.06195,-0.06195l-0.02602,-0.13504l0.07062,-0.22178l0.20195,0.057l0.33453,-0.01858l0.21682,0.12142l0.16355,-0.09293l0.24284,-0.06815l0.17965,0.12018l0.08673,-0.10902l-0.07682,-0.10532l0.14,-0.24656l-0.14744,-0.06319l-0.05947,0.07433l-0.16479,-0.34072l-0.13009,-0.03717l-0.0954,-0.10779l-0.1276,-0.23664l-0.14124,-0.13753l-0.31841,-0.19081l-0.29363,-0.11895l-0.56869,-0.15362l-0.36673,-0.03717l-0.35806,0.07186l-0.07062,0.05823l-0.44355,0.1747l-0.10654,-0.26017l-0.21186,0.06195l-0.09663,-0.07186l-0.06442,-0.13876l-0.22797,0.00124l-0.28124,-0.19948l-0.24161,0.04833l-0.0384,-0.11275l-0.12886,-0.0793l-0.02602,-0.22054l-0.04956,-0.02849l0.03469,-0.25275l0.1338,-0.02602l-0.07186,-0.24159l0.06072,-0.09912l-0.06691,-0.14l-0.07682,-0.34691l-0.08053,-0.10284l0.07558,-0.13133l0.01735,-0.19081l-0.06939,-0.19204l-0.04956,-0.26515l0.28496,-0.25771l-0.00371,-0.15982l-0.05204,-0.06815l0.00124,-0.46462l0.06319,-0.20815l-0.057,-0.18708l0.00744,-0.11026l0.17222,-0.11275l0.12266,-0.14124l0.04336,-0.12266l0.22674,-0.1016l0.05574,-0.07433l0.08177,0.13628l0.11398,0.07559l0.14124,0.58727l0.37045,-0.07806h0.3023l0.09663,0.08301l0.11522,0.534l0.22548,-0.02973l0.02106,-0.04584l0.3023,-0.0384l0.07433,0.03717l0.85117,-0.21062l0.27752,0.03717l0.14991,-0.14744l0.20815,-0.10037l0.14867,0.00496l0.13256,0.12886l0.17841,-0.07062l0.18585,-0.1524l0.16726,-0.06442l0.61948,-0.01982"></path></g></g></svg>