<svg version="1.1" xmlns="http://www.w3.org/2000/svg" xmlns:xlink="http://www.w3.org/1999/xlink" width="14.7238" height="11.86559" viewBox="0,0,14.7238,11.86559"><g transform="translate(-255.84596,-167.49952)"><g fill="#ff0000" fill-rule="evenodd" stroke="#ffffff" stroke-width="0" stroke-linecap="round" stroke-linejoin="round" stroke-miterlimit="10"><path d="M266.51954,167.70262l0.01982,0.13628l-0.12142,0.1623l0.02229,0.22674l-0.11026,0.25894l0.04584,0.14124l-0.00867,0.3085l0.03718,0.14001l-0.02106,0.28124l0.49807,0.17593l0.19081,0.03718l0.03221,0.23788l0.22674,0.00496l0.13753,0.05327l0.0384,-0.18955l0.16479,-0.02229l0.29612,0.17965l0.14001,0.00373l0.17841,-0.23044l0.22425,-0.02106l0.21187,-0.07309l0.21929,0.01115l0.23168,0.1177l0.13133,-0.02602l0.0892,0.08921l0.09663,0.25152l-0.03221,0.24903l0.09416,0.15362l-0.08797,0.25275l0.00496,0.31346l0.03469,0.11895l-0.06691,0.15239l0.06939,0.1747l-0.10655,0.13133l-0.17717,0.09416l-0.22425,0.04336l-0.11026,0.16355l0.02973,0.12637l-0.04708,0.26515l0.12762,0.13134l-0.00744,0.17717l0.12762,0.22798l0.13628,-0.02354l0.03469,0.14495l-0.16355,0.14992l0.08177,0.2069l0.0954,0.13134l-0.30107,0.09663l-0.09912,0.06689l-0.12639,-0.02106l-0.17345,-0.15611l-0.00373,0.20567l0.08426,0.02106l0.07682,0.12142l0.02973,0.18088l0.06195,0.08673l0.26637,0.057l0.14744,-0.03098l0.15239,0.37416l-0.01487,0.16478l-0.1809,0.11399l0.03222,0.16107l0.11895,0.18584l0.01734,0.29364l-0.15735,0.32584l0.16602,0.06442l0.01364,0.06195l0.19081,0.057l0.00373,0.06566l0.22301,0.0062l0.13753,0.31965l0.2701,0.083l-0.01487,0.21559l0.03469,0.08797l0.14124,0.12142l0.06815,0.19081l0.1016,0.09168l-0.00992,0.15488l-0.11646,0.18088l-0.00124,0.12142l-0.26019,-0.0062l-0.19948,0.21063l-0.07558,0.03099l-0.0384,0.18955l-0.08301,0.17841l-0.24904,-0.09293l-0.16602,0.01734l-0.10283,0.07186l-0.28992,-0.05575l-0.04956,-0.07309l0.00496,-0.32461l0.06319,-0.13753l-0.12142,-0.01734l-0.12513,-0.12886l-0.14124,0.01859l-0.05327,0.08549l-0.15239,-0.09044l-0.13133,-0.02478l-0.10407,0.06442l-0.19824,0.00373l-0.09912,-0.06442l-0.19452,-0.00247l-0.03593,0.10284l-0.1016,0.01611l0.00124,0.13876l-0.28496,0.08921l-0.13877,-0.11151l-0.07806,0.00496l-0.12142,-0.22301l0.0384,-0.17593l0.08426,-0.13876l-0.13753,-0.19576l-0.23541,-0.12018l-0.41505,-0.11275l-0.11026,-0.07558l-0.14,-0.00124l-0.10655,0.1338l-0.02229,0.17717l-0.18708,0.14868l-0.03718,0.23912l-0.13009,0.17345l-0.08921,0.18337l-0.20567,0.22798l-0.18088,0.31221l-0.1177,0.11769l-0.13381,-0.08549l-0.10407,-0.16726l-0.19576,-0.15362l-0.12886,0.05452l-0.06938,0.09541l-0.07186,0.28619l-0.28868,0.53151l0.02725,0.10532l-0.22178,0.24161l-0.03221,0.13505l0.16232,0.14495l-0.13134,0.00124l-0.12637,-0.07186l-0.06442,-0.22178l0.03964,-0.34444l0.06442,-0.15115l-0.0446,-0.17841l0.1462,-0.19824l-0.01362,-0.08053l-0.12637,-0.06442l0.04089,-0.33452l-0.08301,-0.02229l-0.05947,-0.2131l0.05452,-0.11895l-0.10532,-0.11646l-0.05575,-0.2069l-0.1747,-0.13876l0.04833,-0.17717l-0.41383,-0.31221l-0.22177,0.11275l-0.09044,-0.00496l-0.06691,0.11151l-0.08673,-0.00496l-0.06939,0.15611l-0.18584,0.06195l-0.29116,-0.20195l0.12886,-0.08673l0.02849,-0.14248l-0.03593,-0.38532l-0.10532,-0.03099l-0.07062,-0.19824l-0.14495,0.05823l-0.34444,-0.08673l0.06939,-0.10283l0.03098,-0.27133l0.07558,-0.17345l-0.10035,-0.01362l-0.22301,0.13504l-0.25152,-0.15115l-0.11026,-0.00744l-0.00991,-0.14124l-0.13628,0.03469l-0.00867,0.13009l-0.1276,0.057l-0.00496,0.10532l-0.14867,0.11895l-0.10902,0.00124l-0.09293,0.15239l0.06815,0.09787l-0.19081,0.20319l-0.10654,0.05327l-0.09167,0.1462l-0.03099,0.14495l-0.11399,0.16973l-0.12513,0.05204l-0.06319,0.14744l-0.08921,0.02354l-0.0954,0.13753l-0.02725,0.15611l0.07062,0.14495l0.20939,0.06566l0.08301,0.18213l-0.08673,0.09044l-0.05204,0.24161l0.12142,0.20072l-0.03593,0.26886l-0.09044,0.02354l0.00373,0.31594l-0.12513,0.21559l-0.11149,0.12886h-0.08177l-0.06442,-0.21187l-0.09293,-0.03593l0.01735,-0.26019l-0.07062,-0.03469l0.02602,-0.29363l0.11893,-0.13753l-0.01858,-0.13753l-0.12266,-0.16974l0.02478,-0.24284l-0.06815,-0.11274l0.00496,-0.2131l-0.07682,-0.36921l0.13876,-0.20195l-0.02106,-0.10407l0.0508,-0.27628l-0.01115,-0.27257l0.03966,-0.20815l-0.01115,-0.13256l0.05575,-0.15239l-0.1016,-0.10532l-0.03718,-0.16479l-0.06939,-0.04213l-0.01735,-0.14867l-0.18337,0.07433l-0.33948,-0.20443l-0.23291,0.26019l0.01734,0.33205l-0.17717,0.21063l-0.03717,0.11893l-0.23044,0.25647l-0.07062,-0.07559l-0.17345,-0.03346l-0.16479,0.09663l-0.13628,-0.04584l-0.04214,-0.08549l-0.25647,-0.11895l-0.25027,0.12762l-0.07062,-0.10532l-0.0954,-0.00992l-0.01487,-0.2639l0.19081,-0.2515l-0.06814,-0.28124l-0.14124,0.03222l-0.04956,-0.07806l-0.25399,-0.1177l-0.26514,-0.32585l0.11895,-0.31594l-0.07186,-0.11026l0.16355,-0.24159l0.28868,-0.16479l0.04833,-0.12143l-0.04833,-0.09663l0.04956,-0.18461l-0.17593,-0.07559l-0.07309,-0.13133l-0.02602,-0.22425l0.1239,-0.02973l0.083,-0.12639l0.08301,-0.22054l0.11769,-0.0892l0.10902,-0.21682l0.14495,-0.14248l0.02973,-0.0954l0.23541,-0.1648l-0.01115,-0.11274l0.07682,-0.12637l-0.05204,-0.06566l0.02229,-0.28372l-0.06319,-0.2131l0.16355,0.05947l0.27381,-0.00991l0.083,-0.27258l0.06566,-0.10779l0.10035,-0.03469l0.09912,-0.18088l-0.03469,-0.12637l0.10283,-0.20442l-0.03717,-0.19081l0.19204,-0.2255l0.24656,0.10532l0.08796,0.12886l0.01487,0.12886l0.18957,0.15239l0.06071,-0.08426l0.18957,0.0793l0.11026,-0.04089l0.31841,0.05575l0.03593,0.12266h0.09912l0.2131,-0.16355l0.28372,0.24779l0.1462,0.21062l0.25027,-0.11275l-0.08426,-0.28619l0.07186,-0.06815l0.06814,-0.19328l0.15115,-0.08301l-0.14495,-0.16479l-0.09912,-0.2515l0.10407,-0.02602l0.18832,-0.14124l0.04956,-0.1623l-0.08176,-0.15982l0.25522,-0.28124l0.15488,0.33081l0.11151,0.10035l0.10779,0.01115l0.35187,-0.29983l0.31221,-0.06939l0.19576,-0.15859l0.16974,0.06566l0.15982,0.00992l0.03346,0.14744l0.13876,0.04213l0.18708,0.14867l0.04833,0.13628l0.14867,0.15735l0.0446,0.18708l0.09541,-0.01859l0.13133,0.06195l0.32089,0.26637l0.18337,-0.06566l0.37789,-0.07806l0.06319,-0.0508l0.40267,-0.06071l0.01362,-0.16602l-0.10407,-0.19948l-0.15735,-0.1177l0.02354,-0.23044l-0.11026,-0.05204l-0.02602,-0.11522l-0.22054,-0.16107l-0.01982,-0.16479l0.24531,0.05947l0.11769,-0.09787l0.12266,0.07186l0.13009,-0.0954l0.20567,0.03717l0.13628,-0.33452l0.20319,0.04089l0.18461,-0.20567l0.18461,-0.00744l0.1276,0.13504l0.22301,-0.06071l0.05204,-0.12265l0.32089,-0.08301l0.37541,0.20319"></path></g></g></svg>