<svg version="1.1" xmlns="http://www.w3.org/2000/svg" xmlns:xlink="http://www.w3.org/1999/xlink" width="12.69643" height="6.61854" viewBox="0,0,12.69643,6.61854"><g transform="translate(-284.69755,-99.73544)"><g fill="#ff0000" fill-rule="evenodd" stroke="#ffffff" stroke-width="0" stroke-linecap="round" stroke-linejoin="round" stroke-miterlimit="10"><path d="M297.1797,102.87094l-0.0573,0.09592l0.05856,0.10215l-0.05107,0.15073l0.09218,0.05232l0.00498,0.18312l-0.0573,0.32513l-0.1333,0.15198l0.11585,0.08595l0.24168,0.4821l-0.34631,0.08222l-0.09094,-0.03489l-0.42853,0.33136l0.01121,0.14077l-0.04733,0.34009l-0.05357,0.15073l-0.12333,-0.01245l-0.08346,-0.12955l-0.17937,0.09841h-0.12083l-0.12456,0.19807l-0.23171,-0.00872l0.02242,0.19308l-0.02866,0.19807l-0.13205,-0.01371l-0.08596,-0.17938l-0.21054,-0.0299l-0.14575,0.03862l-0.00248,0.14077l-0.28651,0.18935l-0.23793,0.06229l-0.11087,-0.10465l-0.04236,-0.13453l-0.11585,-0.11212l-0.1445,0.01371l-0.2778,-0.20305l-0.01245,0.09716l-0.18187,0.06602l-0.20554,0.00747l-0.05481,0.09342l0.15945,0.22051l-0.08597,0.15447l-0.147,-0.11212l-0.08097,0.01993l-0.10713,-0.14077l-0.05357,-0.32762l-0.24168,0.04609l-0.1308,-0.12955l-0.15945,-0.07349l-0.09468,-0.19932l-0.22673,-0.05481l-0.19433,0.09466l-0.07724,-0.07599l-0.05107,-0.20305l0.04734,-0.17689l-0.12707,-0.06727l-0.26159,0.13081l-0.1171,-0.05979l-0.12083,-0.1445l-0.11336,0.17316l-0.20679,-0.03114l-0.22298,0.27406l0.00499,0.15572l-0.10713,0.20928l-0.32016,0.04609l-0.13205,-0.1582l-0.24416,0.00248l-0.15447,0.0872l-0.19184,-0.01869l-0.11212,0.07599l-0.2778,0.09966l-0.12583,-0.11834l-0.16319,0.06229l-0.20679,-0.10713l-0.41357,0.04859l-0.4933,0.03737l-0.10465,-0.13205l0.00375,-0.147l-0.26161,-0.22921l-0.24042,-0.00499l-0.147,0.10713l-0.11212,-0.00125l-0.16817,0.12583l-0.05856,0.10713l0.06354,0.11335l-0.04609,0.16567l-0.12831,0.0573l-0.1283,-0.11336l-0.34257,0.10339l-0.17067,-0.13453l-0.29275,0.10837l0.04734,-0.11461l-0.01495,-0.17813l0.07599,-0.29897l0.06104,-0.4821l-0.0299,-0.49579l-0.09094,-0.46963l-0.12583,-0.10465l0.04236,-0.10215l-0.07847,-0.18686l-0.10963,-0.1495l-0.15572,-0.00499l-0.08222,0.0598l-0.38243,-0.03238l-0.08222,-0.17316l-0.01371,-0.34382l0.3052,-0.21801l0.2043,-0.26534l0.12083,0.05232l0.13827,-0.03488l0.16942,-0.16693l0.03489,-0.22548l0.147,-0.03612l0.19185,-0.26908l0.01993,-0.19807l0.14077,-0.06478l0.10713,-0.2155l0.12083,-0.44348l0.36998,-0.13205l0.08597,-0.15696l0.20305,-0.09218l0.18686,-0.01245l0.13578,0.11958l0.10713,0.01993l0.13453,0.18312l0.25413,0.09841l0.32762,-0.14824l0.33012,-0.31765l0.17565,-0.08596l0.10713,-0.12955l0.14824,-0.04609l0.12955,0.10589l0.17191,-0.04111l0.147,-0.12831l0.13081,-0.18312l0.25413,0.00375l0.17565,0.24168l0.09218,0.21054l0.23669,0.04734l0.23295,0.21054l0.08222,-0.04236l0.24168,0.07599l0.01619,0.10339l0.31018,0.01495l0.09094,0.08597l0.12955,-0.06727l0.02866,0.13453l0.23295,0.0299l-0.00747,0.20679l0.07599,0.02492l0.12332,0.23918l0.22174,0.22049l0.09466,0.15198l0.05357,0.24416l0.16941,-0.00997l-0.02615,-0.1495l0.19682,-0.08846l0.00248,-0.22797l0.16569,-0.08846l0.17565,0.17316l0.20554,-0.19185l0.14823,0.17316l-0.1009,0.1283l0.04484,0.17316l0.14824,-0.02492l0.03737,-0.15572l0.24291,0.01245l0.24666,-0.07847l0.21054,0.07724l0.23669,-0.03987l0.07972,0.20928l0.34133,0.3351l0.46465,-0.08346l0.30146,-0.07349l0.13453,0.08595l0.25413,0.00125l0.06853,-0.08222l0.22298,0.25413l0.26909,0.08595l0.25163,0.34382l0.23544,0.27406l0.22298,-0.03364"></path></g></g></svg>