<svg version="1.1" xmlns="http://www.w3.org/2000/svg" xmlns:xlink="http://www.w3.org/1999/xlink" width="5.00393" height="7.18258" viewBox="0,0,5.00393,7.18258"><g transform="translate(-299.20412,-13.58871)"><g fill="#ff0000" fill-rule="evenodd" stroke="#ffffff" stroke-width="0" stroke-linecap="round" stroke-linejoin="round" stroke-miterlimit="10"><path d="M302.80567,17.8966l0.08946,0.20203l0.2725,-0.02532l0.14863,0.1006l0.20506,-0.02367l0.03715,0.15593l0.18992,0.0644l0.10183,0.105l0.29039,0.605l0.06468,0.45925l0.00276,0.2158l-0.25873,0.22144l-0.02752,0.14877l-0.30828,0.30291l-0.52159,0.22117l-0.15,0.12138l-0.14038,-0.15676l-0.31653,-0.17368l-0.15,-0.20809l-0.18442,-0.0662l-0.1968,-0.18428l-0.05917,-0.17932l-0.12523,-0.09248l-0.04542,-0.14987l-0.11011,-0.06056l-0.07431,-0.29341l-0.08808,-0.14023l0.17203,-0.11738l-0.08532,-0.18195l-0.04267,-0.26837l0.28625,-0.37034l0.23809,-0.11835l0.11834,-0.22543l0.27663,-0.17244l0.39085,0.28447"></path><path d="M299.46143,13.98948l0.18442,0.17244l0.20368,0.03853l0.26699,-0.10747l0.05092,-0.09125l-0.04403,-0.35094l0.22433,0.20232l0.24084,0.5538l-0.07155,0.02711l-0.07157,0.24676l-0.00137,0.44245l0.04817,0.44672l-0.01514,0.22748l-0.13212,0.21346l0.10046,0.41699l-0.15964,0.47343l0.02065,0.33194l-0.29039,0.08188l-0.11834,-0.18538l0.13625,-0.24868l-0.08809,-0.32576l-0.1913,-0.22447l-0.09496,-0.5308l-0.23121,-0.62055l0.1101,-0.05987l-0.07569,-0.19626l0.0867,-0.21194l-0.06331,-0.10624l0.09772,-0.15523l-0.03716,-0.17574l-0.1266,-0.12345l-0.21607,-0.05946l0.14313,-0.17711l-0.12661,-0.10639l-0.00413,-0.21909l0.24496,0.40075"></path></g></g></svg>