<svg version="1.1" xmlns="http://www.w3.org/2000/svg" xmlns:xlink="http://www.w3.org/1999/xlink" width="12.67714" height="6.91584" viewBox="0,0,12.67714,6.91584"><g transform="translate(-173.85449,-210.10865)"><g fill="#ff0000" fill-rule="evenodd" stroke="#ffffff" stroke-width="0" stroke-linecap="round" stroke-linejoin="round" stroke-miterlimit="10"><path d="M186.32258,216.93841l0.20905,-0.02828l-0.13895,0.11436l-0.0701,-0.08609"></path><g><path d="M183.45738,214.36833l-0.15249,0.01967l-0.14511,0.18569l-0.24716,0.05288l-0.15495,-0.05411l0.02828,-0.13035l0.08116,-0.10945l-0.28899,-0.02337l-0.08731,-0.15002l-0.2447,-0.06887l-0.05903,-0.16233l-0.02706,-0.33816l-0.14141,-0.25087l-0.05902,-0.19797l0.0455,-0.26192l-0.03444,-0.10085l-0.11559,0.04673l-0.15249,0.12666l-0.1279,0.21643l-0.20782,0.40826l-0.06763,0.05165l0.04673,0.36522l-0.15372,0.02582l-0.40334,-0.26192l-0.08239,-0.00492l-0.12297,-0.16355l-0.19676,-0.06394l-0.11805,-0.23611l-0.23858,0.09469l0.1279,0.12912l-0.00369,0.13527l-0.20168,-0.06149l-0.12912,0.11314l-0.06026,0.17708l0.22748,0.23732l-0.01844,0.08731l0.09715,0.27545l0.01721,0.13527l-0.1033,0.28651l-0.08977,0.04181l0.03074,0.16971l-0.07747,0.04673l-0.09223,0.24841l0.01845,0.07993l0.21643,0.04549l0.09469,0.22748l-0.21028,0.12297l-0.17955,-0.01598l0.01844,0.09715l-0.07132,0.14388l0.02583,0.12174l-0.20905,-0.0246l-0.17217,0.1574l-0.21643,0.04303l-0.21766,-0.05902l-0.24593,-0.0787l-0.11806,-0.21028l-0.29758,0.03566l-0.13527,-0.22258l-0.10698,-0.09592l-0.2152,-0.08731l-0.15126,0.07747l-0.04058,-0.06763l-0.25454,0.04919l-0.08854,0.14511l-0.1033,-0.11806l-0.1365,0.03689l-0.13281,-0.23611l-0.1242,0.09715l-0.15002,-0.22627l-0.13773,0.01353l-0.07255,0.08485l-0.25333,-0.11806l-0.11068,-0.1242l-0.22996,0.06887l-0.14757,0.00246l-0.09591,0.16478l-0.04673,0.17339l-0.29268,0.00246l-0.09469,0.02828l-0.04673,-0.19676l-0.14141,-0.1279l-0.00861,-0.17337l-0.18323,-0.08731l-0.12543,-0.17831l-0.08238,-0.02214l-0.14265,-0.16356v-0.08731l-0.23857,-0.06887l-0.00123,-0.11068l-0.12297,-0.15372l-0.12174,-0.08977l0.04304,-0.13281l0.15495,-0.27914l0.09223,-0.03074l0.14388,-0.08731l0.18692,-0.19922l0.12052,-0.00368l0.182,-0.07132l0.1697,0.04673l0.25208,-0.14757l0.21643,0.16478l0.12051,-0.03444l0.20414,0.07132l0.31726,-0.03565l0.16601,0.08362l0.13773,-0.00492l0.4058,-0.08854l0.06026,-0.11313l-0.01721,-0.18569l0.1242,-0.08363l0.1242,-0.14265l0.04549,-0.2066l-0.05411,-0.14511l-0.12543,-0.10085l-0.04427,-0.11067l0.07379,-0.21521l-0.00615,-0.11805l0.09469,-0.17831l0.23857,-0.00122l0.21151,0.17955l0.20291,0.05042l0.08116,-0.14265l0.16356,0.11313l-0.03444,0.06395l0.15126,0.09469l0.06518,0.13404l0.21521,0.06641l0.05533,-0.03074l0.3099,-0.02828l0.17462,0.03197l0.05411,0.11191l0.12297,0.00492l0.10945,-0.06271l0.43778,0.01353l0.14634,0.06025l0.17831,-0.01476l0.17708,0.04182l-0.1242,-0.18077l-0.00492,-0.1365l0.47097,-0.40334l0.14142,-0.02337l0.01598,-0.14511l0.11314,-0.09469l0.01967,-0.10575l0.14634,-0.0209l-0.03198,-0.13281l0.0578,-0.24718l0.1365,-0.03074l0.05042,0.06025l0.18077,-0.07132l0.09223,-0.08485l0.14757,0.01106l0.15126,-0.10822l0.0578,0.17339l0.11313,-0.00492l-0.02337,-0.17339l0.15741,-0.07993l0.09223,0.07747l0.16724,0.00123l-0.00369,0.12174l0.21397,0.06271l0.1365,-0.11682l0.13895,0.28651l0.16971,-0.10206l0.07993,0.091l0.08239,0.20414l0.12297,0.15126l0.11191,-0.00615l0.09715,0.38613l0.07747,0.13281l0.08854,0.00492l0.13404,0.23242l0.10206,0.11806l-0.01352,0.08977l0.09223,0.17585l-0.0123,0.41072l-0.08362,0.27053l-0.03935,0.23119l0.01722,0.13895l0.1033,-0.03566l-0.00368,0.42794l-0.14019,-0.01722l-0.1033,0.26684l-0.14265,-0.05411"></path><path d="M183.24834,210.22423l-0.17585,0.10207l-0.12789,0.1279l-0.09346,-0.06518l-0.14757,-0.00615l-0.01106,-0.13035l0.11929,0.00492l0.15495,-0.14879l0.04919,0.0209l0.23242,0.09469"></path></g><g><path d=""></path><path d=""></path><path d=""></path><path d=""></path><path d=""></path><path d=""></path><path d=""></path><path d=""></path><path d=""></path><path d=""></path><path d=""></path></g></g></g></svg>