<svg version="1.1" xmlns="http://www.w3.org/2000/svg" xmlns:xlink="http://www.w3.org/1999/xlink" width="9.32528" height="7.67663" viewBox="0,0,9.32528,7.67663"><g transform="translate(-299.54682,-57.36951)"><g fill="#ff0000" fill-rule="evenodd" stroke="#ffffff" stroke-width="0" stroke-linecap="round" stroke-linejoin="round" stroke-miterlimit="10"><path d="M308.24179,57.89262l0.18716,0.10556l0.05506,0.18662l0.12248,0.08629l0.26561,0.38521l-1.17667,0.82299l0.06331,0.14313l0.01927,0.26699l-0.19955,0.09909l-0.01101,0.12111l-0.13349,0.15139l0.06056,0.2023l-0.27387,0.04954l-0.33992,0.11423l-0.35094,-0.12799l-0.15827,-0.00826l-0.13075,0.46516l0.04267,0.09358l-0.1913,0.37433l-0.06194,0.42389l-0.10597,0.19404l-0.36882,0.46516l-0.15276,0.15827l-0.04267,0.22571l0.04129,0.13625l-0.63856,-0.05506l-0.17203,0.28213l-0.31653,0.11423l-0.19405,-0.04542l-0.08119,-0.18304l-0.1569,-0.08257l-0.14313,0.06605l-0.08809,0.18167l-0.40874,0.17341l-0.00551,0.30139l-0.18578,0.16102l-0.15002,0.47205l-0.17753,0.13763l0.16653,0.29312l-0.11835,0.07432l-0.32341,0.06194l-0.16789,-0.03578l-0.36057,0.10184l-0.07019,-0.09359l-0.21194,-0.06331l-0.0977,-0.27524l-0.54911,-0.35919l0.10322,-0.09222l-0.0867,-0.278l0.12661,-0.08809l-0.08395,-0.14863l0.0578,-0.26424l0.07431,-0.06056l-0.10734,-0.20643l-0.17065,0.08395l-0.10322,-0.11561l-0.43214,0.03165l-0.11698,-0.03165l-0.07707,-0.39361l-0.09634,-0.11973l0.0922,-0.09358l0.12661,-0.35232l0.07294,-0.07155l0.06331,-0.23258l-0.1679,-0.10322l-0.3702,-0.139l-0.09908,-0.24772l-0.11284,-0.14175l-0.07294,-0.15827l0.08532,-0.1156l0.01238,-0.22707l-0.12111,-0.20369l0.2725,-0.18442l0.2078,-0.05092l0.25873,-0.28901l0.00276,-0.18716l0.18442,-0.13487l0.15552,-0.44452l-0.10459,-0.21057l0.13075,-0.10734l0.06056,-0.17478l0.21607,-0.03165l0.3881,0.15827l0.3124,0.31653l0.2078,0.11423l0.19818,-0.19268l0.19955,-0.39085l0.15964,-0.15414l-0.11834,-0.10046l-0.02891,-0.13391l0.46241,-0.33567l0.23121,0.11698l0.13075,-0.13308l0.48581,0.47742l0.40324,-0.24015l0.2835,-0.04376l0.22157,-0.20492l0.12661,-0.308l0.30001,0.07872l0.10873,-0.03221l0.20506,-0.29286l0.0867,0.05284l-0.13212,0.17327l0.06331,0.13281l0.21057,-0.03701l0.20093,0.05161l0.06056,0.14368l1.90058,-0.2118l0.03303,0.28447l0.60967,-0.06675"></path></g></g></svg>