<svg version="1.1" xmlns="http://www.w3.org/2000/svg" xmlns:xlink="http://www.w3.org/1999/xlink" width="8.25447" height="7.45576" viewBox="0,0,8.25447,7.45576"><g transform="translate(-162.10411,-226.4809)"><g fill="#ff0000" fill-rule="evenodd" stroke="#ffffff" stroke-width="0" stroke-linecap="round" stroke-linejoin="round" stroke-miterlimit="10"><g><path d="M164.90114,228.25169l-0.06764,0.12543l0.16478,0.25333l-0.00984,0.21274l-0.09961,0.08239l0.07501,0.06887l0.02214,0.18077l0.05533,0.15372l0.00615,0.2447l-0.14879,0.1242l0.04426,0.19553l0.09469,-0.05657l0.12666,0.05042l0.04673,0.09592l-0.07993,0.08362l0.10822,0.16478l-0.08609,0.05902l-0.13896,0.26563l0.0123,0.1697l-0.05902,0.03075l-0.21889,0.27545l-0.15863,0.04919l-0.05657,-0.09223l0.00246,-0.13527l0.10821,-0.13527l-0.02706,-0.0578l-0.19922,0.22259l-0.02214,0.15125l-0.1119,0.0246l0.00246,0.14634l0.19059,0.00615l0.03689,0.08239l-0.21151,0.18692l-0.19182,-0.07501l-0.13527,0.14265l-0.24347,0.42671l-0.02951,0.25208l-0.13404,0.05042l-0.091,-0.02828l-0.12052,0.07747l0.10207,0.09346l-0.08977,0.1033l-0.18692,0.00122l-0.16725,0.13773l-0.05287,-0.10576l-0.13158,0.00246l0.03689,0.12789l-0.11928,0.16478l-0.12173,-0.0123l-0.00492,-0.14019l-0.13158,0.08731l-0.1204,-0.11314l0.06112,-0.04919l0.03455,-0.19797l0.18211,-0.06518l-0.02705,-0.18569l-0.27903,-0.06394l-0.0798,-0.09592l-0.10109,0.08977l-0.05595,-0.11068l0.13785,-0.30618l0.14793,-0.2066l0.13294,-0.08608l0.07747,-0.13895l0.29635,-0.0578l0.11068,0.06148l0.09223,0.1611l0.00246,0.12051l0.1365,0.00368l0.05411,-0.14634l-0.01844,-0.24964l-0.33817,-0.10452l-0.12052,0.0578l-0.28406,-0.00368l-0.14154,0.02706l-0.01598,-0.23119l-0.14313,-0.02706l0.00246,-0.24349l-0.07685,-0.20414l0.16047,-0.28529l0.07439,-0.01844l0.05251,-0.38982l0.10367,-0.35661l0.15863,-0.18692l0.10576,-0.21643l0.12052,-0.1574l-0.0332,-0.14879l0.06518,-0.19184l0.08485,-0.01721l-0.14757,-0.3849l-0.2816,-0.17462l0.16109,-0.12297l0.15003,0.02705l-0.06148,0.14019l0.13281,0.16478l0.27545,-0.01229l0.19922,-0.11436l0.18321,-0.14879l0.25579,-0.13895l0.36153,-0.08977l0.3603,-0.00984l0.14019,0.02582l0.08609,0.23857l-0.02337,0.10085l0.06026,0.29881"></path><path d="M169.99212,231.08l-0.1697,0.22996l0.06394,0.04303l0.01476,0.18077l-0.17831,0.24964l0.01352,0.19307l-0.08609,0.09346l0.03444,0.19305l-0.07132,0.26563l0.06641,0.05533l-0.09346,0.18569l0.15126,0.12173l0.06148,0.14634l-0.09469,0.11806l-0.07747,0.18692l-0.30988,0.01106l-0.14019,0.0701l-0.07255,0.17339l-0.28283,0.02214l-0.09838,-0.06763l-0.2066,0.09961l-0.19061,-0.07747l-0.01106,0.2398l-0.11068,0.09961l-0.31726,0.02337l-0.47344,-0.08977l0.00738,-0.06026l-0.13896,-0.14264l-0.06518,-0.19184l-0.08239,-0.04673l-0.23611,-0.26192l0.23858,-0.34062l-0.1033,-0.13404l0.18323,-0.18077l0.09223,-0.19922l0.36769,-0.13527l0.08977,-0.06025l-0.08977,-0.12911l0.08485,-0.04673l0.02214,-0.15249l0.21766,-0.13158l0.09837,-0.25454l0.1156,0.06518l0.11928,-0.0209l0.15249,-0.18938l-0.21889,-0.01967l-0.00861,-0.21151l-0.06518,-0.07993l0.20414,-0.30006l0.30496,-0.23486l-0.22627,-0.11928l0.27545,-0.30865l0.32587,-0.33079l0.06518,0.06518l-0.15863,0.2816l-0.03074,0.18077l0.03443,0.09961l0.12666,0.03074l0.14757,-0.22504l0.09469,-0.02705l0.20905,0.15495l0.13035,-0.07132l0.14634,0.05042l0.07747,-0.04182l0.16109,0.03075l0.06763,0.13773l0.07132,-0.04058l0.13773,0.03443l-0.07747,0.14511l-0.38982,0.17585l-0.04058,0.22627l0.14141,0.24349"></path><path d="M167.82785,228.76816l-0.08977,0.20782l-0.12052,0.07255l-0.13281,0.24716l0.09223,0.0455l0.00368,0.11436l-0.19182,0.35538l-0.22504,0.16233l-0.18569,-0.04182l-0.13158,0.18569l-0.11314,-0.32464l0.08731,-0.09346l-0.03935,-0.17708l-0.11191,0.16724l-0.15249,0.1033l-0.25579,0.04795l-0.37137,-0.09961l-0.04427,-0.13527l-0.15863,0.02337l-0.01598,0.09837l-0.10085,0.15372v0.08239l-0.11191,0.04427l-0.11191,-0.04182l0.14511,-0.13895l-0.02582,-0.22627l-0.14879,-0.03935l-0.08238,0.04427l-0.07132,-0.15863l-0.16971,-0.27668l-0.01106,-0.13773l0.14634,-0.08362l0.42424,-0.19061l0.09838,-0.12789l0.28037,-0.07379l0.1574,-0.12174l-0.0086,-0.07993l0.21151,-0.18446l0.05657,-0.10206l0.23119,-0.06271l0.10822,0.00246l0.19921,-0.08238l0.1242,0.04058l-0.01107,0.09469l0.25579,0.05902l-0.00246,0.1365l0.06641,0.06763l0.12789,-0.21643l0.16724,-0.11805l0.16847,0.05411l0.11313,-0.1365l0.06764,0.08608l0.10821,-0.01967l0.05903,-0.091l-0.1033,0.34185l-0.18077,0.29883l-0.01967,0.2447"></path><path d="M168.09838,227.05887l-0.13404,0.20291l0.03689,0.17954l-0.1242,0.09961l-0.01722,0.07624l-0.13404,-0.00615l-0.06271,-0.06026l-0.22012,0.02459l0.02951,-0.21274l0.11682,-0.22627l-0.2816,-0.07379l0.01844,-0.07993l0.13035,-0.10084l0.19305,-0.27668l0.11806,-0.00123l0.14388,-0.12297l0.15372,0.2447l-0.1365,0.14388l0.04795,0.11806l0.12174,0.07132"></path><path d="M166.89327,230.85866l-0.18692,0.20044l-0.17339,0.08977l-0.17585,-0.07501l0.06394,-0.08731l0.14879,-0.00246l-0.04919,-0.23119l0.09223,-0.06025l0.08977,-0.16478l0.13158,-0.04796l0.23119,0.13282l-0.12544,0.11436l-0.04673,0.13158"></path><path d="M166.41368,230.6496l-0.06518,-0.11682l-0.17462,-0.0332l-0.02828,-0.12297l0.14019,0.01967l0.04427,-0.14879l0.06763,0.07379l0.25208,0.16601l-0.13527,0.05411l-0.10084,0.10821"></path><path d="M163.06889,233.1582l-0.04673,0.12297l-0.15495,-0.23611l-0.10084,0.07379l-0.10698,-0.02337l0.05287,-0.21028l0.11805,-0.06763l0.13158,0.14757l-0.04426,0.06394l0.15126,0.12912"></path><path d="M168.13527,227.25561l0.08854,-0.17094l0.06886,-0.03935l0.17094,0.25333l-0.20782,0.29022l-0.05533,-0.07501l-0.06518,-0.25825"></path><path d="M167.49583,230.02245l0.07132,-0.22874l0.09837,0.08239l-0.0209,0.22135l-0.14879,-0.07501"></path><path d="M164.12643,231.78093l-0.01352,-0.1365l0.09223,-0.08116l0.08977,0.04673l-0.02459,0.13527l-0.14388,0.03566"></path><path d="M166.78259,230.19461l0.05042,0.11805l-0.07009,0.04549l-0.09592,-0.08609l0.1156,-0.07747"></path></g></g></g></svg>