<svg version="1.1" xmlns="http://www.w3.org/2000/svg" xmlns:xlink="http://www.w3.org/1999/xlink" width="7.61436" height="9.24743" viewBox="0,0,7.61436,9.24743"><g transform="translate(-172.61133,-214.28354)"><g fill="#ff0000" fill-rule="evenodd" stroke="#ffffff" stroke-width="0" stroke-linecap="round" stroke-linejoin="round" stroke-miterlimit="10"><path d="M178.85828,216.34816l-0.09592,0.14019l-0.1033,0.02951l0.19676,0.16233l-0.25946,0.32466l-0.14757,0.11436l-0.05534,0.23119l-0.09469,0.05903l-0.08977,0.13404l-0.12789,0.07132l0.15002,0.23611l0.09592,0.23242l0.23609,0.17337l-0.08238,0.09223l0.0787,0.14019l0.11928,-0.08731l0.06887,0.06148l-0.10822,0.14019l-0.33079,0.10821l-0.35293,0.29635l-0.02828,0.19553l0.17339,-0.02828l0.1156,0.10207l0.13896,-0.03566l0.23486,0.22627l0.26315,-0.05657l0.05902,0.06148l0.18815,-0.01967l0.0701,-0.07501l-0.07747,-0.07993l0.22381,-0.1156l0.08116,-0.21889l0.13896,-0.08854l0.03689,-0.09346l0.40334,-0.0209l0.06271,0.05657l0.15002,-0.02582l0.03566,0.12666l-0.06518,0.10698l-0.10698,0.05533l-0.0123,0.12051l0.07132,0.05533l-0.01353,0.15863l-0.18323,0.24595l-0.16109,0.14634l-0.07624,0.14511l0.06148,0.09961l-0.10452,0.07132l0.07993,0.13773l-0.14879,0.28899l-0.14141,0.02706l0.04673,0.19922l0.09715,-0.01476l0.06886,0.10084l0.13527,0.02706l0.13527,0.07993l0.06518,0.5091l-0.17462,0.29145l-0.0123,0.18938l-0.11682,0.09592l0.03075,0.10084l-0.09837,0.19676l0.07747,0.14879l0.01598,0.25087l-0.15618,0.2066l0.10945,0.08362l-0.12297,0.20782l-0.30496,0.19182l-0.15371,0.02828l-0.03197,0.06026l-0.08362,-0.07993l-0.13281,0.00615l-0.08609,-0.16233l-0.15126,-0.12666l-0.19307,-0.06148l-0.2816,-0.29145l-0.09592,-0.03689l-0.13035,-0.27301l-0.00246,-0.38736l-0.08609,-0.23119l0.02951,-0.11191l-0.02337,-0.20536l0.11682,-0.02214l0.08854,-0.20044l-0.19676,-0.07747l0.00615,-0.18815l-0.15249,-0.1943l-0.14388,-0.12666l-0.09346,-0.49803l-0.2398,-0.28899l-0.12913,-0.04549l-0.14141,-0.13527l-0.02706,-0.09714l0.01107,-0.22258l-0.11806,-0.17093l0.04058,-0.17955l-0.07009,-0.17708l-0.16233,-0.13158l-0.00246,-0.07747l-0.17093,-0.07379l-0.06148,-0.10084l-0.12913,-0.04919l-0.03565,-0.14634l-0.12174,-0.08977l-0.12543,0.01721l-0.34308,-0.09223l-0.08854,-0.05411l-0.26438,0.01476l-0.27301,0.23857l-0.13404,0.00246l-0.14142,-0.08977l-0.10698,0.22627l-0.01476,0.23611l-0.07132,0.14879l0.1611,0.18323l0.02951,0.15126l0.18446,0.15987l0.18569,0.30867l-0.11805,0.1156l-0.04673,0.14388l0.08608,0.09101l-0.07255,0.30129l-0.10453,0.15126l-0.15249,0.13158l-0.25331,0.00122l-0.1365,-0.19797l-0.02705,-0.14511l-0.12543,-0.08362l-0.14264,-0.03321l-0.14511,0.04673l-0.20414,-0.19061l-0.08362,0.0123l-0.12666,-0.28651l-0.15987,-0.12173l-0.1574,-0.0455l-0.257,0.01352l-0.03935,-0.14634l0.16601,-0.07501l0.10207,-0.12297l0.05657,-0.1365l0.06271,-0.30373l0.10207,-0.08116l-0.03689,-0.17093l0.01476,-0.14019l0.09715,-0.03075l0.02214,-0.14634l-0.29268,-0.09961l-0.33447,-0.25825l0.02828,-0.09346l0.25579,-0.17831l-0.08731,-0.04673l-0.32218,-0.06641l-0.01967,-0.20905l0.04919,-0.09469l0.20413,-0.00122l0.1242,-0.07379l0.10452,0.0209l-0.091,-0.20905l0.00738,-0.14142l0.11314,-0.10575l-0.04058,-0.18938l-0.08239,-0.19921l-0.07009,-0.26684h-0.10453l-0.08362,-0.10084l0.32587,-0.28037l0.00738,-0.20782l0.28776,-0.03689l-0.01476,-0.15126l0.08731,-0.59641l0.07255,-0.12666l0.0332,-0.1574l0.12544,-0.0086l0.1943,-0.11559l0.12174,0.08977l0.12297,0.15372l0.00122,0.11067l0.23858,0.06887v0.08731l0.14265,0.16356l0.08239,0.02214l0.12543,0.17831l0.18323,0.08731l0.0086,0.17339l0.14141,0.12789l0.04673,0.19676l0.09469,-0.02828l0.29268,-0.00246l0.04673,-0.17339l0.09591,-0.16478l0.14757,-0.00246l0.22996,-0.06887l0.11068,0.1242l0.25331,0.11805l0.07255,-0.08485l0.13773,-0.01352l0.15002,0.22627l0.1242,-0.09715l0.13281,0.23609l0.1365,-0.03689l0.1033,0.11805l0.08854,-0.14511l0.25454,-0.04919l0.04058,0.06763l0.15126,-0.07747l0.2152,0.08731l0.10698,0.09592l0.13527,0.22258l0.29758,-0.03566l0.11806,0.21028l0.24593,0.0787"></path></g></g></svg>