<svg version="1.1" xmlns="http://www.w3.org/2000/svg" xmlns:xlink="http://www.w3.org/1999/xlink" width="5.84546" height="7.46103" viewBox="0,0,5.84546,7.46103"><g transform="translate(-201.15902,-182.89851)"><g fill="#ff0000" fill-rule="evenodd" stroke="#ffffff" stroke-width="0" stroke-linecap="round" stroke-linejoin="round" stroke-miterlimit="10"><path d=""></path><path d="M206.9004,183.46229l0.01487,0.34939l-0.04213,0.22301l0.02849,0.23789l-0.0384,0.19948l-0.09168,0.08673l-0.0446,0.14495l-0.12639,0.02229l0.10037,0.31098l-0.03593,0.18832l0.02479,0.10902l-0.07682,0.10284l-0.19576,0.01858l-0.02354,0.2639l0.1623,0.13009l0.10408,-0.05823l0.06195,0.10654l0.1363,0.10655l-0.08797,0.10655l0.0384,0.10779l-0.19328,0.24903l0.00991,0.26017l-0.08797,0.15486l0.01735,0.21929l-0.06319,0.10283l0.01734,0.13381l-0.16478,0.23044l-0.11152,-0.02849l-0.13753,0.10655l-0.21807,-0.06195l-0.14495,0.19081l0.12266,0.11646l0.16973,0.50921l-0.12266,0.06071l-0.03593,-0.11522l-0.1016,-0.0384l-0.11895,0.07309l-0.29364,0.09416l-0.09663,0.10407l-0.24035,0.05824l-0.11769,-0.02725l-0.27877,-0.17594l-0.1016,-0.01735l-0.14,0.07929l-0.03346,0.1747l0.06319,0.08426l0.08177,0.31221l0.07558,0.06319l0.00743,0.26763l-0.10407,0.10283l-0.30479,-0.00496l-0.14991,0.06814l-0.1462,0.14248l-0.2069,-0.08797l-0.12513,0.1747l-0.10779,0.01734l-0.25275,-0.15115l-0.13256,0.12018l0.03098,0.37789l-0.17222,0.07309l-0.09664,0.1276l-0.10283,-0.08673l-0.08673,-0.17841l-0.17222,-0.05823l-0.15736,0.16479l-0.15239,-0.08673l-0.19204,0.02106l-0.24655,0.0793l-0.1363,-0.00247l-0.0892,-0.1016l-0.23912,0.14248l-0.06938,-0.14371l0.06071,-0.13009l-0.057,-0.0892l0.0384,-0.17097l0.07186,-0.08053l-0.06566,-0.18088l0.07806,-0.09788l0.02229,-0.24284l0.11275,-0.13877l0.33081,-0.12142l0.13256,-0.19699l-0.1747,-0.49684l-0.11151,-0.09167l-0.23417,0.07433l-0.00496,-0.22674l0.13381,-0.057l0.22674,-0.18088l0.30603,-0.11522l0.07062,0.0062l0.38903,-0.13381l0.10532,-0.13381l0.28869,0.02229l0.08673,-0.06939l0.25152,-0.01115l0.08301,-0.10655l-0.02354,-0.17841l-0.09663,-0.15735l0.09167,-0.16974l-0.17717,-0.26267l0.03718,-0.12266l0.00496,-0.31221l0.15735,-0.26019l0.09044,0.01612l0.09541,-0.18214l-0.12514,-0.14991l0.09293,-0.1239l-0.0062,-0.22548l-0.05327,-0.11275l0.06691,-0.08673l-0.06195,-0.12143l-0.28372,-0.11149l-0.00247,-0.05575l-0.23292,-0.1276l-0.26019,-0.337l-0.07806,-0.04708l-0.36178,-0.47453l-0.14495,-0.1016l-0.09541,-0.18708l0.05204,-0.12266l-0.02602,-0.01487l0.21683,-0.16849l0.11399,-0.03966l0.20938,-0.00371l0.17222,0.11399l-0.10037,0.06815l0.12639,0.26514l-0.0892,0.10408l0.09293,0.15239l0.23541,0.25027l0.16726,0.13134l0.36921,0.17593l0.31221,0.08426l0.15611,0.01735l0.37913,0.09168l0.25027,-0.01735l0.19699,-0.12514l0.06689,-0.29115l0.12018,-0.08053l0.0446,-0.10407l0.17222,-0.06938l0.15488,-0.00373l0.36302,-0.24903l0.21062,-0.08176l0.14867,0.01858l0.18088,-0.02973l0.27628,-0.13628l0.27381,-0.02478l0.06689,0.08549l0.15735,0.06566l-0.10407,0.15239"></path></g></g></svg>