<svg version="1.1" xmlns="http://www.w3.org/2000/svg" xmlns:xlink="http://www.w3.org/1999/xlink" width="8.68022" height="9.83745" viewBox="0,0,8.68022,9.83745"><g transform="translate(-288.30799,-176.64671)"><g fill="#ff0000" fill-rule="evenodd" stroke="#ffffff" stroke-width="0" stroke-linecap="round" stroke-linejoin="round" stroke-miterlimit="10"><path d="M296.75033,179.91883l0.16726,0.05204l0.06442,0.12143l-0.03964,0.08796l0.04584,0.13876l-0.057,0.05824l-0.0446,0.25027l-0.06442,0.05327l-0.15983,-0.05204l-0.17345,-0.23541l-0.29983,0.02973l-0.56621,0.20939l-0.13505,0.07186l-0.32338,-0.00744l-0.11647,-0.10283l-0.27381,0.01487l-0.34567,0.11895l-0.25276,0.12637l-0.32212,0.22054l-0.77683,0.66408l-0.35681,0.337l-0.38656,0.41134l-0.21063,0.27628l-0.15363,0.25647l-0.22921,0.29239l-0.21434,0.36302l-0.21559,0.49684l-0.18337,0.63931l-0.06566,0.35558l-0.01858,0.36177l0.00744,0.33329l0.07186,0.36302l-0.12266,-0.06442l-0.19328,0.08301l0.02725,-0.20442l-0.26142,-0.04584l-0.32956,0.03221l-0.10655,-0.03221l-0.14,0.12514l-0.15488,0.06319l-0.06442,0.18213l-0.14124,0.03593l-0.0793,0.08426l-0.22674,-0.06814l-0.08301,-0.14001l-0.15735,0.05823l-0.10284,0.09912l-0.06442,-0.1685l-0.09417,-0.08673l-0.08301,-0.39647l-0.09788,-0.15859l0.11151,-0.13133l-0.14371,-0.20319l-0.17841,-0.35435l0.0161,-0.07806l-0.09293,-0.1462l0.12266,-0.10779l0.02354,-0.1623l-0.19699,-0.13009l0.04336,-0.19081l0.2515,-0.01239l0.08921,-0.07309l0.05824,-0.15239l0.21929,-0.00867l0.16107,0.07681l0.17594,-0.17593l0.28371,-0.11399l0.00373,-0.12142l0.14371,-0.17594l0.07433,-0.18832l-0.1363,-0.1623l0.13505,-0.09788l0.02849,-0.18832l-0.06815,-0.08797l0.04708,-0.09541l0.32958,-0.20442l0.06442,-0.09912l-0.0384,-0.15859l-0.15363,-0.15115l0.07433,-0.05824l-0.08673,-0.12266l0.10779,-0.09293l0.11275,0.07186l0.04708,-0.10532l-0.07558,-0.10902l0.03099,-0.18213l0.1338,-0.12018l0.12762,-0.25275l0.16602,-0.15239l0.16107,0.08921l0.0508,-0.03099l0.16355,0.1016l0.09912,-0.04089l0.03221,-0.14l-0.19824,-0.02478l-0.15115,-0.17097l0.11646,-0.04213l0.03718,-0.13753l-0.24159,-0.20319l0.02602,-0.20566l0.10779,0.02229l0.28372,-0.06319l0.02973,-0.17222l-0.02725,-0.15363l-0.07806,-0.06814l0.11646,-0.10655l0.057,-0.17841l0.20195,0.17222l0.15362,-0.08426l0.08549,-0.11895l0.01734,-0.22674l0.09168,-0.057l0.0508,-0.29239l0.15486,-0.11646l-0.057,-0.1747l-0.04336,-0.26637l-0.09912,-0.11646l-0.18708,0.10902l-0.2515,-0.03593l-0.17222,0.18584l-0.10779,0.00992l0.08053,-0.29735l-0.11026,-0.16602l-0.20442,-0.18584l0.00496,-0.10902l0.25522,-0.1016l0.26637,0.03966l0.37789,-0.13134l0.12266,-0.17594l0.32338,0.25771l0.07559,-0.08797l-0.04214,-0.20195l0.12514,-0.08053l0.02973,-0.16107l0.14248,-0.21929l0.32461,0.30603l0.41134,0.22425l0.13133,0.11646l0.09044,0.15983l0.12886,0.04336l0.11275,0.11275l0.25771,0.47577l0.02354,0.08549l0.44231,0.09044l0.25275,0.08301l0.24531,0.17593l0.13133,0.20566l0.10779,0.337l0.19576,0.23788l0.57611,0.40762l0.337,0.25894l0.08176,0.03098l0.29735,-0.0062l0.07433,-0.07309"></path></g></g></svg>