<svg version="1.1" xmlns="http://www.w3.org/2000/svg" xmlns:xlink="http://www.w3.org/1999/xlink" width="279" height="279" viewBox="0,0,279,279"><defs><radialGradient cx="240" cy="180" r="139.5" gradientUnits="userSpaceOnUse" id="color-1"><stop offset="0" stop-color="#ffffff" stop-opacity="0.13333"></stop><stop offset="1" stop-color="#ffffff" stop-opacity="0"></stop></radialGradient></defs><g transform="translate(-100.5,-40.5)"><g stroke-miterlimit="10"><path d="M100.5,180c0,-77.04372 62.45628,-139.5 139.5,-139.5c77.04372,0 139.5,62.45628 139.5,139.5c0,77.04372 -62.45628,139.5 -139.5,139.5c-77.04372,0 -139.5,-62.45628 -139.5,-139.5z" fill="url(#color-1)" fill-rule="nonzero" stroke="#000000" stroke-width="0" stroke-linecap="butt" stroke-linejoin="miter"></path><path d="M176.99214,116.99212v0c0,-0.00058 0.00047,-0.00104 0.00105,-0.00104l126.0147,0.00104c0.00027,0 0.00053,0.00012 0.00073,0.00031c0.0002,0.00021 0.00032,0.00049 0.00032,0.00076l-0.00105,126.01468c0,0.00061 -0.00047,0.00104 -0.00105,0.00104l-126.0147,-0.00104v0c-0.00058,0 -0.00105,-0.00049 -0.00105,-0.00104z" fill="#b02200" fill-rule="evenodd" stroke="none" stroke-width="1" stroke-linecap="square" stroke-linejoin="miter"></path><path d="M187.92829,127.92829v0c0,-0.00049 0.00039,-0.00085 0.00087,-0.00085l104.12512,0.00085c0.00023,0 0.00044,0.00009 0.00061,0.00024c0.00015,0.00018 0.00024,0.0004 0.00024,0.00064l-0.00085,104.12509c0,0.00049 -0.0004,0.00089 -0.00087,0.00089l-104.12512,-0.00089v0c-0.00048,0 -0.00087,-0.00037 -0.00087,-0.00085z" fill="#f03200" fill-rule="evenodd" stroke="none" stroke-width="1" stroke-linecap="square" stroke-linejoin="miter"></path><path d="M224.82061,174.96122c-3.34672,0 -6.35616,0.79776 -9.02834,2.39331c-2.67219,1.59552 -4.78658,3.76828 -6.34319,6.51831c-1.55662,2.75 -2.33492,5.83728 -2.33492,9.26184c0,3.42453 0.77831,6.53128 2.33492,9.32019c1.55661,2.78894 3.67101,4.98117 6.34319,6.57669c2.67218,1.59552 5.68163,2.39328 9.02834,2.39328c3.34672,0 6.34968,-0.8172 9.00889,-2.45166c2.67219,-1.63443 4.78658,-3.82666 6.34319,-6.57669c1.55661,-2.75 2.33492,-5.83728 2.33492,-9.26181c0,-3.42456 -0.77831,-6.51184 -2.33492,-9.26184c-1.55661,-2.75003 -3.67101,-4.92279 -6.34319,-6.51831c-2.65921,-1.59555 -5.66217,-2.39331 -9.00889,-2.39331zM240.95102,137.77764l-21.80031,29.72925v0c0.39688,-0.16071 0.80807,-0.3092 1.23358,-0.4455c1.99765,-0.63559 4.35203,-0.9534 7.06313,-0.9534c4.86441,0 9.26833,1.16095 13.21174,3.48291c3.94342,2.30896 7.12798,5.47409 9.5537,9.49533c2.43869,4.02124 3.65804,8.70404 3.65804,14.04843c0,5.25354 -1.29717,10.07257 -3.89153,14.45703c-2.59435,4.38443 -6.10322,7.87384 -10.52659,10.4682c-4.42337,2.58139 -9.30075,3.87207 -14.63215,3.87207c-5.50003,0 -10.42281,-1.27124 -14.76835,-3.81369c-4.34554,-2.55545 -7.79604,-5.98001 -10.35147,-10.27365c-2.54247,-4.30661 -3.8137,-9.0932 -3.8137,-14.35974c0,-7.32904 2.54895,-14.61917 7.64685,-21.87039l24.38043,-33.83685z" fill="#fef8f8" fill-rule="evenodd" stroke="none" stroke-width="1" stroke-linecap="square" stroke-linejoin="miter"></path><path d="M224.82061,174.96122c-3.34672,0 -6.35616,0.79776 -9.02834,2.39331c-2.67219,1.59552 -4.78658,3.76828 -6.34319,6.51831c-1.55662,2.75 -2.33492,5.83728 -2.33492,9.26184c0,3.42453 0.77831,6.53128 2.33492,9.32019c1.55661,2.78894 3.67101,4.98117 6.34319,6.57669c2.67218,1.59552 5.68163,2.39328 9.02834,2.39328c3.34672,0 6.34968,-0.8172 9.00889,-2.45166c2.67219,-1.63443 4.78658,-3.82666 6.34319,-6.57669c1.55661,-2.75 2.33492,-5.83728 2.33492,-9.26181c0,-3.42456 -0.77831,-6.51184 -2.33492,-9.26184c-1.55661,-2.75003 -3.67101,-4.92279 -6.34319,-6.51831c-2.65921,-1.59555 -5.66217,-2.39331 -9.00889,-2.39331zM240.95102,137.77764l-21.80031,29.72925v0c0.39688,-0.16071 0.80807,-0.3092 1.23358,-0.4455c1.99765,-0.63559 4.35203,-0.9534 7.06313,-0.9534c4.86441,0 9.26833,1.16095 13.21174,3.48291c3.94342,2.30896 7.12798,5.47409 9.5537,9.49533c2.43869,4.02124 3.65804,8.70404 3.65804,14.04843c0,5.25354 -1.29717,10.07257 -3.89153,14.45703c-2.59435,4.38443 -6.10322,7.87384 -10.52659,10.4682c-4.42337,2.58139 -9.30075,3.87207 -14.63215,3.87207c-5.50003,0 -10.42281,-1.27124 -14.76835,-3.81369c-4.34554,-2.55545 -7.79604,-5.98001 -10.35147,-10.27365c-2.54247,-4.30661 -3.8137,-9.0932 -3.8137,-14.35974c0,-7.32904 2.54895,-14.61917 7.64685,-21.87039l24.38043,-33.83685z" fill="none" fill-rule="evenodd" stroke="#fef8f8" stroke-width="2" stroke-linecap="butt" stroke-linejoin="round"></path><path d="M284.10787,153.77767v10.15689h-39.32391v-10.15689z" fill="#fef8f8" fill-rule="evenodd" stroke="none" stroke-width="1" stroke-linecap="square" stroke-linejoin="miter"></path><path d="M284.10787,153.77767v10.15689h-39.32391v-10.15689z" fill="none" fill-rule="evenodd" stroke="#fef8f8" stroke-width="1" stroke-linecap="butt" stroke-linejoin="round"></path></g></g></svg>