<svg version="1.1" xmlns="http://www.w3.org/2000/svg" xmlns:xlink="http://www.w3.org/1999/xlink" width="10.3917" height="10.73944" viewBox="0,0,10.3917,10.73944"><g transform="translate(-289.54465,-92.16261)"><g fill="#ff0000" fill-rule="evenodd" stroke="#ffffff" stroke-width="0" stroke-linecap="round" stroke-linejoin="round" stroke-miterlimit="10"><path d="M299.84554,98.32405l-0.37122,0.147l-0.06727,0.20055l0.0573,0.21302l-0.08472,0.19059l-0.26534,0.05357l0.02492,0.18437l-0.04236,0.10091l-0.25661,0.07972l-0.19308,0.1445l-0.06229,0.23918l-0.218,0.19185l0.03737,0.11958l-0.09592,0.11834l-0.17316,0.09966l-0.23918,-0.03612l-0.12208,0.07599l-0.11585,0.30768l0.10713,0.15073l0.20554,0.04111l0.03612,0.08346l0.29897,0.04734l0.20927,0.21177l0.08597,0.12955l-0.07349,0.07599l-0.03489,0.31516l-0.10589,0.14575l-0.05856,0.30022l-0.20057,0.06727l-0.22298,-0.04112l-0.20181,-0.14575l-0.22298,0.01869l-0.13205,0.10837l0.09218,0.18062l-0.09342,0.19185l0.00623,0.16319l-0.17191,0.06977l-0.22299,0.03364l-0.23543,-0.27406l-0.25163,-0.34382l-0.26909,-0.08597l-0.22298,-0.25413l-0.06851,0.08222l-0.25413,-0.00125l-0.13453,-0.08596l-0.30146,0.07349l-0.46465,0.08346l-0.34133,-0.3351l-0.07973,-0.20928l-0.23669,0.03987l-0.21052,-0.07724l-0.24666,0.07847l-0.24291,-0.01245l-0.03737,0.15572l-0.14823,0.02492l-0.04485,-0.17316l0.10091,-0.1283l-0.14824,-0.17316l-0.20554,0.19182l-0.17565,-0.17316l-0.16569,0.08846l-0.00248,0.22797l-0.19683,0.08846l0.02616,0.1495l-0.16942,0.00997l-0.05357,-0.24416l-0.09466,-0.15198l-0.22174,-0.22049l-0.12332,-0.23918l-0.07599,-0.02492l0.00747,-0.20679l-0.23295,-0.0299l-0.02866,-0.13453l-0.12955,0.06727l-0.09095,-0.08596l-0.31018,-0.01495l-0.01619,-0.10339l-0.24168,-0.07599l-0.08222,0.04236l-0.23295,-0.21054l-0.23669,-0.04734l-0.09218,-0.21054l-0.17565,-0.24168l-0.25413,-0.00374l0.23918,-0.4796l0.19433,-0.56431l0.17566,-0.69138l0.07847,-0.37371l0.1009,-0.60168l0.07599,-0.61041l0.05979,-0.8882l-0.01121,-0.39366l-0.04609,-0.21676l-0.09841,-0.07599l-0.06478,-0.14575l-0.22423,-0.22049l-0.10215,-0.0299l-0.29025,0.00248l-0.07973,-0.16443l0.08097,-0.15945l0.09592,0.08346l0.15945,-0.05979l0.32265,0.13081l0.11336,-0.11087l-0.00499,-0.12707l0.11834,-0.03489l0.07972,-0.20181l0.07225,-0.33012l0.00872,-0.41358l-0.06851,-0.2342l0.03862,-0.28028l0.09966,-0.04983l0.07847,-0.32887l0.19059,0.147l0.16693,0.04236l0.26909,0.21426l0.12332,0.25787l0.24666,0.18686l0.07599,0.19557l0.17191,0.10963l0.16195,0.02492l0.10837,0.09841l0.28651,-0.07101l0.20679,-0.1607l0.147,-0.1582l0.02492,-0.17937l0.06851,-0.08346l0.14575,0.05605l0.13827,-0.16194l0.06602,0.05357l0.29897,0.03238l0.10963,0.08471l0.23543,0.08346l0.13827,0.25289l0.18062,0.08969l0.14201,0.31767l-0.12208,0.64777l-0.02865,0.52569l0.03736,0.37995l0.05232,0.27281l0.08346,0.21551l0.01869,0.36624l0.10713,0.65525l0.03986,0.50452l0.04609,0.25911l0.14824,0.56805l0.03362,0.27905l0.09218,0.28777l0.09218,0.18935l0.12707,0.1495l0.22798,0.13081l0.22049,0.22049l0.23045,-0.00747l0.03737,-0.06977l0.25911,0.04609l0.26534,-0.12332l0.2342,-0.24416l0.02241,-0.11087l0.28028,-0.19557l0.06478,-0.17316l0.12955,-0.09592l-0.00746,-0.12458l0.12582,-0.30645l-0.03737,-0.4223l-0.34132,-0.18935l0.24291,-0.06104l0.01245,-0.25661l0.11585,-0.09592l0.08346,-0.24666l0.05107,-0.25911l0.1196,-0.04485l0.16817,0.04734l0.25289,0.24914l0.19557,-0.03862l0.11834,0.04609l0.01869,0.10963l0.13703,0.20305l0.26035,0.19931l-0.02367,0.28403l-0.11834,0.13329l0.09716,0.04859l0.23669,-0.06354l0.11585,0.07972l0.17191,0.03737l0.03362,0.08596l0.24914,0.16194l0.14326,-0.03736l0.11709,0.06229l0.18312,0.27904l0.06478,0.16817l-0.09094,0.00248M290.53376,95.65447l-0.0274,0.10963l0.14077,0.54438l0.21676,0.19932l0.19557,-0.50327l0.26035,-0.0299l0.17316,0.08097l0.08846,-0.07847l-0.12831,-0.17565l-0.35254,0.00623l-0.14575,-0.05232l-0.17067,0.04359l-0.08097,-0.17316l-0.16942,0.02866"></path></g></g></svg>