<svg version="1.1" xmlns="http://www.w3.org/2000/svg" xmlns:xlink="http://www.w3.org/1999/xlink" width="8.39249" height="8.56687" viewBox="0,0,8.39249,8.56687"><g transform="translate(-281.75756,-140.52412)"><g fill="#ff0000" fill-rule="evenodd" stroke="#ffffff" stroke-width="0" stroke-linecap="round" stroke-linejoin="round" stroke-miterlimit="10"><path d="M289.87976,144.00472l0.05979,0.18935l-0.07475,0.12955l0.00872,0.11709l0.16071,0.33884l-0.15696,0.2043l-0.02367,0.1632l0.06229,0.11461l-0.10838,0.1582l0.09966,0.51947l-0.08846,0.21676l-0.06977,0.04609l-0.02492,0.17191l0.07599,0.24416l-0.07225,0.07101l0.06229,0.1881l-0.05357,0.1856l0.02118,0.2342l-0.06478,0.20928l0.08346,0.16319l0.27156,0.14201l0.10215,0.11461l-0.20679,0.15198l-0.07349,0.25911l-0.12583,0.04111l-0.13953,0.22921l-0.13205,0.09716l-0.08846,0.18811l-0.40985,-0.01869l-0.05979,-0.08097l-0.26534,-0.05856l-0.20804,-0.00248l-0.19433,0.06229l-0.07349,0.20928l-0.1582,0.08719l-0.31267,-0.05856l-0.19308,-0.32015l-0.22174,0.00125l-0.05481,-0.15572l-0.20055,-0.17813l-0.13703,0.17439l-0.34009,0.06354l-0.10215,0.07225l-0.19308,-0.01619l-0.10589,-0.09218l0.00997,-0.11834l-0.14326,-0.1582l-0.0897,-0.18687l0.02492,-0.15945l-0.05232,-0.14325l-0.09966,-0.02367l-0.21551,-0.20554l-0.08846,0.24042l-0.28651,0.00747l-0.05481,0.05481l-0.22423,0.00124l-0.20429,-0.23171l-0.09593,-0.01743l-0.22049,0.17689l-0.20804,0.04236l-0.10339,0.12582l-0.11461,-0.03489l-0.01869,-0.12458l-0.09468,-0.05482l-0.15696,-0.22673l-0.51199,0.18437l-0.06354,-0.12332l-0.04236,-0.03987l-0.0299,0.00125l-0.03488,-0.05357l-0.00124,-0.02118l-0.04236,-0.02492l-0.1009,-0.15945l-0.00499,-0.11336l-0.11709,-0.0274l-0.12707,0.11709l-0.18935,0.02492l-0.02242,-0.07225l-0.27281,-0.18935l-0.00498,-0.12955l-0.22673,-0.1308l-0.11461,-0.2155l0.03362,-0.08346l-0.08596,-0.29399l0.08346,-0.20055l0.09468,-0.06977l0.04485,-0.19184l-0.03612,-0.0872l0.06352,-0.16195l-0.08222,-0.09592l0.07101,-0.17565l-0.06229,-0.07225l0.07101,-0.1196l0.11585,-0.07225l-0.02367,-0.37995l0.06478,-0.26658l0.21426,-0.05107l0.22299,-0.25911l-0.07599,-0.14201l-0.00125,-0.17316h-0.17689l0.03114,-0.23172l0.09841,-0.26161l0.1171,-0.07847l-0.04609,-0.34257l0.03986,-0.16693l-0.01371,-0.15945l-0.07225,-0.06354l-0.02742,-0.1632l0.17316,-0.26908l0.02492,-0.13453l0.18437,-0.18437l0.22673,0.09218l0.09094,-0.01993l0.24291,0.1445l0.06851,-0.09466l0.21801,0.07475l0.23669,-0.1283l0.13453,-0.14575l0.10339,-0.01993l0.24042,-0.17067l0.26909,-0.11834l0.10465,-0.26909l0.08846,-0.06602l0.01121,-0.15323l0.29025,-0.22174l0.14201,0.05108l0.13703,0.1881l-0.07349,0.11087l0.00248,0.11585l0.19184,0.19557l0.15198,0.05729l0.01245,0.15322l-0.05606,0.19061l0.24666,0.07972l-0.03238,0.08222l0.1495,0.21426l0.1009,0.06602l0.18437,-0.10963l-0.05107,-0.16567l0.14575,-0.4223l0.08222,-0.05357l0.06851,-0.23295l0.2342,-0.07475l0.13953,0.04983l0.08346,-0.1769l0.16941,-0.15944l0.10713,-0.01869l0.18686,0.26783l0.10589,0.06727l0.13703,-0.0872l0.09094,0.05854l0.15073,-0.14824l0.24168,0.05606l0.09716,0.16817l0.21426,0.04982l0.04734,0.19185l0.19184,0.15945l0.04983,0.11336l-0.00248,0.23171l0.11461,0.20679l-0.04236,0.22798l0.09716,0.06229l-0.05107,0.20554l0.09716,0.13703l-0.04609,0.08846l-0.29149,0.06104l0.0299,0.13827l0.17689,0.17316l0.13703,0.04859l0.03238,0.1881l0.13205,0.00498l0.17938,0.07225l-0.0573,0.17938l0.17937,0.01495l0.16817,0.14575l0.09716,0.20679l0.09841,0.04983"></path></g></g></svg>