<svg version="1.1" xmlns="http://www.w3.org/2000/svg" xmlns:xlink="http://www.w3.org/1999/xlink" width="5.97923" height="4.16412" viewBox="0,0,5.97923,4.16412"><g transform="translate(-206.39248,-183.30006)"><g fill="#ff0000" fill-rule="evenodd" stroke="#ffffff" stroke-width="0" stroke-linecap="round" stroke-linejoin="round" stroke-miterlimit="10"><path d=""></path><path d="M211.49698,183.46229l-0.16974,0.19824l-0.01734,0.20072l-0.12143,0.36797l0.09541,0.16726l-0.07806,0.14744l0.0508,0.19948l0.16479,0.02106l0.07558,0.06814l0.15115,-0.04584l0.21929,0.28496l-0.11769,0.19328l0.3147,0.10284l0.30727,0.15859l-0.12266,0.15363l-0.17097,0.08053l-0.03717,0.1623l-0.21187,-0.0384l-0.22178,0.14371l-0.12639,-0.06691l-0.19204,0.10902l-0.10902,0.12266l-0.17097,-0.00991l-0.04584,0.16974l0.05204,0.06319l-0.08426,0.16726l-0.22798,0.00373l-0.3147,0.19328l-0.24035,0.02354l0.04831,0.30479l-0.1276,0.06319l-0.14744,0.22178l-0.14371,0.07062l-0.17345,-0.057l-0.03593,-0.18584l-0.09416,-0.08301l0.02106,-0.10035l-0.19576,-0.24161l-0.22054,-0.1016l-0.10779,-0.13753l-0.1239,0.0062l-0.10283,-0.13504l-0.26761,0.00124l-0.22425,-0.12266l-0.15982,-0.02725l-0.05327,0.09168l-0.17841,0.02354l-0.14495,-0.07186l-0.20442,-0.18708l-0.21806,-0.04833l-0.11647,0.04336l-0.31965,-0.12514l-0.1363,-0.10655l-0.06195,-0.10655l-0.10407,0.05823l-0.1623,-0.13009l0.02354,-0.2639l0.19576,-0.01858l0.07681,-0.10283l-0.02478,-0.10902l0.03593,-0.18832l-0.10037,-0.31098l0.12637,-0.02229l0.0446,-0.14495l0.09167,-0.08673l0.0384,-0.19948l-0.02849,-0.23788l0.04213,-0.22301l-0.01487,-0.34939l0.10407,-0.1524l0.30974,0.04089l0.47947,0.19948l0.40018,-0.02478l0.25275,0.07806l0.37912,0.03099l0.55382,-0.00124l0.57241,-0.0384l0.63065,-0.06195l0.44975,-0.06938l0.15611,-0.11151l0.08426,0.03345l0.15486,-0.08673l0.07062,0.1623M210.48227,183.7968l-0.14991,0.28001l0.15239,0.11895l0.17345,-0.11522l-0.11522,-0.18832l0.06815,-0.12637l-0.12886,0.03098"></path></g></g></svg>