<svg version="1.1" xmlns="http://www.w3.org/2000/svg" xmlns:xlink="http://www.w3.org/1999/xlink" width="7.98208" height="7.12989" viewBox="0,0,7.98208,7.12989"><g transform="translate(-169.12634,-206.71588)"><g fill="#ff0000" stroke="#ffffff" stroke-width="0" stroke-linecap="round" stroke-linejoin="round" stroke-miterlimit="10"><path d="M176.95225,212.11797l0.00615,0.11806l-0.07379,0.21521l0.04427,0.11067l0.12543,0.10084l0.05411,0.14511l-0.0455,0.2066l-0.1242,0.14265l-0.1242,0.08362l0.01721,0.18569l-0.06025,0.11314l-0.4058,0.08854l-0.13773,0.00492l-0.16601,-0.08362l-0.31728,0.03566l-0.20413,-0.07132l-0.12052,0.03443l-0.21643,-0.16478l-0.25208,0.14757l-0.16971,-0.04673l-0.182,0.07132l-0.12052,0.00369l-0.18692,0.19922l-0.14388,0.08731l-0.0332,-0.1156l-0.11313,-0.0541l0.02706,-0.14634l-0.06272,-0.06026l-0.04795,-0.18077l0.0246,-0.1033l-0.1611,-0.28651l0.04304,-0.12666l-0.01721,-0.21398l-0.04919,-0.16971l-0.18692,-0.26192l-0.06149,-0.1574l0.09592,-0.17831l0.02951,-0.14388l-0.22012,-0.07132l0.03197,-0.11929l-0.13035,-0.12051l0.091,-0.16724l-0.08854,-0.18938l-0.08608,-0.10207l0.03566,-0.15987l-0.07379,-0.08116l-0.04058,-0.14757l-0.02214,-0.29881l-0.14879,-0.00615l-0.09469,0.14511l-0.25331,0.03075l-0.15863,-0.06394l-0.1033,-0.09592l-0.07624,-0.45253l0.03689,-0.0787l-0.09346,-0.14388l-0.12543,-0.07255l-0.14388,-0.01967l-0.05902,0.1365l-0.13158,0.11559l-0.23732,-0.01598l-0.21398,-0.05411l-0.08238,-0.19922l-0.16478,-0.27791l-0.2447,-0.06887l-0.07624,-0.15495l-0.20291,0.03566l-0.11067,0.14141l-0.15987,-0.04673l-0.14511,-0.11805l-0.26315,-0.03812l-0.13773,0.07993l-0.06641,-0.09346l-0.04673,-0.24347l-0.1242,-0.07009l-0.10207,-0.27176l-0.08362,-0.00615l-0.19307,-0.29883l0.01722,-0.07009l0.24347,-0.01599l0.08609,0.14511l0.26192,0.03689l0.18569,-0.01353l0.29022,-0.06641l0.17339,-0.07747l0.23857,-0.18692l-0.01353,-0.18077l0.24964,-0.16233l0.06149,-0.15002l0.16724,-0.06271l0.20167,0.01598l0.27299,0.08362l0.15987,-0.00122v-0.19676l0.19799,-0.03075l0.00123,0.09961l-0.10698,0.09961l0.18692,0.09961l0.02706,-0.10575l0.36768,0.04058l0.13773,0.12789l-0.05287,0.30744l-0.22748,0.17462l-0.14757,0.06641l-0.37014,0.11436l-0.04673,0.06271l0.58288,-0.17217l0.31357,-0.26684l0.0246,-0.25085l0.24841,-0.10945l0.12297,-0.02337l0.56813,0.57427l0.19553,-0.07993l0.182,-0.17339l0.17585,-0.45253l0.19922,-0.13773l0.00738,-0.2152l0.14141,0.0455l0.21766,-0.03935l0.12297,-0.12052l0.22012,0.11314l-0.0209,0.16478l0.0332,0.13774h-0.12666l-0.00246,0.17093l-0.11314,0.08608l0.04673,0.1365l-0.00984,0.16724l-0.1943,0.05411l0.02828,0.06763l0.16109,0.09346l-0.05165,0.23486l-0.16233,-0.11559l0.02582,0.18815l0.11682,0.00615l-0.0578,0.25577l-0.06887,0.00369l-0.13281,0.13773l-0.01106,0.10576l-0.1943,-0.06887l-0.04549,0.13895l0.12174,0.2976l0.22996,-0.01107l0.32587,-0.13773l0.04795,0.11805l-0.13773,0.0787l-0.07624,0.21766l0.06641,0.12174l-0.11314,0.1242l0.05902,0.08238l0.15249,-0.11928l0.07379,0.14019l-0.20782,0.15863l0.09223,0.19676l0.13527,-0.0209l-0.05411,0.15741l0.07625,0.05657l0.11682,0.37505l0.10822,0.19799l0.10945,0.03074l0.16724,0.26192l0.06641,0.19922l0.16109,0.15863l0.04427,0.16724l0.12789,0.13281l0.08363,0.14879l0.09715,-0.00738l0.07132,-0.182l0.11067,0.06148l0.25579,0.01353l0.20905,0.12912l0.20905,-0.06763l0.08485,0.06518l-0.09469,0.17831" fill-rule="evenodd"></path><path d="M172.69747,207.0147l0.15618,0.1574l-0.27913,0.13035l-0.46852,-0.06763l-0.08362,-0.16478h0.27422l0.11313,-0.03935l0.06641,0.0787l0.22135,-0.09469" fill-rule="evenodd"></path><path d="M172.57378,207.29754l-0.46853,-0.06764l-0.08363,-0.16479h0.27422l0.11314,-0.03935l0.06641,0.07871l0.22136,-0.09469l0.15618,0.15741l-0.27916,0.13036" fill-rule="nonzero"></path><path d="M172.57378,207.29754l-0.46853,-0.06764l-0.08363,-0.16479h0.27422l0.11314,-0.03935l0.06641,0.07871l0.22136,-0.09469l0.15618,0.15741l-0.27916,0.13036" fill-rule="nonzero"></path></g></g></svg>