<svg version="1.1" xmlns="http://www.w3.org/2000/svg" xmlns:xlink="http://www.w3.org/1999/xlink" width="169" height="169" viewBox="0,0,169,169"><defs><radialGradient cx="240" cy="180" r="84.5" gradientUnits="userSpaceOnUse" id="color-1"><stop offset="0" stop-color="#ffffff" stop-opacity="0.13333"></stop><stop offset="1" stop-color="#ffffff" stop-opacity="0"></stop></radialGradient></defs><g transform="translate(-155.5,-95.5)"><g stroke-miterlimit="10"><path d="M155.5,180c0,-46.66806 37.83194,-84.5 84.5,-84.5c46.66806,0 84.5,37.83194 84.5,84.5c0,46.66806 -37.83194,84.5 -84.5,84.5c-46.66806,0 -84.5,-37.83194 -84.5,-84.5z" fill="url(#color-1)" fill-rule="nonzero" stroke="#000000" stroke-width="0" stroke-linecap="butt" stroke-linejoin="miter"></path><path d="M176.99212,180.00002v0c0,-34.79828 28.20959,-63.00788 63.00788,-63.00788v0v0c16.71073,0 32.73702,6.63831 44.55329,18.45459c11.81627,11.81628 18.45459,27.84259 18.45459,44.55329v0v0c0,34.79828 -28.2096,63.00787 -63.00788,63.00787v0v0c-34.79829,0 -63.00788,-28.20959 -63.00788,-63.00787z" fill="#29405e" fill-rule="evenodd" stroke="none" stroke-width="1" stroke-linecap="square" stroke-linejoin="miter"></path><path d="M187.92828,179.99127v0c0,-28.7536 23.30939,-52.06299 52.06299,-52.06299v0v0c13.80796,0 27.05039,5.48516 36.8141,15.2489c9.7637,9.76373 15.2489,23.0061 15.2489,36.81409v0v0c0,28.7536 -23.3094,52.063 -52.06299,52.063v0v0c-28.7536,0 -52.06299,-23.30939 -52.06299,-52.06299z" fill="#3c5a82" fill-rule="evenodd" stroke="none" stroke-width="1" stroke-linecap="square" stroke-linejoin="miter"></path><path d="M246.40506,142.87434v75.42487h-10.10029v-66.29748h-15.44229v-9.12738z" fill="#ffffff" fill-rule="evenodd" stroke="none" stroke-width="1" stroke-linecap="square" stroke-linejoin="miter"></path><path d="M246.40506,142.87434v75.42487h-10.10029v-66.29748h-15.44229v-9.12738z" fill="none" fill-rule="evenodd" stroke="#ffffff" stroke-width="2" stroke-linecap="butt" stroke-linejoin="round"></path></g></g></svg>