<svg version="1.1" xmlns="http://www.w3.org/2000/svg" xmlns:xlink="http://www.w3.org/1999/xlink" width="9.14481" height="9.44013" viewBox="0,0,9.14481,9.44013"><g transform="translate(-249.41003,-160.90913)"><g fill="#ff0000" fill-rule="evenodd" stroke="#ffffff" stroke-width="0" stroke-linecap="round" stroke-linejoin="round" stroke-miterlimit="10"><path d="M256.96775,160.90918l0.20554,0.16693l0.18312,0.23918l0.26534,0.16443l0.29524,-0.01619l0.02742,0.14201l0.08846,0.1308l-0.03362,0.29399l-0.06478,0.05856l0.00498,0.1607l0.14824,0.24666l0.08969,0.06602l0.03863,0.28777l-0.02866,0.1582l0.01869,0.21178l-0.0299,0.12083l0.16071,0.13081l0.1171,0.29025l-0.0573,0.26286l0.1009,0.08097l0.05729,0.12955l-0.13205,0.2342l0.09342,0.16319l-0.10339,0.21302l0.02118,0.11709l-0.03238,0.22423l0.1196,0.29524l-0.01495,0.15198l0.03986,0.142l-0.10215,0.14202l0.03489,0.17067l-0.06229,0.31269l-0.05729,0.03489l-0.03489,0.18187l0.11461,0.29524l-0.06478,0.10713l-0.28403,0.00248l-0.14824,0.14824l-0.31767,0.23295l0.02242,0.13205l-0.06104,0.24416l0.17565,0.00498l0.12208,0.06354l-0.07101,0.13579l0.03362,0.10463l-0.45842,0.13081l-0.03114,0.25163l-0.1769,0.07847l-0.01495,0.12458l0.07225,0.15073l-0.01869,0.18062l-0.12208,0.06478l-0.06727,0.13453l-0.02615,0.22423l-0.05606,0.09841l-0.13329,0.02242l-0.16693,0.08846l-0.06726,0.14201l0.01993,0.09592l-0.16194,0.19807l-0.06354,-0.00125l-0.1196,-0.04859l-0.22672,0.08471l-0.23172,-0.06229l-0.13578,-0.18312l-0.12083,-0.04236l-0.09468,-0.1607l-0.01245,-0.10838l-0.18312,-0.04111l-0.06976,0.03862l-0.21676,-0.02742l-0.16443,0.20305l-0.10215,-0.05856l-0.12955,0.02742l-0.07724,-0.09468l-0.32139,-0.06602l-0.18686,-0.18187l-0.00374,-0.29773l-0.07225,-0.02616l-0.34382,0.11212l-0.04359,0.21302l-0.09841,0.05107l-0.14326,-0.01371l-0.23793,0.14575l-0.08222,-0.01371l-0.09716,-0.16817l0.10963,-0.08472l0.04859,-0.147l-0.01245,-0.15198l-0.12707,-0.04485l-0.10339,0.0872l-0.25537,-0.10215l-0.17316,0.09966l-0.09342,0.11212l-0.10963,-0.16693l-0.20181,0.27406l-0.11461,0.00996l-0.11212,0.0872l-0.00747,0.1196l-0.22298,-0.25413l-0.04734,-0.12954l-0.18686,0.06229l-0.20181,-0.08346l-0.05979,0.11212l-0.15696,0.09342l-0.22547,0.32638l-0.1582,0.10339l-0.1196,0.25039l-0.07101,-0.00248l-0.01619,0.23794l-0.20181,-0.00499l-0.25288,0.19059l-0.14201,-0.00248l0.09342,-0.32139l0.04859,-0.07349l-0.02865,-0.22049l0.07475,-0.23295l-0.09218,-0.1607l0.1196,-0.22921l-0.05357,-0.28651l-0.06229,-0.1196l-0.05979,-0.38243l-0.27281,-0.04734l0.07847,-0.12208l-0.02492,-0.29647l0.04859,-0.09966l0.00996,-0.39862l0.02865,-0.22921l0.1769,-0.31517l-0.00124,-0.32887l0.03489,-0.1333l0.10963,-0.12706l-0.10465,-0.21676l0.20181,0.04733l0.08846,-0.22423l0.08969,0.07101l0.15447,-0.38119l0.09841,0.04484l0.17316,-0.08222l0.04359,-0.14326l-0.07475,-0.24791l0.16195,-0.21676l0.17191,0.00996l0.06602,-0.25039l0.19308,-0.04111l0.15322,-0.07723l0.01371,-0.15198l0.16817,-0.04859l0.13703,0.02742l0.29524,-0.03489l0.18064,-0.06354l0.65152,0.13453l0.07847,-0.03362l0.23669,0.00124l0.16319,-0.05481l0.20181,-0.3077l0.23794,-0.18312l0.08346,-0.02865l0.2155,-0.17191v-0.18811l0.09593,-0.27904l0.13578,-0.17316l-0.0299,-0.17565l0.09593,-0.12955l0.02865,-0.19932l-0.11461,-0.28279l0.23171,-0.43102l0.09468,-0.07101l0.29897,-0.11585l0.38119,-0.24541l0.24541,-0.06851l0.801,-0.08597l0.18686,-0.17316l0.27406,-0.01869l0.2915,-0.05232"></path></g></g></svg>