<svg version="1.1" xmlns="http://www.w3.org/2000/svg" xmlns:xlink="http://www.w3.org/1999/xlink" width="13.73768" height="10.70708" viewBox="0,0,13.73768,10.70708"><g transform="translate(-256.30055,-160.13387)"><g fill="#ff0000" fill-rule="evenodd" stroke="#ffffff" stroke-width="0" stroke-linecap="round" stroke-linejoin="round" stroke-miterlimit="10"><path d="M270.0382,164.65476l-0.25522,0.1177l-0.32708,0.05823l-0.23292,0.11769l-0.10283,-0.01114l-0.13256,0.21187l-0.20815,-0.11151l-0.1363,0.19204l-0.10407,-0.08921l-0.17965,0.00247l-0.20815,0.04833l-0.07682,0.07682l-0.21559,0.10037l-0.02602,0.23664l0.20319,0.16602l-0.11646,0.23788l-0.20815,0.04089l-0.22301,0.10902l-0.21063,-0.0446l-0.17345,0.14248l0.01858,0.12886l-0.06939,0.19452l-0.16602,0.04956l-0.0793,0.16107l-0.07929,0.03593l-0.02106,0.14867l-0.08426,0.17097l0.10035,0.13133l0.00496,0.19204l-0.13753,0.20072l-0.06566,0.02725l-0.37541,-0.20319l-0.32089,0.08301l-0.05204,0.12266l-0.22301,0.06071l-0.1276,-0.13504l-0.18461,0.00744l-0.18461,0.20567l-0.20319,-0.04089l-0.13628,0.33452l-0.20566,-0.03718l-0.13009,0.09541l-0.12266,-0.07186l-0.11769,0.09788l-0.24531,-0.05947l0.01982,0.16479l0.22054,0.16106l0.02602,0.11523l0.11028,0.05203l-0.02355,0.23044l0.15735,0.11769l0.10408,0.19948l-0.01362,0.16602l-0.40267,0.06071l-0.06319,0.0508l-0.37789,0.07806l-0.18337,0.06566l-0.32089,-0.26637l-0.13133,-0.06195l-0.0954,0.01859l-0.0446,-0.18708l-0.14867,-0.15735l-0.04833,-0.13628l-0.18708,-0.14868l-0.13876,-0.04213l-0.03346,-0.14744l-0.15982,-0.00991l-0.16974,-0.06566l-0.19576,0.15859l-0.31221,0.06939l-0.35187,0.29982l-0.10779,-0.01114l-0.11149,-0.10037l-0.15488,-0.33079l-0.25522,0.28124l0.08177,0.15982l-0.04956,0.16232l-0.18834,0.14124l-0.10407,0.02602l0.09912,0.2515l0.14495,0.16478l-0.15115,0.08301l-0.06815,0.19328l-0.07186,0.06815l0.08426,0.28621l-0.25027,0.11275l-0.1462,-0.21063l-0.28372,-0.24779l-0.2131,0.16355h-0.09912l-0.03593,-0.12266l-0.31842,-0.05575l-0.11026,0.04089l-0.18957,-0.07929l-0.06071,0.08426l-0.18957,-0.15239l-0.01487,-0.12886l-0.08797,-0.12886l-0.24656,-0.10532l-0.19204,0.22548l0.03718,0.19081l-0.10284,0.20442l0.03469,0.12637l-0.09912,0.18088l-0.10035,0.03469l-0.06566,0.10779l-0.08301,0.27257l-0.27381,0.00992l-0.16355,-0.05947l-0.12514,-0.01982l-0.20195,-0.33328l-0.23912,-0.09293l-0.15859,-0.02725l0.00247,-0.27381l0.06319,0.00124l0.16106,-0.19699l-0.01981,-0.09541l0.06689,-0.14124l0.16602,-0.08797l0.13256,-0.02229l0.05575,-0.09787l0.02602,-0.22301l0.06689,-0.13381l0.12142,-0.06442l0.01858,-0.17965l-0.07186,-0.14991l0.01487,-0.1239l0.17593,-0.07806l0.03098,-0.25027l0.45594,-0.13009l-0.03346,-0.10408l0.07062,-0.13504l-0.12142,-0.06319l-0.1747,-0.00496l0.06071,-0.24284l-0.02229,-0.13134l0.31594,-0.23169l0.14744,-0.14744l0.28249,-0.00247l0.06442,-0.10655l-0.11399,-0.29363l0.03469,-0.18088l0.057,-0.03469l0.06195,-0.31098l-0.03469,-0.16973l0.10158,-0.14124l-0.03964,-0.14124l0.01487,-0.15115l-0.11895,-0.29363l0.03222,-0.22301l-0.02106,-0.11646l0.10283,-0.21186l-0.09293,-0.1623l0.13133,-0.23292l0.16479,-0.11522l0.19576,-0.08673l0.02229,-0.11522l0.33081,-0.17841l0.03469,-0.12018l0.1016,-0.03221v-0.15115l0.17593,-0.26019l0.14495,-0.14248l-0.01239,-0.08797l0.27258,-0.36673l-0.11895,-0.07062l-0.08177,-0.20195l0.12018,-0.18461l-0.10902,-0.06566l0.01115,-0.09167l0.13877,-0.04584l0.23044,0.09044l0.32708,-0.15363l0.15362,0.08673l0.18957,0.01982l0.07186,0.1239l0.11399,0.0446l0.08921,-0.1338l0.08426,0.0384l0.18832,-0.03717l0.14,0.08797l0.13256,0.01487l0.02479,0.1685l0.19204,0.02849l0.0062,0.20442l-0.18584,0.27505l-0.00991,0.1239l0.05327,0.15736l-0.20567,0.24531l0.16726,0.11647l0.14744,0.02725l0.06071,0.1276l0.22301,0.02106l0.00496,0.11646l0.19824,-0.05947l0.08673,-0.10408l-0.02725,-0.09787l0.10407,-0.20195l0.22178,-0.21063l0.19576,-0.10655l0.2069,-0.00373l0.12018,0.05327l0.26391,0.0446l0.18584,-0.11646l0.22054,-0.02849l0.12514,-0.08426l0.09044,-0.14248l0.20319,0.06442l0.24656,-0.01858l0.23664,0.07558l0.04089,0.08426l-0.01487,0.16726l0.05452,0.05204l0.15735,-0.07433l0.10655,-0.19452l-0.09416,-0.15859l0.13381,-0.28248l-0.11275,-0.15611l0.07433,-0.21682l0.2639,-0.22301l0.14495,-0.02602l0.17222,0.09416l0.07186,-0.12762l0.10779,-0.07433l0.08426,-0.1623l-0.00867,-0.14124l0.15115,-0.29364l0.03346,-0.1239l0.14867,-0.12637l0.0384,-0.10283l0.2131,-0.05575l0.01115,-0.05204l0.24161,-0.06319l0.29363,-0.20938l0.15983,0.02725l0.16602,-0.057l0.1276,0.0161l0.12019,-0.07062l0.28868,-0.08301l0.1462,0.14744l0.19824,-0.04213l0.16602,0.03593l0.12142,0.38285l0.13133,0.15115l0.02354,0.15362l-0.04584,0.69877l0.09293,0.10037l-0.03346,0.15488l0.08549,0.12886l0.2069,-0.02229l0.10037,0.06939l-0.03966,0.18832l0.06939,0.11275l0.34196,0.15859l0.07929,0.09788l0.23665,0.01239l0.2069,0.19328l-0.0384,0.13381l-0.00124,0.2131l-0.11523,0.1276l0.18708,0.23292l-0.14371,0.32709l-0.15486,0.06689l-0.02725,0.15362l0.13009,0.11275l0.09912,0.00867l0.04831,0.30479l0.04956,0.11769"></path></g></g></svg>