<svg version="1.1" xmlns="http://www.w3.org/2000/svg" xmlns:xlink="http://www.w3.org/1999/xlink" width="13.01522" height="14.62851" viewBox="0,0,13.01522,14.62851"><g transform="translate(-182.96242,-187.11724)"><g fill="#ff0000" fill-rule="evenodd" stroke="#ffffff" stroke-width="0" stroke-linecap="round" stroke-linejoin="round" stroke-miterlimit="10"><path d="M194.20099,187.11724l0.00247,0.00247l0.00247,0.00124l0.06815,0.33205l0.04336,0.06195l-0.05824,0.17965l0.1276,0.0954l0.12762,0.1623l0.10035,-0.00247l0.27628,0.23044l0.09664,-0.00496l0.09788,-0.12143l0.16355,0.16602l0.08301,0.20938l0.02106,0.14495l-0.17841,0.23417l-0.05947,0.1747l-0.21186,0.11646l0.01859,0.10037l0.22797,0.17222l0.05452,0.08921l0.19699,0.00496l-0.10407,0.15611l0.05947,0.06815l-0.13009,0.2069l0.15115,0.15115l0.22301,0.08549l0.1338,0.12018l0.07186,0.1239l0.15735,0.00371l0.01364,0.10655l-0.07309,0.1747l0.05575,0.07433l-0.04089,0.1648l-0.16107,-0.03469l-0.06814,-0.06689l-0.22054,0.19699l-0.03593,0.07929l-0.1276,0.03469l-0.01239,0.20567l0.05574,0.0446l-0.1338,0.16232l-0.00247,0.18957l0.16232,0.06815l0.16602,-0.04089l0.02229,0.24903l-0.11399,0.26886l-0.11026,0.02973l-0.07682,0.11399l-0.11895,0.0508l-0.17097,0.32212l0.17097,-0.03221l0.15859,0.16602l0.13133,-0.07186l0.08549,0.15239l0.25522,0.06815l0.10532,0.45345l-0.20567,0.09541l-0.05452,-0.1016l-0.17841,0.03964l-0.09664,0.23169l-0.09416,-0.00124l-0.15239,-0.11646l-0.05574,0.03593l-0.1462,-0.08177l-0.14371,-0.0062l-0.41876,0.30974l-0.06938,0.10779l-0.14497,0.07682l-0.17841,0.03717l-0.20072,0.20072l-0.21557,-0.13009l-0.19081,0.11522l-0.12513,-0.08177l-0.14248,0.06442l-0.21929,-0.06815l-0.25522,-0.17594l-0.10654,-0.11522l-0.08301,0.1016l-0.10779,0.03717l0.04336,0.19081l-0.12639,0.02973l-0.19699,0.20815l-0.2131,-0.03718l0.01982,-0.13628l-0.12266,-0.09663l-0.25771,0.04833l-0.06814,0.06938l-0.16107,0.0508l-0.11026,-0.03718l-0.11274,-0.13381l-0.12266,0.12143l-0.08921,0.24655l-0.23665,-0.11151l-0.01239,-0.19824l-0.23541,-0.14001l-0.20815,0.00247l0.00124,0.34567l-0.19948,0.28868l-0.05327,0.22425l-0.15611,0.07309l-0.08053,-0.05947l-0.08549,0.15488l-0.1462,0.07186l-0.08549,-0.04214l-0.08053,0.10407l-0.34939,0.20567l-0.01982,0.09044l-0.13628,0.05823l-0.01115,0.09293l0.15611,0.12637l0.18957,-0.0161l0.0446,0.06938l-0.07062,0.16726l-0.26017,0.47947l-0.09416,0.08921l0.0508,0.08426l-0.17097,0.33329l0.04336,0.16355l0.11275,0.07806l-0.05204,0.18461l-0.1462,0.30974l-0.16727,0.11275l-0.20072,0.2639l-0.38779,0.11026l-0.06938,0.26761l-0.13256,0.1685l0.19576,0.03469l0.09293,0.10035l-0.02849,0.08426l0.13876,0.28496l-0.23292,0.01982l-0.13256,-0.0384l-0.05327,0.08301l-0.14248,0.03345l-0.09788,0.13753l0.00992,0.21807l-0.23169,0.1462l-0.09416,0.2069l0.09416,0.10408l0.03469,0.14744l0.16355,0.22797l-0.01734,0.22054l-0.13753,0.01735l-0.14124,0.20815l-0.07433,0.02106l-0.10035,0.20319l-0.06319,0.20567l-0.11895,0.04336l0.03346,0.10779l-0.05947,0.10902l-0.20442,-0.28496l-0.18088,-0.14l-0.15611,-0.01239l-0.02106,0.07806l-0.16726,0.1685l-0.11522,-0.0793l-0.08053,0.04584l0.02973,0.11646l-0.06319,0.07309l-0.26019,0.06071l-0.32461,-0.09788l-0.03345,0.12762l-0.18461,-0.11399l-0.12637,-0.03221l-0.12142,-0.09787l-0.00496,-0.11522l-0.09912,-0.03221l-0.16726,-0.13134l0.06071,-0.10654l-0.01858,-0.13256l-0.08426,-0.03593l-0.06195,-0.1363l0.01239,-0.14991l-0.04584,-0.09044l0.11399,-0.09541l0.02478,-0.11275l0.12514,-0.07681l0.02602,-0.18832l0.07806,-0.14867l0.02106,-0.15859l-0.27257,-0.03222l-0.14248,0.01982l-0.1177,-0.07929l-0.1747,0.15611l-0.1016,-0.06195l-0.2069,0.06319l-0.23541,-0.22674l0.06442,-0.11769l-0.06442,-0.21434l0.07558,-0.13504l-0.04833,-0.09293l-0.15611,0.03593l-0.01362,-0.14371l-0.08549,-0.19452l-0.09293,-0.04708l0.13009,-0.19081l0.20815,-0.10532l0.14124,-0.14l-0.07186,-0.26886l0.06319,-0.18708l0.0892,0.00867l0.08426,-0.14371l0.00992,-0.14495l-0.04833,-0.36053l0.01858,-0.11151l-0.14495,0.00744l-0.14744,-0.11646l0.04336,-0.16726l0.00744,-0.25771l-0.11151,-0.21434l-0.06814,-0.06071l0.07682,-0.20938l0.00496,0.05823l0.17345,0.06815l0.42992,-0.02973l0.28248,-0.06691l0.26142,-0.10284l0.337,-0.09416l0.22178,-0.11151l0.25275,-0.17717l0.19081,-0.20442l0.08426,-0.13876l-0.08301,-0.32089l0.13876,-0.06691l0.12762,0.04708l0.09912,-0.08797l0.03964,-0.19948l0.2131,0.02478l0.02849,-0.14248l0.10654,0.01611l0.11895,-0.11152l0.1462,-0.04956l0.13009,-0.3655l0.18957,-0.08921l0.04213,0.03099l0.17593,-0.11399l0.06442,-0.2069l0.15736,-0.07309l0.08921,-0.17841l-0.09044,-0.09541l0.12639,-0.10035l0.09912,0.00124l0.12142,-0.15239l0.10408,0.14991l0.15362,-0.01362l-0.03098,-0.14992l0.13753,-0.14124l-0.02354,-0.17965l0.25399,-0.36673l0.30479,-0.17345l0.02725,-0.15982l0.20938,-0.07309l0.25027,-0.1623l0.08301,-0.15611l0.17717,-0.09044l0.25152,-0.17964l0.07682,-0.11275l0.37541,-0.3531l0.13133,-0.14371l0.40762,-0.07186l0.42745,-0.20567l0.08797,-0.07433l0.08549,-0.23788l0.11151,-0.03345l-0.0384,-0.18957l0.19452,-0.12018l0.0062,-0.09167l0.24779,-0.17593l0.06071,-0.11895l0.25399,-0.08797l0.07682,-0.17964l-0.04336,-0.057l0.08176,-0.14867l0.1239,-0.10654l-0.01115,-0.15611l0.23169,-0.25275l0.30479,-0.15362l0.21434,-0.17222l0.04214,-0.13504l0.17345,-0.04214l0.0793,-0.07309l0.20195,-0.08301l0.1462,-0.14991l0.12514,-0.01487l0.04956,-0.17594l0.5563,-0.29364"></path></g></g></svg>