<svg version="1.1" xmlns="http://www.w3.org/2000/svg" xmlns:xlink="http://www.w3.org/1999/xlink" width="9.26987" height="9.88082" viewBox="0,0,9.26987,9.88082"><g transform="translate(-194.21103,-182.14015)"><g fill="#ff0000" fill-rule="evenodd" stroke="#ffffff" stroke-width="0" stroke-linecap="round" stroke-linejoin="round" stroke-miterlimit="10"><path d="M202.29145,182.90474l-0.11399,0.03964l-0.21682,0.1685l-0.02602,-0.01612l-0.09167,0.14248l-0.17717,-0.13009l-0.15859,0.06938l0.20319,0.10779l0.18461,0.0384l0.07806,0.16107l-0.14124,0.05947l-0.05327,0.32337l-0.29487,-0.07806l-0.06071,-0.05823l0.04584,-0.19824l0.18214,0.06442l0.1276,-0.01734l0.04956,-0.13628l-0.13133,-0.16355l-0.18337,-0.09293l-0.08673,-0.10655l-0.11769,0.20319l-0.11895,0.06442l-0.10902,0.14991l0.09044,0.27133l-0.05575,0.09416l0.14124,0.11522l-0.06319,0.13381l-0.14372,0.057l0.00496,0.21929l0.4448,0.06566l0.14992,0.17345l0.12018,0.06442l0.15735,-0.05824l0.07682,-0.15611l0.28992,-0.07682l0.1462,0.08673l0.17593,0.0161l0.11399,0.11275l0.43487,0.11274l0.21434,0.18337l0.00991,-0.01362l0.05327,0.11275l0.0062,0.22548l-0.09293,0.1239l0.12514,0.14992l-0.0954,0.18213l-0.09044,-0.01611l-0.15735,0.26017l-0.00496,0.31221l-0.03717,0.12266l0.17717,0.26267l-0.09168,0.16974l0.09663,0.15736l0.02354,0.17841l-0.083,0.10655l-0.25152,0.01115l-0.08673,0.06939l-0.28868,-0.02229l-0.10532,0.13381l-0.38903,0.13381l-0.07062,-0.0062l-0.30603,0.11522l-0.22674,0.18088l-0.1338,0.057l0.00496,0.22674l0.23417,-0.07433l0.11151,0.09167l0.1747,0.49682l-0.13257,0.19699l-0.33079,0.12142l-0.11274,0.13876l-0.02229,0.24284l-0.07806,0.09787l0.06566,0.1809l-0.07186,0.08053l-0.0384,0.17096l0.057,0.08921l-0.06071,0.13009l-0.12142,-0.03964l-0.05452,-0.10779l-0.19081,0.02478l-0.13133,-0.04584l-0.13381,0.10902l-0.17222,-0.06195l-0.14248,0.01735l-0.09416,0.16479l-0.23911,0.02973l-0.11399,-0.14371l-0.09293,-0.00992l-0.02229,-0.14l-0.17965,-0.14495l-0.21929,-0.00496l-0.09168,0.21806l-0.33948,0.11151l-0.17345,-0.12266l-0.08673,0.04214l-0.21187,-0.07806l-0.14992,-0.27011l-0.10902,-0.02354l-0.33823,0.14992l-0.03593,0.10283l-0.15488,0.12389l-0.08177,0.15488l-0.14248,0.14124l0.12514,0.15611l-0.29983,0.15611l-0.06071,0.18214l-0.19452,0.13256l-0.07558,0.09787l0.01115,0.12762l-0.30354,0.18213l0.06566,0.13381l-0.15859,0.1016l-0.07681,0.2577l-0.11399,-0.01239l-0.15859,0.06939l-0.09044,0.1276l-0.17222,-0.10407l-0.26515,0.06566l-0.02229,-0.24903l-0.16602,0.04087l-0.16232,-0.06814l0.00247,-0.18957l0.13381,-0.1623l-0.05575,-0.0446l0.01239,-0.20567l0.12762,-0.03469l0.03593,-0.0793l0.22054,-0.19699l0.06815,0.06691l0.16107,0.03469l0.04087,-0.16479l-0.05574,-0.07433l0.07309,-0.1747l-0.01362,-0.10655l-0.15735,-0.00373l-0.07186,-0.1239l-0.13381,-0.12018l-0.22301,-0.08549l-0.15115,-0.15115l0.13009,-0.2069l-0.05947,-0.06815l0.10408,-0.15611l-0.19699,-0.00496l-0.05452,-0.0892l-0.22797,-0.17222l-0.01858,-0.10037l0.21187,-0.11646l0.05947,-0.1747l0.17841,-0.23417l-0.02106,-0.14495l-0.08301,-0.20938l-0.16355,-0.16602l-0.09788,0.12142l-0.09663,0.00496l-0.27628,-0.23044l-0.10037,0.00247l-0.1276,-0.1623l-0.1276,-0.09541l0.05823,-0.17965l-0.04336,-0.06195l-0.06815,-0.33205l0.49807,-0.13628l0.15982,-0.10408l0.18088,-0.2131l0.15859,-0.25771l0.08053,-0.18337l0.11026,-0.3655l0.04087,-0.26142l0.00124,-0.23045l-0.0384,-0.20195l-0.33452,-0.23664l-0.27133,-0.03469l0.05947,-0.22054l0.1685,0.02602l0.01611,-0.11274l0.19824,-0.09044l0.12018,0.00247l0.2069,-0.10902l0.20442,0.04708l0.09416,0.10902l0.16355,-0.08301l0.38656,-0.00991l0.04584,-0.13009l-0.31717,-0.20195l0.19699,-0.04213l0.34444,-0.12886l0.31098,-0.04336l0.07559,-0.1462l0.13133,-0.08301l0.11026,0.01487l0.06319,-0.11399l0.13504,0.02725l0.34072,-0.11646l0.44231,-0.00991l0.15735,-0.08549l0.29364,0.03099l0.16479,-0.04708l0.12514,0.05327l0.1239,-0.08921l-0.07806,-0.1276l0.0384,-0.23788l0.22301,-0.00744l0.30604,0.08053l0.1747,-0.0062l0.00496,-0.1524l0.06071,-0.08549l0.12886,0.03593l0.20442,-0.20815l-0.1239,-0.11151l0.10779,-0.11769l0.11399,-0.02602l0.29612,0.08053l-0.01115,-0.14992l0.06319,-0.1623l0.22054,0.07806l-0.02849,0.07681l0.12514,0.16107l0.12886,0.04089l0.10655,0.22425l0.18584,0.0062l0.06442,-0.17345l0.08549,0.13133l0.18832,-0.06195l0.04213,-0.15735l0.06938,-0.03717l0.07186,0.15859l0.15488,0.03964l0.18213,-0.12637l0.23541,0.07806l0.09167,-0.0793l0.19328,-0.04831l0.24284,0.06442l0.07682,-0.03469l0.27752,0.10779l0.03964,0.10779l-0.55011,0.10902l-0.25027,0.02354l-0.12142,0.07186l-0.20938,0.00373M198.57826,184.10034l-0.3023,0.16726l-0.21063,-0.03346l-0.18337,0.05575l-0.06566,0.10532l0.17964,0.17841l-0.03964,0.14124l0.1239,0.20567l0.09416,-0.01612l0.09416,0.16107l0.2131,-0.07806l0.27133,-0.16355l0.38779,-0.01239l0.11646,-0.11399l0.19948,0.02106l0.12266,-0.12513l0.11895,0.04833l0.21187,-0.03221l0.09293,-0.09044l0.12142,-0.27752l-0.1846,-0.05452l-0.18584,-0.12513l-0.19081,-0.03718l-0.15115,0.02725l-0.29363,-0.10655l-0.54019,0.15488"></path></g></g></svg>