<svg version="1.1" xmlns="http://www.w3.org/2000/svg" xmlns:xlink="http://www.w3.org/1999/xlink" width="7.34143" height="7.64391" viewBox="0,0,7.34143,7.64391"><g transform="translate(-162.94584,-207.53238)"><g fill="#ff0000" stroke="#ffffff" stroke-width="0" stroke-linecap="round" stroke-linejoin="round" stroke-miterlimit="10"><path d="M169.40187,208.2813l0.10207,0.27176l0.1242,0.07009l0.04673,0.24349l0.06641,0.09346l0.13773,-0.07993l0.26315,0.03812l0.14511,0.11805l-0.04427,0.48204l-0.20905,-0.0209l-0.12298,0.06764l-0.05533,0.09469l0.03935,0.08977l-0.2398,0.07009l-0.08116,0.05902l-0.22504,0.01352l-0.05657,0.05042l-0.01722,0.348l0.06148,0.11682l-0.12789,0.03566l-0.08977,0.28529l0.04795,0.06641l-0.06271,0.18446l0.14141,0.19676l0.17585,0.03935l0.11928,0.1156l-0.10945,0.16356l0.20044,0.19305l0.11068,0.21275l0.02214,0.15126l-0.16847,0.08977l-0.14388,-0.06271l-0.10207,0.15618l0.08116,0.08238l0.02214,0.16601l0.22258,0.40826l0.11436,0.09223l0.02706,0.10576l0.17585,0.19553l0.11436,0.2816l-0.13773,0.19676l-0.26071,0.1033l-0.10945,0.19182l-0.1697,-0.06148l-0.05288,0.20905l0.22997,0.37875l-0.23611,-0.15618l-0.09715,-0.0332l-0.04919,0.13527l-0.16109,0.02582l-0.31234,-0.15002l-0.18692,0.06518l-0.05902,0.07379l-0.27053,0.0996l-0.1365,0.11682l0.00369,0.07501l-0.19799,0.06394l-0.06394,0.15863l-0.10085,0.11682l-0.12051,-0.06271l-0.04796,-0.11928l-0.12666,-0.1033l-0.08363,-0.15249l-0.17094,-0.01721l-0.25331,-0.10453l-0.09469,0.0246l-0.12789,-0.17462l-0.42179,-0.24964l-0.18692,-0.02336l-0.23609,-0.22504l-0.23611,0.04058l-0.06271,0.07624l-0.17462,-0.0455l-0.05902,-0.07132l-0.1242,0.0086l-0.21766,-0.04673l-0.20782,0.09961l-0.07255,0.11806l-0.17217,-0.01476l-0.14757,-0.13404l-0.10207,-0.00738l-0.11928,0.10084l-0.11191,-0.07624l-0.3271,-0.00492l-0.0578,0.08977l-0.30496,0.00984l-0.06764,-0.04919l-0.28529,0.07501l-0.07255,-0.03812l0.12174,-0.25702l-0.00615,-0.11436l0.17831,-0.04058l0.09592,-0.06887l0.43655,-0.10453l0.16233,0.02828l0.16848,-0.14141l0.01967,-0.16601l0.10452,-0.09223l0.13158,-0.03197l0.14019,-0.26563l-0.11805,-0.07379l-0.17708,0.15003l-0.11313,-0.12912l0.03565,-0.11314l-0.18815,-0.12297l-0.23486,0.16233l-0.04058,-0.1574l-0.11191,-0.05165l0.04795,-0.10945l0.31357,-0.09469l0.12789,0.02582l0.25577,-0.09961l0.16233,-0.23611l-0.09592,-0.12543l0.0332,-0.1033l0.12913,-0.06641l0.09715,0.04058l0.11191,-0.04058l0.27299,-0.2066l0.03197,-0.10207l-0.03444,-0.15003l0.04549,-0.05657l0.25579,0.17708l0.07624,0.09961l-0.09961,0.09838l-0.05042,0.14757l0.08485,0.22504l0.182,0.07625l0.35047,0.02828l-0.05287,0.20168l-0.10207,-0.09837l-0.13035,0.091l0.25825,0.2066l0.16725,-0.00738l0.07501,0.04427l0.23732,-0.11559l0.0209,-0.14879l0.19797,-0.00861l0.21028,0.05411l0.15495,-0.02706l0.17462,-0.12297l0.09469,0.03565l0.05411,0.12544l0.09223,-0.0455l-0.10453,-0.15126l0.13896,-0.03935l0.11559,-0.27668l0.0246,-0.19922l0.16109,0.01845l0.01598,-0.08116l-0.2066,-0.08116l0.2521,-0.1242l0.11068,-0.0246l-0.10945,-0.18815l0.07747,-0.05287l-0.01722,-0.12174l-0.14757,0.00615l-0.18446,0.0787l-0.06149,0.14879l-0.37014,0.08609l-0.0996,0.10206l-0.01598,0.14388l-0.23858,-0.05165l-0.07132,0.03935l-0.10822,-0.15987l0.26192,-0.02583l0.25825,-0.10822l0.24103,-0.14141l0.1574,-0.1242l0.20414,-0.23119l0.06148,-0.22996l0.13404,0.0332l0.15495,-0.10452l0.16478,-0.19184l0.13035,-0.32341l0.0246,-0.23857l-0.11928,-0.20905l-0.13282,0.05164l-0.05657,-0.14879l0.06763,-0.09961l0.00984,-0.1365l0.1697,-0.01353l0.15249,-0.23857l0.04673,-0.22748l0.07379,-0.11436l0.28774,-0.08731l0.1242,-0.09223l0.08239,-0.15249l0.01352,-0.2152l0.16725,-0.01722l-0.01722,0.07009l0.19307,0.29881l0.08362,0.00615" fill-rule="evenodd"></path><path d="M167.74176,207.94927l-0.21151,-0.07379l-0.07255,-0.08731l0.02337,-0.182l0.38982,-0.07379l0.10206,0.04304l-0.18815,0.23857l-0.04303,0.13527" fill-rule="evenodd"></path><path d="M166.14315,211.29407l-0.10945,-0.15987l0.00492,-0.20291l0.11559,-0.06887l0.12912,0.16233l0.07993,0.2521l-0.22012,0.01721" fill-rule="evenodd"></path><path d="M167.32368,211.23259l0.257,-0.1574l0.06148,-0.00123l0.08854,0.15002l-0.3271,0.13158l-0.07993,-0.12297" fill-rule="evenodd"></path><path d="M166.32761,211.9458l-0.08116,0.10698l-0.11682,0.00122l-0.0332,-0.1365l0.08239,-0.3025l0.14511,0.22748l0.00368,0.1033" fill-rule="evenodd"></path><path d="M165.22087,210.83908l0.05902,-0.04673l0.10698,0.07009l-0.06025,0.10452l-0.10576,-0.12789" fill-rule="evenodd"></path><path d="M166.24056,212.05668l-0.11683,0.00123l-0.0332,-0.1365l0.08239,-0.30253l0.14512,0.22751l0.00368,0.1033l-0.08117,0.10699" fill-rule="nonzero"></path><path d="M167.32274,211.23274l0.25703,-0.15741l0.06149,-0.00122l0.08854,0.15003l-0.32712,0.13158l-0.07994,-0.12298" fill-rule="nonzero"></path><path d="M166.14218,211.29423l-0.10945,-0.15988l0.00492,-0.20291l0.1156,-0.06887l0.12912,0.16233l0.07993,0.2521l-0.22013,0.01722" fill-rule="nonzero"></path><path d="M165.21986,210.83923l0.05902,-0.04674l0.10699,0.0701l-0.06026,0.10453l-0.10576,-0.1279" fill-rule="nonzero"></path><path d="M167.74086,207.94931l-0.21153,-0.07379l-0.07255,-0.08731l0.02337,-0.182l0.38984,-0.07379l0.10207,0.04303l-0.18815,0.23858l-0.04303,0.13528" fill-rule="nonzero"></path></g></g></svg>