<svg version="1.1" xmlns="http://www.w3.org/2000/svg" xmlns:xlink="http://www.w3.org/1999/xlink" width="4.35689" height="11.15478" viewBox="0,0,4.35689,11.15478"><g transform="translate(-176.64957,-233.67836)"><g fill="#ff0000" fill-rule="evenodd" stroke="#ffffff" stroke-width="0" stroke-linecap="round" stroke-linejoin="round" stroke-miterlimit="10"><path d="M180.96108,235.00275l-0.26684,0.91736l-0.11928,0.45377l-0.06641,0.35047l-0.08731,0.08854l0.11313,0.0578l-0.09715,0.22258l-0.05042,0.32466l-0.05042,0.18446l-0.01476,0.439l0.03197,0.22259l0.31726,0.40457l0.10206,0.03444l-0.25331,0.52877l0.06518,0.16847l-0.12297,0.04673l0.06271,0.18569l-0.12174,0.16971l0.04919,0.07993l-0.07625,0.07747l0.15126,0.16478l-0.14634,0.0701l-0.05533,0.182l0.11191,0.0086l0.02705,0.23732l-0.12173,0.2152l0.10698,0.06518l-0.06395,0.12297l-0.13404,0.10822l-0.28899,0.12174l-0.16109,0.26563l0.03444,0.11068l-0.1574,0.05903l-0.04181,0.24224l-0.14388,0.05043l-0.03935,0.08238l0.05042,0.16847l-0.05533,0.21274l0.05533,0.10085l-0.14265,0.1943l0.13896,0.04304l-0.0246,0.12174l0.07132,0.1242l-0.05165,0.07747l-0.26563,0.1242l0.01967,0.23365l0.06517,0.06026l0.0332,0.22258l-0.08854,0.22136l-0.10085,0.01722l-0.182,0.12666l0.0123,0.16601l-0.11928,0.00738l-0.01722,0.13158l0.04058,0.13157l0.17708,0.13035l-0.01106,0.07255l-0.16724,0.0787l-0.15126,-0.06518l-0.08731,-0.10698l-0.01967,-0.19184l-0.06395,-0.06886l-0.15126,0.07993l-0.07379,-0.0578l-0.10576,0.11191l-0.2447,0.02706l-0.20414,-0.09715l-0.12666,-0.27176l0.01476,-0.14265l0.10207,-0.08362l-0.0246,-0.07747l-0.21274,-0.08608l-0.08977,-0.11928l-0.16356,-0.10821l0.01721,-0.06887l-0.30744,-0.05287l-0.06025,0.09592l-0.20168,-0.17339l0.04919,-0.1697l-0.01353,-0.15126l0.09592,-0.14388l0.01352,-0.1156l0.30373,-0.13773l0.04919,-0.08854l0.0086,-0.19307l-0.05165,-0.1119l-0.02337,-0.19307l-0.07501,-0.07132l0.15371,-0.14388l0.04427,-0.18446l-0.09837,-0.22012l-0.12543,-0.12052l-0.0246,-0.09469l0.05165,-0.17462l0.1611,-0.18569l-0.06148,-0.1365l-0.20537,-0.091l-0.00984,-0.07993l-0.14879,-0.17954l-0.08977,-0.02706l0.10452,-0.21889l0.19799,-0.1943l0.22258,-0.07132l0.18077,-0.13527l0.17339,-0.03812l0.091,-0.24841l0.25454,-0.04304l0.04058,-0.19061l0.06641,-0.08362l-0.06395,-0.36645l-0.27545,0.03812l-0.04304,-0.06641l0.04058,-0.18692l-0.03444,-0.18569l-0.19553,-0.30006l0.07255,-0.09469l0.16109,-0.08362l0.01353,-0.13895l0.14511,-0.14265l-0.05533,-0.07009l-0.03566,-0.19676l-0.09469,0.03565l-0.27299,-0.05411l-0.12544,0.24841l-0.1365,-0.09346l-0.06887,-0.15987l0.00984,-0.41933l0.11068,-0.12174l0.11068,0.08116l0.14141,-0.09837l-0.07379,-0.16724l-0.2398,-0.182l-0.0246,-0.11559l0.091,-0.17708l0.0578,-0.00368l0.04673,-0.20905l-0.09961,-0.03812l-0.04181,-0.10822l-0.15126,-0.06271l-0.13035,0.04058l-0.09223,-0.08977l-0.03197,-0.17339l-0.1365,-0.13773l0.05287,-0.14264l-0.00615,-0.22627l0.11806,-0.12173l-0.00246,-0.1943l-0.07501,-0.12666l0.29512,-0.16478l-0.08608,-0.17094l-0.00983,-0.20168l-0.07502,-0.27299l0.1033,0.02214l0.17955,-0.06025l0.13773,0.15125l0.16233,-0.03689l0.10207,0.11682l0.1033,0.18938l0.14141,0.07132l0.25331,-0.0086l0.11068,0.23857l0.11191,0.11314l0.34062,0.20044l0.08485,-0.0086l0.03197,0.12543l0.10084,0.1033l0.03935,0.11313l0.19922,0.15002l0.12052,-0.00246l0.17831,0.12052l0.16601,-0.03075l-0.01476,-0.17217l0.20045,-0.4058l0.06148,-0.06518l0.16971,0.10452l0.05165,0.08854l0.1943,-0.06763l0.14511,0.07132l0.17831,0.02582l0.23732,0.13035l0.25454,-0.07009l-0.04549,0.0787"></path><path d="M179.87894,242.36867l-0.07747,0.17708l-0.08362,-0.15741l0.08977,-0.17093l0.07132,0.15126"></path></g></g></svg>