<svg version="1.1" xmlns="http://www.w3.org/2000/svg" xmlns:xlink="http://www.w3.org/1999/xlink" width="10.54046" height="11.73759" viewBox="0,0,10.54046,11.73759"><g transform="translate(-307.43815,-52.24744)"><g fill="#ff0000" fill-rule="evenodd" stroke="none" stroke-width="0.4" stroke-linecap="round" stroke-linejoin="round" stroke-miterlimit="10"><path d="M317.26987,56.68292l0.07019,0.22666l0.00276,0.29272l-0.18579,0.17464l-0.01377,0.16997l-0.08946,0.24001l-0.10183,0.12538l-0.03028,0.1679l0.12798,0.29122l-0.10873,0.06881l-0.01927,0.19543l-0.11423,0.08119l-0.02065,0.22295l0.10186,0.11284l-0.01927,0.13075l0.18442,0.16102l0.06881,0.31929l0.36195,0.30552l0.36057,0.08119l0.13348,0.2835l-0.09634,0.11284l-0.37709,0.1968l-0.06331,0.23946l-0.1569,0.40185l-0.10734,-0.11284l-0.13074,0.09084l-0.09909,0.29451l-0.22983,-0.14175l-0.2133,0.11284l0.00826,0.09909l-0.17341,0.0523l-0.08532,0.12523l-0.25322,0.03853l-0.12661,-0.14863l-0.2078,0.16377l-0.08946,-0.07294l-0.1569,0.10734l0.01514,0.39085l-0.10459,0.01514l-0.37571,0.23121l0.02341,0.20506l-0.07019,0.18854l-0.39361,0.47343l-0.10597,-0.08258l-0.23945,0.25048l-0.13488,-0.04954l-0.27937,0.24496l-0.23258,0.08395l-0.14726,-0.08533l-0.21194,0.22571l-0.06744,-0.08119l-0.22571,-0.08808l-0.03439,-0.14175l-0.26699,-0.54361l-0.26974,-0.13487l-0.00964,-0.14726l-0.49131,-0.27937l-0.15276,-0.1734l-0.24221,-0.20643l-0.32754,0.10597l-0.08809,-0.04403l-0.42387,0.01377l-0.13762,-0.06194l-0.06744,-0.14863l-0.19266,-0.20092l-0.12798,0.23945l-0.0867,0.06607l-0.08532,0.21331l-0.13349,0.01652l-0.29176,0.14038l-0.12661,0.36332l-0.1101,-0.07294l-0.05367,-0.16514l-0.09359,-0.04954l-0.24496,0.48718l-0.15414,-0.07431l-0.01238,-0.3303l0.10873,-0.10872l-0.13487,-0.29451l0.03578,-0.25322l-0.21194,-0.16377l-0.05643,-0.35232l-0.17203,-0.1101l0.011,-0.16515l-0.22845,-0.06605l-0.24496,-0.1679l-0.09634,-0.17891l0.00963,-0.20919l-0.16651,-0.15414l-0.06056,-0.2023l0.13349,-0.15139l0.011,-0.12111l0.19955,-0.09909l-0.01927,-0.26699l-0.06331,-0.14313l1.17667,-0.82299l-0.26561,-0.38521l-0.12248,-0.08629l-0.05506,-0.18662l-0.18716,-0.10556l-0.16377,-0.10115l0.14038,-0.24456l0.16927,-0.20203l0.12798,0.04459l0.04954,-0.32327l0.1789,-0.15883l-0.06744,-0.14699l0.25322,-0.13845l-0.18579,-0.3113l0.07294,-0.22198l-0.21883,-0.19405l0.09909,-0.13115l-0.02477,-0.2308l-0.47205,0.04886l-0.12111,-0.11891l-0.03578,-0.34681l-0.10183,-0.19611l0.04403,-0.24043l-0.10322,-0.19736l-0.19818,-0.17877l0.18304,-0.18097l0.00276,-0.38053l0.32893,-0.19695l0.29726,-0.28667l0.04954,-0.14368l0.20092,-0.23093l0.02891,-0.12482l0.19818,-0.06014l0.21193,-0.19666l0.15139,-0.2019l0.14175,0.05739l0.12938,-0.10983l0.14863,0.24263l-0.16927,0.16363l0.21469,0.2758l-0.03165,0.24345l0.14175,0.28571l0.18304,0.05629l0.21469,0.2535l0.34956,0.01267l0.30139,-0.19102l0.03302,-0.22391l0.46928,0.10294l0.02065,-0.10074l0.63582,0.16184l0.13212,-0.02284l0.18579,0.1752l0.07431,0.13859l0.13762,-0.0501l0.32617,0.13679l0.16102,-0.20836l0.05643,-0.16253l0.18442,-0.06248l0.3248,-0.43901l0.17203,-0.00937l0.16927,0.14038l0.11011,0.60361l0.13212,0.17175l-0.09634,0.13666l0.08395,0.11794l-0.1624,0.16254l0.19818,0.23479l-0.05917,0.17093l-0.12524,0.13226l-0.0578,0.21786l0.22707,0.29879l0.22571,0.09812l-0.03028,0.24758l0.16651,0.0889l0.07019,0.22543l0.27111,0.66499l0.14313,0.04859l0.21331,-0.06414l0.07155,-0.09703l0.22707,0.04156l0.03853,0.10597l0.24772,0.13074l0.08119,0.12991l0.38534,-0.09083l0.11835,0.06164l0.2491,-0.08065l0.06331,-0.19475l0.12387,0.02684l0.30552,-0.07364"></path></g></g></svg>