<svg version="1.1" xmlns="http://www.w3.org/2000/svg" xmlns:xlink="http://www.w3.org/1999/xlink" width="5.11685" height="7.59112" viewBox="0,0,5.11685,7.59112"><g transform="translate(-228.383,-190.47485)"><g fill="#ff0000" fill-rule="evenodd" stroke="#ffffff" stroke-width="0" stroke-linecap="round" stroke-linejoin="round" stroke-miterlimit="10"><path d="M228.92925,190.92087l0.04833,0.15486l0.3494,-0.01734l0.16106,0.14248l0.16602,-0.0954l0.19576,0.10037l0.09787,0.00247l0.14001,0.10284l0.13256,-0.00496l0.13876,0.11275l-0.12266,0.08797l0.06566,0.23168l-0.08176,0.01982l0.03593,0.16106l-0.04833,0.06442l0.1177,0.12886l0.1685,-0.06815l0.13256,0.0384l0.00373,0.10283l0.09416,0.10035l0.17841,0.07186l-0.01239,0.06938l0.21434,0.08177l0.1747,-0.01115l0.17222,-0.09293l-0.00247,-0.22053l-0.23912,-0.01115l0.0161,-0.24035l0.19204,-0.03346l-0.0954,-0.21062l0.17097,-0.08053l0.05575,0.12018l0.29859,-0.06071l0.06815,0.18708l-0.09912,0.28868l-0.12018,0.15115l0.1747,0.03221l0.10655,-0.11026l0.11399,0.00373l0.19204,0.13133v0.24779l0.32338,0.14124l0.10037,0.18708l-0.03469,0.09788l0.03346,0.13876l0.10532,0.05575l0.0062,0.22921l0.13257,0.02354l0.09787,0.07682l0.1747,0.3531l0.09416,0.00867l0.18213,0.32337l-0.07309,0.19452l-0.14992,0.15611l-0.10408,0.0508l-0.1016,-0.1016l-0.06691,0.13628l0.0446,0.24779l-0.09787,0.07806l-0.06691,0.14l0.05947,0.29735l-0.23044,0.15735l-0.12018,0.1363l-0.00371,0.18213l0.06939,0.18708l-0.09416,0.1623l0.00124,0.08921l-0.08549,0.16602l-0.01362,0.3085l-0.05327,0.09663l-0.08177,0.28868l0.28001,0.03346l0.08549,0.25522l-0.13876,0.12886l0.03469,0.06815l-0.19328,0.15611l-0.057,0.21559l-0.38656,-0.10284l0.00371,-0.25027l0.04213,-0.13628l-0.23912,-0.11522l-0.06442,0.05451l-0.42125,-0.18088l-0.29239,0.00496l-0.14992,-0.04708l-0.31717,0.17717l-0.14867,-0.12266l-0.14497,-0.03346l-0.44231,-0.17097l-0.11026,0.00124l-0.07806,-0.20442l0.1239,-0.06566l0.0892,0.01735l-0.01734,-0.24531l-0.23541,-0.14868l-0.13256,-0.18957l-0.00868,-0.14248l0.06939,-0.09663l-0.18584,-0.2639l0.21434,-0.13256l0.06195,-0.08177l0.20071,-0.1016l-0.00247,-0.17964l0.16974,-0.05204l0.00124,-0.28001l-0.18213,-0.24903l0.01858,-0.1016l-0.05575,-0.20443l-0.15611,-0.19081l-0.06689,-0.00867l-0.09541,-0.23541l0.09663,-0.18584l0.00496,-0.1239l-0.06938,-0.17097l0.15859,-0.10407l-0.01611,-0.07062l0.09168,-0.23788l0.04213,-0.20567l-0.12886,-0.04584l-0.05947,-0.20072l-0.08177,-0.0446l0.25027,-0.1623l0.21559,0.0384l0.05327,-0.12637l-0.10158,-0.05204l-0.13877,-0.1462l-0.28619,0.08301l-0.03345,-0.10407l-0.35435,-0.08797l-0.06566,-0.14495h-0.22301l-0.23291,-0.16106l0.08797,-0.19204l0.09044,-0.0446l-0.08549,-0.11895l0.03964,-0.39524l-0.01362,-0.12266l-0.18461,-0.01859l-0.07682,-0.14124l0.05327,-0.11274l0.26761,-0.11275l0.14495,0.07186l0.10902,0.09416l0.02106,0.19576l-0.04956,0.08426"></path></g></g></svg>