<svg version="1.1" xmlns="http://www.w3.org/2000/svg" xmlns:xlink="http://www.w3.org/1999/xlink" width="8.19079" height="8.74094" viewBox="0,0,8.19079,8.74094"><g transform="translate(-283.14277,-183.96531)"><g fill="#ff0000" fill-rule="evenodd" stroke="#ffffff" stroke-width="0" stroke-linecap="round" stroke-linejoin="round" stroke-miterlimit="10"><path d="M286.47928,184.14371l0.21187,0.33452l0.04956,0.33452l0.19699,-0.03221l0.26019,-0.10035l0.11399,0.17222l0.03593,0.21682l-0.03593,0.39276l0.1177,0.08673l0.07681,-0.06319l0.11275,0.13256l0.10284,0.18832l0.07062,0.22673l-0.09416,0.15488l-0.15735,0.13134l-0.0062,0.18088l0.1276,-0.05575l-0.04708,0.40391l0.07186,0.1016l-0.02229,0.29859l0.08426,0.29239l0.08673,0.09044l0.13256,0.02602l0.07186,-0.05823l0.04584,-0.15115l0.12762,-0.07681l0.10532,-0.00124l0.08301,-0.29487l0.14124,-0.03469l0.16726,-0.16355l-0.04956,-0.17097l0.02354,-0.11274l0.1462,0.06938l0.16107,-0.07558l-0.00247,-0.15115l0.10283,-0.09912l0.15735,-0.05823l0.083,0.14l0.22674,0.06815l0.0793,-0.08426l0.14124,-0.03593l0.06442,-0.18213l0.15488,-0.06319l0.14,-0.12513l0.10654,0.03221l0.32956,-0.03221l0.26142,0.04584l-0.02725,0.20442l0.19328,-0.08301l0.12266,0.06442l0.09663,0.06195l0.09663,0.1846l0.01487,0.14992l-0.12143,0.26886l-0.057,0.26142l0.00991,0.22674l0.05452,0.03964l-0.00496,0.22178l-0.15735,0.4039l0.01858,0.12018l-0.11522,0.22921l-0.12266,0.12018l-0.18708,-0.04213l-0.12513,0.03469l-0.05824,0.11274l-0.11769,0.09044l-0.09541,0.23541l-0.02725,0.1747l-0.15735,0.01611v-0.13009l-0.18957,-0.0508l-0.14001,0.24779l-0.34691,-0.057l-0.12762,0.07433l-0.0062,0.07682l-0.15859,0.09293l-0.02229,0.1016l-0.15362,-0.02229l-0.15488,0.04089l-0.1462,-0.03593l-0.06938,-0.16479l-0.21434,0.10779l-0.05947,-0.05575l-0.18088,0.03593l-0.02354,0.06566l-0.2131,-0.07062l-0.15486,0.08549l-0.2069,0.2131l-0.00867,0.1685l-0.06195,0.16726l-0.17841,0.1462l-0.12142,0.19081l-0.25027,-0.02354l-0.37541,0.23541l-0.0954,0.11895l-0.17841,0.07309l-0.27877,0.31469l-0.05204,0.1016l-0.07559,0.29859l-0.11646,0.28372l0.05574,0.28868l-0.11274,0.21929l-0.17222,0.13504l-0.00124,0.07186l-0.28001,0.11275l-0.14371,0.08549l-0.17593,-0.02229l-0.08301,0.04708l-0.16478,-0.00124l-0.10902,-0.06071l-0.23044,0.05823l-0.20319,-0.08053l-0.08673,-0.09541l0.05947,-0.19081l-0.14371,-0.2069l-0.10902,-0.07309l-0.33948,-0.15611l-0.10408,0.02229l-0.15115,-0.07186l-0.07062,-0.09044l0.02354,-0.16973h0.32956l0.19081,0.04087l0.18584,-0.07806l0.11275,-0.00124l0.09416,-0.17841l0.15362,-0.01362l0.10284,0.09788l0.07186,-0.07682l0.03098,-0.31098l-0.11026,-0.21682l-0.16602,-0.08921l-0.13505,0.00124l0.09293,-0.28621l-0.13505,-0.2639l0.00247,-0.07433l0.20815,-0.09788l0.04833,-0.14l-0.07682,-0.1747l-0.10407,-0.00247l-0.03718,-0.20567l0.17593,-0.24159l-0.02725,-0.13134l-0.14124,-0.22177l-0.09293,-0.02726l-0.00867,-0.47329l0.08549,-0.18337l0.08673,-0.09293l0.21929,-0.13628l0.22301,-0.09788l0.04956,-0.17097l-0.07806,-0.35683l-0.21559,-0.26515l0.07186,-0.19328l-0.1747,-0.17841l-0.27877,-0.13504l-0.29364,-0.09168l0.33823,-0.08301l-0.04089,-0.11522l0.28372,-0.1462l-0.13256,-0.04336l-0.07309,-0.11522l0.18214,-0.22674l0.11895,0.18584l0.09416,-0.057l-0.03717,-0.11646l-0.15488,-0.13753l0.08301,-0.1239l0.20319,0.11895l0.25276,0.09663l0.10654,-0.00247l0.04213,-0.1276l0.28745,-0.24035l-0.13753,-0.057l-0.10654,-0.35558l-0.01612,-0.15735l0.0793,-0.12637l0.26266,-0.12639l0.22798,-0.06566l0.07186,0.02478l0.02973,-0.20815l0.13753,-0.0384l0.06814,0.16106l0.08426,-0.00496l-0.10902,-0.30603l0.20195,-0.09541l0.08797,0.07558l0.21559,-0.14371l0.20072,0.17841"></path></g></g></svg>