<svg version="1.1" xmlns="http://www.w3.org/2000/svg" xmlns:xlink="http://www.w3.org/1999/xlink" width="9.84146" height="11.92029" viewBox="0,0,9.84146,11.92029"><g transform="translate(-315.17931,-18.91551)"><g fill="#ff0000" fill-rule="evenodd" stroke="#ffffff" stroke-width="0" stroke-linecap="round" stroke-linejoin="round" stroke-miterlimit="10"><path d="M318.17818,19.25355l0.8505,1.05585l0.55324,0.57389l0.48581,0.58132l0.28213,0.02862l-0.03303,0.18208l0.10322,0.20643l0.3358,0.25212l-0.00688,0.28832l0.12937,0.16584l-0.06331,0.07789l0.11561,0.26823l0.2202,0.16474l0.06744,0.16074l0.16789,0.14892l0.02065,0.27126l0.14313,0.1562l-0.04817,0.35121l0.29726,0.42609l0.21469,0.20079l0.12387,0.02931l0.03853,0.21579l0.14726,0.19928l0.18855,0.50494l0.2078,0.09289l0.11561,0.26781l0.26286,0.30828l-0.0055,0.17203l0.23945,0.21262l0.11973,0.29658l0.13349,0.19046l0.24084,0.19955l0.23946,0.24882l0.27937,0.40214l0.31103,0.26383l0.23671,0.24401l0.12798,0.06978l-0.10183,0.11822l-0.05506,0.20725l-0.27938,0.26259l-0.26286,0.3208l-0.34406,0.01912l-0.06468,0.08918l-0.30001,-0.12964l-0.26286,0.17147l-0.25322,0.04747l-0.08257,0.16543l-0.14726,0.0889l0.02202,0.27016l-0.22295,0.09963l-0.19679,0.01474l-0.13349,0.13555l-0.07157,-0.13982l-0.26837,0.04639l-0.18167,-0.06124l-0.20919,0.08106l-0.25048,-0.12482l-0.15139,-0.00247l-0.09634,-0.28791l-0.28901,0.00963l-0.17065,0.10956l-0.06881,0.25516l-0.11973,0.24319l-0.20919,0.09399l-0.03165,-0.20974l-0.12523,-0.011l-0.0867,-0.12731l0.01788,-0.18359l-0.14313,-0.26974l-0.14175,0.07185l-0.30966,-0.08148l-0.0578,-0.14463l-0.25048,-0.17051l-0.10873,-0.2319l0.10597,-0.39264l0.07155,-0.09235l-0.12523,-0.25859l-0.17065,-0.15303l-0.02341,-0.11106l-0.2601,-0.02065l-0.18716,-0.06661l-0.0523,-0.09372l-0.22295,0.07762l-0.20919,-0.07912l-0.04267,-0.32163l-0.29864,-0.41025l0.03028,-0.27827l0.09084,-0.32947l-0.21883,-0.17437l-0.16653,-0.00481l-0.04403,-0.27483l0.01101,-0.37998l-0.24496,0.09606l-0.50095,-0.11216l-0.24634,0.03702l-0.05368,0.25199l-0.19405,0.17451l-0.23809,0.02341l-0.17203,-0.12304l-0.03441,-0.15922l0.09909,-0.20863l-0.05368,-0.25874l0.05092,-0.30483l-0.18716,-0.04982l-0.02065,-0.10115l0.13212,-0.19294l-0.1101,-0.30512l-0.2601,-0.31777l-0.0867,-0.16598l0.05367,-0.27524l0.13899,-0.08106l0.0578,-0.27236l-0.05367,-0.18428l0.17891,-0.24511l0.14313,-0.10597l0.06605,-0.21964l-0.139,-0.19418l-0.07981,-0.37021l0.15413,-0.20436l0.07844,-0.31681l-0.19405,-0.00413l0.10873,-0.2601l0.25322,-0.06414l-0.03853,-0.19626l0.08257,-0.26933l0.15964,-0.07501l0.01927,-0.17478l-0.07982,-0.13831l-0.04542,-0.39112l-0.11284,-0.18221l-0.12661,-0.05821l-0.04542,-0.19693l0.23397,-0.09317l-0.00688,-0.29135l0.26286,-0.35589l0.18579,0.06812l0.28488,-0.09442l0.07707,-0.21923l0.09358,-0.01638l0.41286,0.2692l0.20643,0.10363l0.22571,0.21428l0.0922,0.02972l0.35094,-0.27868"></path></g></g></svg>