<svg version="1.1" xmlns="http://www.w3.org/2000/svg" xmlns:xlink="http://www.w3.org/1999/xlink" width="13.49611" height="9.96379" viewBox="0,0,13.49611,9.96379"><g transform="translate(-268.6034,-166.27779)"><g fill="#ff0000" fill-rule="evenodd" stroke="#ffffff" stroke-width="0" stroke-linecap="round" stroke-linejoin="round" stroke-miterlimit="10"><path d="M277.86847,166.27779l0.01982,0.08921l0.19824,0.06566l0.08176,0.1276l0.24161,0.04833h0.18461l0.14868,0.15115l0.16973,-0.09167l0.17964,0.10779l0.11646,-0.00991l0.10779,-0.08549l0.25275,0.01239l0.07433,0.05575l0.02973,0.19204l0.11399,0.11026l-0.11275,0.15735l0.00124,0.09787l-0.10408,0.04833l-0.05947,0.15982l-0.10655,0.057l-0.15983,-0.02106l-0.03717,0.19824l0.0446,0.19576l-0.15115,0.22797l-0.07433,0.02849l-0.04708,0.21807l0.1462,0.19451l0.08426,0.24656l-0.10779,0.10532l-0.2069,0.01115l0.01487,0.11895l-0.09044,0.08797l-0.03098,0.12639l-0.10035,0.03964l-0.03346,0.1524l-0.18337,0.20442l-0.01735,0.1648l-0.06939,0.03964l-0.11026,0.21682l0.06566,0.06566l0.02849,0.18584l0.24531,0.19452l0.10532,0.13628l0.32089,0.20815l0.04708,0.12142l-0.14495,0.00124l0.00991,0.13009l0.13628,0.18337l0.20815,0.15735l0.00124,0.08176l0.16726,-0.01238l0.12886,0.13381l-0.0446,0.13753l0.23044,-0.00743l0.4708,-0.1363l0.06319,-0.05947l0.22798,0.13753l0.06442,-0.07186l0.14992,0.20442l0.28868,-0.03099l0.29735,0.01611l0.09044,-0.08426l0.22301,0.05204l0.03221,0.12886l-0.07186,0.10779l0.14495,0.2069l0.1016,0.03469l0.10283,0.11769l0.13257,0.25027l-0.06442,0.1239l-0.05452,-0.12019l-0.13133,0.057l0.02602,0.19699l-0.17717,0.01734l-0.13381,0.06072l-0.16602,-0.00744l-0.11399,-0.14867l-0.19824,-0.10655l-0.17717,0.09416l-0.23292,0.05204l-0.24159,0.12143l-0.17345,0.02602l-0.19948,-0.03593l-0.38036,0.06319l-0.24904,-0.02973l-0.43612,-0.38408l-0.31841,-0.17222l-0.2069,-0.25894l-0.22921,-0.13504l-0.37416,0.19576l-0.15982,0.06071l-0.24903,-0.10779l-0.34939,-0.10408l0.00247,0.11895l-0.1623,-0.04956l-0.20319,-0.00496l-0.16726,-0.18584l-0.14744,0.02973l-0.04708,-0.09416l-0.1276,0.00373l-0.21557,-0.10532l-0.2069,-0.15115l-0.45718,0.0062l-0.23788,0.25894l0.04213,0.04831l-0.27505,0.46213l-0.09044,0.20815l-0.22798,0.29487l-0.00373,0.15115l-0.08177,0.08177l0.02849,0.24903l0.06319,0.08301l-0.03964,0.1016l-0.14371,-0.00247l-0.07806,0.06691l-0.00373,0.30107l-0.13877,0.01115l-0.057,-0.07806l-0.13628,-0.01982l-0.1685,0.13504l-0.11151,0.01239l-0.09044,0.13628l-0.11399,-0.02478l-0.08053,-0.10779l-0.14248,0.00247l-0.02354,0.28248l-0.1462,0.17097l-0.16479,0.09788l-0.18832,-0.08673l-0.22798,0.04833l-0.13876,0.09912l-0.27752,0.10902l-0.03469,0.08673l-0.19204,0.07309l-0.03966,0.16602l-0.13133,0.12389l-0.04584,0.15736l-0.17841,0.05823l-0.14744,0.00373l-0.13876,0.06071l-0.12886,-0.11399l-0.14248,-0.02973l-0.18213,0.06566l-0.00991,0.09541l-0.12142,0.27877l-0.14371,0.18088l-0.19081,0.08301l-0.05204,0.11523l-0.2701,-0.08301l-0.13753,-0.31965l-0.22301,-0.0062l-0.00373,-0.06566l-0.19081,-0.057l-0.01364,-0.06195l-0.16602,-0.06442l0.15735,-0.32585l-0.01735,-0.29364l-0.11895,-0.18584l-0.03221,-0.16107l0.18088,-0.11399l0.01487,-0.16479l-0.15239,-0.37416l-0.14744,0.03098l-0.26637,-0.057l-0.06195,-0.08673l-0.02973,-0.18088l-0.07682,-0.12142l-0.08426,-0.02106l0.00373,-0.20567l0.17345,0.15611l0.12639,0.02106l0.09912,-0.06689l0.30107,-0.09663l-0.09541,-0.13133l-0.08176,-0.2069l0.16355,-0.14992l-0.03469,-0.14495l-0.13628,0.02354l-0.12762,-0.22797l0.00744,-0.17717l-0.12762,-0.13133l0.04708,-0.26514l-0.02973,-0.12637l0.11026,-0.16355l0.22425,-0.04336l0.17717,-0.09416l0.10655,-0.13133l-0.06939,-0.1747l0.06691,-0.15239l-0.03469,-0.11895l-0.00496,-0.31346l0.08797,-0.25276l-0.09416,-0.15362l0.03221,-0.24903l-0.09664,-0.2515l0.03346,-0.20442l-0.04708,-0.19328l0.10283,-0.17964l0.1239,-0.07062l0.10779,-0.14l0.09788,-0.01858l0.11149,-0.14868l0.13009,0.0062l0.11149,-0.08426l0.20443,-0.057l0.09291,0.07062l0.29487,0.02354l0.10035,-0.04584l0.16602,0.01981l0.04956,0.06691l0.1462,-0.0508l0.42745,0.057l0.26514,-0.03099l0.15362,0.02478l0.07062,-0.12142l0.16602,-0.02973l0.15735,-0.28496l0.15239,-0.10779l0.2255,-0.07186l0.09168,-0.1462l0.14,-0.1177l0.03964,-0.30477l-0.09912,0.05575l-0.08176,-0.06195l-0.22798,-0.00373l-0.13381,-0.07186l0.04708,-0.2701l-0.09416,-0.07433l0.1016,-0.13628l0.15488,0.0446l0.12389,-0.057l0.24779,0.02849l0.28371,0.07558l0.21682,-0.11769l0.17222,0.01858l0.03221,0.06691l0.39276,-0.09293l0.18461,0.06319l0.16106,-0.03346l0.39027,0.1239l0.15859,-0.02354l0.17717,0.07309l0.12514,-0.04089l0.31221,0.04584l0.14,0.21186l0.23664,0.05204l0.03346,-0.15983l0.32461,-0.10655l0.08549,0.00991l0.16726,-0.10284l0.05327,-0.09912l0.19699,-0.057l0.38285,0.03222l0.1177,-0.09168l0.09293,-0.3147l0.083,-0.11646l0.19576,-0.15239"></path></g></g></svg>