<svg version="1.1" xmlns="http://www.w3.org/2000/svg" xmlns:xlink="http://www.w3.org/1999/xlink" width="9.64596" height="10.63461" viewBox="0,0,9.64596,10.63461"><g transform="translate(-173.98238,-194.3598)"><g fill="#ff0000" stroke="#ffffff" stroke-width="0" stroke-linecap="round" stroke-linejoin="round" stroke-miterlimit="10"><path d="M183.24834,196.39006l0.11068,0.21275l-0.00738,0.25577l-0.04303,0.16601l0.14634,0.1156l0.14388,-0.00738l-0.01844,0.11068l0.04795,0.35784l-0.00984,0.14388l-0.08362,0.14265l-0.08854,-0.00861l-0.06271,0.18569l0.07132,0.26684l-0.14019,0.13895l-0.2066,0.10452l-0.12913,0.18938l-0.12912,-0.00615l-0.13773,0.08238l0.08116,0.29022l-0.03566,0.14388l-0.13404,0.0701l-0.0578,0.14879l-0.00984,0.16233l-0.07501,0.01352l-0.12543,0.16971l-0.18815,0.36398l-0.12297,-0.03935l-0.19182,0.03689l-0.08731,-0.08362l-0.22012,0.07379l-0.17217,-0.01721l0.01106,0.13773l0.10084,0.09223l0.00369,0.10084l-0.16601,0.14511l0.00861,0.12912l0.23978,0.10698l0.08485,0.23119l-0.02828,0.15987l0.1033,0.14265l-0.0787,0.12543l-0.02706,0.14141l-0.10452,0.13527l-0.10576,-0.08362l-0.08854,0.1365l-0.14879,0.11313l0.06026,0.08977l-0.1242,0.12174l-0.15126,0.22504l0.03689,0.11068l-0.09592,0.15863l-0.13281,0.00369l-0.08485,-0.06887l-0.21766,0.10206l-0.21397,0.23242h-0.16601l-0.14511,0.07009l-0.06763,0.10576l-0.12912,0.0246l0.00492,0.17339l-0.08854,0.12297l-0.00984,0.09837l-0.23119,0.23488l0.00122,0.1365l-0.11313,0.29022l-0.08485,-0.04181l-0.18692,0.04919l-0.08854,-0.10453l-0.22381,-0.11436l0.03812,-0.13035l-0.08608,-0.07993l-0.091,0.07379l-0.21028,-0.08239l-0.10821,0.08239l-0.13774,0.29512l-0.13281,0.01844l-0.08485,-0.07132l-0.17955,0.05411l-0.13281,0.26563l-0.1943,0.04919l-0.02214,0.07501l-0.3935,-0.04795l-0.09223,0.10206l-0.07379,0.23611l-0.1365,0.08854l-0.10822,-0.02828l-0.20905,0.08608l-0.14879,-0.03812l-0.10452,-0.16233l0.04304,-0.12789l-0.35907,-0.34554l-0.01476,-0.17831l0.08854,-0.15618l-0.00246,-0.18446l0.08116,-0.01106l0.08116,0.11928l0.17462,-0.03075l-0.22135,-0.43655l0.11806,-0.11805l-0.0246,-0.11068l0.17831,-0.1119l0.05902,-0.09592l0.22504,-0.08854l0.19676,-0.2447l0.14141,-0.21274l-0.13157,-0.10207l-0.08239,-0.12173l-0.25085,0.01598l-0.14757,0.07132l-0.30373,0.0332l-0.13035,-0.06394l-0.04304,-0.24964l-0.11314,-0.1365l-0.08608,0.0209l-0.30006,-0.28283l-0.09223,-0.00984l-0.03566,-0.15249l-0.15126,-0.0541l-0.08362,-0.2189l-0.13158,-0.07993l-0.15003,-0.19061l-0.12544,-0.07747l0.25208,-0.1574l0.0578,0.05287l0.19061,-0.06394l0.15618,0.06517l0.0332,-0.12543l-0.09223,-0.1574l-0.22504,-0.18569l-0.10945,0.04796l-0.26807,-0.0123l-0.09469,-0.08731l-0.1697,-0.03935l-0.09961,0.11314l0.07625,0.05287l-0.01721,0.11559l-0.09715,0.02582l-0.13404,-0.10821l0.03935,-0.14511l0.07993,0.01598l0.16478,-0.16109l0.01967,-0.20167l0.11191,-0.01107l0.12543,-0.10575l0.2816,0.11314l0.0209,0.19182l0.18446,0.05903l0.28651,0.01107l0.17831,-0.07747l0.20413,-0.13527l0.22748,0.05657l0.19553,0.10576l0.03689,0.06271l0.21028,-0.04796l0.13158,0.19922l-0.02951,0.09837l0.2029,0.29145l0.18938,0.00369l0.23242,-0.11436l0.14511,-0.25333l0.06518,0.33816l0.12543,0.06025l0.1033,-0.12051l0.0123,-0.19676l0.11191,0.01844l0.1574,0.10206l0.18938,-0.00122l0.12174,-0.08854l0.10698,0.09715l0.1574,0.04673l0.13895,-0.02951l0.15249,-0.13035l0.09961,-0.02214l0.03197,-0.19922l0.11068,-0.15372l0.14265,-0.0123l0.05165,0.08854l0.28774,-0.06271l0.03812,-0.09961l0.15126,0.07132l0.14879,-0.17094l0.22258,-0.1574l-0.08977,-0.1033l-0.12912,0.01967l-0.11559,-0.1279l0.08238,-0.08977l0.17093,0.15987l0.11314,-0.07624l0.16233,-0.24841l0.30988,-0.24349l0.0578,-0.15987l-0.10945,-0.07379l-0.08238,-0.20291l0.15863,-0.2398l0.16109,-0.02582l0.18446,0.03812l0.13896,-0.03812l0.03812,-0.11314l0.16233,-0.18692l0.22996,-0.13404l0.02828,-0.09223l0.16601,-0.15987l0.01476,-0.12543l-0.06149,-0.07009l0.07747,-0.09715l-0.03075,-0.11928l0.08238,-0.16355l0.36398,-0.15987l0.07379,-0.35292l0.06026,-0.11314l0.12666,-0.08608l0.20537,0.00984l0.13035,0.0578l0.0455,0.0787l-0.06148,0.14141l0.11436,0.06394l0.01352,-0.16233l0.19922,-0.04673l0.08238,-0.11314l-0.04181,-0.11191l0.2029,-0.04795l0.07255,-0.09346l-0.07625,0.20782l0.06764,0.06025" fill-rule="evenodd"></path><path d="M177.97291,199.91931l-0.07624,0.07132l-0.40334,-0.03565l-0.18446,0.19797l0.07132,0.10576l-0.20536,0.08363l-0.29022,-0.15372l-0.02337,-0.26069l0.12174,-0.02951l0.06395,0.06641l0.38613,-0.0332l0.35538,-0.18938l0.09837,0.02705l0.08609,0.15002" fill-rule="evenodd"></path><path d="M176.57103,194.64388l0.19184,0.11682l-0.01844,0.1242l-0.15249,0.07993l-0.13404,0.00246l-0.08239,-0.16478l-0.03444,-0.25825l0.03198,-0.18446l0.04673,0.08485l0.14264,0.07132l0.0086,0.12789" fill-rule="evenodd"></path><path d="M179.78056,198.98473l-0.07379,-0.08977l0.01967,-0.16601l0.11436,-0.09837l0.0787,0.2816l-0.13896,0.07256" fill-rule="evenodd"></path><path d="M178.20654,198.80028l-0.10822,-0.04181l0.07379,-0.1943l0.20044,0.09837l-0.02582,0.09469l-0.14019,0.04304" fill-rule="evenodd"></path><path d="M177.4928,199.95592l-0.18447,0.19799l0.07133,0.10577l-0.20537,0.08362l-0.29022,-0.15372l-0.02337,-0.26072l0.12174,-0.02951l0.06395,0.06641l0.38615,-0.03321l0.35539,-0.18939l0.09838,0.02706l0.08609,0.15003l-0.07624,0.07133l-0.40337,-0.03566" fill-rule="nonzero"></path><path d="M179.82933,198.62777l0.07871,0.28162l-0.13896,0.07255l-0.07379,-0.08977l0.01967,-0.16601l0.11437,-0.09838" fill-rule="nonzero"></path><path d="M178.18147,198.55399l0.20044,0.09838l-0.02582,0.09469l-0.1402,0.04303l-0.10822,-0.04181l0.07379,-0.19431" fill-rule="nonzero"></path><path d="M176.75495,194.76636l-0.01844,0.12421l-0.1525,0.07993l-0.13404,0.00246l-0.08239,-0.16478l-0.03444,-0.25826l0.03197,-0.18447l0.04673,0.08485l0.14266,0.07132l0.0086,0.1279l0.19184,0.11682" fill-rule="nonzero"></path></g></g></svg>