<svg version="1.1" xmlns="http://www.w3.org/2000/svg" xmlns:xlink="http://www.w3.org/1999/xlink" width="10.83728" height="9.74688" viewBox="0,0,10.83728,9.74688"><g transform="translate(-236.11282,-171.49382)"><g fill="#ff0000" fill-rule="evenodd" stroke="#ffffff" stroke-width="0" stroke-linecap="round" stroke-linejoin="round" stroke-miterlimit="10"><path d="M239.65872,171.49384l0.18214,0.09168l-0.02973,0.14495l0.14992,0.16355l0.26267,0.13628l0.15611,0.0446l0.07806,0.16355l0.08549,0.01487l0.01735,0.16602l0.19452,0.08426l-0.05575,0.3023l0.02106,0.12637l0.09168,0.16726l0.08797,0.27257l0.17222,0.12143l0.13504,-0.07309l0.27011,0.03593l0.23044,-0.07186l0.06195,0.23911l0.12266,0.03099l0.09416,0.17097l0.10902,0.0954l0.1016,-0.05327l0.0954,0.06814l0.09912,-0.02602l0.06938,-0.11399l0.22178,-0.21062l0.11274,0.14495l0.18337,0.05204l0.11895,-0.07806l0.06442,0.04956l0.31098,-0.10408l0.10284,0.02973l0.03469,0.1016l0.16602,0.06319l0.17593,0.16973l0.15982,0.04956l0.11026,0.17097l0.02973,0.13009l0.21807,0.13628l0.12142,0.02106l0.18213,0.2069l-0.02229,0.10408l0.04956,0.13628l0.18832,0.02602l0.50921,-0.22797l0.29116,0.02602l0.19203,-0.09044l0.12143,0.18461l0.00247,0.10037l-0.24655,0.11893l-0.11152,0.18461l-0.01239,0.41134l-0.06814,0.17841l-0.02229,0.21062l0.28001,0.07186l0.04708,0.34939l-0.00744,0.17841l0.23788,0.0954l0.21062,0.02354l0.05327,0.11893l-0.11769,0.20072l0.03221,0.08426l0.16107,0.02973l0.07806,0.11399l0.09788,0.02973l0.12513,0.27877l-0.0446,0.20442l0.07186,0.07309l0.0793,0.26142l-0.09044,0.18461l-0.12018,0.04336l-0.1623,-0.02229l-0.07929,0.534l-0.08177,0.14744l-0.18832,-0.00991l0.00373,-0.10037l-0.13009,-0.06071l-0.11646,0.02106l-0.16602,0.12513l-0.20567,-0.10902l-0.04833,0.12142l-0.13133,0.12513l-0.1239,-0.03221l-0.12637,0.07433l-0.22054,-0.03098l-0.07309,0.09416l-0.1462,-0.01114l-0.02229,-0.19576l-0.09044,-0.1239l-0.08673,0.14248l-0.14991,0.03098l-0.0384,0.11769l-0.14248,-0.0161l-0.15362,-0.14868l-0.16106,0.10655l-0.00124,0.10902l-0.16973,0.09788l-0.26763,-0.04708l-0.06691,0.03593l-0.24903,-0.14124l-0.16355,0.24531l-0.00124,0.20443l-0.10532,0.11646l-0.08549,-0.22301l-0.14744,-0.14744l-0.21063,0.02973l-0.07433,-0.08426l-0.38285,0.057l-0.14495,-0.11151l-0.12514,0.03098l-0.10902,-0.13876l-0.28992,-0.08921l-0.35062,0.23168l-0.01982,0.05824l-0.23417,0.01734l-0.07682,0.14991l-0.04089,0.21807l0.08176,0.09663l0.02478,0.20072l-0.08053,0.13133l0.02725,0.11151l-0.11895,0.04087l-0.26267,0.43984l0.08673,0.08053l-0.12018,0.10779l0.01487,0.09044l-0.12018,0.10902l-0.14,-0.15362l-0.30727,-0.07682l-0.12637,-0.13256l-0.4448,-0.10779l-0.06691,-0.17097l-0.09663,-0.04584l-0.22921,0.02354l-0.20442,0.06815l-0.01858,-0.19699l-0.20815,-0.18337l0.00743,-0.22425l-0.1747,-0.22178l-0.07062,-0.20689l-0.17965,0.00247l0.01858,-0.21186l-0.14992,-0.28619l-0.14001,-0.21063l-0.07558,-0.20072l-0.10779,-0.07433l-0.28371,-0.31965l-0.31223,-0.29983l-0.19824,-0.21806l-0.03098,-0.12018l0.03593,-0.1623l-0.03346,-0.14248l0.02973,-0.1685l-0.01114,-0.19204l-0.12639,-0.12513l0.00247,-0.07682l-0.2131,-0.20442l-0.1462,-0.29735l0.09416,-0.15611l-0.0161,-0.08426l0.26761,-0.1747l0.30974,-0.37416l-0.01238,-0.14992l0.08673,-0.10035l0.05824,-0.32585l0.11275,-0.23169l0.06814,-0.2515l0.15736,-0.11522v-0.10779l0.07681,-0.1685l0.2701,-0.16107l0.20815,-0.22674l-0.03718,-0.11151l0.29735,-0.49434l0.16479,0.03964l-0.07309,-0.1685l0.12639,-0.19699l0.01487,-0.22177l-0.09541,-0.15115l0.06566,-0.05574l-0.09168,-0.12637l0.37789,-0.0508l0.10037,0.05575l0.17345,-0.06691l0.51293,-0.33452l0.28868,-0.23541l0.03966,-0.06319"></path></g></g></svg>