<svg version="1.1" xmlns="http://www.w3.org/2000/svg" xmlns:xlink="http://www.w3.org/1999/xlink" width="6.63711" height="7.03985" viewBox="0,0,6.63711,7.03985"><g transform="translate(-209.01041,-210.45688)"><g fill="#ff0000" fill-rule="evenodd" stroke="#ffffff" stroke-width="0" stroke-linecap="round" stroke-linejoin="round" stroke-miterlimit="10"><path d="M215.64752,212.99927l-0.07558,0.16602l-0.07309,-0.01115l-0.10779,0.1239l-0.02229,0.20938l-0.15859,0.19204l-0.35062,0.5786l-0.0062,0.19576l-0.34939,0.69382l-0.04956,0.16602l0.05823,0.06319l-0.02725,0.16602l-0.08053,0.14l-0.08301,0.36427l-0.00496,0.2131l-0.07062,0.32832l-0.07681,0.19081l0.00744,0.22177l-0.06814,0.44107l-0.1016,0.05452l-0.07062,-0.21929l-0.18955,-0.31594l-0.19701,-0.2255l-0.18955,-0.03221l-0.07062,0.07309l-0.09912,-0.04708l0.02849,-0.12637l-0.05204,-0.25275l-0.07433,-0.1016l-0.20072,-0.10408l-0.09293,-0.08673l-0.11274,-0.22301l-0.16107,-0.15982l-0.15362,-0.05452l-0.09293,-0.09416l0.04956,-0.20815l-0.10655,-0.31964l-0.20195,-0.11152l-0.27133,-0.1016l-0.1016,-0.09416l-0.29983,-0.11646l-0.11026,-0.11522l-0.10035,-0.19452l0.03593,-0.15488l-0.0954,-0.17097l-0.17717,-0.09788l-0.51913,-0.15859l-0.46585,-0.05574l-0.09912,-0.09541l-0.21187,-0.04089l-0.47205,-0.02106l-0.12142,0.01734l0.10284,-0.13256l0.0446,-0.14744l0.15115,-0.22053l0.09663,-0.00992l0.14001,-0.10283l0.08673,-0.14744l-0.03593,-0.11647l0.14992,-0.13009l0.1747,0.10035l0.26142,-0.24655l-0.10037,-0.11151l0.05823,-0.08426l0.18337,-0.08426l-0.04213,-0.08673l0.09044,-0.14868l-0.04213,-0.20195l0.12266,-0.16973l0.09293,-0.01859l0.08796,0.10408l0.10037,-0.02229l0.08797,0.06814l0.23044,-0.09787l0.12142,-0.14l0.19328,-0.08797l0.09664,-0.19452l0.28001,-0.21434l0.06689,-0.22178l0.07186,-0.06071l0.21929,0.00124l0.09541,-0.09541l0.10035,0.1016l0.36798,-0.11151l0.01735,0.14867l-0.03593,0.13877l-0.08549,0.09293l0.12018,0.0793l0.41629,-0.08921l0.32708,-0.01858l0.27628,0.15115l0.18832,-0.03593l0.13628,0.06195l0.00867,0.11895l-0.08053,0.07681l0.07806,0.13753l-0.04956,0.05823l0.15983,0.12885l-0.16974,0.10532l-0.08053,0.09663l-0.17097,0.07309l0.05823,0.11151l0.01362,0.16726l0.20443,0.03221l-0.02354,0.18832l0.1016,0.04213l0.12018,0.19452l-0.00867,0.07806l0.17964,0.19824l0.20319,-0.07558l0.24531,0.21807l0.39027,-0.02973l0.04584,-0.08549l0.16726,0.01239l0.20442,0.08797l0.02478,0.07806"></path></g></g></svg>