<svg version="1.1" xmlns="http://www.w3.org/2000/svg" xmlns:xlink="http://www.w3.org/1999/xlink" width="8.04745" height="13.73411" viewBox="0,0,8.04745,13.73411"><g transform="translate(-284.79834,-115.01921)"><g fill="#ff0000" fill-rule="evenodd" stroke="#ffffff" stroke-width="0" stroke-linecap="round" stroke-linejoin="round" stroke-miterlimit="10"><path d="M290.11644,115.53994l0.12707,0.04982l0.09593,0.3625l-0.04361,0.16817l0.12083,0.01121l0.24666,-0.1308l0.19059,-0.35129l0.09841,-0.02742l0.10713,-0.12831l0.07972,0.0299l0.2753,-0.01245l0.04111,0.09095l0.15696,0.00746l0.18187,0.13578l0.26409,-0.06727l0.09342,0.03239l0.19308,0.43475l0.06229,-0.01494l0.12083,0.25661l0.20181,0.20804l0.04859,0.21426l0.06727,0.11212l-0.08597,0.11834l-0.06851,0.23046l-0.24791,0.14077l-0.10589,0.00996l-0.34506,0.19059l-0.18437,-0.03736l-0.16195,-0.12333l-0.3351,0.24541l-0.25039,0.11336l-0.10339,-0.03612l-0.20305,0.06229l-0.11709,0.24042l-0.15945,-0.06727l-0.23543,0.21302l0.04609,0.19182l-0.01619,0.12955l-0.17067,-0.01993l-0.03863,-0.10713l-0.26658,0.03114l-0.04359,0.147l0.05232,0.07599l0.1607,-0.01371l-0.00248,0.24915l-0.09094,0.15322l-0.11585,0.09466l0.00623,0.13453l-0.17068,0.23543v0.18686l-0.13578,0.03612l-0.05107,0.17067l-0.07973,0.04236l-0.05979,0.26658l0.16569,-0.00623l0.06478,0.0872l0.0274,0.3077l0.04112,0.09966l0.13579,0.01868l0.09218,0.1358l0.06104,0.19059l-0.11585,0.10215l0.19059,0.28901l0.00498,0.19683l-0.147,0.07972l-0.00499,0.25911l0.11087,0.16443l0.34755,0.12208l-0.02118,0.15696l-0.19557,0.20804l0.33385,0.05856l0.05481,0.12582l-0.54438,0.12333l-0.11212,0.07475l0.01743,0.23046l0.36874,0.02241l0.02242,0.09592l0.19433,-0.01743l0.15198,0.13453l-0.01869,0.14575l0.0897,0.11833l0.08346,-0.03986l0.00124,0.24168l0.14326,0.11087l0.02492,0.1607l-0.147,0.00623l-0.03238,0.22797l-0.08222,0.11709l-0.03987,0.19683l0.12831,0.03736l-0.03987,0.16569l-0.65899,0.0897l-0.02742,0.04859l-0.26534,0.08846l-0.15198,0.16443l-0.23295,-0.07225l-0.0872,0.03489l-0.01121,0.14077l0.09841,0.11461l0.00374,0.11834l0.11335,0.1607l0.12208,-0.05108l0.11087,0.14077l-0.01245,0.08097l0.11834,0.15696l0.09218,0.02865l0.07474,0.12955l0.02367,0.19932l0.12955,0.08846l0.13703,0.19185l0.01869,0.16195l0.10215,0.11585l0.05357,0.23793l0.16569,0.01495l0.13329,0.17937l0.02865,0.24791l-0.1196,0.15073l0.01869,0.14824l0.09342,0.15447l-0.16942,0.17316l-0.12831,0.0573l-0.00125,0.09966l-0.09964,0.18312l-0.20305,-0.07225l-0.12333,-0.15945l-0.27904,-0.10712l-0.11461,0.10463l-0.0872,-0.04111l-0.22921,0.05979l-0.06976,-0.06354l-0.26534,-0.07475l0.05232,-0.28527l-0.04609,-0.09966l-0.32638,0.03862l-0.30022,0.12955l-0.08596,-0.19433l-0.17565,-0.0274l-0.1607,-0.08346l-0.02492,-0.15322l-0.15198,-0.08597l-0.36376,-0.05979l-0.13703,-0.09716l0.0573,-0.11087l-0.06977,-0.21801l0.00747,-0.32015l-0.67642,0.16569l-0.12707,0.11585l-0.03987,0.16569l-0.57676,-0.18811l-0.0299,0.06977l-0.49455,-0.09592l-0.45344,0.00872l0.19308,-0.24416l0.00747,-0.24791l0.10589,-0.09841l0.13453,-0.4248l-0.01743,-0.29149l-0.13827,-0.07724l0.04609,-0.18935l0.08346,-0.1283l0.147,-0.39366l-0.06104,-0.16817l0.11585,-0.3239l0.14326,-0.1607l0.24168,-0.01245l0.19932,-0.08222l0.09716,-0.13703l0.28651,-0.62162l0.20305,-0.62659l0.10465,-0.39489l0.15073,-0.73747l0.14201,-0.76487l0.07225,-0.54314l-0.01245,-0.15447l0.07847,-0.3924l0.06229,-0.71877l0.02367,-0.70756l-0.03986,-0.71006l-0.00623,-0.3625l-0.06602,-0.29399l-0.09592,-0.17316l0.05481,-0.18935l-0.01745,-0.20928l-0.1582,0.04359l-0.03987,-0.15572l0.06354,-0.12208l-0.05606,-0.25787l0.27031,-0.04111l-0.00996,-0.35254l-0.07724,-0.25661l0.09466,-0.11336l0.12333,0.01869l0.07847,-0.11585l0.10463,0.21054l0.22174,0.05606l0.11585,-0.01869l0.11834,-0.13703l0.19184,0.09466l0.17813,0.00248l0.1009,-0.07847l0.14077,0.07847l0.2454,-0.05856l0.1582,-0.11709l0.01743,-0.13579l0.09593,-0.01869l0.18187,0.06602l0.13828,0.31517l0.21054,0.22673l0.10215,-0.03862l0.1856,0.04236l0.09966,-0.12332l0.18312,0.03238"></path></g></g></svg>