<svg version="1.1" xmlns="http://www.w3.org/2000/svg" xmlns:xlink="http://www.w3.org/1999/xlink" width="14.20225" height="7.52676" viewBox="0,0,14.20225,7.52676"><g transform="translate(-202.77592,-185.88931)"><g fill="#ff0000" fill-rule="evenodd" stroke="#ffffff" stroke-width="0" stroke-linecap="round" stroke-linejoin="round" stroke-miterlimit="10"><path d="M212.04212,185.92784l-0.04956,0.15115l0.057,0.09912l-0.13876,0.13133l-0.05823,0.16107l0.10283,0.09541l0.17222,0.04214l0.09912,-0.02726l0.30974,0.14l0.09293,-0.07433l0.10532,0.05823l0.19328,-0.12266l0.14371,0.06071l0.06071,0.10532l0.24161,0.23169l0.16602,-0.01858l0.06939,0.11151l-0.04584,0.08177l0.16107,0.17593l-0.09664,0.13009l0.03221,0.10037l-0.09787,0.05452l0.08673,0.12018l0.16974,-0.04956l0.07433,0.10035l-0.02478,0.1747l-0.09788,0.16479l-0.00373,0.16602l0.13628,0.10035l0.04833,0.11895l-0.01981,0.11895l0.1276,0.04708l0.1524,-0.1016l0.03717,-0.19204l0.35558,-0.02849l0.07433,-0.1016l0.27505,-0.05327l0.13753,-0.14868l0.21806,0.20567l0.25399,-0.07558l0.18337,0.01982l0.11026,-0.03346l0.14867,-0.15362l0.02354,-0.09912l0.17097,-0.0508l0.22921,-0.13505l0.07186,-0.08426l-0.01858,-0.13134l0.20442,-0.09416l0.14868,0.0954l0.01362,0.07309l-0.07186,0.20319l-0.17964,0.0892l-0.01487,0.23292l0.02973,0.18832l0.19824,0.0954l0.14124,0.00992l0.01858,0.14124l-0.0793,0.18088l0.08673,0.10779l-0.07681,0.17097l-0.1177,-0.07309l-0.17841,-0.00496l-0.19452,0.08426l-0.13628,0.33576l0.05327,0.06689l-0.10408,0.14001l0.03346,0.17717l-0.06691,0.13876l-0.1623,0.02229l-0.21557,0.08053l0.02602,0.24161l-0.08301,0.10037l0.02229,0.26761l-0.10655,-0.03469l-0.12266,0.03593l-0.20072,0.14371l-0.07929,0.15611l-0.13381,0.10037l0.01734,0.17717l0.16355,0.05947l0.04213,0.06689l-0.057,0.14371l-0.08301,0.04833l0.07433,0.12266l-0.00124,0.18832l-0.21063,0.16726l-0.07186,0.09416l-0.23044,0.13009l0.00496,0.11895l-0.11895,0.09168l-0.03098,0.24655l-0.3593,-0.057v0.1462l0.05947,0.10532l-0.09416,0.06071l-0.07062,-0.10655l-0.17964,-0.02106l-0.07559,0.26886l-0.14744,-0.10283l-0.18832,0.00744l-0.17717,-0.04956l0.03718,-0.34816l-0.08921,-0.03718l-0.11522,0.07806l-0.07682,-0.11895l-0.2069,-0.16107l0.04089,-0.10779l-0.06319,-0.09167l-0.16726,0.01981l-0.06689,0.06815l-0.19328,-0.00496l-0.22425,-0.10655l-0.10532,-0.10037l-0.12886,0.20689l-0.0384,0.23664l-0.12886,0.28992l0.03964,0.09416l-0.06566,0.08177l-0.24284,0.06442l-0.03966,0.08921l-0.15611,0.09293l-0.20815,0.05204l-0.23664,-0.05824l0.13256,-0.14l-0.09788,-0.05823l-0.10408,-0.19699l-0.16106,-0.08796l-0.08177,0.07806l-0.10407,-0.12142l0.14991,-0.13134l0.02849,-0.12637l-0.02849,-0.1747l-0.06071,-0.07309l-0.16478,-0.01612l-0.06442,-0.06442l-0.09912,0.12886l-0.13628,0.04087l-0.03966,-0.10035l-0.16478,0.10408l-0.03966,-0.12266h-0.10655l-0.05204,-0.09912l-0.11275,-0.02229l-0.19081,0.19576l-0.10407,0.00991l-0.07309,0.15859l-0.32338,-0.12514l-0.04585,-0.22054l-0.09167,-0.00373l-0.06566,0.09788l-0.36053,-0.11646l-0.19328,-0.09912l-0.03222,0.09044l-0.18461,0.09663l-0.0892,-0.06939l-0.10902,0.13628l-0.17096,0.07186l-0.12514,-0.03718l0.02106,0.38656l-0.20072,0.08673l-0.01362,0.08176l-0.1623,0.057l0.01982,-0.23417l-0.04833,-0.24903l-0.16479,-0.2131l0.00496,-0.09416l-0.1648,0.01981l-0.08301,0.06566l0.07433,0.15735l-0.04956,0.10284l-0.17097,0.01362l-0.13009,0.23044l0.09912,0.23541l-0.09912,0.16602l-0.10779,0.07186l-0.11895,0.00373l-0.09788,0.07558h-0.11769l-0.1462,0.16602l-0.23169,-0.12514l-0.1462,0.03221l-0.09663,-0.09417l-0.30727,0.06195l-0.08176,-0.07682l-0.20939,-0.05947l-0.15982,0.09663l-0.19451,0.02478l-0.07682,0.0793l-0.23664,-0.06689l-0.31346,-0.01239l-0.22054,0.29116l-0.08301,-0.12762l-0.18088,-0.1462l-0.14124,-0.23044l-0.02725,-0.22177l0.0892,-0.13753l-0.01362,-0.23912l0.09293,-0.12266l-0.14992,-0.28744l0.09416,-0.13504l-0.02229,-0.10655l0.09541,-0.03966l0.13505,-0.20071l-0.0062,-0.23788l-0.06814,-0.13256l-0.13256,-0.04213l-0.02478,-0.08301l-0.22054,-0.3023l-0.13256,-0.06566l-0.09416,-0.11275l0.02725,-0.0793l0.09664,-0.1276l0.17222,-0.07309l-0.03098,-0.37789l0.13256,-0.12018l0.25275,0.15115l0.10779,-0.01735l0.12514,-0.1747l0.20689,0.08797l0.1462,-0.14248l0.14992,-0.06815l0.30479,0.00496l0.10407,-0.10284l-0.00744,-0.26761l-0.07558,-0.06319l-0.08177,-0.31221l-0.06319,-0.08426l0.03345,-0.1747l0.14001,-0.0793l0.10158,0.01734l0.27877,0.17593l0.11769,0.02726l0.24035,-0.05823l0.09663,-0.10408l0.29364,-0.09416l0.11895,-0.07309l0.1016,0.0384l0.03593,0.11522l0.12266,-0.06071l-0.16973,-0.50921l-0.12266,-0.11646l0.14495,-0.19081l0.21807,0.06195l0.13753,-0.10655l0.11151,0.02849l0.16479,-0.23044l-0.01735,-0.1338l0.06319,-0.10284l-0.01734,-0.21929l0.08796,-0.15488l-0.00991,-0.26019l0.19328,-0.24903l-0.0384,-0.10779l0.08796,-0.10655l0.31964,0.12513l0.11646,-0.04336l0.21807,0.04833l0.20443,0.18708l0.14495,0.07186l0.17841,-0.02354l0.05327,-0.09167l0.15983,0.02725l0.22424,0.12266l0.26763,-0.00124l0.10284,0.13504l0.1239,-0.0062l0.10779,0.13753l0.22053,0.1016l0.19576,0.24159l-0.02106,0.10035l0.09416,0.08301l0.03593,0.18584l0.17345,0.057l0.14371,-0.07062l0.14744,-0.22178l0.12762,-0.06319l-0.04833,-0.30479l0.24035,-0.02354l0.3147,-0.19328l0.22798,-0.00373l0.08426,-0.16726l-0.05204,-0.06319l0.04585,-0.16973l0.17097,0.00991l0.10902,-0.12266l0.19204,-0.10902l0.12639,0.06689l0.22177,-0.14371l0.21187,0.0384"></path></g></g></svg>