<svg version="1.1" xmlns="http://www.w3.org/2000/svg" xmlns:xlink="http://www.w3.org/1999/xlink" width="25.96943" height="56.62527" viewBox="0,0,25.96943,56.62527"><g transform="translate(-227.01528,-151.68736)"><g fill-rule="evenodd" stroke-miterlimit="10"><path d="M239.71409,157.01606c-1.44012,0 -2.71083,0.593 -3.81212,1.77899c-1.94842,2.07549 -2.92263,5.89821 -2.92263,11.46815c0,3.53681 0.51886,6.4912 1.5566,8.8632c1.14364,2.5626 2.76381,3.84389 4.86048,3.84389c1.84252,0 3.39913,-0.95304 4.66984,-2.85909c0.42358,-0.63536 0.86831,-1.5778 1.33425,-2.82733c0.7836,-2.13903 1.17541,-4.26747 1.17541,-6.38531c0,-3.40974 -0.56124,-6.62886 -1.68371,-9.65738c-0.57181,-1.50367 -1.4613,-2.64731 -2.66847,-3.43091c-0.7836,-0.52946 -1.62014,-0.7942 -2.50966,-0.7942zM239.71409,152.18737c4.19334,0 7.41247,2.1708 9.6574,6.51238c2.07549,4.02391 3.11323,10.04919 3.11323,18.07583c0,10.16567 -1.80016,17.55695 -5.40052,22.17387c-3.21913,4.1298 -8.00546,7.08419 -14.359,8.86319l-2.5414,-4.38395c5.80289,-1.52485 9.97505,-3.92861 12.51648,-7.21127c2.75319,-3.5368 4.28862,-8.41844 4.6063,-14.64492h-0.28592c-0.65652,1.52485 -1.49307,2.72144 -2.50963,3.58975c-1.73666,1.52485 -3.74861,2.28728 -6.03586,2.28728c-3.11323,0 -5.70761,-1.47191 -7.78311,-4.41571c-2.11785,-2.98617 -3.17677,-7.09479 -3.17677,-12.32587c0,-5.71819 1.15423,-10.27156 3.46269,-13.66012c2.20256,-3.2403 5.1146,-4.86046 8.7361,-4.86046z" fill="#ffffff" stroke="none" stroke-linecap="square" stroke-linejoin="miter"></path><path d="M239.71409,157.01606c-1.44012,0 -2.71083,0.593 -3.81212,1.77899c-1.94842,2.07549 -2.92263,5.89821 -2.92263,11.46815c0,3.53681 0.51886,6.4912 1.5566,8.8632c1.14364,2.5626 2.76381,3.84389 4.86048,3.84389c1.84252,0 3.39913,-0.95304 4.66984,-2.85909c0.42358,-0.63536 0.86831,-1.5778 1.33425,-2.82733c0.7836,-2.13903 1.17541,-4.26747 1.17541,-6.38531c0,-3.40974 -0.56124,-6.62886 -1.68371,-9.65738c-0.57181,-1.50367 -1.4613,-2.64731 -2.66847,-3.43091c-0.7836,-0.52946 -1.62014,-0.7942 -2.50966,-0.7942zM239.71409,152.18737c4.19334,0 7.41247,2.1708 9.6574,6.51238c2.07549,4.02391 3.11323,10.04919 3.11323,18.07583c0,10.16567 -1.80016,17.55695 -5.40052,22.17387c-3.21913,4.1298 -8.00546,7.08419 -14.359,8.86319l-2.5414,-4.38395c5.80289,-1.52485 9.97505,-3.92861 12.51648,-7.21127c2.75319,-3.5368 4.28862,-8.41844 4.6063,-14.64492h-0.28592c-0.65652,1.52485 -1.49307,2.72144 -2.50963,3.58975c-1.73666,1.52485 -3.74861,2.28728 -6.03586,2.28728c-3.11323,0 -5.70761,-1.47191 -7.78311,-4.41571c-2.11785,-2.98617 -3.17677,-7.09479 -3.17677,-12.32587c0,-5.71819 1.15423,-10.27156 3.46269,-13.66012c2.20256,-3.2403 5.1146,-4.86046 8.7361,-4.86046z" fill="none" stroke="#ffffff" stroke-linecap="butt" stroke-linejoin="round"></path></g></g></svg>