<svg version="1.1" xmlns="http://www.w3.org/2000/svg" xmlns:xlink="http://www.w3.org/1999/xlink" width="7.89073" height="7.70666" viewBox="0,0,7.89073,7.70666"><g transform="translate(-161.23446,-213.93907)"><g fill="#ff0000" fill-rule="evenodd" stroke="#ffffff" stroke-width="0" stroke-linecap="round" stroke-linejoin="round" stroke-miterlimit="10"><path d="M169.05755,214.56507l-0.01598,0.06764l0.07255,0.1943l0.01107,0.80791l-0.07379,0.34432l-0.20167,0.03565l-0.15863,-0.00984l-0.01353,0.14879l-0.07501,0.08116l-0.18938,-0.10821l-0.08731,0.10207l0.15249,0.14757l-0.05533,0.14388l-0.22381,0.0209l-0.1365,0.0578l0.00738,0.1033l0.12298,0.05165l-0.01598,0.07993l-0.14634,0.02828l-0.05288,0.06641l0.0123,0.19676l-0.08854,0.01476l-0.091,-0.17339l0.04182,-0.19922l-0.14265,-0.01106l0.04919,0.14141l-0.19676,0.40949l-0.1574,0.05902l-0.02582,-0.15371l-0.13527,0.02951l0.01598,0.17337l-0.06025,0.07009l-0.14879,-0.05411l-0.0332,0.11929l0.1033,0.10207l-0.03444,0.1365l-0.17339,0.06887l-0.08731,0.08731l-0.18813,0.06271l0.01106,0.24349l0.15372,0.11682l-0.0123,0.1611l0.04673,0.23119l-0.00122,0.19676l-0.59763,-0.08238l-0.22997,-0.00984l-0.05533,-0.13774l0.0209,-0.08362l-0.08731,-0.10453l-0.22873,-0.16355l-0.10576,-0.15003l-0.22135,-0.05903l-0.01476,0.1611l-0.12298,0.26807l-0.39473,0.27791l0.02705,0.06518l-0.28899,0.17462l-0.23365,0.25208l-0.20905,-0.06271l-0.05042,0.07009l0.08609,0.2447l0.12297,0.13528l-0.03444,0.09837l0.08608,0.17955l0.24716,0.26684l0.01845,0.19922l0.09223,0.08608l0.04796,0.2447l0.1574,0.35661l0.06271,-0.04427l0.11436,0.08116l0.15495,0.18077l0.0209,0.1697l-0.25579,0.07379l-0.37506,-0.07379l-0.28774,-0.00861l-0.06887,-0.13035l-0.16233,0.04919l-0.34308,-0.09469l-0.17339,0.01106l-0.15863,-0.19922l-0.182,0.02583l-0.22874,-0.26438l-0.17954,-0.12544l-0.00738,-0.11559l-0.15249,0.04181l-0.17094,-0.12052l-0.08116,-0.16847l-0.00467,-0.15863l-0.13319,-0.12912l-0.23684,-0.11068l-0.11411,-0.02459l-0.19578,-0.11929l-0.07083,-0.20905l-0.1317,-0.03074l0.03578,-0.22627l0.19011,-0.10207l0.12986,0.04181l0.06641,-0.12051l-0.00504,-0.15372l-0.09136,-0.07993l-0.12581,-0.45991l-0.1483,-0.12789l-0.11572,0.03812l0.01316,-0.16233l-0.07649,-0.05411l0.00406,-0.16601l-0.06369,-0.01722l-0.08387,-0.31726l0.05225,-0.11068l0.20991,0.01476l0.11744,-0.0455l0.06271,-0.12543l0.20414,-0.27422l0.10132,0.03444l0.1172,-0.09715l0.02115,-0.10452l0.11118,-0.09469l0.25417,-0.08731l0.28651,-0.03198l0.1119,0.07993l0.12913,-0.12543l0.11313,-0.0332l0.11191,-0.13035l0.13158,-0.03689l0.14879,-0.18321l0.14388,-0.03321l0.17708,-0.15863l0.18815,-0.21398l0.18692,0.01353l-0.02214,-0.11191l0.05902,-0.08238l-0.01353,-0.182l-0.06394,-0.11436l0.02459,-0.13035l0.15741,-0.17094l0.04303,-0.11805l-0.01476,-0.12789l0.14019,-0.32833l0.01721,-0.29268l-0.04303,-0.10945l0.03689,-0.12912l0.17217,0.01476l0.07255,-0.11806l0.20782,-0.09961l0.21766,0.04673l0.1242,-0.0086l0.05902,0.07132l0.17462,0.0455l0.06271,-0.07625l0.23611,-0.04058l0.23611,0.22504l0.18692,0.02337l0.42179,0.24964l0.12789,0.17462l0.09469,-0.0246l0.25333,0.10453l0.17093,0.01721l0.08363,0.1525l0.12666,0.1033l0.04796,0.11928l0.12051,0.06271l0.10085,-0.11682l0.06394,-0.15863l0.19799,-0.06394l-0.00369,-0.07501l0.1365,-0.11682l0.27053,-0.09961l0.05903,-0.07379l0.18692,-0.06518l0.31236,0.15002"></path></g></g></svg>