<svg version="1.1" xmlns="http://www.w3.org/2000/svg" xmlns:xlink="http://www.w3.org/1999/xlink" width="36.07477" height="55.46954" viewBox="0,0,36.07477,55.46954"><g transform="translate(-221.96261,-152.26523)"><g fill="#ffffff" fill-rule="evenodd" stroke="none" stroke-linecap="square" stroke-miterlimit="10"><path d="M233.68026,160.85147c-1.65832,1.57413 -2.48749,3.60285 -2.48749,6.08612c0,2.53377 0.82915,4.60459 2.48749,6.2124c1.65832,1.5994 3.75437,2.39909 6.28812,2.39909c2.5843,0 4.70138,-0.79969 6.35127,-2.39909c1.65832,-1.6078 2.48748,-3.67862 2.48748,-6.2124c0,-2.48327 -0.82914,-4.51198 -2.48748,-6.08611c-1.6499,-1.58255 -3.76698,-2.37384 -6.35127,-2.37384c-2.53375,0 -4.62981,0.79128 -6.28812,2.37384zM234.29899,182.49379c-1.65832,0.8502 -2.9673,2.02451 -3.92692,3.52287c-0.95124,1.49836 -1.42685,3.20719 -1.42685,5.12649c0,1.96137 0.4756,3.69125 1.42685,5.18961c0.95963,1.49837 2.2686,2.67688 3.92692,3.53549c1.65832,0.8502 3.54811,1.27531 5.66941,1.27531c2.17184,0 4.07007,-0.4251 5.6947,-1.27531c1.63306,-0.85862 2.92521,-2.03713 3.87643,-3.53549c0.95963,-1.49836 1.43946,-3.22826 1.43946,-5.18961c0,-1.91927 -0.47981,-3.62811 -1.43946,-5.12649c-0.95122,-1.49837 -2.24337,-2.67267 -3.87643,-3.52287c-1.62464,-0.85862 -3.52287,-1.28794 -5.6947,-1.28794c-2.1213,0 -4.01107,0.42933 -5.66941,1.28794zM239.96841,152.26523c3.04728,0 5.73258,0.6103 8.05592,1.83089c2.33175,1.21218 4.17102,2.87891 5.5179,5.00022c1.34685,2.1213 2.02029,4.57933 2.02029,7.37405c0,1.96137 -0.3788,3.80908 -1.13639,5.54316c-0.74919,1.73408 -1.83509,3.23667 -3.25774,4.50778c-0.68448,0.60754 -1.44299,1.13515 -2.2756,1.58289v0c1.32699,0.56345 2.52746,1.27326 3.60143,2.12938c1.78459,1.42262 3.15248,3.14407 4.10369,5.16435c0.95963,2.02029 1.43947,4.24262 1.43947,6.66696c0,3.00518 -0.74919,5.69888 -2.24757,8.08114c-1.49837,2.37384 -3.60706,4.23418 -6.32603,5.58105c-2.71057,1.33844 -5.87568,2.00767 -9.49536,2.00767c-3.56915,0 -6.71323,-0.66923 -9.4322,-2.00767c-2.71057,-1.34686 -4.81921,-3.20721 -6.32604,-5.58105c-1.49837,-2.38226 -2.24757,-5.07597 -2.24757,-8.08114c0,-2.42434 0.46297,-4.64667 1.38895,-6.66696c0.93438,-2.02029 2.30647,-3.74174 4.11633,-5.16435c1.09316,-0.85927 2.29999,-1.57113 3.62037,-2.13559v0c-0.83628,-0.4464 -1.60113,-0.97196 -2.29455,-1.57669c-1.44787,-1.2711 -2.54639,-2.77369 -3.29559,-4.50776c-0.74919,-1.73409 -1.12378,-3.58179 -1.12378,-5.54316c0,-2.79472 0.66919,-5.25275 2.00765,-7.37405c1.34685,-2.1213 3.19459,-3.78804 5.54315,-5.00022c2.35703,-1.2206 5.03809,-1.83089 8.04327,-1.83089z"></path></g></g></svg>