<svg version="1.1" xmlns="http://www.w3.org/2000/svg" xmlns:xlink="http://www.w3.org/1999/xlink" width="9.15457" height="8.36878" viewBox="0,0,9.15457,8.36878"><g transform="translate(-293.252,-64.17659)"><g fill="#ff0000" fill-rule="evenodd" stroke="#ffffff" stroke-width="0" stroke-linecap="round" stroke-linejoin="round" stroke-miterlimit="10"><path d="M301.49826,64.61551l0.09772,0.27524l0.21193,0.06331l0.07019,0.09359l0.36057,-0.10184l0.1679,0.03578l-0.10459,0.29314l-0.25046,0.3303l0.02065,0.36332l0.10183,0.26837l0.08808,0.12111l0.0399,0.47066l-0.11284,0.14313l-0.28213,0.23809l-0.0867,0.17203l-0.01238,0.25185l-0.15139,0.08809l0.06744,0.17478l-0.03578,0.11698l-0.28901,0.2023l-0.16651,-0.01514l-0.03028,0.14588l-0.2491,0.18579l-0.10322,0.19818l0.01927,0.42801l-0.04129,0.13487l-0.26561,0.17754l0.0523,0.28213l-0.21744,0.011l-0.17478,0.2023l-0.23809,0.12249l-0.10459,-0.06056l-0.28213,0.04679l-0.36332,0.23808l0.05917,0.10459l-0.00413,0.40736l0.20368,0.1101l-0.07844,0.18718l-0.011,0.21883l0.13075,0.13074l-0.09634,0.10322l-0.05781,0.2202l0.05781,0.18028l-0.12248,0.05506l-0.11698,0.15964l-0.24084,0.21469l-0.2133,-0.01514l-0.33992,0.15552l-0.0922,-0.66059l-0.07982,-0.22157l-0.20919,-0.42387l-0.14588,-0.22157l-0.10322,-0.07155l-0.30276,-0.08946l-0.29176,-0.30139l-0.17065,-0.10047l-0.1156,-0.15139l-0.20919,-0.01927l-0.07155,-0.31653l-0.09496,-0.08258l0.07431,-0.18579l-0.16789,-0.26699l-0.26424,-0.19679l-0.3248,-0.3303l-0.15413,-0.0055l-0.02477,-0.14038l-0.18167,-0.07431l-0.45691,-0.01789l-0.32617,0.04267l-0.36195,0.15139l-0.29865,0.08395l-0.11973,0.10459l-0.23809,-0.14726l-0.16927,-0.05506l-0.2078,-0.1789l0.10047,-0.13487l0.0055,-0.1569l-0.15,-0.18442l0.31377,-0.41012l0.00137,-0.16102l0.13212,-0.14725l-0.07844,-0.07294l0.10734,-0.14175l0.12111,-0.03715l-0.10597,-0.34131l-0.10047,-0.64132l0.16377,0.02891l0.23258,0.15276l0.15413,0.00551l0.14175,-0.07844l0.3069,0.07982l0.28213,-0.05918l0.19266,0.03579l0.30001,-0.16514l0.18167,-0.00964l0.56838,0.07844l0.20506,0.21607l0.02477,0.15827l-0.09909,0.26149l0.0867,0.38396l0.2202,-0.03164l0.0055,-0.14038l0.28488,-0.02891l0.18028,-0.15414l0.41976,-0.14588l0.0922,-0.20092l0.11834,-0.05368l0.35094,0.13212l0.10459,0.08808l0.24498,0.02891l0.15276,-0.04403l0.11561,0.06743l0.21883,0.01514l0.17065,0.16378l0.18028,0.07844l0.27663,-0.23258l0.01789,-0.17203l0.12661,-0.23121l0.14863,-0.09496l-0.01514,-0.09358l0.33717,-0.03992l0.07982,0.03029l0.03853,-0.32341l0.40324,-0.1624l0.13348,-0.28075l-0.01789,-0.26423l0.12661,-0.26424l-0.05092,-0.23534l-0.11147,-0.15964l-0.18579,-0.10873l0.01238,-0.21469l0.07981,-0.07844l0.30552,0.07982l0.54911,0.3592M297.17551,67.9281l-0.18304,0.14725l-0.22845,0.28213l0.139,0.61104l0.15139,0.10459l0.32341,-0.00688l0.3248,0.17617l0.23671,-0.01927l0.37571,-0.27524l0.2835,-0.47617l-0.00137,-0.18855l-0.27111,-0.3647l-0.21469,-0.22157l-0.20093,-0.11561l-0.21331,0.11147l-0.29865,-0.14038l-0.13763,0.12111l-0.08532,0.2546"></path><path d="M297.83748,68.27629l-0.00137,0.29038l-0.1789,0.03578l-0.23809,-0.16514l0.13763,-0.20919l0.28075,0.04817"></path></g></g></svg>