<svg version="1.1" xmlns="http://www.w3.org/2000/svg" xmlns:xlink="http://www.w3.org/1999/xlink" width="37.61524" height="54.61091" viewBox="0,0,37.61524,54.61091"><g transform="translate(-221.19238,-152.69454)"><g fill="#ffffff" fill-rule="evenodd" stroke="none" stroke-linecap="square" stroke-miterlimit="10"><path d="M234.18541,161.06613c-1.73409,1.0354 -3.11882,2.4454 -4.15422,4.22999c-1.0354,1.78458 -1.5531,3.81328 -1.5531,6.0861c0,2.23073 0.5177,4.22577 1.5531,5.9851c1.0354,1.75093 2.43275,3.15669 4.19211,4.21734c1.75932,1.06065 3.69964,1.59099 5.82095,1.59099c2.17181,0 4.12054,-0.53034 5.8462,-1.59099c1.73409,-1.06065 3.1062,-2.48326 4.11634,-4.26785c1.01013,-1.78459 1.51522,-3.76279 1.51522,-5.9346c0,-2.27283 -0.50508,-4.30152 -1.51522,-6.0861c-1.01013,-1.78458 -2.38225,-3.19459 -4.11634,-4.22999c-1.72567,-1.0354 -3.67441,-1.55309 -5.8462,-1.55309c-2.17181,0 -4.12476,0.51769 -5.85881,1.55309zM240.04423,152.69456c3.51026,0 6.688,0.82916 9.53322,2.48748c2.84526,1.64992 5.09281,3.85958 6.74271,6.62906c1.65832,2.76105 2.48746,5.87568 2.48746,9.34383c0,4.75609 -1.6541,9.48694 -4.96233,14.19251l-15.82136,21.95801h-8.45998l14.13634,-19.27784v0c-0.24244,0.09901 -0.49309,0.19051 -0.75191,0.2745c-1.27112,0.41248 -2.81157,0.6187 -4.62144,0.6187c-3.09778,0 -5.95565,-0.7492 -8.57358,-2.24756c-2.60953,-1.49836 -4.68878,-3.57759 -6.23764,-6.23764c-1.54892,-2.66846 -2.32334,-5.68627 -2.32334,-9.05342c0,-3.45975 0.85019,-6.59961 2.55063,-9.41959c1.70882,-2.81999 3.98584,-5.06754 6.83107,-6.7427c2.84526,-1.68357 6.00196,-2.52536 9.47011,-2.52536z"></path></g></g></svg>