<svg version="1.1" xmlns="http://www.w3.org/2000/svg" xmlns:xlink="http://www.w3.org/1999/xlink" width="26.70008" height="56.02168" viewBox="0,0,26.70008,56.02168"><g transform="translate(-226.64996,-151.98916)"><g fill-rule="evenodd" stroke-miterlimit="10"><path d="M239.92057,157.31785c-4.74398,0 -7.11597,7.62425 -7.11597,22.87275c0,14.90965 2.39316,22.36447 7.1795,22.36447c4.80752,0 7.21127,-7.49718 7.21127,-22.49154c0,-15.16379 -2.42494,-22.74568 -7.27481,-22.74568zM252.85004,180.03177c0,18.31939 -4.29923,27.47907 -12.89769,27.47907c-8.53493,0 -12.80239,-9.1597 -12.80239,-27.47907c0,-18.36174 4.28864,-27.54261 12.86592,-27.54261c8.5561,0 12.83416,9.18087 12.83416,27.54261z" fill="#ffffff" stroke="none" stroke-linecap="square" stroke-linejoin="miter"></path><path d="M239.92057,157.31785c-4.74398,0 -7.11597,7.62425 -7.11597,22.87275c0,14.90965 2.39316,22.36447 7.1795,22.36447c4.80752,0 7.21127,-7.49718 7.21127,-22.49154c0,-15.16379 -2.42494,-22.74568 -7.27481,-22.74568zM252.85004,180.03177c0,18.31939 -4.29923,27.47907 -12.89769,27.47907c-8.53493,0 -12.80239,-9.1597 -12.80239,-27.47907c0,-18.36174 4.28864,-27.54261 12.86592,-27.54261c8.5561,0 12.83416,9.18087 12.83416,27.54261z" fill="none" stroke="#ffffff" stroke-linecap="butt" stroke-linejoin="round"></path></g></g></svg>