<svg version="1.1" xmlns="http://www.w3.org/2000/svg" xmlns:xlink="http://www.w3.org/1999/xlink" width="8.57733" height="13.236" viewBox="0,0,8.57733,13.236"><g transform="translate(-283.42159,-174.42768)"><g fill="#ff0000" fill-rule="evenodd" stroke="#ffffff" stroke-width="0" stroke-linecap="round" stroke-linejoin="round" stroke-miterlimit="10"><path d="M291.05108,177.81258l0.11028,0.16602l-0.08053,0.29735l0.10779,-0.00992l0.17222,-0.18584l0.25152,0.03593l0.18708,-0.10902l0.09912,0.11647l0.04336,0.26637l0.057,0.1747l-0.15488,0.11646l-0.0508,0.29239l-0.09168,0.057l-0.01734,0.22674l-0.08549,0.11895l-0.15362,0.08426l-0.20195,-0.17222l-0.057,0.17841l-0.11647,0.10655l0.07806,0.06815l0.02725,0.15362l-0.02973,0.17222l-0.28371,0.06319l-0.10779,-0.02229l-0.02602,0.20567l0.24161,0.20318l-0.03718,0.13753l-0.11646,0.04213l0.15115,0.17097l0.19824,0.02478l-0.03221,0.14l-0.09912,0.04089l-0.16355,-0.10158l-0.0508,0.03098l-0.16107,-0.08921l-0.16602,0.15239l-0.12762,0.25275l-0.1338,0.12018l-0.03099,0.18213l0.07558,0.10902l-0.04708,0.10532l-0.11275,-0.07186l-0.10779,0.09293l0.08673,0.12266l-0.07433,0.05823l0.15363,0.15115l0.0384,0.15859l-0.06442,0.09912l-0.32956,0.20442l-0.04708,0.0954l0.06815,0.08797l-0.02849,0.18832l-0.13505,0.09788l0.13628,0.16232l-0.07433,0.18832l-0.14371,0.17594l-0.00373,0.12142l-0.28371,0.11399l-0.17594,0.17593l-0.16106,-0.07682l-0.2193,0.00867l-0.05824,0.1524l-0.08921,0.07309l-0.25152,0.01239l-0.04336,0.19081l0.19699,0.13009l-0.02354,0.1623l-0.12266,0.10779l0.09293,0.1462l-0.0161,0.07806l0.17841,0.35434l0.14371,0.20319l-0.11151,0.13134l0.09788,0.15859l0.08301,0.39647l0.09416,0.08673l0.06442,0.1685l0.00247,0.15115l-0.16107,0.07558l-0.1462,-0.06939l-0.02354,0.11274l0.04956,0.17097l-0.16726,0.16355l-0.14124,0.03469l-0.083,0.29487l-0.10532,0.00124l-0.12762,0.07682l-0.04584,0.15115l-0.07186,0.05824l-0.13256,-0.02602l-0.08673,-0.09044l-0.08426,-0.29239l0.02229,-0.29859l-0.07186,-0.1016l0.04708,-0.40391l-0.12762,0.05575l0.0062,-0.18088l0.15735,-0.13133l0.09416,-0.15488l-0.07062,-0.22674l-0.10283,-0.18834l-0.11275,-0.13256l-0.07682,0.06319l-0.11769,-0.08673l0.03593,-0.39276l-0.03593,-0.21682l-0.11399,-0.17222l-0.26019,0.10035l-0.19699,0.03222l-0.04956,-0.33452l-0.21186,-0.33452l-0.05947,-0.19701l-0.07186,-0.07062l0.16232,-0.25027l0.44727,-0.64055l0.15611,-0.0954l0.1623,0.15115l0.06566,-0.22054l0.24779,0.07062l0.03469,-0.0446l-0.29612,-0.1276l0.06939,-0.0793l0.23912,-0.04336l-0.06814,-0.30974l-0.0384,-0.04213l-0.2924,-0.06814l-0.17593,-0.2131l-0.50798,-0.50799l-0.18584,-0.20442l-0.32461,0.04708l-0.01239,-0.08673l0.20318,0.00496l-0.01238,-0.08921l-0.19824,0.02725l-0.0384,-0.27011l-0.22673,-0.00373l-0.14124,0.15362l-0.28124,0.08053l-0.15115,0.16974l0.2639,0.22674l-0.51913,0.36302l-0.11399,-0.0793l-0.19576,-0.05575l-0.01362,-0.20072l0.14868,-0.09787l0.04833,-0.1685l-0.01239,-0.34196l0.27505,-0.10532l0.12514,-0.18708l-0.03099,-0.15611l-0.21682,-0.23665l0.00991,-0.31964l-0.19204,-0.19824l-0.05575,-0.15488l0.17717,-0.23169l-0.06566,-0.20938l0.03718,-0.35063l-0.04336,-0.07558l0.02478,-0.30107l0.12762,-0.30851l-0.12886,-0.43364l-0.22301,-0.35683l-0.13628,-0.25399l-0.17841,-0.13009l-0.10779,-0.19699l-0.06071,-0.23664l-0.09541,-0.0954l0.01859,-0.11646l-0.15362,-0.2131l0.03221,-0.08177l-0.04336,-0.31717l0.04833,-0.1016l-0.0446,-0.13381l-0.11275,-0.09416l-0.16355,-0.2069l-0.10035,-0.1747l-0.08797,-0.32585l0.02229,-0.11895l0.10902,-0.08549l0.13133,0.11895l0.07929,0.1462l0.05575,0.2515l0.06689,0.12266l0.29115,0.32708l0.24656,0.17841l0.26142,0.33452l0.07433,0.28745l0.18832,0.17345l0.21434,0.11026l0.19576,0.01362l0.06814,0.11275l-0.07806,0.17222l0.08549,0.15611l0.15983,0.06814l0.17345,0.14371l0.14867,0.06195l0.23788,0.20566l0.27505,-0.01239l0.15115,0.14495l0.20319,0.13133l0.1685,0.06071l0.16355,0.1747l0.17097,-0.11399l0.18213,0.0508l0.30727,0.15859l0.08177,0.1747l0.15239,0.20195l0.12637,0.04584l0.37045,-0.13753l0.23292,-0.1462l0.12513,-0.00496l0.21187,0.11522l0.13628,-0.01982l0.27381,-0.2131l0.13009,-0.06442l0.12266,0.00867l0.27505,0.13009l0.18337,-0.02478l0.14744,-0.09663l0.16602,-0.16602l0.05823,-0.13257l0.13134,-0.11399l0.15115,-0.04584l-0.00496,0.10902l0.20442,0.18584"></path><path d="M287.47047,182.32242l0.02602,0.14868l0.08176,0.10902l-0.31717,0.01487l-0.05575,-0.28619l0.12514,0.0062l0.14,0.00744"></path><path d="M285.93414,181.07107l-0.25647,-0.03098l0.10035,-0.11026l0.13628,-0.00744l0.01982,0.14868"></path></g></g></svg>