<svg version="1.1" xmlns="http://www.w3.org/2000/svg" xmlns:xlink="http://www.w3.org/1999/xlink" width="806.01578" height="262.02363" viewBox="0,0,806.01578,262.02363"><g transform="translate(163.00788,-48.98818)"><g fill-rule="evenodd" stroke-miterlimit="10"><path d="M-163.00788,112.00395v0c0,-34.79828 28.20959,-63.00788 63.00788,-63.00788v0v0c16.71073,0 32.73702,6.63831 44.55329,18.45459c11.81627,11.81628 18.45459,27.84259 18.45459,44.55329v0v0c0,34.79828 -28.2096,63.00787 -63.00788,63.00787v0v0c-34.79829,0 -63.00788,-28.20959 -63.00788,-63.00787z" fill="#29405e" stroke="none" stroke-width="1" stroke-linecap="square" stroke-linejoin="miter"></path><path d="M-152.07172,111.99521v0c0,-28.7536 23.30939,-52.06299 52.06299,-52.06299v0v0c13.80796,0 27.05039,5.48516 36.8141,15.2489c9.7637,9.76373 15.2489,23.0061 15.2489,36.81409v0v0c0,28.7536 -23.3094,52.063 -52.06299,52.063v0v0c-28.7536,0 -52.06299,-23.30939 -52.06299,-52.06299z" fill="#3c5a82" stroke="none" stroke-width="1" stroke-linecap="square" stroke-linejoin="miter"></path><path d="M-93.59494,74.87828v75.42487h-10.10029v-66.29748h-15.44229v-9.12738z" fill="#ffffff" stroke="none" stroke-width="1" stroke-linecap="square" stroke-linejoin="miter"></path><path d="M-93.59494,74.87828v75.42487h-10.10029v-66.29748h-15.44229v-9.12738z" fill="none" stroke="#ffffff" stroke-width="2" stroke-linecap="butt" stroke-linejoin="round"></path><path d="M-27.00787,112.00395v0c0,-34.79828 28.20958,-63.00788 63.00788,-63.00788v0v0c16.71071,0 32.73701,6.63831 44.5533,18.45459c11.81625,11.81628 18.45456,27.84259 18.45456,44.55329v0v0c0,34.79828 -28.20956,63.00787 -63.00786,63.00787v0v0c-34.7983,0 -63.00787,-28.20959 -63.00787,-63.00787z" fill="#135ea9" stroke="none" stroke-width="1" stroke-linecap="square" stroke-linejoin="miter"></path><path d="M-16.07173,111.99521v0c0,-28.7536 23.3094,-52.06299 52.06299,-52.06299v0v0c13.80799,0 27.05039,5.48516 36.81409,15.2489c9.76373,9.76373 15.2489,23.0061 15.2489,36.81409v0v0c0,28.7536 -23.30938,52.063 -52.06299,52.063v0v0c-28.75358,0 -52.06299,-23.30939 -52.06299,-52.06299z" fill="#1e82e6" stroke="none" stroke-width="1" stroke-linecap="square" stroke-linejoin="miter"></path><path d="M38.28414,71.28195c4.63444,0 8.6734,0.90802 12.11679,2.72406c3.44342,1.80426 6.10853,4.33966 7.99534,7.6062c1.88681,3.2547 2.8302,7.05194 2.8302,11.39154c0,3.12506 -0.38324,5.91986 -1.14975,8.38452c-0.75473,2.45282 -2.0932,4.97053 -4.01535,7.55311c-1.92218,2.57074 -4.58731,5.63092 -7.99534,9.18042l-19.97143,20.53668h34.86539v9.12744h-50.64296v-6.1911l27.82443,-29.34564c2.8184,-2.901 5.0236,-5.4187 6.61558,-7.5531c1.60379,-2.13446 2.74768,-4.10974 3.43164,-5.92578c0.68396,-1.81604 1.02594,-3.69696 1.02594,-5.6427c0,-3.84436 -1.2323,-6.85144 -3.69696,-9.02124c-2.45282,-2.18164 -5.63681,-3.27246 -9.55193,-3.27246c-3.84436,0 -7.21701,0.92572 -10.11796,2.77716c-2.88918,1.85138 -5.45995,4.69342 -7.71232,8.526l-7.16396,-5.97882c2.97172,-4.91748 6.55665,-8.62622 10.75478,-11.12622c4.19814,-2.50006 9.05075,-3.75006 14.55786,-3.75006z" fill="#ffffff" stroke="none" stroke-width="1" stroke-linecap="square" stroke-linejoin="miter"></path><path d="M38.28414,71.28195c4.63444,0 8.6734,0.90802 12.11679,2.72406c3.44342,1.80426 6.10853,4.33966 7.99534,7.6062c1.88681,3.2547 2.8302,7.05194 2.8302,11.39154c0,3.12506 -0.38324,5.91986 -1.14975,8.38452c-0.75473,2.45282 -2.0932,4.97053 -4.01535,7.55311c-1.92218,2.57074 -4.58731,5.63092 -7.99534,9.18042l-19.97143,20.53668h34.86539v9.12744h-50.64296v-6.1911l27.82443,-29.34564c2.8184,-2.901 5.0236,-5.4187 6.61558,-7.5531c1.60379,-2.13446 2.74768,-4.10974 3.43164,-5.92578c0.68396,-1.81604 1.02594,-3.69696 1.02594,-5.6427c0,-3.84436 -1.2323,-6.85144 -3.69696,-9.02124c-2.45282,-2.18164 -5.63681,-3.27246 -9.55193,-3.27246c-3.84436,0 -7.21701,0.92572 -10.11796,2.77716c-2.88918,1.85138 -5.45995,4.69342 -7.71232,8.526l-7.16396,-5.97882c2.97172,-4.91748 6.55665,-8.62622 10.75478,-11.12622c4.19814,-2.50006 9.05075,-3.75006 14.55786,-3.75006z" fill="none" stroke="#ffffff" stroke-width="2" stroke-linecap="butt" stroke-linejoin="round"></path><path d="M244.99211,111.99607v0c0,-34.79828 28.2096,-63.00788 63.00791,-63.00788v0v0c16.71069,0 32.73699,6.63831 44.55328,18.45459c11.81628,11.81628 18.45459,27.84259 18.45459,44.55329v0v0c0,34.79828 -28.20959,63.00787 -63.00787,63.00787v0v0c-34.79831,0 -63.00791,-28.20959 -63.00791,-63.00787z" fill="#bcbc6d" stroke="none" stroke-width="1" stroke-linecap="square" stroke-linejoin="miter"></path><path d="M255.92827,111.98735v0c0,-28.7536 23.30939,-52.06299 52.06302,-52.06299v0v0c13.80792,0 27.05035,5.48517 36.81409,15.2489c9.76367,9.76373 15.2489,23.00611 15.2489,36.8141v0v0c0,28.7536 -23.30939,52.06299 -52.06299,52.06299v0v0c-28.75363,0 -52.06302,-23.30939 -52.06302,-52.06299z" fill="#ffff96" stroke="none" stroke-width="1" stroke-linecap="square" stroke-linejoin="miter"></path><path d="M318.08729,74.27721l-26.43231,46.62762h24.27429v-21.08502h10.10028v21.08502h10.8609v9.12738h-10.8609v19.66992h-10.10028v-19.66992h-36.84571v-6.29718l27.48835,-49.45782z" fill="#454525" stroke="none" stroke-width="1" stroke-linecap="square" stroke-linejoin="miter"></path><path d="M318.08729,74.27721l-26.43231,46.62762h24.27429v-21.08502h10.10028v21.08502h10.8609v9.12738h-10.8609v19.66992h-10.10028v-19.66992h-36.84571v-6.29718l27.48835,-49.45782z" fill="none" stroke="#454525" stroke-width="2" stroke-linecap="butt" stroke-linejoin="round"></path><path d="M380.99213,112.00395v0c0,-34.79828 28.2096,-63.00788 63.00788,-63.00788v0v0c16.71069,0 32.737,6.63831 44.55328,18.45459c11.81629,11.81628 18.45459,27.84259 18.45459,44.55329v0v0c0,34.79828 -28.20959,63.00787 -63.00787,63.00787v0v0c-34.79828,0 -63.00788,-28.20959 -63.00788,-63.00787z" fill="#bc9a00" stroke="none" stroke-width="1" stroke-linecap="square" stroke-linejoin="miter"></path><path d="M391.92831,111.99521v0c0,-28.7536 23.30939,-52.06299 52.06299,-52.06299v0v0c13.80792,0 27.05035,5.48516 36.81408,15.2489c9.76367,9.76373 15.2489,23.0061 15.2489,36.81409v0v0c0,28.7536 -23.30939,52.063 -52.06299,52.063v0v0c-28.7536,0 -52.06299,-23.30939 -52.06299,-52.06299z" fill="#ffd200" stroke="none" stroke-width="1" stroke-linecap="square" stroke-linejoin="miter"></path><path d="M450.71857,77.22661v8.29766h-28.445l-2.05262,19.29407v0c0.11969,-0.07599 0.24048,-0.15015 0.36243,-0.22242c1.44727,-0.85761 3.09283,-1.5169 4.93676,-1.9779c1.84387,-0.461 3.98798,-0.69146 6.43225,-0.69146c4.73847,0 8.75323,0.99164 12.04443,2.97492c3.2912,1.9726 5.81049,4.6366 7.55793,7.99212c1.74743,3.35547 2.62115,7.10766 2.62115,11.25647c0,4.35248 -1.07202,8.24402 -3.21612,11.67456c-2.13336,3.41986 -5.08148,6.09998 -8.84436,8.04035c-3.75219,1.94043 -8.02967,2.91064 -12.8324,2.91064c-4.68487,0 -8.8551,-0.83624 -12.5108,-2.5086c-3.64496,-1.68311 -6.72174,-4.13813 -9.23029,-7.36493l6.3197,-6.31977c1.52228,2.30493 3.6128,4.13275 6.27148,5.48352c2.66938,1.35077 5.64965,2.02618 8.94085,2.02618c3.09821,0 5.8158,-0.5896 8.1529,-1.76886c2.33704,-1.19 4.18097,-2.85699 5.53174,-5.0011c1.35077,-2.14411 2.02618,-4.69556 2.02618,-7.65442c0,-3.03387 -0.6593,-5.60145 -1.97791,-7.70264c-1.30792,-2.11194 -3.0661,-3.70928 -5.27447,-4.79205c-2.20844,-1.0935 -4.63122,-1.64026 -7.26849,-1.64026c-2.70154,0 -5.15655,0.33234 -7.36493,0.99701c-2.1977,0.65399 -4.28821,1.76892 -6.27148,3.34479l-5.03327,-5.03326l3.05536,-31.61462z" fill="#453700" stroke="none" stroke-width="1" stroke-linecap="square" stroke-linejoin="miter"></path><path d="M450.71857,77.22661v8.29766h-28.445l-2.05262,19.29407v0c0.11969,-0.07599 0.24048,-0.15015 0.36243,-0.22242c1.44727,-0.85761 3.09283,-1.5169 4.93676,-1.9779c1.84387,-0.461 3.98798,-0.69146 6.43225,-0.69146c4.73847,0 8.75323,0.99164 12.04443,2.97492c3.2912,1.9726 5.81049,4.6366 7.55793,7.99212c1.74743,3.35547 2.62115,7.10766 2.62115,11.25647c0,4.35248 -1.07202,8.24402 -3.21612,11.67456c-2.13336,3.41986 -5.08148,6.09998 -8.84436,8.04035c-3.75219,1.94043 -8.02967,2.91064 -12.8324,2.91064c-4.68487,0 -8.8551,-0.83624 -12.5108,-2.5086c-3.64496,-1.68311 -6.72174,-4.13813 -9.23029,-7.36493l6.3197,-6.31977c1.52228,2.30493 3.6128,4.13275 6.27148,5.48352c2.66938,1.35077 5.64965,2.02618 8.94085,2.02618c3.09821,0 5.8158,-0.5896 8.1529,-1.76886c2.33704,-1.19 4.18097,-2.85699 5.53174,-5.0011c1.35077,-2.14411 2.02618,-4.69556 2.02618,-7.65442c0,-3.03387 -0.6593,-5.60145 -1.97791,-7.70264c-1.30792,-2.11194 -3.0661,-3.70928 -5.27447,-4.79205c-2.20844,-1.0935 -4.63122,-1.64026 -7.26849,-1.64026c-2.70154,0 -5.15655,0.33234 -7.36493,0.99701c-2.1977,0.65399 -4.28821,1.76892 -6.27148,3.34479l-5.03327,-5.03326l3.05536,-31.61462z" fill="none" stroke="#453700" stroke-width="2" stroke-linecap="butt" stroke-linejoin="round"></path><path d="M480.4516,90.44975v8.3941h-32.49908v-8.3941z" fill="#453700" stroke="none" stroke-width="1" stroke-linecap="square" stroke-linejoin="miter"></path><path d="M480.4516,90.44975v8.3941h-32.49908v-8.3941z" fill="none" stroke="#453700" stroke-width="1" stroke-linecap="butt" stroke-linejoin="round"></path><path d="M516.99215,112.00395v0c0,-34.79828 28.2096,-63.00788 63.00788,-63.00788v0v0c16.71069,0 32.73699,6.63831 44.55328,18.45459c11.81628,11.81628 18.45459,27.84259 18.45459,44.55329v0v0c0,34.79828 -28.20959,63.00787 -63.00787,63.00787v0v0c-34.79828,0 -63.00788,-28.20959 -63.00788,-63.00787z" fill="#bc6d00" stroke="none" stroke-width="1" stroke-linecap="square" stroke-linejoin="miter"></path><path d="M527.92831,111.99521v0c0,-28.7536 23.30939,-52.06299 52.06299,-52.06299v0v0c13.80792,0 27.05035,5.48516 36.81409,15.2489c9.76367,9.76373 15.2489,23.0061 15.2489,36.81409v0v0c0,28.7536 -23.30939,52.063 -52.06299,52.063v0v0c-28.7536,0 -52.06299,-23.30939 -52.06299,-52.06299z" fill="#ff9600" stroke="none" stroke-width="1" stroke-linecap="square" stroke-linejoin="miter"></path><path d="M586.71858,77.22661v8.29766h-28.44501l-2.05262,19.29407v0c0.11969,-0.07599 0.24048,-0.15015 0.36243,-0.22242c1.44727,-0.85761 3.09283,-1.5169 4.93677,-1.9779c1.84387,-0.461 3.98798,-0.69146 6.43226,-0.69146c4.73847,0 8.75323,0.99164 12.04443,2.97492c3.2912,1.9726 5.81049,4.6366 7.55793,7.99212c1.74743,3.35547 2.62115,7.10766 2.62115,11.25647c0,4.35248 -1.07202,8.24402 -3.21612,11.67456c-2.13336,3.41986 -5.08148,6.09998 -8.84436,8.04035c-3.7522,1.94043 -8.02967,2.91064 -12.8324,2.91064c-4.68488,0 -8.8551,-0.83624 -12.5108,-2.5086c-3.64496,-1.68311 -6.72174,-4.13813 -9.23029,-7.36493l6.3197,-6.31977c1.52228,2.30493 3.6128,4.13275 6.27148,5.48352c2.66937,1.35077 5.64966,2.02618 8.94086,2.02618c3.09821,0 5.8158,-0.5896 8.15289,-1.76886c2.33704,-1.19 4.18097,-2.85699 5.53174,-5.0011c1.35077,-2.14411 2.02618,-4.69556 2.02618,-7.65442c0,-3.03387 -0.6593,-5.60145 -1.9779,-7.70264c-1.30792,-2.11194 -3.0661,-3.70928 -5.27447,-4.79205c-2.20844,-1.0935 -4.63123,-1.64026 -7.2685,-1.64026c-2.70154,0 -5.15655,0.33234 -7.36492,0.99701c-2.19769,0.65399 -4.28821,1.76892 -6.27149,3.34479l-5.03326,-5.03326l3.05536,-31.61462z" fill="#452500" stroke="none" stroke-width="1" stroke-linecap="square" stroke-linejoin="miter"></path><path d="M586.71858,77.22661v8.29766h-28.44501l-2.05262,19.29407v0c0.11969,-0.07599 0.24048,-0.15015 0.36243,-0.22242c1.44727,-0.85761 3.09283,-1.5169 4.93677,-1.9779c1.84387,-0.461 3.98798,-0.69146 6.43226,-0.69146c4.73847,0 8.75323,0.99164 12.04443,2.97492c3.2912,1.9726 5.81049,4.6366 7.55793,7.99212c1.74743,3.35547 2.62115,7.10766 2.62115,11.25647c0,4.35248 -1.07202,8.24402 -3.21612,11.67456c-2.13336,3.41986 -5.08148,6.09998 -8.84436,8.04035c-3.7522,1.94043 -8.02967,2.91064 -12.8324,2.91064c-4.68488,0 -8.8551,-0.83624 -12.5108,-2.5086c-3.64496,-1.68311 -6.72174,-4.13813 -9.23029,-7.36493l6.3197,-6.31977c1.52228,2.30493 3.6128,4.13275 6.27148,5.48352c2.66937,1.35077 5.64966,2.02618 8.94086,2.02618c3.09821,0 5.8158,-0.5896 8.15289,-1.76886c2.33704,-1.19 4.18097,-2.85699 5.53174,-5.0011c1.35077,-2.14411 2.02618,-4.69556 2.02618,-7.65442c0,-3.03387 -0.6593,-5.60145 -1.9779,-7.70264c-1.30792,-2.11194 -3.0661,-3.70928 -5.27447,-4.79205c-2.20844,-1.0935 -4.63123,-1.64026 -7.2685,-1.64026c-2.70154,0 -5.15655,0.33234 -7.36492,0.99701c-2.19769,0.65399 -4.28821,1.76892 -6.27149,3.34479l-5.03326,-5.03326l3.05536,-31.61462z" fill="none" stroke="#452500" stroke-width="2" stroke-linecap="butt" stroke-linejoin="round"></path><path d="M616.4516,90.44975v8.3941h-32.49909v-8.3941z" fill="#452500" stroke="none" stroke-width="1" stroke-linecap="square" stroke-linejoin="miter"></path><path d="M616.4516,90.44975v8.3941h-32.49909v-8.3941z" fill="none" stroke="#452500" stroke-width="1" stroke-linecap="butt" stroke-linejoin="round"></path><path d="M604.4041,110.89524h-8.3941v-32.49908h8.3941z" fill="#452500" stroke="none" stroke-width="1" stroke-linecap="square" stroke-linejoin="miter"></path><path d="M604.4041,110.89524h-8.3941v-32.49908h8.3941z" fill="none" stroke="#452500" stroke-width="1" stroke-linecap="butt" stroke-linejoin="round"></path><path d="M-163.00788,248.00395v0c0,-34.79828 28.20959,-63.00787 63.00788,-63.00787v0v0c16.71073,0 32.73702,6.63831 44.55329,18.45459c11.81627,11.81628 18.45459,27.84259 18.45459,44.55328v0v0c0,34.79828 -28.2096,63.00787 -63.00788,63.00787v0v0c-34.79829,0 -63.00788,-28.20959 -63.00788,-63.00787z" fill="#b02200" stroke="none" stroke-width="1" stroke-linecap="square" stroke-linejoin="miter"></path><path d="M-152.07172,247.99521v0c0,-28.7536 23.30939,-52.06299 52.06299,-52.06299v0v0c13.80796,0 27.05039,5.48516 36.8141,15.2489c9.7637,9.76373 15.2489,23.0061 15.2489,36.81409v0v0c0,28.7536 -23.3094,52.06299 -52.06299,52.06299v0v0c-28.7536,0 -52.06299,-23.30939 -52.06299,-52.06299z" fill="#f03200" stroke="none" stroke-width="1" stroke-linecap="square" stroke-linejoin="miter"></path><path d="M-120.00621,245.79302c-2.20841,1.3186 -3.95585,3.11432 -5.2423,5.38703c-1.28645,2.27276 -1.92969,4.82421 -1.92969,7.65441c0,2.8302 0.64323,5.39777 1.92969,7.70264c1.28645,2.30493 3.0339,4.11662 5.2423,5.43529c2.20841,1.31861 4.69557,1.9779 7.46144,1.9779c2.76587,0 5.24766,-0.67541 7.44536,-2.02618c2.20841,-1.35077 3.95585,-3.16254 5.24231,-5.43524c1.28646,-2.27276 1.92968,-4.82422 1.92968,-7.65442c0,-2.8302 -0.64322,-5.38165 -1.92968,-7.65441c-1.28646,-2.2727 -3.0339,-4.06842 -5.24231,-5.38703c-2.1977,-1.3186 -4.67948,-1.9779 -7.44536,-1.9779c-2.76587,0 -5.25303,0.65931 -7.46144,1.97791zM-99.21388,213.08489l-18.01677,24.56964v0c0.32801,-0.13288 0.66783,-0.25556 1.01949,-0.36822c1.65095,-0.52527 3.59671,-0.7879 5.83729,-0.7879c4.02017,0 7.65976,0.95947 10.91878,2.87842c3.25902,1.90826 5.89089,4.52405 7.89562,7.84735c2.01544,3.32337 3.02316,7.19348 3.02316,11.61029c0,4.34179 -1.07204,8.3244 -3.21613,11.94794c-2.14409,3.62353 -5.04397,6.50732 -8.69965,8.65141c-3.65568,2.13336 -7.68657,3.20002 -12.09267,3.20002c-4.54548,0 -8.61389,-1.0506 -12.20524,-3.15179c-3.59134,-2.11194 -6.44299,-4.94214 -8.55493,-8.4906c-2.1012,-3.55921 -3.15181,-7.51502 -3.15181,-11.86756c0,-6.05707 2.10657,-12.08197 6.31971,-18.07471l20.1491,-27.96429z" fill="#fef8f8" stroke="none" stroke-width="1" stroke-linecap="square" stroke-linejoin="miter"></path><path d="M-120.00621,245.79302c-2.20841,1.3186 -3.95585,3.11432 -5.2423,5.38703c-1.28645,2.27276 -1.92969,4.82421 -1.92969,7.65441c0,2.8302 0.64323,5.39777 1.92969,7.70264c1.28645,2.30493 3.0339,4.11662 5.2423,5.43529c2.20841,1.31861 4.69557,1.9779 7.46144,1.9779c2.76587,0 5.24766,-0.67541 7.44536,-2.02618c2.20841,-1.35077 3.95585,-3.16254 5.24231,-5.43524c1.28646,-2.27276 1.92968,-4.82422 1.92968,-7.65442c0,-2.8302 -0.64322,-5.38165 -1.92968,-7.65441c-1.28646,-2.2727 -3.0339,-4.06842 -5.24231,-5.38703c-2.1977,-1.3186 -4.67948,-1.9779 -7.44536,-1.9779c-2.76587,0 -5.25303,0.65931 -7.46144,1.97791zM-99.21388,213.08489l-18.01677,24.56964v0c0.32801,-0.13288 0.66783,-0.25556 1.01949,-0.36822c1.65095,-0.52527 3.59671,-0.7879 5.83729,-0.7879c4.02017,0 7.65976,0.95947 10.91878,2.87842c3.25902,1.90826 5.89089,4.52405 7.89562,7.84735c2.01544,3.32337 3.02316,7.19348 3.02316,11.61029c0,4.34179 -1.07204,8.3244 -3.21613,11.94794c-2.14409,3.62353 -5.04397,6.50732 -8.69965,8.65141c-3.65568,2.13336 -7.68657,3.20002 -12.09267,3.20002c-4.54548,0 -8.61389,-1.0506 -12.20524,-3.15179c-3.59134,-2.11194 -6.44299,-4.94214 -8.55493,-8.4906c-2.1012,-3.55921 -3.15181,-7.51502 -3.15181,-11.86756c0,-6.05707 2.10657,-12.08197 6.31971,-18.07471l20.1491,-27.96429z" fill="none" stroke="#fef8f8" stroke-width="2" stroke-linecap="butt" stroke-linejoin="round"></path><path d="M-63.54705,226.30801v8.3941h-32.49907v-8.3941z" fill="#fef8f8" stroke="none" stroke-width="1" stroke-linecap="square" stroke-linejoin="miter"></path><path d="M-63.54705,226.30801v8.3941h-32.49907v-8.3941z" fill="none" stroke="#fef8f8" stroke-width="1" stroke-linecap="butt" stroke-linejoin="round"></path><path d="M-27.00787,248.00395v0c0,-34.79828 28.20958,-63.00787 63.00788,-63.00787v0v0c16.71071,0 32.73701,6.63831 44.5533,18.45459c11.81625,11.81628 18.45456,27.84259 18.45456,44.55328v0v0c0,34.79828 -28.20956,63.00787 -63.00786,63.00787v0v0c-34.7983,0 -63.00787,-28.20959 -63.00787,-63.00787z" fill="#8b0000" stroke="none" stroke-width="1" stroke-linecap="square" stroke-linejoin="miter"></path><path d="M-16.07173,247.99521v0c0,-28.7536 23.3094,-52.06299 52.06299,-52.06299v0v0c13.80799,0 27.05039,5.48516 36.81409,15.2489c9.76373,9.76373 15.2489,23.0061 15.2489,36.81409v0v0c0,28.7536 -23.30938,52.06299 -52.06299,52.06299v0v0c-28.75358,0 -52.06299,-23.30938 -52.06299,-52.06298z" fill="#be0000" stroke="none" stroke-width="1" stroke-linecap="square" stroke-linejoin="miter"></path><path d="M15.99379,245.93472c-2.20842,1.3186 -3.95585,3.11432 -5.24231,5.38702c-1.28646,2.27277 -1.92969,4.82423 -1.92969,7.65443c0,2.8302 0.64323,5.39777 1.92969,7.70264c1.28645,2.30493 3.03389,4.11663 5.24231,5.4353c2.2084,1.31861 4.69555,1.9779 7.46143,1.9779c2.76588,0 5.24766,-0.67541 7.44535,-2.02618c2.20842,-1.35077 3.95585,-3.16254 5.24231,-5.43524c1.28646,-2.27277 1.92969,-4.82422 1.92969,-7.65442c0,-2.8302 -0.64324,-5.38165 -1.92969,-7.65442c-1.28645,-2.2727 -3.03389,-4.06842 -5.24231,-5.38702c-2.19769,-1.3186 -4.67947,-1.9779 -7.44535,-1.9779c-2.76587,0 -5.25302,0.6593 -7.46143,1.9779zM36.78611,213.22659l-18.01678,24.56964v0c0.328,-0.13281 0.66783,-0.25555 1.01948,-0.36816c1.65096,-0.52533 3.59673,-0.78797 5.8373,-0.78797c4.02017,0 7.65977,0.95947 10.91879,2.87842c3.25902,1.90826 5.89088,4.52405 7.8956,7.84741c2.01547,3.32331 3.0232,7.19342 3.0232,11.61023c0,4.34179 -1.07206,8.3244 -3.21616,11.94794c-2.14409,3.62354 -5.04398,6.50732 -8.69965,8.65143c-3.65567,2.13336 -7.68656,3.20008 -12.09268,3.20008c-4.54547,0 -8.61387,-1.05066 -12.20523,-3.15186c-3.59135,-2.11194 -6.44299,-4.94215 -8.55493,-8.49061c-2.10121,-3.55921 -3.15181,-7.51502 -3.15181,-11.86756c0,-6.05701 2.10657,-12.08191 6.3197,-18.07463l20.14911,-27.96436z" fill="#fef8f8" stroke="none" stroke-width="1" stroke-linecap="square" stroke-linejoin="miter"></path><path d="M15.99379,245.93472c-2.20842,1.3186 -3.95585,3.11432 -5.24231,5.38702c-1.28646,2.27277 -1.92969,4.82423 -1.92969,7.65443c0,2.8302 0.64323,5.39777 1.92969,7.70264c1.28645,2.30493 3.03389,4.11663 5.24231,5.4353c2.2084,1.31861 4.69555,1.9779 7.46143,1.9779c2.76588,0 5.24766,-0.67541 7.44535,-2.02618c2.20842,-1.35077 3.95585,-3.16254 5.24231,-5.43524c1.28646,-2.27277 1.92969,-4.82422 1.92969,-7.65442c0,-2.8302 -0.64324,-5.38165 -1.92969,-7.65442c-1.28645,-2.2727 -3.03389,-4.06842 -5.24231,-5.38702c-2.19769,-1.3186 -4.67947,-1.9779 -7.44535,-1.9779c-2.76587,0 -5.25302,0.6593 -7.46143,1.9779zM36.78611,213.22659l-18.01678,24.56964v0c0.328,-0.13281 0.66783,-0.25555 1.01948,-0.36816c1.65096,-0.52533 3.59673,-0.78797 5.8373,-0.78797c4.02017,0 7.65977,0.95947 10.91879,2.87842c3.25902,1.90826 5.89088,4.52405 7.8956,7.84741c2.01547,3.32331 3.0232,7.19342 3.0232,11.61023c0,4.34179 -1.07206,8.3244 -3.21616,11.94794c-2.14409,3.62354 -5.04398,6.50732 -8.69965,8.65143c-3.65567,2.13336 -7.68656,3.20008 -12.09268,3.20008c-4.54547,0 -8.61387,-1.05066 -12.20523,-3.15186c-3.59135,-2.11194 -6.44299,-4.94215 -8.55493,-8.49061c-2.10121,-3.55921 -3.15181,-7.51502 -3.15181,-11.86756c0,-6.05701 2.10657,-12.08191 6.3197,-18.07463l20.14911,-27.96436z" fill="none" stroke="#fef8f8" stroke-width="2" stroke-linecap="butt" stroke-linejoin="round"></path><path d="M72.45294,226.44975v8.3941h-32.49906v-8.3941z" fill="#fef8f8" stroke="none" stroke-width="1" stroke-linecap="square" stroke-linejoin="miter"></path><path d="M72.45294,226.44975v8.3941h-32.49906v-8.3941z" fill="none" stroke="#fef8f8" stroke-width="1" stroke-linecap="butt" stroke-linejoin="round"></path><path d="M60.40545,246.89524h-8.39414v-32.49908h8.39414z" fill="#fef8f8" stroke="none" stroke-width="1" stroke-linecap="square" stroke-linejoin="miter"></path><path d="M60.40545,246.89524h-8.39414v-32.49908h8.39414z" fill="none" stroke="#fef8f8" stroke-width="1" stroke-linecap="butt" stroke-linejoin="round"></path><path d="M108.99211,248.00395v0c0,-34.79828 28.2096,-63.00787 63.00788,-63.00787v0v0c16.71072,0 32.73702,6.63831 44.55331,18.45459c11.81626,11.81628 18.45456,27.84259 18.45456,44.55328v0v0c0,34.79828 -28.20956,63.00787 -63.00787,63.00787v0v0c-34.79828,0 -63.00788,-28.20959 -63.00788,-63.00787z" fill="#65001a" stroke="none" stroke-width="1" stroke-linecap="square" stroke-linejoin="miter"></path><path d="M119.92827,247.99521v0c0,-28.7536 23.30939,-52.06299 52.06299,-52.06299v0v0c13.80799,0 27.05038,5.48516 36.81408,15.2489c9.76373,9.76373 15.2489,23.0061 15.2489,36.81409v0v0c0,28.7536 -23.30939,52.06299 -52.06299,52.06299v0v0c-28.7536,0 -52.06299,-23.30939 -52.06299,-52.06299z" fill="#8c0028" stroke="none" stroke-width="1" stroke-linecap="square" stroke-linejoin="miter"></path><path d="M197.1134,210.14726v6.29725l-27.61218,69.12768h-10.75476l26.98507,-66.29748h-38.83654v-9.12744z" fill="#fef8f8" stroke="none" stroke-width="1" stroke-linecap="square" stroke-linejoin="miter"></path><path d="M197.1134,210.14726v6.29725l-27.61218,69.12768h-10.75476l26.98507,-66.29748h-38.83654v-9.12744z" fill="none" stroke="#fef8f8" stroke-width="4" stroke-linecap="butt" stroke-linejoin="round"></path><path d="M108.99211,111.99607v0c0,-34.79828 28.2096,-63.00788 63.00788,-63.00788v0v0c16.71072,0 32.73702,6.63831 44.55331,18.45459c11.81626,11.81628 18.45456,27.84259 18.45456,44.55329v0v0c0,34.79828 -28.20956,63.00787 -63.00787,63.00787v0v0c-34.79828,0 -63.00788,-28.20959 -63.00788,-63.00787z" fill="#56a9a1" stroke="none" stroke-width="1" stroke-linecap="square" stroke-linejoin="miter"></path><path d="M119.92827,111.98735v0c0,-28.7536 23.30939,-52.06299 52.06299,-52.06299v0v0c13.80799,0 27.05038,5.48517 36.81408,15.2489c9.76373,9.76373 15.2489,23.00611 15.2489,36.8141v0v0c0,28.7536 -23.30939,52.06299 -52.06299,52.06299v0v0c-28.7536,0 -52.06299,-23.30939 -52.06299,-52.06299z" fill="#78e6dc" stroke="none" stroke-width="1" stroke-linecap="square" stroke-linejoin="miter"></path><path d="M196.29915,73.7331v6.0849l-20.70013,23.47308h-0.00003c0.01322,-0.00006 0.02646,-0.00006 0.03968,-0.00006c4.06842,0 7.71231,0.94342 10.93167,2.8302c3.21936,1.88678 5.7901,4.53424 7.71228,7.94226c1.92218,3.39624 2.88327,7.34082 2.88327,11.8338c0,4.78772 -1.14386,9.00946 -3.43161,12.66516c-2.27597,3.65564 -5.40686,6.51533 -9.39273,8.57905c-3.98587,2.06366 -8.62033,3.09552 -13.90338,3.09552c-4.92926,0 -9.40454,-0.9198 -13.42578,-2.75946c-4.02124,-1.85144 -7.41159,-4.55188 -10.17102,-8.10144l6.96936,-6.95166c1.66275,2.53534 3.93869,4.54596 6.82788,6.03186c2.90094,1.48584 6.12619,2.22876 9.67575,2.22876c3.33728,0 6.22055,-0.63086 8.64981,-1.8927c2.42926,-1.27356 4.34552,-3.06604 5.74884,-5.37738c1.4151,-2.32312 2.12265,-5.01184 2.12265,-8.06611c0,-3.11322 -0.70755,-5.8078 -2.12265,-8.08374c-1.40332,-2.28772 -3.37265,-4.04486 -5.90805,-5.27124c-2.5354,-1.23822 -5.54248,-1.85736 -9.02127,-1.85736c-1.30896,0 -2.61795,0.09436 -3.92691,0.28302c-1.29718,0.17694 -2.56488,0.44812 -3.80307,0.81372v-6.1911l19.49491,-22.1817h-31.11643v-9.12738z" fill="#1b3e3a" stroke="none" stroke-width="1" stroke-linecap="square" stroke-linejoin="miter"></path><path d="M196.29915,73.7331v6.0849l-20.70013,23.47308h-0.00003c0.01322,-0.00006 0.02646,-0.00006 0.03968,-0.00006c4.06842,0 7.71231,0.94342 10.93167,2.8302c3.21936,1.88678 5.7901,4.53424 7.71228,7.94226c1.92218,3.39624 2.88327,7.34082 2.88327,11.8338c0,4.78772 -1.14386,9.00946 -3.43161,12.66516c-2.27597,3.65564 -5.40686,6.51533 -9.39273,8.57905c-3.98587,2.06366 -8.62033,3.09552 -13.90338,3.09552c-4.92926,0 -9.40454,-0.9198 -13.42578,-2.75946c-4.02124,-1.85144 -7.41159,-4.55188 -10.17102,-8.10144l6.96936,-6.95166c1.66275,2.53534 3.93869,4.54596 6.82788,6.03186c2.90094,1.48584 6.12619,2.22876 9.67575,2.22876c3.33728,0 6.22055,-0.63086 8.64981,-1.8927c2.42926,-1.27356 4.34552,-3.06604 5.74884,-5.37738c1.4151,-2.32312 2.12265,-5.01184 2.12265,-8.06611c0,-3.11322 -0.70755,-5.8078 -2.12265,-8.08374c-1.40332,-2.28772 -3.37265,-4.04486 -5.90805,-5.27124c-2.5354,-1.23822 -5.54248,-1.85736 -9.02127,-1.85736c-1.30896,0 -2.61795,0.09436 -3.92691,0.28302c-1.29718,0.17694 -2.56488,0.44812 -3.80307,0.81372v-6.1911l19.49491,-22.1817h-31.11643v-9.12738z" fill="none" stroke="#1b3e3a" stroke-width="2" stroke-linecap="butt" stroke-linejoin="round"></path></g></g></svg>