<svg version="1.1" xmlns="http://www.w3.org/2000/svg" xmlns:xlink="http://www.w3.org/1999/xlink" width="18.63273" height="11.90966" viewBox="0,0,18.63273,11.90966"><g transform="translate(-322.7308,-48.81322)"><g fill="#ff0000" fill-rule="evenodd" stroke="#ffffff" stroke-width="0" stroke-linecap="round" stroke-linejoin="round" stroke-miterlimit="10"><path d="M337.85828,49.14667l0.00276,0.12827l0.18028,0.19295l0.06607,0.29492l0.16102,0.13679l0.22707,0.08739l0.01377,0.13555l0.15139,0.33785l0.17065,0.12235l0.14726,0.17574l0.39772,0.30291l0.1679,-0.17547l0.24909,0.17671l0.17203,0.04886l0.02341,0.30608l0.19955,0.07735l-0.04954,0.17822l0.23946,0.13735l0.02752,0.18757l0.24084,0.02091l0.29726,0.12744l0.0867,0.30346l-0.06331,0.11518l0.0523,0.14712l0.17065,0.14423l0.12661,-0.01899l0.04679,0.31474l-0.09772,0.30456l0.06605,0.07432l-0.22983,0.19611l-0.02477,0.10927l-0.33992,0.20506l-0.24359,0.06138l-0.2023,0.21153l-0.18992,0.12221l-0.06194,0.12248l-0.16651,-0.05339l-0.20093,0.21703l-0.14313,0.08602l-0.21331,0.34062l-0.11973,-0.02119l-0.1156,0.10059l-0.24084,0.32933l-0.27524,-0.12124l-0.01788,0.113l0.03715,0.43352l-0.09909,0.03138l-0.24496,0.22227l-0.03578,0.3369l-0.08257,0.02161l-0.0523,0.24828l0.0922,0.07707l-0.05367,0.16968l-0.14588,-0.01184l-0.11834,-0.13294l-0.45554,0.04184l-0.21057,0.17298l-0.29865,-0.16157l-0.09496,-0.1997l-0.14175,-0.02795l-0.27111,-0.19873l-0.09496,-0.16184l-1.08447,0.69871l-0.00137,0.169l-0.13075,0.05574l-0.1101,-0.3146l-0.22983,-0.33593l-0.16927,-0.14272l-0.24222,0.06152l-0.19542,-0.12248l-0.17615,0.00937l-0.17341,-0.08766l-0.9083,-0.08395l-0.10873,0.21594l-0.03715,0.25419l0.07569,0.13129l-0.15276,0.09923l0.05368,0.15853l-0.09359,0.21661l-0.25874,-0.03715l0.03579,-0.16955l-0.16102,-0.04584l-1.48909,-0.24552l0.06056,-0.11628l-1.52761,-0.39992l-0.63719,-0.15523l-0.0454,0.1606l0.1156,0.31887l0.12798,0.21951l-0.02065,0.15l0.08257,0.12042l-0.0578,0.31283l0.17615,0.28942l0.27663,0.26149l-1.04181,-0.26576l-0.46928,1.80837l0.31377,0.1569l0.0922,0.96613l-0.11147,-0.09909l-0.55324,-0.33305l-0.46929,-0.45002l-0.26974,-0.19266l-0.29451,-0.36609l-0.00137,-0.09083l-0.19956,-0.23809l-0.05367,-0.278l-0.15413,0.02478l0.03715,0.47617l-0.45828,0.10046l0.12661,0.3303l-0.54774,0.16377l0.07294,0.15l-0.12248,0.18855l-0.00137,0.14038l-0.17617,-0.02615l-0.2202,0.06194l-0.13075,-0.01927l-0.24772,0.1569l-0.10322,0.12937l-0.17341,0.0922l-0.29451,0.03853l-0.01377,-0.43764l-0.07294,-0.10459l0.01377,-0.18442l-0.12937,-0.27663l-0.15964,-0.12111l-0.0055,-0.0922l0.22295,-0.18992l-0.09634,-0.14588l0.19543,-0.26975l-0.07982,-0.0977l0.10597,-0.15276l0.10184,0.03578l0.09359,-0.1734l-0.03441,-0.59495l0.19818,-0.21938l-0.15827,-0.12814l0.02339,-0.16033l-0.08258,-0.21978l-0.20092,-0.199l-0.11561,-0.03151l-0.09084,-0.40722l0.11561,-0.1207l-0.11284,-0.15716l0.18028,-0.20782l0.00137,-0.10433l-0.14175,-0.36497l-0.02477,-0.24276l0.05917,-0.29218l-0.04129,-0.10376l0.11698,-0.10776l0.0523,-0.30029l0.0922,-0.09909l0.18855,-0.02285l-0.10597,-0.20259l-0.1569,0.07281l-0.40461,-0.1233l-0.19818,-0.35039l-0.15964,-0.12138l-0.15,-0.19858l-0.11284,-0.24525l0.15002,-0.18015l0.33443,-0.28338l0.05506,-0.36043l0.12937,-0.00454l0.11147,-0.18345l0.61518,-0.48237l0.0399,-0.15387l0.25185,-0.1072l0.10322,-0.19171l0.10734,-0.05491l0.02065,-0.31984l0.21057,0.13899l0.12661,0.02464l0.17891,-0.15193l-0.02891,-0.35686l0.34681,-0.40035l0.2133,0.08161l0.1913,0.00813l0.2601,0.24318l0.20369,0.13886l0.07018,0.17134l0.19405,0.18703l0.22157,-0.15552l0.15963,0.00578l0.38947,0.10693l0.13625,-0.11533l-0.04679,-0.14822l0.14036,-0.14588l0.14863,-0.24716l0.25736,0.15056l0.57663,-0.34296l0.19266,-0.19281l0.25322,-0.08602l0.11423,-0.13735l0.16927,0.06908l0.24634,-0.06358l0.17617,0.17244l0.32341,0.03138l0.05506,0.16487l0.17478,0.00936l-0.0055,0.37957l0.14038,0.07197l0.3592,-0.15387l0.10597,0.10115l0.39498,0.13405l0.22571,-0.00067l0.27387,-0.19556l0.31103,0.20382l0.23535,-0.109l0.22983,0.14905l0.11973,-0.04309l0.27524,0.25379l0.06744,0.14629l0.44177,0.29836l0.11973,-0.05904l0.09909,-0.30923l0.14175,-0.06524l0.0922,-0.15442l0.18442,-0.12468l0.17615,0.01762l0.18716,-0.34241l-0.02065,-0.1423l0.07982,-0.30498l0.14863,-0.19776l0.36609,0.0706l0.28764,-0.17147l0.35232,-0.0428l0.01789,-0.11892l0.18442,-0.19392l-0.09083,-0.28653l0.19405,-0.0428l0.22157,0.11561l0.03715,0.12908l0.30415,0.01981l0.2202,-0.25915l0.20093,0.07968l0.1624,-0.09785l0.20506,0.09606l0.03578,0.30759l0.26149,0.05161l0.21057,-0.1218"></path></g></g></svg>