<svg version="1.1" xmlns="http://www.w3.org/2000/svg" xmlns:xlink="http://www.w3.org/1999/xlink" width="11.13586" height="12.9336" viewBox="0,0,11.13586,12.9336"><g transform="translate(-245.97744,-168.87585)"><g fill="#ff0000" fill-rule="evenodd" stroke="#ffffff" stroke-width="0" stroke-linecap="round" stroke-linejoin="round" stroke-miterlimit="10"><path d="M256.29804,170.03186l-0.00247,0.27381l0.15859,0.02725l0.23912,0.09293l0.20195,0.33329l0.12513,0.01982l0.06319,0.2131l-0.02229,0.28372l0.05204,0.06566l-0.07681,0.12637l0.01115,0.11275l-0.23541,0.16479l-0.02973,0.09541l-0.14495,0.14248l-0.10902,0.21682l-0.1177,0.08921l-0.08301,0.22054l-0.08301,0.12637l-0.1239,0.02973l0.02602,0.22425l0.07309,0.13133l0.17593,0.07558l-0.04956,0.1846l0.04831,0.09664l-0.04831,0.12142l-0.28868,0.16479l-0.16355,0.24161l0.07186,0.11026l-0.11893,0.31594l0.26514,0.32585l0.25399,0.11769l0.04956,0.07806l0.14124,-0.03222l0.06815,0.28124l-0.19081,0.2515l0.01487,0.2639l-0.11399,0.29735l-0.19328,0.16602l-0.38656,0.19701l0.00991,0.15982l-0.14495,0.16479l-0.10283,0.25522l-0.06691,0.08053l-0.16479,-0.01362l-0.09788,0.17965l-0.16726,0.19451l-0.02849,0.23912l-0.08053,0.10532l-0.20815,0.06566l-0.12266,-0.05452l-0.13753,-0.18584l-0.28744,0.05575l-0.20567,0.08797l-0.21063,0.04956l-0.1685,0.23912l0.00496,0.24655l-0.1338,0.27381l-0.25771,-0.02229l-0.04833,0.05327l-0.07558,0.43612l0.07806,0.04336l0.04956,0.15983l0.21559,-0.0384l0.08176,0.08301l-0.19948,0.33948l-0.12637,0.14124l-0.06442,0.35681l0.04213,0.36674l-0.02106,0.09912l-0.34814,0.1276l-0.02354,0.10284l-0.19328,0.06442l-0.11399,-0.01487l-0.09663,-0.09293l-0.22797,0.1338l-0.07433,0.2255l-0.31098,-0.10532l-0.16726,0.06566l-0.14495,0.14372l0.057,0.17345l-0.11895,0.13134l-0.11769,0.04213l-0.10779,0.12142l-0.29612,0.09168l-0.07682,0.10407l-0.34072,0.05452l-0.09416,-0.07806l-0.11026,0.01362l-0.05947,-0.09788l0.02106,-0.21557l-0.08549,-0.06195l0.1276,-0.12142l0.03469,-0.33205l-0.20566,0.03221l-0.02229,-0.08673l-0.21434,-0.07062l-0.15239,-0.09787l0.00744,-0.08053l0.18584,-0.06939l0.02973,-0.24655l0.15239,-0.08797l0.19328,-0.00991l0.17222,-0.12142l0.16479,-0.02478l0.09788,-0.07682l-0.02478,-0.27257l0.01982,-0.15735l-0.04956,-0.1177l0.06319,-0.12142l-0.04336,-0.06566l0.01487,-0.22921l-0.0954,-0.44727l0.08053,-0.18832l0.17964,-0.07558l0.14497,0.08301l0.11769,-0.02725l0.0062,-0.20319l-0.30974,-0.34196l-0.22798,-0.42745l-0.16849,-0.05823l-0.07433,-0.17097l-0.08673,-0.04956l-0.05947,0.12266l0.02973,0.11522l-0.03345,0.22797l-0.07062,-0.00991l-0.06939,-0.2069l-0.11647,-0.07309l-0.05204,-0.2577l0.04584,-0.07559l-0.13877,-0.13504l-0.11646,-0.19204l-0.11151,0.10408l-0.19204,-0.10655l-0.09044,0.1239l-0.10407,0.02229l-0.13009,0.1809l0.01859,0.13133l-0.09044,0.0384l-0.11275,0.16355l-0.13505,-0.10902l0.0062,-0.20319l-0.04956,-0.16479l0.03593,-0.12637l-0.07186,-0.07559l-0.07682,-0.25522l-0.10037,-0.01858l-0.24409,-0.28496l-0.00991,-0.11274l-0.33329,-0.19204l-0.09912,-0.14495l-0.2639,0.18461l-0.12639,0.0161l-0.23541,0.0954l-0.26763,-0.02354l-0.14248,-0.07433l-0.05947,-0.19699l-0.10655,-0.08673l0.03717,-0.14867l-0.08426,-0.13009l-0.22177,-0.01735l-0.11275,-0.08053l-0.04708,-0.14991l-0.00247,-0.10037l-0.12142,-0.1846l0.02354,-0.19701l0.11399,-0.10532l0.08796,-0.30974l0.07558,-0.05204l0.02602,-0.18088l-0.06072,-0.03964l-0.04956,-0.16973l-0.07186,-0.09044l0.14001,-0.08426l0.11274,0.00373l0.14868,-0.09788l0.01238,-0.13505l0.14,-0.22797l0.09912,-0.07558l0.02849,-0.14744l0.13256,-0.10655l0.00744,-0.09167l0.14371,-0.20195l0.08053,-0.23294l-0.20938,-0.19824l-0.23417,-0.02478l-0.10654,-0.14371l0.00124,-0.12018l-0.13134,-0.13628l-0.03964,-0.10408l0.14744,-0.10655l0.06195,0.05327l0.21557,0.00247l0.19699,-0.47205l-0.06442,-0.21682l0.08301,-0.05823l0.09541,0.05452l0.16602,-0.03221l0.04584,-0.21806l0.08921,0.04831l0.0062,0.2131l0.07806,0.07433l0.09044,-0.05452l0.21557,-0.23541l0.18957,0.09044l0.11895,0.10037l0.0892,-0.01115l0.18957,0.15115l0.11026,0.30974l0.09044,0.057l-0.06938,0.3593l-0.09044,0.22301l0.22301,0.02725l0.17222,-0.17345l0.15488,0.00371l0.23169,-0.34196l-0.03593,-0.10284l0.23788,-0.02478l0.18213,-0.18584l-0.04087,-0.24779l0.16106,-0.30974l-0.0446,-0.09541l0.25152,-0.18955l0.20071,0.00496l0.01612,-0.23665l0.07062,0.00247l0.11895,-0.24903l0.15735,-0.10284l0.22425,-0.32461l0.15611,-0.09293l0.05947,-0.11151l0.20071,0.08301l0.18584,-0.06195l0.04708,0.12885l0.22178,0.25276l0.00743,-0.11895l0.11151,-0.08673l0.11399,-0.00991l0.20072,-0.27257l0.10902,0.16602l0.09293,-0.11151l0.17222,-0.09912l0.25399,0.1016l0.10284,-0.08673l0.12637,0.0446l0.01239,0.15115l-0.04831,0.1462l-0.10902,0.08426l0.09664,0.16726l0.08177,0.01362l0.23664,-0.14495l0.14248,0.01362l0.09788,-0.0508l0.04336,-0.21187l0.34196,-0.11151l0.07186,0.02602l0.00373,0.29612l0.18584,0.18088l0.31965,0.06566l0.07682,0.09416l0.12886,-0.02725l0.1016,0.05823l0.16355,-0.20195l0.21559,0.02725l0.06938,-0.0384l0.18214,0.04089l0.01239,0.10779l0.09416,0.15983l0.12018,0.04213l0.13504,0.18213l0.23044,0.06195l0.22548,-0.08426l0.11895,0.04831"></path></g></g></svg>