<svg version="1.1" xmlns="http://www.w3.org/2000/svg" xmlns:xlink="http://www.w3.org/1999/xlink" width="7.55541" height="11.21651" viewBox="0,0,7.55541,11.21651"><g transform="translate(-239.63715,-163.83788)"><g fill="#ff0000" fill-rule="evenodd" stroke="#ffffff" stroke-width="0" stroke-linecap="round" stroke-linejoin="round" stroke-miterlimit="10"><path d="M247.12654,164.39721l-0.07474,0.16443l-0.21676,0.07972l-0.02242,0.1445l-0.25413,0.00996l-0.1196,0.19557l0.11212,0.11834l0.17813,0.10589l-0.02616,0.28028l0.142,0.06727l-0.10589,0.33262l-0.1769,0.22798l0.00125,0.12582l-0.19557,0.14575l-0.00872,0.1856l0.06229,0.20305l-0.00248,0.13951l0.08719,0.1495l-0.05482,0.21054l0.14326,0.01619l0.18312,0.24791l-0.05232,0.22797l-0.22174,0.4223l-0.00248,0.22423l0.09592,0.18062l-0.08719,0.15198l0.03362,0.20305l-0.11461,0.11212l0.07599,0.17316l-0.21178,0.19308l-0.10837,0.00248l0.02118,0.25911l0.09592,-0.00623l0.20181,0.20305l0.06851,0.4933l0.07599,0.09468l-0.00872,0.12208l-0.2342,0.11087l-0.03114,0.06853l0.05482,0.29275l-0.00872,0.19433l0.04859,0.20181l0.03986,0.10465l0.13205,0.13703l-0.00124,0.12083l0.10713,0.1445l0.23543,0.02492l0.21054,0.19932l-0.08097,0.2342l-0.1445,0.20305l-0.00746,0.09218l-0.1333,0.10713l-0.02865,0.14824l-0.09966,0.07599l-0.14077,0.22921l-0.01245,0.13578l-0.1495,0.09841l-0.11336,-0.00374l-0.14077,0.08472l0.07225,0.09095l0.04983,0.17067l0.06104,0.03986l-0.02616,0.18188l-0.07599,0.05232l-0.08846,0.31143l-0.11461,0.10589l-0.02367,0.19807l-0.19309,0.09094l-0.29275,-0.02616l-0.512,0.22921l-0.18935,-0.02616l-0.04983,-0.13703l0.02242,-0.10465l-0.18312,-0.20804l-0.12208,-0.02118l-0.21924,-0.13703l-0.0299,-0.1308l-0.11087,-0.17191l-0.16071,-0.04983l-0.1769,-0.17067l-0.16693,-0.06354l-0.03489,-0.10215l-0.10339,-0.0299l-0.31269,0.10465l-0.06478,-0.04983l-0.1196,0.07847l-0.18437,-0.05232l-0.11336,-0.14575l-0.22299,0.21177l-0.06976,0.11461l-0.09966,0.02616l-0.09592,-0.06851l-0.10215,0.05357l-0.10963,-0.09592l-0.09468,-0.17191l-0.12333,-0.03114l-0.06229,-0.24042l-0.23171,0.07225l-0.27156,-0.03612l-0.13579,0.07349l-0.17316,-0.12208l-0.08846,-0.27406l-0.09218,-0.16818l-0.02118,-0.12707l0.05606,-0.30395l-0.19557,-0.08472l-0.01743,-0.16693l-0.08597,-0.01495l-0.07847,-0.16443l-0.15696,-0.04484l-0.26408,-0.13703l-0.15073,-0.16444l0.0299,-0.14575l-0.18312,-0.09218l0.30021,-0.26036l0.13703,-0.17316l0.03114,-0.13329l0.12831,-0.20928l0.09716,-0.09592l0.27406,-0.04359l0.29647,-0.1582l0.33262,-0.28651l0.5207,-0.52571l0.43973,-0.56805l0.37746,-0.56057l0.42603,-0.48708l0.63284,-0.86329l0.25661,-0.32638l0.01743,-0.17191l0.07101,-0.09466l0.18187,-0.09716l-0.03987,-0.09966l0.12083,-0.16941l0.12458,-0.05606l0.17689,-0.24042l0.32638,-0.53193l0.44471,-0.8446l0.31018,-0.67144l0.3052,-0.02742l0.01371,0.10589l0.3351,-0.03114l0.05357,0.11212l0.11461,0.07724l0.19557,0.00623l0.14077,0.09716l0.20055,-0.08471l0.00747,0.16693l0.13827,0.10963"></path></g></g></svg>