<svg version="1.1" xmlns="http://www.w3.org/2000/svg" xmlns:xlink="http://www.w3.org/1999/xlink" width="13.90101" height="7.2875" viewBox="0.2,0.2,13.90101,7.2875"><g transform="translate(-292.12015,-134.64115)"><g fill="#ff0000" fill-rule="evenodd" stroke="#ffffff" stroke-width="0" stroke-linecap="round" stroke-linejoin="round" stroke-miterlimit="10"><path d="M305.17723,135.43414l-0.30146,0.20927l-0.18312,-0.00248l-0.08846,0.05979l0.05481,0.27406l0.22423,0.03862l0.06977,0.12333l-0.01371,0.15073l0.09466,0.13453h0.16569l0.03489,-0.08222l0.15447,-0.01869l0.13579,-0.1495l0.05856,0.27655l0.11087,0.14326l-0.14077,0.22921l0.06727,0.09094l-0.07847,0.19059l-0.17316,-0.06977l-0.09964,-0.29025l-0.21177,0.06602l-0.14077,-0.16817l-0.10712,0.02865l0.24042,0.28403l-0.04361,0.17316l0.09593,0.16693l-0.11709,0.1495l0.09218,0.31392l-0.0274,0.10091l-0.1495,0.09716l-0.19308,-0.03612l-0.04983,0.08969l0.14575,0.31891l-0.10215,0.25911l0.1856,-0.02367l0.22547,-0.26409l0.01993,0.18811l0.147,0.15572l0.32265,-0.11336l-0.01743,0.20928l-0.13205,0.04983l-0.1856,-0.11087l-0.10963,0.14575l-0.23171,0.04112l0.01869,0.16942l0.33136,-0.03238l0.08846,0.08097l0.07847,0.31891l0.08471,0.05854l-0.09466,0.28403l0.20181,0.1856l-0.01495,0.13951l-0.1196,0.04361l-0.07101,0.19807l0.01743,0.18686l-0.0872,0.08472l-0.11958,-0.1495l-0.00623,-0.25039l-0.20928,0.05108l0.06104,-0.17316l-0.04111,-0.05108l-0.23918,-0.01494l-0.09593,0.04236l-0.1856,-0.19557l0.19059,-0.07475l0.07847,-0.09466l-0.10713,-0.19557l-0.03362,-0.1607l-0.15073,0.10837l-0.32139,-0.03114l-0.07972,-0.06354l0.147,-0.22673l0.13329,-0.00498l0.07475,-0.17938l-0.29275,-0.15322l0.09468,-0.09342l-0.20804,-0.05854l-0.06977,-0.13453l-0.13703,0.20181l-0.12831,0.11336l-0.17316,0.01495l-0.08222,-0.04485l0.04609,-0.22174l-0.01495,-0.11834l-0.14575,-0.10339l-0.50077,0.03862l-0.1582,-0.04859l-0.1445,0.01869l0.02367,0.21177l-0.09966,0.00747l-0.01869,-0.13827l-0.33386,0.00124l-0.36376,0.12208l-0.44473,0.23918l-0.24416,0.1607l-0.16569,0.17316l-0.05979,0.15945l-0.09094,-0.06602l-0.20305,-0.02492l0.07225,-0.18312l-0.07349,-0.09592l-0.218,-0.06853l-0.09342,0.10339l-0.10463,-0.04485l-0.30395,0.00872l-0.15198,0.13453l0.01619,0.23045l-0.11087,0.13827l-0.11834,-0.02367l-0.09342,0.06602l0.02242,0.13453l0.15945,0.05107l-0.10963,0.13205l0.07847,0.1607l0.09966,0.00997l0.09592,-0.14202l0.14077,0.03737l0.07101,0.23171l0.09466,0.06603l-0.0872,0.11834l-0.11212,-0.03114l-0.14201,0.19433l-0.22423,0.08346l-0.05357,0.07847l-0.13329,-0.04609l-0.03364,0.12707l-0.28278,0.4223l-0.28651,0.47836l-0.16071,0.31267l-0.06851,0.27032l-0.26534,-0.17938l-0.08097,0.03862l-0.22797,-0.01371l-0.20804,-0.09342l-0.41109,0.0299l-0.09218,-0.11461l0.04609,-0.11087l-0.23046,-0.08472l-0.22547,-0.15198l-0.12083,-0.02865l-0.13329,0.12707l-0.10713,-0.1196l-0.17191,0.06104l0.05107,0.19059l0.12458,0.12208l0.19059,0.11709l-0.31641,0.19185l-0.14201,-0.06851l-0.24666,0.04359l-0.16195,-0.09716l-0.02242,-0.26783l-0.07724,-0.17316l-0.16693,-0.09342l-0.24915,-0.05357l-0.23918,-0.09592l-0.20305,-0.21676l-0.20057,-0.01121l-0.00872,-0.13453l-0.2479,-0.14824l-0.10589,-0.00623l-0.17068,-0.10465l-0.28278,0.03238l-0.28153,-0.06977l-0.17813,0.09841l-0.50701,0.03239l-0.07474,0.06104l-0.25413,0.00375l-0.10837,0.04734l0.00623,-0.31018l0.18562,-0.04359l0.11212,-0.13703l-0.05481,-0.15198l0.00125,-0.1582l0.1009,-0.01743l0.04484,-0.16443l0.19932,0.07349l0.12955,-0.24914l-0.06977,-0.11834l-0.04236,-0.26908l0.1495,-0.19807l0.14575,-0.03114l0.0897,-0.19807l0.13827,-0.01495l0.04859,-0.12456l0.13205,-0.12208l-0.04609,-0.05854l-0.03114,-0.29399l0.07847,-0.08222l0.02866,-0.27156l0.147,-0.06853l0.06727,0.08222l0.27281,-0.28901l0.0872,0.10963l0.56681,-0.39614l0.36499,-0.21676l0.07225,0.01743l0.20305,-0.1607l0.51448,0.01121l0.07847,-0.03362l0.2043,0.04359l0.18312,-0.01743l0.20055,-0.11585l0.39739,-0.09342l0.2915,0.10713l0.26909,-0.05108l0.18686,0.18062l0.28153,0.10215l0.20181,-0.04609l-0.00124,-0.13329l0.09966,-0.11709l0.26161,0.03114l0.24666,0.1856l0.04112,0.21302l0.07225,0.08346l0.10589,-0.06354l0.09716,0.13827l0.16195,0.10215l-0.12831,0.2778l0.11834,-0.01869l0.31269,0.07225l0.00248,-0.06478l0.25661,-0.06727l0.07225,0.05854l0.34755,0.06478l0.1607,-0.12583l0.09593,0.12208l0.24291,-0.15073l0.16071,-0.02616l-0.08846,-0.3625l0.11833,-0.1881l-0.08097,-0.21551l0.16693,-0.27156l0.00746,-0.19807l0.23172,-0.16693l0.25039,0.11461l0.12332,0.00248l0.06354,-0.23295l0.03238,-0.29398l0.05357,-0.09468l0.28901,-0.13953l0.06354,-0.08471l-0.02118,-0.20928l0.14077,-0.08097l0.17191,0.05107l-0.04484,0.40112l0.12954,0.08472l0.24541,0.04734l0.09592,-0.12208l0.15696,-0.00872l0.32263,-0.22673l0.17565,0.02367l0.25289,-0.22547l0.12208,0.03238l0.12208,0.12582l0.11461,0.01245l0.39615,-0.27031l0.03862,-0.07724l0.16567,-0.09468l0.42604,0.09716l0.18064,-0.28153l0.06727,0.03364l-0.03737,0.27905l-0.09466,0.12707l-0.19683,0.07724l0.03238,0.07599M303.61135,138.095l-0.03114,0.20803l0.32015,0.02492l0.1196,-0.17813l0.13578,-0.03238l0.00623,-0.13827l-0.36126,-0.00375l-0.18935,0.1196"></path><path d="M306.12398,140.45441l-0.08346,0.16443l-0.08097,-0.12083l-0.18686,-0.15821l-0.06602,-0.25538l0.23669,-0.16817l0.01371,0.06602l0.26409,0.12208l-0.07973,0.12332l-0.01743,0.22673"></path><path d="M300.53068,139.52012l0.20055,0.00623l-0.09094,-0.25911l0.11958,-0.01993l0.20554,0.19932l-0.00125,0.17937l0.12083,0.10837l-0.15945,-0.03862l-0.09218,0.05232l-0.2043,-0.03612l-0.09841,-0.19185"></path><path d="M304.81596,140.8904l-0.04112,-0.17316l-0.18437,-0.10589l0.15572,-0.21426l0.1445,0.09218l0.18562,0.42728l-0.26035,-0.02616"></path><path d="M304.03117,140.14297l-0.04111,-0.08846l0.08346,-0.11585l0.10339,0.3239l-0.19932,0.09716l-0.02492,-0.07474l0.07847,-0.14201"></path><path d="M305.35165,137.86329l-0.00872,-0.35752l0.16195,0.18935l0.04733,0.13329l-0.05481,0.07724l-0.14575,-0.04235"></path><path d="M300.50577,139.38307l-0.01495,0.23172l-0.08597,0.08097l-0.08222,-0.1196l0.18312,-0.19309"></path></g></g></svg>