<svg version="1.1" xmlns="http://www.w3.org/2000/svg" xmlns:xlink="http://www.w3.org/1999/xlink" width="169" height="169" viewBox="0,0,169,169"><defs><radialGradient cx="240" cy="180" r="84.5" gradientUnits="userSpaceOnUse" id="color-1"><stop offset="0" stop-color="#ffffff" stop-opacity="0.13333"></stop><stop offset="1" stop-color="#ffffff" stop-opacity="0"></stop></radialGradient></defs><g transform="translate(-155.5,-95.5)"><g stroke-miterlimit="10"><path d="M155.5,180c0,-46.66806 37.83194,-84.5 84.5,-84.5c46.66806,0 84.5,37.83194 84.5,84.5c0,46.66806 -37.83194,84.5 -84.5,84.5c-46.66806,0 -84.5,-37.83194 -84.5,-84.5z" fill="url(#color-1)" fill-rule="nonzero" stroke="#000000" stroke-width="0" stroke-linecap="butt" stroke-linejoin="miter"></path><path d="M176.99213,180.00002v0c0,-34.79828 28.2096,-63.00788 63.00788,-63.00788v0v0c16.71069,0 32.73699,6.63831 44.55328,18.45459c11.81628,11.81628 18.45459,27.84259 18.45459,44.55329v0v0c0,34.79828 -28.20959,63.00787 -63.00787,63.00787v0v0c-34.79828,0 -63.00788,-28.20959 -63.00788,-63.00787z" fill="#bc6d00" fill-rule="evenodd" stroke="none" stroke-width="1" stroke-linecap="square" stroke-linejoin="miter"></path><path d="M187.92829,179.99127v0c0,-28.7536 23.30939,-52.06299 52.06299,-52.06299v0v0c13.80792,0 27.05035,5.48516 36.81409,15.2489c9.76367,9.76373 15.2489,23.0061 15.2489,36.81409v0v0c0,28.7536 -23.30939,52.063 -52.06299,52.063v0v0c-28.7536,0 -52.06299,-23.30939 -52.06299,-52.06299z" fill="#ff9600" fill-rule="evenodd" stroke="none" stroke-width="1" stroke-linecap="square" stroke-linejoin="miter"></path><path d="M246.71856,145.22266v8.29766h-28.44501l-2.05262,19.29407v0c0.11969,-0.07599 0.24048,-0.15015 0.36243,-0.22242c1.44727,-0.85761 3.09283,-1.5169 4.93677,-1.9779c1.84387,-0.461 3.98798,-0.69146 6.43226,-0.69146c4.73847,0 8.75323,0.99164 12.04443,2.97492c3.2912,1.9726 5.81049,4.6366 7.55793,7.99212c1.74743,3.35547 2.62115,7.10766 2.62115,11.25647c0,4.35248 -1.07202,8.24402 -3.21612,11.67456c-2.13336,3.41986 -5.08148,6.09998 -8.84436,8.04035c-3.7522,1.94043 -8.02967,2.91064 -12.8324,2.91064c-4.68488,0 -8.8551,-0.83624 -12.5108,-2.5086c-3.64496,-1.68311 -6.72174,-4.13813 -9.23029,-7.36493l6.3197,-6.31977c1.52228,2.30493 3.6128,4.13275 6.27148,5.48352c2.66937,1.35077 5.64966,2.02618 8.94086,2.02618c3.09821,0 5.8158,-0.5896 8.15289,-1.76886c2.33704,-1.19 4.18097,-2.85699 5.53174,-5.0011c1.35077,-2.14411 2.02618,-4.69556 2.02618,-7.65442c0,-3.03387 -0.6593,-5.60145 -1.9779,-7.70264c-1.30792,-2.11194 -3.0661,-3.70928 -5.27447,-4.79205c-2.20844,-1.0935 -4.63123,-1.64026 -7.2685,-1.64026c-2.70154,0 -5.15655,0.33234 -7.36492,0.99701c-2.19769,0.65399 -4.28821,1.76892 -6.27149,3.34479l-5.03326,-5.03326l3.05536,-31.61462z" fill="#452500" fill-rule="evenodd" stroke="none" stroke-width="1" stroke-linecap="square" stroke-linejoin="miter"></path><path d="M246.71856,145.22266v8.29766h-28.44501l-2.05262,19.29407v0c0.11969,-0.07599 0.24048,-0.15015 0.36243,-0.22242c1.44727,-0.85761 3.09283,-1.5169 4.93677,-1.9779c1.84387,-0.461 3.98798,-0.69146 6.43226,-0.69146c4.73847,0 8.75323,0.99164 12.04443,2.97492c3.2912,1.9726 5.81049,4.6366 7.55793,7.99212c1.74743,3.35547 2.62115,7.10766 2.62115,11.25647c0,4.35248 -1.07202,8.24402 -3.21612,11.67456c-2.13336,3.41986 -5.08148,6.09998 -8.84436,8.04035c-3.7522,1.94043 -8.02967,2.91064 -12.8324,2.91064c-4.68488,0 -8.8551,-0.83624 -12.5108,-2.5086c-3.64496,-1.68311 -6.72174,-4.13813 -9.23029,-7.36493l6.3197,-6.31977c1.52228,2.30493 3.6128,4.13275 6.27148,5.48352c2.66937,1.35077 5.64966,2.02618 8.94086,2.02618c3.09821,0 5.8158,-0.5896 8.15289,-1.76886c2.33704,-1.19 4.18097,-2.85699 5.53174,-5.0011c1.35077,-2.14411 2.02618,-4.69556 2.02618,-7.65442c0,-3.03387 -0.6593,-5.60145 -1.9779,-7.70264c-1.30792,-2.11194 -3.0661,-3.70928 -5.27447,-4.79205c-2.20844,-1.0935 -4.63123,-1.64026 -7.2685,-1.64026c-2.70154,0 -5.15655,0.33234 -7.36492,0.99701c-2.19769,0.65399 -4.28821,1.76892 -6.27149,3.34479l-5.03326,-5.03326l3.05536,-31.61462z" fill="none" fill-rule="evenodd" stroke="#452500" stroke-width="2" stroke-linecap="butt" stroke-linejoin="round"></path><path d="M276.45158,158.44581v8.3941h-32.49909v-8.3941z" fill="#452500" fill-rule="evenodd" stroke="none" stroke-width="1" stroke-linecap="square" stroke-linejoin="miter"></path><path d="M276.45158,158.44581v8.3941h-32.49909v-8.3941z" fill="none" fill-rule="evenodd" stroke="#452500" stroke-width="1" stroke-linecap="butt" stroke-linejoin="round"></path><path d="M264.40408,178.89131h-8.3941v-32.49908h8.3941z" fill="#452500" fill-rule="evenodd" stroke="none" stroke-width="1" stroke-linecap="square" stroke-linejoin="miter"></path><path d="M264.40408,178.89131h-8.3941v-32.49908h8.3941z" fill="none" fill-rule="evenodd" stroke="#452500" stroke-width="1" stroke-linecap="butt" stroke-linejoin="round"></path></g></g></svg>