<svg version="1.1" xmlns="http://www.w3.org/2000/svg" xmlns:xlink="http://www.w3.org/1999/xlink" width="10.08485" height="12.14336" viewBox="0,0,10.08485,12.14336"><g transform="translate(-167.55977,-218.53099)"><g fill="#ff0000" fill-rule="evenodd" stroke="#ffffff" stroke-width="0" stroke-linecap="round" stroke-linejoin="round" stroke-miterlimit="10"><path d="M173.09098,219.61917l0.1574,0.0455l0.15987,0.12174l0.12666,0.28651l0.08363,-0.01229l0.20414,0.19059l0.14511,-0.04673l0.14265,0.0332l0.12543,0.08363l0.02706,0.14511l0.1365,0.19799l-0.17954,0.28651l0.01598,0.22627l-0.04427,0.19184l-0.13158,0.17585l0.2693,0.24718l-0.0787,0.07501l0.10084,0.25579l-0.11191,0.15372l0.11682,0.15372l-0.22136,0.37629l0.10575,0.06641l0.18569,-0.03566l0.15126,0.11313l-0.15003,0.16233l0.08363,0.09837l0.00738,0.1365l-0.10085,0.091l0.091,0.16478l-0.03198,0.11928l0.16233,0.0209l0.08731,0.14019l-0.02337,0.07501l0.09715,0.14757l0.14141,0.04427l0.19676,-0.05164l0.09961,0.08238l0.14141,-0.08238l0.38736,-0.08363l0.0455,0.05657l0.28406,-0.01106l0.07747,-0.05165l0.15495,0.0086l0.18077,-0.14757l0.01599,-0.15618l0.06763,-0.06025l0.12789,0.00738l0.13281,0.06887l0.10207,0.14511l0.17217,0.02582l0.1574,0.22627l-0.05533,0.18446l0.14757,0.24349l0.26684,0.06763l-0.0332,0.13773l-0.24103,0.22381l-0.07132,-0.0209l-0.19799,0.11929l-0.13158,0.17831l0.01353,0.14141l-0.06518,0.09837l-0.00369,0.31482l-0.14388,0.00246l-0.14388,-0.12298l-0.10084,0.06149l-0.03689,0.16356l-0.15987,0.15249l-0.04303,0.14019l-0.09223,0.02828l0.0455,0.19799l-0.04919,0.11928l0.04427,0.32341l-0.13896,0.2447l-0.10821,0.05287l-0.14142,-0.0123l-0.16478,-0.08116l-0.27422,-0.04181l-0.10945,0.0787l-0.06886,0.25702l0.01598,0.15003l-0.18569,0.01598l-0.07255,0.10084l0.08485,0.21643l-0.00246,0.16478l-0.18815,0.07132l-0.02951,0.36891l0.1156,0.2447l-0.02582,0.15372l-0.17708,0.15126l-0.1574,0.07747l-0.11436,-0.06025l-0.23242,0.0123l-0.06764,0.09837l-0.15249,0.07501l-0.15126,-0.04673l-0.20044,0.01353l-0.11806,-0.02828l-0.0578,-0.13404l0.03689,-0.22627l-0.14019,-0.14511l-0.1156,-0.00738l-0.04795,-0.10575l-0.17093,-0.12543l-0.12666,0.08485l-0.15249,-0.16233l-0.28776,0.12052l-0.11928,-0.05287l-0.14757,0.00246l-0.10576,0.13896l-0.34432,0.091l-0.19182,0.13157l-0.05533,0.11314l0.03812,0.12051l-0.23242,0.05903l0.08731,0.30744l-0.10822,0.13281l0.04673,0.19676l0.2152,0.06763l-0.03197,0.11805l-0.22012,0.09346l-0.14141,0.26684l-0.09715,0.07624l-0.05657,0.1279l0.04427,0.10206l-0.20782,0.12298l-0.16233,-0.02214l-0.06763,-0.20168l-0.07501,-0.091l-0.08239,-0.19305l-0.12666,0.12543l-0.13773,-0.03444l-0.07132,0.04058l-0.06763,-0.13773l-0.16109,-0.03075l-0.07747,0.04181l-0.14634,-0.05042l-0.13035,0.07132l-0.20905,-0.15495l-0.09469,0.02706l-0.14757,0.22504l-0.12666,-0.03074l-0.03444,-0.09961l0.03075,-0.18077l0.15863,-0.2816l-0.06518,-0.06518l0.08363,-0.14879l0.13773,-0.04303l0.21766,-0.23486l-0.10822,-0.2398l0.05165,-0.12174l-0.05165,-0.1697l-0.1943,-0.01722l-0.08239,-0.10698l-0.00368,-0.13281l0.05657,-0.09591l0.19553,0.02214l0.02951,-0.09837l-0.15249,-0.06025l-0.26438,-0.15249l0.15495,-0.26563l0.15002,-0.06763l0.0787,0.07132l0.16601,-0.29758l0.17093,-0.26069l0.23242,-0.24593l0.08854,0.06886l0.22258,-0.21889l-0.17954,-0.17094l0.04673,-0.10084l0.22012,-0.0209l0.15495,0.15372l0.03689,-0.07993l-0.06149,-0.35292l-0.18446,0.10698l-0.25946,0.05042l-0.2152,0.09961l-0.09715,-0.0123l-0.13896,0.06149l-0.23119,-0.04549l-0.23486,0.00246l-0.38489,0.18938l-0.29145,-0.01598l-0.23365,0.11682l-0.09469,-0.04795l0.02582,-0.1365l-0.10698,-0.13773l0.10945,-0.10945l0.19676,-0.07379l0.27053,-0.21766l0.12913,-0.01722l0.1697,-0.11928l0.17217,-0.02214l0.18569,-0.31726l0.18323,-0.18323l0.25208,-0.07501l0.10452,-0.10207l0.1242,-0.02337l-0.04058,-0.26684l0.04427,-0.16601l-0.09715,-0.35538l-0.0123,-0.16478l0.11191,-0.17339l0.08485,-0.03812l-0.22873,-0.26315l-0.04303,-0.19553l-0.12913,-0.03812l-0.03565,-0.21766l-0.1033,-0.11068l-0.06887,0.10207l-0.51771,-0.16601l0.00492,-0.40334l-0.29389,-0.17831h-0.05533l-0.19059,-0.1574l-0.10452,0.05042l-0.16971,-0.07379l-0.21275,-0.22627l0.00369,-0.17831l-0.09961,-0.38736l-0.02336,-0.40457l-0.05411,-0.09837l-0.08854,0.00738l-0.05287,-0.13158l0.27176,-0.04058l0.5878,0.05042l0.18569,-0.07255l0.09837,0.03935l0.10698,-0.14879l-0.12544,-0.17708l-0.01353,-0.1574l-0.11682,-0.17339l0.11191,-0.13773l0.1574,-0.11068l0.18815,0.00123l0.03935,-0.18446l0.25333,-0.11805l0.11805,-0.01476l-0.05411,-0.12913l0.00738,-0.12174l0.11068,-0.03689l0.11559,-0.1365l0.25579,0.01844l0.17955,0.091l0.30129,-0.07132l0.19799,0.07132l0.05042,-0.14019l0.07379,-0.37137l0.01476,-0.19922l0.21766,-0.17831l0.09715,0.13404l-0.02583,0.07379l0.16355,0.04795l0.09961,-0.0541l0.13035,0.05042l0.14141,-0.02214l0.03689,0.10452l0.20168,0.13035l0.20905,0.19307l0.22504,0.00369l0.22258,0.12052l0.05533,-0.01106l0.182,0.14634l0.16233,0.03812l0.03935,0.14634l0.25702,-0.01352"></path><path d="M168.72553,226.76373l0.00246,0.22504l-0.21151,0.22627l-0.06887,-0.09346v-0.13773l-0.15372,-0.16233l0.2398,-0.09592l0.19184,0.03812"></path><path d="M169.51253,224.48879l0.01106,-0.08238l0.23242,-0.00246l-0.02459,0.08362l-0.21889,0.00123"></path></g></g></svg>