<svg version="1.1" xmlns="http://www.w3.org/2000/svg" xmlns:xlink="http://www.w3.org/1999/xlink" width="6.74737" height="11.65151" viewBox="0,0,6.74737,11.65151"><g transform="translate(-170.53936,-238.39926)"><g fill="#ff0000" fill-rule="evenodd" stroke="#ffffff" stroke-width="0" stroke-linecap="round" stroke-linejoin="round" stroke-miterlimit="10"><path d="M177.03833,241.23735l0.0246,0.09469l0.12543,0.12052l0.09837,0.22012l-0.04426,0.18446l-0.15372,0.14388l0.07501,0.07132l0.02337,0.19305l0.05165,0.11191l-0.0086,0.19307l-0.04919,0.08854l-0.30373,0.13773l-0.01352,0.1156l-0.09592,0.14388l0.01353,0.15125l-0.04919,0.16971l-0.08485,-0.08116l-0.2029,0.00369l-0.15618,-0.08854l-0.16724,-0.04181l-0.19307,0.27668l-0.09223,-0.06271l-0.11313,0.04549l-0.26438,0.22012l-0.19307,0.23734l-0.14265,0.23242l-0.12543,0.28283l-0.04181,0.21643l-0.00984,0.23365l0.10206,0.07379l0.30252,0.08239l0.17585,0.10452l0.16233,0.0123l0.29268,0.11929l0.08485,-0.01353l-0.03935,0.21766l-0.07379,0.15863l-0.12912,0.14141l-0.15863,0.08239l0.0332,0.16847l0.091,0.07255l0.1033,-0.06271l0.18692,0.04919l0.28283,-0.13035l0.01844,0.06763l-0.11928,0.13035l-0.13527,0.07501l-0.03565,0.091l-0.10452,0.02951l-0.24103,0.18323l-0.16601,0.24103l-0.37752,0.02706l-0.22504,-0.03075l-0.13527,0.19184l0.04181,0.14141l-0.06887,0.09346l-0.0123,0.1242l-0.22381,0.1611l0.02951,0.0787l-0.18323,0.09592l0.07501,0.13404l-0.05042,0.15126l-0.14634,0.11805l-0.41809,0.21521l-0.08608,-0.0246l-0.07132,0.16847l-0.19307,0.00984l-0.2816,0.19922l-0.39965,0.13035l-0.17585,-0.0578l-0.10698,0.09223l-0.10945,-0.02582l-0.07501,0.11928l-0.10821,-0.04181l-0.07009,0.13773l-0.17708,0.11682l-0.13035,0.00246l-0.10822,0.12666l-0.08239,-0.06271l-0.10576,0.12789l-0.33693,0.14634l0.03689,0.12666l-0.14265,0.03074l-0.12297,0.11682l-0.16478,-0.02706l0.0578,0.15126l-0.06886,0.15372l-0.17831,-0.06641l-0.07993,0.15372l-0.06394,-0.13158l0.24841,-0.38858l-0.02706,-0.15125l0.04181,-0.2447l-0.10822,-0.09837l-0.13895,-0.04181l0.12174,-0.19922l0.18323,-0.05287l0.23488,-0.18938l0.15002,-0.18321l0.20782,-0.02828l0.1611,-0.21028l0.11806,-0.2816l0.06148,-0.23732l0.09961,-0.18692l-0.05657,-0.182l-0.11067,-0.14265l0.00615,-0.12666l0.182,-0.20168l0.05411,-0.182l0.18692,-0.14388l-0.0086,-0.15495l0.09223,-0.36891l-0.05533,-0.29268l0.11805,-0.24103l0.03566,-0.21274l-0.11314,-0.17708l-0.04673,-0.16478l-0.13281,-0.18077l-0.03075,-0.16847l-0.23611,-0.53983l-0.34431,-0.4267l-0.28406,-0.08977l-0.08609,-0.05042l-0.09961,-0.39596l0.08362,-0.16724l-0.03444,-0.13158l0.04673,-0.22504l0.09346,-0.09469l0.00492,-0.13158l-0.10698,-0.20905l0.10576,-0.02336l0.55706,-0.01476l0.182,-0.07501l0.12666,-0.13281l0.12544,-0.19061l-0.00246,-0.26438l0.10698,-0.12789l0.06271,-0.27176l0.16601,0.091l-0.01476,0.24226l0.20168,0.04058l0.2152,-0.04181l0.17462,-0.22136l0.23857,0.04673l0.02459,-0.25087l-0.18692,-0.15495l0.01353,-0.23732l0.38244,0.06149l0.13035,-0.02706l-0.08608,-0.22012l0.00738,-0.21398l-0.06887,-0.08116l0.00369,-0.45745l-0.14019,-0.07379l0.06395,-0.16356l0.08608,-0.08608l-0.14757,-0.11068l-0.00122,-0.06395l-0.1574,-0.0578l0.06025,-0.10452l-0.03689,-0.20905l0.09715,-0.21521l0.07379,-0.01476l0.12912,0.0787l0.20782,-0.03566l0.14264,0.24841l0.45745,0.06886l0.0578,-0.04426l0.10945,0.08854l0.08238,-0.02337l0.0578,0.12912l-0.16724,0.17831l0.00492,0.10576l0.15002,0.00615l0.08854,0.07501l0.21275,-0.04181l0.02951,0.35292l-0.05533,0.16356l0.19061,0.22627l-0.06025,0.08239l0.03565,0.13527l-0.02951,0.12052l0.08238,0.16109l0.07255,0.01598l0.11436,0.13527l0.01722,0.15002l0.08362,0.1242l0.22381,-0.3566l0.08362,-0.02951l0.26684,0.22381l0.17217,0.20168l0.15741,0.06149l0.24964,-0.06025l0.13281,-0.09346l0.13527,0.05287l0.2398,0.16233l-0.05165,0.17462"></path></g></g></svg>