<svg version="1.1" xmlns="http://www.w3.org/2000/svg" xmlns:xlink="http://www.w3.org/1999/xlink" width="1.23208" height="0.53298" viewBox="0,0,1.23208,0.53298"><g transform="translate(-71.70344,-342.28394)"><g fill="#ff0000" stroke="#ffffff" stroke-width="0" stroke-linecap="round" stroke-linejoin="round" stroke-miterlimit="10"><path d="M72.42182,342.28793l0.18533,0.0202l0.32837,0.14898l-0.06085,0.13887l-0.1712,0.09974l-0.11287,0.1212l-0.36422,-0.07196l-0.02374,0.04797l-0.17548,0.01515l-0.24391,-0.09342l-0.07828,0.00505l0.02248,-0.19569l0.15074,-0.05555l0.09569,-0.14643l0.15276,0.07196l0.18092,-0.04292l0.11425,-0.06313" fill-rule="evenodd"></path><path d="M72.70197,342.69171l-0.11287,0.1212l-0.36424,-0.07196l-0.02373,0.04797l-0.1755,0.01516l-0.24392,-0.09342l-0.07827,0.00505l0.02247,-0.19569l0.15075,-0.05555l0.09569,-0.14644l0.15277,0.07196l0.18092,-0.04292l0.11425,-0.06313l0.18534,0.0202l0.32838,0.14899l-0.06085,0.13887l-0.1712,0.09974" fill-rule="nonzero"></path></g></g></svg>