<svg version="1.1" xmlns="http://www.w3.org/2000/svg" xmlns:xlink="http://www.w3.org/1999/xlink" width="8.43118" height="9.31088" viewBox="0,0,8.43118,9.31088"><g transform="translate(-222.43088,-179.49877)"><g fill="#ff0000" fill-rule="evenodd" stroke="#ffffff" stroke-width="0" stroke-linecap="round" stroke-linejoin="round" stroke-miterlimit="10"><path d="M229.94521,182.91714l-0.13133,0.32337v0.09788l0.20815,0.17222l0.11895,0.3023l-0.17097,0.16479l-0.0508,0.15115l0.14744,0.21929l0.19576,0.08921l0.06071,0.15239l0.1177,0.09168l-0.06319,0.09293l0.1276,0.08426l0.05452,-0.05327l0.20938,0.09044l0.03717,0.15239l-0.05947,0.08176l0.0793,0.15611l-0.0508,0.19081l0.08673,0.04213l-0.00124,0.09416l-0.15611,0.02354l-0.06691,0.07558l-0.20195,0.07433l0.06566,0.16355l-0.07309,0.06442l-0.29859,0.01487l-0.23292,-0.03098l-0.34814,0.05452l-0.14495,0.11522l-0.06319,0.11522l-0.13256,0.03346l-0.20319,0.15115l-0.06566,0.18337l-0.14868,0.16602l-0.19824,0.04089l-0.15735,0.14248l-0.07682,0.13257l-0.17097,-0.04089l0.05947,0.28744l-0.25152,0.17841l-0.05575,0.11895l-0.12266,0.00991l0.13256,0.21557l-0.06939,0.33452l-0.08921,-0.03098l0.03346,0.42373l-0.18832,-0.07186l-0.08301,0.02229l-0.21434,-0.03469l-0.22424,0.00867l-0.04213,0.17717l-0.27257,0.07806l-0.16355,-0.1747l-0.08301,-0.27381l0.16602,-0.08053l-0.03717,-0.11399l-0.10284,-0.05824l-0.08301,-0.13876l-0.23541,-0.06195l-0.10407,-0.10035l0.08797,-0.06815l0.06442,-0.1747l-0.12018,-0.28124l-0.27877,-0.057l-0.07309,0.06566l-0.24284,-0.08549l-0.18213,0.0954l-0.11399,0.10407l-0.03098,0.10284l-0.18584,0.13753l-0.12266,-0.26761l-0.10532,-0.10655l-0.16974,-0.00868l-0.31346,-0.10902l0.01735,-0.16355l-0.057,-0.07681l-0.25894,-0.10655l-0.32585,-0.08053l-0.27877,-0.14744l-0.15982,-0.06071l-0.04213,-0.08797l0.08426,-0.19451l-0.03099,-0.09788l-0.10407,-0.05327l0.07806,-0.2131l-0.057,-0.15488l0.09787,-0.19824l-0.04708,-0.2069l0.11523,-0.22674l0.17097,-0.11151l0.15859,0.06442l0.14867,0.15362l0.12266,0.00867l0.09663,0.08426l0.02479,0.10902l0.35434,-0.1276l0.13009,-0.1747l0.00371,-0.06938l0.23169,0.04214l-0.02106,-0.25152l0.03469,-0.41258l-0.05452,-0.06071l-0.06566,-0.40514l0.03593,-0.58354l-0.08426,-0.16107l0.00867,-0.12142l-0.12018,-0.02229l-0.23788,0.09788l-0.18088,-0.01115l-0.34814,0.22054l-0.02354,0.08053l-0.2639,0.00496l-0.14868,0.0384l-0.18584,-0.24408l0.05203,-0.15859l-0.05574,-0.10283l-0.14495,-0.06815l-0.02725,-0.1016l-0.24531,-0.12142l-0.06566,-0.15115l-0.16232,-0.19699l-0.10779,-0.03593l0.14248,-0.15488l0.10407,-0.33079l-0.08301,-0.23169l-0.03718,-0.23664l0.04089,-0.09788l0.14,-0.03964l0.08549,0.06442l-0.02478,0.15239l0.20071,-0.02849l0.11647,0.04956l0.17345,-0.01734l0.24655,-0.09416l0.24656,-0.14744l0.02602,-0.15859l0.10408,-0.1524l0.10035,-0.03098l0.04833,-0.11151l0.36425,0.02725l0.18337,-0.02354v-0.08549l0.29116,-0.10532l0.39647,-0.32833l0.0062,-0.21557l0.11026,-0.04708l0.36798,-0.04213l0.1338,-0.10408l0.14371,0.04089l0.30974,-0.11399l0.03469,-0.06071l0.26637,-0.0954l0.13505,0.05575l0.29239,-0.13381l0.15982,0.18955l0.08549,0.02106l0.08426,0.22054l0.11522,-0.00373l0.08921,0.07433l-0.00867,0.11275l0.13628,0.05947l0.06815,0.15115l-0.02478,0.16479l0.26267,0.21434l-0.12143,0.22424l0.05575,0.24284l-0.12637,0.04089l0.01611,-0.15488h-0.13877l-0.19451,0.05823l-0.18214,0.27133l-0.08797,0.28248l-0.01239,0.14868l-0.11522,0.06442l-0.12514,0.20072l-0.1338,0.07682l-0.11151,0.22425l-0.17345,0.21557l-0.06071,0.18584l0.00867,0.14868l0.06319,0.11026l0.11522,0.03966l0.11275,-0.1623l-0.08549,-0.10655l0.0446,-0.11399l0.23912,-0.10655l0.36302,-0.4386l-0.01611,0.15859l-0.09787,0.09788l0.04956,0.17097l0.14248,0.03717l0.15239,0.12018l-0.16973,0.09788l-0.23044,-0.09912l-0.07433,0.15488l0.11275,0.22424l0.29364,0.02973l0.03098,0.12639l0.17965,0.12266l0.30107,0.07186l0.15859,-0.20319l0.09663,0.13381l0.04336,0.16973l-0.03221,0.15983l-0.11399,0.13009l-0.06195,0.3531l-0.08673,0.08177l0.03099,0.08549l0.1747,-0.11399l0.11151,-0.19204l0.09167,-0.03469l0.07062,-0.17593l0.31346,-0.08053l0.13009,0.19824l0.11769,-0.08797l0.06938,-0.15611l-0.07929,-0.07682l-0.26763,-0.09912l-0.21682,0.05947l-0.19699,-0.32461l-0.03222,-0.2131l0.09293,-0.10407l0.09787,0.00373l0.1809,-0.10779l0.15982,-0.1623l0.13256,0.08301l0.17097,-0.0793l0.11646,-0.12639l0.16602,0.05452l0.00373,-0.13134l0.09416,-0.0892l0.00743,-0.11275l0.18461,-0.09912l0.07433,0.15362l-0.08053,0.06566l0.02726,0.19452l0.16479,-0.05327l0.11399,0.21807l0.15239,-0.0161l-0.32338,0.14371M226.32247,182.58385l0.18214,0.1747l0.18584,-0.28001l-0.057,-0.06319l-0.31098,0.1685M222.91407,181.55798l0.16479,0.08301l-0.15115,0.27628l0.24902,-0.08426l0.04213,-0.13134l0.13504,-0.05823l-0.13876,-0.15736l-0.30107,0.07186"></path></g></g></svg>