<svg version="1.1" xmlns="http://www.w3.org/2000/svg" xmlns:xlink="http://www.w3.org/1999/xlink" width="10.34831" height="14.52395" viewBox="0,0,10.34831,14.52395"><g transform="translate(-296.1506,-106.67398)"><g fill="#ff0000" fill-rule="evenodd" stroke="#ffffff" stroke-width="0" stroke-linecap="round" stroke-linejoin="round" stroke-miterlimit="10"><path d="M306.12398,106.73267l0.03114,0.0897l0.26658,0.19308l-0.07101,0.19932l-0.13453,0.00746l-0.08846,0.12707l0.00997,0.19059l-0.09218,0.00499l-0.04236,0.12955l0.06851,0.05979l0.00499,0.2043l0.13329,0.07349l-0.03489,0.29026l0.17813,0.11461l0.14575,0.02118l-0.00623,0.4061l-0.23045,0.01494l-0.21302,0.24666l-0.23295,-0.07973l-0.28777,0.09716l-0.15696,-0.09966l-0.0573,0.20804l-0.11834,0.02242l-0.05856,0.13703l-0.13081,0.07847l0.04361,0.15572l-0.16071,0.12208l0.06603,0.16569l-0.10713,0.17813l-0.03986,0.28776l-0.24168,0.26409l0.11212,0.41607l0.22798,0.09966l0.03489,0.25039l0.19557,0.15696l0.16569,-0.06104l0.12083,0.11461l-0.00125,0.29275l0.09342,0.1582l-0.05856,0.09967l0.0573,0.1445l0.16443,0.09841l0.04111,0.18062l0.23046,0.28527l0.05357,0.16443l0.14575,0.24791l0.01371,0.28527l-0.04359,0.21924l-0.27032,0.19309l0.05854,0.20804l-0.17565,0.20928l-0.25787,-0.0872l-0.19185,-0.02866l-0.13453,0.11087l-0.16319,-0.01371l-0.09966,0.19433l0.12208,0.16942l0.17813,0.03986l0.00747,0.24541l-0.03489,0.13579l0.1582,0.32513l0.04609,0.26783l0.08846,0.10465l-0.13578,0.05979l-0.22673,0.01993l0.01121,0.22174l-0.1171,0.04859l-0.06104,0.22921l-0.08097,0.01993l-0.05107,0.17565l-0.18312,-0.03364l-0.17067,0.03612l-0.0872,0.08222l-0.20804,0.0573l-0.14575,-0.0598l-0.16319,0.20181l0.04485,0.17565l-0.07724,0.11709l0.05979,0.15447l-0.03987,0.20057l0.15323,0.1009v0.15322l-0.13579,0.11336l-0.16817,0.20679l-0.23794,0.06104l-0.15945,0.14077l-0.08222,0.1856l-0.11087,0.09342l0.08097,0.19683l0.17191,0.13329l0.45095,0.19433l0.1582,0.11585l0.12831,0.1856l0.18935,0.13081l0.04983,0.21302l-0.19557,0.09841l-0.07724,-0.14077l-0.12831,-0.07225l-0.25787,0.04982l-0.1445,-0.03114l-0.23295,0.13453l-0.19308,0.01121l-0.22797,-0.13329l-0.29524,0.12583l-0.11585,0.30894l0.0573,0.24915l-0.06602,0.22174l0.13453,0.15696l-0.10215,0.09094l-0.00374,0.16195l-0.11833,0.16443h-0.16195l-0.05979,-0.11336l-0.14077,0.0598l-0.21551,0.01743l-0.23543,-0.07349l-0.19932,-0.14202l-0.20554,-0.09342l-0.41483,-0.09592l-0.13205,-0.00623l-0.32139,0.07724l-0.19433,-0.13827l-0.14201,0.01494l-0.01743,-0.15696l-0.16817,0.01993l-0.16319,-0.08846l-0.35752,0.05481l-0.18935,-0.07847l-0.06478,-0.12707l-0.22673,-0.1009l-0.23918,-0.02367l-0.16194,0.21302l-0.3538,-0.11087l-0.08846,-0.076l-0.2043,0.10838l-0.21924,0.22051l-0.0897,0.00996l-0.09841,-0.16569l0.07225,-0.05606l-0.13703,-0.35628l-0.13953,-0.21177l0.06104,-0.08346l-0.2778,-0.28777l-0.24416,0.07475l-0.13703,-0.01869l-0.14201,-0.19807l0.12083,-0.15945l0.02492,-0.29897l0.16443,-0.34631l0.03488,-0.20554l-0.0573,-0.23669l0.05232,-0.12707l-0.1582,-0.17068v-0.15447l-0.19185,-0.02616l-0.13702,-0.25661l-0.03364,-0.20305l0.20804,-0.05108l0.10713,-0.10465l-0.00997,-0.14701l0.13081,-0.09466l0.04609,-0.15073l0.1881,-0.14701l0.17068,-0.20055l-0.08346,-0.18935l-0.21177,-0.08346l-0.14326,-0.12583l-0.12083,0.04235l-0.20679,-0.13205l0.02241,-0.46965l-0.05854,-0.06726l-0.02118,-0.18437l0.21551,-0.22423l0.18064,0.04111l0.18062,-0.09218l0.18187,0.2155l0.1769,0.03114l0.25787,-0.07724l0.01993,-0.14575l-0.05979,-0.17565l-0.08846,-0.08969l0.00499,-0.19433l-0.16693,-0.18935l0.0299,-0.12583l-0.05979,-0.08719l0.06104,-0.27032l-0.11585,-0.10215l-0.01245,-0.27406l0.04859,-0.28527l-0.02241,-0.23295l0.08097,-0.09468l0.00125,-0.13453l-0.06478,-0.15572l0.06229,-0.24416l-0.1358,-0.45344l0.16195,-0.18935l0.07225,0.02118l0.1744,-0.21426l0.01743,-0.27655l-0.14326,-0.25413l0.19932,-0.37371l-0.00996,-0.08846l-0.16569,-0.00746l-0.12208,-0.19683l0.16443,-0.10963l0.24791,-0.22797l-0.03612,-0.13453l0.10963,-0.13827l-0.03114,-0.07599l0.12083,-0.13827l0.45718,-0.10713l-0.02615,-0.18811l0.08346,-0.10963l0.10339,-0.01121l0.12831,0.12831l0.04983,0.1881l0.13329,0.14077l0.14077,-0.05108l0.18187,0.07847l0.2043,-0.03862l0.05481,-0.10215l0.24541,-0.17316l0.16693,-0.01869l0.20554,-0.2342l0.17191,0.00747l0.17316,-0.0573l0.07475,-0.08719l-0.12831,-0.31269l0.25039,-0.15945l0.18064,-0.07847l0.04983,-0.09342l0.19683,-0.01495l0.22174,-0.13703l0.32015,0.03362l0.26035,-0.16817l0.09592,-0.16195l0.06851,-0.00248l0.20679,-0.21054l0.14575,-0.01495l0.02866,-0.12456l0.1582,0.07972l0.21426,-0.11461l-0.00499,-0.10215l0.0872,-0.12955l0.14326,-0.01619l0.06851,-0.09342l0.10589,0.04359l0.1607,0.24416l-0.04111,0.15198l0.17938,0.11335l0.05854,0.12583l0.3625,-0.23171l0.09466,-0.12831l0.09593,-0.2342l0.11833,0.16693l0.25413,-0.1283l0.1769,-0.18062l0.1582,0.04983l0.147,-0.07225l0.17937,0.02118l0.33262,0.21551l0.09966,0.15447l0.29648,0.08969l0.21177,-0.21676l0.09841,-0.00499l0.218,-0.20055"></path></g></g></svg>