<svg version="1.1" xmlns="http://www.w3.org/2000/svg" xmlns:xlink="http://www.w3.org/1999/xlink" width="9.3508" height="11.60971" viewBox="0,0,9.3508,11.60971"><g transform="translate(-177.91867,-212.7807)"><g fill="#ff0000" fill-rule="evenodd" stroke="#ffffff" stroke-width="0" stroke-linecap="round" stroke-linejoin="round" stroke-miterlimit="10"><path d="M185.96597,224.39041l-0.0332,-0.17217l0.182,0.1611l-0.14879,0.01107"></path><g><path d="M183.3836,215.04466l-0.18323,-0.00369l-0.18446,-0.09591l0.00122,-0.06641l-0.13773,-0.07993l-0.08485,0.04058l-0.22012,-0.05165l-0.0123,0.11068l0.04304,0.24964l0.10453,0.09715l-0.03075,0.24964l-0.26069,0.00984l-0.10698,0.05287l-0.19676,0.01967l0.00984,0.15126l-0.07379,0.182l-0.22873,-0.01844l-0.13035,-0.05287l-0.17217,0.02828l-0.07993,-0.07009l-0.05411,-0.15618l-0.18446,-0.0332l-0.30865,0.10945l-0.03444,0.44761l0.10084,0.29022l-0.0123,0.13035l0.06395,0.38243l0.05165,0.11436l0.14141,0.03075l0.18938,0.11682l0.14757,-0.00369l0.46483,0.17708l0.13404,-0.15987l0.17339,-0.08116l0.57304,-0.16724l0.07255,0.22748l0.06887,-0.0332l-0.06641,-0.21397l0.16847,-0.06518l0.13773,-0.00368l0.16356,0.07132l0.35907,0.26315l0.00123,0.05411l0.15125,0.13527l0.09592,-0.12543l0.14265,0.00122l0.14757,0.08116l0.22748,0.06641l0.11805,0.00246l0.21028,-0.07379l0.22381,-0.0246l0.18323,-0.10207l0.33201,-0.14019l0.23978,-0.03321l0.00123,0.08362l-0.1033,0.11436l-0.06763,0.14757l-0.12544,-0.00369l-0.09469,0.17585l0.07255,0.09469l-0.13895,0.18815l-0.10207,0.25085l-0.24103,0.19182l-0.10576,0.1242l-0.09346,0.18077l0.08362,0.17708l-0.23611,0.17585l0.01721,0.15863l0.05903,0.06887l0.15002,0.01598l0.18938,0.10698l0.15863,-0.08731l0.06887,-0.11436l0.20044,-0.03812l0.06518,0.12912l0.19797,-0.10698l0.18692,0.08854l-0.17217,0.07501l-0.06641,0.15863l-0.1242,-0.05287l-0.10945,0.06763l0.00615,0.08854l-0.29758,0.16601l0.19184,0.182l0.16109,-0.02336l0.06026,-0.07747l0.1365,0.10945l0.12543,-0.08238l0.14634,0.1697l0.11191,0.02951l0.07625,-0.20536l0.09592,0.17093l0.13527,0.0578l0.0332,-0.09223l0.26071,0.07625l0.14388,-0.01476l-0.05042,-0.16233l0.02214,-0.14265l0.14265,-0.07009l-0.0246,0.22627l0.07747,0.12543l-0.18077,0.08609l-0.0086,0.05533l-0.17955,0.09961l-0.19061,-0.11928l-0.0787,0.04673l-0.15987,-0.08854l-0.23857,0.11436l-0.13281,0.00368l-0.22012,0.21766l-0.47467,-0.00122l-0.20167,0.03197l-0.15495,0.15495l-0.08731,-0.06026l-0.13527,0.00861l-0.13281,-0.04427l-0.00738,0.12912l-0.08977,0.06271l-0.04796,0.17217l-0.08485,0.10698l0.10207,0.3566l-0.2693,0.13404l-0.11682,-0.02705l-0.21274,0.05533l-0.1574,-0.03565l-0.2398,0.07501l-0.09469,0.11436l-0.1574,0.08854l-0.13035,0.00984l-0.10575,-0.18446l-0.06026,-0.23365l-0.07625,-0.08238l-0.08731,-0.24349l-0.10575,-0.11559l-0.04303,-0.13404l0.06886,-0.24349l0.11314,0.06148l0.15003,-0.08977l0.01107,-0.18692l-0.07255,-0.05287l-0.00246,-0.19061l0.091,-0.182l0.00246,-0.14511l-0.182,0.09469l-0.06271,-0.07132l-0.15987,-0.04427l-0.28529,-0.18077l-0.1365,0.00369l-0.07501,0.06886l-0.1611,-0.06641l-0.0787,-0.11806l-0.10945,-0.01598l-0.06026,-0.09469l-0.15126,0.01476l-0.24841,0.20414l-0.17585,0.03935l-0.13773,0.11928l0.06763,0.07009l-0.08854,0.16109l-0.2447,0.08485l-0.1156,-0.02706l-0.10698,-0.11191l-0.02828,-0.15618l-0.12913,-0.0455l-0.04058,0.08116l-0.21028,0.12913l-0.06025,-0.18815l0.18321,-0.24595l0.01353,-0.15863l-0.07132,-0.05533l0.0123,-0.12052l0.10698,-0.05533l0.06518,-0.10698l-0.03565,-0.12666l-0.15003,0.02582l-0.06271,-0.05657l-0.40334,0.0209l-0.03689,0.09347l-0.13896,0.08854l-0.08117,0.21889l-0.22381,0.1156l0.07747,0.07993l-0.07009,0.07501l-0.18815,0.01967l-0.05903,-0.06148l-0.26315,0.05657l-0.23486,-0.22627l-0.13896,0.03565l-0.11559,-0.10206l-0.17339,0.02828l0.02828,-0.19553l0.35292,-0.29635l0.33079,-0.10821l0.10821,-0.14019l-0.06887,-0.06148l-0.11929,0.08731l-0.0787,-0.14019l0.08239,-0.09223l-0.23609,-0.17339l-0.09592,-0.23242l-0.15002,-0.23611l0.12789,-0.07132l0.08977,-0.13404l0.09469,-0.05903l0.05534,-0.23119l0.14757,-0.11436l0.25946,-0.32464l-0.19676,-0.16233l0.1033,-0.02951l0.09591,-0.14019l0.21766,0.05902l0.21643,-0.04304l0.17217,-0.1574l0.20905,0.0246l-0.02582,-0.12174l0.07132,-0.14388l-0.01844,-0.09715l0.17954,0.01598l0.21028,-0.12298l-0.09469,-0.22748l-0.21643,-0.0455l-0.01844,-0.07993l0.09223,-0.24841l0.07747,-0.04673l-0.03074,-0.1697l0.08977,-0.04181l0.1033,-0.28651l-0.01721,-0.13528l-0.09715,-0.27545l0.01844,-0.08731l-0.22748,-0.23732l0.06025,-0.17708l0.12912,-0.11314l0.20168,0.06148l0.00369,-0.13527l-0.12789,-0.12913l0.23858,-0.09469l0.11805,0.23611l0.19676,0.06394l0.12297,0.16356l0.08239,0.00492l0.40334,0.26192l0.15372,-0.02582l-0.04673,-0.36522l0.06763,-0.05165l0.20782,-0.40825l0.1279,-0.21643l0.15249,-0.12666l0.1156,-0.04673l0.03443,0.10085l-0.0455,0.26192l0.05902,0.19799l0.14142,0.25085l0.02705,0.33816l0.05903,0.16233l0.2447,0.06887l0.08731,0.15002l0.28899,0.02337l-0.08116,0.10945l-0.02828,0.13035l0.15495,0.05411l0.24718,-0.05287l0.14511,-0.18569l0.15249,-0.01967l0.14265,0.05411l-0.11068,0.18446l-0.1033,0.43531"></path><path d="M187.26947,219.44701l-0.12666,0.10698l-0.03074,-0.11682l0.08731,-0.05902l0.07009,0.06887"></path><path d="M186.32258,216.93841l0.20905,-0.02828l-0.13895,0.11436l-0.0701,-0.08609"></path></g><g><path d=""></path><path d=""></path><path d=""></path><path d=""></path><path d=""></path><path d=""></path><path d=""></path><path d=""></path><path d=""></path><path d=""></path><path d=""></path></g></g></g></svg>