<svg version="1.1" xmlns="http://www.w3.org/2000/svg" xmlns:xlink="http://www.w3.org/1999/xlink" width="16.41027" height="19.01048" viewBox="0,0,16.41027,19.01048"><g transform="translate(-321.46337,-28.73216)"><g fill="#ff0000" fill-rule="evenodd" stroke="#ffffff" stroke-width="0" stroke-linecap="round" stroke-linejoin="round" stroke-miterlimit="10"><path d="M337.87205,38.48088l-0.30828,-0.1112l-0.31791,-0.00014l-0.15552,-0.13899l-0.41012,0.00247l-0.09496,-0.09826l-0.18442,0.16198l0.22434,0.40985l0.29039,0.24194l0.05917,0.33539l0.1101,0.06827l0.02341,0.28764l0.20093,0.06124l0.08809,-0.03564l-0.00551,0.29438l0.07294,0.2136l-0.08395,0.07307l-0.02891,0.51251l-0.28213,0.62316l-0.06605,0.20396l0.01238,0.20466l-0.21744,-0.04762l-0.22845,-0.11023l-0.24496,0.11284l-0.17617,0.25158l0.04817,0.1174l-0.15414,0.09069l-0.07844,-0.12318l-0.40049,-0.03729l-0.25185,0.12097l-0.07018,0.25997l0.04954,0.109l-0.2133,0.10734l0.01377,0.27773l0.17478,0.05243l0.04679,0.13377l-0.08258,0.32603l0.03853,0.5037l-0.05229,0.17671l-0.18716,0.1529l-0.05918,0.40489l0.09634,0.24002l-0.17891,0.10171l-0.18167,0.00963l-0.23945,0.08368l-0.04542,0.17134l-0.1679,0.22653l-0.34818,0.09303l-0.1445,-0.1006l-0.08395,0.05396l-0.26149,-0.01748l-0.26837,0.26259l-0.47066,0.07115l-0.30276,-0.04954l-0.01652,0.13268l-0.19266,0.04885l0.03439,0.1163l-0.18442,0.16294l-0.1569,0.04639l-0.03441,0.10927l-0.14588,0.02684l-0.10734,-0.105l-0.15827,0.19446l-0.24634,-0.07692l-0.26697,0.3186l-0.26286,0.15373l-0.02065,0.11064l0.09083,0.20396l-0.03715,0.233l-0.37159,0.25048l-0.23258,-0.10391l-0.18716,0.03799l-0.18992,-0.12495l-0.13626,-0.00179l-0.05092,-0.17767l0.08809,-0.27993l0.07155,-0.07679l-0.15414,-0.3969l-0.20643,-0.14423l-0.15139,0.03083l-0.08532,0.14355l-0.24634,0.00413l-0.30966,0.2096l-0.29589,0.09772l-0.07432,-0.16157l-0.24772,0.04596l-0.25322,-0.09427l-0.11284,0.03262l-0.18028,-0.20382l-0.05643,-0.33221l0.09496,-0.10115l-0.02477,-0.26244l0.09772,-0.15069l0.24772,-0.12964l-0.2078,-0.15346l-0.16651,-0.18002l-0.01514,-0.19887l0.06743,-0.13983l-0.03853,-0.32673l0.12387,-0.04046l-0.04403,-0.20533l0.02891,-0.21346l0.20368,-0.18291l0.04954,-0.14616l0.15002,-0.07569l0.07569,-0.2136l-0.23121,-0.19611l-0.32067,0.12455l-0.19266,-0.12111l-0.22983,-0.28956l-0.13349,0.02779l-0.23534,0.16433l-0.28901,0.12414l-0.33305,-0.00593l-0.15,0.0973l-0.16102,-0.08753l-0.09083,-0.51142l0.12387,-0.34199l-0.02752,-0.10611l0.14863,-0.09936l0.0399,-0.1522l-0.11423,-0.26451l0.05367,-0.12124l-0.11834,-0.20836l-0.2133,0.02051l0.03439,-0.24718l-0.13899,-0.14795l0.17203,-0.16624l-0.06468,-0.20106l-0.13762,-0.07981l-0.05092,-0.12221l0.13626,-0.28474l-0.18716,-0.10419l-0.00827,-0.26643l0.0578,-0.06262l-0.12661,-0.28929l-0.13212,-0.0977l-0.02615,-0.15359l0.04542,-0.19061l-0.06607,-0.08876l0.04679,-0.16528l0.29039,0.07927l0.19405,-0.09332l0.07569,-0.17313l-0.06744,-0.11863l-0.06881,-0.55022l-0.10597,-0.29038l0.0867,-0.14795l-0.07294,-0.27373l0.01238,-0.15029l-0.10183,-0.16996l-0.18854,-0.19171l-0.26424,-0.09923l-0.03028,-0.13102l0.06881,-0.27193l-0.07431,-0.2235l0.0055,-0.45884l-0.09496,-0.06303l-0.2023,0.01128l-0.00138,-0.21276l0.31929,-0.51678l0.04129,-0.1913l-0.06607,-0.17505l0.08946,-0.16927l-0.16515,-0.32039l0.08395,-0.18909l0.15413,-0.04583l0.21469,-0.23601l-0.15139,-0.15703l0.0454,-0.24951l-0.30001,0.0885l-0.139,-0.07569l-0.22983,0.04708l-0.40736,-0.1573l-0.22295,0.18345l-0.13763,-0.15922l-0.24772,0.04596l-0.00688,-0.14863l-0.11011,-0.24496l-0.24359,-0.01294l-0.15964,0.16254l-0.21744,0.37819l-0.17615,0.11822l-0.05643,0.19239l-0.42389,0.05987l-0.18442,-0.03853l-0.17341,0.08409l-0.13487,-0.02671l0.00688,-0.17231l0.18304,-0.45581l-0.01651,-0.16323l0.06605,-0.22708l0.23121,-0.26244l0.03028,-0.27758l0.10186,-0.16433l0.25048,-0.14642l-0.13626,-0.10708v-0.33581l0.22983,-0.2718l0.03853,-0.20369l-0.14313,-0.04803l0.02341,-0.18042l0.13349,-0.13555l0.1968,-0.01472l0.22295,-0.09963l-0.02202,-0.27016l0.14726,-0.0889l0.08257,-0.16543l0.25323,-0.04747l0.26286,-0.17147l0.30002,0.12964l0.06468,-0.08918l0.34406,-0.01912l0.26286,-0.3208l0.27938,-0.26259l0.05506,-0.20727l0.10183,-0.11822l0.28213,0.28914l0.11698,0.19583l0.30278,0.19543l0.04542,0.11478l0.29865,0.33731l0.12937,-0.00358l0.07844,0.29231l0.13487,0.11023l0.02341,0.13268l0.17753,0.1569l0.25322,0.41025l0.25048,0.2721l0.74179,0.55971l0.14313,0.00867l0.07844,0.1873l0.46105,0.37571l0.7473,0.54527l0.85463,0.58366l0.17617,0.03564l0.0922,0.32411l0.44728,0.32177l1.02254,0.63912l0.11698,0.03138l0.10734,0.20575l0.11561,0.42801l0.23945,0.23891l0.39911,0.29988l0.74592,0.43517l0.69087,0.3669l0.85189,0.41726l0.67711,0.29741l0.03441,0.04652l0.85052,0.38287l0.64683,0.26176l0.52572,0.18938l-0.00137,0.06345"></path></g></g></svg>