<svg version="1.1" xmlns="http://www.w3.org/2000/svg" xmlns:xlink="http://www.w3.org/1999/xlink" width="13.14847" height="7.93529" viewBox="0,0,13.14847,7.93529"><g transform="translate(-290.53799,-53.83872)"><g fill="#ff0000" fill-rule="evenodd" stroke="none" stroke-width="0.4" stroke-linecap="round" stroke-linejoin="round" stroke-miterlimit="10"><path d="M303.68646,57.44259l-0.29451,0.2725l-0.04954,-0.049l-0.26561,0.26974l-0.13075,0.13308l-0.23121,-0.11698l-0.46241,0.33567l0.02891,0.13391l0.11835,0.10047l-0.15964,0.15413l-0.19956,0.39086l-0.19818,0.19266l-0.2078,-0.11423l-0.3124,-0.31653l-0.3881,-0.15827l-0.21607,0.03165l-0.06056,0.17478l-0.13075,0.10734l0.10459,0.21057l-0.15552,0.44452l-0.18442,0.13487l-0.00276,0.18718l-0.25874,0.289l-0.2078,0.05093l-0.2725,0.18442l0.12111,0.20368l-0.01238,0.22708l-0.08532,0.1156l0.07294,0.15828l-0.2078,0.09909l-0.50231,0.04954l-0.12938,0.20643l-0.26974,0.22845l-0.09909,-0.14313l-0.08532,-0.23945l-0.22983,0.03165l-0.20368,-0.02615l-0.10734,0.04954l-0.15139,-0.1734l-0.06743,-0.22983l-0.15964,-0.01651l-0.02615,-0.15139l-0.18579,-0.0922l-0.15413,0.1156l-0.139,-0.03853l-0.05504,-0.13488l-0.1679,-0.05367l-0.18028,0.01927l-0.36882,0.02202l-0.12111,-0.13625l-0.08946,0.04817l-0.24222,-0.3124l-0.15276,-0.03165l0.00688,-0.14038l-0.17617,-0.15139l-0.3303,-0.44177l-0.28764,-0.00551l-0.13625,-0.11423l-0.27387,0.03028l-0.28074,-0.3413l-0.1679,-0.10322l0.04954,-0.12387l-0.17478,-0.14038l-0.18992,0.03853l-0.14588,-0.19405l0.09084,-0.10047l0.02477,-0.22323l-0.08119,-0.05849l-0.04679,-0.25253l-0.18579,-0.13391l0.01927,-0.10873l-0.09634,-0.27386l0.14726,-0.28667l-0.2202,-0.2162l-0.51883,-0.10404l-0.1679,-0.19446l-0.00137,-0.15552l-0.08395,-0.18456l-0.18578,0.1657l-0.22157,0.05396l-0.14038,0.1657l-0.51058,-0.24428l-0.20369,-0.02931l-0.09634,-0.19858l-0.13763,-0.01802l0.06605,-0.24208l-0.14863,-0.25212l-0.20643,-0.08752l0.15,-0.06854l0.10872,-0.30676l0.01238,-0.44191l0.0523,-0.124l0.29865,0.04212l0.09496,-0.05079l0.28213,-0.01348l0.20643,0.07378l0.30552,-0.12951l0.18304,-0.16184l0.11835,-0.39814l-0.09222,-0.11147l0.29451,-0.08505l0.2835,0.10419l0.11147,0.24402l0.19266,-0.02822l0.11147,0.248l0.0922,0.04377l0.30276,0.35989l0.10873,0.03248l0.11973,0.23051l0.15,0.04267l0.29312,0.24566l0.2601,0.01018l0.06193,0.1657l0.13763,0.09826l-0.11147,0.10983l0.13487,0.22735l0.36057,0.09427l0.32341,0.13555l0.29726,0.03179l0.30552,0.29218l0.26149,0.1379l0.2546,0.03358l-0.01652,0.4148l0.20643,0.14739l0.33305,0.01555l0.47343,-0.09152l0.19955,-0.34681l0.04679,0.18304l0.12248,0.04046l0.25322,-0.11093l0.25736,0.0062l0.10734,-0.10446l0.07707,-0.19088l0.36195,-0.03221l0.34818,-0.21042l0.51333,0.00606l-0.01377,0.49462l-0.17754,0.11628l0.13487,0.13144l0.15552,0.28033l0.2133,0.09786l0.26424,0.00413l0.28488,0.14216l0.14313,0.01143l0.3303,0.16336l0.18028,0.1434l0.19819,0.04996l0.30001,0.15883l0.61104,-0.26561l0.51746,-0.30071l0.2491,-0.18455l0.02891,-0.12854l0.21056,-0.18992l0.0922,0.08162l0.07569,0.21207"></path></g></g></svg>