<svg version="1.1" xmlns="http://www.w3.org/2000/svg" xmlns:xlink="http://www.w3.org/1999/xlink" width="106.13279" height="63.36831" viewBox="0,0,106.13279,63.36831"><g transform="translate(-71.79296,-284.96972)"><g fill="none" stroke="#ffffff" stroke-width="0.2" stroke-linecap="round" stroke-linejoin="round" stroke-miterlimit="10"><g fill-rule="evenodd"><path d="M82.88669,343.17168l-0.02941,0.15781l0.0938,0.12246l0.15832,-0.11236l0.03761,-0.11615l0.14973,0.07197l0.05215,-0.02904l0.16651,0.13382l0.10542,-0.13508l0.14001,0.0707l0.01553,0.15023l0.25881,0.04167l0.17813,0.09974l0.0683,0.16539l0.20389,0.01262l-0.02966,0.2222l-0.10352,0.06944l-0.01554,0.14771l0.03775,0.0808l-0.24454,0.11867l-0.14241,0.25628l0.05542,0.17296l-0.03435,0.20326l-0.12372,-0.09216l-0.12536,0.00127l0.04078,0.14644l-0.04621,0.1881l-0.22763,-0.00127l-0.22435,-0.15653l-0.14518,-0.0606l-0.34844,0.03282l-0.20124,-0.07701l-0.20515,-0.01515l-0.23495,-0.04672l-0.18028,-0.12626l-0.09367,-0.10352l-0.1279,-0.04672l-0.05075,0.29415l-0.19984,-0.01263l-0.08584,-0.05934l-0.20401,0.0038l-0.23458,-0.34845l0.113,-0.07702l0.14203,0.08711l0.0654,-0.03914l-0.08888,-0.16159l0.03964,-0.11994l0.32143,0.09974l-0.07323,-0.13636l0.14102,0.01262l0.13483,-0.11489l0.04646,0.09721l0.11843,0.06187l0.02298,0.10984l0.1077,-0.01137l0.02639,-0.22346l-0.06944,-0.05934l0.11173,-0.14518l-0.08788,-0.08459l-0.0442,-0.12623l0.12562,-0.11869l-0.08799,-0.16411l0.08257,-0.03661l-0.01704,-0.13636l0.12549,-0.1818l0.1462,-0.04419l-0.00365,-0.12499l-0.10555,-0.05176l0.07804,-0.0909l0.14809,-0.0063l0.22435,0.20705l0.01742,0.09342l0.13547,0.06059"/><path d="M82.77433,348.19636l-0.09709,0.04167l-0.44073,-0.03661l-0.09291,-0.06312l0.01452,-0.13508l0.28343,-0.11867l0.1318,-0.00378l0.25161,0.07322l0.03573,0.10857l-0.08635,0.13382"/><path d="M85.64269,345.58303l-0.0428,0.10479l-0.16488,0.1212l-0.15744,-0.03661l-0.12827,-0.23735l-0.00202,-0.08332l0.16702,-0.0909l0.15149,0.09469l0.1015,-0.04167l0.07537,0.16919"/><path d="M85.29173,344.27004l0.00278,0.0808l-0.11375,0.04672l-0.13017,-0.10479l-0.25666,-0.02272l0.07815,-0.14518l-0.05619,-0.11362l0.12183,-0.04797l0.22624,0.11109l-0.03333,0.08207l0.16109,0.11362"/><path d="M86.43047,344.52253l-0.15566,0.00252l-0.05341,-0.16413l0.05795,-0.14898l0.07928,-0.06187l0.07638,0.05049l0.11489,0.2222l-0.11943,0.09974"/><path d="M81.86786,343.84079l0.15921,0.12499l-0.02425,0.11362l-0.22509,-0.18558l0.09013,-0.05302"/><path d="M84.4913,345.6209l0.14721,-0.11236l0.04746,0.07575l-0.16021,0.16034l-0.03446,-0.12372"/><path d="M81.79085,343.60093l-0.08257,0.20831l-0.08901,-0.07575l0.03736,-0.10099l0.1342,-0.03157"/><path d="M84.26154,345.86077l0.17309,-0.05429l0.01755,0.13129l-0.1294,0.0101l-0.06123,-0.08711"/></g><path d="M72.61133,342.28794l0.18533,0.0202l0.32837,0.14898l-0.06085,0.13887l-0.1712,0.09974l-0.11287,0.1212l-0.36422,-0.07196l-0.02374,0.04797l-0.17548,0.01515l-0.24391,-0.09342l-0.07828,0.00505l0.02248,-0.19569l0.15074,-0.05555l0.09569,-0.14643l0.15276,0.07196l0.18092,-0.04292l0.11425,-0.06313" fill-rule="evenodd"/><g fill-rule="evenodd"><g><path d="M89.52989,340.48259l-0.01464,0.15276l0.04519,0.09216l-0.07689,0.22598l-0.16311,0.16413l-0.11793,0.05176l-0.09696,0.12499l-0.01616,0.11867l0.06957,0.09847l-0.16627,0.22472l-0.14847,0.08838l-0.02954,0.24871l-0.26727,0.18431l-0.1169,0.20074l0.00682,0.16159l0.075,0.06313l-0.09481,0.22345l0.10226,0.24871l-0.06325,0.19064l-0.04205,0.54287l-0.17283,0.19948l-0.19051,-0.06059l-0.07398,-0.0808l-0.15516,0.00757l-0.02488,0.16034l-0.10693,0.1111l-0.14139,0.06439l-0.14392,0.00883l-0.25628,-0.18558l-0.06717,-0.08584l-0.23419,-0.09342l-0.17852,-0.15149l0.0611,-0.09974l0.13521,-0.04924l0.12892,-0.10479l0.04873,-0.09594l-0.01704,-0.11742l0.04229,-0.17928l-0.11212,-0.02399l-0.01943,-0.08459l-0.15301,-0.17928l-0.07536,0.04167l-0.1467,-0.02652l-0.19178,0.14139l-0.22524,-0.07702l0.02904,-0.13381l0.10542,-0.14898l0.17775,-0.06817l0.20149,0.13761l0.09885,-0.02652l-0.02222,-0.2285l0.09809,-0.05302l-0.01502,-0.11236l0.1308,-0.01892l0.13345,0.16919l-0.12372,0.22093l0.06753,0.07196l0.1621,-0.16538l0.33001,0.07954l0.17624,-0.12372l0.16337,-0.00378l0.2179,0.03535l0.04014,-0.05302l-0.06629,-0.13004l0.04482,-0.18685l0.06338,-0.11489l-0.00127,-0.10479l0.12094,-0.01262l0.2477,-0.29038l0.113,0.07323l0.09533,0.13508l0.06236,-0.2222l0.17574,-0.38254l-0.14228,-0.14643l0.18887,-0.15528l0.05417,-0.14771l0.1231,-0.19442l0.00732,-0.22094l0.05442,-0.02147l0.06993,0.06187l0.20314,0.03661"/><path d="M78.8038,324.65105l-0.12435,-0.01137l-0.1828,0.09469l-0.05037,-0.13129l0.20578,-0.10984l0.13093,0.03282l0.02082,0.12499"/><path d="M87.2107,344.32054l-0.1621,0.01515l-0.01174,-0.06817l0.20048,-0.0101l-0.02663,0.06313"/></g><g><path d="M101.44772,336.48052l0.037,0.14898l0.17018,0.07827l0.09835,0.23355l-0.01263,0.09847l0.09987,0.2285l0.24265,0.17548l-0.00997,0.26764l0.07373,0.10352l0.12487,0.02902l0.06401,0.07575l0.15113,0.01389l0.06578,-0.04672l0.24579,0.12751l0.02235,0.10731l0.14884,0.13004l0.29504,0.08584l0.09216,-0.01389l0.09533,0.08711l0.02879,0.11489l0.14115,0.15781l-0.0587,0.13256l-0.2169,-0.05681l-0.11615,0.03283l-0.20603,-0.03409l-0.1818,0.01135l-0.11464,0.05302l-0.13647,-0.04924l-0.33191,0.12751l-0.30464,0.01137l-0.06136,0.07827l-0.10757,0.02147l-0.25136,-0.16413l-0.22447,-0.08459l-0.1308,-0.08711l-0.09127,-0.24492l0.03914,-0.10984l0.14178,0.14391l0.20427,-0.00883l-0.02904,-0.1919l-0.15844,-0.23735l-0.12309,-0.02147l-0.04306,-0.14644l0.13042,-0.06439l0.18041,-0.19821l-0.04519,-0.32699l0.24391,-0.11995l-0.22269,-0.41914l-0.07702,-0.0707l-0.01351,-0.16034l-0.11437,-0.12877l0.10277,-0.06817l-0.0471,-0.11867l0.05264,0.08964l0.01301,0.08837l0.12487,0.11867"/><path d="M100.56524,337.16226l0.10491,0.26385l0.01061,0.15403l-0.06477,0.09848l-0.13634,0.03788l-0.35224,-0.10859l-0.01742,-0.0404l-0.05226,-0.03157l-0.03132,-0.05681l-0.04128,-0.0202l-0.05567,-0.09721l-0.03535,-0.01767l-0.00985,-0.04546l-0.03662,-0.04419l0.05694,-0.03787l-0.04065,-0.23355l0.08382,-0.1212l0.19719,0.05302l0.12739,0.0972l0.2929,0.15024"/><path d="M94.42705,339.85136l-0.22522,0.1717h-0.19278l-0.22119,-0.07196l-0.05782,-0.17675l0.02639,-0.12751l0.12145,-0.11236l0.18155,-0.05176l0.17535,-0.00505l0.19858,0.14771l-0.0063,0.22598"/><path d="M99.88982,337.36426l0.02436,0.00632l0.0548,0.07196l0.01161,0.0303l0.02967,0.01515l0.00682,0.03409l0.0846,0.06313l-0.01275,0.09342l-0.1597,0.06564l-0.18484,-0.05555l-0.11274,-0.14266l-0.03649,-0.2525l0.05934,-0.13508l0.09785,0.17043l0.12789,0.00128l0.00958,0.03409"/><path d="M101.00838,336.08915l-0.1544,-0.09469l-0.04721,-0.10731l0.10833,-0.0404l0.15416,0.08584l0.04835,0.10226l-0.1092,0.05429"/><path d="M101.04624,338.98024l-0.09936,-0.02904l-0.0471,-0.0909l0.04065,-0.13761l0.12815,0.05807l0.0794,0.11362l-0.10176,0.08584"/><path d="M93.89428,338.37424l0.1419,-0.06818l0.07675,0.10352l0.03017,0.12877l-0.24883,-0.16411"/></g><g><path d="M176.81673,322.80782l0.17044,0.07196l0.10226,0.202l-0.0745,0.19443v0.12119l-0.13004,0.17548l-0.29795,0.06944l-0.11109,-0.03788l-0.14139,-0.10731l0.04797,-0.11489v-0.23608l0.10226,-0.31184l0.19315,-0.03155l0.13887,0.00504"/><path d="M177.49845,321.63371l0.16413,-0.0101l0.16159,0.07322l-0.11362,0.27017l-0.22473,0.04924l-0.13886,-0.07322l-0.11615,-0.20831l0.0101,-0.17675l0.25755,0.07575"/></g><g><path d="M120.43927,315.5738l0.1467,0.2424l0.0851,-0.02652l0.09721,0.16918l0.14518,0.17043l-0.12297,0.09974l-0.1106,0.21715l-0.01818,0.23355l0.07815,0.06692l0.0428,0.12626h-0.17283l-0.07967,-0.08711l-0.16312,-0.07196l-0.05656,-0.13382l-0.10012,-0.10732l-0.06047,-0.17548l-0.2179,-0.16034l-0.26234,-0.04167l-0.10188,-0.06313l-0.09986,-0.19948l0.09847,-0.10099l0.1279,0.00127l0.16248,-0.05429l0.23595,-0.15276l0.21754,-0.0303l0.12903,0.07827"/><path d="M138.74527,294.57869l-0.03017,0.08711l-0.14052,-0.09721l-0.06805,-0.15276l0.06578,-0.10604l0.17296,0.26891"/></g><g><path d="M133.57286,315.05618l0.22017,0.23483l0.34225,0.25376l0.12599,0.16539l-0.07271,0.02904l-0.03219,0.17296l0.19051,0.29795l0.22358,0.14266l0.12361,0.12372l0.10188,0.28027l-0.02853,0.10099l-0.27913,-0.13508l-0.35122,-0.37622l-0.03132,-0.06817l-0.07941,-0.11867l-0.28785,0.16538l-0.06477,0.09595l0.16159,0.16287l-0.23014,0.0164l-0.02449,0.14013l-0.14014,-0.02652l-0.07247,0.15908l0.06919,0.07449l0.0029,0.15781l-0.08534,0.03031l-0.14455,0.13634l-0.10693,0.23861l-0.02739,0.31689l-0.27359,0.29922l0.06149,0.16792l0.09545,0.07827l-0.0038,0.20831l0.16034,0.01767l0.05694,-0.202l0.32748,-0.08584l0.00431,0.13381l0.12423,0.08207l-0.01729,0.15403l-0.22573,0.14139l-0.23974,0.28658l-0.10087,0.03283l-0.12068,-0.03409l-0.24631,0.21462l-0.10932,0.02147l-0.16248,0.26638l-0.11009,0.11741l-0.15363,0.04797l-0.08193,-0.03535l-0.25629,0.11994l-0.07916,0.09216l-0.3006,-0.13256l0.0303,-0.25503l0.06944,-0.16918l0.00316,-0.13256l-0.05707,-0.18053l-0.08459,0.02147l-0.06969,-0.14013l0.26638,-0.09721l-0.03964,-0.07197l-0.02209,-0.02272l-0.02879,-0.01515l-0.0192,-0.02778l-0.01452,0.00757l-0.06464,-0.00757l-0.12487,-0.22725l-0.00694,-0.14898l-0.0904,-0.14014l0.15643,-0.25376l0.10984,0.04544l0.09494,-0.11362l0.20124,-0.0707l-0.17637,-0.0808l0.0279,-0.14266l0.06956,-0.05555l0.10252,0.04545l0.00934,-0.17801l0.09128,0.00883l0.19846,-0.2525l0.16387,-0.02147l0.04886,0.04419l0.11817,-0.15024l0.09986,-0.01892l0.12322,-0.0909l0.12107,-0.28027l-0.17637,-0.18054l-0.04229,-0.11615l0.05644,-0.12371l-0.07398,-0.14898l-0.04306,-0.17673l-0.27079,-0.55045l-0.03826,-0.13256l0.01237,-0.41662l0.13269,0.01137l0.14266,0.24871l0.07096,0.00252l0.13685,0.05807l0.14834,-0.06186l0.1448,0.07575l0.12726,0.01767l0.0303,-0.08711l0.24416,-0.16413l0.04141,-0.09721l0.16097,-0.1111l0.18092,-0.00378l0.04432,0.18938l0.02752,0.05176l-0.04331,0.06564l-0.11678,-0.06944l-0.05593,0.12877"/><path d="M127.79827,318.33864l-0.11122,0.09216l-0.00947,0.11236l0.04519,0.26006l-0.23369,0.03535l0.04419,-0.1818l-0.08382,-0.05681l-0.02967,-0.15782l0.06993,-0.11236l0.04331,-0.28533l0.08066,-0.08207l0.03195,-0.14139l0.11905,0.05934l0.06956,0.09721l0.02234,0.18558l-0.05832,0.17548"/><path d="M127.19733,317.74527l-0.02032,-0.11615l-0.11539,0.03661l0.04141,0.14014l-0.13723,0.10731l-0.15023,-0.10352l-0.01086,-0.0909l0.07057,-0.11995l0.07613,0.0606l0.09898,-0.19948l0.01262,0.06187l0.1929,0.04292l0.07804,0.06187l-0.13662,0.11867"/><path d="M135.37568,315.83891l0.05303,-0.12751l0.18053,-0.1212l0.08711,0.28658l-0.17625,0.13004l-0.12991,0.00252l-0.01452,-0.17043"/><path d="M135.11309,316.21767l-0.03183,-0.14898l0.24567,-0.20453l0.05493,0.14266l0.05404,0.06817l-0.18786,0.16664l-0.13496,-0.02399"/><path d="M124.98546,316.05354l-0.11994,-0.19695l0.12385,-0.2285l-0.00643,0.14518l0.04318,0.12246l0.12991,0.0606l-0.17056,0.09721"/><path d="M133.91123,316.4449l-0.1751,-0.04167l0.04456,-0.09721l0.23495,-0.12877l0.08332,0.10604l0.01982,0.08584l-0.04595,0.03661l-0.16159,0.03914"/><path d="M126.51559,318.23762l0.03523,-0.13761l0.13142,-0.0707l0.1573,0.24113l-0.18079,0.07323l-0.03573,-0.08332l-0.10743,-0.02272"/><path d="M134.6182,318.59113l-0.00189,0.03409l-0.27383,0.21841l0.01464,-0.11994l0.26107,-0.13256"/><path d="M128.78175,317.93464l0.06993,-0.0846l0.03042,0.09216l-0.10441,0.21083l-0.08232,-0.01137l0.08635,-0.20705"/><path d="M134.9212,317.53065l0.14001,-0.2083l0.04659,0.06059l-0.02084,0.13887l-0.07814,0.08964l-0.08763,-0.0808"/><path d="M135.63198,315.47278l0.12802,-0.10732l0.0428,0.04167l-0.06704,0.22345l-0.06464,-0.01892l-0.03914,-0.13887"/><path d="M135.34918,316.47016l-0.1842,0.11742l-0.00189,-0.20705l0.18609,0.08963"/><path d="M131.56426,318.84363l-0.10086,0.0303l-0.12346,-0.01894l0.05517,-0.11867l0.07385,0.00757l0.05884,0.03662l0.03649,0.06312"/><path d="M126.78451,318.36388l0.06956,0.1212l-0.1039,0.04167l-0.04847,-0.09847l0.08281,-0.06439"/></g><g><path d="M133.53625,314.69005l-0.16097,0.11109l-0.04141,0.09721l-0.24416,0.16413l-0.0303,0.08711l-0.12726,-0.01767l-0.1448,-0.07575l-0.14834,0.06187l-0.13685,-0.05807l0.40133,-0.28405l0.1688,0.10731l0.18508,-0.07702l-0.00997,-0.13761l0.25768,-0.24871l0.1241,-0.05176l0.05529,-0.11489l0.11754,-0.01642l-0.05857,-0.21083l0.04596,-0.11615l0.14821,0.05176l0.14026,-0.14518l0.28671,0.08584l0.03472,-0.11236l0.17535,-0.07322l0.16426,-0.0038l0.02626,-0.15149l0.07361,0.00757l0.09316,-0.15024l0.09278,0.03914l0.3285,-0.22598l0.10415,-0.10099l0.09393,-0.2222l-0.00518,-0.14391l-0.227,-0.08333l-0.27068,-0.16918l-0.28848,-0.09216l-0.11261,0.11615l-0.21322,-0.07702l-0.00543,-0.11489l-0.17939,-0.30425l-0.01653,-0.2525l0.15138,-0.09342l-0.02423,-0.16538l-0.1866,-0.1717l-0.00328,-0.09216l0.07814,-0.17548l0.11741,-0.00757l0.18066,0.07196l0.09329,-0.04671l0.29655,-0.00757l0.17434,-0.07322l0.13168,0.01137l0.16462,0.13887l0.42672,0.13382l0.03093,0.06692l-0.1496,0.08837l-0.09545,0.30425l0.01566,0.11867l0.11375,0.05302l0.07739,0.17296l0.10592,-0.0101l0.13874,0.06059l0.18861,-0.13004l0.11943,0.03157l0.28925,-0.14139l0.09809,-0.00252l0.29239,-0.27396l0.25868,0.05302l-0.04986,-0.12246l-0.14065,-0.04797l-0.12511,-0.10479l0.2501,-0.3333l0.10416,0.00252l0.22333,-0.08079l0.1539,-0.14013l0.05631,-0.10479l-0.06641,-0.19948l0.20579,-0.09594l0.1289,-0.02525l0.09444,-0.16411l0.19935,-0.125l0.05606,-0.11236l0.27219,-0.28405l-0.0063,-0.10984l0.2751,-0.49237l0.00783,-0.15908l-0.11338,-0.1111l0.03195,-0.12751l0.1361,-0.10731l0.05681,0.12877l0.1077,0.10731l0.13457,0.06691l0.10869,0.10984l0.17562,0.00757l0.01262,0.21083l0.20237,0.26513l-0.03624,0.08837l0.04609,0.13129l-0.05656,0.04922l0.11501,0.15149l-0.04772,0.17171l-0.01439,0.18938l0.07286,0.10731l-0.0885,0.04672l-0.03598,0.16287l-0.13838,0.06564l-0.08523,0.24113l-0.10441,0.0606l0.03675,0.09342l-0.17827,0.14267l-0.00619,0.19948l-0.06781,0.09848l-0.11476,0.03914l-0.01566,0.12499l-0.09367,0.00757l-0.14733,0.29542l-0.07664,0.0808l-0.32357,0.0808l-0.38998,0.03157l-0.28532,-0.09594l-0.13458,0.01892l-0.0404,0.08837l0.09709,0.14139l0.0207,0.10984l-0.04216,0.10859l-0.3525,-0.0707l0.06312,0.14139l0.10137,0.0808l0.09974,0.20958l-0.08294,0.0808l0.02196,0.14898l-0.17322,0.00883l-0.1919,0.05934l-0.25251,0.2083l-0.17738,-0.14266l-0.15844,-0.07449l-0.16563,0.0606l-0.12158,-0.05807l-0.07247,0.04672l0.10579,0.15276l0.11249,0.23987l-0.1736,-0.0063l-0.17143,0.14518l-0.17133,-0.03661l-0.18798,0.05049l-0.07146,0.07449l0.12107,0.15149l-0.00619,0.14644l-0.12132,0.11362l-0.29668,0.09721l-0.17384,-0.08079l-0.09103,0.16539l-0.04532,0.21462l0.01844,0.06692l-0.25729,0.04545l-0.09619,-0.11362l-0.25161,-0.04924l-0.1433,-0.09469l-0.20023,-0.00378l-0.24164,0.12876l-0.09115,0.15654l-0.01653,0.02777l-0.04432,-0.18938l-0.18092,0.00378"/><path d="M135.55244,306.33241h-0.13812l-0.09847,0.07702l-0.0183,0.18431l-0.20579,0.024l-0.18382,0.08459l0.00822,-0.10984l0.15957,-0.16286l0.07021,-0.16413l0.10972,-0.07449l0.12536,-0.18054l0.21993,-0.16664l0.10555,-0.20074l0.16197,-0.01767l0.15452,-0.06187l-0.24708,0.28027l-0.03004,0.1881l-0.09393,0.24492l-0.09948,0.05555"/><path d="M133.3734,311.04147l-0.3107,-0.04419l-0.32231,0.0202l-0.11362,-0.07575l-0.03636,-0.11741l0.07258,-0.18558l0.07247,-0.03409l0.20098,0.05302l0.23281,-0.0063l0.16577,-0.06564l0.26664,0.21336l-0.00454,0.19821l-0.22371,0.04419"/><path d="M135.13203,307.97365l0.02171,0.14644l-0.16413,0.02399l-0.22043,-0.10226l0.00834,-0.1717l-0.1284,-0.07827l0.09773,-0.15781l0.22624,-0.1111l0.22384,0.14139l0.02298,0.15149l-0.08788,0.15781"/><path d="M136.07889,311.82421l-0.13004,-0.08206l-0.09556,0.08584l-0.1289,-0.06817l-0.03459,-0.13382l0.0808,-0.12499l0.24378,-0.08584l0.01918,0.12499l0.1294,0.1818l-0.08408,0.10226"/><path d="M126.18482,312.87208l-0.08648,-0.03535l-0.33506,0.05555l0.10655,-0.23483l0.18584,-0.13382l0.11096,0.02904l0.10264,0.19315l-0.08446,0.12626"/><path d="M135.90594,311.1551l-0.03977,-0.13004l0.10517,-0.08459l0.13963,0.05934l-0.05378,0.21211l-0.15125,-0.05682"/><path d="M133.98442,312.01358l-0.05694,-0.13634l0.14822,-0.07954l0.09936,0.0707l-0.04646,0.11615l-0.14417,0.02902"/><path d="M134.75959,307.05203l-0.1005,-0.08584l0.14468,-0.07827l-0.04419,0.16413"/></g><g><path d="M147.58391,294.21258l0.16135,0.02777l0.25528,-0.04293l-0.00923,0.09342l0.08964,0.19569l-0.13484,0.02147l-0.11653,0.11867l0.19757,0.10857l-0.06602,0.44944l0.05529,0.10984l0.13067,0.05429l0.06148,0.11236l0.14985,0.0303l0.14709,0.13004l0.06728,0.17423l0.2256,0.0808l0.06249,0.09974l-0.01262,0.16034l-0.05619,0.14898l-0.07878,0.07197l-0.08648,0.24366l0.0317,0.08711l-0.1736,0.10479l-0.11287,0.19569l-0.01729,0.1818l-0.12271,0.19064l-0.07222,0.03788l-0.20718,-0.03535l-0.16589,0.10604l-0.20705,0.03662l-0.13142,-0.07196l-0.06666,-0.11742l-0.00908,-0.20073l-0.0409,-0.11362l-0.23067,-0.17171l-0.0606,0.00505l-0.15744,-0.20326l0.23633,-0.19695l0.01579,-0.20705l0.06552,-0.21336l-0.11716,-0.09089l-0.01844,-0.16539l-0.07006,-0.04672l-0.02992,-0.46963l-0.10604,-0.09847l0.06148,-0.18558l0.10037,-0.18559l0.01578,-0.12626l-0.06173,-0.05302l0.0063,-0.16918l0.10278,-0.19821l0.12309,-0.04167l0.26412,0.07322l0.11274,-0.04545"/><path d="M144.7711,300.72699l-0.15782,0.15528l-0.17827,0.11236l-0.1246,0.02652l-0.18142,0.26259l-0.1837,0.21336l-0.15452,0.21841l-0.15781,0.04672l-0.21033,0.24618l-0.18217,0.1111l-0.30742,0.09847l-0.22649,-0.03535l-0.23646,-0.22978l-0.1443,-0.34971l0.04494,-0.25376l0.075,-0.15654l0.37002,0.08964l0.23154,-0.07827l0.17485,0.02399l0.27864,-0.13636l0.10239,0.06059l0.17309,-0.06312l0.25262,-0.202l0.07613,0.00378l0.22397,-0.09721l0.06982,-0.09721l0.12346,-0.05681l0.21727,0.02904l0.03157,0.05807"/><path d="M141.322,305.96629l0.18495,0.25755l-0.02084,0.10226l0.04975,0.23861l-0.19316,0.03283l-0.24139,-0.02777l-0.13255,-0.07197l-0.08673,-0.14139l-0.10402,-0.0101l0.02197,-0.17296l0.1563,0.05176l0.04697,-0.17421l0.0765,-0.08584l0.13546,-0.03157l0.10681,0.03283"/></g><g><path d="M157.20148,285.72868l0.07271,0.09848l0.16689,0.09216l0.04205,0.23861l-0.08686,0.10604l0.06666,0.1111l-0.12637,0.25628l-0.08673,0.0101l-0.10037,0.10099l-0.26462,0.0404l-0.09254,0.16791l-0.44111,-0.11867l-0.24189,0.11742l-0.04671,0.15276l-0.17006,0.18558l-0.01831,0.12626l-0.09721,0.01767l-0.2905,0.46838l-0.32383,0.03283l-0.05087,0.09216l0.15314,0.17043l-0.09053,0.08207l-0.14847,0.01767l-0.08926,0.06439l-0.23835,0.03535l-0.17297,0.12626l-0.30893,-0.11236l-0.09216,0.28785l0.06881,0.13129l-0.13988,0.09721l-0.07222,0.14898l-0.11994,0.03661l-0.32712,-0.0303l0.12499,0.11362l0.07903,-0.00757l0.25389,0.19315l0.11034,-0.0404l0.23823,0.15908l-0.02752,0.13004l-0.1717,0.05681l-0.02941,0.12499l-0.41044,0.13761l-0.18622,-0.05302l0.01402,0.32699l-0.07133,0.20957l-0.23039,-0.12371l-0.19354,-0.00883l-0.21942,-0.12372l-0.17372,0.09974l0.22333,0.15276l0.1842,0.2285l0.03105,0.15403l0.08306,0.05555l-0.01881,0.20831l-0.18773,-0.12626l-0.02045,-0.21211l-0.15138,0.05429l-0.28065,-0.06187l-0.12879,-0.10984l-0.30893,-0.14771l0.06692,-0.10984l-0.09254,-0.40778l-0.09418,-0.01389l-0.10214,0.12626l-0.13559,-0.01894l0.01666,-0.14643l0.1053,-0.08837l0.00051,-0.11236l0.09216,-0.01389l0.19089,-0.16159l-0.18887,-0.02525l-0.08472,0.07574l-0.09165,-0.22977l-0.16715,-0.00252l0.01389,0.18433l-0.10757,0.21462l-0.04772,-0.17675l-0.25326,-0.07827l-0.20843,0.05176l-0.13508,-0.13129l-0.11198,0.08584l-0.10402,-0.03157l-0.05289,-0.21967l-0.12953,-0.05427l-0.13636,0.08963l-0.02462,-0.13004l-0.08837,-0.02525l-0.02007,-0.14013l0.30603,0.01892l0.02474,-0.09469l0.13496,-0.09342l0.09191,0.09469l0.17018,0.00632l0.03422,0.08837l0.12499,0.04797l0.03724,-0.19315l0.15579,-0.10605l0.20364,0.09216l0.14822,0.02525l0.12031,-0.02904l0.11526,0.08711l0.0582,-0.21462l0.22977,-0.02525l-0.03951,-0.09469l-0.38228,0.03535l-0.03889,0.13636l-0.11362,-0.03283l-0.1457,-0.14391l-0.05037,0.03914l-0.29025,-0.29163l0.19859,-0.10857l0.08396,0.02652l0.13345,-0.06691l0.27864,-0.19315l0.32725,-0.01262l0.14543,-0.03914l0.10706,-0.08207l-0.02879,-0.09342l0.06754,-0.07954l0.12435,-0.03155l0.03435,-0.11236l0.12573,-0.15276l0.08041,-0.01135l0.08863,0.12371l0.17712,0.08711l0.26714,-0.27396l0.10339,0.07954l0.04961,0.18054l0.07297,-0.06059l0.01074,-0.19443l-0.08824,-0.09974l0.36954,-0.11489l0.09405,0.09847l0.1741,-0.01137l0.08131,-0.41661l0.14771,-0.00504l-0.00279,0.13761l0.13356,0.0265l0.09406,-0.09089l0.13748,0.0505l-0.01969,0.30425l0.05731,-0.01515l0.09936,-0.23355l0.12915,-0.06565l-0.08762,-0.10479l0.10112,-0.21715l-0.03232,-0.13004l0.06312,-0.13887l0.1799,-0.07322l0.07903,-0.15024l0.15061,0.0707l0.34971,-0.18053l0.08584,0.0164l0.0861,-0.11488l0.25742,-0.03661l0.07562,0.14013l-0.08244,0.0303l-0.12701,0.20453l0.01881,0.22599l-0.12599,-0.00128l0.0063,0.09974l-0.09293,0.21588l0.15592,-0.02147l0.01351,-0.23735l0.20944,-0.10605l-0.05606,-0.10479l0.12361,-0.04292l0.05239,0.19948l-0.10972,0.08459l-0.00214,0.16413l0.1111,0.05302l0.1342,-0.03157l0.04229,-0.09721l0.20023,-0.12246l-0.13407,-0.23861l0.12335,-0.15528l0.03283,0.1881l0.16146,-0.16413l-0.02196,-0.14644l-0.19089,-0.19315l-0.01262,-0.10479l-0.11893,-0.12246l0.14077,-0.03915l0.24746,-0.38127l0.16563,-0.04924l0.04583,0.28405l-0.04305,0.10605l0.10099,0.2689"/><path d="M151.07844,290.18525l-0.01653,0.12752l0.18987,0.12372l0.23218,0.05176l0.12751,-0.10352l-0.02349,-0.19064l0.11362,0.02399l0.11047,0.09594l0.04432,0.18306l-0.30616,-0.02904l-0.00214,0.15528l-0.10466,0.06817l0.0471,0.13761l0.26867,-0.10984l0.04746,0.07702l0.00352,0.21715l0.09431,-0.00252l0.04621,-0.10352l0.10466,0.20074l0.20528,-0.09721l0.13445,0.13004l0.29783,-0.10984l0.13534,0.19063l-0.12965,0.22345l-0.01717,0.12247l-0.31108,0.07827l0.06653,-0.23356l-0.00352,-0.13636l-0.21121,0.14391l-0.15579,-0.05555l-0.08523,0.10099l0.04242,0.11236l-0.05769,0.18431l-0.18635,-0.10352l-0.09444,-0.11867l0.04912,-0.06944l-0.04697,-0.10857l-0.03358,-0.22977l-0.22888,0.09595l-0.14835,0.15654l-0.09859,-0.30805l-0.06868,-0.02652l-0.00214,-0.31561l0.05517,-0.06187l-0.12663,-0.10857l-0.13584,0.01892l-0.04659,-0.13761l-0.09013,-0.02904l-0.04001,-0.2424l-0.08724,-0.06439l-0.03195,-0.13508h0.18078l0.07511,-0.12877l0.17005,-0.06564l0.03573,0.12499l-0.08913,0.13004l0.10213,0.15023"/><path d="M161.38916,287.62241l-0.08964,0.04797l-0.06692,0.15529l-0.18685,0.08711l-0.04216,0.18054l-0.08661,0.08458l-0.18798,0.36234l-0.06085,0.05934l-0.23963,0.11615l-0.1294,0.01892l-0.07587,-0.05176l-0.09633,-0.20326l-0.13105,0.02399l-0.05669,-0.08584l-0.02614,-0.21967l0.12524,-0.17171l0.33204,-0.06439l0.2294,-0.18054l0.08547,-0.02525l0.18078,-0.18938l0.06868,-0.11362l0.10859,-0.06312l0.07575,-0.10859l0.13129,-0.0404l0.18559,0.14898l0.01767,0.09342l-0.06439,0.13887"/><path d="M151.36251,292.21785l0.15151,-0.1212l0.08257,0.13004l0.14379,-0.08711l0.05113,0.15023l-0.00442,0.12372l-0.15314,0.17423l-0.04986,-0.12877l-0.34819,-0.15908l-0.17928,0.03409l-0.0755,-0.16286l0.10568,-0.2967l0.15175,0.15023l0.12397,0.19315"/><path d="M150.47373,292.05372l0.05947,0.07575l-0.06616,0.09848l0.00859,0.12877l-0.22498,0.10731l-0.04721,-0.13382l0.06641,-0.18306l0.01655,-0.16159l0.19732,-0.2929l0.08041,-0.01389l-0.03459,0.09469l0.02866,0.19443l-0.08446,0.08584"/><path d="M151.17188,288.5819l-0.16752,0.04167l-0.36574,-0.21715l0.07474,-0.11994l0.35489,0.10604l0.10365,0.18938"/></g></g><path d="M141.48622,306.31811l0.04975,0.23862l-0.19316,0.03283l-0.24139,-0.02777l-0.13256,-0.07196l-0.08673,-0.14139l-0.10403,-0.0101l0.02199,-0.17297l0.1563,0.05176l0.04697,-0.17424l0.0765,-0.08585l0.13547,-0.03155l0.10681,0.03283l0.18497,0.25756l-0.02083,0.10226" fill-rule="nonzero"/><path d="M144.6135,300.87659l-0.17827,0.11237l-0.12461,0.02652l-0.18143,0.2626l-0.1837,0.21336l-0.15453,0.21841l-0.15782,0.04672l-0.21033,0.24619l-0.18219,0.1111l-0.30744,0.09847l-0.22649,-0.03535l-0.23647,-0.22979l-0.14432,-0.34972l0.04494,-0.25378l0.075,-0.15656l0.37006,0.08964l0.23154,-0.07828l0.17486,0.024l0.27864,-0.13636l0.10239,0.0606l0.17309,-0.06312l0.25264,-0.20201l0.07613,0.0038l0.22397,-0.09722l0.06982,-0.09721l0.12349,-0.05681l0.21728,0.02905l0.03155,0.05807l-0.15782,0.15529" fill-rule="nonzero"/><path d="M147.74586,294.23566l0.25529,-0.04292l-0.00923,0.09342l0.08963,0.19569l-0.13483,0.02147l-0.11653,0.11867l0.19757,0.10859l-0.02234,0.25124l-0.04369,0.19822l0.0553,0.10984l0.13067,0.05429l0.06149,0.11237l0.14986,0.0303l0.14709,0.13004l0.0673,0.17424l0.09961,0.06565l0.12599,0.01515l0.06249,0.09974l-0.01262,0.16034l-0.05619,0.14898l-0.07878,0.07197l-0.08649,0.24366l0.03168,0.08711l-0.1736,0.10479l-0.11287,0.19569l-0.01729,0.18181l-0.12272,0.19064l-0.07222,0.03787l-0.20718,-0.03535l-0.16589,0.10605l-0.20706,0.03662l-0.13144,-0.07196l-0.06666,-0.11742l-0.00908,-0.20074l-0.0409,-0.11362l-0.23067,-0.17171l-0.0606,0.00504l-0.15744,-0.20327l0.23634,-0.19695l0.01579,-0.20706l0.06552,-0.21336l-0.11717,-0.0909l-0.01844,-0.16539l-0.07006,-0.04672l-0.03219,-0.29038l0.00227,-0.17928l-0.10605,-0.09847l0.06149,-0.18559l0.10038,-0.18559l0.01578,-0.12626l-0.06173,-0.05302l0.00632,-0.16919l0.10278,-0.19822l0.1231,-0.04167l0.26412,0.07322l0.11274,-0.04545l0.16136,0.02777" fill-rule="nonzero"/><path d="M151.51452,292.10197l0.08257,0.13004l0.14379,-0.08711l0.05113,0.15024l-0.00442,0.12372l-0.15315,0.17424l-0.04986,-0.12879l-0.3482,-0.15908l-0.17928,0.0341l-0.0755,-0.16287l0.07928,-0.16034l0.02639,-0.13636l0.15175,0.15024l0.12397,0.19317l0.15151,-0.1212" fill-rule="nonzero"/><path d="M150.4742,292.05147l0.05947,0.07576l-0.06616,0.09847l0.00859,0.12877l-0.22499,0.10732l-0.04723,-0.13382l0.06641,-0.18307l0.01655,-0.16161l0.19734,-0.29291l0.08041,-0.01389l-0.03459,0.09469l0.02866,0.19443l-0.08447,0.08584" fill-rule="nonzero"/><path d="M151.07896,290.18293l-0.01655,0.12752l0.18989,0.12372l0.23219,0.05176l0.12752,-0.10352l-0.02349,-0.19064l0.11364,0.024l0.11047,0.09595l0.04432,0.18307l-0.30617,-0.02905l-0.00214,0.15529l-0.10467,0.06817l0.0471,0.13762l0.26867,-0.10984l0.04747,0.07702l0.00352,0.21715l0.09432,-0.00252l0.04621,-0.10352l0.10467,0.20074l0.20528,-0.09721l0.13446,0.13004l0.29783,-0.10984l0.13535,0.19064l-0.12966,0.22346l-0.01717,0.12247l-0.31109,0.07827l0.06653,-0.23356l-0.00354,-0.13636l-0.21122,0.14392l-0.15579,-0.05555l-0.08523,0.101l0.04241,0.11237l-0.05769,0.18433l-0.18635,-0.10352l-0.09444,-0.11869l0.04912,-0.06944l-0.04697,-0.10859l-0.03358,-0.22978l-0.2289,0.09595l-0.14835,0.15654l-0.11097,0.01515l0.05366,-0.15276l-0.04129,-0.17044l-0.06868,-0.02652l-0.00214,-0.31563l0.05517,-0.06187l-0.12663,-0.10859l-0.13585,0.01894l-0.04659,-0.13762l-0.09015,-0.02904l-0.04001,-0.24241l-0.08725,-0.0644l-0.03195,-0.13509h0.18079l0.07513,-0.12879l0.17006,-0.06565l0.03573,0.12499l-0.08913,0.13004l0.10213,0.15024" fill-rule="nonzero"/><path d="M151.00446,288.61739l-0.36576,-0.21715l0.07475,-0.11994l0.3549,0.10605l0.10365,0.18939l-0.16753,0.04167" fill-rule="nonzero"/><path d="M157.27418,285.82718l0.16691,0.09216l0.04205,0.23862l-0.08686,0.10605l0.06666,0.1111l-0.12639,0.25631l-0.08673,0.0101l-0.10038,0.101l-0.26463,0.0404l-0.09255,0.16792l-0.14644,0.00757l-0.03043,-0.05555l-0.26425,-0.0707l-0.2419,0.11742l-0.04672,0.15276l-0.17006,0.18559l-0.01831,0.12626l-0.09722,0.01767l-0.11249,0.15908l-0.17802,0.30932l-0.32384,0.03283l-0.05088,0.09216l0.15315,0.17044l-0.09053,0.08207l-0.14848,0.01767l-0.08926,0.0644l-0.23836,0.03535l-0.17297,0.12626l-0.1563,-0.07827l-0.15264,-0.0341l-0.09216,0.28786l0.06881,0.13131l-0.13989,0.09721l-0.07222,0.14898l-0.11994,0.03661l-0.32713,-0.0303l0.12499,0.11364l0.07904,-0.00757l0.25391,0.19316l0.11035,-0.0404l0.23825,0.15909l-0.02752,0.13004l-0.17171,0.05682l-0.02943,0.12499l-0.41045,0.13762l-0.18622,-0.05302l0.01402,0.327l-0.07133,0.20959l-0.23042,-0.12372l-0.19354,-0.00883l-0.21943,-0.12372l-0.17372,0.09974l0.22334,0.15276l0.1842,0.22851l0.03106,0.15403l0.08307,0.05555l-0.01882,0.20831l-0.18773,-0.12626l-0.02045,-0.21211l-0.15138,0.05429l-0.28065,-0.06187l-0.12879,-0.10984l-0.30895,-0.14772l0.06692,-0.10984l-0.09255,-0.40779l-0.09418,-0.01389l-0.10214,0.12626l-0.13559,-0.01894l0.01666,-0.14646l0.1053,-0.08837l0.00051,-0.11237l0.09216,-0.01389l0.19089,-0.16161l-0.18888,-0.02525l-0.08472,0.07576l-0.09166,-0.22979l-0.16717,-0.00252l0.01389,0.18433l-0.10757,0.21463l-0.04772,-0.17675l-0.25327,-0.07827l-0.20844,0.05176l-0.13509,-0.13131l-0.11198,0.08585l-0.10403,-0.03155l-0.0529,-0.21968l-0.12954,-0.0543l-0.13636,0.08964l-0.02461,-0.13004l-0.08837,-0.02525l-0.02007,-0.14014l0.30604,0.01894l0.02474,-0.09469l0.13496,-0.09342l0.09192,0.09469l0.17019,0.00632l0.03422,0.08837l0.12499,0.04797l0.03724,-0.19316l0.1558,-0.10605l0.20364,0.09216l0.14823,0.02525l0.12032,-0.02905l0.11527,0.08712l0.0582,-0.21463l0.22979,-0.02525l-0.03951,-0.09469l-0.3823,0.03535l-0.03888,0.13637l-0.11362,-0.03283l-0.1457,-0.14392l-0.05037,0.03915l-0.29026,-0.29165l0.19859,-0.10859l0.08396,0.02652l0.13345,-0.06692l0.27864,-0.19316l0.32725,-0.01263l0.14543,-0.03915l0.10707,-0.08207l-0.02879,-0.09342l0.06753,-0.07954l0.12435,-0.03155l0.03435,-0.11237l0.12575,-0.15277l0.08042,-0.01137l0.08862,0.12372l0.17714,0.08712l0.26715,-0.27396l0.1034,0.07954l0.04961,0.18053l0.07297,-0.0606l0.01074,-0.19444l-0.08825,-0.09974l0.36954,-0.11489l0.09405,0.09847l0.1741,-0.01137l0.0813,-0.41664l0.14772,-0.00505l-0.00278,0.13762l0.13356,0.02652l0.09405,-0.0909l0.13749,0.0505l-0.01969,0.30428l0.05731,-0.01515l0.09936,-0.23356l0.12915,-0.06565l-0.08762,-0.10479l0.10112,-0.21715l-0.03232,-0.13004l0.06312,-0.13887l0.17991,-0.07323l0.07903,-0.15024l0.15062,0.0707l0.34972,-0.18054l0.08585,0.01642l0.0861,-0.11489l0.25742,-0.03661l0.07563,0.14014l-0.08244,0.0303l-0.12701,0.20453l0.01881,0.22599l-0.12599,-0.00127l0.0063,0.09974l-0.09293,0.21589l0.15592,-0.02147l0.01351,-0.23735l0.20945,-0.10605l-0.05606,-0.10479l0.12361,-0.04292l0.05239,0.19948l-0.10972,0.08459l-0.00214,0.16413l0.1111,0.05302l0.1342,-0.03157l0.04229,-0.09722l0.20025,-0.12247l-0.13407,-0.23862l0.04697,-0.11867l0.07639,-0.03661l0.03283,0.18811l0.16148,-0.16413l-0.02199,-0.14644l-0.19089,-0.19317l-0.01262,-0.10479l-0.11893,-0.12247l0.14077,-0.03915l0.24746,-0.38128l0.16564,-0.04924l0.04583,0.28406l-0.04305,0.10605l0.101,0.26891l0.07271,0.09847" fill-rule="nonzero"/><path d="M161.30167,287.67048l-0.06692,0.15529l-0.18686,0.08712l-0.04218,0.18054l-0.08661,0.08459l-0.18799,0.36234l-0.06085,0.05935l-0.23963,0.11615l-0.12941,0.01894l-0.07587,-0.05176l-0.09634,-0.20327l-0.13105,0.024l-0.05669,-0.08585l-0.02614,-0.21968l0.12524,-0.17171l0.33205,-0.0644l0.2294,-0.18054l0.08547,-0.02525l0.18079,-0.18939l0.06868,-0.11362l0.10859,-0.06312l0.07576,-0.10859l0.13131,-0.0404l0.18559,0.14899l0.01767,0.09342l-0.0644,0.13887l-0.08964,0.04797" fill-rule="nonzero"/><path d="M131.46294,318.8677l-0.12349,-0.01894l0.05517,-0.11869l0.07385,0.00757l0.05884,0.03661l0.03649,0.06313l-0.10087,0.0303" fill-rule="nonzero"/><path d="M134.6155,318.62782l-0.27383,0.21841l0.01464,-0.11994l0.2611,-0.13256l-0.0019,0.0341" fill-rule="nonzero"/><path d="M126.85471,318.48895l-0.1039,0.04167l-0.04848,-0.09848l0.08281,-0.0644l0.06957,0.1212" fill-rule="nonzero"/><path d="M127.79782,318.33744l-0.11122,0.09217l-0.00947,0.11237l0.0452,0.26008l-0.23369,0.03535l0.0442,-0.18181l-0.08383,-0.05681l-0.02967,-0.15782l0.06993,-0.11237l0.04331,-0.28533l0.08068,-0.08207l0.03195,-0.14141l0.11905,0.05935l0.06956,0.09721l0.02235,0.18559l-0.05833,0.17549" fill-rule="nonzero"/><path d="M126.55044,318.09756l0.13144,-0.0707l0.15731,0.24114l-0.1808,0.07323l-0.03573,-0.08332l-0.10744,-0.02273l0.03523,-0.13762" fill-rule="nonzero"/><path d="M128.85204,317.84505l0.03043,0.09216l-0.10441,0.21084l-0.08232,-0.01137l0.08635,-0.20706l0.06993,-0.08459" fill-rule="nonzero"/><path d="M127.19685,317.74405l-0.02032,-0.11615l-0.1154,0.03661l0.04141,0.14014l-0.13724,0.10732l-0.15024,-0.10352l-0.01086,-0.0909l0.07057,-0.11994l0.07613,0.0606l0.09898,-0.19949l0.01263,0.06187l0.19291,0.04292l0.07804,0.06187l-0.13662,0.11867" fill-rule="nonzero"/><path d="M133.7355,316.39314l0.04456,-0.09721l0.23496,-0.12879l0.08332,0.10605l0.01982,0.08585l-0.04595,0.03662l-0.16161,0.03915l-0.17511,-0.04167" fill-rule="nonzero"/><path d="M120.91197,316.12801l-0.12297,0.09974l-0.11061,0.21715l-0.01819,0.23356l0.07815,0.06692l0.0428,0.12626h-0.17284l-0.07967,-0.08712l-0.16312,-0.07196l-0.05657,-0.13382l-0.10012,-0.10732l0.02285,-0.06187l-0.08332,-0.11364l-0.2179,-0.16034l-0.26236,-0.04167l-0.10188,-0.06312l-0.09987,-0.19949l0.09847,-0.101l0.1279,0.00127l0.16248,-0.0543l0.23596,-0.15276l0.21754,-0.0303l0.12903,0.07827l0.1467,0.24241l0.0851,-0.02652l0.09722,0.16919l0.14519,0.17044" fill-rule="nonzero"/><path d="M124.9849,316.05225l-0.11995,-0.19695l0.12385,-0.22851l-0.00643,0.14519l0.04318,0.12247l0.12991,0.0606l-0.17057,0.09721" fill-rule="nonzero"/><path d="M125.76261,312.89593l0.10655,-0.23484l0.18584,-0.13382l0.11097,0.02905l0.10264,0.19316l-0.08446,0.12626l-0.08649,-0.03535l-0.33508,0.05555" fill-rule="nonzero"/><path d="M134.07639,311.79751l0.09937,0.0707l-0.04646,0.11615l-0.14417,0.02905l-0.05694,-0.13636l0.14821,-0.07954" fill-rule="nonzero"/><path d="M133.06259,311.00211l-0.32233,0.0202l-0.11364,-0.07576l-0.03636,-0.11742l0.0726,-0.18559l0.07247,-0.0341l0.20099,0.05302l0.23282,-0.0063l0.16577,-0.06565l0.26666,0.21336l-0.00454,0.19822l-0.22372,0.0442l-0.3107,-0.0442" fill-rule="nonzero"/><path d="M134.98415,317.44104l-0.01212,-0.13131l0.08901,0.00127l0.04659,0.0606l-0.02083,0.13887l-0.07815,0.08964l-0.08763,-0.0808l0.06312,-0.07827" fill-rule="nonzero"/><path d="M135.1647,316.5825l-0.00189,-0.20706l0.1861,0.08964l-0.1842,0.11742" fill-rule="nonzero"/><path d="M135.11293,316.21638l-0.03182,-0.14899l0.24569,-0.20453l0.05493,0.14267l0.05404,0.06817l-0.18786,0.16666l-0.13496,-0.024" fill-rule="nonzero"/><path d="M135.42856,315.71136l0.12753,-0.04924l0.05302,-0.07197l0.08712,0.2866l-0.17625,0.13004l-0.12991,0.00252l-0.01451,-0.17044l0.05302,-0.12752" fill-rule="nonzero"/><path d="M135.75937,315.35785l0.0428,0.04167l-0.06704,0.22346l-0.06465,-0.01894l-0.03915,-0.13887l0.12802,-0.10732" fill-rule="nonzero"/><path d="M139.41942,309.07044l0.17562,0.00757l0.01262,0.21084l0.20239,0.26514l-0.03624,0.08837l0.04609,0.13132l-0.05657,0.04924l0.11502,0.15151l-0.04772,0.17171l-0.01439,0.18938l0.07286,0.10732l-0.08851,0.04672l-0.03598,0.16287l-0.13838,0.06565l-0.08523,0.24116l-0.10442,0.0606l0.03675,0.09342l-0.17828,0.14267l-0.00619,0.19949l-0.06781,0.09848l-0.11476,0.03915l-0.01566,0.12499l-0.09367,0.00757l-0.14734,0.29543l-0.07663,0.0808l-0.32359,0.0808l-0.38999,0.03157l-0.28533,-0.09595l-0.13458,0.01894l-0.0404,0.08837l0.09709,0.14139l0.0207,0.10984l-0.04218,0.10857l-0.35251,-0.0707l0.06312,0.14139l0.10138,0.0808l0.09974,0.20959l-0.08294,0.0808l0.02197,0.14898l-0.17322,0.00883l-0.19191,0.05935l-0.25251,0.20832l-0.17738,-0.14267l-0.15845,-0.07449l-0.16564,0.0606l-0.12158,-0.05807l-0.07247,0.04671l0.10579,0.15277l0.11249,0.23988l-0.1736,-0.00632l-0.17145,0.14519l-0.17133,-0.03662l-0.18798,0.0505l-0.07146,0.07449l0.12107,0.15151l-0.00619,0.14646l-0.12133,0.11364l-0.2967,0.09721l-0.17385,-0.0808l-0.09103,0.16539l-0.04532,0.21463l0.01843,0.06691l-0.25731,0.04546l-0.0962,-0.11364l-0.25162,-0.04924l-0.1433,-0.09469l-0.13521,0.03283l-0.06503,-0.03662l-0.24164,0.12879l-0.04975,0.18559l-0.07374,0.11615l-0.11678,-0.06945l-0.05594,0.12879l0.22019,0.23483l0.34227,0.25378l0.12599,0.16539l-0.07273,0.02905l-0.03219,0.17297l0.19051,0.29796l0.22359,0.14267l0.12361,0.12372l0.10189,0.28028l-0.02853,0.101l-0.27914,-0.13509l-0.35124,-0.37623l-0.03132,-0.06817l-0.07942,-0.11867l-0.0789,0.02272l-0.20895,0.14267l-0.06477,0.09595l0.16161,0.16287l-0.23017,0.0164l-0.02449,0.14014l-0.14014,-0.02652l-0.07247,0.15909l0.06919,0.07449l0.0029,0.15782l-0.08534,0.0303l-0.14456,0.13636l-0.10694,0.23861l-0.0274,0.3169l-0.27359,0.29923l0.06148,0.16792l0.09545,0.07827l-0.00378,0.20832l0.16035,0.01767l0.05695,-0.20201l0.32749,-0.08585l0.00431,0.13384l0.12423,0.08206l-0.01729,0.15403l-0.22575,0.14141l-0.23975,0.2866l-0.10087,0.03283l-0.1207,-0.0341l-0.24631,0.21463l-0.10934,0.02147l-0.16248,0.2664l-0.11009,0.11742l-0.15366,0.04797l-0.08193,-0.03535l-0.25631,0.11995l-0.07916,0.09216l-0.30061,-0.13256l0.0303,-0.25504l0.06945,-0.16919l0.00316,-0.13256l-0.05707,-0.18054l-0.08459,0.02147l-0.0697,-0.14014l0.2664,-0.09721l-0.03964,-0.07196l-0.02209,-0.02272l-0.02879,-0.01515l-0.01918,-0.02777l-0.01452,0.00757l-0.06465,-0.00757l-0.12487,-0.22726l-0.00694,-0.14898l-0.0904,-0.14014l0.15643,-0.25378l0.10984,0.04545l0.09495,-0.11362l0.20125,-0.0707l-0.17638,-0.0808l0.0279,-0.14267l0.06957,-0.05555l0.10252,0.04546l0.00934,-0.17802l0.09128,0.00883l0.19847,-0.25251l0.16388,-0.02147l0.04886,0.0442l0.11818,-0.15024l0.09987,-0.01894l0.12323,-0.0909l0.12107,-0.28027l-0.17637,-0.18054l-0.04229,-0.11615l0.05644,-0.12372l-0.07398,-0.14899l-0.04305,-0.17675l-0.27082,-0.55046l-0.03825,-0.13256l0.01237,-0.41664l0.1327,0.01137l0.14267,0.24871l0.0967,-0.02272l0.3756,-0.25881l0.1688,0.10732l0.18508,-0.07702l-0.00997,-0.13762l0.25768,-0.24871l0.1241,-0.05176l0.0553,-0.11488l0.11754,-0.01642l-0.05859,-0.21084l0.04596,-0.11615l0.14823,0.05176l0.14027,-0.14519l0.28671,0.08585l0.03472,-0.11237l0.17536,-0.07322l0.16427,-0.00378l0.02626,-0.15151l0.07361,0.00757l0.09317,-0.15024l0.0928,0.03915l0.32851,-0.22599l0.10416,-0.101l0.09393,-0.2222l-0.00518,-0.14392l-0.227,-0.08333l-0.27069,-0.16919l-0.12461,-0.01767l-0.16388,-0.07449l-0.11262,0.11615l-0.21323,-0.07702l-0.00543,-0.11489l-0.17939,-0.30428l-0.01653,-0.25251l0.15138,-0.09342l-0.02425,-0.16539l-0.1866,-0.17171l-0.00329,-0.09216l0.07817,-0.17549l0.11742,-0.00757l0.18067,0.07196l0.0933,-0.04672l0.29657,-0.00757l0.17437,-0.07322l0.13168,0.01137l0.16462,0.13887l0.42675,0.13382l0.03093,0.06692l-0.14961,0.08837l-0.09545,0.30428l0.01566,0.11867l0.11375,0.05302l0.07739,0.17297l0.10592,-0.0101l0.13874,0.0606l0.18863,-0.13004l0.11943,0.03157l0.28925,-0.14139l0.09809,-0.00252l0.29239,-0.27396l0.25871,0.05302l-0.04986,-0.12247l-0.14065,-0.04797l-0.12512,-0.10479l0.25011,-0.33331l0.10415,0.00252l0.22334,-0.0808l0.15391,-0.14014l0.05632,-0.10479l-0.06642,-0.19949l0.20579,-0.09595l0.1289,-0.02525l0.09444,-0.16413l0.19935,-0.12499l0.05606,-0.11236l0.27221,-0.28408l-0.00632,-0.10984l0.27511,-0.49239l0.00783,-0.15908l-0.11338,-0.1111l0.03195,-0.12752l0.13976,-0.10605l0.05315,0.12752l0.1077,0.10732l0.13458,0.06691l0.10872,0.10984" fill-rule="nonzero"/><path d="M135.85278,311.82276l-0.1289,-0.06817l-0.03459,-0.13382l0.0808,-0.12499l0.24379,-0.08585l0.01918,0.12499l0.12941,0.1818l-0.08408,0.10227l-0.13004,-0.08207l-0.09558,0.08585" fill-rule="nonzero"/><path d="M135.86541,311.01474l0.10517,-0.08459l0.13964,0.05935l-0.00429,0.14519l-0.0495,0.06691l-0.15126,-0.05682l-0.03977,-0.13004" fill-rule="nonzero"/><path d="M134.98922,308.14878l-0.22043,-0.10226l0.00834,-0.17171l-0.1284,-0.07827l0.09773,-0.15782l0.22625,-0.1111l0.22385,0.14139l0.02298,0.15151l-0.08788,0.15782l0.02171,0.14646l-0.16413,0.02399" fill-rule="nonzero"/><path d="M134.65841,306.962l0.14469,-0.07827l-0.0442,0.16413l-0.1005,-0.08585" fill-rule="nonzero"/><path d="M135.41343,306.33073l-0.09847,0.07702l-0.01831,0.18433l-0.20579,0.024l-0.18382,0.08459l0.00821,-0.10984l0.15958,-0.16287l0.07021,-0.16413l0.10972,-0.07449l0.12537,-0.18054l0.21994,-0.16666l0.10555,-0.20074l0.16198,-0.01767l0.15453,-0.06187l-0.24708,0.28028l-0.03005,0.18811l-0.09394,0.24494l-0.09948,0.05555h-0.13812" fill-rule="nonzero"/><path d="M138.57227,294.29879l0.17297,0.26891l-0.03017,0.08711l-0.14052,-0.09721l-0.06805,-0.15277l0.06578,-0.10605" fill-rule="nonzero"/><path d="M176.81826,322.80681l0.17044,0.07196l0.10227,0.202l-0.07449,0.19444v0.1212l-0.13004,0.1755l-0.29796,0.06945l-0.1111,-0.03788l-0.14139,-0.10732l0.04797,-0.11489v-0.23609l0.10227,-0.31185l0.19316,-0.03155l0.13887,0.00504" fill-rule="nonzero"/><path d="M177.50001,321.63264l0.16413,-0.0101l0.16161,0.07322l-0.11364,0.27019l-0.22474,0.04924l-0.13887,-0.07323l-0.11615,-0.20831l0.0101,-0.17675l0.25756,0.07575" fill-rule="nonzero"/><path d="M94.42526,339.85102l-0.22524,0.17171h-0.19279l-0.22119,-0.07197l-0.05782,-0.17675l0.02639,-0.12752l0.12147,-0.11236l0.18156,-0.05176l0.17536,-0.00505l0.19859,0.14772l-0.00632,0.22599" fill-rule="nonzero"/><path d="M101.04473,338.97986l-0.09936,-0.02904l-0.0471,-0.0909l0.04065,-0.13762l0.12815,0.05807l0.07942,0.11362l-0.10176,0.08585" fill-rule="nonzero"/><path d="M93.89247,338.37385l0.14191,-0.06817l0.07677,0.10352l0.03017,0.12879l-0.24884,-0.16413" fill-rule="nonzero"/><path d="M101.44622,336.48005l0.03698,0.14899l0.17019,0.07827l0.09835,0.23356l-0.01262,0.09847l0.09986,0.22851l0.24266,0.1755l-0.00997,0.26765l0.07374,0.10352l0.12487,0.02904l0.06402,0.07576l0.15113,0.01389l0.06578,-0.04672l0.24582,0.12752l0.02234,0.10732l0.14886,0.13004l0.29505,0.08585l0.09217,-0.01389l0.09533,0.08712l0.02878,0.11488l0.14115,0.15782l-0.05871,0.13256l-0.2169,-0.05682l-0.11615,0.03283l-0.20605,-0.0341l-0.1818,0.01137l-0.11464,0.05303l-0.13647,-0.04924l-0.33192,0.12752l-0.30466,0.01135l-0.06137,0.07827l-0.10757,0.02147l-0.25137,-0.16413l-0.22447,-0.08459l-0.1308,-0.08712l-0.09128,-0.24493l0.03915,-0.10984l0.14178,0.14392l0.20429,-0.00883l-0.02905,-0.19191l-0.15845,-0.23735l-0.1231,-0.02147l-0.04306,-0.14644l0.13043,-0.0644l0.18041,-0.19822l-0.0452,-0.327l0.24392,-0.11995l-0.22271,-0.41917l-0.07702,-0.0707l-0.01351,-0.16034l-0.11438,-0.12879l0.10277,-0.06817l-0.0471,-0.11867l0.05265,0.08964l0.01301,0.08837l0.12487,0.11867" fill-rule="nonzero"/><path d="M99.88824,337.36382l0.02438,0.0063l0.0548,0.07197l0.01161,0.0303l0.02966,0.01515l0.00682,0.0341l0.0846,0.06312l-0.01275,0.09342l-0.1597,0.06565l-0.18484,-0.05555l-0.11274,-0.14267l-0.03649,-0.25251l0.05934,-0.13509l0.09785,0.17044l0.1279,0.00128l0.00958,0.0341" fill-rule="nonzero"/><path d="M100.56371,337.16182l0.10492,0.26386l0.01061,0.15403l-0.06477,0.09847l-0.13636,0.03788l-0.35225,-0.10857l-0.01742,-0.0404l-0.05228,-0.03157l-0.03132,-0.05681l-0.04128,-0.0202l-0.05567,-0.09722l-0.03535,-0.01767l-0.00985,-0.04545l-0.03662,-0.0442l0.05695,-0.03788l-0.04065,-0.23356l0.08383,-0.1212l0.19721,0.05302l0.1274,0.09721l0.29291,0.15024" fill-rule="nonzero"/><path d="M101.00686,336.08866l-0.15442,-0.09469l-0.04723,-0.10732l0.10833,-0.0404l0.15416,0.08585l0.04835,0.10227l-0.1092,0.05429" fill-rule="nonzero"/><path d="M82.77205,348.19636l-0.09709,0.04167l-0.44075,-0.03661l-0.09293,-0.06312l0.01452,-0.13509l0.28344,-0.11867l0.13181,-0.00378l0.25162,0.07322l0.03574,0.10857l-0.08636,0.13382" fill-rule="nonzero"/><path d="M84.43231,345.81018l0.01755,0.13131l-0.12941,0.0101l-0.06123,-0.08711l0.17309,-0.05429" fill-rule="nonzero"/><path d="M82.85414,343.33561l0.09381,0.12247l0.15832,-0.11236l0.03761,-0.11615l0.14973,0.07197l0.05215,-0.02904l0.16653,0.13382l0.10542,-0.13509l0.14002,0.0707l0.01553,0.15024l0.25881,0.04167l0.17814,0.09974l0.0683,0.16539l0.2039,0.01263l-0.02966,0.2222l-0.10352,0.06945l-0.01553,0.14772l0.03775,0.0808l-0.24455,0.11867l-0.14241,0.25631l0.05542,0.17297l-0.03435,0.20327l-0.12372,-0.09216l-0.12537,0.00127l0.04078,0.14646l-0.04621,0.18811l-0.22764,-0.00127l-0.22435,-0.15654l-0.14519,-0.0606l-0.34846,0.03283l-0.20125,-0.07702l-0.20517,-0.01516l-0.23496,-0.04671l-0.18029,-0.12626l-0.09367,-0.10352l-0.1279,-0.04672l-0.05075,0.29418l-0.19987,-0.01262l-0.08585,-0.05935l-0.20402,0.00378l-0.23458,-0.34846l0.113,-0.07702l0.14204,0.08712l0.0654,-0.03915l-0.08889,-0.16161l0.03964,-0.11995l0.32144,0.09974l-0.07323,-0.13636l0.14103,0.01262l0.13484,-0.11489l0.04646,0.09721l0.11844,0.06187l0.02299,0.10984l0.1077,-0.01137l0.02639,-0.22346l-0.06944,-0.05934l0.11173,-0.14519l-0.08788,-0.08459l-0.0442,-0.12626l0.12562,-0.11869l-0.08799,-0.16413l0.08257,-0.03662l-0.01704,-0.13636l0.1255,-0.1818l0.1462,-0.0442l-0.00365,-0.12499l-0.10555,-0.05176l0.07804,-0.0909l0.1481,-0.00632l0.22435,0.20706l0.01742,0.09342l0.13547,0.0606l-0.02943,0.15782" fill-rule="nonzero"/><path d="M81.77594,343.89112l0.09015,-0.05303l0.15921,0.12499l-0.02425,0.11364l-0.22511,-0.18559" fill-rule="nonzero"/><path d="M81.78853,343.60074l-0.08257,0.20832l-0.08901,-0.07575l0.03737,-0.101l0.1342,-0.03157" fill-rule="nonzero"/><path d="M72.89149,342.69172l-0.11287,0.1212l-0.36424,-0.07196l-0.02373,0.04797l-0.1755,0.01516l-0.24392,-0.09342l-0.07827,0.00505l0.02247,-0.19569l0.15075,-0.05555l0.09569,-0.14644l0.15277,0.07196l0.18092,-0.04292l0.11425,-0.06313l0.18534,0.0202l0.32838,0.14899l-0.06085,0.13887l-0.1712,0.09974" fill-rule="nonzero"/><path d="M78.67642,324.63748l-0.18281,0.09468l-0.05037,-0.13131l0.20579,-0.10984l0.13093,0.03283l0.02082,0.12499l-0.12435,-0.01137" fill-rule="nonzero"/><path d="M84.63559,345.50716l0.04747,0.07576l-0.16021,0.16034l-0.03448,-0.12372l0.14721,-0.11237" fill-rule="nonzero"/><path d="M85.59889,345.68392l-0.16488,0.1212l-0.15744,-0.03662l-0.12828,-0.23735l-0.00202,-0.08332l0.09255,-0.09216l0.07449,0.00127l0.15151,0.09469l0.10151,-0.04167l0.07536,0.16919l-0.04279,0.10479" fill-rule="nonzero"/><path d="M86.27183,344.53501l-0.0534,-0.16413l0.05795,-0.14899l0.07928,-0.06187l0.07638,0.0505l0.11489,0.2222l-0.11943,0.09974l-0.15567,0.00252" fill-rule="nonzero"/><path d="M87.23639,344.25726l-0.02663,0.06312l-0.16212,0.01515l-0.01174,-0.06817l0.20049,-0.0101" fill-rule="nonzero"/><path d="M85.29209,344.34564l-0.11375,0.04671l-0.13016,-0.10479l-0.25667,-0.02272l0.07815,-0.14519l-0.05618,-0.11364l0.12183,-0.04797l0.22625,0.1111l-0.03334,0.08207l0.1611,0.11364l0.00278,0.08082" fill-rule="nonzero"/><path d="M89.55819,340.73479l-0.07689,0.22599l-0.16311,0.16413l-0.11793,0.05176l-0.09696,0.12499l-0.01616,0.11867l0.06956,0.09848l-0.16628,0.22474l-0.14848,0.08837l-0.02953,0.24871l-0.26728,0.18433l-0.1169,0.20074l0.00682,0.16159l0.075,0.06313l-0.09482,0.22346l0.10227,0.24871l-0.06325,0.19064l-0.04205,0.54289l-0.17283,0.19949l-0.19051,-0.0606l-0.07399,-0.0808l-0.15516,0.00757l-0.02487,0.16034l-0.10694,0.1111l-0.14139,0.0644l-0.14392,0.00883l-0.25629,-0.18559l-0.06717,-0.08585l-0.23421,-0.09342l-0.17852,-0.15151l0.0611,-0.09974l0.13521,-0.04924l0.1289,-0.10479l0.04874,-0.09595l-0.01705,-0.11742l0.04229,-0.17928l-0.11211,-0.024l-0.01943,-0.08459l-0.15302,-0.17928l-0.07539,0.04167l-0.1467,-0.02652l-0.19178,0.14139l-0.22524,-0.07702l0.02905,-0.13382l0.10542,-0.14899l0.17776,-0.06817l0.2015,0.13762l0.09885,-0.02652l-0.02222,-0.22851l0.09809,-0.05302l-0.01502,-0.11237l0.1308,-0.01894l0.13345,0.16919l-0.12372,0.22094l0.06754,0.07196l0.1621,-0.16539l0.33003,0.07954l0.17625,-0.12372l0.16337,-0.00378l0.2179,0.03535l0.04015,-0.05303l-0.06628,-0.13004l0.04482,-0.18686l0.06338,-0.11489l-0.00127,-0.10479l0.12096,-0.01262l0.24771,-0.29038l0.113,0.07322l0.09533,0.13509l0.06236,-0.2222l0.17575,-0.38254l-0.14229,-0.14646l0.18888,-0.15529l0.05417,-0.14772l0.1231,-0.19443l0.00732,-0.22094l0.05442,-0.02147l0.06995,0.06187l0.20314,0.03661l-0.01465,0.15276l0.0452,0.09216" fill-rule="nonzero"/></g></g></svg>