<svg version="1.1" xmlns="http://www.w3.org/2000/svg" xmlns:xlink="http://www.w3.org/1999/xlink" width="7.54283" height="9.44377" viewBox="0,0,7.54283,9.44377"><g transform="translate(-303.58147,-120.5894)"><g fill="#ff0000" fill-rule="evenodd" stroke="#ffffff" stroke-width="0" stroke-linecap="round" stroke-linejoin="round" stroke-miterlimit="10"><path d="M310.75807,122.67837l-0.18686,0.25413l0.1009,0.19932l0.23045,-0.11709l0.03986,0.08471l-0.14575,0.17813l0.01495,0.09966l-0.22298,0.12583l-0.25039,-0.11585l-0.05107,0.15696l-0.20305,0.13329l0.04859,0.16443l0.25163,-0.09094l0.26534,0.05107l0.14201,-0.17316l0.08346,0.05232l0.24914,-0.0299l-0.10837,0.23295l-0.04484,0.1856l-0.15696,-0.06354l-0.14201,0.01494l-0.12456,0.12707l-0.1744,-0.03114l-0.06727,0.10215l-0.16567,-0.08097l-0.12955,0.11834l0.16071,0.06478l-0.00125,0.09841l0.24042,0.08719l0.03987,0.29773h-0.18437l-0.09095,-0.06727l-0.14077,-0.00374l0.04983,0.21676l0.17938,0.28153l0.13703,0.03364l0.25039,-0.14326l0.06229,0.32139l-0.2778,0.09592l-0.00623,0.10713l-0.1308,0.02118l-0.28278,0.22299l-0.28403,-0.1171l-0.03364,0.25538l0.1582,0.00124l0.12333,0.15572l0.30644,-0.08222l0.07847,0.147l-0.29275,0.21054l-0.13205,0.13703l-0.29773,0.03238l-0.16817,-0.05232l-0.10713,0.07475l-0.05729,0.12831l0.19433,0.13579l0.22921,0.06851l0.01495,0.22798l0.17316,0.0299l0.24541,-0.01869l0.09218,0.19931l-0.25911,0.12955l-0.11461,0.1009l-0.28776,-0.22547l-0.32638,-0.00498l-0.1607,-0.15198l-0.11834,0.03114l0.08596,0.40487l0.08846,0.19309l0.24042,-0.02865l0.25537,0.08596l0.09094,0.08222l-0.10215,0.08597l-0.19308,0.03489l-0.1283,-0.04236l-0.11212,0.04485l-0.1769,-0.01371l0.03238,0.15447l0.35253,0.17191l0.08472,0.14824l-0.20679,0.07724l-0.13453,-0.03612l-0.14824,0.04859l-0.20554,-0.02492l-0.03862,-0.09841l-0.18312,0.0573l-0.1196,-0.11087l-0.08597,0.23295l-0.17316,0.00374l-0.04236,-0.07349l-0.16195,0.02616l0.07475,-0.24791l-0.04359,-0.11833l0.07599,-0.1009l-0.04111,-0.19932l-0.1009,-0.1009l-0.09468,0.28028l0.03489,0.2043l-0.1856,0.24168l0.07972,0.11834l0.18686,0.06104l0.15447,0.35877l-0.07101,0.04983l-0.17813,-0.02866l-0.1856,0.19683l-0.12831,0.03489l-0.00872,0.14201l0.18811,-0.00997l0.12707,0.07599l0.00499,0.18312l-0.12583,0.09716l-0.19931,0.06727l-0.07225,-0.06727l0.00374,-0.15696l-0.1171,-0.22049l-0.12707,-0.07847l-0.07475,-0.11585l0.09218,-0.19059l0.09466,-0.07724l-0.12955,-0.10589l-0.40361,-0.01993l-0.1445,0.06478l0.02367,0.19683l-0.05107,0.06602l0.08846,0.23918l-0.1582,-0.05481l-0.22174,-0.19433l-0.21676,-0.03862l-0.11834,0.02241l-0.09342,-0.13951l-0.2342,-0.00499l-0.31269,0.07972l-0.08097,-0.11087l-0.30146,-0.01121l-0.06352,0.0872l-0.04734,0.24541l-0.21177,-0.14824l-0.0274,-0.07599l0.11833,-0.31269l-0.15322,-0.3052l-0.01121,-0.20055l0.10837,-0.1445l0.12955,-0.06354l-0.01993,-0.12955l0.03238,-0.27281l-0.22298,-0.22299l0.01869,-0.08346l-0.31144,-0.16195l-0.31392,0.05107l-0.10465,-0.19433l0.05357,-0.15198l-0.04112,-0.11087l-0.16817,-0.07973l-0.03737,-0.11834l0.02367,-0.16569l-0.09593,-0.06478l0.04983,-0.15945l-0.0299,-0.20181l-0.11212,-0.10837l0.18437,-0.04359l0.18935,-0.11709l0.22174,0.10713l0.20181,0.04485l0.03863,-0.142l0.15322,0.01619l0.20679,-0.16817l0.09592,-0.16443l-0.03612,-0.21801l0.23295,-0.08846l0.07599,0.09218l0.09716,-0.04982l0.07475,-0.13453l0.30645,0.03489l0.07475,-0.11087l0.12083,-0.04112l0.06851,-0.11335l0.1881,0.02865l0.21177,0.2342l0.147,-0.13951l0.27032,0.08097l0.09218,-0.08097l0.2915,0.14575l0.04485,-0.1308l0.1283,-0.02367l0.33385,-0.29898l-0.19682,-0.43849l0.14575,-0.25911l-0.35877,-0.04982l-0.01245,-0.23669l-0.06727,-0.11585l0.00996,-0.19185l-0.07847,-0.05107l0.01619,-0.30645l0.08346,-0.06104l-0.01245,-0.21801l0.12332,-0.11833l0.01495,-0.09342l0.15945,-0.04484l0.08346,-0.0897l0.34506,0.09966l0.27156,-0.07847l0.05979,-0.09592l-0.05605,-0.09218l-0.27281,-0.10215l0.04734,-0.07724l-0.03737,-0.19807l-0.07349,-0.26286l-0.1582,-0.26035l0.05481,-0.32513l0.16443,-0.147l0.20804,-0.04734l0.02492,-0.19185l0.06602,-0.09841l0.18437,0.04859l0.08472,0.12955l0.20679,0.05606l0.05232,0.1582l0.15073,0.0897l0.20055,0.33136l0.07225,0.23918l0.1308,-0.00374l0.1196,0.06977l0.03612,0.13703l0.22423,0.25413l0.0573,0.24291l0.1607,0.06602l0.06602,0.1582l0.16443,0.11212l0.10589,-0.04235l0.21054,0.01245l0.26159,-0.02492l0.11834,0.05481"></path></g></g></svg>