<svg version="1.1" xmlns="http://www.w3.org/2000/svg" xmlns:xlink="http://www.w3.org/1999/xlink" width="8.77355" height="7.27626" viewBox="0,0,8.77355,7.27626"><g transform="translate(-295.95136,-87.40407)"><g fill="#ff0000" fill-rule="evenodd" stroke="#ffffff" stroke-width="0" stroke-linecap="round" stroke-linejoin="round" stroke-miterlimit="10"><path d="M303.8194,94.25054l-0.22798,0.12583l-0.11212,0.21054l-0.26035,0.09342l-0.15696,-0.03862l-0.12208,-0.13204l0.10838,-0.11087l-0.07973,-0.20057l-0.05606,-0.30645l-0.15447,0.03986l-0.31143,-0.08597l-0.11585,0.10215l0.03489,-0.12707l-0.06603,-0.27406l-0.17565,-0.50826l-0.1495,-0.30647l-0.17316,-0.28527l-0.17937,-0.23171l-0.26286,-0.27654l-0.12955,-0.08222l-0.20928,-0.04359l-0.13827,0.02367l-0.05357,0.14575l-0.21426,0.37247l0.06976,0.21054l-0.09468,0.06229l-0.28901,0.28278l-0.147,-0.00248l-0.33635,0.21426l-0.20305,0.28403l-0.29275,-0.02616l-0.3239,-0.21054l-0.147,0.04236l-0.17813,-0.06727l-0.23171,0.13205l-0.2342,0.28776l-0.19184,0.00997l-0.16443,-0.04609l-0.16693,0.13453l-0.16569,0.07474l-0.16443,-0.05854l-0.35005,0.13827l-0.19683,0.147l-0.26534,0.36499l-0.35254,-0.05979l-0.16942,-0.15447l-0.06602,-0.11958l0.05606,-0.28153l-0.0573,-0.50327l0.18312,-0.20305l0.07599,-0.37371l-0.06354,-0.38617l0.19682,-0.4223l0.03987,-0.37246l0.09218,-0.21302l-0.09342,-0.10963l0.10339,-0.10589l-0.01371,-0.09466l0.1308,-0.09094l0.13827,-0.5394l0.00248,-0.32015l0.13578,-0.37745l0.12707,-0.1495l0.06104,-0.1607l0.1582,-0.07972l-0.00499,-0.16693l0.14575,-0.09841l0.08969,-0.24541l0.16693,-0.1582l0.13827,-0.45095l-0.07351,-0.24416l-0.07724,-0.12582l0.1333,-0.06478l0.00124,-0.147l0.10837,-0.10589l0.0897,0.17316l0.35503,0.21054l0.13703,0.1495l0.12208,0.23543l0.36499,0.22174l0.32139,0.04111l0.37247,-0.00124l0.45095,0.26159l0.15198,0.02742l0.25661,0.3924l0.11336,0.1308l0.12333,0.05979l0.05979,0.1308l0.16817,0.14201l0.1881,0.26908l0.16693,0.18811l0.21177,0.17191l0.42603,0.24042l0.23918,0.09716l0.41484,0.09218l0.17067,-0.01371l0.29524,-0.08222l0.28901,-0.12707l0.37745,-0.19683l0.20305,-0.13951l0.37621,-0.37746l0.0573,-0.1009l0.21924,-0.19931l0.1495,0.09592l-0.10589,0.12332l0.04111,0.14077l-0.12582,0.147l0.09218,0.08346l-0.01745,0.16942l-0.11461,0.09966l-0.09466,0.26286l-0.24666,1.08378l-0.22049,0.88695l-0.01745,0.26161l-0.15696,0.73249l-0.03114,0.4061l0.04111,0.34009l0.05107,0.01619"></path></g></g></svg>