<svg version="1.1" xmlns="http://www.w3.org/2000/svg" xmlns:xlink="http://www.w3.org/1999/xlink" width="57.31304" height="56.21087" viewBox="0,0,57.31304,56.21087"><g transform="translate(-211.34348,-151.89456)"><g stroke-miterlimit="10"><path d="M231.50347,176.82439c-2.17181,0 -4.12474,0.51771 -5.85883,1.55309c-1.73408,1.0354 -3.1062,2.44539 -4.11633,4.22998c-1.01015,1.78459 -1.51522,3.78804 -1.51522,6.01036c0,2.22232 0.50506,4.23838 1.51522,6.04824c1.01013,1.80984 2.38225,3.23247 4.11633,4.26787c1.73409,1.0354 3.68704,1.55308 5.85883,1.55308c2.17182,0 4.12055,-0.53033 5.84622,-1.59097c1.73409,-1.06065 3.10621,-2.48327 4.11635,-4.26786c1.01013,-1.78459 1.51522,-3.78804 1.51522,-6.01036c0,-2.22232 -0.50507,-4.22577 -1.51522,-6.01036c-1.01013,-1.78459 -2.38227,-3.19458 -4.11635,-4.22998c-1.72567,-1.0354 -3.67441,-1.55309 -5.84622,-1.55309zM241.97109,152.69457l-14.14703,19.29243c0.25756,-0.1043 0.52438,-0.20067 0.80052,-0.2891c1.29638,-0.41248 2.82419,-0.61871 4.58354,-0.61871c3.15668,0 6.01457,0.7534 8.57362,2.2602c2.55901,1.49838 4.62562,3.55234 6.19975,6.16187c1.58256,2.60953 2.37383,5.64839 2.37383,9.11655c0,3.40925 -0.8418,6.53647 -2.52536,9.38171c-1.68359,2.84525 -3.9606,5.10965 -6.8311,6.79323c-2.87049,1.67515 -6.03561,2.51273 -9.49536,2.51273c-3.56917,0 -6.76375,-0.82495 -9.58375,-2.47486c-2.81998,-1.65832 -5.05913,-3.88065 -6.71744,-6.66696c-1.64989,-2.79474 -2.47484,-5.90092 -2.47484,-9.31858c0,-4.7561 1.6541,-9.48692 4.96234,-14.19251l15.82139,-21.958z" fill="#ffffff" fill-rule="evenodd" stroke="none" stroke-width="1" stroke-linecap="square"></path><path d="M243.53882,169.1194v-6.5209h22.82315v6.5209z" fill="#ffffff" fill-rule="nonzero" stroke="none" stroke-width="0" stroke-linecap="butt"></path><path d="M251.51562,154.42085h6.5209v22.82315h-6.5209z" fill="#ffffff" fill-rule="nonzero" stroke="none" stroke-width="0" stroke-linecap="butt"></path><path d="M211.34348,208.10544v-56.21087h57.31304v56.21087z" fill="none" fill-rule="nonzero" stroke="#000000" stroke-width="0" stroke-linecap="butt"></path></g></g></svg>