<svg version="1.1" xmlns="http://www.w3.org/2000/svg" xmlns:xlink="http://www.w3.org/1999/xlink" width="10.61219" height="10.67813" viewBox="0,0,10.61219,10.67813"><g transform="translate(-323.68258,-66.05672)"><g fill="#ff0000" fill-rule="evenodd" stroke="#ffffff" stroke-width="0" stroke-linecap="round" stroke-linejoin="round" stroke-miterlimit="10"><path d="M333.88454,69.6349l-0.69224,0.9675l-0.15552,0.29451l-0.45966,0.78858l-0.59316,1.21796l-0.07294,0.2436l-0.09358,0.15552l-0.24359,0.58215l0.00688,0.3358l-0.23258,0.63719l-0.02615,0.32753l0.17341,0.37296l-0.02478,0.20092l0.23258,0.20092l-0.03853,0.50507l-0.12387,0.26974l-0.26699,-0.0454l-0.08532,-0.09084l-0.4404,0.08532l-0.00688,-0.11147l-0.17203,0.00551l-0.0523,-0.13899l-0.26974,-0.12248l-0.13349,0.07844l-0.32617,-0.26974l-0.13762,-0.3358l-0.00826,-0.14863l-0.10184,-0.0867l-0.18028,0.00826l-0.24772,-0.32341l0.01652,-0.21469l-0.22434,-0.11561l-0.2133,-0.03441l-0.07982,-0.22983l0.01652,-0.13349l-0.08119,-0.10872l-0.40049,-0.09634l-0.03029,-0.1968l-0.2835,-0.22983l-0.09634,-0.28762l-0.11834,-0.00276l-0.15552,-0.18028l-0.03716,-0.15414l-0.20506,-0.10597l-0.14175,-0.34544l-0.13625,-0.03853l-0.11835,-0.18992l-0.15276,-0.14588l-0.04679,-0.1968l-0.22983,-0.23397l-0.04403,-0.23945l-0.21606,-0.03853l-0.08946,-0.08809l-0.2835,0.04679l-0.07431,-0.3248l-0.14038,-0.09359l-0.08808,-0.22433l0.12248,-0.41699l-0.07844,-0.16653l-0.19405,-0.02891l-0.20782,-0.26697l0.07707,-0.18579l0.02891,-0.33992l-0.48994,-0.13625l-0.0454,-0.41149l-0.18167,-0.12524l-0.02065,-0.19955l-0.13212,-0.15139l-0.06331,-0.30966l-0.10046,-0.13075l-0.24222,-0.03166l-0.04403,-0.2835l-0.17753,-0.15276l0.01375,-0.23258l-0.0399,-0.2133l0.15139,-0.28488l0.39361,-0.18855l0.37021,0.04129l0.11423,0.08946l0.40874,-0.15276l0.17754,0.21883l-0.09358,0.16789l0.01238,0.37847l-0.07019,0.24772l0.15002,0.16377l0.1156,0.00963l0.30278,0.31653l0.25598,-0.22433l0.18304,0.0867l0.28901,-0.00826l0.1156,0.06744l0.17478,-0.10046l0.22571,-0.01789l0.27937,-0.18992l0.12661,0.03302l0.1445,-0.06605l0.00276,-0.17203l0.11423,0.00413l0.07569,-0.16927l0.13899,-0.08946l0.36746,-0.62481l-0.12938,-0.15689l0.13212,-0.1734l0.21883,-0.1968l0.05917,-0.18165l0.18442,0.10873l0.04817,-0.08395l0.28074,0.16927l0.13626,-0.1913l0.12523,-0.02615l0.52572,0.15139l-0.10322,0.37021l0.02202,0.09909l0.22845,-0.05367v-0.10322l0.44728,0.11423l0.11423,-0.4459l0.49958,0.12937l-0.07019,0.19405l-0.03302,0.37709l-0.21744,0.86428l0.10872,0.14588l0.45416,0.06056l0.02615,0.09496l-0.12248,0.62206l-0.29864,0.07432l-0.23946,0.16789l-0.51746,0.26149l0.15964,0.0867l-0.08809,0.16513l0.54637,0.18442l0.48994,0.2601l0.54498,-0.23533l0.4225,0.19955l0.11834,0.39224l0.38534,-0.14863l0.64133,-0.19405l-0.55875,-0.63719l0.00276,-0.27524l-0.12248,-0.25048l-0.11561,-0.06468l-0.1101,0.08395l-0.22845,-0.09772l0.00963,-0.13899l-0.10597,-0.16102l0.10872,-0.28074l-0.09772,-0.23258l0.12248,-0.23533l0.24498,0.01927l-0.03166,-0.17203l0.11561,-0.05506l0.22983,-0.29451l0.27111,0.22984l0.15552,0.32066l0.31929,0.28075l0.09359,-0.12937l0.13075,0.09084l-0.06468,0.23946l0.2546,0.12799l-0.04954,0.07294l0.22845,0.24634l0.06056,0.11284l-0.00826,-0.00138l0.02891,0.04129l0.07294,0.13487l0.02891,0.16927l-0.41012,0.60003"></path></g></g></svg>