<svg version="1.1" xmlns="http://www.w3.org/2000/svg" xmlns:xlink="http://www.w3.org/1999/xlink" width="7.96039" height="12.45641" viewBox="0,0,7.96039,12.45641"><g transform="translate(-288.21384,-161.45464)"><g fill="#ff0000" fill-rule="evenodd" stroke="#ffffff" stroke-width="0" stroke-linecap="round" stroke-linejoin="round" stroke-miterlimit="10"><path d="M296.06891,163.04409l0.10532,0.17841l-0.10779,0.07186l-0.07062,-0.04956l-0.22301,0.10532l-0.05947,0.07186l-0.27257,0.58602l-0.2069,0.64179l-0.00744,0.34196l-0.04336,0.03098l-0.11028,0.32212l-0.03098,0.30604l0.02229,0.17841l-0.14867,0.10532l-0.12762,0.17097l-0.05452,0.36798l-0.11399,0.09044l-0.11026,0.2639l-0.08549,0.10283l-0.04833,0.19576l-0.07558,0.04833l-0.1239,0.36673l0.02229,0.11399l-0.09293,0.08921l-0.06566,0.26637l-0.00124,0.18337l-0.19328,0.28619l0.05823,0.11026l-0.14124,0.13256l-0.03221,0.35435l0.02354,0.13009l0.21063,0.03221l-0.00124,0.15735l-0.11151,0.06319l-0.11522,0.13628l0.00991,0.20195l0.06566,0.25027l0.14744,0.12142l-0.07186,0.32833l-0.14,0.09416l-0.10779,0.21434l-0.05575,-0.03221l-0.03345,0.30477l-0.08797,0.15859l-0.11646,0.01362l-0.18461,0.2255l-0.04956,0.15115l0.01362,0.46709l-0.03221,-0.06938l-0.23541,-0.02725l-0.14124,-0.07433l-0.01487,-0.0508l0.0062,-0.00124l0.06691,-0.08673l0.01982,-0.40514l-0.11274,0.25522l-0.19824,-0.0062l-0.08921,0.06071l-0.35187,0.04956l-0.11646,0.14744l0.40514,0.00992l-0.02229,0.28619l-0.20815,0.17593l-0.25894,0.05204l-0.10779,0.09787l-0.07682,-0.15362l-0.10902,0.16479l-0.13877,-0.00247l-0.07186,0.14124l0.04833,0.1016l0.28498,0.14744l0.09044,0.24655l-0.11399,0.13381l-0.07309,0.35557l-0.1747,0.18584l-0.16726,0.08053l-0.14991,-0.28248l-0.26763,0.02602l-0.12142,-0.04336l-0.00124,0.12018l-0.08053,0.00373l-0.06566,0.1462l-0.12886,-0.0062l-0.08053,-0.15362l-0.21187,-0.16353l-0.08426,0.07806l-0.00991,-0.0062l-0.03346,-0.14371l0.10779,-0.28372l0.22797,-0.06566l-0.24779,-0.20072l-0.02973,-0.13009l-0.14248,-0.01115l-0.19081,-0.15486l-0.12389,-0.04708l-0.03718,-0.12018l0.10779,-0.36302l0.15488,-0.00991l0.04956,-0.11151l-0.03964,-0.09293l-0.43487,-0.04833l-0.14124,-0.18708l-0.13133,-0.00124l-0.15859,-0.17965l-0.01859,-0.13133l-0.12637,-0.19576l-0.12637,-0.07433l-0.11522,0.06815l-0.12142,-0.11895l-0.12142,-0.18337l-0.11026,0.00496l-0.01364,-0.13256l0.07186,-0.23664l0.1239,-0.00991l0.01115,-0.22301l0.12018,-0.1462l-0.05452,-0.19576l0.09044,-0.09663l0.1338,-0.24903l-0.02478,-0.26763l0.06071,-0.12885l-0.04087,-0.12266l0.16973,-0.37789l0.08426,-0.04089l0.07682,-0.14248l0.01239,-0.18584l0.13505,-0.00247l0.09167,-0.06938l-0.0161,-0.11522l0.15611,-0.0384l-0.15488,-0.26019l-0.00867,-0.20938l0.05575,-0.10035l-0.0954,-0.12762l0.03964,-0.07309l-0.0446,-0.26267l0.07062,-0.22921l-0.00867,-0.17717l-0.17469,-0.36548l0.10407,-0.02973l-0.02229,-0.22177l-0.14371,-0.17594l0.02602,-0.12142l-0.13628,-0.26267l0.16106,-0.20195l0.16479,-0.03221h0.26142l0.17965,-0.09044l0.06691,-0.26637l-0.05452,-0.13504l-0.26142,-0.21929l-0.09044,-0.18461l0.07682,-0.11399l-0.09168,-0.10655l0.00124,-0.14124l0.15611,-0.11522l-0.00867,-0.58602l-0.13256,-0.20072l-0.04336,-0.16355l0.06442,-0.31965l-0.02973,-0.27877l-0.06939,-0.27505l-0.00373,-0.19328l0.06319,-0.12885l0.13381,-0.057l0.10779,0.04956l0.16106,-0.08177l0.2069,0.13009l0.06195,0.12142l0.17593,0.17717l0.02602,0.22301l0.28001,0.12886l0.23044,0.01115l0.08301,0.21929l-0.01611,0.23169l0.05327,0.06814l0.02849,0.19948l0.31965,0.1016l0.13009,-0.01239l0.21559,0.22921l0.10655,-0.04833l0.17097,0.27011l0.16355,0.17222l0.1685,-0.12266l0.11275,-0.14744l-0.00371,-0.14495l0.17345,-0.00496l0.17097,-0.11646l0.02973,-0.14867l0.11647,-0.05947l-0.00496,-0.13256l0.12266,-0.15859l0.09293,0.00991l0.37169,-0.16973l0.06195,0.03469l0.15859,-0.20071l-0.17222,-0.25275l0.01735,-0.1276l-0.18708,-0.18708l0.05947,-0.22674l-0.0384,-0.08673l0.23169,-0.13381l0.14744,0.3147l0.2069,0.31842l0.28001,0.10655l0.12514,-0.05327l0.44975,0.16107l0.22921,0.11026l0.14744,0.16602l0.32709,-0.04336l0.18708,0.09416l0.13876,0.1239l0.12886,-0.09044l0.20195,0.12266l0.04585,0.25894"></path></g></g></svg>