<svg version="1.1" xmlns="http://www.w3.org/2000/svg" xmlns:xlink="http://www.w3.org/1999/xlink" width="8.86993" height="10.3243" viewBox="0,0,8.86993,10.3243"><g transform="translate(-221.08533,-186.5795)"><g fill="#ff0000" fill-rule="evenodd" stroke="#ffffff" stroke-width="0" stroke-linecap="round" stroke-linejoin="round" stroke-miterlimit="10"><path d="M222.42468,195.567l-0.11895,-0.10655l-0.08673,0.19948l-0.1239,0.01487l-0.22054,-0.18337l0.0508,-0.18461l-0.19576,-0.02602l-0.11646,-0.11522l-0.23294,-0.15363l-0.14495,-0.02354l0.0508,-0.15488l0.07309,-0.29859l-0.27381,-0.08797l0.10407,-0.11151l0.11647,-0.03717l0.2069,-0.29612l-0.05823,-0.09912l0.02478,-0.23417l0.10037,0.03964l0.17222,-0.04833l0.03098,-0.23044l0.11399,-0.25152l-0.26514,-0.14124l-0.0384,-0.09416l0.09788,-0.12266l0.03345,-0.1524l-0.04213,-0.17345l0.01115,-0.18088l0.07682,-0.10779l-0.05452,-0.26019l0.09912,-0.12266l0.11647,-0.34814l0.18461,-0.09663l0.07309,-0.10283l-0.01859,-0.11769l0.1747,-0.19824l0.01734,-0.08549l-0.1276,-0.20072l0.12513,-0.14867l-0.16106,-0.25027l0.09293,-0.0954l0.03098,-0.20815l0.13877,-0.07806l-0.07558,-0.21682l0.04708,-0.14867l0.16479,-0.11275l0.1016,-0.28496l0.13504,-0.10037l0.21434,-0.22301l-0.07433,-0.16107l0.12266,-0.26267l-0.07433,-0.08673l0.1747,-0.16726l0.0384,-0.09788l-0.16973,-0.1685l0.0508,-0.17345l-0.09416,-0.20195l0.06939,-0.19204l0.10035,-0.09167l0.09663,-0.16479l0.02602,-0.1747l0.1623,-0.1747l-0.00743,-0.10902l0.27877,0.14744l0.32585,0.08053l0.25894,0.10655l0.057,0.07682l-0.01735,0.16355l0.31346,0.10902l0.16974,0.00867l0.10532,0.10655l0.12266,0.26761l0.18584,-0.13753l0.03098,-0.10284l0.11399,-0.10407l0.18214,-0.09541l0.24284,0.08549l0.07309,-0.06566l0.27877,0.057l0.12018,0.28124l-0.06442,0.1747l-0.08796,0.06815l0.10408,0.10037l0.23541,0.06195l0.08301,0.13876l0.10283,0.05823l0.03718,0.11399l-0.16602,0.08053l0.08301,0.27381l0.16355,0.1747l0.27257,-0.07806l0.04213,-0.17717l0.22425,-0.00867l0.21434,0.03469l0.08301,-0.02229l0.18832,0.07186l0.03593,0.1685l-0.15239,0.21807l0.17097,0.08176l0.4101,-0.11646l0.13133,0.07806l0.07186,0.12762l0.14248,-0.01487l0.22301,0.11646l0.11769,-0.01239l0.13753,0.2924l-0.06938,0.17097l0.16107,0.08176l-0.01487,0.26761l-0.15362,0.05452l-0.13009,0.09788l-0.09788,0.1685l0.03098,0.14495l-0.14495,-0.07186l-0.26761,0.11275l-0.05327,0.11275l0.07682,0.14124l0.18461,0.01859l0.01362,0.12266l-0.03964,0.39524l0.08549,0.11895l-0.09044,0.0446l-0.08797,0.19203l0.23292,0.16107h0.22301l0.06566,0.14495l0.35434,0.08797l0.03345,0.10407l0.28621,-0.083l0.13876,0.1462l0.1016,0.05204l-0.05327,0.12637l-0.21557,-0.0384l-0.25027,0.1623l0.08177,0.0446l0.05947,0.20072l0.12886,0.04584l-0.04213,0.20567l-0.09168,0.23788l0.01611,0.07062l-0.15859,0.10408l0.06939,0.17097l-0.00496,0.1239l-0.09663,0.18584l0.0954,0.23541l0.06689,0.00867l0.15611,0.19081l0.05575,0.20442l-0.01858,0.1016l0.18213,0.24903l-0.00124,0.28001l-0.16974,0.05203l0.00247,0.17965l-0.20072,0.1016l-0.06195,0.08176l-0.21434,0.13256l-0.18088,0.13504l-0.1363,-0.0446l-0.13009,0.15611l-0.21434,-0.24161l0.07682,-0.14124l-0.26267,-0.24284l-0.18584,-0.03718v0.10037l-0.22178,0.05452l-0.0062,-0.06071l-0.13877,-0.01487l-0.10902,0.08176l0.03098,0.1524l-0.65666,0.08176l0.04089,0.0793l-0.24903,0.04956l-0.13256,0.08549l-0.2131,0.04336l-0.01115,0.13753l-0.11895,0.14867l0.04213,0.19576l-0.44107,0.05575l-0.16232,0.04584l-0.29859,0.02478l-0.10035,0.05947l-0.34444,0.13257l-0.35806,0.05327l-0.16974,-0.09787l-0.1524,-0.17345l-0.39399,0.0161l-0.18832,-0.03221l-0.19081,-0.1239l-0.15488,-0.1462l-0.18584,-0.14l-0.27381,-0.08177l-0.14867,-0.18832l-0.52532,-0.36921"></path></g></g></svg>