<svg version="1.1" xmlns="http://www.w3.org/2000/svg" xmlns:xlink="http://www.w3.org/1999/xlink" width="9.72854" height="19.30849" viewBox="0,0,9.72854,19.30849"><g transform="translate(-282.69757,-68.10703)"><g fill="#ff0000" fill-rule="evenodd" stroke="#ffffff" stroke-width="0" stroke-linecap="round" stroke-linejoin="round" stroke-miterlimit="10"><path d="M292.15365,79.36871l0.23533,0.3413l-0.08946,0.13626v0.1913l0.0867,0.40461l-0.14175,0.03853l-0.04542,0.12938l-0.1913,0.14038l0.13349,0.139l-0.03579,0.1569l0.11973,0.19542l0.20093,0.18167l-0.07018,0.33855l-0.05917,0.07432l-0.04954,0.27524l-0.17341,0.03715l0.17754,0.19543l-0.00688,0.11835l-0.26974,0.1156l-0.17341,0.12524l-0.00963,0.12387l0.09772,0.18304l-0.05643,0.13074l-0.12248,-0.09772l-0.17617,0.00551l-0.14863,0.13487l-0.13763,-0.04267l-0.13625,0.04679l-0.0867,0.2078l-0.25736,0.15964l-0.05367,0.18854l0.03992,0.15276l-0.03029,0.19266l-0.11698,0.10046l0.12387,0.13762l-0.14726,0.39635l-0.4225,0.07844l-0.06056,0.11147l-0.11423,0.57665l-0.19818,0.18028l-0.00276,0.2023l-0.33167,0.13626l-0.11973,0.20368l-0.18165,0.14726l-0.13763,-0.00963l-0.16102,0.17754l-0.18028,-0.04817l-0.08946,0.13212l-0.00276,0.36195l-0.14175,0.18304l-0.10734,0.03578l-0.15964,0.19542l-0.19543,-0.12523l-0.27387,0.01927l-0.17065,0.13349l-0.10184,-0.17065l-0.15413,-0.13075l-0.1101,0.03853l-0.39361,-0.04129l-0.04954,-0.25322l-0.139,-0.06194l-0.19405,-0.32754l-0.12387,-0.08119l-0.18716,0.05367l-0.2601,-0.02341l0.12524,-0.39911l0.02477,-0.43076l0.05643,-0.29176l0.20919,-0.278l0.08809,-0.2078l0.13487,-0.12798l0.13899,-0.27663l0.07431,-0.06468l0.16377,-0.31515l0.07569,-0.28901l0.00551,-0.42801l-0.04403,-0.10459l0.1913,-0.09084l0.34268,0.08258l0.18304,-0.31929l0.04267,-0.23534l0.01789,-0.36882l-0.08809,-0.21607l0.15139,-0.10184l0.03853,-0.28074l0.06468,-0.10322l-0.03853,-0.23397l0.06744,-0.14726l-0.00826,-0.20506l-0.10597,-0.54637l-0.07844,-0.13762l0.08395,-0.24634l-0.07569,-0.08808l-0.11147,-0.45002l-0.21883,-0.07018l0.03578,-0.09909l-0.13349,-0.36609l-0.13625,-0.12248l-0.03165,-0.11835l-0.16513,-0.15827l-0.01927,-0.10459l0.22571,-0.14588l0.22845,-0.09358l0.45002,0.07155l0.139,-0.06331l0.11284,0.15414l0.28075,-0.10322l0.24909,0.02891l0.00551,-0.20782l0.07018,-0.14588l0.18992,-0.01238l0.12524,-0.09358l0.09909,0.14726l-0.11698,0.11973l0.35369,0.24496l0.02891,0.0922l0.34544,0.12111l0.11284,0.10322l0.41975,-0.08532l0.13625,0.20782l0.14038,-0.06331l0.1624,0.04817l0.10873,0.12248l0.13074,-0.139l0.24496,0.00688l0.13075,0.24634l0.17203,0.08808l0.32066,-0.0055l0.07019,0.03992l0.33718,0.2078"></path><path d="M288.50664,68.68914l0.16377,0.10183l0.14313,0.15964l0.23533,-0.0055l0.04679,0.12798l0.1789,-0.05506l0.03992,0.24496l0.25048,0.13625l-0.14588,0.36195l-0.2202,0.26149l-0.05092,0.26837l-0.14175,0.26837l-0.20092,0.17891l0.05367,0.18992l0.02202,0.37021l0.13487,0.24772l-0.011,0.17891l0.07707,0.26837l0.07844,0.1156l-0.10459,0.15552l-0.17478,0.04542l-0.41012,0.25322l-0.3702,0.12661l-0.17478,0.29589l-0.19266,-0.02752l-0.11698,0.27524l-0.36882,0.01788l-0.16651,0.13625l0.0922,0.09772l-0.13487,0.41012l0.04403,0.11423l-0.24359,0.18855l-0.13626,0.2202l-0.10322,0.03715l-0.13763,-0.12111l-0.18992,0.02752l-0.09909,0.45416l0.1445,0.03028l-0.04817,0.15828l0.10873,0.20368l0.05092,0.25598l-0.10736,0.05093l-0.19542,-0.02477l-0.18165,0.19818l0.00964,0.1445l-0.16378,0.10322l-0.30828,-0.15139l-0.08808,0.02752l-0.15964,0.23809l-0.1968,0.14726l-0.0055,0.29176l-0.12248,0.26837l0.02339,0.25185l-0.10873,0.08119l-0.23121,-0.56288l-0.11835,-0.17065l-0.01789,-0.16377l-0.17341,-0.13349l-0.02339,-0.3124l-0.23121,-0.20782l-0.14313,0.04679l-0.38259,-0.14313l-0.15964,0.02614l-0.02615,-0.11697l-0.16927,0.00276l-0.08809,-0.08532l-0.06468,-0.1968l-0.12937,-0.12799l-0.06056,-0.20506l0.14863,-0.24222l-0.1913,-0.4803l-0.06468,-0.03029l0.07155,-0.50231l0.11974,-0.43627l0.20782,-0.06331l0.0867,-0.18304l0.16927,-0.15413l0.02202,-0.12661l0.17341,-0.22845l0.09772,-0.22571l0.13899,-0.49958l-0.02202,-0.21194l0.11561,-0.41012l-0.08946,-0.25598l0.03302,-0.2601l-0.08532,-0.34131l0.05506,-0.26149l-0.14313,-0.51058l-0.04267,-0.39361l-0.06056,-0.06468l-0.07431,-0.32617l-0.00138,-0.33855l0.30965,-0.00276l0.13763,0.08121l0.76105,-0.14588l0.09359,0.07844l0.29312,-0.02339l0.05367,0.11423l-0.15552,0.21745l0.06605,0.13348l0.41423,0.02752l0.06194,0.08119l0.31929,0.09772l0.22845,-0.03716l0.15,0.14863l0.07431,0.29589l0.13762,-0.07982l0.19266,0.12249l0.32891,-0.10597l0.31653,0.10186l0.15139,0.15414l0.18992,-0.0578l0.07157,-0.2202l0.18442,-0.08395l0.02614,-0.26697l0.12387,-0.00827l0.07569,-0.24084l-0.13212,-0.1445l0.04403,-0.28626l0.289,-0.03715l0.17341,0.10597l0.04817,0.16515l0.00826,0.31103"></path></g></g></svg>