<svg version="1.1" xmlns="http://www.w3.org/2000/svg" xmlns:xlink="http://www.w3.org/1999/xlink" width="13.07111" height="8.0706" viewBox="0,0,13.07111,8.0706"><g transform="translate(-199.63632,-208.02484)"><g fill="#ff0000" fill-rule="evenodd" stroke="#ffffff" stroke-width="0" stroke-linecap="round" stroke-linejoin="round" stroke-miterlimit="10"><path d="M207.65618,208.04341l0.02725,0.17097l0.18337,0.17593l0.2131,0.03346l0.08426,0.09663l0.33823,-0.01858l0.13877,0.04833l0.09912,0.16479l0.09912,0.00496l0.24284,-0.08797l0.15859,0.09044l0.36178,-0.01611l0.13256,-0.11026l0.12639,-0.0062l0.06442,0.10532l0.11895,0.05204l0.15982,0.22921l0.07433,0.19452l0.29239,0.057l0.06319,0.11895l0.14495,0.0446l0.14992,-0.13753l0.20318,0.02229l0.07682,-0.06939l0.06442,-0.1747l-0.01981,-0.19699l0.10779,-0.08921l0.33823,-0.02973l0.10902,0.22054l0.20319,0.00124l0.25399,-0.09787l0.0508,0.12018l-0.0446,0.16478l0.16479,0.15239l-0.00867,0.13504l0.11646,0.0793l0.04336,0.11895l0.00247,0.23417l-0.03593,0.13504l0.15239,0.35063l-0.04213,0.13256l-0.36798,0.11151l-0.10035,-0.1016l-0.09541,0.09541l-0.21929,-0.00124l-0.07186,0.06071l-0.06689,0.22177l-0.28001,0.21434l-0.09664,0.19452l-0.19328,0.08797l-0.12142,0.14l-0.23044,0.09788l-0.08797,-0.06815l-0.10037,0.02229l-0.08796,-0.10407l-0.09293,0.01858l-0.12266,0.16973l0.04213,0.20195l-0.09044,0.14867l0.04213,0.08673l-0.18337,0.08426l-0.05823,0.08426l0.10037,0.11151l-0.26142,0.24655l-0.1747,-0.10035l-0.14992,0.13009l0.03593,0.11646l-0.08673,0.14744l-0.14001,0.10284l-0.09663,0.00992l-0.15115,0.22053l-0.0446,0.14744l-0.10283,0.13256l-0.19328,-0.07186l0.02354,-0.11646l-0.12142,-0.12514l-0.29612,-0.02725l-0.40267,0.04833l-0.40143,0.07062l-0.7471,0.17965l-0.11399,0.14497l-0.1363,-0.01859l-0.08301,0.12266l-0.09787,-0.03345l0.03469,-0.40143l0.07433,-0.11769l-0.13504,-0.04584l0.0062,0.17717l-0.15859,0.07433l-0.00743,0.11399l0.11646,0.18337l0.02478,0.10532l0.17097,0.03964l-0.34939,0.1239l-0.37541,0.17097l-0.19328,0.13133l-0.39151,0.19328l-0.09788,0.07682l-0.14867,-0.04708l-0.07433,0.0384l-0.04833,0.1462l-0.16726,-0.00992l-0.02973,-0.14867l-0.13009,0.1016l-0.16107,-0.03221l0.11026,0.17345l-0.24284,0.0892l-0.21434,-0.04213l-0.07433,0.03469l-0.057,0.17841l0.14124,-0.00991l0.19081,-0.06938l0.07062,0.06195l0.2069,-0.15859l0.09788,-0.16479l0.09787,0.14991l0.13133,-0.01487l0.08301,-0.14001l0.20689,0.17345l-0.0161,0.11646l-0.14124,-0.01982l-0.0508,0.10902l-0.08921,-0.02229l-0.29115,0.09044l-0.03593,0.06566l-0.17964,0.04336l-0.58852,0.0161l-0.08426,0.12514l-0.23417,0.13876l-0.22424,0.07186l-0.14248,-0.07309l-0.3531,0.20442l0.03221,0.15115l-0.05575,0.17097l0.0446,0.10532l-0.24779,-0.25894l-0.03469,-0.10037l-0.12142,-0.06938l-0.03964,-0.14371l-0.17097,0.00991l-0.06319,-0.05574l-0.17222,0.06566l-0.14248,-0.00744l-0.057,-0.07186l-0.0446,-0.23044l0.24779,0.01239l0.1747,-0.10284l-0.0384,-0.08426l0.01982,-0.27133l0.11151,-0.02849l0.18461,0.02725l0.23788,-0.06691l0.08673,-0.12018l-0.08549,-0.15859l-0.22301,-0.13877l-0.15362,-0.00867l-0.07806,-0.07186l-0.11769,-0.00496l-0.10284,-0.09663l-0.16726,0.0161l-0.06071,0.10902l-0.28496,0.00124l-0.22178,0.12513l-0.14495,0.0062l-0.1747,0.08797l-0.11647,0.10902l-0.14495,-0.12886l-0.2131,-0.01239l-0.06319,-0.19576l-0.0892,-0.04831l-0.02849,-0.15982l-0.1747,0.07681l-0.12762,-0.07062l-0.23541,-0.02478l-0.02478,-0.14248l0.25894,-0.31594l0.0446,-0.21559l0.2639,-0.18337l0.04213,-0.09912l-0.00373,-0.23912l-0.19203,-0.20442l0.02973,-0.14495l0.1016,-0.16974l0.15611,-0.07062l0.11895,-0.11275l-0.15362,-0.20566l0.09663,-0.41753l0.19576,-0.10779l0.19699,0.01735l0.12143,-0.05204l0.06195,-0.2069l-0.02849,-0.21682l0.07558,-0.14495l0.23912,-0.09416l-0.05947,-0.16355l0.26515,-0.23912l-0.04213,-0.27752l0.1623,-0.10779l0.15859,-0.15735l0.11152,-0.38285l0.13628,-0.01362l0.19948,0.2131l0.21187,-0.03469l0.25152,-0.16602l0.06566,-0.16355l-0.02106,-0.09293l0.10407,-0.21682l0.18584,-0.09167l0.11895,0.04584l0.20442,0.19081l0.19824,0.01735l0.08673,-0.09787l0.15239,-0.05204l0.12637,-0.14248l0.16355,0.07433l0.28124,0.07309l0.11274,-0.17593l0.29859,-0.0446l0.09416,0.06442l0.39399,0.0062l0.34196,0.03221l0.09416,0.04708l0.10408,-0.09912l0.02229,-0.1846l0.10407,0.01362l0.10283,-0.09416v-0.12637l0.12142,-0.05947l-0.00373,-0.08053l0.17345,-0.15735l0.08921,-0.00247l0.26019,0.21062l0.18337,-0.10902l0.04089,-0.06689l0.18461,-0.01362l0.20072,0.13009l0.09912,-0.12142l0.10902,-0.04213l0.20567,0.01858"></path></g></g></svg>