<svg version="1.1" xmlns="http://www.w3.org/2000/svg" xmlns:xlink="http://www.w3.org/1999/xlink" width="6.95162" height="7.99808" viewBox="0,0,6.95162,7.99808"><g transform="translate(-171.11849,-233.0623)"><g fill="#ff0000" fill-rule="evenodd" stroke="#ffffff" stroke-width="0" stroke-linecap="round" stroke-linejoin="round" stroke-miterlimit="10"><path d="M176.10374,233.26887l0.15249,0.22627l0.1033,-0.03197l0.05533,0.14634l0.31357,-0.0246l0.13035,0.13035l0.07501,0.27299l0.00984,0.20168l0.08609,0.17094l-0.29512,0.16478l0.07501,0.12666l0.00246,0.1943l-0.11806,0.12173l0.00615,0.22627l-0.05287,0.14265l0.1365,0.13773l0.03198,0.17339l0.09223,0.08977l0.13035,-0.04058l0.15126,0.06271l0.04181,0.10822l0.09961,0.03812l-0.04673,0.20905l-0.0578,0.00369l-0.091,0.17708l0.0246,0.1156l0.2398,0.182l0.07379,0.16724l-0.14142,0.09837l-0.11067,-0.08116l-0.11068,0.12173l-0.00984,0.41933l0.06887,0.15987l0.1365,0.09346l0.12543,-0.24839l0.27301,0.0541l0.09469,-0.03566l0.03566,0.19676l0.05533,0.07009l-0.14511,0.14265l-0.01352,0.13895l-0.1611,0.08362l-0.07255,0.09469l0.19553,0.30006l0.03443,0.18569l-0.04058,0.18692l0.04303,0.06641l0.27547,-0.03812l0.06394,0.36644l-0.06641,0.08362l-0.04058,0.19061l-0.25454,0.04303l-0.091,0.24841l-0.17339,0.03812l-0.18077,0.13527l-0.22258,0.07132l-0.19799,0.1943l-0.10452,0.21889l0.08977,0.02705l0.14879,0.17955l0.00984,0.07993l0.20536,0.091l0.06149,0.1365l-0.16109,0.18569l-0.2398,-0.16233l-0.13527,-0.05287l-0.13281,0.09346l-0.24964,0.06026l-0.1574,-0.06149l-0.17217,-0.20168l-0.26684,-0.22381l-0.08363,0.02951l-0.22381,0.3566l-0.08362,-0.1242l-0.01722,-0.15002l-0.11436,-0.13527l-0.07255,-0.01598l-0.08238,-0.1611l0.02951,-0.12052l-0.03565,-0.13527l0.06025,-0.08239l-0.19059,-0.22627l0.05533,-0.16356l-0.02951,-0.35292l-0.21274,0.04182l-0.08854,-0.07501l-0.15003,-0.00614l-0.00492,-0.10576l0.16724,-0.17832l-0.0578,-0.12912l-0.08239,0.02336l-0.10945,-0.08854l-0.0578,0.04427l-0.45745,-0.06887l-0.14265,-0.24841l-0.20782,0.03566l-0.12913,-0.0787l-0.07379,0.01476l-0.09346,-0.14879l0.05902,-0.25702l-0.06763,-0.15495l0.10084,-0.01844l0.05903,-0.091l-0.01722,-0.13158l0.12174,-0.40088l-0.08731,-0.21766l-0.15249,-0.2693l-0.15495,-0.17094l-0.30867,-0.12666l-0.27545,0.02459l-0.1574,-0.12789l-0.13281,-0.34062l-0.12666,-0.08362l-0.06763,-0.27422l-0.02214,-0.26807l-0.18938,-0.12666l-0.03689,-0.11682l-0.13527,-0.04303l-0.14634,-0.17339l-0.38981,-0.13773l-0.00369,-0.28283l0.15249,-0.1242l0.05657,-0.21889l0.4058,-0.03812l0.07255,0.09591l0.091,-0.06763l0.15371,0.02951l0.35047,0.00123l0.15863,0.06394l0.02582,-0.06886l0.19799,-0.10945l0.22258,0.10945l0.06518,-0.03075l0.08608,-0.19182l0.10698,-0.08731l0.23611,-0.07132l0.10698,-0.11068l0.12666,0.12174l0.13773,0.03935l0.06271,0.08854l0.14141,-0.04673l0.13527,0.06149l0.07747,-0.06763l0.16109,-0.0123l0.00246,-0.23119l0.22012,-0.16356l0.02214,-0.14511l0.11559,-0.16601l0.1156,-0.07132l0.06763,0.06641l0.23857,-0.00122l0.08854,0.12543l0.17462,0.07625l0.13158,-0.05288l0.31972,0.10576l0.15741,-0.11314"></path></g></g></svg>