<svg version="1.1" xmlns="http://www.w3.org/2000/svg" xmlns:xlink="http://www.w3.org/1999/xlink" width="4.51234" height="6.31376" viewBox="0,0,4.51234,6.31376"><g transform="translate(-220.05576,-197.13059)"><g fill="#ff0000" fill-rule="evenodd" stroke="#ffffff" stroke-width="0" stroke-linecap="round" stroke-linejoin="round" stroke-miterlimit="10"><path d="M222.85832,198.31751l0.11275,0.02106l0.2069,-0.10655l0.15611,-0.18832l0.11151,-0.01362l0.31223,-0.39524l0.07062,-0.15982l0.22425,-0.26017l0.22424,-0.08426l0.10037,0.11151l0.08301,0.16602l0.07186,0.02849l0.03593,0.1846l-0.10035,0.18214l-0.27381,0.28496l-0.03469,0.34567l-0.1623,0.28496l-0.22054,0.17965l-0.12639,0.16479l-0.21434,0.38903l-0.41134,0.54391l-0.07806,0.29487l0.03964,0.44851l-0.05327,0.23912l0.12266,0.17964l0.14,0.06938l0.04087,0.28869l0.12762,0.18088l0.19204,0.12266l0.06319,0.15362l0.03098,0.30479l-0.34071,0.12762l-0.31841,0.08797l-0.17097,0.11895l-0.47453,0.19699l-0.21063,0.14124l-0.17593,0.20195l-0.18213,0.12265l-0.31223,-0.00743l-0.50921,0.17593l-0.04213,-0.26886l-0.1462,-0.12266l-0.19081,-0.02849l-0.04584,-0.08177l0.12886,-0.25026l0.13134,-0.09044l-0.03346,-0.17717l-0.22177,0.18461l-0.06319,-0.0508l-0.28744,-0.03099l0.04956,-0.09416l-0.0508,-0.18584l-0.12762,-0.12637l0.00867,-0.29859l0.1462,-0.30974l0.24159,-0.10407l0.24779,0.03345l0.21557,-0.18461l0.10779,-0.22797l0.19081,-0.52532l0.10902,-0.03221l0.1462,-0.36798l0.09416,-0.08301l0.09293,-0.20319l0.08426,-0.27133l0.07806,-0.02849l0.18088,-0.26761l0.21807,0.02229l0.13009,-0.14495l0.28248,-0.55258l0.09044,-0.13504l0.13753,-0.12266"></path></g></g></svg>