<svg version="1.1" xmlns="http://www.w3.org/2000/svg" xmlns:xlink="http://www.w3.org/1999/xlink" width="16.27258" height="13.90249" viewBox="0,0,16.27258,13.90249"><g transform="translate(-322.88483,-56.22431)"><g fill="#ff0000" fill-rule="evenodd" stroke="#ffffff" stroke-width="0" stroke-linecap="round" stroke-linejoin="round" stroke-miterlimit="10"><path d="M338.06472,57.28983l-0.17753,0.12235l0.00137,0.17175l-0.13487,0.34709l0.10046,0.09056l-0.08946,0.42237l-0.10597,0.07157l-0.10184,0.18579l0.03853,0.66335l-0.18028,0.18579l-0.03302,0.26149l-0.20232,0.04403l-0.2078,0.26561v0.1968l-0.10186,0.54637l0.18028,0.25048l0.10734,-0.10873l0.13349,0.08119l0.23671,0.26286l-0.00413,0.12799l0.2202,0.20092l-0.00276,0.20643l-0.06056,0.11973l0.03441,0.2546l0.09083,0.12937l0.00276,0.1734l0.15414,0.19543l-0.07294,0.12249l0.15552,0.0867l0.26149,0.23808l0.16651,0.06605l0.25873,0.22571l0.14726,0.21194l0.278,0.18442l-0.27938,0.25736l-0.40185,0.46105l-0.32754,0.28764l-0.48994,0.48856l-0.83676,0.80097l-0.37846,0.40049l-0.556,0.53398l-0.74454,0.85463l-0.7349,0.9496l-0.02891,-0.16927l-0.07294,-0.13487l0.12937,0.18028l0.31929,-0.40185l-0.09772,-0.29176l-0.19818,0.07431l-0.01238,0.12661l0.13487,0.16789l-0.08532,0.13349l-0.21057,-0.02891l-0.06056,-0.11284l-0.22845,-0.24634l0.04954,-0.07294l-0.2546,-0.12798l0.06468,-0.23946l-0.13074,-0.09084l-0.09359,0.12938l-0.31929,-0.28075l-0.15552,-0.32066l-0.27111,-0.22983l-0.22983,0.29451l-0.11561,0.05506l0.03165,0.17203l-0.24496,-0.01927l-0.12248,0.23534l0.09772,0.23258l-0.10873,0.28074l0.10597,0.16102l-0.00963,0.139l0.22845,0.09772l0.11011,-0.08395l0.1156,0.06468l0.12248,0.25048l-0.00276,0.27524l0.55875,0.63719l-0.64133,0.19405l-0.38534,0.14863l-0.11835,-0.39224l-0.4225,-0.19955l-0.54498,0.23533l-0.48994,-0.2601l-0.54637,-0.18442l0.08809,-0.16514l-0.15964,-0.0867l0.51746,-0.26148l0.23946,-0.1679l0.29865,-0.07431l0.12248,-0.62206l-0.02615,-0.09496l-0.45415,-0.06056l-0.10873,-0.14588l0.21745,-0.86428l0.03302,-0.37709l0.07019,-0.19405l-0.49957,-0.12937l-0.11423,0.4459l-0.44728,-0.11423v0.10322l-0.22845,0.05367l-0.02202,-0.09909l0.10322,-0.3702l-0.52572,-0.15139l-0.12523,0.02615l-0.13626,0.1913l-0.28075,-0.16927l-0.04817,0.08395l-0.18442,-0.10873l-0.05917,0.18167l-0.21883,0.1968l-0.13212,0.17341l0.12937,0.15689l-0.36745,0.62482l-0.139,0.08946l-0.07569,0.16927l-0.11423,-0.00413l-0.00276,0.17203l-0.1445,0.06605l-0.12661,-0.03302l-0.27937,0.18992l-0.22571,0.01789l-0.17478,0.10046l-0.1156,-0.06743l-0.28901,0.00826l-0.18304,-0.0867l-0.25598,0.22434l-0.30276,-0.31653l-0.1156,-0.00963l-0.15002,-0.16377l0.07018,-0.24772l-0.01238,-0.37846l0.09358,-0.1679l-0.17753,-0.21883l-0.40874,0.15276l-0.11423,-0.08946l-0.37021,-0.04128l-0.39361,0.18855l-0.11147,-0.12938l0.03166,-0.21469l-0.03579,-0.36883l-0.08946,-0.0523l-0.20643,0.06468l-0.12937,-0.21469l-0.13212,-0.10047l-0.27663,-0.00826l-0.11284,-0.21331l0.15,-0.32891l0.30278,-0.15413l-0.04679,-0.14588l0.07155,-0.15552l-0.01927,-0.23258l0.12524,-0.28488l0.03853,-0.30552l0.15964,-0.21469l0.17891,-0.08532l0.2133,0.01238l0.21469,-0.22845l-0.03302,-0.10597l-0.19405,-0.06331l-0.1156,-0.38535l-0.09358,-0.09358l0.20368,-0.39635l0.0977,-0.12661l-0.07707,-0.20369l-0.17753,-0.11284l-0.13625,-0.41975l0.07294,-0.19542l0.09772,-0.0468l0.01927,-0.22157l-0.2546,-0.15827l-0.05506,-0.13487l0.18579,-0.15276l0.29451,-0.03853l0.17341,-0.0922l0.10322,-0.12938l0.24772,-0.15689l0.13075,0.01927l0.2202,-0.06193l0.17617,0.02615l0.00137,-0.14038l0.12248,-0.18855l-0.07294,-0.15l0.54774,-0.16377l-0.12661,-0.3303l0.45829,-0.10047l-0.03716,-0.47617l0.15414,-0.02477l0.05367,0.278l0.19955,0.23808l0.00137,0.09084l0.29451,0.36607l0.26974,0.19268l0.4693,0.45002l0.55324,0.33305l0.11147,0.09909l-0.0922,-0.96613l-0.31377,-0.15689l0.46929,-1.80837l1.0418,0.26576l-0.27663,-0.26149l-0.17617,-0.28942l0.0578,-0.31282l-0.08258,-0.12042l0.02065,-0.15l-0.12798,-0.2195l-0.11561,-0.31887l0.0454,-0.1606l0.63719,0.15523l1.52761,0.39994l-0.06056,0.1163l1.48909,0.24552l0.16102,0.04583l-0.03578,0.16955l0.25874,0.03715l0.09359,-0.21661l-0.05368,-0.15854l0.15276,-0.09922l-0.07569,-0.13129l0.03715,-0.25419l0.10873,-0.21593l0.9083,0.08395l0.17341,0.08766l0.17617,-0.00937l0.19542,0.12248l0.24222,-0.06151l0.16927,0.14272l0.22983,0.33593l0.1101,0.3146l0.13075,-0.05574l0.00137,-0.169l1.08447,-0.6987l0.09496,0.16185l0.27111,0.19872l0.14175,0.02794l0.09496,0.1997l0.29865,0.16156l0.21057,-0.173l0.45554,-0.04184l0.11834,0.13294l0.14588,0.01184l-0.03853,0.19915"></path></g></g></svg>