<svg version="1.1" xmlns="http://www.w3.org/2000/svg" xmlns:xlink="http://www.w3.org/1999/xlink" width="42.71851" height="28.27032" viewBox="0,0,42.71851,28.27032"><g transform="translate(-216.42935,-166.96128)"><g fill="#ffffff" fill-rule="evenodd" stroke="none" stroke-linecap="square" stroke-miterlimit="10"><path d="M230.00476,166.96128c1.94161,0 3.69982,0.4269 5.27461,1.28071c1.57479,0.8538 2.81753,2.05861 3.72825,3.61442c0.02188,0.03712 0.0435,0.07441 0.06486,0.11186c0.01621,-0.02472 0.03255,-0.04935 0.04898,-0.07391c1.03089,-1.53686 2.36218,-2.74165 3.9939,-3.61443c1.63802,-0.8791 3.42787,-1.31865 5.36948,-1.31865c2.0175,0 3.82313,0.42689 5.41689,1.2807c1.59377,0.8538 2.86496,2.05861 3.81363,3.61443c0.955,1.55582 1.4325,3.42154 1.4325,5.59715v17.77804h-5.30304v-16.72502c0,-2.06177 -0.63244,-3.684 -1.89732,-4.86667c-1.25857,-1.189 -2.82073,-1.7835 -4.68645,-1.7835c-1.28386,0 -2.44125,0.27196 -3.47212,0.81587c-1.03089,0.54391 -1.85622,1.30284 -2.47602,2.2768c-0.61981,0.96765 -0.92969,2.13451 -0.92969,3.50058v16.78194h-5.24614v-16.72502c0,-2.06177 -0.63243,-3.684 -1.89732,-4.86667c-1.26489,-1.189 -2.84916,-1.7835 -4.75283,-1.7835c-1.27754,0 -2.42228,0.27196 -3.43418,0.81587c-1.01191,0.54391 -1.83094,1.30284 -2.45706,2.2768c-0.61981,0.96765 -0.9297,2.13451 -0.9297,3.50058v16.78194h-5.23664v-27.68214h5.23664v3.2247c0.80819,-1.01789 1.80112,-1.84929 2.97881,-2.49422c1.59377,-0.8791 3.38044,-1.31865 5.35998,-1.31865z"></path></g></g></svg>