<svg version="1.1" xmlns="http://www.w3.org/2000/svg" xmlns:xlink="http://www.w3.org/1999/xlink" width="8.54023" height="13.79836" viewBox="0,0,8.54023,13.79836"><g transform="translate(-230.93758,-194.53744)"><g fill="#ff0000" fill-rule="evenodd" stroke="#ffffff" stroke-width="0" stroke-linecap="round" stroke-linejoin="round" stroke-miterlimit="10"><path d="M233.27803,194.58821l0.05947,0.35063l0.16107,0.11895l0.13256,0.16479l-0.02849,0.11522l0.33328,0.07806l0.1276,-0.02478l0.14495,0.04336l0.19948,0.15362l0.23788,-0.00124l0.1239,0.08797l0.17717,-0.00496l0.15859,-0.11522l0.1747,0.06689l0.08921,-0.32214l0.06939,-0.03098l0.16355,-0.31346l0.15735,0.01487l-0.07062,0.12266l0.11522,0.10407l0.10655,-0.02106l0.17097,-0.13876l0.04213,0.11151l0.17965,-0.01859l0.1016,0.07433l0.06319,0.16355l0.00124,0.16602l0.16726,0.03469l0.06815,-0.06566l0.10779,0.14371l0.15982,0.02602l0.03098,-0.11522l0.12514,-0.09663l0.03098,-0.2131l0.1685,-0.06442l0.15488,0.22178l0.0384,0.13876l-0.05947,0.07309l-0.14991,0.05452l0.07062,0.09663l0.18832,0.03098l0.08673,0.28124l0.05452,0.05575l-0.10779,0.25027l-0.16479,0.1016l0.11275,0.26886l-0.05824,0.17841l-0.0793,0.03469l-0.19699,0.2924l0.06814,0.11274l-0.02849,0.19204l0.13628,0.08053l-0.0062,0.08301l0.13753,0.02602l0.24284,0.15735l0.24284,0.01239l0.09912,0.14992l0.26017,-0.19204l0.08673,0.05204l0.11026,-0.05947l0.05327,0.19576l0.14867,0.17841l-0.0508,0.20938l0.17841,0.06319l0.14248,-0.1016l0.20195,-0.08301l0.12266,0.19699l-0.06319,0.21929l0.17717,0.09912l-0.0062,0.08549l-0.15982,0.11895l-0.07806,0.21187l-0.04833,0.28001l-0.20938,-0.03346l-0.1239,0.07682l-0.25152,-0.05327l-0.08426,0.10779l-0.24903,-0.04833l-0.16479,0.03593l-0.08301,0.10532l-0.19081,0.00744l-0.08921,0.09663l0.01982,0.19081l-0.17097,0.15363l-0.08921,0.24778l0.20815,0.14495l0.11647,0.29859l0.01487,0.15362l0.07062,0.20195l0.08426,0.10408l0.16107,0.05575l0.09044,0.13876l-0.22178,0.16726l-0.13876,-0.00744l-0.06815,0.06071l0.03593,0.18957l0.19328,0.15115l0.07433,0.19575l-0.0161,0.07682l0.16973,0.13009l-0.08797,0.15859l-0.17345,0.17965l0.08176,0.09293l-0.02229,0.18461l-0.22178,0.12513l-0.06071,0.18088l0.20072,0.07806l-0.04089,0.20319l0.11275,0.16107l-0.11152,0.12514l-0.04708,0.16726l0.08053,0.21683l-0.10779,0.0954l0.05452,0.08053l-0.02106,0.28496l0.1685,0.2131l-0.24656,-0.06815l-0.02725,0.29487l0.03964,0.13753l-0.06071,0.13877l0.06939,0.04956l0.08301,0.26761l-0.10037,0.06691l-0.29364,-0.17097l-0.1276,0.02354l-0.28992,-0.06319l-0.09044,0.06938l-0.10779,-0.06938l-0.07433,0.0446l-0.02478,0.13381l-0.0954,0.07309l-0.04584,0.14744l-0.1747,0.11399l-0.06071,0.15859l-0.12389,0.08426l-0.16974,0.02106l-0.08549,0.06319l-0.33949,-0.0161l-0.13504,0.13133l0.00373,0.07186l-0.16974,0.20815l-0.10532,0.057l-0.00867,0.16232l0.06566,0.18708l0.13256,0.12266l-0.13628,-0.04708l-0.0508,0.23044l-0.16355,-0.04833l-0.14744,-0.07558l-0.12637,0.19824l0.03469,0.20938l0.12513,-0.02229l0.13753,0.1462l-0.09787,0.08921v0.1685l-0.15611,-0.01735l-0.05327,-0.15488l-0.07186,-0.13256l0.03964,-0.08673l-0.11151,-0.13256l-0.11647,0.01982l-0.25522,-0.15239l-0.15982,0.0384l-0.01982,0.10779l-0.11398,0.01734l-0.18461,0.09664l-0.14371,-0.03966l-0.12637,0.08426l-0.18708,-0.09044l-0.2069,-0.17965l-0.47949,-0.0062l-0.083,0.08177l-0.09541,-0.03345l-0.12886,0.04336l0.01982,0.12639l-0.17593,0.18214l-0.15488,-0.00124l-0.21682,0.07309l0.10902,-0.18957l-0.09044,-0.21929l-0.16479,0.00496l-0.07681,-0.13628l0.12637,-0.06939l0.04833,-0.18337l-0.057,-0.10283l0.09044,-0.07186l0.0161,-0.26514l0.09044,0.06566l0.14248,-0.00496l-0.01487,-0.1276l0.057,-0.1239l-0.0446,-0.33575l-0.07186,-0.01735l-0.11274,-0.28001l-0.16602,-0.057l-0.15735,0.02973l-0.05204,-0.11646l0.1016,-0.18832l-0.06319,-0.17965l-0.08177,-0.04089l-0.09167,-0.14124l-0.16726,-0.01735l-0.0446,-0.08921l-0.18955,-0.07186l-0.10532,-0.10902l0.12514,-0.14371l-0.00124,-0.23292l0.19948,-0.18337l0.16106,-0.05327l0.07186,-0.23665l0.00744,-0.12637l0.07062,-0.12514l0.38408,-0.14124l-0.0161,-0.11399l0.09912,-0.16232l0.16602,-0.09416l-0.00867,-0.12514l-0.08426,-0.19576l0.1685,-0.21557l0.08921,0.04089l0.15488,-0.11895l0.12266,0.01115l0.20072,0.0954l0.17222,0.13257l0.07186,-0.09293l0.17222,-0.09416l0.03098,-0.16355l-0.08176,-0.12637l-0.06195,-0.34814l-0.32089,-0.22425l-0.12018,0.12142l-0.12389,-0.16974l0.02973,-0.09912l-0.07433,-0.13256l-0.03469,-0.17593l0.02106,-0.25646l-0.09663,-0.01735l0.03964,-0.42869l-0.0954,-0.16106l-0.05823,-0.25522l0.18337,-0.20815l0.12018,-0.03593l0.057,-0.14124l-0.13381,-0.07186l-0.0508,-0.15859l0.16479,-0.12266l0.10407,-0.28619l-0.057,-0.06938l0.02973,-0.41383l-0.07186,-0.14248l-0.02725,-0.20442l0.00124,-0.28372l-0.1747,-0.06195l-0.0446,-0.2131l-0.07433,-0.04708l0.057,-0.21559l0.19328,-0.15611l-0.03469,-0.06814l0.13876,-0.12886l-0.08549,-0.25522l-0.28001,-0.03346l0.08176,-0.28868l0.05327,-0.09664l0.01362,-0.3085l0.08549,-0.16602l-0.00124,-0.08921l0.09416,-0.1623l-0.06939,-0.18708l0.00373,-0.18213l0.12018,-0.13628l0.23044,-0.15735l-0.05947,-0.29735l0.06691,-0.14001l0.09787,-0.07806l-0.04461,-0.24779l0.06691,-0.13628l0.10158,0.1016l0.10407,-0.0508"></path></g></g></svg>