<svg version="1.1" xmlns="http://www.w3.org/2000/svg" xmlns:xlink="http://www.w3.org/1999/xlink" width="9.58814" height="6.44901" viewBox="0,0,9.58814,6.44901"><g transform="translate(-302.04741,-60.469)"><g fill="#ff0000" fill-rule="evenodd" stroke="#ffffff" stroke-width="0" stroke-linecap="round" stroke-linejoin="round" stroke-miterlimit="10"><path d="M311.59979,62.48235l-0.41837,0.18718l-0.42113,0.28213l-0.2133,0.3124l0.0399,0.1679l-0.12111,0.33718l0.06193,0.14725l-0.34544,0.16378l0.16102,0.17617l-0.00413,0.18442l-0.15139,0.07982l-0.2546,0.3647l-0.3303,0.18028l-0.21744,0.18167l-0.20506,-0.01377l-0.3124,-0.07981l-0.27524,-0.02202l-0.37984,0.07982l-0.22983,0.00137l-0.16514,0.24222l-0.27937,0.29176l-0.15,0.01238l-0.2546,-0.14313l-0.19818,0.07294l-0.24359,-0.04954l-0.31929,0.00413l-0.36607,-0.11146l-0.13349,-0.15276l-0.17617,0.06194l-0.38672,-0.05367l0.03165,0.36745l-0.00413,0.40461l-0.12661,0.09772l-0.22571,0.45691l-0.18992,0.00413l-0.01514,0.11835l-0.17203,0.08121l-0.26286,-0.06881l-0.23946,0.04403l-0.15827,-0.03164l-0.15139,-0.16927l-0.57251,-0.38534l-0.10459,0.05917l-0.10047,0.23533l-0.34818,-0.00826l-0.12248,-0.03715l-0.17478,0.25185l-0.07569,0.02477l-0.0399,-0.47066l-0.08808,-0.12111l-0.10183,-0.26837l-0.02065,-0.36332l0.25048,-0.3303l0.10459,-0.29314l0.32341,-0.06193l0.11835,-0.07432l-0.16651,-0.29312l0.17754,-0.13763l0.15,-0.47205l0.18578,-0.16102l0.0055,-0.3014l0.40874,-0.1734l0.08808,-0.18167l0.14313,-0.06607l0.1569,0.08258l0.08119,0.18304l0.19405,0.04542l0.31653,-0.11423l0.17203,-0.28213l0.63856,0.05506l-0.04129,-0.13625l0.04267,-0.22571l0.15276,-0.15827l0.36883,-0.46516l0.10597,-0.19404l0.06193,-0.42389l0.1913,-0.37433l-0.04267,-0.09358l0.13075,-0.46516l0.15827,0.00826l0.35094,0.12798l0.33992,-0.11423l0.27387,-0.04954l0.16651,0.15414l-0.00963,0.20919l0.09633,0.1789l0.24496,0.1679l0.22845,0.06605l-0.011,0.16514l0.17203,0.1101l0.05643,0.35232l0.21194,0.16377l-0.03578,0.25322l0.13487,0.29451l-0.10873,0.10872l0.01238,0.3303l0.15414,0.07431l0.24496,-0.48718l0.09359,0.04954l0.05367,0.16514l0.11011,0.07294l0.1266,-0.36332l0.29176,-0.14038l0.13349,-0.01651l0.08532,-0.21331l0.0867,-0.06605l0.12798,-0.23946l0.19268,0.20093l0.06743,0.14863l0.13763,0.06193l0.42387,-0.01377l0.08809,0.04403l0.32754,-0.10597l0.24222,0.20643l-0.03578,0.08119M303.97272,64.92792l-0.1445,0.35369l-0.39085,-0.04954l-0.22983,0.09909l-0.08532,0.2601l0.09909,0.27524l0.11423,0.13763l-0.06193,0.13075l0.41425,0.3358l0.14038,0.01375l0.32893,-0.27249l0.15827,-0.24634l0.1968,-0.10046l0.32617,0.01927l0.13075,-0.09496l0.30689,-0.04817l-0.0867,-0.27387l0.02065,-0.23946l-0.60004,-0.4982l-0.20919,-0.09772l-0.18304,-0.00276l-0.24496,0.29865"></path></g></g></svg>