<svg version="1.1" xmlns="http://www.w3.org/2000/svg" xmlns:xlink="http://www.w3.org/1999/xlink" width="10.95196" height="16.80201" viewBox="0,0,10.95196,16.80201"><g transform="translate(-348.75979,-35.40732)"><g fill="#ff0000" fill-rule="evenodd" stroke="#ffffff" stroke-width="0" stroke-linecap="round" stroke-linejoin="round" stroke-miterlimit="10"><path d="M358.04935,49.29668v0.02531l-0.20919,-0.0106l-0.12248,-0.1262l-0.33992,-0.03496l0.05917,0.12908l-0.03028,0.15523l-0.06744,-0.10033l-0.25322,0.18387l0.00276,0.18676l-0.08809,0.17093l-0.16102,0.06331l-0.32341,0.32974l-0.21606,-0.03592l-0.36884,0.23424l-0.32891,0.07955l-0.05092,0.06744l-0.3702,0.00674l-0.19266,0.16253l-0.18855,0.041l0.35369,0.39114l-0.0867,0.18745l-0.73353,0.67339l-0.30966,-0.01445l-0.12937,0.12455l-0.13487,0.02285l-0.45966,-0.49792l-0.16927,0.12538l-0.3358,0.03496l-0.24909,-0.06731l-0.05506,0.04747l-0.51472,0.03509l-0.28626,-0.08532l-0.12524,0.0461l-0.25873,-0.2224l-0.1445,0.12358l-1.05144,-1.16029l-0.7473,-0.44672l-0.32891,-0.12607l-0.15827,0.00591l-0.11561,-0.45141l0.30828,-0.1657l-0.01789,-0.18235l0.12661,-0.01748l0.18028,-0.27758l0.17754,0.01444l0.09634,0.16748l0.10597,-0.0033l0.09496,-0.1913l0.16377,-0.05849l0.0867,-0.12882l0.28764,-0.21538l0.25736,-0.06853l-0.02202,-0.14987l0.18167,-0.20933l0.20369,-0.09882l-0.03441,-0.33208l-0.09083,-0.15207l0.02615,-0.18703l-0.07294,-0.42856l0.03165,-0.38107l0.33443,0.02464l0.24084,0.05891l0.44314,-0.10734l0.18855,-0.22515l-0.03579,-0.23671l0.11284,-0.16198l0.16102,0.02821l0.1445,-0.05519l0.07982,0.19873l0.2078,0.01528l0.11835,-0.2286l-0.06056,-0.26451l0.11973,-0.17505l0.10736,-0.02739l-0.03578,-0.18042l0.2601,-0.14629l0.12661,-0.2056l-0.00826,-0.30828l-0.23121,-0.07267l-0.15,-0.12427l0.22845,-0.13418l0.40874,-0.62109l0.24634,-0.07569l0.33029,-0.03647l0.23533,-0.20422l0.04542,-0.11795l0.24496,-0.15276l-0.08946,-0.17382l-0.02065,-0.22584l0.11973,-0.14339l0.01927,-0.1602l0.14038,-0.2637l0.1445,-0.16513l0.32203,-0.03482l0.00138,-0.16914l0.07569,-0.11891l0.03715,-0.26259l0.10322,-0.1196l0.30415,-0.02285l0.18992,-0.08739l0.1679,-0.1734l0.10597,-0.327l0.25322,-0.30566l0.01927,-0.15166l0.12661,-0.25695l0.14725,0.00633l0.11423,-0.24069l0.13074,-0.05312l0.05367,-0.19446l0.48718,-0.17822l0.09496,-0.18455l0.13349,-0.02119l0.14176,-0.12951l0.20093,-0.06744l0.17478,0.00247l0.01788,-0.22501l0.18716,-0.13969l-0.08808,-0.07597l0.06743,-0.17355l-0.11698,-0.12414l0.04542,-0.37049l0.10322,-0.06345l0.18992,-0.4448l0.17341,-0.11174l0.09909,-0.40241l-0.05506,-0.16927l0.07019,-0.31419l0.08395,-0.10914l-0.03716,-0.30938l0.1624,-0.30552l0.0922,0.03592l-0.03302,0.27923l0.11561,0.07624l-0.05643,0.19295l0.03578,0.31473l0.24222,0.57926l-0.06468,0.25612l-0.1968,0.18826l0.01101,0.35162l-0.14726,0.17988l-0.11973,0.42773l-0.16102,0.18621l-0.18992,0.30291l-0.28213,0.33154l-0.2601,0.19928l-0.11423,0.23561l-0.07431,0.32123l-0.14036,0.3819l0.06881,0.40104l-0.30828,0.59617l-0.24359,0.14932l-0.07569,0.15442l-0.24496,0.24993l-0.04954,0.16253l-0.31515,0.32933l-0.07707,0.21016l-0.10047,0.05863l-0.16927,0.35094l-0.15276,0.50838l-0.0922,0.10474l-0.07569,0.25033l-0.17478,0.28557l0.03992,0.18497l-0.04817,0.14683l0.07155,0.21456l-0.08532,0.41686l-0.15139,0.39347l-0.278,0.24716l0.03439,0.26602l-0.06193,0.11587l0.06468,0.27071l0.01238,0.25143l0.05917,0.19666l0.2202,0.3168l0.12661,0.11354l0.03165,0.14381l0.48856,0.92098l0.0578,0.30952l0.1101,0.13349l0.18304,0.10089l0.71288,0.30209l0.49958,0.19156"></path></g></g></svg>