<svg version="1.1" xmlns="http://www.w3.org/2000/svg" xmlns:xlink="http://www.w3.org/1999/xlink" width="6.91838" height="7.67419" viewBox="0,0,6.91838,7.67419"><g transform="translate(-276.69147,-181.48491)"><g fill="#ff0000" fill-rule="evenodd" stroke="#ffffff" stroke-width="0" stroke-linecap="round" stroke-linejoin="round" stroke-miterlimit="10"><g><path d="M281.62254,182.02509l0.31717,0.26761l0.15488,0.07559l0.08797,0.28372l0.16355,0.13381l0.16726,0.06071l-0.05823,0.12018l0.09044,0.14l0.14371,-0.02725l0.10902,-0.08301l0.37666,-0.01735l0.24779,0.15362l0.13753,0.15239l0.04956,0.1685l-0.26637,-0.00744l-0.11275,-0.24903l-0.18461,0.17222l0.03346,0.1846l-0.8301,0.43364v0.08301l-0.16602,0.07681l0.00868,-0.14744l-0.3023,0.02354l-0.08426,0.13009l0.00743,0.16107l0.16602,0.17841l0.14495,-0.02478l0.08426,-0.06939l0.07309,0.12142l0.17717,0.06195l-0.15611,0.35063l0.01735,0.08053l-0.12142,0.12143l-0.21062,-0.15362l-0.12018,0.01858l0.03098,0.1363l-0.16479,0.03718l0.05451,0.15239l0.2069,0.0446l-0.09044,0.14124l0.057,0.07433l0.0062,0.20319l0.07309,0.09663l0.00124,0.1747l-0.22301,0.01982l-0.11399,0.1685l0.23788,0.03221l0.14495,-0.01115l-0.22674,0.43984l0.09044,0.16974l0.19452,-0.06938l-0.04461,-0.12266l0.15362,0.00373l0.06939,0.07062l-0.07062,0.13505l0.03964,0.10407l0.10532,0.06815l0.06442,0.13753l0.15115,0.0384l0.29983,-0.00247l0.15115,0.04089l0.08426,0.12266l-0.10655,0.05823l-0.057,0.13134l-0.16107,0.00867l0.11274,0.1685l-0.08549,0.16232l0.03221,0.09912l-0.40018,0.0384l-0.08921,0.03469l-0.22797,0.1747l-0.14991,0.22425l0.10408,0.32461l0.19824,0.03964l0.01982,0.08673l-0.04956,0.17717l-0.09788,-0.03964l-0.28496,0.06442l-0.07682,-0.0508l-0.3085,0.02973l-0.06071,-0.2069l0.07806,-0.1338l-0.00247,-0.4262l-0.08797,-0.0508l-0.0508,-0.16107l0.04956,-0.07929l0.1747,0.01981l0.0446,-0.13876l-0.29735,-0.13134l-0.03593,-0.20442l-0.21929,-0.21929l-0.12018,-0.19452l-0.04708,-0.27257l0.02973,-0.13753l-0.23291,-0.01982l-0.00124,-0.1276l-0.15611,-0.09912l-0.16973,0.11522l-0.44107,-0.08797l-0.09044,0.04336l-0.17593,-0.15488l-0.17593,-0.04336l-0.27011,-0.02229l-0.22301,0.04833l-0.14124,-0.03222l-0.4386,0.06195l-0.36673,0.00867l-0.25771,0.09663l-0.71364,0.17717l-0.32089,0.13753l0.05327,-0.27257l-0.00247,-0.15611l-0.06071,-0.07806l0.15239,-0.13753l-0.06194,-0.09293l-0.02229,-0.17345l0.12514,-0.09912l0.22674,-0.04956l0.09912,-0.2515l0.20443,-0.00867l-0.00992,-0.12266l0.16479,-0.02479l0.11522,0.07806l0.22674,-0.04213l0.0384,-0.05947l0.14992,0.08549l0.10655,-0.07558l0.04336,-0.16479l0.17964,0.00496l-0.05327,-0.18834l0.07433,-0.46089l-0.04956,-0.19081l0.09044,-0.13009l0.01858,-0.15362l-0.07433,-0.35683l0.16974,0.01362l0.09293,-0.09912l0.14371,-0.02849l0.16973,-0.24531l0.10779,0.12266l0.1685,-0.07559l0.16107,-0.1239l0.09293,0.04089l0.05575,0.23665l0.10655,0.01362l0.00744,-0.14992l0.11769,-0.13876l0.00247,-0.23292l-0.07929,-0.11399l-0.00744,-0.24779l-0.11522,-0.01487l-0.00867,-0.13876l0.07806,-0.17097l0.17222,-0.04336l-0.07682,0.17717l0.09044,0.15983l0.17965,-0.20319l-0.13628,-0.17593l-0.38037,-0.34816l-0.13504,0.02602l-0.0446,-0.06566l0.14124,-0.15859l0.19204,0.04956l0.06319,0.13504l0.09663,0.08176l0.10532,-0.00247l-0.03346,-0.19081l0.10532,-0.08301l0.13628,-0.02849l0.13628,-0.27381l0.45966,0.15611l0.10655,0.12142l0.23664,0.09167l0.27257,0.03966l0.23541,0.13134"></path><path d="M282.6385,184.19328l-0.13009,-0.24779l0.39524,-0.21682l0.0954,0.2701l-0.36053,0.19452"></path><path d="M282.92347,183.73486l0.3085,-0.17222l0.12389,-0.00744l0.09293,0.1016l-0.4101,0.22178l-0.11522,-0.14371"></path><path d="M282.14292,184.25522l-0.0062,-0.06939l0.24531,-0.10283l0.02849,0.1016l0.09293,0.15488l-0.08301,0.08053l-0.27752,-0.16479"></path><path d="M283.08453,183.35078l0.09912,-0.10283l0.11151,0.19948l-0.17593,0.06319l-0.03469,-0.15982"></path><path d="M282.22964,185.02338l0.14744,0.00247l-0.13009,0.16973l-0.12886,-0.06071l0.11151,-0.11151"></path></g><g><path d=""></path><path d=""></path><path d=""></path></g><g><path d=""></path><path d=""></path></g><g><path d=""></path><path d=""></path><path d=""></path></g></g></g></svg>