<svg version="1.1" xmlns="http://www.w3.org/2000/svg" xmlns:xlink="http://www.w3.org/1999/xlink" width="10.68642" height="12.59308" viewBox="0,0,10.68642,12.59308"><g transform="translate(-307.48477,-12.43497)"><g fill="#ff0000" fill-rule="evenodd" stroke="#ffffff" stroke-width="0" stroke-linecap="round" stroke-linejoin="round" stroke-miterlimit="10"><path d="M317.82035,19.53155l-0.09222,-0.02973l-0.2257,-0.21427l-0.20643,-0.10363l-0.41286,-0.26919l-0.09359,0.01638l-0.07707,0.21923l-0.28488,0.0944l-0.18579,-0.06812l-0.26286,0.35589l0.00688,0.29135l-0.23397,0.09316l0.04542,0.19693l0.12661,0.05821l0.11284,0.18221l0.0454,0.39114l0.07982,0.13831l-0.01927,0.17478l-0.15964,0.07501l-0.08257,0.26933l0.03853,0.19626l-0.25323,0.06414l-0.10872,0.2601l0.19405,0.00413l-0.07844,0.31681l-0.15413,0.20436l0.07981,0.37021l0.139,0.19418l-0.06605,0.21964l-0.14313,0.10597l-0.1789,0.24511l0.05367,0.18428l-0.0578,0.27236l-0.139,0.08106l-0.05367,0.27524l0.0867,0.16597l-0.16927,0.08188l-0.33992,-0.0629l-0.36609,-0.00441l-0.22845,0.06043l-0.32341,-0.00647l-0.01927,-0.12745l-0.09772,-0.11175l-0.22983,0.25309l-0.15413,-0.10873l-0.04954,-0.24621l-0.20369,0.09634l-0.11423,0.16831l-0.18579,0.0867l-0.05506,-0.24731l-0.25873,0.05203l-0.01652,0.15028l-0.26563,-0.17094l0.12248,-0.12317l-0.12524,-0.11698l-0.14863,-0.02298l-0.30416,-0.13018l0.00688,-0.34998l-0.07707,-0.45622l-0.10734,-0.17727l-0.00963,-0.15028l-0.10322,-0.10652l-0.30828,0.06799l-0.17478,-0.06083l-0.33305,0.02148l-0.25186,0.13115l-0.22433,0.04776l-0.23533,0.27166l-0.15827,0.04969l-0.24496,0.26066l0.15689,0.4938l0.03992,0.25089l0.15,0.62921l-0.0523,0.07252l0.00827,-0.14463l-0.26424,-0.85684l-0.27937,-0.78472l-0.35783,-0.91877l-0.30966,-0.74276l-0.79959,-1.78057l-0.25185,-0.78458l-0.06056,-0.35411l0.07707,-0.65647l0.48169,-0.65564l0.15,-0.44947l-0.06056,-0.30373l0.0977,-0.05724l0.29312,-0.39801l0.11011,-0.21607l0.07018,-0.27937l-0.00137,-0.20933l-0.2601,-0.41796l-0.05092,-0.27993l-0.00138,-0.29355l0.08119,-0.35589l0.10459,-0.20259l0.30552,0.35149l0.08119,0.19749l0.01788,0.2045l0.23671,0.10776l0.1156,-0.00261l0.0523,0.1668l0.13211,0.00798l0.33305,-0.09152l0.07569,-0.24002l0.18304,0.14905l0.16102,0.03371l0.3413,-0.05092l0.33717,-0.14959l0.25186,-0.15566l0.34544,-0.34048l0.20369,-0.42085l-0.06468,-0.17258l0.08395,-0.24813l-0.00688,-0.24319l0.18167,-0.14629l0.02615,-0.16391l0.25185,-0.13735l0.21469,-0.00551l0.11423,-0.10102l0.11423,0.12745l0.13075,0.00234l0.09772,0.11491l0.07844,0.25281l0.03715,0.29562l0.31653,0.39071l0.35783,0.17835l0.07569,0.32975l0.14863,0.14119l-0.02202,0.18868l0.11698,0.21607l0.29176,0.29946l0.30415,0.20066l0.42526,0.3325l0.45278,0.30373l0.27524,0.22337l0.31929,0.4803l0.47756,0.63472l0.49957,0.72583l0.29176,0.3848l0.83125,0.99461l-0.35094,0.27868M309.96896,15.06527l-0.0867,0.18676l0.15,0.24524l0.27111,-0.1478l0.07157,-0.16543l-0.08532,-0.13982l-0.32067,0.02105"></path></g></g></svg>