<svg version="1.1" xmlns="http://www.w3.org/2000/svg" xmlns:xlink="http://www.w3.org/1999/xlink" width="2.14143" height="3.49975" viewBox="0,0,2.14143,3.49975"><g transform="translate(-277.72523,-74.96475)"><g fill="#ff0000" fill-rule="evenodd" stroke="none" stroke-width="0.4" stroke-linecap="round" stroke-linejoin="round" stroke-miterlimit="10"><path d="M279.85014,74.96475l0.01652,0.37846l-0.13212,0.18992l-0.07844,0.28213l-0.16378,0.1156l-0.16789,0.21745l-0.06056,0.17341l-0.00688,0.31653l0.08257,0.09909l-0.04267,0.29589l-0.18716,0.56151l-0.01377,0.18442l-0.12111,0.27387l-0.14863,0.16513l-0.38121,0.10734l-0.09909,0.139l-0.3303,-0.19542l-0.01514,-0.57115l-0.10322,-0.22983l0.07294,-0.40049l-0.14175,-0.37157l-0.10322,-0.15l0.08257,-0.10597l-0.06468,-0.15276l0.2601,-0.35782l-0.00137,-0.13487l0.14175,-0.20919l0.37433,0.00413l0.13487,-0.11561l0.87941,-0.19818l0.18304,-0.11284l0.13487,-0.19818"></path></g></g></svg>