<svg version="1.1" xmlns="http://www.w3.org/2000/svg" xmlns:xlink="http://www.w3.org/1999/xlink" width="7.08561" height="11.21995" viewBox="0,0,7.08561,11.21995"><g transform="translate(-185.60573,-199.29339)"><g fill="#ff0000" stroke="#ffffff" stroke-width="0" stroke-linecap="round" stroke-linejoin="round" stroke-miterlimit="10"><path d="M187.97039,200.02999l-0.05657,0.04919l0.07009,0.21274l-0.05657,0.14757l0.091,0.04181l-0.08608,0.27176l0.01106,0.23242l0.18077,0.01967l0.18815,0.13035l0.05165,0.23365l0.16971,-0.01353l0.12544,0.05287l-0.08363,0.22874l0.07009,0.23734l0.12052,0.11559l0.01844,0.08854l-0.07501,0.14265l0.1697,0.3271l0.03198,0.19553l0.07993,0.11806l0.16724,-0.06641l0.39474,0.15987l-0.10945,0.23857l0.09837,-0.01106l0.15987,0.06271l0.09837,-0.07256l0.28651,-0.0332l0.01476,0.08608l-0.07748,0.12174l-0.09592,0.01353l-0.00861,0.12544l0.19676,0.22748l0.05411,0.2066l-0.05903,0.36645l-0.13895,0.0246l-0.05902,0.07132l-0.34799,0.02582l-0.03566,0.14141l0.04058,0.2447l0.09346,0.24103l-0.01967,0.35169l0.11682,0.30127l-0.00615,0.26807l-0.07009,0.2816l-0.15249,0.20291v0.06887l-0.15987,0.3025l-0.10453,0.00122l-0.32341,0.1033l-0.3025,-0.01476l-0.04304,0.15126l0.00615,0.31111l0.07993,0.31726l-0.03812,0.24349l0.10084,0.13527l0.14265,0.06518l-0.0246,0.11068l0.14757,0.11068l-0.01106,0.22136l-0.21521,0.19182l-0.18815,-0.04919l-0.11191,0.0209l0.05533,-0.61854l-0.22258,-0.09469l-0.17462,-0.12789l-0.12543,-0.03935l-0.04304,-0.182l-0.25208,-0.06394l-0.09837,-0.06395l-0.18321,0.1033l-0.13773,0.00738l-0.14388,-0.0578l-0.33816,-0.28651l-0.13158,0.11929l-0.07993,-0.09469l0.07379,-0.06887l-0.0787,-0.182l-0.06887,-0.06641l-0.25331,0.03444l-0.21889,-0.29022l-0.25331,-0.15372l-0.0787,-0.01844l0.20536,-0.26563l0.17708,-0.03565l0.14757,-0.1242l0.32217,-0.12543l0.05165,-0.09961l-0.0123,-0.14019l0.09346,-0.00369l0.13527,0.11068l0.31603,-0.05533l0.16233,0.0332l0.05902,-0.08731l0.05165,-0.22873l-0.08485,-0.33202l-0.32341,0.07748l-0.0209,-0.2066l-0.16724,-0.14388l-0.18569,-0.01844l-0.02951,-0.26069l-0.06025,-0.13281l-0.02951,-0.38366l-0.0578,-0.091l0.08977,-0.16847l-0.03444,-0.15003l0.10698,-0.10575l-0.09223,-0.07501l-0.02705,-0.25208l-0.13895,-0.03444l-0.07255,-0.23611l0.03935,-0.12544l-0.09837,-0.09223l-0.18692,0.12174l-0.0578,-0.08977l-0.27791,-0.08977l-0.04427,-0.09469l0.07625,-0.14879l-0.15987,-0.27176l0.01476,-0.14388l-0.01353,-0.43655l0.06271,-0.07255l-0.02951,-0.11559l0.07993,-0.04549l0.11436,0.0787l0.16601,-0.16724l0.0209,-0.07747l0.15495,0.0123l0.17955,0.13895l0.2029,0.28283l0.05902,-0.10822l-0.0332,-0.10698l0.11805,-0.04303l0.06271,-0.20414l0.09961,-0.20168l0.07379,-0.0209l0.14019,-0.2066l0.1365,-0.01722l0.01721,-0.21889l-0.16233,-0.22627l-0.03444,-0.14634l-0.09346,-0.1033l0.09346,-0.20536l0.22997,-0.14511l-0.00984,-0.21643l0.09715,-0.1365l0.14141,-0.0332l0.05287,-0.08238l0.13158,0.03812l0.23119,-0.01967l0.03565,0.14019l0.11682,0.22012l-0.04919,0.08731l-0.04303,0.27053" fill-rule="evenodd"></path><path d="M190.35602,207.03929l0.22012,-0.10822l0.01845,0.19922l0.17708,0.17708l-0.00492,0.14634l0.07379,0.07009l0.19922,-0.02705l-0.08362,0.16601l0.22627,0.06641l0.13527,-0.04058l0.14388,-0.09838l0.02951,-0.10206l0.11806,-0.1574l0.10822,0.05411l0.2029,-0.01598l0.13158,-0.10576l-0.04919,-0.11682l0.18077,-0.17831l0.091,-0.01721l0.25331,0.17708l0.16233,-0.02337l-0.04673,0.12911l-0.26069,0.12174l-0.12174,0.01476l-0.05533,0.11313l-0.16233,0.03689l-0.13895,-0.03197l-0.22136,0.05533l-0.04919,0.14879l-0.11191,0.08854l0.04919,0.08977l-0.04426,0.10698l0.07624,0.11928l-0.01106,0.13895l-0.08977,0.09837l-0.07255,-0.09346l-0.13404,0.02337l-0.20782,0.11682l-0.03075,-0.10084l0.05657,-0.1242l0.10085,-0.0787l-0.05657,-0.12052l-0.16478,-0.10576l-0.29145,-0.04919l-0.091,-0.08116l-0.24103,0.17585l-0.01107,0.29635l-0.11682,-0.10945l-0.20168,0.04919l-0.05533,-0.04673l-0.18446,0.05165l-0.16356,0.2152l-0.12052,-0.17339l0.05657,-0.11191l-0.29881,-0.26069l-0.0578,-0.09469l0.01967,-0.25208l-0.04426,-0.06271l0.182,-0.15987l-0.05657,-0.23488l0.09961,-0.07009l0.13896,0.09223l0.1119,-0.04673l-0.00984,-0.12051l0.22381,0.01107l0.0578,-0.11928l0.13035,0.07255l0.05287,0.12789l0.23365,0.08977" fill-rule="evenodd"></path><path d="M188.42538,208.76088l-0.08854,0.1033l-0.19305,-0.01598l-0.03444,0.12543l-0.12543,0.05165l-0.03444,0.15863l-0.15002,0.00984l-0.0578,0.10085l0.02337,0.09837l-0.1033,0.06641l-0.12174,-0.17339l0.182,-0.03074l0.06641,-0.1242l-0.01353,-0.11436l0.24472,-0.19182l0.0332,-0.13035l-0.1365,-0.10207l-0.02951,-0.07993l0.04673,-0.14757l0.15002,0.20168l0.23119,0.01598l0.11068,0.17831" fill-rule="evenodd"></path><path d="M190.11007,209.27736l0.09715,0.11191l0.05042,0.13773l-0.03566,0.1279l-0.18446,-0.15741l-0.10452,-0.02951l-0.21397,0.02582l-0.03321,-0.07993l-0.1365,-0.08731l-0.00246,-0.09961l-0.14142,-0.06148l-0.16724,0.11191l-0.05411,-0.10822l0.19307,-0.05657l0.26438,-0.14265l0.17217,0.06026l0.15126,0.22504l0.14511,0.02214" fill-rule="evenodd"></path><path d="M188.94185,210.29802l-0.0455,0.09715l-0.1943,0.11806l-0.08485,-0.09592l0.07747,-0.10576l0.14879,-0.06271l-0.05657,-0.11682l0.02828,-0.15863l0.10084,-0.21398l-0.05657,0.14019l-0.00245,0.21028l0.08485,0.18815" fill-rule="evenodd"></path><path d="M191.20451,207.05159l0.00123,-0.12174l0.12543,-0.06641l0.09592,0.10206l-0.08608,0.09346l-0.1365,-0.00738" fill-rule="evenodd"></path><path d="M188.94179,210.29814l-0.0455,0.09715l-0.19431,0.11805l-0.08485,-0.09592l0.07748,-0.10576l0.1488,-0.06271l-0.05657,-0.11683l0.02828,-0.15864l0.10084,-0.21398l-0.05657,0.14019l0.03565,0.05903l-0.03812,0.15126l0.08485,0.18815" fill-rule="nonzero"></path><path d="M190.25764,209.52339l-0.03566,0.1279l-0.18447,-0.15741l-0.10452,-0.02952l-0.21398,0.02583l-0.0332,-0.07993l-0.1365,-0.08731l-0.00246,-0.09961l-0.14142,-0.06149l-0.16725,0.11191l-0.05411,-0.10822l0.19308,-0.05657l0.2644,-0.14265l0.17217,0.06026l0.15126,0.22505l0.14511,0.02214l0.09715,0.11191l0.05042,0.13774" fill-rule="nonzero"></path><path d="M188.33922,208.85933l-0.19307,-0.01598l-0.03444,0.12544l-0.12543,0.05165l-0.03444,0.15864l-0.15003,0.00983l-0.0578,0.10084l0.02337,0.09838l-0.10331,0.06641l-0.12174,-0.1734l0.18201,-0.03074l0.06641,-0.12421l-0.01353,-0.11437l0.24472,-0.19185l0.03321,-0.13035l-0.13651,-0.10207l-0.02951,-0.07993l0.04673,-0.14757l0.15003,0.20168l0.2312,0.01598l0.02214,0.10577l0.08855,0.07255l-0.08855,0.10331" fill-rule="nonzero"></path><path d="M190.57737,206.92861l0.01844,0.19922l0.17709,0.17709l-0.00492,0.14634l0.07378,0.0701l0.19922,-0.02706l-0.08362,0.16602l0.22628,0.06641l0.13528,-0.04058l0.14389,-0.09838l0.02952,-0.10206l0.11805,-0.15741l0.10822,0.05411l0.20291,-0.01598l0.13158,-0.10576l-0.04919,-0.11683l0.08854,-0.04673l0.09223,-0.13159l0.091,-0.01721l0.25333,0.17709l0.16234,-0.02337l-0.04674,0.12913l-0.26072,0.12174l-0.12174,0.01476l-0.05534,0.11314l-0.16233,0.0369l-0.13896,-0.03198l-0.22136,0.05534l-0.04919,0.1488l-0.11191,0.08854l0.04919,0.08977l-0.04427,0.10699l0.07624,0.11929l-0.01106,0.13896l-0.08977,0.09838l-0.07256,-0.09346l-0.13404,0.02337l-0.20782,0.11683l-0.03074,-0.10085l0.05657,-0.1242l0.10084,-0.0787l-0.05657,-0.12052l-0.16479,-0.10576l-0.29146,-0.04919l-0.091,-0.08116l-0.24103,0.17585l-0.01107,0.29637l-0.11683,-0.10945l-0.20169,0.04919l-0.05533,-0.04673l-0.18447,0.05165l-0.16356,0.21521l-0.12052,-0.17339l0.05657,-0.11191l-0.29883,-0.26072l-0.0578,-0.09469l0.01967,-0.2521l-0.04426,-0.06271l0.182,-0.15987l-0.05657,-0.23489l0.0996,-0.0701l0.13896,0.09223l0.11191,-0.04674l-0.00984,-0.12052l0.22382,0.01106l0.0578,-0.11929l0.13035,0.07255l0.05287,0.1279l0.23366,0.08977l0.22012,-0.10822" fill-rule="nonzero"></path><path d="M191.21684,206.94091l0.12544,-0.06641l0.09592,0.10207l-0.08609,0.09346l-0.13651,-0.00738l0.00122,-0.12174" fill-rule="nonzero"></path></g></g></svg>