<svg version="1.1" xmlns="http://www.w3.org/2000/svg" xmlns:xlink="http://www.w3.org/1999/xlink" width="366.97484" height="41" viewBox="0,0,366.97484,41"><g transform="translate(-56.01257,-159)"><g stroke-miterlimit="10"><path d="M56.51258,159.5M76.51258,159.5h325.97484c11.0457,0 20,8.95431 20,20c0,11.04569 -8.9543,20 -20,20h-325.97484c-11.04569,0 -20,-8.95431 -20,-20c0,-11.04569 8.95431,-20 20,-20z" fill="#03251c" stroke="#0fbd8c"></path><path d="M109.39181,163.5M125.39181,163.5h277.09561c8.83655,0 16,7.16344 16,16c0,8.83656 -7.16345,16 -16,16h-277.09561c-8.83656,0 -16,-7.16344 -16,-16c0,-8.83656 7.16344,-16 16,-16z" fill="#4c4c4c" stroke="#0fbd8c"></path><text transform="translate(84.51258,185.7)" font-size="16" xml:space="preserve" fill-opacity="0.7" fill="#ffffff" stroke="none" font-family="&quot;Helvetica Neue&quot;, Helvetica, sans-serif" font-weight="500" text-anchor="middle"><tspan x="0" dy="0">GET</tspan></text><path d="" fill="#0fbd8c" stroke="none" visibility="hidden"></path><text transform="translate(232.51257,188.28462) scale(1.53846,1.53846)" font-size="16" xml:space="preserve" fill-opacity="0.7" fill="#ffffff" stroke="none" font-family="&quot;Helvetica Neue&quot;, Helvetica, sans-serif" font-weight="500" text-anchor="start"><tspan x="0" dy="0">API</tspan></text></g></g></svg>