<svg version="1.1" xmlns="http://www.w3.org/2000/svg" xmlns:xlink="http://www.w3.org/1999/xlink" width="13.25946" height="12.62004" viewBox="0,0,13.25946,12.62004"><g transform="translate(-234.81806,-197.78354)"><g fill="#ff0000" fill-rule="evenodd" stroke="#ffffff" stroke-width="0" stroke-linecap="round" stroke-linejoin="round" stroke-miterlimit="10"><path d="M236.73475,210.34788l-0.30727,-0.13877l-0.1276,0.01362l0.0508,0.15859l-0.1685,0.00744l-0.21807,-0.11522l-0.07433,-0.09788l-0.01239,-0.26267l-0.13009,0.03346l-0.09788,-0.07062l-0.057,-0.1239l-0.12637,-0.02106l-0.09293,-0.32212l-0.09044,-0.17346l-0.13009,-0.01858l-0.19824,-0.11151l-0.10532,-0.14744l0.03717,-0.14744l-0.03964,-0.09664l0.06071,-0.18337l-0.08921,-0.13256l0.05575,-0.22797l0.05327,0.15488l0.15611,0.01734l0.03718,-0.14495l0.24531,0.02354l0.04584,-0.23417l-0.25275,-0.25275l-0.00124,-0.10532l0.16355,0.04833l0.0508,-0.23044l0.1363,0.04708l0.10158,-0.09911l0.02106,-0.09912l0.11151,-0.04584l0.01858,-0.09912l0.18214,0.02849l0.31717,0.14248l0.1016,-0.32089l-0.03469,-0.13628l0.12637,-0.11895l0.1462,0.1747l0.19948,-0.1846l0.00124,-0.07433l-0.20072,-0.35187l0.0793,-0.1809l0.04584,-0.14744l0.0954,-0.07309l0.02478,-0.13381l0.07433,-0.0446l0.10779,0.06938l0.09044,-0.06938l0.28992,0.06319l0.1276,-0.02354l0.29364,0.17097l0.10035,-0.06691l-0.083,-0.26761l-0.06939,-0.04956l0.06071,-0.13876l-0.03964,-0.13753l0.02725,-0.29487l0.24656,0.06814l-0.1685,-0.2131l0.02106,-0.28496l-0.05452,-0.08053l0.10779,-0.0954l-0.08053,-0.21682l0.04708,-0.16726l0.11152,-0.12514l-0.11275,-0.16107l0.04089,-0.20319l-0.20072,-0.07806l0.06071,-0.18088l0.22178,-0.12514l0.02229,-0.18461l-0.08177,-0.09293l0.17345,-0.17965l0.08797,-0.15859l-0.16973,-0.13009l0.01611,-0.07682l-0.07433,-0.19576l-0.19328,-0.15115l-0.03593,-0.18955l0.06815,-0.06071l0.13877,0.00743l0.22177,-0.16726l0.35807,0.0384l0.02849,-0.11522l0.09541,-0.05327l0.18461,0.02849l0.06939,-0.17345l-0.03346,-0.08301l0.26637,-0.15115l0.09044,0.02849l0.44232,-0.10655l0.10779,-0.14248l0.1462,-0.057l-0.17841,-0.20938l0.20072,-0.36302l0.21186,0.02354l0.10284,-0.04213l0.31098,0.06319l0.057,-0.05575l0.17841,0.04708l0.18832,-0.04831l0.24161,0.07186l0.01362,-0.05823l0.24531,-0.13877l0.15735,0.00124l0.1016,-0.05204l0.1685,0.05823l0.24655,-0.07558l0.1747,-0.11026l-0.02479,-0.07806l0.26267,-0.05452l0.11769,-0.12886l0.29735,-0.15239l0.08426,0.01487l0.26886,-0.08053l0.03593,0.15115l0.33948,-0.10902l0.07309,-0.14744l-0.04336,-0.04956l0.02106,-0.23292l0.25646,-0.29116l0.1338,-0.08053l0.00744,-0.11274l0.28992,0.00991l0.12885,-0.08301l0.07309,0.04336l0.08053,-0.13256l-0.18708,-0.11769l0.02229,-0.14001l0.13753,-0.08549l-0.02973,-0.07806l0.05574,-0.14744l0.08053,0.12018l0.26515,0.10655l0.07309,0.06319l0.27011,0.0384l0.4609,0.29612l0.14991,0.1685l0.14371,0.07062l0.23291,0.03593l0.16355,-0.02602l0.14248,0.35683l0.10408,-0.1239l-0.05327,-0.18461l0.12018,0.01982l0.0062,0.18214l0.13009,0.05823l0.02602,0.10779l0.13256,0.03964l0.10655,-0.04833l0.06319,0.10779l0.00744,0.1462l-0.05204,0.12637l0.30727,0.13009l0.05204,-0.09788l0.22178,0.02106l0.09541,0.18461l-0.04708,0.20318l0.05823,0.08053l-0.09416,0.28496l-0.08673,0.08673l-0.02354,0.31221l-0.11275,-0.04708l-0.06319,-0.15859l-0.24159,0.07681l0.03593,0.15239l-0.18214,0.09912l-0.17964,-0.07062l-0.11769,0.12514l-0.18088,-0.01858l-0.03593,0.10655l0.08053,0.07806l0.18088,-0.09416l-0.01115,-0.09293l0.1462,-0.05204l-0.01487,0.17346l0.12886,-0.06939l0.13505,0.14371l0.24655,-0.20319l0.13628,0.04213l-0.02354,0.11026l-0.23912,0.14992l-0.0508,0.15115l0.01362,0.1524l0.16602,0.18584l-0.08673,0.23417l0.15611,0.16107l-0.00247,0.14992l-0.24159,0.05574l-0.10284,-0.00991l0.00373,0.1623l-0.2131,0.01364l-0.15488,0.14124l-0.26266,0.02478l-0.16355,-0.057l-0.50425,-0.09293l-0.04584,-0.19328l0.04831,-0.06938l0.24035,-0.00247l0.23292,0.07558l0.31964,0.03345l0.03593,-0.19699l0.08301,-0.10779l-0.12637,-0.17345l0.10779,-0.07433l-0.23417,-0.06939l-0.06566,0.03222l-0.13628,-0.07309l0.08053,0.26142l-0.13256,0.10655l-0.13876,0.02229l-0.17345,-0.10779l0.03345,-0.26267l-0.16355,0.01115l0.03717,0.09787l-0.07433,0.14124l-0.10779,0.06195l-0.18832,-0.13753l-0.13876,-0.02973l-0.13009,0.04336l-0.0161,0.10655l-0.17222,0.02229l-0.10902,0.07806l-0.00744,-0.27133l0.10655,-0.26515l0.15239,-0.10902l0.12514,0.00496l0.0161,-0.11895l-0.17222,-0.02354l-0.10902,-0.09293l-0.05327,0.15362l-0.09541,0.03593l-0.06815,-0.14248l-0.24903,-0.03964l-0.05575,0.09293l0.17097,0.03099l0.02725,0.1623l-0.14744,0.0508l-0.14124,0.10283l0.15735,0.07558l0.01982,0.1363l-0.12762,0.07806l0.01735,0.1462l-0.24035,0.03718l-0.0062,0.13381l-0.17222,0.02602l-0.10283,0.06814l-0.09416,0.1623l-0.24035,0.01735l-0.11399,-0.31346l0.25275,-0.18832l-0.33079,0.03098l-0.20939,0.12018l-0.00496,0.29735l-0.09044,0.11646l-0.09912,-0.11399l0.06195,-0.08053l-0.02478,-0.17097l-0.14371,0.06442l-0.057,0.09293l-0.14868,-0.04213l0.01735,-0.12637l-0.10408,-0.00867l0.00124,0.21806l-0.10283,0.3023l0.057,0.18584l-0.24779,0.17717l0.00991,-0.12018l-0.18213,-0.06691l-0.09663,-0.1016l0.10407,-0.15488l-0.03346,-0.11151l-0.15486,0.17841l0.02478,0.35187l-0.254,0.00991l-0.10902,0.09663l-0.32338,0.14248l-0.13628,-0.19948l-0.03593,0.14991l-0.14495,0.16232l-0.14868,0.07558l-0.08053,-0.09787l-0.02602,-0.13753l-0.18461,0.05204l-0.00496,0.17593l-0.0793,0.07806l-0.13876,0.02478l-0.04584,0.09912l-0.1747,-0.0062l-0.16479,0.22178l-0.1524,0.06939l0.08673,0.18584l-0.10035,0.12762l0.08301,0.25399l0.11646,0.14992l0.07681,-0.08673l0.17841,0.01115l-0.1363,0.25027l-0.19699,0.10532l-0.15611,0.16355l-0.10902,-0.2131l-0.09044,0.14l-0.08549,-0.08301l-0.03221,-0.14495l0.23044,-0.14495l0.09541,-0.14992l-0.10902,-0.02478l-0.1623,0.18832l-0.30974,0.19452l0.11646,0.14124l-0.43487,0.2577l0.11275,0.09912l0.38037,0.02849l0.03718,0.11522l-0.00247,0.26017l0.13133,0.03098l0.32089,0.20442l-0.21806,0.17965l0.09787,0.07186l-0.09416,0.24284l0.10779,0.01858l-0.01858,0.25522l-0.09912,0.06195l-0.12637,-0.00247l-0.0446,-0.08053l-0.12018,0.05947l-0.04708,-0.16974l0.15611,-0.0793l-0.26267,-0.04956l-0.18214,-0.09912l0.03964,0.1809l-0.16726,0.18088l0.02354,0.0954l0.18832,-0.14744l0.07309,0.11647l0.03222,0.22424l-0.13505,0.07682l-0.06689,0.13753l-0.09663,-0.09787l-0.15735,0.06442l-0.01735,0.08673l0.10779,0.17593l-0.16353,0.10902l-0.18584,0.02106l-0.01362,-0.17345l-0.05824,-0.07062l-0.16849,-0.02478l0.05327,0.15982l-0.03718,0.12637l-0.08921,0.00247l-0.03593,0.11646l0.11399,0.06071l-0.18214,0.18213l-0.0954,0.01611l-0.04461,-0.15735l-0.083,-0.01982l-0.04956,0.14744l-0.09167,-0.01735l-0.25647,0.30603l-0.11399,0.17717l-0.24409,0.47205l-0.13753,0.30354l-0.26886,0.74957l-0.07433,0.37045l-0.0793,0.10779l-0.04708,-0.05575"></path></g></g></svg>