<svg version="1.1" xmlns="http://www.w3.org/2000/svg" xmlns:xlink="http://www.w3.org/1999/xlink" width="21.5105" height="16.88727" viewBox="0,0,21.5105,16.88727"><g transform="translate(-337.85574,-35.33474)"><g fill="#ff0000" fill-rule="evenodd" stroke="#ffffff" stroke-width="0" stroke-linecap="round" stroke-linejoin="round" stroke-miterlimit="10"><path d="M359.20363,35.71329l0.03716,0.30938l-0.08395,0.10914l-0.07019,0.31419l0.05506,0.16927l-0.09909,0.40241l-0.1734,0.11175l-0.18992,0.44481l-0.10322,0.06344l-0.04542,0.37049l0.11698,0.12414l-0.06744,0.17355l0.08809,0.07597l-0.18716,0.13969l-0.01788,0.22502l-0.17478,-0.00247l-0.20093,0.06744l-0.14175,0.12951l-0.13349,0.02119l-0.09496,0.18455l-0.48718,0.17822l-0.05368,0.19446l-0.13074,0.05312l-0.11423,0.24069l-0.14726,-0.00633l-0.12661,0.25695l-0.01927,0.15166l-0.25322,0.30566l-0.10597,0.32699l-0.1679,0.17341l-0.18992,0.08739l-0.30415,0.02285l-0.10322,0.1196l-0.03715,0.26259l-0.07569,0.11892l-0.00138,0.16914l-0.32203,0.03482l-0.1445,0.16513l-0.14038,0.2637l-0.01927,0.1602l-0.11973,0.14339l0.02065,0.22584l0.08946,0.17382l-0.24496,0.15276l-0.0454,0.11794l-0.23533,0.20423l-0.3303,0.03647l-0.24634,0.07569l-0.40874,0.62109l-0.22845,0.13418l0.15,0.12427l0.23121,0.07267l0.00827,0.30828l-0.12661,0.2056l-0.2601,0.1463l0.03578,0.18042l-0.10734,0.02738l-0.11973,0.17505l0.06056,0.26451l-0.11835,0.2286l-0.2078,-0.01528l-0.07982,-0.19873l-0.1445,0.05519l-0.16102,-0.02821l-0.11284,0.16198l0.03578,0.23671l-0.18855,0.22515l-0.44314,0.10734l-0.24084,-0.05891l-0.33443,-0.02464l-0.03165,0.38107l0.07294,0.42857l-0.02614,0.18703l0.09083,0.15207l0.03441,0.33208l-0.20368,0.09882l-0.18165,0.20932l0.02202,0.14986l-0.25736,0.06854l-0.28762,0.21538l-0.0867,0.12882l-0.16378,0.05849l-0.09496,0.1913l-0.10597,0.0033l-0.09634,-0.16748l-0.17754,-0.01445l-0.18028,0.27758l-0.12661,0.01748l0.01789,0.18235l-0.30828,0.1657l-0.10459,-0.14162l-0.2023,-0.09069l-0.11698,0.09743l-0.13349,-0.07569l-0.15964,-0.35273l0.03302,-0.15496l-0.11284,-0.3091l-0.36332,-0.10433l-0.06468,-0.34432l-0.09358,-0.1401l-0.24222,-0.12812l-0.38947,-0.0896l-0.52572,0.17602l-0.16102,-0.01595l-0.12938,-0.19432l-0.3124,-0.10474l-0.3248,0.02175l-0.25186,0.22227l-0.34955,0.11436l-0.11973,0.3636l-0.16239,0.24552l-0.14863,0.09332l-0.07155,0.1646l-0.22157,0.20987l-0.12248,0.54154l-0.00827,0.19996l0.20643,0.65233l0.03853,0.19062l-0.02614,0.2323l-0.1569,0.23272l-0.20919,0.00604l-0.07707,-0.08368l-0.14863,0.06056l-0.12937,0.21263l-0.23671,-0.27676l-0.29451,-0.11066l-0.10597,0.08037l-0.02615,0.18249l-0.1624,0.10226l-0.33992,-0.08477l-0.19404,0.02752l-0.14863,0.25419l0.08946,0.20133l-0.16651,0.30415l-0.35232,0.20175l-0.27387,0.0618l-0.29589,-0.07459l-0.29726,-0.12744l-0.24084,-0.02091l-0.02752,-0.18758l-0.23946,-0.13735l0.04954,-0.17822l-0.19955,-0.07734l-0.02341,-0.30608l-0.17203,-0.04885l-0.2491,-0.17671l-0.16789,0.17547l-0.39774,-0.30291l-0.14726,-0.17574l-0.17065,-0.12235l-0.15139,-0.33785l-0.01377,-0.13555l-0.22707,-0.08739l-0.16102,-0.13679l-0.06607,-0.29492l-0.18028,-0.19295l-0.00276,-0.12827l0.05504,-0.0578l0.00413,-0.31763l0.18578,0.04556l0.17203,-0.14079l0.21469,0.03799l0.11698,-0.13528l0.07157,-0.19502l-0.24359,-0.16804l0.04679,-0.20355l0.34268,-0.38191l0.17065,-0.12565l0.27387,0.03895l0.18304,0.10708l0.10736,-0.05917l0.04816,-0.26396l0.15552,-0.2674l-0.02065,-0.13405l0.10597,-0.1233l0.30416,-0.18498l-0.02341,-0.21111l0.15827,-0.17024l0.12387,0.18842l0.17203,-0.06358l0.00827,-0.25473l0.27937,-0.39332l-0.06331,-0.15483l0.18855,-0.13378l0.01927,-0.15043l0.12111,-0.22418l-0.01651,-0.24608l0.22983,-0.16513l-0.04267,-0.10804l0.41149,-0.23175l-0.01927,-0.18497l-0.09909,-0.12937l0.22434,-0.30388l0.01377,-0.21676l-0.31929,0.06908l-0.10597,-0.139l-0.02891,-0.35396l-0.13899,-0.09028l0.02891,-0.30056l0.35232,-0.18442l-0.03716,-0.19088l0.11973,-0.1163l-0.10597,-0.39361l-0.21056,-0.10336l0.15827,-0.18387l0.0922,-0.27498l0.00826,-0.29272l-0.05917,-0.12744l0.16927,-0.17217l0.0055,-0.11437l0.21607,-0.31515l0.11698,-0.10693l0.06881,-0.21593l0.19405,-0.06275l0.25873,0.06151l0.02202,-0.11684l0.44591,0.12524l0.68812,0.13816l0.18028,-0.00193l0.44452,-0.13913l0.09772,0.46448l-0.06468,0.23204l-0.00551,0.22748l0.12798,0.07721l-0.08946,0.34062l0.22571,0.27897l0.24222,0.12854l-0.02891,0.26754l0.15,0.2158l0.03441,0.2162l0.33167,0.229l0.57251,0.28144l0.44727,0.165l0.37709,0.11203l0.7528,0.19212l0.69913,0.12592l0.54223,0.07418l0.45554,0.04046l0.79547,0.01665l0.47893,-0.02738l0.67435,-0.08863l0.69637,-0.17355l0.13349,-0.20272l0.33717,-0.13142l0.06331,-0.20932l0.1913,-0.25447l0.1624,-0.05133l0.27387,-0.17424l0.47205,-0.43297l0.13349,-0.21648l0.12661,-0.41192l0.17065,0.01927l0.31653,-0.3259l0.12111,-0.16404l0.16514,-0.04335l0.23395,-0.2513l0.03166,-0.26106l0.14036,-0.1496l0.31791,-0.16336l0.39085,-0.31653l0.29726,-0.27221l0.09358,-0.13845l0.26974,-0.13597l0.10873,-0.18799l0.24634,-0.13693l0.14038,-0.14905l0.50507,-0.27786l0.23946,-0.39277l0.12524,-0.32961l0.11284,-0.1979l-0.011,-0.09565l0.36609,-0.37006l0.22845,-0.3113l0.17065,-0.13129l0.07569,-0.24415l0.2725,-0.18249l0.10186,-0.40021l0.21056,-0.22914l0.11835,0.07307l-0.1624,0.30552M345.71519,42.99657l0.32066,0.01665l0.1968,0.32961l0.14725,0.034l0.27663,-0.12015l0.23946,0.26561l0.06605,-0.30373l-0.21607,-0.01031l-0.25048,-0.11451l-0.26149,-0.04322l-0.08258,-0.14079l-0.23808,-0.05187l-0.19818,0.13872M343.57928,41.81619l-0.16789,0.13515l-0.13212,0.05299l-0.27111,0.65288l-0.2023,0.13226l-0.11835,0.25639l0.14175,0.10996l0.11284,-0.08188l0.25185,0.46295l0.22983,-0.07569l-0.02341,-0.57058l0.31929,-0.19266l-0.05093,-0.13129l0.03853,-0.42512l0.19956,-0.06908l0.12661,-0.17134l-0.22708,-0.09483l-0.22707,0.00991M343.56138,39.97327l-0.42113,0.12111l-0.61655,0.13555l-0.10736,0.53659l-0.0633,0.50274l0.00688,0.31253l0.15552,0.10212l0.23809,0.04389l0.28075,-0.08492l0.41149,-0.31942l0.07294,-0.27731l0.09772,-0.03592l0.06056,-0.34145l-0.08809,-0.33648l0.03853,-0.32878l-0.06607,-0.03028"></path></g></g></svg>