<svg version="1.1" xmlns="http://www.w3.org/2000/svg" xmlns:xlink="http://www.w3.org/1999/xlink" width="9.27947" height="10.61596" viewBox="0,0,9.27947,10.61596"><g transform="translate(-284.86313,-133.43106)"><g fill="#ff0000" fill-rule="evenodd" stroke="none" stroke-width="0.4" stroke-linecap="round" stroke-linejoin="round" stroke-miterlimit="10"><path d="M293.23074,134.5746l-0.11087,0.25288l0.18187,0.32638l0.12583,0.13453l-0.04859,0.11585l0.13827,0.05481l0.01869,0.22298l0.09468,0.19309l-0.1495,0.13579l0.04111,0.06977l-0.06478,0.14824l-0.13205,0.08222l0.10465,0.22298l0.11834,0.01743l-0.10589,0.23918l0.12707,0.25039l0.29897,0.1196l0.1308,0.29524v0.16567l0.14326,0.05856l-0.27281,0.28901l-0.06727,-0.08222l-0.147,0.06851l-0.02865,0.27156l-0.07847,0.08222l0.03114,0.29399l0.0461,0.05856l-0.13205,0.12208l-0.04859,0.12456l-0.13827,0.01495l-0.0897,0.19807l-0.14575,0.03114l-0.1495,0.19807l0.04235,0.26908l0.06977,0.11834l-0.12955,0.24915l-0.19932,-0.07349l-0.04484,0.16443l-0.1009,0.01743l-0.00125,0.1582l0.05481,0.15198l-0.11212,0.13703l-0.1856,0.04361l-0.00623,0.31018l-0.04111,0.14824l0.00124,0.23045l0.06229,0.06104l-0.04236,0.1582l0.07972,0.21801l0.03612,0.29524l-0.13205,0.18312l-0.02367,0.2155l-0.19557,0.09466l-0.11585,0.19059l0.03737,0.1445l-0.18312,0.04734l-0.16942,0.37995l0.04111,0.27904l-0.03737,0.07724l-0.26286,0.17439l-0.1769,0.07847l-0.09218,0.10963l-0.24168,-0.01619l-0.13703,0.08097l-0.36874,-0.07973l-0.1308,0.06977l-0.19185,-0.08472l-0.1495,0.05108l-0.09841,-0.04983l-0.09716,-0.20679l-0.16818,-0.14575l-0.17938,-0.01494l0.0573,-0.17938l-0.17937,-0.07225l-0.13205,-0.00498l-0.03238,-0.18811l-0.13703,-0.04859l-0.1769,-0.17316l-0.0299,-0.13827l0.2915,-0.06104l0.04609,-0.08846l-0.09716,-0.13703l0.05108,-0.20554l-0.09716,-0.06229l0.04236,-0.22797l-0.11461,-0.20679l0.00248,-0.23171l-0.04982,-0.11336l-0.19185,-0.15945l-0.04734,-0.19184l-0.21426,-0.04982l-0.09716,-0.16817l-0.24168,-0.05606l-0.15073,0.14824l-0.09094,-0.05854l-0.13703,0.0872l-0.10589,-0.06727l-0.18687,-0.26783l-0.10713,0.01869l-0.16941,0.15945l-0.08346,0.17689l-0.13953,-0.04983l-0.2342,0.07475l-0.06853,0.23295l-0.08222,0.05357l-0.14575,0.4223l0.05108,0.16569l-0.18437,0.10963l-0.1009,-0.06602l-0.1495,-0.21426l0.03238,-0.08222l-0.24666,-0.07973l0.05606,-0.19059l-0.01245,-0.15322l-0.15198,-0.0573l-0.19185,-0.19557l-0.00248,-0.11585l0.07349,-0.11087l-0.13703,-0.1881l-0.14201,-0.05107l-0.01245,-0.2753l-0.12955,-0.12458l-0.11461,-0.03862l-0.05605,-0.21177l0.1009,-0.15073l0.15198,-0.07349l0.09841,-0.14326l-0.00872,-0.13329l0.1881,-0.29399l-0.09218,-0.19433l0.14077,-0.22921l-0.08471,-0.2753l0.04859,-0.12707l0.10713,-0.02367l0.09342,-0.21054l-0.01245,-0.23171l-0.10339,-0.02866l0.07474,-0.30272l-0.06229,-0.16941l0.19683,-0.1632l-0.0897,-0.07225l-0.00498,-0.15945l0.16194,-0.03238l0.08597,-0.14326l0.32139,-0.18062l0.10838,-0.12583l0.17813,-0.10713l0.28777,-0.0872l0.1196,0.22423l-0.00997,0.43103l0.18935,0.14824l0.3052,-0.13827l0.06977,-0.09841l0.20305,0.04111l0.22921,0.23918l0.09466,-0.00248l0.0299,-0.16569l0.22547,-0.08346l0.21676,-0.27032l0.23295,-0.14201l0.36001,0.03612l0.11461,-0.19683l0.22298,-0.0872l0.07349,-0.28028l0.17191,-0.09716l0.1308,-0.1607l0.13081,-0.29524l0.15696,-0.04982l0.17439,-0.13828l-0.03489,-0.41732l0.15945,-0.05481l0.07475,-0.11461l0.01993,-0.19184l-0.09218,-0.22298l0.15696,-0.01371l0.39116,-0.15945l0.21924,0.05606l0.10838,-0.1445l0.22423,-0.1445l0.30021,-0.01619l0.43103,-0.27281l0.01743,0.12955l0.13329,0.15696l-0.00498,0.09841l0.24666,0.0872l0.05232,-0.09342l0.12083,0.00746l0.07972,0.10589l0.17191,-0.05232l0.17565,0.13329l0.09592,0.23045l0.02492,0.15572l-0.03238,0.18437"></path></g></g></svg>