<svg version="1.1" xmlns="http://www.w3.org/2000/svg" xmlns:xlink="http://www.w3.org/1999/xlink" width="279" height="279" viewBox="0,0,279,279"><defs><radialGradient cx="240" cy="180" r="139.5" gradientUnits="userSpaceOnUse" id="color-1"><stop offset="0" stop-color="#ffffff" stop-opacity="0.13333"></stop><stop offset="1" stop-color="#ffffff" stop-opacity="0"></stop></radialGradient></defs><g transform="translate(-100.5,-40.5)"><g stroke-miterlimit="10"><path d="M100.5,180c0,-77.04372 62.45628,-139.5 139.5,-139.5c77.04372,0 139.5,62.45628 139.5,139.5c0,77.04372 -62.45628,139.5 -139.5,139.5c-77.04372,0 -139.5,-62.45628 -139.5,-139.5z" fill="url(#color-1)" fill-rule="nonzero" stroke="#000000" stroke-width="0" stroke-linecap="butt" stroke-linejoin="miter"></path><path d="M176.99213,116.99212v0c0,-0.00058 0.00046,-0.00104 0.00104,-0.00104l126.01469,0.00104c0.00027,0 0.00055,0.00012 0.00076,0.00031c0.00018,0.00021 0.00031,0.00049 0.00031,0.00076l-0.00107,126.01468c0,0.00061 -0.00046,0.00104 -0.00104,0.00104l-126.01469,-0.00104v0c-0.00058,0 -0.00105,-0.00049 -0.00105,-0.00104z" fill="#8b0000" fill-rule="evenodd" stroke="none" stroke-width="1" stroke-linecap="square" stroke-linejoin="miter"></path><path d="M187.92827,127.92828v0c0,-0.00049 0.0004,-0.00085 0.00087,-0.00085l104.12511,0.00085c0.00024,0 0.00046,0.00009 0.00061,0.00024c0.00018,0.00018 0.00027,0.0004 0.00027,0.00064l-0.00089,104.12509c0,0.00049 -0.00037,0.00089 -0.00085,0.00089l-104.12512,-0.00089v0c-0.00047,0 -0.00087,-0.00037 -0.00087,-0.00085z" fill="#be0000" fill-rule="evenodd" stroke="none" stroke-width="1" stroke-linecap="square" stroke-linejoin="miter"></path><path d="M224.82061,175.10297c-3.34671,0 -6.35617,0.79776 -9.02835,2.39328c-2.67218,1.59552 -4.78658,3.76828 -6.34319,6.51831c-1.55661,2.75 -2.33492,5.83728 -2.33492,9.26184c0,3.42453 0.77831,6.53128 2.33492,9.32022c1.55661,2.78891 3.67101,4.98114 6.34319,6.57666c2.67218,1.59555 5.68164,2.39331 9.02835,2.39331c3.34671,0 6.34969,-0.81723 9.0089,-2.45166c2.67218,-1.63446 4.78658,-3.82669 6.34319,-6.57669c1.55661,-2.75003 2.33492,-5.83731 2.33492,-9.26184c0,-3.42456 -0.77831,-6.51184 -2.33492,-9.26184c-1.55661,-2.75003 -3.67101,-4.92279 -6.34319,-6.51831c-2.65921,-1.59552 -5.66219,-2.39328 -9.0089,-2.39328zM240.951,137.9194l-21.80031,29.72922v0c0.39688,-0.16071 0.80807,-0.3092 1.23358,-0.44547c1.99765,-0.63562 4.35202,-0.95343 7.06313,-0.95343c4.86441,0 9.26833,1.16098 13.21175,3.48291c3.9434,2.30899 7.12799,5.47409 9.55371,9.49533c2.43869,4.02124 3.65802,8.70407 3.65802,14.04843c0,5.25357 -1.29718,10.07257 -3.89154,14.45703c-2.59435,4.38443 -6.1032,7.87384 -10.52657,10.4682c-4.42337,2.58139 -9.30077,3.87207 -14.63216,3.87207c-5.50003,0 -10.42281,-1.27124 -14.76836,-3.81369c-4.34554,-2.55545 -7.79602,-5.97998 -10.35146,-10.27365c-2.54247,-4.30661 -3.81371,-9.0932 -3.81371,-14.35974c0,-7.32904 2.54895,-14.61917 7.64685,-21.87039l24.38043,-33.83682z" fill="#fef8f8" fill-rule="evenodd" stroke="none" stroke-width="1" stroke-linecap="square" stroke-linejoin="miter"></path><path d="M224.82061,175.10297c-3.34671,0 -6.35617,0.79776 -9.02835,2.39328c-2.67218,1.59552 -4.78658,3.76828 -6.34319,6.51831c-1.55661,2.75 -2.33492,5.83728 -2.33492,9.26184c0,3.42453 0.77831,6.53128 2.33492,9.32022c1.55661,2.78891 3.67101,4.98114 6.34319,6.57666c2.67218,1.59555 5.68164,2.39331 9.02835,2.39331c3.34671,0 6.34969,-0.81723 9.0089,-2.45166c2.67218,-1.63446 4.78658,-3.82669 6.34319,-6.57669c1.55661,-2.75003 2.33492,-5.83731 2.33492,-9.26184c0,-3.42456 -0.77831,-6.51184 -2.33492,-9.26184c-1.55661,-2.75003 -3.67101,-4.92279 -6.34319,-6.51831c-2.65921,-1.59552 -5.66219,-2.39328 -9.0089,-2.39328zM240.951,137.9194l-21.80031,29.72922v0c0.39688,-0.16071 0.80807,-0.3092 1.23358,-0.44547c1.99765,-0.63562 4.35202,-0.95343 7.06313,-0.95343c4.86441,0 9.26833,1.16098 13.21175,3.48291c3.9434,2.30899 7.12799,5.47409 9.55371,9.49533c2.43869,4.02124 3.65802,8.70407 3.65802,14.04843c0,5.25357 -1.29718,10.07257 -3.89154,14.45703c-2.59435,4.38443 -6.1032,7.87384 -10.52657,10.4682c-4.42337,2.58139 -9.30077,3.87207 -14.63216,3.87207c-5.50003,0 -10.42281,-1.27124 -14.76836,-3.81369c-4.34554,-2.55545 -7.79602,-5.97998 -10.35146,-10.27365c-2.54247,-4.30661 -3.81371,-9.0932 -3.81371,-14.35974c0,-7.32904 2.54895,-14.61917 7.64685,-21.87039l24.38043,-33.83682z" fill="none" fill-rule="evenodd" stroke="#fef8f8" stroke-width="2" stroke-linecap="butt" stroke-linejoin="round"></path><path d="M284.10784,153.91941v10.15689h-39.32388v-10.15689z" fill="#fef8f8" fill-rule="evenodd" stroke="none" stroke-width="1" stroke-linecap="square" stroke-linejoin="miter"></path><path d="M284.10784,153.91941v10.15689h-39.32388v-10.15689z" fill="none" fill-rule="evenodd" stroke="#fef8f8" stroke-width="1" stroke-linecap="butt" stroke-linejoin="round"></path><path d="M269.53033,178.65849h-10.15689v-39.32391h10.15689z" fill="#fef8f8" fill-rule="evenodd" stroke="none" stroke-width="1" stroke-linecap="square" stroke-linejoin="miter"></path><path d="M269.53033,178.65849h-10.15689v-39.32391h10.15689z" fill="none" fill-rule="evenodd" stroke="#fef8f8" stroke-width="1" stroke-linecap="butt" stroke-linejoin="round"></path></g></g></svg>