<svg version="1.1" xmlns="http://www.w3.org/2000/svg" xmlns:xlink="http://www.w3.org/1999/xlink" width="15.03604" height="9.1932" viewBox="0,0,15.03604,9.1932"><g transform="translate(-188.52282,-189.63966)"><g fill="#ff0000" fill-rule="evenodd" stroke="#ffffff" stroke-width="0" stroke-linecap="round" stroke-linejoin="round" stroke-miterlimit="10"><path d="M201.15161,190.11555l0.06938,0.14371l0.23912,-0.14248l0.08921,0.1016l0.13628,0.00247l0.24655,-0.0793l0.19204,-0.02106l0.15239,0.08673l0.15735,-0.16479l0.17222,0.05824l0.08673,0.17841l0.10283,0.08673l-0.02725,0.0793l0.09416,0.11275l0.13256,0.06566l0.22054,0.3023l0.02478,0.08301l0.13256,0.04213l0.06815,0.13256l0.0062,0.23788l-0.13504,0.20071l-0.09541,0.03966l0.02229,0.10655l-0.09416,0.13504l0.14991,0.28744l-0.09293,0.12266l0.01362,0.23912l-0.08921,0.13753l0.02725,0.22177l0.14124,0.23044l0.18088,0.1462l0.08301,0.12762l-0.02229,0.04336l-0.18214,0.08053l-0.18088,-0.00124l-0.13009,-0.09044l-0.14,-0.00247l-0.0062,0.1016l-0.08921,0.24779l-0.20195,0.08673l-0.12762,0.1685l-0.16106,-0.15859l0.06071,-0.04956l-0.13009,-0.29612l-0.1809,-0.20938l-0.14248,0.13257l-0.28124,0.05327l-0.16602,-0.07309l-0.07062,0.12637l-0.18213,0.09416v0.14744l-0.09044,0.08053l0.1239,0.2131l-0.04584,0.08797l-0.04089,0.26514l0.12762,0.05575l0.24409,0.2515l-0.02849,0.11522l-0.20195,0.06566l-0.16973,-0.02354l-0.19699,0.22921l-0.02354,0.08301l-0.15736,0.0062l-0.08797,0.22797l0.04833,0.12639l-0.06442,0.11274l0.05947,0.15488l-0.19328,0.25771l-0.01487,0.23417l-0.28002,0.1276l-0.02478,-0.10283l-0.14495,0.02229l-0.20938,-0.18461l-0.13504,-0.05327l-0.02849,-0.08053l-0.41134,0.02229l-0.03346,0.12142l-0.16106,0.06319l-0.03221,0.11522l-0.16602,0.03469l-0.16107,-0.13876l-0.02602,-0.27505l-0.18337,0.07062l-0.33823,-0.09788l-0.22425,0.30354l0.01115,0.21434l-0.08176,0.04956l-0.00496,0.14248l0.06442,0.04833l-0.07806,0.20442l0.06566,0.09416l-0.15611,0.05204l-0.06071,-0.04584l-0.16602,0.11026h-0.12886l-0.31965,-0.24531l-0.11646,0.00247l-0.08177,0.10655l-0.00991,0.12885l-0.10035,0.14497l0.00991,0.20815l-0.16232,0.11275l-0.21682,0.01859l-0.23044,0.2577l-0.14495,0.0446l-0.16355,-0.00247l-0.07806,0.10655l-0.01858,0.13009l-0.08426,0.04833l-0.11769,-0.08426l0.06442,-0.07433l-0.10902,-0.28868l0.1338,-0.27752l-0.01487,-0.08921l-0.17096,-0.2131l-0.17717,-0.04336l-0.13381,0.11026l-0.10283,-0.03718l-0.16355,0.07309l-0.23417,-0.06071l-0.06195,0.07433l-0.00496,0.15362l-0.14867,0.01115l-0.06691,0.15239l-0.15735,0.1685l-0.11026,-0.12886l-0.38037,-0.15982l-0.16973,-0.34939l-0.06689,-0.00867l-0.09416,0.15859l-0.1685,-0.0384l-0.22178,-0.19204l-0.19699,-0.03099l-0.09541,0.15859l-0.22054,0.16974l-0.16232,-0.1685l-0.13009,0.06071l-0.18832,-0.07186l-0.12389,0.1846l-0.03469,0.12886l0.04213,0.18088l-0.01115,0.1338l-0.18584,0.2131l-0.08796,0.04584l-0.18708,-0.14371l-0.12143,0.03966l-0.1462,-0.0508l-0.32214,0.06814l-0.32337,0.1276l-0.36798,0.18957l-0.11895,0.19081l-0.00744,0.14248l-0.29735,-0.1016l-0.11522,0.06691l-0.02229,0.15611l-0.09663,0.04584l-0.10407,-0.07558l-0.21434,-0.24409l-0.0446,-0.10532l0.21929,-0.20815l-0.2131,-0.04089l-0.13753,-0.12018l-0.08673,-0.23664l-0.08301,0.02106l-0.06195,-0.13753l-0.14868,-0.15859l0.05204,-0.18461l-0.11275,-0.07806l-0.04336,-0.16355l0.17097,-0.33328l-0.0508,-0.08426l0.09416,-0.08921l0.26019,-0.47949l0.07062,-0.16726l-0.0446,-0.06939l-0.18957,0.01611l-0.15611,-0.12637l0.01115,-0.09293l0.13628,-0.05823l0.01982,-0.09044l0.34939,-0.20566l0.08053,-0.10408l0.08549,0.04213l0.1462,-0.07186l0.08549,-0.15486l0.08053,0.05947l0.15611,-0.07309l0.05327,-0.22425l0.19948,-0.28869l-0.00124,-0.34567l0.20815,-0.00247l0.23541,0.14l0.01238,0.19824l0.23665,0.11151l0.08921,-0.24655l0.12266,-0.12143l0.11274,0.13381l0.11026,0.03718l0.16106,-0.0508l0.06815,-0.06938l0.25771,-0.04833l0.12266,0.09663l-0.01982,0.1363l0.2131,0.03718l0.19699,-0.20815l0.12637,-0.02973l-0.04336,-0.19081l0.10779,-0.03718l0.08301,-0.1016l0.10655,0.11522l0.25522,0.17594l0.21929,0.06814l0.14248,-0.06442l0.12514,0.08176l0.19081,-0.11522l0.21559,0.13009l0.20071,-0.20072l0.17841,-0.03717l0.14495,-0.07682l0.06939,-0.10779l0.41876,-0.30974l0.14371,0.0062l0.1462,0.08176l0.05574,-0.03593l0.15239,0.11646l0.09416,0.00124l0.09663,-0.23169l0.17841,-0.03964l0.05452,0.1016l0.20567,-0.0954l-0.10532,-0.45347l-0.25522,-0.06814l-0.08549,-0.1524l-0.13133,0.07186l-0.15859,-0.16602l-0.17097,0.03221l0.17097,-0.32212l0.11895,-0.0508l0.07682,-0.11399l0.11026,-0.02973l0.11399,-0.26886l0.26515,-0.06566l0.17222,0.10407l0.09044,-0.1276l0.15859,-0.06939l0.11399,0.01239l0.07681,-0.25771l0.15859,-0.1016l-0.06566,-0.1338l0.30356,-0.18214l-0.01115,-0.1276l0.07558,-0.09788l0.19452,-0.13256l0.06071,-0.18214l0.29983,-0.15611l-0.12514,-0.15611l0.14248,-0.14124l0.08176,-0.15486l0.15488,-0.1239l0.03593,-0.10283l0.33823,-0.14992l0.10902,0.02354l0.14992,0.2701l0.21187,0.07806l0.08673,-0.04213l0.17345,0.12266l0.33949,-0.11151l0.09167,-0.21807l0.21929,0.00496l0.17965,0.14495l0.02229,0.14l0.09293,0.00991l0.11399,0.14371l0.23911,-0.02973l0.09416,-0.16479l0.14248,-0.01734l0.17222,0.06195l0.13381,-0.10902l0.13133,0.04584l0.19081,-0.02479l0.05452,0.10779l0.12142,0.03966"></path></g></g></svg>