<svg version="1.1" xmlns="http://www.w3.org/2000/svg" xmlns:xlink="http://www.w3.org/1999/xlink" width="7.90709" height="8.85486" viewBox="0,0,7.90709,8.85486"><g transform="translate(-236.91566,-192.72357)"><g fill="#ff0000" fill-rule="evenodd" stroke="#ffffff" stroke-width="0" stroke-linecap="round" stroke-linejoin="round" stroke-miterlimit="10"><path d="M240.1543,193.20057l-0.07433,0.16355l0.06442,0.04214l0.08673,0.23788l-0.14124,0.09044l-0.01115,0.19824l-0.06814,0.09663l0.0793,0.07433l0.18957,-0.03718l0.22177,0.08797l0.13134,-0.07806l0.00496,-0.10408l0.25522,0.01115l0.26763,-0.06815l0.13134,0.03593l0.16107,-0.21434l0.19452,-0.05204l0.04213,-0.07806l0.12142,0.05575l0.06195,-0.07309l0.15239,0.07062l-0.00373,0.17965l0.19576,0.25646l0.19824,-0.01982l0.36053,0.19081l0.08301,-0.09787l0.11646,-0.00992l0.19081,-0.08177l0.02973,0.06319l0.36797,-0.05947l0.14248,0.11152l-0.19203,0.24903l-0.20072,0.36053l-0.09168,0.26142l-0.03964,0.31717l-0.08673,0.41134l0.02849,0.20195l0.15735,0.07186l0.16353,0.14248l-0.0161,0.38408l0.02478,0.10902l-0.07186,0.24409l-0.15239,0.08177l-0.03099,0.12266l0.28621,-0.06691l0.15362,0.07558l0.10407,-0.03221l0.18337,0.11151l0.49434,0.07682l0.23664,0.1276l0.16479,0.33948l-0.05575,0.14744l0.02973,0.07806l-0.13753,0.08549l-0.02229,0.14l0.18708,0.11769l-0.08053,0.13257l-0.07309,-0.04336l-0.12886,0.08301l-0.28992,-0.00992l-0.00744,0.11275l-0.1338,0.08053l-0.25647,0.29116l-0.02106,0.23291l0.04336,0.04956l-0.07309,0.14744l-0.33948,0.10902l-0.03593,-0.15115l-0.26886,0.08053l-0.08426,-0.01487l-0.29735,0.15239l-0.1177,0.12885l-0.26267,0.05452l0.02478,0.07806l-0.1747,0.11026l-0.24655,0.07559l-0.1685,-0.05823l-0.1016,0.05203l-0.15735,-0.00124l-0.24531,0.13877l-0.01362,0.05823l-0.24161,-0.07186l-0.18832,0.04833l-0.17841,-0.04708l-0.057,0.05575l-0.31098,-0.06319l-0.10283,0.04213l-0.21187,-0.02354l-0.20071,0.36302l0.17841,0.20938l-0.1462,0.057l-0.10779,0.14248l-0.44231,0.10655l-0.09044,-0.02849l-0.26637,0.15115l0.03346,0.08301l-0.06939,0.17345l-0.18461,-0.02849l-0.0954,0.05327l-0.02849,0.11522l-0.35806,-0.0384l-0.09044,-0.13876l-0.16107,-0.05574l-0.08426,-0.10407l-0.07062,-0.20195l-0.01487,-0.15362l-0.11647,-0.2986l-0.20815,-0.14495l0.08921,-0.24779l0.17096,-0.15362l-0.01981,-0.19081l0.08921,-0.09664l0.19081,-0.00744l0.08301,-0.10532l0.16479,-0.03593l0.24903,0.04833l0.08426,-0.10779l0.2515,0.05327l0.1239,-0.07682l0.20938,0.03346l0.04833,-0.28002l0.07806,-0.21186l0.15982,-0.11895l0.0062,-0.08549l-0.17717,-0.09912l0.06319,-0.21929l-0.12266,-0.19701l-0.20195,0.08301l-0.14248,0.1016l-0.17841,-0.06319l0.0508,-0.20938l-0.14868,-0.17841l-0.05327,-0.19576l-0.11026,0.05947l-0.08673,-0.05204l-0.26019,0.19204l-0.09912,-0.14991l-0.24284,-0.01238l-0.24284,-0.15736l-0.13753,-0.02602l0.0062,-0.08301l-0.13628,-0.08053l0.02849,-0.19204l-0.06815,-0.11275l0.19701,-0.29239l0.0793,-0.03469l0.05823,-0.17841l-0.11275,-0.26886l0.16479,-0.1016l0.10779,-0.25027l-0.05452,-0.05574l-0.08673,-0.28124l-0.18832,-0.03098l-0.07062,-0.09663l0.14991,-0.05452l0.05947,-0.07309l-0.0384,-0.13876l-0.15488,-0.22178l-0.31346,-0.26142l-0.01115,-0.13505l0.05327,-0.22054l-0.13628,-0.04336l-0.00373,-0.13876l0.07558,0.01362l0.15859,-0.11769l0.12886,-0.00991l0.26514,-0.07682l0.21807,-0.12142l0.057,-0.10408l-0.09416,-0.17097l0.09293,-0.1462l0.11522,-0.0062l0.04833,-0.18461l0.22424,-0.14l-0.05327,-0.16106l-0.11028,0.05204l-0.17717,-0.01982l-0.14744,-0.08673l0.18337,-0.2986l0.13009,-0.08673l0.04956,0.1462l0.18832,0.13628l0.06071,-0.07681l0.14992,0.09416l0.22797,-0.08921l0.17222,0.03222l0.21434,0.24035l0.36797,0.13381l0.28372,0.04956l0.40885,-0.18957"></path></g></g></svg>