<svg version="1.1" xmlns="http://www.w3.org/2000/svg" xmlns:xlink="http://www.w3.org/1999/xlink" width="9.89392" height="4.17681" viewBox="0,0,9.89392,4.17681"><g transform="translate(-93.5387,-335.84624)"><g fill="#ff0000" stroke="#ffffff" stroke-width="0" stroke-linecap="round" stroke-linejoin="round" stroke-miterlimit="10"><path d="M101.2582,336.48051l0.037,0.14898l0.17018,0.07827l0.09835,0.23355l-0.01263,0.09847l0.09987,0.2285l0.24265,0.17548l-0.00997,0.26764l0.07373,0.10352l0.12487,0.02902l0.06401,0.07575l0.15113,0.01389l0.06578,-0.04672l0.24579,0.12751l0.02235,0.10731l0.14884,0.13004l0.29504,0.08584l0.09216,-0.01389l0.09533,0.08711l0.02879,0.11489l0.14115,0.15781l-0.0587,0.13256l-0.2169,-0.05681l-0.11615,0.03283l-0.20603,-0.03409l-0.1818,0.01135l-0.11464,0.05302l-0.13647,-0.04924l-0.33191,0.12751l-0.30464,0.01137l-0.06136,0.07827l-0.10757,0.02147l-0.25136,-0.16413l-0.22447,-0.08459l-0.1308,-0.08711l-0.09127,-0.24492l0.03914,-0.10984l0.14178,0.14391l0.20427,-0.00883l-0.02904,-0.1919l-0.15844,-0.23735l-0.12309,-0.02147l-0.04306,-0.14644l0.13042,-0.06439l0.18041,-0.19821l-0.04519,-0.32699l0.24391,-0.11995l-0.22269,-0.41914l-0.07702,-0.0707l-0.01351,-0.16034l-0.11437,-0.12877l0.10277,-0.06817l-0.0471,-0.11867l0.05264,0.08964l0.01301,0.08837l0.12487,0.11867" fill-rule="evenodd"></path><path d="M100.37572,337.16225l0.10491,0.26385l0.01061,0.15403l-0.06477,0.09848l-0.13634,0.03788l-0.35224,-0.10859l-0.01742,-0.0404l-0.05226,-0.03157l-0.03132,-0.05681l-0.04128,-0.0202l-0.05567,-0.09721l-0.03535,-0.01767l-0.00985,-0.04546l-0.03662,-0.04419l0.05694,-0.03787l-0.04065,-0.23355l0.08382,-0.1212l0.19719,0.05302l0.12739,0.0972l0.2929,0.15024" fill-rule="evenodd"></path><path d="M94.23753,339.85135l-0.22522,0.1717h-0.19278l-0.22119,-0.07196l-0.05782,-0.17675l0.02639,-0.12751l0.12145,-0.11236l0.18155,-0.05176l0.17535,-0.00505l0.19858,0.14771l-0.0063,0.22598" fill-rule="evenodd"></path><path d="M99.7003,337.36425l0.02436,0.00632l0.0548,0.07196l0.01161,0.0303l0.02967,0.01515l0.00682,0.03409l0.0846,0.06313l-0.01275,0.09342l-0.1597,0.06564l-0.18484,-0.05555l-0.11274,-0.14266l-0.03649,-0.2525l0.05934,-0.13508l0.09785,0.17043l0.12789,0.00128l0.00958,0.03409" fill-rule="evenodd"></path><path d="M100.81886,336.08914l-0.1544,-0.09469l-0.04721,-0.10731l0.10833,-0.0404l0.15416,0.08584l0.04835,0.10226l-0.1092,0.05429" fill-rule="evenodd"></path><path d="M100.85672,338.98023l-0.09936,-0.02904l-0.0471,-0.0909l0.04065,-0.13761l0.12815,0.05807l0.0794,0.11362l-0.10176,0.08584" fill-rule="evenodd"></path><path d="M93.70476,338.37423l0.1419,-0.06818l0.07675,0.10352l0.03017,0.12877l-0.24883,-0.16411" fill-rule="evenodd"></path><path d="M94.23574,339.85101l-0.22524,0.17171h-0.19279l-0.22119,-0.07197l-0.05782,-0.17675l0.02639,-0.12752l0.12147,-0.11236l0.18156,-0.05176l0.17536,-0.00505l0.19859,0.14772l-0.00632,0.22599" fill-rule="nonzero"></path><path d="M100.85521,338.97985l-0.09936,-0.02904l-0.0471,-0.0909l0.04065,-0.13762l0.12815,0.05807l0.07942,0.11362l-0.10176,0.08585" fill-rule="nonzero"></path><path d="M93.70295,338.37384l0.14191,-0.06817l0.07677,0.10352l0.03017,0.12879l-0.24884,-0.16413" fill-rule="nonzero"></path><path d="M101.25669,336.48004l0.03698,0.14899l0.17019,0.07827l0.09835,0.23356l-0.01262,0.09847l0.09986,0.22851l0.24266,0.1755l-0.00997,0.26765l0.07374,0.10352l0.12487,0.02904l0.06402,0.07576l0.15113,0.01389l0.06578,-0.04672l0.24582,0.12752l0.02234,0.10732l0.14886,0.13004l0.29505,0.08585l0.09217,-0.01389l0.09533,0.08712l0.02878,0.11488l0.14115,0.15782l-0.05871,0.13256l-0.2169,-0.05682l-0.11615,0.03283l-0.20605,-0.0341l-0.1818,0.01137l-0.11464,0.05303l-0.13647,-0.04924l-0.33192,0.12752l-0.30466,0.01135l-0.06137,0.07827l-0.10757,0.02147l-0.25137,-0.16413l-0.22447,-0.08459l-0.1308,-0.08712l-0.09128,-0.24493l0.03915,-0.10984l0.14178,0.14392l0.20429,-0.00883l-0.02905,-0.19191l-0.15845,-0.23735l-0.1231,-0.02147l-0.04306,-0.14644l0.13043,-0.0644l0.18041,-0.19822l-0.0452,-0.327l0.24392,-0.11995l-0.22271,-0.41917l-0.07702,-0.0707l-0.01351,-0.16034l-0.11438,-0.12879l0.10277,-0.06817l-0.0471,-0.11867l0.05265,0.08964l0.01301,0.08837l0.12487,0.11867" fill-rule="nonzero"></path><path d="M99.69872,337.36381l0.02438,0.0063l0.0548,0.07197l0.01161,0.0303l0.02966,0.01515l0.00682,0.0341l0.0846,0.06312l-0.01275,0.09342l-0.1597,0.06565l-0.18484,-0.05555l-0.11274,-0.14267l-0.03649,-0.25251l0.05934,-0.13509l0.09785,0.17044l0.1279,0.00128l0.00958,0.0341" fill-rule="nonzero"></path><path d="M100.37419,337.16181l0.10492,0.26386l0.01061,0.15403l-0.06477,0.09847l-0.13636,0.03788l-0.35225,-0.10857l-0.01742,-0.0404l-0.05228,-0.03157l-0.03132,-0.05681l-0.04128,-0.0202l-0.05567,-0.09722l-0.03535,-0.01767l-0.00985,-0.04545l-0.03662,-0.0442l0.05695,-0.03788l-0.04065,-0.23356l0.08383,-0.1212l0.19721,0.05302l0.1274,0.09721l0.29291,0.15024" fill-rule="nonzero"></path><path d="M100.81734,336.08865l-0.15442,-0.09469l-0.04723,-0.10732l0.10833,-0.0404l0.15416,0.08585l0.04835,0.10227l-0.1092,0.05429" fill-rule="nonzero"></path></g></g></svg>