<svg version="1.1" xmlns="http://www.w3.org/2000/svg" xmlns:xlink="http://www.w3.org/1999/xlink" width="6.45828" height="3.76393" viewBox="0,0,6.45828,3.76393"><g transform="translate(-164.268,-257.30832)"><g fill="#ff0000" stroke="#ffffff" stroke-width="0" stroke-linecap="round" stroke-linejoin="round" stroke-miterlimit="10"><path d="M168.66404,257.83836l0.08485,-0.04181l0.13527,0.12666l0.26684,-0.00122l0.17217,0.13281l0.16601,0.07993l0.02951,0.08854l0.30129,0.12297l0.01844,0.10945l0.37505,0.12173h0.10945l0.30006,0.21766l0.1033,0.20168l-0.06641,0.20659l0.01353,0.12052l-0.04427,0.13527l-0.01845,0.23611l-0.08116,0.1365l0.02951,0.1033l-0.05165,0.09346l-0.31111,0.26807l-0.07009,0.11436l-0.1365,0.10085l-0.08485,0.17462l-0.16109,0.06148l-0.07378,0.12052l-0.43285,0.091l-0.15249,0.05902l-0.06886,-0.06025l-0.13282,0.10698l-0.11805,-0.07502l-0.28529,0.06271l-0.14879,-0.09715l-0.07255,0.01476l-0.34432,-0.05165l-0.091,-0.10698l-0.17708,-0.32464l-0.08362,-0.05533l-0.00492,-0.24226l-0.10453,-0.34923l-0.16355,-0.12911l-0.05287,-0.26192l-0.08363,-0.15987l0.02337,-0.10576l-0.07624,-0.24226l0.0578,-0.25454l0.11436,-0.04427l0.35169,0.00738l0.19676,-0.19553l0.06271,-0.15988l0.14879,-0.16601l0.09346,0.00615l0.07993,-0.2029l-0.04182,-0.10944l0.1033,-0.10453l0.09469,0.04673l0.21398,0.03198l-0.03812,-0.15372l0.05534,-0.03935l0.07132,0.23486" fill-rule="evenodd"></path><path d="M164.38467,257.38335l0.31603,0.01844l0.11805,0.1697l0.11436,-0.13404l0.15987,0.11805l0.10085,-0.0086l0.08731,0.07501l0.08362,-0.02337l0.33817,0.31726l0.03689,0.11314l-0.06149,0.09715l-0.091,-0.08116l-0.23365,0.05287l-0.1033,0.15618l-0.19799,-0.01844l-0.21398,-0.19553l-0.03443,-0.2066l0.0209,-0.14141l-0.1697,0.11191l-0.08854,-0.08362l-0.05287,-0.12789l-0.19922,-0.12052l-0.03812,-0.16356l0.10822,0.07501" fill-rule="evenodd"></path><path d="M169.31494,258.06174l0.16601,0.07993l0.02952,0.08855l0.3013,0.12297l0.01844,0.10945l0.37508,0.12174h0.10945l0.30007,0.21767l0.1033,0.20169l-0.06641,0.20661l0.01352,0.12052l-0.04427,0.13528l-0.01844,0.23612l-0.08117,0.13651l0.02952,0.1033l-0.05164,0.09347l-0.31113,0.26809l-0.0701,0.11437l-0.1365,0.10084l-0.08485,0.17463l-0.1611,0.06149l-0.07379,0.12052l-0.43287,0.091l-0.1525,0.05902l-0.06887,-0.06025l-0.13282,0.10699l-0.11805,-0.07501l-0.28531,0.06271l-0.1488,-0.09715l-0.07255,0.01476l-0.34434,-0.05165l-0.091,-0.10698l-0.17709,-0.32467l-0.08363,-0.05534l-0.00492,-0.24227l-0.10453,-0.34924l-0.16356,-0.12913l-0.05288,-0.26194l-0.08362,-0.15987l0.02337,-0.10577l-0.07625,-0.24227l0.0578,-0.25456l0.11436,-0.04426l0.3517,0.00738l0.19676,-0.19553l0.06271,-0.15987l0.1488,-0.16602l0.09347,0.00615l0.07993,-0.20292l-0.04182,-0.10945l0.10331,-0.10453l0.09469,0.04674l0.21398,0.03197l-0.03812,-0.15372l0.05534,-0.03935l0.07133,0.23489l0.08485,-0.04181l0.13528,0.12666l0.26686,-0.00123l0.17217,0.13282" fill-rule="nonzero"></path><path d="M165.08459,257.55753l0.10084,-0.00861l0.08731,0.07502l0.08363,-0.02336l0.33817,0.31729l0.03689,0.11314l-0.06149,0.09715l-0.091,-0.08116l-0.23366,0.05287l-0.10331,0.15618l-0.19799,-0.01844l-0.21398,-0.19553l-0.03444,-0.20661l0.02091,-0.14141l-0.16971,0.11191l-0.08854,-0.08362l-0.05288,-0.1279l-0.19922,-0.12052l-0.03812,-0.16356l0.10822,0.07501l0.31605,0.01844l0.11805,0.16971l0.11436,-0.13404l0.15988,0.11805" fill-rule="nonzero"></path></g></g></svg>