<svg version="1.1" xmlns="http://www.w3.org/2000/svg" xmlns:xlink="http://www.w3.org/1999/xlink" width="8.42499" height="8.70624" viewBox="0,0,8.42499,8.70624"><g transform="translate(-233.71789,-180.54705)"><g fill="#ff0000" fill-rule="evenodd" stroke="#ffffff" stroke-width="0" stroke-linecap="round" stroke-linejoin="round" stroke-miterlimit="10"><path d="M240.06757,181.34364l0.08053,0.11895l-0.04833,0.10655l0.1016,0.13381l0.01487,0.11275l0.11895,0.04708l0.21557,-0.09044l0.10037,0.10532l-0.057,0.19328l0.03221,0.08426l0.01364,0.43116l-0.08053,0.2131l0.07186,0.17717l0.0954,-0.10035l0.09293,0.00991l0.0446,0.19824l0.19576,-0.04089l0.07186,-0.28249l0.13753,-0.01362l0.13256,0.40018l0.19948,0.04584l0.02354,0.25647l-0.17965,0.25027l-0.01114,0.12762l0.13753,0.11399l0.04708,0.16726l0.23044,0.057l0.01362,0.16107l0.05824,0.11275l-0.0384,0.12885l-0.09167,0.0954l0.03964,0.08673l-0.08797,0.13876l0.10532,0.08673l0.0954,0.18461l0.15983,0.10532l0.03964,0.0793l-0.08921,0.14371l-0.1338,0.08921l-0.17594,0.05204l0.01982,0.14992l0.10902,0.17594l-0.13753,0.31098l0.01364,0.18832l-0.20072,0.32337l-0.06195,0.06195l0.057,0.14l-0.02725,0.28868l0.04214,0.06071l-0.09541,0.12389l-0.12513,0.03593l0.00743,0.09788l0.14495,0.09912l0.09541,0.12637l0.19824,0.12639l0.01239,0.18584l-0.09167,0.27754l-0.24284,-0.1462l-0.11895,0.11151l-0.06195,0.18957l0.07309,0.22424l0.12018,0.10283l-0.04213,0.1623l-0.39647,0.20567l-0.17345,-0.07559l-0.06195,-0.10407l-0.1276,0.0892l-0.04708,-0.1338l-0.22548,-0.17965l-0.26886,0.08053l-0.22425,-0.06319l-0.20815,0.08426l-0.12514,-0.11646l-0.12018,0.23044l-0.12514,-0.06566l-0.15611,-0.00247l-0.01239,-0.16602l-0.08426,-0.17964l-0.0062,-0.20815l-0.04956,-0.08176l-0.13753,-0.05327l-0.17222,-0.16602l-0.33823,-0.04213l-0.04584,-0.06442l-0.18214,-0.02106l-0.10532,-0.0508l0.31594,-0.06815l0.23541,-0.17222l0.63559,-0.38408l0.12018,-0.15859l0.10037,-0.03098l0.22796,-0.18213l0.1177,-0.14744l-0.01239,-0.13256l0.17841,-0.28371l0.00867,-0.15983l0.10035,-0.19948l0.00124,-0.32832l-0.10284,-0.13381l-0.3023,-0.20938l-0.34196,-0.01734l0.00867,-0.1623l-0.08921,-0.17222l-0.17717,-0.22178l0.01858,-0.11399l-0.12266,-0.25646l0.14124,-0.07309l-0.07806,-0.24903l-0.01115,-0.40143l-0.10158,-0.11275l-0.09788,0.07806l-0.13753,-0.0446l-0.09787,0.26267l-0.10037,0.15611l0.08549,0.33079l-0.15736,-0.09293l-0.21929,-0.03098l0.01362,-0.23912l-0.15115,-0.09912l-0.14124,0.45841l-0.11399,0.06442l-0.11646,-0.07558l-0.0384,-0.14248h-0.11026l-0.23788,0.23912l-0.14248,0.22301l0.05327,0.1177l0.00496,0.22178l-0.12639,0.19328l0.01239,0.29859l0.3655,0.2924l0.06815,0.32956l0.10035,0.15239l-0.02478,0.13257l-0.26142,0.08673l-0.0062,0.00496l-0.15239,0.15488l-0.16974,-0.02973l-0.17717,0.15611l0.03593,0.22301l-0.24408,0.13133l-0.06319,0.08426l-0.12514,-0.11895l-0.33452,-0.08053l-0.09663,0.05327l-0.14495,0.2069l-0.11274,0.03469l-0.21807,-0.08921l-0.05204,-0.16726l-0.28619,-0.14371l-0.21063,0.06691l-0.06442,-0.04213l-0.32461,0.13504l-0.06195,-0.04089l-0.11769,-0.21682l-0.11026,-0.34072l-0.25152,-0.15611l-0.12514,-0.25522l-0.2069,-0.06071l0.05823,-0.17345l0.11026,-0.15115l0.01734,-0.11522l0.15983,-0.11522l-0.01364,-0.08426l0.20567,0.01982l0.04089,-0.36674l0.02973,-0.05327l0.31221,-0.01858l0.21062,0.07186l-0.01362,0.13256l0.12637,0.09663l0.32338,-0.13381l0.02973,-0.25275l0.12018,-0.1462l0.14248,-0.04087l-0.02106,-0.2515l0.0384,-0.11275l0.00496,-0.22054l0.07062,-0.08426l0.00744,-0.14744l0.09293,-0.09293l0.1016,-0.29239l0.01982,-0.14371l0.09168,0.00124l0.05947,0.14124l0.13381,0.14991l0.1239,0.01982l0.10407,0.20319l0.10532,-0.09044l0.2131,0.01239l0.06195,-0.08797l0.05327,-0.22301l0.15859,-0.16974l-0.0062,-0.08549l0.24779,-0.08301l0.15362,0.03964l0.10532,0.08549l0.09663,-0.06442l0.07682,-0.15239l0.25522,0.15362l0.06939,-0.22424l-0.04956,-0.15611l0.05823,-0.05947l0.03098,-0.21434l0.11151,-0.04213l0.21187,0.00744l0.39151,0.06938l-0.04708,-0.17594l0.1363,-0.18832l-0.13133,-0.3593l-0.08673,-0.1016l-0.00124,-0.14744l-0.10284,-0.20318l-0.04584,-0.21682l-0.16479,-0.11151l0.19576,-0.32585v-0.10037l0.20442,-0.06815l0.22921,-0.02354l0.09663,0.04584l0.06689,0.17097l0.4448,0.10779l0.12637,0.13256l0.30727,0.07682l0.14,0.15362l-0.0508,0.10902M239.06524,183.17731l-0.09168,0.04833l0.01611,0.2131l0.11769,-0.05452l-0.04213,-0.2069"></path></g></g></svg>