<svg version="1.1" xmlns="http://www.w3.org/2000/svg" xmlns:xlink="http://www.w3.org/1999/xlink" width="27.55781" height="55.704" viewBox="0,0,27.55781,55.704"><g transform="translate(-226.22109,-152.148)"><g fill-rule="evenodd" stroke-miterlimit="10"><path d="M239.58701,152.648c3.30385,0 6.12059,1.00597 8.45021,3.01793c2.88028,2.47788 4.32041,5.87703 4.32041,10.19744c0,3.70623 -0.93185,6.59709 -2.79556,8.67258c-1.84252,2.01196 -4.01332,3.26149 -6.51237,3.74859v0.25414c6.81947,1.50368 10.2292,6.03587 10.2292,13.59658c0,3.9392 -1.03774,7.27481 -3.11323,10.00683c-2.62613,3.47327 -6.3006,5.20991 -11.0234,5.20991c-4.95576,0 -9.09615,-2.44611 -12.42118,-7.33834l3.24031,-3.71682c2.43552,4.02391 5.47463,6.03587 9.11733,6.03587c2.62613,0 4.84987,-1.1754 6.67123,-3.52621c1.29188,-1.6731 1.93783,-3.98156 1.93783,-6.92536c0,-3.79094 -0.95303,-6.58651 -2.8591,-8.38668c-1.82134,-1.75781 -4.2357,-2.63672 -7.24304,-2.63672h-3.65328v-4.66985h3.78036c2.96498,0 5.29462,-1.00598 6.9889,-3.01793c1.3766,-1.6731 2.0649,-4.07686 2.0649,-7.21127c0,-2.24492 -0.55064,-4.11921 -1.65192,-5.62289c-1.41895,-1.94842 -3.37798,-2.92263 -5.87703,-2.92263c-3.43091,0 -6.25824,1.91665 -8.48198,5.74996l-3.11323,-3.68505c1.27071,-2.05432 2.9544,-3.68505 5.05107,-4.89223c2.22373,-1.29189 4.5216,-1.93783 6.89358,-1.93783z" fill="#ffffff" stroke="none" stroke-linecap="square" stroke-linejoin="miter"></path><path d="M239.58701,152.648c3.30385,0 6.12059,1.00597 8.45021,3.01793c2.88028,2.47788 4.32041,5.87703 4.32041,10.19744c0,3.70623 -0.93185,6.59709 -2.79556,8.67258c-1.84252,2.01196 -4.01332,3.26149 -6.51237,3.74859v0.25414c6.81947,1.50368 10.2292,6.03587 10.2292,13.59658c0,3.9392 -1.03774,7.27481 -3.11323,10.00683c-2.62613,3.47327 -6.3006,5.20991 -11.0234,5.20991c-4.95576,0 -9.09615,-2.44611 -12.42118,-7.33834l3.24031,-3.71682c2.43552,4.02391 5.47463,6.03587 9.11733,6.03587c2.62613,0 4.84987,-1.1754 6.67123,-3.52621c1.29188,-1.6731 1.93783,-3.98156 1.93783,-6.92536c0,-3.79094 -0.95303,-6.58651 -2.8591,-8.38668c-1.82134,-1.75781 -4.2357,-2.63672 -7.24304,-2.63672h-3.65328v-4.66985h3.78036c2.96498,0 5.29462,-1.00598 6.9889,-3.01793c1.3766,-1.6731 2.0649,-4.07686 2.0649,-7.21127c0,-2.24492 -0.55064,-4.11921 -1.65192,-5.62289c-1.41895,-1.94842 -3.37798,-2.92263 -5.87703,-2.92263c-3.43091,0 -6.25824,1.91665 -8.48198,5.74996l-3.11323,-3.68505c1.27071,-2.05432 2.9544,-3.68505 5.05107,-4.89223c2.22373,-1.29189 4.5216,-1.93783 6.89358,-1.93783z" fill="none" stroke="#ffffff" stroke-linecap="butt" stroke-linejoin="round"></path></g></g></svg>