<svg version="1.1" xmlns="http://www.w3.org/2000/svg" xmlns:xlink="http://www.w3.org/1999/xlink" width="13.04945" height="13.83353" viewBox="0,0,13.04945,13.83353"><g transform="translate(-283.46685,-55.61675)"><g fill="#ff0000" fill-rule="evenodd" stroke="none" stroke-width="0.4" stroke-linecap="round" stroke-linejoin="round" stroke-miterlimit="10"><path d="M296.5163,60.69325l-0.06193,0.07294l-0.13626,0.58766l-0.12524,0.03853l-0.16102,0.26974l0.00137,0.42526l-0.20643,0.25185l-0.18028,0.08946l-0.29726,-0.01238l-0.20368,0.15276l-0.35095,0.01238l-0.17617,0.07844l-0.11835,0.15552l-0.09634,0.27249l0.25598,0.04954l0.0922,0.07707l-0.0922,0.17478l-0.15413,0.08532l-0.06468,0.13626l-0.00826,0.2202l0.04542,0.3248l0.05643,0.05917l0.06607,0.40324l-0.14038,0.04267l-0.12387,-0.07019l-0.1679,0.1679l0.04679,0.12111l-0.04129,0.16653l-0.12937,0.19818l-0.14175,0.32341l0.00551,0.19955l-0.19268,0.28213l-0.07707,0.1913l0.10047,0.64133l0.10597,0.34131l-0.12111,0.03715l-0.10736,0.14175l0.07844,0.07294l-0.13212,0.14726l-0.00137,0.16102l-0.31377,0.41012l0.15,0.18442l-0.21057,0.18718l-0.54361,0.04817l-0.35506,-0.31653l-0.15827,0.04129l-0.09358,-0.06605l-0.28213,0.04129l0.00688,0.13349l-0.21194,0.17478l-0.23533,-0.0578l-0.10873,0.04403l-0.19818,-0.20368l-0.14725,-0.22707l-0.2202,-0.14725l-0.21057,-0.00276l-0.1569,-0.10873l-0.24772,0.10184l-0.1101,-0.02477l-0.20919,0.36195h-0.3881l-0.14036,0.12249l-0.22157,-0.0867l-0.11284,-0.14588l-0.27938,0.04267l-0.06743,0.08532l-0.04817,-0.16514l-0.17341,-0.10597l-0.28901,0.03715l-0.04403,0.28625l0.13212,0.1445l-0.07569,0.24084l-0.12387,0.00826l-0.02614,0.26699l-0.18442,0.08395l-0.07157,0.2202l-0.18992,0.0578l-0.15139,-0.15413l-0.31653,-0.10186l-0.32893,0.10597l-0.19266,-0.12249l-0.13763,0.07982l-0.07431,-0.29589l-0.15,-0.14863l-0.22845,0.03715l-0.31929,-0.09772l-0.06194,-0.08119l-0.41425,-0.02752l-0.06605,-0.13348l0.15552,-0.21744l-0.05368,-0.11423l-0.29312,0.02339l-0.09359,-0.07844l-0.76105,0.14588l-0.13763,-0.08119l-0.30966,0.00276l0.04267,-0.10459l0.21881,-0.13625l-0.00137,-0.1101l0.17203,-0.1734l0.01927,-0.1679l0.23258,-0.2835l0.35094,-0.2725l0.26974,-0.07845l0.10047,-0.07844l0.43076,0.00276l0.21331,-0.05643l0.16102,0.0578l0.07294,-0.07844l0.17617,0.10459l0.2078,-0.04954l0.17341,0.02615l0.14726,-0.06468l0.3124,-0.24772l0.07981,-0.35369l0.36746,-0.23671l0.14038,-0.00413l0.18028,-0.18855l0.15552,-0.00413l0.19542,-0.15139l0.08257,-0.23258l-0.0454,-0.07844l0.13212,-0.27387l0.29864,-0.50095l0.11974,-0.26699l0.24359,0.32341l0.23533,0.06744l0.22434,0.2546l-0.01789,0.13762l0.12524,0.31377l0.28075,0.01377l0.31653,-0.07569l0.20782,-0.11147l0.07844,-0.33029l-0.08809,-0.33167l0.07019,-0.3413l0.24359,-0.26148l0.27663,-0.23946l0.18165,-0.36332l0.24498,-0.38534l-0.02341,-0.06605l0.27386,-0.39222l0.22571,-0.22157l0.05092,-0.14726l0.36745,-0.18992l0.41837,-0.30552l0.63307,-0.38947l0.13763,-0.32754l0.00137,-0.4225l-0.22845,-0.04679l-0.23397,-0.62343l-0.13349,-0.22571l-0.28488,-0.24084l-0.08119,-0.30415l-0.12111,-0.06331l-0.13075,-0.28213l-0.2601,-0.41989l-0.29726,-0.25639l-0.14863,-0.06688l-0.28764,-0.26754l-0.13349,-0.06812l-0.14726,-0.24208l-0.13899,-0.34488l-0.18579,-0.17974l0.03028,-0.22983l0.09909,-0.24415l-0.02341,-0.2535l0.11835,-0.12951l0.03853,-0.18152l-0.10186,-0.11037l0.20643,0.08752l0.14863,0.25212l-0.06605,0.24208l0.13762,0.01802l0.09634,0.19858l0.20368,0.02931l0.51058,0.24428l0.14038,-0.1657l0.22157,-0.05396l0.18579,-0.1657l0.08395,0.18455l0.00137,0.15552l0.1679,0.19446l0.51885,0.10404l0.2202,0.2162l-0.14725,0.28667l0.09634,0.27387l-0.01927,0.10873l0.18579,0.13391l0.04679,0.25255l0.08119,0.05849l-0.02477,0.22323l-0.09084,0.10046l0.14588,0.19405l0.18992,-0.03853l0.17478,0.14038l-0.04954,0.12387l0.1679,0.10322l0.28075,0.3413l0.27387,-0.03028l0.13625,0.11423l0.28762,0.00551l0.3303,0.44177l0.17617,0.15139l-0.00688,0.14038l0.15276,0.03165l0.24222,0.3124l0.08946,-0.04817l0.12111,0.13625l0.36882,-0.02202"></path></g></g></svg>