<svg version="1.1" xmlns="http://www.w3.org/2000/svg" xmlns:xlink="http://www.w3.org/1999/xlink" width="10.30252" height="7.5802" viewBox="0,0,10.30252,7.5802"><g transform="translate(-349.78567,-49.29615)"><g fill="#ff0000" fill-rule="evenodd" stroke="#ffffff" stroke-width="0" stroke-linecap="round" stroke-linejoin="round" stroke-miterlimit="10"><path d=""></path><g><path d="M357.66464,49.78524l0.04542,0.2279l0.13075,0.19529l-0.02341,0.1741l0.26699,0.4803l0.0578,0.22047l0.00413,0.27621l0.06881,0.42842l0.14175,0.54774l0.01514,0.3153l0.21331,0.69017l0.26149,0.55448l0.35782,0.53907l0.29865,0.32727l0.4748,0.38521l0.1101,0.15469l-0.19818,-0.20466l-0.33992,-0.14038l-0.13899,-0.20368l-0.14313,0.0662l-0.29176,-0.2074l0.00688,-0.21937l-0.33992,-0.18539l-0.45829,-0.03439l-0.12524,0.05519l-0.11973,0.40956l0.21607,0.20713l0.07981,0.00371l-0.00688,0.08684l0.05917,0.13336l0.03715,0.33388l-0.10459,0.1705l-0.1624,0.13184l-0.18992,-0.01844l-0.12387,0.15757l0.03302,0.24524l-0.12799,0.11093l-0.1968,-0.12964l-0.38534,-0.01528l-0.14726,0.12055l-0.09909,0.1613l-0.10736,-0.02038l-0.25873,0.20437l-0.13763,-0.05478l-0.53536,-0.05904l-0.11284,-0.0512l-0.30552,0.19556l-0.11973,0.22887l-0.1569,0.09592l-0.15,-0.01775l-0.23121,-0.16212l-0.15139,-0.17588l-0.3124,-0.08876l-0.21194,-0.18772l-0.13487,-0.01569l-0.278,0.09359l-0.08395,-0.24168l-0.21194,-0.1584l-0.32754,-0.30909l-0.12937,0.09096l-0.21193,-0.10927l-0.08395,-0.17698l-0.24772,-0.11644l-0.47619,-0.05064l-0.27663,-0.06607l-0.41562,-0.24634l-0.16102,0.00234l-0.05367,-0.1533l-0.36057,-0.36209l-0.10736,0.09042l-0.14175,-0.18428l-0.11284,-0.04197l-0.01651,-0.21938l-0.08809,-0.21387l0.02339,-0.11794l-0.10459,-0.27373l-0.16377,-0.2268l-0.07982,-0.21469l0.04267,-0.33552l0.14726,-0.19378l0.36609,0.08863l0.91107,-0.83345l0.1445,-0.12358l0.25874,0.2224l0.12524,-0.0461l0.28625,0.08532l0.51471,-0.03509l0.05506,-0.04747l0.24909,0.0673l0.3358,-0.03495l0.16927,-0.12538l0.45966,0.49792l0.13487,-0.02285l0.12937,-0.12455l0.30966,0.01445l0.73354,-0.67339l0.0867,-0.18745l-0.35369,-0.39112l0.18854,-0.041l0.19266,-0.16254l0.37021,-0.00674l0.05092,-0.06744l0.32893,-0.07955l0.36882,-0.23424l0.21607,0.03592l0.32341,-0.32975l0.16102,-0.06331l0.08809,-0.17093l-0.00276,-0.18675l0.25322,-0.18388l0.06744,0.10033l-0.05092,0.13281l0.21745,0.21813"></path><path d="M358.91702,49.5045l0.35094,0.15703l0.13763,0.12138l0.10873,0.18057l0.0578,0.25516l-0.06881,0.16308l-0.30002,0.14919l-0.27937,-0.02794l0.03715,-0.25749l0.37433,0.04183l0.11284,-0.16307l0.00137,-0.14795l-0.08119,-0.20079l-0.38259,-0.20396l-0.33717,0.16239l-0.1445,-0.13419l-0.07294,-0.21427l-0.29312,-0.064v-0.02532l0.77895,0.20836"></path></g></g></g></svg>