<svg version="1.1" xmlns="http://www.w3.org/2000/svg" xmlns:xlink="http://www.w3.org/1999/xlink" width="9.08272" height="8.51953" viewBox="0,0,9.08272,8.51953"><g transform="translate(-178.36007,-198.75587)"><g fill="#ff0000" stroke="#ffffff" stroke-width="0" stroke-linecap="round" stroke-linejoin="round" stroke-miterlimit="10"><path d="M183.17453,199.14461l0.15495,-0.03566l0.04795,0.09223l-0.07501,0.13404l0.06395,0.21274l-0.06395,0.11682l0.23365,0.22504l0.20536,-0.06271l0.10084,0.06149l0.17339,-0.15495l0.11682,0.0787l0.14141,-0.01967l0.27053,0.03197l-0.0209,0.15741l-0.07747,0.14757l-0.02582,0.18692l-0.1242,0.07624l-0.0246,0.11191l-0.11314,0.09469l0.04549,0.08977l-0.0123,0.14879l0.06148,0.13527l0.08362,0.03565l0.01844,0.13158l-0.06026,0.10576l0.16601,0.13035l0.09837,0.03197l0.00492,0.11436l0.12052,0.09715l0.12543,0.03197l0.18323,0.11314l0.0332,-0.12666l0.32217,0.09715l0.25823,-0.06025l0.01353,0.43655l-0.01476,0.14388l0.15987,0.27176l-0.07625,0.14879l0.04427,0.09469l0.2779,0.08977l0.0578,0.08977l0.18692,-0.12174l0.09838,0.09223l-0.03935,0.12543l0.07255,0.23611l0.13896,0.03444l0.02705,0.25208l0.09223,0.07501l-0.10698,0.10575l0.03444,0.15003l-0.08977,0.16847l0.0578,0.091l0.02951,0.38366l0.06025,0.13281l0.02951,0.26069l0.18569,0.01844l0.16724,0.14388l0.0209,0.2066l0.32341,-0.07747l0.08485,0.33201l-0.05165,0.22874l-0.05903,0.08731l-0.16233,-0.0332l-0.31603,0.05533l-0.13528,-0.11068l-0.09346,0.00368l0.0123,0.14019l-0.05164,0.09961l-0.32218,0.12543l-0.14757,0.1242l-0.17708,0.03566l-0.20537,0.26563l-0.10945,-0.03935l-0.17831,-0.16724l0.00615,-0.08731l-0.11436,-0.1242l-0.21889,-0.05411l-0.18938,0.12174l-0.09469,0.13281l-0.18077,0.07009l0.15125,0.091l0.00738,0.18815l-0.07993,0.02706l-0.10822,-0.12052l-0.14757,0.03321l-0.21398,-0.06149l0.0578,-0.10945l0.13158,-0.03689l-0.0578,-0.11313l0.20782,-0.21398l0.05902,-0.09591l0.09223,0.00368l0.11682,-0.17585l-0.03565,-0.11314l-0.17339,-0.11191l-0.2029,0.2152l-0.02214,-0.08977l0.09592,-0.182l-0.02705,-0.10576l-0.32587,0.00368l-0.18692,0.09715l-0.1365,-0.12174l0.02951,-0.15495l-0.25946,0.1242l-0.12912,-0.04673l-0.1156,0.07255l-0.02828,0.13158l-0.11928,-0.0123l-0.11928,-0.10207l-0.02828,0.17093l-0.12297,-0.0209l-0.17585,0.07747l-0.10453,-0.11314l-0.10698,-0.00123l-0.14141,0.10576l-0.06518,0.17217l-0.08116,0.06763l-0.11314,-0.06149l-0.03443,-0.16233l-0.14141,0.09715l-0.03074,0.09837l-0.12297,0.11436l-0.15618,0.07501l-0.01106,0.08363l-0.26563,0.14019l-0.28651,-0.08363l-0.08977,-0.09715l0.07379,-0.06518l-0.08485,-0.13035l-0.30129,-0.07747l-0.1033,-0.13158l-0.10945,0.0578l0.03566,0.2152l0.11928,0.0787l-0.21275,0.14388l0.01721,0.15249l-0.10452,0.07379l-0.06886,-0.10452l-0.16601,0.1119l-0.15002,-0.05042l0.09837,-0.22873l-0.05533,-0.11314l-0.22258,0.13527l-0.03075,-0.12789l0.07009,-0.09592l-0.1242,-0.08363l-0.09715,-0.00368l0.05287,-0.24718l-0.05287,-0.11928l-0.09961,0.06148l0.00246,0.21766l-0.18077,0.05287l0.14265,0.09837l-0.06395,0.20045l-0.18569,0.16847l-0.18692,-0.06518l-0.17585,0.05533l-0.10575,-0.0332l-0.14141,0.08116l-0.20782,-0.0246l-0.05657,-0.07379l0.0332,-0.13404l0.12544,-0.07255l0.02951,-0.15495l0.11806,-0.21398l0.0209,-0.10207l0.13404,-0.02214l0.07993,-0.09346l0.03935,-0.19184l0.09592,-0.04304l-0.01353,-0.18692l0.09223,-0.06887l-0.01353,-0.32587l0.10085,0.06518l0.18938,-0.14511l0.04182,-0.09346l-0.03689,-0.15863l-0.08238,-0.08731l0.11314,-0.29022l-0.00123,-0.1365l0.23119,-0.23488l0.00984,-0.09837l0.08854,-0.12297l-0.00492,-0.17339l0.12912,-0.0246l0.06763,-0.10575l0.14511,-0.07009h0.16601l0.21398,-0.23242l0.21766,-0.10206l0.08485,0.06887l0.13281,-0.00369l0.09592,-0.15863l-0.03689,-0.11068l0.15125,-0.22504l0.1242,-0.12174l-0.06025,-0.08977l0.14879,-0.11314l0.08854,-0.1365l0.10575,0.08362l0.10453,-0.13527l0.02705,-0.14142l0.0787,-0.12543l-0.1033,-0.14265l0.02828,-0.15987l-0.08485,-0.23119l-0.2398,-0.10698l-0.0086,-0.12912l0.16601,-0.14511l-0.00368,-0.10084l-0.10085,-0.09223l-0.01107,-0.13773l0.17217,0.01722l0.22012,-0.07379l0.08731,0.08362l0.19182,-0.03689l0.12297,0.03935l0.18813,-0.36398l0.12544,-0.16971l0.07501,-0.01352l0.00984,-0.16233l0.0578,-0.14879l0.13404,-0.07009l0.03565,-0.14388l-0.08116,-0.29022l0.13774,-0.08238l0.12911,0.00615l0.09223,0.04673l0.08485,0.19307l0.01352,0.14265" fill-rule="evenodd"></path><path d="M185.4495,206.54741l0.05657,0.09715l-0.18692,0.15863l0.03074,0.06026l-0.06887,0.16478l-0.10822,0.04182l-0.12911,0.17585l-0.19184,0.02583l-0.18323,-0.14757l0.08117,-0.18815l0.15002,0.14265l0.18692,-0.17093l0.11191,0.07132l0.00738,-0.23242l0.07624,-0.13035l0.03566,-0.20414l0.01967,0.1033l0.11191,0.03197" fill-rule="evenodd"></path><path d="M183.50657,206.26458l0.11067,0.14757l0.11314,0.04303l-0.01352,0.10084l-0.12297,-0.0209l0.0209,-0.10698l-0.09715,-0.0332l-0.08363,-0.24472l-0.00738,-0.28651l0.0578,-0.11682l0.05165,0.22012l-0.02951,0.29758" fill-rule="evenodd"></path><path d="M183.72792,205.93256l-0.01353,-0.16478l0.06887,-0.05657l0.19553,0.01352l0.0455,0.0578l0.12174,-0.22748l0.12666,-0.0332l-0.12297,0.18077l-0.21398,0.22381l-0.20782,0.00615" fill-rule="evenodd"></path><path d="M183.72764,206.44901l-0.01352,0.10084l-0.12298,-0.02091l0.02091,-0.10699l-0.09715,-0.0332l-0.08363,-0.24472l-0.00738,-0.28653l0.0578,-0.11683l0.05165,0.22013l-0.02952,0.2976l0.11069,0.14758l0.11314,0.04303" fill-rule="nonzero"></path><path d="M183.71534,205.76035l0.06887,-0.05657l0.19553,0.01353l0.0455,0.0578l0.12174,-0.22751l0.12666,-0.0332l-0.12297,0.18078l-0.21398,0.22382l-0.20782,0.00615l-0.01352,-0.16479" fill-rule="nonzero"></path><path d="M185.35091,206.86712l-0.06887,0.16479l-0.10822,0.04181l-0.12913,0.17585l-0.19185,0.02583l-0.18324,-0.14757l0.08117,-0.18815l0.15003,0.14265l0.18693,-0.17094l0.11191,0.07133l0.00738,-0.23242l0.07625,-0.13035l0.03566,-0.20414l0.01967,0.1033l0.11191,0.03197l0.05657,0.09715l-0.18693,0.15864l0.03074,0.06026" fill-rule="nonzero"></path></g></g></svg>