<svg version="1.1" xmlns="http://www.w3.org/2000/svg" xmlns:xlink="http://www.w3.org/1999/xlink" width="279" height="279" viewBox="0,0,279,279"><defs><radialGradient cx="240" cy="180" r="139.5" gradientUnits="userSpaceOnUse" id="color-1"><stop offset="0" stop-color="#ffffff" stop-opacity="0.13333"></stop><stop offset="1" stop-color="#ffffff" stop-opacity="0"></stop></radialGradient></defs><g transform="translate(-100.5,-40.5)"><g stroke-miterlimit="10"><path d="M100.5,180c0,-77.04372 62.45628,-139.5 139.5,-139.5c77.04372,0 139.5,62.45628 139.5,139.5c0,77.04372 -62.45628,139.5 -139.5,139.5c-77.04372,0 -139.5,-62.45628 -139.5,-139.5z" fill="url(#color-1)" fill-rule="nonzero" stroke="#000000" stroke-width="0" stroke-linecap="butt" stroke-linejoin="miter"></path><path d="M176.99211,116.99212v0c0,-0.00058 0.00049,-0.00105 0.00107,-0.00105l126.01468,0.00105c0.00027,0 0.00055,0.00011 0.00076,0.00031c0.00018,0.0002 0.00031,0.00046 0.00031,0.00075l-0.00107,126.01468c0,0.00058 -0.00046,0.00107 -0.00104,0.00107l-126.01471,-0.00107v0c-0.00058,0 -0.00104,-0.00046 -0.00104,-0.00104z" fill="#56a9a1" fill-rule="evenodd" stroke="none" stroke-width="1" stroke-linecap="square" stroke-linejoin="miter"></path><path d="M187.92827,127.92827v0c0,-0.00049 0.0004,-0.00085 0.00085,-0.00085l104.12512,0.00085c0.00024,0 0.00046,0.00009 0.00061,0.00024c0.00018,0.00018 0.00027,0.0004 0.00027,0.00064l-0.00089,104.12509c0,0.00049 -0.00037,0.00089 -0.00085,0.00089l-104.12512,-0.00089v0c-0.00049,0 -0.00085,-0.00037 -0.00085,-0.00085z" fill="#78e6dc" fill-rule="evenodd" stroke="none" stroke-width="1" stroke-linecap="square" stroke-linejoin="miter"></path><path d="M266.72899,137.91152v6.69342l-22.77014,25.82034h-0.00003c0.01453,-0.00003 0.02908,-0.00006 0.04364,-0.00006c4.47525,0 8.48352,1.03775 12.02481,3.11322c3.54129,2.0755 6.36914,4.98764 8.48355,8.73651c2.11438,3.73584 3.1716,8.07492 3.1716,13.01715c0,5.26654 -1.25827,9.91043 -3.77481,13.93167c-2.50354,4.02124 -5.94754,7.1669 -10.332,9.43695c-4.38446,2.27005 -9.48236,3.40509 -15.2937,3.40509c-5.42221,0 -10.34497,-1.01178 -14.76834,-3.0354c-4.4234,-2.03656 -8.15277,-5.00708 -11.18817,-8.91159l7.66632,-7.64685c1.82901,2.78894 4.33258,5.00061 7.51065,6.63507c3.19107,1.63443 6.73883,2.45166 10.64334,2.45166c3.67099,0 6.84259,-0.694 9.51477,-2.08197c2.67221,-1.40097 4.78012,-3.37268 6.32376,-5.91513c1.55661,-2.55545 2.3349,-5.513 2.3349,-8.87268c0,-3.42456 -0.77829,-6.38861 -2.3349,-8.89215c-1.54364,-2.51654 -3.70993,-4.44931 -6.49887,-5.79837c-2.78894,-1.36203 -6.09674,-2.04306 -9.9234,-2.04306c-1.43985,0 -2.87973,0.10376 -4.31958,0.31131c-1.42691,0.19458 -2.82138,0.49295 -4.18341,0.89505v-6.81015l21.44443,-24.3999h-34.22809v-10.04013z" fill="#1b3e3a" fill-rule="evenodd" stroke="none" stroke-width="1" stroke-linecap="square" stroke-linejoin="miter"></path><path d="M266.72899,137.91152v6.69342l-22.77014,25.82034h-0.00003c0.01453,-0.00003 0.02908,-0.00006 0.04364,-0.00006c4.47525,0 8.48352,1.03775 12.02481,3.11322c3.54129,2.0755 6.36914,4.98764 8.48355,8.73651c2.11438,3.73584 3.1716,8.07492 3.1716,13.01715c0,5.26654 -1.25827,9.91043 -3.77481,13.93167c-2.50354,4.02124 -5.94754,7.1669 -10.332,9.43695c-4.38446,2.27005 -9.48236,3.40509 -15.2937,3.40509c-5.42221,0 -10.34497,-1.01178 -14.76834,-3.0354c-4.4234,-2.03656 -8.15277,-5.00708 -11.18817,-8.91159l7.66632,-7.64685c1.82901,2.78894 4.33258,5.00061 7.51065,6.63507c3.19107,1.63443 6.73883,2.45166 10.64334,2.45166c3.67099,0 6.84259,-0.694 9.51477,-2.08197c2.67221,-1.40097 4.78012,-3.37268 6.32376,-5.91513c1.55661,-2.55545 2.3349,-5.513 2.3349,-8.87268c0,-3.42456 -0.77829,-6.38861 -2.3349,-8.89215c-1.54364,-2.51654 -3.70993,-4.44931 -6.49887,-5.79837c-2.78894,-1.36203 -6.09674,-2.04306 -9.9234,-2.04306c-1.43985,0 -2.87973,0.10376 -4.31958,0.31131c-1.42691,0.19458 -2.82138,0.49295 -4.18341,0.89505v-6.81015l21.44443,-24.3999h-34.22809v-10.04013z" fill="none" fill-rule="evenodd" stroke="#1b3e3a" stroke-width="2" stroke-linecap="butt" stroke-linejoin="round"></path></g></g></svg>