<svg version="1.1" xmlns="http://www.w3.org/2000/svg" xmlns:xlink="http://www.w3.org/1999/xlink" width="7.9245" height="7.47461" viewBox="0,0,7.9245,7.47461"><g transform="translate(-234.34224,-186.92398)"><g fill="#ff0000" fill-rule="evenodd" stroke="#ffffff" stroke-width="0" stroke-linecap="round" stroke-linejoin="round" stroke-miterlimit="10"><path d="M241.88885,188.44294l0.24035,0.19328l0.13381,0.15611l0.00373,0.13628l-0.11151,0.0384l-0.0384,0.16355l-0.09044,0.1276l0.15362,0.10407l-0.09912,0.10902l0.03098,0.08673l-0.04708,0.21929l0.04213,0.15488l-0.08426,0.05575l0.07806,0.23911l-0.20938,0.14744l-0.08426,0.11274l-0.01734,0.18461l0.05947,0.24284l-0.05327,0.15115l0.05452,0.16974l-0.06195,0.12018l-0.0062,0.17097l-0.15859,0.17593l-0.10283,0.26761l-0.08797,-0.02478l-0.18584,0.16355l0.01487,0.28001l-0.07558,0.02725l-0.02106,0.25646l-0.33081,0.14371l-0.1623,0.10283l-0.1623,0.02479l-0.00373,0.09663l-0.09788,0.08176l-0.2639,0.07433l-0.40887,0.18957l-0.28371,-0.04956l-0.36798,-0.1338l-0.21434,-0.24035l-0.17222,-0.03221l-0.22797,0.08921l-0.14992,-0.09416l-0.06071,0.07682l-0.18832,-0.1363l-0.04956,-0.1462l-0.13009,0.08673l-0.18337,0.29859l0.14744,0.08673l0.17717,0.01982l0.11026,-0.05204l0.05327,0.16107l-0.22425,0.14001l-0.04833,0.18461l-0.11522,0.0062l-0.09293,0.1462l0.09416,0.17097l-0.057,0.10407l-0.21806,0.12143l-0.26514,0.07682l-0.12885,0.00991l-0.15859,0.11769l-0.07558,-0.01362l-0.1363,-0.06442l0.04708,-0.20072l0.17222,-0.12513l-0.0161,-0.06566l-0.15115,-0.07309l-0.12514,0.00124l-0.0384,-0.09416l0.03717,-0.15611l-0.41876,0.06939l0.00744,-0.11399l-0.18584,-0.13133l-0.09293,0.04833l-0.10655,-0.18337l0.03222,-0.13753l-0.02973,-0.17965l-0.06442,-0.10532l-0.14868,0.10283l-0.14,0.02106l-0.03964,0.09912l-0.12142,0.08301l-0.1363,-0.06195v-0.08673l-0.15859,-0.07559l-0.10408,-0.10655l-0.05452,-0.15735l0.10035,-0.09416l-0.0062,-0.24284l0.11399,-0.1276l-0.05575,-0.28992l-0.14248,-0.05947l-0.14371,-0.20815l0.05575,-0.13009l-0.17965,-0.15115l-0.18337,-0.01734l0.11274,-0.15239l-0.04833,-0.12514l0.02229,-0.19081l-0.12266,-0.20567l-0.11399,-0.09787l0.0062,-0.07929l0.23541,-0.1239l-0.03717,-0.24035l0.09788,-0.22301l-0.05947,-0.07806l0.09787,-0.16974l0.00496,-0.11151l0.08053,-0.16107l0.03098,-0.20815l-0.0446,-0.11522l0.09293,-0.26637l-0.11646,-0.0446l-0.07682,-0.26761l0.0161,-0.14868l-0.1338,-0.31221l-0.00247,-0.18708l0.08053,-0.04833l0.00124,-0.17593l0.08921,-0.36053l0.09663,-0.11522l0.10284,-0.2131l0.06442,0.04213l0.21062,-0.06689l0.28619,0.14371l0.05204,0.16726l0.21807,0.08921l0.11275,-0.03469l0.14495,-0.2069l0.09663,-0.05327l0.33452,0.08053l0.12514,0.11893l-0.00496,0.0062l-0.20815,0.10654l-0.06442,0.16973l-0.08921,0.04336l-0.00373,0.22178l-0.21929,0.14867l-0.20567,0.20195l-0.14744,0.28744l-0.01239,0.09912l0.0954,0.22424l0.15115,0.12886l-0.13134,0.1623l-0.02229,0.12637l0.07186,0.13504l-0.01734,0.16232l-0.08053,0.10902l-0.20442,0.12143l0.00124,0.16479l-0.09912,0.07433l-0.21187,0.36178l-0.15735,0.34072l-0.00124,0.16355l-0.07806,0.19948l0.16726,0.13133l0.18957,0.02973l0.10532,0.27877l0.11895,0.06938l0.01982,-0.27877l0.13877,-0.13504l-0.04833,-0.24903l-0.13009,-0.13381l0.21434,-0.31594l0.20567,-0.13256l-0.10902,-0.1648l0.19699,-0.0062l0.00124,-0.10779l-0.13628,-0.14867l0.14495,-0.51045l0.27628,0.0892l0.12143,-0.14248l0.09293,-0.21434l0.24161,0.14124l0.15362,-0.16974l0.10283,-0.01735l0.20319,0.08426l0.17717,-0.02849l0.09044,-0.13876l-0.09912,-0.13256l0.14495,-0.41876l0.2255,-0.00124l0.14744,-0.17097l0.10654,-0.0508l0.00496,-0.17097l0.04708,-0.00991l0.10532,0.0508l0.18213,0.02106l0.04584,0.06442l0.33823,0.04213l0.17222,0.16602l0.13753,0.05327l0.04956,0.08177l0.0062,0.20815l0.08426,0.17965l0.01238,0.16602l0.15611,0.00247l0.12513,0.06566l0.12018,-0.23044l0.12514,0.11647l0.20815,-0.08426l0.22424,0.06319l0.26886,-0.08053l0.2255,0.17964l0.04708,0.13381l0.12762,-0.08921l0.06195,0.10407l0.17345,0.07558l0.39647,-0.20566l0.04214,-0.16232l-0.12018,-0.10284l-0.07309,-0.22425l0.06195,-0.18957l0.11895,-0.11151l0.24284,0.1462l0.19576,0.04089"></path></g></g></svg>