<svg version="1.1" xmlns="http://www.w3.org/2000/svg" xmlns:xlink="http://www.w3.org/1999/xlink" width="5.37588" height="4.6647" viewBox="0,0,5.37588,4.6647"><g transform="translate(-275.8093,-179.0985)"><g fill="#ff0000" fill-rule="evenodd" stroke="#ffffff" stroke-width="0" stroke-linecap="round" stroke-linejoin="round" stroke-miterlimit="10"><path d="M280.78004,179.79604l0.07682,0.14868l0.00496,0.27011l-0.04708,0.19081l0.10407,0.03469l0.26637,0.2131l-0.06442,0.1623l0.04087,0.16355l-0.07309,0.03593v0.26514l0.057,0.13628l-0.00247,0.14495l-0.09416,0.07559l0.11151,0.21929l-0.04089,0.1239l-0.23665,-0.09168l-0.10655,-0.12142l-0.45966,-0.15611l-0.13628,0.27381l-0.13628,0.02849l-0.10532,0.083l0.03346,0.19081l-0.10532,0.00247l-0.09663,-0.08177l-0.06319,-0.13504l-0.19204,-0.04956l-0.14125,0.15859l0.0446,0.06566l0.13504,-0.02602l0.38037,0.34814l0.1363,0.17593l-0.17965,0.20319l-0.09044,-0.15982l0.07681,-0.17717l-0.17222,0.04336l-0.07806,0.17097l0.00867,0.13876l0.11522,0.01487l0.00744,0.24779l0.07929,0.11399l-0.00247,0.23291l-0.11769,0.13877l-0.00744,0.14992l-0.10655,-0.01364l-0.05575,-0.23664l-0.09293,-0.04087l0.02973,-0.11522l-0.1623,-0.19948l-0.20319,-0.14001l-0.18957,-0.24159l-0.05452,-0.13877l-0.09664,-0.03346l-0.02602,-0.10779l-0.09912,-0.00991l-0.35558,-0.2131l-0.51789,-0.11026l-0.08177,0.03221l-0.18337,-0.02849l-0.08177,-0.08426l-0.12018,-0.02229l-0.38037,0.17593l-0.27628,-0.19576l-0.12018,-0.1685l-0.05823,-0.17345l0.00247,-0.13134l-0.21929,-0.11275l-0.08053,0.08549l-0.15239,0.02725l-0.12266,-0.09044l-0.02602,-0.15736l-0.06939,-0.09291l0.10407,-0.18584l0.01859,-0.12886l0.34567,0.00496l0.06691,-0.17593l0.02602,-0.19824l0.14991,-0.06195l0.61948,0.10408l0.09788,-0.06071l0.32956,0.02229l0.34319,-0.01487l-0.03345,-0.21929l-0.10407,-0.08301l-0.11151,-0.26514l-0.18088,-0.05947l0.00124,-0.17841l-0.05575,-0.13876l0.07806,-0.09044l0.17222,0.08797l0.1462,-0.08549l0.07806,-0.19081l0.20195,-0.04336l0.0446,0.04585l0.22798,0.04831l0.01487,0.1338l0.12637,0.04213l0.00124,0.18832l0.22673,0.03098l0.0793,-0.07309l0.18213,0.04956l0.3147,-0.01114l0.32461,-0.10283l0.10284,-0.10037l0.337,-0.04336l0.28001,-0.17345l0.15362,-0.20072l0.06815,0.07062l-0.11895,0.18213l0.07682,0.0384l-0.00991,0.12886l0.05947,0.08921l-0.00744,0.3147l0.19328,-0.12637"></path></g></g></svg>