<svg version="1.1" xmlns="http://www.w3.org/2000/svg" xmlns:xlink="http://www.w3.org/1999/xlink" width="169" height="169" viewBox="0,0,169,169"><defs><radialGradient cx="240" cy="180" r="84.5" gradientUnits="userSpaceOnUse" id="color-1"><stop offset="0" stop-color="#ffffff" stop-opacity="0.13333"></stop><stop offset="1" stop-color="#ffffff" stop-opacity="0"></stop></radialGradient></defs><g transform="translate(-155.5,-95.5)"><g stroke-miterlimit="10"><path d="M155.5,180c0,-46.66806 37.83194,-84.5 84.5,-84.5c46.66806,0 84.5,37.83194 84.5,84.5c0,46.66806 -37.83194,84.5 -84.5,84.5c-46.66806,0 -84.5,-37.83194 -84.5,-84.5z" fill="url(#color-1)" fill-rule="nonzero" stroke="#000000" stroke-width="0" stroke-linecap="butt" stroke-linejoin="miter"></path><path d="M176.99213,180v0c0,-34.79828 28.20958,-63.00787 63.00788,-63.00787v0v0c16.71071,0 32.73701,6.63831 44.5533,18.45459c11.81625,11.81628 18.45456,27.84259 18.45456,44.55328v0v0c0,34.79828 -28.20956,63.00787 -63.00786,63.00787v0v0c-34.7983,0 -63.00787,-28.20959 -63.00787,-63.00787z" fill="#8b0000" fill-rule="evenodd" stroke="none" stroke-width="1" stroke-linecap="square" stroke-linejoin="miter"></path><path d="M187.92827,179.99126v0c0,-28.7536 23.3094,-52.06299 52.06299,-52.06299v0v0c13.80799,0 27.05039,5.48516 36.81409,15.2489c9.76373,9.76373 15.2489,23.0061 15.2489,36.81409v0v0c0,28.7536 -23.30938,52.06299 -52.06299,52.06299v0v0c-28.75358,0 -52.06299,-23.30938 -52.06299,-52.06298z" fill="#be0000" fill-rule="evenodd" stroke="none" stroke-width="1" stroke-linecap="square" stroke-linejoin="miter"></path><path d="M219.99379,177.93077c-2.20842,1.3186 -3.95585,3.11432 -5.24231,5.38702c-1.28646,2.27277 -1.92969,4.82423 -1.92969,7.65443c0,2.8302 0.64323,5.39777 1.92969,7.70264c1.28645,2.30493 3.03389,4.11663 5.24231,5.4353c2.2084,1.31861 4.69555,1.9779 7.46143,1.9779c2.76588,0 5.24766,-0.67541 7.44535,-2.02618c2.20842,-1.35077 3.95585,-3.16254 5.24231,-5.43524c1.28646,-2.27277 1.92969,-4.82422 1.92969,-7.65442c0,-2.8302 -0.64324,-5.38165 -1.92969,-7.65442c-1.28645,-2.2727 -3.03389,-4.06842 -5.24231,-5.38702c-2.19769,-1.3186 -4.67947,-1.9779 -7.44535,-1.9779c-2.76587,0 -5.25302,0.6593 -7.46143,1.9779zM240.78611,145.22264l-18.01678,24.56964v0c0.328,-0.13281 0.66783,-0.25555 1.01948,-0.36816c1.65096,-0.52533 3.59673,-0.78797 5.8373,-0.78797c4.02017,0 7.65977,0.95947 10.91879,2.87842c3.25902,1.90826 5.89088,4.52405 7.8956,7.84741c2.01547,3.32331 3.0232,7.19342 3.0232,11.61023c0,4.34179 -1.07206,8.3244 -3.21616,11.94794c-2.14409,3.62354 -5.04398,6.50732 -8.69965,8.65143c-3.65567,2.13336 -7.68656,3.20008 -12.09268,3.20008c-4.54547,0 -8.61387,-1.05066 -12.20523,-3.15186c-3.59135,-2.11194 -6.44299,-4.94215 -8.55493,-8.49061c-2.10121,-3.55921 -3.15181,-7.51502 -3.15181,-11.86756c0,-6.05701 2.10657,-12.08191 6.3197,-18.07463l20.14911,-27.96436z" fill="#fef8f8" fill-rule="evenodd" stroke="none" stroke-width="1" stroke-linecap="square" stroke-linejoin="miter"></path><path d="M219.99379,177.93077c-2.20842,1.3186 -3.95585,3.11432 -5.24231,5.38702c-1.28646,2.27277 -1.92969,4.82423 -1.92969,7.65443c0,2.8302 0.64323,5.39777 1.92969,7.70264c1.28645,2.30493 3.03389,4.11663 5.24231,5.4353c2.2084,1.31861 4.69555,1.9779 7.46143,1.9779c2.76588,0 5.24766,-0.67541 7.44535,-2.02618c2.20842,-1.35077 3.95585,-3.16254 5.24231,-5.43524c1.28646,-2.27277 1.92969,-4.82422 1.92969,-7.65442c0,-2.8302 -0.64324,-5.38165 -1.92969,-7.65442c-1.28645,-2.2727 -3.03389,-4.06842 -5.24231,-5.38702c-2.19769,-1.3186 -4.67947,-1.9779 -7.44535,-1.9779c-2.76587,0 -5.25302,0.6593 -7.46143,1.9779zM240.78611,145.22264l-18.01678,24.56964v0c0.328,-0.13281 0.66783,-0.25555 1.01948,-0.36816c1.65096,-0.52533 3.59673,-0.78797 5.8373,-0.78797c4.02017,0 7.65977,0.95947 10.91879,2.87842c3.25902,1.90826 5.89088,4.52405 7.8956,7.84741c2.01547,3.32331 3.0232,7.19342 3.0232,11.61023c0,4.34179 -1.07206,8.3244 -3.21616,11.94794c-2.14409,3.62354 -5.04398,6.50732 -8.69965,8.65143c-3.65567,2.13336 -7.68656,3.20008 -12.09268,3.20008c-4.54547,0 -8.61387,-1.05066 -12.20523,-3.15186c-3.59135,-2.11194 -6.44299,-4.94215 -8.55493,-8.49061c-2.10121,-3.55921 -3.15181,-7.51502 -3.15181,-11.86756c0,-6.05701 2.10657,-12.08191 6.3197,-18.07463l20.14911,-27.96436z" fill="none" fill-rule="evenodd" stroke="#fef8f8" stroke-width="2" stroke-linecap="butt" stroke-linejoin="round"></path><path d="M276.45294,158.4458v8.3941h-32.49906v-8.3941z" fill="#fef8f8" fill-rule="evenodd" stroke="none" stroke-width="1" stroke-linecap="square" stroke-linejoin="miter"></path><path d="M276.45294,158.4458v8.3941h-32.49906v-8.3941z" fill="none" fill-rule="evenodd" stroke="#fef8f8" stroke-width="1" stroke-linecap="butt" stroke-linejoin="round"></path><path d="M264.40545,178.89129h-8.39414v-32.49908h8.39414z" fill="#fef8f8" fill-rule="evenodd" stroke="none" stroke-width="1" stroke-linecap="square" stroke-linejoin="miter"></path><path d="M264.40545,178.89129h-8.39414v-32.49908h8.39414z" fill="none" fill-rule="evenodd" stroke="#fef8f8" stroke-width="1" stroke-linecap="butt" stroke-linejoin="round"></path></g></g></svg>