<svg version="1.1" xmlns="http://www.w3.org/2000/svg" xmlns:xlink="http://www.w3.org/1999/xlink" width="10.95367" height="8.48172" viewBox="0,0,10.95367,8.48172"><g transform="translate(-197.09525,-201.5229)"><g fill="#ff0000" stroke="#ffffff" stroke-width="0" stroke-linecap="round" stroke-linejoin="round" stroke-miterlimit="10"><path d="M207.23494,205.71414l0.15611,0.17717l0.20442,-0.04708l0.11646,0.02973l0.15859,0.13256l0.0161,0.08549l0.07682,0.13256l-0.11399,0.16602l0.09416,0.24159l-0.04708,0.09168l0.14991,0.11646l-0.06566,0.10655l0.06814,0.1685l-0.19948,0.16479l0.11274,0.10902l0.02849,0.14124l-0.12762,0.09912l-0.0384,0.09541l0.04213,0.15115l-0.19824,0.10902l-0.01487,0.05947l-0.20567,-0.01859l-0.10902,0.04213l-0.09912,0.12142l-0.20072,-0.13009l-0.1846,0.01362l-0.04089,0.06689l-0.18337,0.10902l-0.26017,-0.21062l-0.0892,0.00247l-0.17345,0.15735l0.00373,0.08053l-0.12143,0.05947v0.12637l-0.10284,0.09416l-0.10407,-0.01362l-0.02229,0.18461l-0.10407,0.09912l-0.09416,-0.04708l-0.34196,-0.03221l-0.39399,-0.0062l-0.09416,-0.06442l-0.2986,0.0446l-0.11274,0.17593l-0.28124,-0.07309l-0.16355,-0.07433l-0.12639,0.14248l-0.15239,0.05203l-0.08673,0.09788l-0.19824,-0.01735l-0.20443,-0.19081l-0.11895,-0.04584l-0.18584,0.09168l-0.10407,0.21682l0.02106,0.09293l-0.06566,0.16355l-0.2515,0.16602l-0.21186,0.03469l-0.19948,-0.2131l-0.13628,0.01362l-0.11151,0.38285l-0.15859,0.15735l-0.1623,0.10779l-0.29487,-0.20319l-0.20938,-0.03718l-0.09788,-0.09417l-0.10655,0.15735l-0.23417,0.08549l-0.10408,-0.03469l-0.21557,0.0446l-0.46832,-0.18461l-0.01487,-0.16974l0.08053,-0.05204l-0.12886,-0.4448l-0.14744,-0.057l-0.18584,0.07186l-0.08176,-0.20815l-0.07806,-0.06195l-0.06689,-0.24531l0.083,-0.13009l-0.07433,-0.20319l-0.08177,-0.04213l-0.06319,-0.19081l0.04213,-0.12513l-0.01362,-0.17594l-0.11399,-0.0508l-0.16107,0.09044l-0.16106,-0.09293l0.03593,-0.08673l-0.02973,-0.24036l-0.10037,-0.10407l-0.3593,-0.2069l-0.02849,-0.15239l0.05947,-0.40762l-0.11275,-0.11522l-0.28001,0.0062l-0.20072,-0.13504l-0.09663,0.09168l-0.14495,-0.06939l-0.05823,-0.12762l-0.11399,-0.10283l0.19576,-0.12018l0.19824,-0.20072l0.18708,-0.08796l0.02478,-0.13009l0.35187,-0.05823l0.16106,-0.12018l0.21806,0.04584l0.07186,-0.16479l0.0062,-0.12513l0.10779,-0.16973l-0.06442,-0.22674l-0.28621,-0.057l0.1623,-0.11026l0.09293,0.06815l0.13753,-0.13381l0.05327,-0.19081l0.09044,-0.00247l0.03469,0.13256l0.18088,0.1363l0.06691,0.15488l0.1016,-0.1016l0.09044,0.28124l0.08796,0.09912l0.0446,0.14l0.14124,0.23541l0.19824,0.04956l0.03098,0.18832l0.14868,0.17717l0.18213,0.46585l0.09912,0.15611l0.09788,0.31594l0.21186,0.26761l0.01487,0.13628l0.0954,-0.00124l0.09044,0.11522l0.08177,-0.10532l0.14248,0.09912l0.00991,0.06566l0.15983,0.14l0.08673,-0.00867l0.50054,-0.20938l0.68887,-0.14991l0.1623,-0.13009l-0.00744,-0.2131l0.08301,-0.08301l0.10655,0.15859l0.16232,-0.1623l0.11026,0.00744l0.29859,-0.057l0.13133,-0.15239l0.31717,0.057l0.1276,0.1685l0.18088,-0.02354l0.21682,-0.07309l0.05947,-0.07186l0.21434,-0.00124l0.04708,0.06938l0.19328,-0.01362l0.29115,0.03964l0.1623,0.14371l0.23541,0.03222l0.06072,0.04708l0.31718,-0.09293l0.20442,-0.17222l0.17717,-0.03098l0.06319,-0.09788l-0.13504,-0.11522l0.13133,-0.14495l0.17097,-0.00247l0.31098,-0.30354l0.09787,-0.1524l0.07062,0.11646l0.11274,0.05328l0.1685,-0.08177" fill-rule="evenodd"></path><path d="M200.06131,202.3937l0.11275,0.01114l-0.06815,0.27628l0.00744,0.18832l0.07558,0.09912l-0.10408,0.09663l-0.21806,0.08549l-0.15115,-0.03964l-0.24531,0.02725l-0.0954,0.11151l-0.13009,0.02725l-0.16106,0.09417l-0.13133,0.02354l-0.09168,-0.08053l-0.05823,-0.17841l0.07929,-0.17345l0.14744,-0.09044l0.31841,0.03222l0.04708,-0.26763l-0.02354,-0.21683l-0.07062,-0.09167l-0.18957,0.08053l-0.08176,-0.09168l0.06938,-0.09293l0.17593,0.00867l0.02229,-0.07558l-0.07186,-0.17841l0.06938,-0.06689l0.11026,0.03099l0.20195,-0.15859l0.22178,0.10284l0.07309,0.10655l0.01115,0.13133l0.14867,0.26886" fill-rule="evenodd"></path><path d="M200.40822,203.484l0.00496,0.13876l0.08921,0.11275l0.19452,-0.08301l0.13753,0.03593l-0.10655,0.20195l-0.16106,0.0161l-0.1177,0.19081l-0.22301,0.16232l-0.09044,0.17097l-0.10035,0.0384l-0.13009,0.19081l-0.27752,-0.04708l0.11026,-0.14495l-0.04831,-0.09663l0.01238,-0.18337l0.06815,-0.14867l0.19081,-0.06319l0.0062,-0.09541l-0.07929,-0.18088l-0.15983,-0.09541l0.11646,-0.22674l0.08426,-0.02849l0.21807,0.05204l0.17345,0.00124l0.08797,0.08177" fill-rule="evenodd"></path><path d="M200.95336,203.18665l0.04831,0.1846l-0.23044,-0.00743l-0.12143,-0.14744l-0.14991,0.16106l-0.07062,-0.02849l-0.09168,-0.19824l-0.1276,0.03593l-0.07186,-0.08673l0.14744,-0.06938l-0.08176,-0.1462l0.12018,-0.14l0.12142,0.09416l0.18214,-0.12762l0.10037,0.04089l0.07682,-0.09293l0.01115,0.28744l0.11895,0.0892l0.1623,0.05823l-0.14371,0.09293" fill-rule="evenodd"></path><path d="M201.12683,202.66628l-0.03717,-0.23044l0.02106,-0.13009l0.13256,-0.19204l0.11522,-0.03718l0.1623,0.29612v0.08053l-0.1623,0.13876l-0.23169,0.07433" fill-rule="evenodd"></path><path d="M201.37462,202.62912l0.12513,-0.0384l0.10408,0.07433l-0.06071,0.10779l-0.18957,0.01487l0.02106,-0.15859" fill-rule="evenodd"></path><path d="M201.2755,201.97246l-0.2639,0.13133l-0.13876,0.09788l-0.01859,0.08426l-0.13009,0.08797l-0.24035,0.06938l-0.18708,-0.15362l0.07806,-0.3023l0.19081,-0.39771l0.08549,0.08921l0.27133,-0.05204l0.19204,-0.09663l0.09293,0.03345l0.1016,0.20442l-0.03346,0.20442" fill-rule="evenodd"></path><path d="M200.90699,202.19446l-0.01858,0.08426l-0.1301,0.08797l-0.24036,0.06938l-0.12143,-0.05824l-0.06566,-0.0954l0.07806,-0.30233l0.19082,-0.39772l0.0855,0.08921l0.27134,-0.05205l0.19204,-0.09664l0.09293,0.03346l0.10158,0.20443l-0.03345,0.20443l-0.26391,0.13134l-0.13877,0.09789" fill-rule="nonzero"></path><path d="M200.5229,203.73083l0.19452,-0.08301l0.13754,0.03593l-0.10655,0.20195l-0.16107,0.01611l-0.1177,0.19082l-0.22301,0.16232l-0.09044,0.17097l-0.10037,0.0384l-0.03593,0.10902l-0.09417,0.08177l-0.27754,-0.04708l0.11028,-0.14497l-0.04833,-0.09664l0.01239,-0.18337l0.06814,-0.14868l0.19082,-0.06319l0.0062,-0.09541l-0.0793,-0.18088l-0.15983,-0.0954l0.11646,-0.22675l0.08426,-0.0285l0.21808,0.05204l0.17347,0.00124l0.08797,0.08178l0.00496,0.13877l0.08921,0.11275" fill-rule="nonzero"></path><path d="M201.05567,203.28479l-0.02354,0.07806l-0.23045,-0.00744l-0.12143,-0.14744l-0.14992,0.16107l-0.07062,-0.0285l-0.09168,-0.19825l-0.12762,0.03593l-0.07186,-0.08673l0.14745,-0.06938l-0.08177,-0.14621l0.12019,-0.14001l0.12143,0.09417l0.18214,-0.12762l0.10037,0.04089l0.07682,-0.09293l0.01115,0.28745l0.11895,0.08921l0.16232,0.05824l-0.14372,0.09293l0.07186,0.10655" fill-rule="nonzero"></path><path d="M201.40259,202.62811l0.12514,-0.0384l0.10407,0.07433l-0.06071,0.10779l-0.18957,0.01487l0.02106,-0.1586" fill-rule="nonzero"></path><path d="M200.20075,202.40507l-0.06815,0.27629l0.00743,0.18834l0.07558,0.09912l-0.10408,0.09664l-0.21808,0.0855l-0.15116,-0.03964l-0.24532,0.02725l-0.0954,0.11152l-0.1301,0.02725l-0.16107,0.09417l-0.13134,0.02354l-0.09168,-0.08053l-0.05824,-0.17841l0.0793,-0.17347l0.14744,-0.09044l0.21064,0.04337l0.10779,-0.01115l0.04708,-0.26763l-0.02354,-0.21683l-0.07062,-0.09168l-0.18957,0.08053l-0.08177,-0.09168l0.06938,-0.09293l0.17593,0.00867l0.02231,-0.07559l-0.07186,-0.17841l0.06939,-0.06691l0.11028,0.03098l0.20195,-0.15859l0.22178,0.10284l0.0731,0.10655l0.01115,0.13134l0.14868,0.26887l0.11275,0.01115" fill-rule="nonzero"></path><path d="M201.15479,202.66527l-0.03718,-0.23046l0.02106,-0.1301l0.13257,-0.19204l0.11523,-0.03717l0.16232,0.29613v0.08053l-0.16232,0.13877l-0.23169,0.07433" fill-rule="nonzero"></path></g></g></svg>