<svg version="1.1" xmlns="http://www.w3.org/2000/svg" xmlns:xlink="http://www.w3.org/1999/xlink" width="7.362" height="5.04631" viewBox="0,0,7.362,5.04631"><g transform="translate(-225.39815,-197.14666)"><g fill="#ff0000" fill-rule="evenodd" stroke="#ffffff" stroke-width="0" stroke-linecap="round" stroke-linejoin="round" stroke-miterlimit="10"><path d="M232.46031,198.32989l0.1747,0.06195l-0.00124,0.28372l0.02725,0.20443l0.07186,0.14248l-0.02973,0.41383l0.057,0.06939l-0.10407,0.28619l-0.16479,0.12266l0.0508,0.15859l0.13381,0.07186l-0.057,0.14124l-0.12018,0.03593l-0.18337,0.20815l-0.38656,-0.01858l-0.08176,0.11769l-0.21559,-0.03964l-0.01115,0.05823l-0.22177,-0.00991l-0.16974,0.10037l-0.11151,0.14868l-0.15982,0.02725l-0.17841,0.09663l-0.18708,0.19328l-0.08797,-0.04336l-0.03966,-0.13504l-0.16106,-0.09293l-0.38532,0.13628l-0.05204,-0.0384l-0.30604,0.06442l-0.04833,0.08426l-0.19328,-0.02973l-0.04708,0.12142l-0.31098,0.08053l-0.2639,-0.06815l-0.24656,0.05327l-0.32089,0.23044l-0.11399,0.0062l-0.01734,0.13256l-0.13628,0.07929l-0.10902,-0.27505l-0.12513,0.08549l-0.18337,-0.05204l-0.14,0.03593l-0.13753,0.14495l-0.13009,0.04087l-0.1685,-0.083l-0.07559,0.08797l-0.03221,0.19451l-0.13753,0.01735l-0.13504,0.09787l-0.11399,-0.00991l-0.1747,0.05204l-0.13505,-0.09788l-0.17841,0.1685l-0.27011,-0.02106l-0.01487,-0.13256l-0.12885,-0.0954l-0.02229,-0.12143l0.11769,-0.13009l-0.1685,-0.09416l0.10779,-0.10902l0.36053,-0.10283l-0.0062,0.08549l0.13876,0.03346l0.14371,-0.19328l0.13504,-0.0062l0.15982,-0.0954l0.23044,-0.00992l0.09293,-0.06071l0.16355,-0.01982l0.11893,-0.08301l0.26763,-0.38285l0.12265,-0.10035l0.08301,0.00867l0.36178,-0.39027l0.00496,-0.10532l0.19948,-0.04461l0.05327,-0.14371l0.13753,-0.15488l0.09416,0.02973l0.05823,-0.16232l0.20195,-0.08426l0.09044,-0.15362l0.03717,-0.24159l0.13009,0.02602l0.0384,-0.15859l-0.08797,-0.05575l0.00744,-0.18832l0.0954,-0.08797l-0.14124,-0.12762l0.13753,-0.22301l0.11399,0.2639l0.38532,-0.07433l0.16478,-0.19699l0.12762,-0.23292l0.03221,-0.14124l-0.17717,-0.05327l-0.24779,0.00124l-0.10408,-0.58602l0.16974,0.0892l0.06195,0.36178l0.10655,-0.01487l-0.03964,-0.28496l0.31594,0.18708l-0.02849,-0.14744l-0.29612,-0.0954l-0.02478,-0.1747l0.2515,0.10902l-0.07682,-0.15859l0.11026,-0.00124l0.44231,0.17097l0.14495,0.03345l0.14868,0.12266l0.31717,-0.17717l0.14992,0.04708l0.2924,-0.00496l0.42125,0.18088l0.06442,-0.05452l0.23912,0.11522l-0.04213,0.13628l-0.00371,0.25027l0.38656,0.10284l0.07433,0.04708l0.0446,0.2131"></path></g></g></svg>