<svg version="1.1" xmlns="http://www.w3.org/2000/svg" xmlns:xlink="http://www.w3.org/1999/xlink" width="19.27894" height="22.57413" viewBox="0,0,19.27894,22.57413"><g transform="translate(-119.27682,-294.29877)"><g fill="#ff0000" stroke="#ffffff" stroke-width="0" stroke-linecap="round" stroke-linejoin="round" stroke-miterlimit="10"><path d="M120.24974,315.57379l0.1467,0.2424l0.0851,-0.02652l0.09721,0.16918l0.14518,0.17043l-0.12297,0.09974l-0.1106,0.21715l-0.01818,0.23355l0.07815,0.06692l0.0428,0.12626h-0.17283l-0.07967,-0.08711l-0.16312,-0.07196l-0.05656,-0.13382l-0.10012,-0.10732l-0.06047,-0.17548l-0.2179,-0.16034l-0.26234,-0.04167l-0.10188,-0.06313l-0.09986,-0.19948l0.09847,-0.10099l0.1279,0.00127l0.16248,-0.05429l0.23595,-0.15276l0.21754,-0.0303l0.12903,0.07827" fill-rule="evenodd"></path><path d="M120.72244,316.128l-0.12297,0.09974l-0.11061,0.21715l-0.01819,0.23356l0.07815,0.06692l0.0428,0.12626h-0.17284l-0.07967,-0.08712l-0.16312,-0.07196l-0.05657,-0.13382l-0.10012,-0.10732l0.02285,-0.06187l-0.08332,-0.11364l-0.2179,-0.16034l-0.26236,-0.04167l-0.10188,-0.06312l-0.09987,-0.19949l0.09847,-0.101l0.1279,0.00127l0.16248,-0.0543l0.23596,-0.15276l0.21754,-0.0303l0.12903,0.07827l0.1467,0.24241l0.0851,-0.02652l0.09722,0.16919l0.14519,0.17044" fill-rule="nonzero"></path><path d="M138.55576,294.57868l-0.03017,0.08711l-0.14052,-0.09721l-0.06805,-0.15276l0.06578,-0.10604l0.17296,0.26891" fill-rule="evenodd"></path><path d="M138.55576,294.57868l-0.03017,0.08711l-0.14052,-0.09721l-0.06805,-0.15276l0.06578,-0.10604l0.17296,0.26891" fill-rule="evenodd"></path><path d="M138.38277,294.29878l0.17297,0.26891l-0.03017,0.08711l-0.14052,-0.09721l-0.06805,-0.15277l0.06578,-0.10605" fill-rule="nonzero"></path></g></g></svg>