<svg version="1.1" xmlns="http://www.w3.org/2000/svg" xmlns:xlink="http://www.w3.org/1999/xlink" width="279" height="279" viewBox="0,0,279,279"><defs><radialGradient cx="240" cy="180" r="139.5" gradientUnits="userSpaceOnUse" id="color-1"><stop offset="0" stop-color="#ffffff" stop-opacity="0.13333"></stop><stop offset="1" stop-color="#ffffff" stop-opacity="0"></stop></radialGradient></defs><g transform="translate(-100.5,-40.5)"><g stroke-miterlimit="10"><path d="M100.5,180c0,-77.04372 62.45628,-139.5 139.5,-139.5c77.04372,0 139.5,62.45628 139.5,139.5c0,77.04372 -62.45628,139.5 -139.5,139.5c-77.04372,0 -139.5,-62.45628 -139.5,-139.5z" fill="url(#color-1)" fill-rule="nonzero" stroke="#000000" stroke-width="0" stroke-linecap="butt" stroke-linejoin="miter"></path><path d="M176.99213,116.99212v0c0,-0.00058 0.00046,-0.00105 0.00104,-0.00105l126.01469,0.00105c0.00027,0 0.00055,0.00011 0.00076,0.00031c0.00018,0.0002 0.00031,0.00046 0.00031,0.00075l-0.00107,126.01468c0,0.00058 -0.00046,0.00107 -0.00104,0.00107l-126.01469,-0.00107v0c-0.00058,0 -0.00105,-0.00046 -0.00105,-0.00104z" fill="#135ea9" fill-rule="evenodd" stroke="none" stroke-width="1" stroke-linecap="square" stroke-linejoin="miter"></path><path d="M187.92827,127.92826v0c0,-0.00049 0.0004,-0.00085 0.00087,-0.00085l104.12511,0.00085c0.00024,0 0.00046,0.00009 0.00061,0.00024c0.00018,0.00018 0.00027,0.0004 0.00027,0.00064l-0.00089,104.12509c0,0.00049 -0.00037,0.00089 -0.00085,0.00089l-104.12512,-0.00089v0c-0.00047,0 -0.00087,-0.00037 -0.00087,-0.00085z" fill="#1e82e6" fill-rule="evenodd" stroke="none" stroke-width="1" stroke-linecap="square" stroke-linejoin="miter"></path><path d="M240.70927,137.91151c5.0979,0 9.54073,0.99881 13.32848,2.99646c3.78775,1.98468 6.71939,4.77362 8.79486,8.36679c2.0755,3.5802 3.11322,7.75711 3.11322,12.53073c0,3.4375 -0.42157,6.51181 -1.26474,9.22293c-0.8302,2.69812 -2.30249,5.46759 -4.4169,8.30841c-2.11438,2.82782 -5.04599,6.194 -8.79483,10.09851l-21.96858,22.59033h38.35191v10.04013h-55.70724v-6.81018l30.60687,-32.28021c3.10025,-3.19107 5.52597,-5.96054 7.27716,-8.30841c1.76416,-2.3479 3.02243,-4.52066 3.77478,-6.51831c0.75238,-1.99768 1.12854,-4.06665 1.12854,-6.207c0,-4.22879 -1.35553,-7.53659 -4.06665,-9.9234c-2.69812,-2.39978 -6.20049,-3.59967 -10.50711,-3.59967c-4.22881,0 -7.93872,1.01828 -11.12978,3.05487c-3.17809,2.03656 -6.00594,5.16275 -8.48354,9.37857l-7.88034,-6.57669c3.26887,-5.40921 7.2123,-9.48883 11.83025,-12.23886c4.61795,-2.75 9.95583,-4.125 16.01364,-4.125z" fill="#ffffff" fill-rule="evenodd" stroke="none" stroke-width="1" stroke-linecap="square" stroke-linejoin="miter"></path><path d="M240.70927,137.91151c5.0979,0 9.54073,0.99881 13.32848,2.99646c3.78775,1.98468 6.71939,4.77362 8.79486,8.36679c2.0755,3.5802 3.11322,7.75711 3.11322,12.53073c0,3.4375 -0.42157,6.51181 -1.26474,9.22293c-0.8302,2.69812 -2.30249,5.46759 -4.4169,8.30841c-2.11438,2.82782 -5.04599,6.194 -8.79483,10.09851l-21.96858,22.59033h38.35191v10.04013h-55.70724v-6.81018l30.60687,-32.28021c3.10025,-3.19107 5.52597,-5.96054 7.27716,-8.30841c1.76416,-2.3479 3.02243,-4.52066 3.77478,-6.51831c0.75238,-1.99768 1.12854,-4.06665 1.12854,-6.207c0,-4.22879 -1.35553,-7.53659 -4.06665,-9.9234c-2.69812,-2.39978 -6.20049,-3.59967 -10.50711,-3.59967c-4.22881,0 -7.93872,1.01828 -11.12978,3.05487c-3.17809,2.03656 -6.00594,5.16275 -8.48354,9.37857l-7.88034,-6.57669c3.26887,-5.40921 7.2123,-9.48883 11.83025,-12.23886c4.61795,-2.75 9.95583,-4.125 16.01364,-4.125z" fill="none" fill-rule="evenodd" stroke="#ffffff" stroke-width="2" stroke-linecap="butt" stroke-linejoin="round"></path></g></g></svg>