<svg version="1.1" xmlns="http://www.w3.org/2000/svg" xmlns:xlink="http://www.w3.org/1999/xlink" width="279" height="279" viewBox="0,0,279,279"><defs><radialGradient cx="240" cy="180" r="139.5" gradientUnits="userSpaceOnUse" id="color-1"><stop offset="0" stop-color="#ffffff" stop-opacity="0.13333"></stop><stop offset="1" stop-color="#ffffff" stop-opacity="0"></stop></radialGradient></defs><g transform="translate(-100.5,-40.5)"><g stroke-miterlimit="10"><path d="M100.5,180c0,-77.04372 62.45628,-139.5 139.5,-139.5c77.04372,0 139.5,62.45628 139.5,139.5c0,77.04372 -62.45628,139.5 -139.5,139.5c-77.04372,0 -139.5,-62.45628 -139.5,-139.5z" fill="url(#color-1)" fill-rule="nonzero" stroke="#000000" stroke-width="0" stroke-linecap="butt" stroke-linejoin="miter"></path><path d="M176.99211,116.99212v0c0,-0.00058 0.00049,-0.00105 0.00107,-0.00105l126.01471,0.00105c0.00024,0 0.00055,0.00011 0.00073,0.00031c0.00018,0.0002 0.00031,0.00046 0.00031,0.00075l-0.00104,126.01468c0,0.00058 -0.00049,0.00107 -0.0011,0.00107l-126.01468,-0.00107v0c-0.00058,0 -0.00104,-0.00046 -0.00104,-0.00104z" fill="#bcbc6d" fill-rule="evenodd" stroke="none" stroke-width="1" stroke-linecap="square" stroke-linejoin="miter"></path><path d="M187.92827,127.92827v0c0,-0.00049 0.0004,-0.00085 0.00085,-0.00085l104.12515,0.00085c0.00018,0 0.00043,0.00009 0.00061,0.00024c0.00012,0.00018 0.00024,0.0004 0.00024,0.00064l-0.00085,104.12509c0,0.00049 -0.00043,0.00089 -0.00092,0.00089l-104.12509,-0.00089v0c-0.00049,0 -0.00085,-0.00037 -0.00085,-0.00085z" fill="#ffff96" fill-rule="evenodd" stroke="none" stroke-width="1" stroke-linecap="square" stroke-linejoin="miter"></path><path d="M251.09678,138.50992l-29.0755,51.29034h26.70172v-23.19351h11.11029v23.19351h11.94702v10.04016h-11.94702v21.6369h-11.11029v-21.6369h-40.5303v-6.92694l30.23721,-54.40356z" fill="#454525" fill-rule="evenodd" stroke="none" stroke-width="1" stroke-linecap="square" stroke-linejoin="miter"></path><path d="M251.09678,138.50992l-29.0755,51.29034h26.70172v-23.19351h11.11029v23.19351h11.94702v10.04016h-11.94702v21.6369h-11.11029v-21.6369h-40.5303v-6.92694l30.23721,-54.40356z" fill="none" fill-rule="evenodd" stroke="#454525" stroke-width="2" stroke-linecap="butt" stroke-linejoin="round"></path></g></g></svg>