<svg version="1.1" xmlns="http://www.w3.org/2000/svg" xmlns:xlink="http://www.w3.org/1999/xlink" width="270" height="270" viewBox="0,0,270,270"><defs><radialGradient cx="240" cy="180" r="135" gradientUnits="userSpaceOnUse" id="color-1"><stop offset="0" stop-color="#ffffff" stop-opacity="0.40392"></stop><stop offset="1" stop-color="#ffffff" stop-opacity="0"></stop></radialGradient></defs><g transform="translate(-105,-45)"><g stroke-miterlimit="10"><path d="M105,180c0,-74.55844 60.44156,-135 135,-135c74.55844,0 135,60.44156 135,135c0,74.55844 -60.44156,135 -135,135c-74.55844,0 -135,-60.44156 -135,-135z" fill="url(#color-1)" stroke="#ffffff" stroke-width="0"></path><path d="M143.62459,244.85317l161.22858,-161.22858l31.52225,31.52225l-161.22858,161.22858z" fill="#ffffff" stroke="#ffffff" stroke-width="31.5"></path><path d="M175.14685,83.62459l161.22857,161.22857l-31.52225,31.52225l-161.22857,-161.22857z" fill="#ffffff" stroke="#ffffff" stroke-width="31.5"></path><path d="M175.14685,94.99327l149.8599,149.85989l-20.15358,20.15358l-149.85989,-149.85989z" fill="#ff0000" stroke="#ff0000" stroke-width="7.5"></path><path d="M154.99327,244.85317l149.8599,-149.8599l20.15357,20.15357l-149.85989,149.8599z" fill="#ff0000" stroke="#ff0000" stroke-width="7.5"></path></g></g></svg>