<svg version="1.1" xmlns="http://www.w3.org/2000/svg" xmlns:xlink="http://www.w3.org/1999/xlink" width="204.10263" height="361.14532" viewBox="0,0,204.10263,361.14532"><g transform="translate(-35.77319,0.87499)"><g stroke="none" stroke-miterlimit="10"><path d="M239.87581,22.07501c0,42.27557 0,334.89287 0,334.89287c0,1.82112 -1.48069,3.30245 -3.30309,3.30245h-197.49708c-1.82048,0 -3.30245,-1.48133 -3.30245,-3.30245v-354.54042c0,-1.82112 1.48197,-3.30245 3.30245,-3.30245h197.49709c1.8224,0 3.30309,1.48197 3.30309,3.30308c0,0 -0.00001,9.15357 -0.00001,19.64692z" fill="#262740"></path><path d="M232.13744,11.76144v338.53979c0,1.82112 -1.48069,3.30245 -3.30309,3.30245h-183.24708c-1.82048,0 -3.30245,-1.48133 -3.30245,-3.30245v-338.54042c0,-1.82112 1.48197,-3.30245 3.30245,-3.30245h183.24709c1.8224,0 3.30309,1.48197 3.30309,3.30308z" fill="#333456"></path><text transform="translate(46.3,329.37055) scale(0.28947,0.28947)" font-size="40" xml:space="preserve" fill="#ffffff" font-family="&quot;BIZ UDPGothic&quot;, Sans Serif" font-weight="normal" text-anchor="start"><tspan x="0" dy="0">現在時刻(デバイス時刻)</tspan></text></g></g></svg>