<svg version="1.1" xmlns="http://www.w3.org/2000/svg" xmlns:xlink="http://www.w3.org/1999/xlink" width="7.2792" height="10.87263" viewBox="0,0,7.2792,10.87263"><g transform="translate(-145.13185,-216.56826)"><g fill="#ff0000" stroke="#ffffff" stroke-width="0" stroke-linecap="round" stroke-linejoin="round" stroke-miterlimit="10"><path d="M148.2522,224.71014l0.00048,0.14141l-0.05657,0.19307l0.01586,0.22748l0.1237,0.1242l-0.04475,0.06025l0.43791,0.39351l0.04673,0.20167l0.13194,0.07255l-0.04992,0.09469l-0.13306,0.0701l-0.14498,-0.06026l-0.31764,0.0455l-0.23316,0.07255l-0.09445,-0.04303l-0.03122,-0.11068l-0.11448,-0.1365l-0.24631,0.09715l-0.05865,0.06149l-0.14141,-0.00123l-0.05103,0.08977l0.04108,0.29635l0.2404,0.182l0.05349,0.21028l-0.13452,0.05657l-0.1151,0.19061l-0.24582,-0.07255l-0.01636,-0.16601l-0.18188,-0.23611l-0.25677,0.04182l-0.12568,-0.01722l-0.2125,0.04058l-0.12272,-0.07132l-0.15716,-0.01475l-0.12838,0.12789l-0.17782,0.1033l-0.1296,-0.182l-0.14549,-0.0787l-0.24742,-0.03197l0.13527,-0.23486l-0.02866,-0.11682l0.10084,-0.12912l0.05005,0.21643l0.25343,0.30498l0.09432,0.04549l0.10268,-0.08854l-0.06419,-0.10698l-0.16429,-0.07993l-0.00995,-0.13035l0.10784,-0.11682l0.00271,-0.12666l0.24139,0.05533l-0.07908,-0.17831l0.09604,-0.00615l-0.21594,-0.53615l0.02939,-0.08608l0.10882,-0.01598l-0.0011,-0.1033l-0.16331,-0.13281l-0.01992,-0.06641l0.08571,-0.32341l-0.06825,-0.07132l0.00652,-0.25825l0.10613,-0.15249l0.12629,-0.0209l0.19343,0.02951l0.03973,0.14142l0.15237,0.04181l0.0134,0.26807l-0.07821,0.10945l0.18163,0.02951l0.07735,-0.12666l0.15925,-0.1242l0.11411,0.11313l0.20266,-0.17337l0.20573,0.09715l0.01832,0.26563l0.09763,-0.06025l-0.03517,-0.16478l-0.12112,-0.14757l0.17327,-0.25454l0.16183,0.01352l-0.0016,-0.17708l0.15483,-0.04919l0.04711,-0.08239l0.0086,0.35169l0.12174,0.10945l-0.06025,0.23242l0.36386,0.04426" fill-rule="evenodd"></path><path d="M151.43836,219.17646l0.21679,0.26563l-0.04537,0.31482l-0.04648,0.00738l-0.05804,0.24593l-0.12629,0.22873l-0.00455,0.1611l-0.08264,0.04181l0.07821,0.20414l-0.10022,0.10084l0.08091,0.27176l-0.06038,0.15126l0.08031,0.12789l0.10378,-0.07132l0.20745,-0.00492l0.10674,-0.07747l0.06197,-0.12297l0.13367,-0.05533l0.13086,0.03935l0.05323,-0.10084l0.16564,-0.00368l0.0193,0.23242l0.0578,0.29268l-0.41651,0.22627l-0.07931,0.25946l-0.29168,-0.00123l-0.08387,-0.04058l-0.02582,0.21398l-0.07514,-0.01844l-0.0894,0.14634l-0.02816,0.20537l-0.11116,-0.00123l-0.02214,0.14265l0.1167,0.0787l-0.06222,0.12543l0.08694,0.04919l0.07243,0.2447l-0.0717,0.07747l-0.20549,-0.09837l-0.14757,0.08485l-0.05484,0.15987l0.09678,0.1943l-0.06947,0.2152l-0.17462,-0.03812l-0.03222,-0.14019l0.0091,-0.34923l-0.03775,-0.08854l0.03629,-0.13773l-0.05928,-0.10575l0.04882,-0.12052l0.12691,-0.10207l-0.20216,-0.07747l0.0193,-0.14265l0.23512,0.13896l0.00504,-0.17954l-0.11056,-0.02706l-0.04218,-0.12297l-0.09911,-0.05288l-0.08977,0.05902l-0.08707,-0.05657l0.1756,-0.13527l-0.03024,-0.12297l-0.15334,0.08362l-0.10882,-0.07501l-0.12531,-0.01476l-0.02066,-0.15372l-0.09198,-0.22996l0.15507,-0.07501l0.16601,-0.02582l0.11264,0.091l0.08927,-0.13773l0.13552,0.05533l0.00296,-0.16601l-0.10563,-0.09715l0.08609,-0.07009l-0.10637,-0.11436l0.01341,-0.3566l0.19553,-0.19061l0.09543,0.0123l0.05251,0.30129l0.19417,-0.04795l-0.083,-0.1697l0.01548,-0.23734l0.06222,-0.36891l0.19688,-0.06763l0.07574,-0.12174l0.00283,-0.21151l-0.04427,-0.13527l-0.12433,-0.13773l0.05915,-0.05287l0.03664,-0.25946l0.05805,-0.09469l0.00479,-0.13527l0.07157,-0.08731l0.0578,0.11313l-0.07662,0.09347l0.03124,0.11682l-0.08633,0.22504l-0.0466,0.03075" fill-rule="evenodd"></path><path d="M149.49297,223.46813l-0.04771,0.11682l0.091,0.15987l-0.04145,0.16478l-0.06025,0.04058l-0.02251,-0.33939l-0.10614,-0.06763l-0.1365,-0.22874l-0.3555,-0.19059l-0.1017,0.0455l-0.02507,-0.21521l0.1804,-0.1574l0.06579,0.11314l0.20647,0.00984l0.12825,0.24839l0.06186,-0.10945l0.12629,0.01476l0.08779,-0.19184l-0.09346,-0.17585l0.08523,0.04919l0.12125,0.17954l0.05694,0.28529l-0.10784,0.22996l-0.11313,0.01844" fill-rule="evenodd"></path><path d="M150.46198,222.29992l-0.00454,0.12543l0.11805,0.12666l-0.07281,0.14141l0.02472,0.22748l-0.06199,0.08608l0.076,0.15495l-0.12493,0.10084l-0.10207,-0.19184l-0.12383,-0.07747l-0.19578,-0.02214l-0.14622,-0.1365l-0.15839,-0.34431l0.129,-0.06149l0.02902,0.11191l0.20524,0.02214l-0.12297,-0.18569l0.08461,-0.04059l-0.00763,-0.15249l0.03849,-0.18815l0.10085,0.0787l0.03012,0.10822l0.12728,-0.08363l0.15777,0.20045" fill-rule="evenodd"></path><path d="M148.99248,223.99691l-0.02201,0.11436l-0.10859,0.04919l-0.09396,0.13281l-0.03677,0.16478l-0.20843,0.01844l-0.07391,-0.0455l-0.12654,-0.18077l-0.09888,-0.03074l-0.08461,-0.22258l0.05521,-0.25825l-0.02164,-0.23611l0.2452,-0.09469l0.08794,0.08977l-0.03284,0.16847l0.05067,0.15618l0.13761,0.08608l0.01378,-0.22748l-0.10416,-0.02951l-0.04759,-0.09715l-0.02607,-0.26684l0.2382,0.15863l0.03124,0.13035l0.18151,0.04919l0.04464,0.37137" fill-rule="evenodd"></path><path d="M151.8663,217.15975l-0.0974,0.01229l-0.00246,0.17955l-0.14461,0.05288l-0.28997,-0.09223l-0.09346,-0.16601l-0.13465,-0.03197l-0.07612,-0.08608l0.16835,-0.09961l0.06038,-0.10207l0.23881,-0.07747l0.16589,0.00492l0.0905,-0.18569l0.08927,0.02214l0.07783,0.25577l-0.02718,0.06887l0.11964,0.13035l-0.14486,0.11436" fill-rule="evenodd"></path><path d="M149.98361,224.69784l-0.14903,0.07379l-0.12248,-0.10453l0.20118,-0.14019l0.12384,0.00492l-0.04341,-0.20782l0.08842,-0.2447l0.0723,0.06518l0.10478,0.24103l-0.038,0.28651l-0.23758,0.02582" fill-rule="evenodd"></path><path d="M151.07191,218.25419l-0.06259,-0.08854l-0.10096,0.0209l-0.06591,0.11436l-0.10601,0.00122l0.00959,-0.16478l-0.17794,0.00984l-0.04944,-0.08608l0.35108,-0.27914l-0.04083,0.08854l0.15483,0.08731l0.17166,-0.02828l0.03357,0.21028l-0.11707,0.11436" fill-rule="evenodd"></path><path d="M151.80112,218.68459l-0.10378,-0.05903l-0.05755,-0.24226l0.05976,-0.12543l-0.11744,-0.29635l0.09642,-0.08485l0.14928,0.24964l0.10601,0.06271l-0.14953,0.10452l0.03948,0.16724l-0.02263,0.22381" fill-rule="evenodd"></path><path d="M145.43739,226.06281l0.16319,-0.3148l0.07526,-0.04673l0.07391,0.1033l-0.11657,0.12912l0.05508,0.24964l-0.16208,0.13404l-0.08877,-0.25454" fill-rule="evenodd"></path><path d="M149.64052,222.26302l-0.01242,-0.01967l-0.02214,-0.00122l-0.08374,0.15126l-0.1076,-0.05533l-0.10367,-0.14757l0.10367,-0.0787l0.10674,0.00122l0.0123,0.08116l0.05055,0.0086l0.0214,0.03812l0.02717,0.00122l0.0091,-0.01476l0.00196,-0.03444l0.01292,-0.04058l-0.01292,-0.06025l0.0717,-0.091l0.07403,0.04058l-0.05103,0.16601l-0.0632,0.03197l-0.0316,-0.00246l-0.00319,0.02582" fill-rule="evenodd"></path><path d="M145.13735,225.21432l-0.00319,-0.20413l0.19109,-0.19676l0.01451,0.13035l-0.08485,0.03812l0.03812,0.15495l-0.06173,0.10945l-0.09394,-0.03197" fill-rule="evenodd"></path><path d="M151.09402,217.36881l-0.16552,0.01353l-0.04156,-0.14879l0.10021,-0.08238l0.10686,0.21766" fill-rule="evenodd"></path><path d="M150.13241,221.57439l-0.02693,0.13527l-0.17622,0.00492l0.11831,-0.19922l0.08485,0.05903" fill-rule="evenodd"></path><path d="M149.59626,224.34122l0.05571,-0.06641l0.11535,0.12543l-0.02619,0.10206l-0.11916,-0.03812l-0.0257,-0.12297" fill-rule="evenodd"></path><path d="M149.0097,225.32498l-0.08977,0.10576l-0.05989,-0.11436l0.05793,-0.08977l0.09173,0.09837" fill-rule="evenodd"></path><path d="M149.00722,227.28022l0.0011,0.13158l-0.11448,0.01967l-0.05865,-0.09347l0.17203,-0.0578" fill-rule="evenodd"></path><path d="M150.45952,217.88528l0.00492,0.18444l-0.14068,-0.00245l0.04636,-0.16971l0.0894,-0.01229" fill-rule="evenodd"></path><path d="M148.21776,226.83752l-0.00554,0.08854l-0.15126,-0.02214l0.03616,-0.12052l0.12063,0.05411" fill-rule="evenodd"></path><path d="M148.89243,227.44089l-0.05865,-0.09346l0.17204,-0.0578l0.0011,0.13158l-0.11449,0.01967" fill-rule="nonzero"></path><path d="M148.21606,226.83832l-0.00554,0.08854l-0.15126,-0.02214l0.03616,-0.12052l0.12064,0.05411" fill-rule="nonzero"></path><path d="M145.59915,225.74382l0.07527,-0.04674l0.07391,0.1033l-0.11658,0.12913l0.05509,0.24964l-0.16208,0.13404l-0.08879,-0.25456l0.16319,-0.31482" fill-rule="nonzero"></path><path d="M148.19394,225.04287l0.01586,0.22751l0.12371,0.12421l-0.04477,0.06025l0.43791,0.39351l0.04674,0.20169l0.13194,0.07255l-0.04993,0.09469l-0.13306,0.0701l-0.14499,-0.06025l-0.31765,0.0455l-0.23316,0.07255l-0.09445,-0.04303l-0.03124,-0.11068l-0.11449,-0.13651l-0.24631,0.09715l-0.05865,0.06149l-0.14142,-0.00123l-0.05103,0.08977l0.04106,0.29637l0.24041,0.18201l0.05349,0.21029l-0.13453,0.05657l-0.11511,0.19061l-0.24583,-0.07255l-0.01636,-0.16602l-0.18188,-0.23612l-0.25678,0.04182l-0.12568,-0.01722l-0.21251,0.04058l-0.12273,-0.07133l-0.15716,-0.01476l-0.12838,0.1279l-0.17782,0.1033l-0.12961,-0.18201l-0.14549,-0.0787l-0.24744,-0.03197l0.13528,-0.23489l-0.02865,-0.11683l0.10084,-0.12913l0.05005,0.21644l0.25346,0.30499l0.09432,0.0455l0.1027,-0.08855l-0.0642,-0.10699l-0.1643,-0.07993l-0.00996,-0.13035l0.10785,-0.11683l0.00271,-0.12666l0.2414,0.05534l-0.07908,-0.17832l0.09605,-0.00615l-0.21595,-0.53617l0.02939,-0.08609l0.10883,-0.01598l-0.0011,-0.10331l-0.16332,-0.13281l-0.01992,-0.06641l0.08571,-0.32341l-0.06825,-0.07133l0.00652,-0.25826l0.10614,-0.1525l0.1263,-0.0209l0.19343,0.02952l0.03973,0.14142l0.15237,0.04182l0.01341,0.2681l-0.07821,0.10945l0.18164,0.02952l0.07735,-0.12666l0.15925,-0.1242l0.11412,0.11314l0.20267,-0.17339l0.20573,0.09715l0.01832,0.26563l0.09763,-0.06026l-0.03516,-0.16478l-0.12112,-0.14758l0.17327,-0.25456l0.16183,0.01353l-0.0016,-0.17709l0.15483,-0.04919l0.0471,-0.08239l0.0086,0.35172l0.12174,0.10945l-0.06025,0.23243l0.36389,0.04427l0.00048,0.14142l-0.05657,0.19307" fill-rule="nonzero"></path><path d="M149.00803,225.32572l-0.08977,0.10577l-0.05989,-0.11437l0.05793,-0.08977l0.09174,0.09838" fill-rule="nonzero"></path><path d="M145.13185,225.00598l0.1911,-0.19676l0.01451,0.13035l-0.08485,0.03812l0.03812,0.15495l-0.06173,0.10945l-0.09396,-0.03197l-0.00319,-0.20414" fill-rule="nonzero"></path><path d="M149.71146,224.66164l0.20119,-0.1402l0.12384,0.00492l-0.04342,-0.20782l0.08843,-0.24472l0.07231,0.06518l0.10478,0.24103l-0.038,0.28653l-0.23758,0.02582l-0.14905,0.07379l-0.12248,-0.10453" fill-rule="nonzero"></path><path d="M149.64996,224.28042l0.11535,0.12543l-0.02619,0.10206l-0.11916,-0.03812l-0.0257,-0.12297l0.05571,-0.06641" fill-rule="nonzero"></path><path d="M148.85923,224.15745l-0.09396,0.13282l-0.03677,0.16479l-0.20844,0.01844l-0.07391,-0.0455l-0.12654,-0.18078l-0.09888,-0.03074l-0.0846,-0.22259l0.05521,-0.25826l-0.02164,-0.23611l0.2452,-0.09469l0.08794,0.08977l-0.03284,0.16847l0.05067,0.15618l0.13761,0.08609l0.01378,-0.2275l-0.10416,-0.02952l-0.04759,-0.09715l-0.02607,-0.26686l0.2382,0.15863l0.03124,0.13035l0.18151,0.04919l0.04464,0.37138l-0.02202,0.11437l-0.10859,0.04919" fill-rule="nonzero"></path><path d="M149.44458,223.57946l0.091,0.15988l-0.04145,0.16478l-0.06025,0.04058l-0.02251,-0.3394l-0.10614,-0.06764l-0.1365,-0.22874l-0.35552,-0.19061l-0.1017,0.0455l-0.02509,-0.21521l0.1804,-0.15741l0.06579,0.11314l0.20648,0.00984l0.12827,0.24841l0.06186,-0.10945l0.1263,0.01476l0.08779,-0.19182l-0.09346,-0.17586l0.08523,0.04919l0.12125,0.17955l0.05694,0.28531l-0.10785,0.22997l-0.11314,0.01844l-0.04772,0.11683" fill-rule="nonzero"></path><path d="M150.45545,222.42349l0.11805,0.12666l-0.07281,0.14142l0.02472,0.2275l-0.06199,0.08609l0.076,0.15495l-0.12494,0.10084l-0.10207,-0.19185l-0.12384,-0.07747l-0.19578,-0.02214l-0.14622,-0.13651l-0.15839,-0.34434l0.12901,-0.06149l0.02902,0.11191l0.20524,0.02214l-0.12298,-0.1857l0.08461,-0.04058l-0.00762,-0.1525l0.0385,-0.18815l0.10084,0.0787l0.03012,0.10822l0.12728,-0.08362l0.15779,0.20044l-0.00454,0.12543" fill-rule="nonzero"></path><path d="M149.6266,222.23904l-0.02214,-0.00123l-0.08374,0.15126l-0.10762,-0.05534l-0.10368,-0.14757l0.10368,-0.07871l0.10674,0.00123l0.0123,0.08117l0.05055,0.0086l0.0214,0.03812l0.02718,0.00123l0.0091,-0.01476l0.00196,-0.03444l0.01292,-0.04058l-0.01292,-0.06025l0.0717,-0.091l0.07403,0.04058l-0.05103,0.16602l-0.0632,0.03197l-0.03161,-0.00246l-0.00319,0.02582l-0.01242,-0.01967" fill-rule="nonzero"></path><path d="M150.10374,221.71024l-0.17622,0.00492l0.11831,-0.19922l0.08485,0.05902l-0.02693,0.13528" fill-rule="nonzero"></path><path d="M151.07033,218.25463l-0.06259,-0.08854l-0.10096,0.0209l-0.06591,0.11436l-0.10601,0.00122l0.00959,-0.16479l-0.17794,0.00984l-0.04943,-0.08609l0.35109,-0.27914l-0.04083,0.08854l0.15483,0.08731l0.17168,-0.02828l0.03357,0.21029l-0.11707,0.11436" fill-rule="nonzero"></path><path d="M150.32264,218.07017l0.04636,-0.16971l0.0894,-0.0123l0.00492,0.18447l-0.14068,-0.00246" fill-rule="nonzero"></path><path d="M151.65323,219.44749l-0.04537,0.31482l-0.04648,0.00738l-0.05804,0.24595l-0.1263,0.22874l-0.00454,0.1611l-0.08265,0.04181l0.07821,0.20414l-0.10022,0.10084l0.08092,0.27178l-0.06038,0.15126l0.08029,0.1279l0.10378,-0.07133l0.20746,-0.00492l0.10674,-0.07747l0.06199,-0.12298l0.13367,-0.05534l0.13084,0.03935l0.05325,-0.10085l0.16565,-0.00369l0.0193,0.23242l0.0578,0.29269l-0.41652,0.22628l-0.07931,0.25948l-0.29169,-0.00123l-0.08387,-0.04058l-0.02582,0.21398l-0.07514,-0.01844l-0.14266,0.08609l0.05325,0.06025l-0.02815,0.20537l-0.11118,-0.00123l-0.02214,0.14265l0.11671,0.0787l-0.06222,0.12544l0.08694,0.04919l0.07244,0.24472l-0.0717,0.07747l-0.20549,-0.09838l-0.14757,0.08485l-0.05484,0.15987l0.09678,0.19431l-0.06947,0.21521l-0.17463,-0.03812l-0.03223,-0.1402l0.0091,-0.34924l-0.03775,-0.08854l0.03629,-0.13773l-0.05927,-0.10577l0.04882,-0.12052l0.12691,-0.10206l-0.20217,-0.07748l0.0193,-0.14265l0.23514,0.13896l0.00504,-0.17955l-0.11056,-0.02705l-0.04218,-0.12298l-0.09912,-0.05287l-0.08977,0.05903l-0.08706,-0.05657l0.17561,-0.13528l-0.03024,-0.12298l-0.15335,0.08362l-0.10883,-0.07501l-0.12531,-0.01476l-0.02066,-0.15372l-0.09198,-0.22997l0.15508,-0.07501l0.16602,-0.02582l0.11264,0.091l0.08927,-0.13773l0.13552,0.05534l0.00296,-0.16601l-0.10564,-0.09715l0.08609,-0.0701l-0.10637,-0.11437l0.01341,-0.35664l0.19553,-0.19061l0.09543,0.0123l0.05251,0.3013l0.19418,-0.04796l-0.08301,-0.16971l0.01548,-0.23734l0.06222,-0.36892l0.19689,-0.06763l0.07575,-0.12174l0.00283,-0.21153l-0.04427,-0.13528l-0.12433,-0.13773l0.05916,-0.05287l0.03664,-0.25948l0.05804,-0.09469l0.0048,-0.13528l0.07157,-0.08731l0.0578,0.11314l-0.07662,0.09346l0.03124,0.11683l-0.08633,0.22505l-0.04661,0.03074l0.2168,0.26563" fill-rule="nonzero"></path><path d="M151.69627,218.62357l-0.05756,-0.24227l0.05976,-0.12543l-0.11744,-0.29637l0.0964,-0.08485l0.14929,0.24964l0.10601,0.06271l-0.14954,0.10453l0.03948,0.16725l-0.02263,0.22382l-0.10378,-0.05902" fill-rule="nonzero"></path><path d="M150.92767,217.38151l-0.04156,-0.1488l0.10022,-0.08239l0.10686,0.21767l-0.16552,0.01352" fill-rule="nonzero"></path><path d="M151.86475,217.16016l-0.0974,0.0123l-0.00246,0.17955l-0.14462,0.05287l-0.28998,-0.09223l-0.09346,-0.16602l-0.13466,-0.03197l-0.07612,-0.08609l0.16835,-0.0996l0.06038,-0.10207l0.23881,-0.07747l0.16589,0.00492l0.09051,-0.18569l0.08927,0.02214l0.07783,0.2558l-0.02718,0.06887l0.11966,0.13035l-0.14486,0.11437" fill-rule="nonzero"></path></g></g></svg>