<svg version="1.1" xmlns="http://www.w3.org/2000/svg" xmlns:xlink="http://www.w3.org/1999/xlink" width="485" height="363" viewBox="0,0,485,363"><g transform="translate(2.5,1.5)"><g stroke-miterlimit="10"><path d="M-2.5,361.5v-363h485v363z" fill-opacity="0.28627" fill="#000000" fill-rule="nonzero" stroke="none" stroke-width="0" stroke-linecap="butt" stroke-linejoin="miter"/><path d="M34.92025,211.83224v13.5949h6.16945v4.10359h-6.16945v19.98756c1.95413,-0.66999 4.18741,-1.51676 6.69986,-2.54033l0.44666,3.9361c-5.69488,2.62406 -11.79919,4.93174 -18.31295,6.92307l-1.59122,-4.35485c2.58689,-0.70718 5.36919,-1.53535 8.34691,-2.48449v-21.46707h-7.59317v-4.10359h7.59317v-13.5949zM60.74262,211.46934v13.92988l10.30103,-3.46152l2.51245,1.36786v20.57378c0,1.33995 -0.31638,2.35421 -0.94914,3.04281c-0.74443,0.80024 -2.04719,1.20036 -3.90825,1.20036c-1.50747,0 -2.97772,-0.10236 -4.41074,-0.30706l-0.72582,-3.99193v0c1.41442,0.26054 2.73578,0.39082 3.96408,0.39082c0.93054,0 1.49817,-0.20472 1.70288,-0.61415c0.14889,-0.27915 0.22333,-0.7165 0.22333,-1.31204v-15.6048l-8.70982,2.95906v22.7512h-4.18741v-21.32751l-7.34193,2.54031v23.36536c0,1.54465 0.45596,2.49379 1.36788,2.84737c0.98637,0.37221 4.12228,0.55832 9.40772,0.55832c5.11795,0 8.43066,-0.17679 9.93813,-0.53039c1.06081,-0.26054 1.7401,-0.87469 2.03787,-1.84243c0.46527,-1.52605 0.70721,-3.88957 0.72582,-7.09056l4.29908,1.59119c-0.26055,5.04341 -0.93054,8.2444 -2.00996,9.60296c-0.8561,1.11662 -2.24259,1.77729 -4.1595,1.98201c-2.92188,0.29776 -6.87666,0.44664 -11.86433,0.44664c-4.74573,0 -7.93747,-0.15819 -9.57521,-0.47455c-2.04718,-0.40944 -3.34993,-1.33995 -3.90825,-2.79157c-0.29777,-0.80024 -0.44666,-1.85173 -0.44666,-3.15445v-23.08619l-6.00196,2.03783l-1.08873,-3.99193l7.09069,-2.37282v-15.18608h4.18741v13.76239l7.34193,-2.48449v-15.32567z" fill="#ffffff" fill-rule="evenodd" stroke="none" stroke-width="1" stroke-linecap="square" stroke-linejoin="miter"/><path d="M101.27678,224.56176v2.79155h-12.45057v-2.79155zM124.67045,224.56176v2.79155h-12.75766v-2.79155zM101.27678,229.80988v2.79155h-12.45057v-2.79155zM124.67045,229.80988v2.79155h-12.75766v-2.79155zM127.15498,212.94886v3.21029h-18.36879v2.73573h23.47743v9.43547h-4.41074v-6.39266h-19.06669v11.72454h-4.29907v-11.72454h-18.87127v6.39266h-4.41075v-9.43547h23.28201v-2.73573h-18.06171v-3.21029zM126.42916,241.42276v3.15447h-34.42053v-3.15447zM130.78407,235.53258v3.09863h-42.76743v9.12839h45.55904v3.21029h-21.69079c1.80524,2.38213 3.88033,4.34553 6.22528,5.8902c2.66134,-1.67494 5.24823,-3.5825 7.76067,-5.72269l3.43368,2.28907c-2.23329,1.82382 -4.88531,3.56389 -7.95608,5.22021c3.38715,1.47022 7.54665,2.60546 12.47848,3.4057l-2.59619,3.71278c-7.25818,-1.37717 -12.97167,-3.73138 -17.14047,-7.06265c-2.56828,-2.04714 -4.82018,-4.62468 -6.75569,-7.73262h-7.59317v10.0217c5.28544,-0.74442 9.66827,-1.45162 13.14847,-2.12158l0.33499,3.18237c-6.84874,1.6005 -14.43262,2.94045 -22.7516,4.01986l-1.25622,-3.85235c2.21467,-0.20472 4.25255,-0.41875 6.11362,-0.64206v-10.60793h-7.34192c-0.14889,3.55459 -0.64207,6.49504 -1.47955,8.82132c-0.76304,2.10298 -1.87968,4.00123 -3.34993,5.69478l-3.60118,-3.21029c1.87969,-2.21464 3.07077,-4.6805 3.57326,-7.39762c0.31638,-1.69355 0.47458,-3.70347 0.47458,-6.02978v-13.31573z" fill="#ffffff" fill-rule="evenodd" stroke="none" stroke-width="1" stroke-linecap="square" stroke-linejoin="miter"/><path d="M154.9873,226.37626l-3.04284,2.70781c-0.94915,-3.29403 -2.05649,-6.19726 -3.32203,-8.70966l2.70787,-2.1495c1.48886,2.56822 2.70787,5.28534 3.657,8.15134zM173.91442,211.46934v4.10359h15.1305v3.32196h-15.1305v3.48945h12.95304v3.26612h-12.95304v3.65695h17.3638v3.48945h-38.3567v-3.48945h16.69382v-3.65695h-12.59014v-3.26612h12.59014v-3.48945h-14.62802v-3.32196h14.62802v-4.10359zM138.62848,223.30556l3.71284,0.44664c-0.3536,7.57443 -1.15386,13.57628 -2.40079,18.00556l-3.60117,-2.09367c1.13526,-4.20595 1.8983,-9.6588 2.28911,-16.35852zM162.18966,239.55242v4.04777h19.42959v-4.04777zM162.18966,246.92214v4.27108h19.42959v-4.27108zM185.97415,236.34212v24.8728c0,1.48883 -0.37221,2.57752 -1.11664,3.26612c-0.7072,0.66997 -1.90759,1.00496 -3.60118,1.00496c-1.67496,0 -3.86172,-0.09306 -6.56027,-0.27915l-0.72582,-3.9361v0c2.34494,0.26054 4.37352,0.39082 6.0857,0.39082c0.68861,0 1.12596,-0.13958 1.31206,-0.41873c0.1675,-0.24194 0.25126,-0.65136 0.25126,-1.22829v-5.44354h-19.42959v11.19415h-4.29908v-29.42303zM148.48286,211.46934v54.32375h-4.35492v-54.32375z" fill="#ffffff" fill-rule="evenodd" stroke="none" stroke-width="1" stroke-linecap="square" stroke-linejoin="miter"/><path d="M202.44464,231.37314c0.78165,2.34491 1.52608,5.04342 2.2333,8.09553h5.77862c0.81888,-2.10298 1.63774,-4.80149 2.45663,-8.09553zM232.25902,239.18951c1.37718,4.76427 3.09868,8.65384 5.16448,11.66872c2.0844,-3.57318 3.52673,-7.46277 4.32699,-11.66872zM210.14947,211.46933v6.28102h9.26815v3.71277h-9.26815v6.19726h10.9152v3.71276h-3.96408c-0.65138,2.51242 -1.54469,5.21091 -2.67995,8.09553h6.2532v3.71278h-10.46853v6.53224h9.99396v3.7686h-9.99396v12.28286h-4.35492v-12.28286h-10.2452v-3.7686h10.2452v-6.53224h-10.85936v-3.71278h5.72281c-0.8561,-3.42432 -1.63774,-6.12283 -2.34496,-8.09553h-4.41074v-3.71276h11.83642v-6.19726h-9.60314v-3.71277h9.60314v-6.28102zM244.79334,213.64676v13.4274c0,1.65632 -0.41874,2.79155 -1.25623,3.4057c-0.7072,0.50248 -1.95411,0.75372 -3.74075,0.75372c-2.14023,0 -4.23393,-0.09304 -6.28112,-0.27915l-0.83749,-3.88026v0c2.9405,0.29776 5.14586,0.44664 6.61612,0.44664c0.83747,0 1.25622,-0.41873 1.25622,-1.2562v-8.84924h-13.65096v18.0614h17.08463l2.45663,2.12158c-1.32136,6.42057 -3.40576,11.94787 -6.2532,16.58185c2.23328,2.71712 5.09933,5.22952 8.59815,7.53722l-2.56827,3.93609c-3.40576,-2.45656 -6.2346,-5.07132 -8.4865,-7.84428c-2.08438,2.81018 -4.72712,5.49938 -7.92816,8.06761l-2.73578,-3.60111c2.92189,-1.95408 5.61113,-4.57816 8.06775,-7.87219c-3.23827,-4.96897 -5.49016,-10.04031 -6.7557,-15.214h-1.47954v26.57564h-4.29908v-52.11839z" fill="#ffffff" fill-rule="evenodd" stroke="none" stroke-width="1" stroke-linecap="square" stroke-linejoin="miter"/><path d="M34.92025,211.83224v13.5949h6.16945v4.10359h-6.16945v19.98756c1.95413,-0.66999 4.18741,-1.51676 6.69986,-2.54033l0.44666,3.9361c-5.69488,2.62406 -11.79919,4.93174 -18.31295,6.92307l-1.59122,-4.35485c2.58689,-0.70718 5.36919,-1.53535 8.34691,-2.48449v-21.46707h-7.59317v-4.10359h7.59317v-13.5949zM60.74262,211.46934v13.92988l10.30103,-3.46152l2.51245,1.36786v20.57378c0,1.33995 -0.31638,2.35421 -0.94914,3.04281c-0.74443,0.80024 -2.04719,1.20036 -3.90825,1.20036c-1.50747,0 -2.97772,-0.10236 -4.41074,-0.30706l-0.72582,-3.99193v0c1.41442,0.26054 2.73578,0.39082 3.96408,0.39082c0.93054,0 1.49817,-0.20472 1.70288,-0.61415c0.14889,-0.27915 0.22333,-0.7165 0.22333,-1.31204v-15.6048l-8.70982,2.95906v22.7512h-4.18741v-21.32751l-7.34193,2.54031v23.36536c0,1.54465 0.45596,2.49379 1.36788,2.84737c0.98637,0.37221 4.12228,0.55832 9.40772,0.55832c5.11795,0 8.43066,-0.17679 9.93813,-0.53039c1.06081,-0.26054 1.7401,-0.87469 2.03787,-1.84243c0.46527,-1.52605 0.70721,-3.88957 0.72582,-7.09056l4.29908,1.59119c-0.26055,5.04341 -0.93054,8.2444 -2.00996,9.60296c-0.8561,1.11662 -2.24259,1.77729 -4.1595,1.98201c-2.92188,0.29776 -6.87666,0.44664 -11.86433,0.44664c-4.74573,0 -7.93747,-0.15819 -9.57521,-0.47455c-2.04718,-0.40944 -3.34993,-1.33995 -3.90825,-2.79157c-0.29777,-0.80024 -0.44666,-1.85173 -0.44666,-3.15445v-23.08619l-6.00196,2.03783l-1.08873,-3.99193l7.09069,-2.37282v-15.18608h4.18741v13.76239l7.34193,-2.48449v-15.32567z" fill="none" fill-rule="evenodd" stroke="#ffffff" stroke-width="1" stroke-linecap="butt" stroke-linejoin="round"/><path d="M101.27678,224.56176v2.79155h-12.45057v-2.79155zM124.67045,224.56176v2.79155h-12.75766v-2.79155zM101.27678,229.80988v2.79155h-12.45057v-2.79155zM124.67045,229.80988v2.79155h-12.75766v-2.79155zM127.15498,212.94886v3.21029h-18.36879v2.73573h23.47743v9.43547h-4.41074v-6.39266h-19.06669v11.72454h-4.29907v-11.72454h-18.87127v6.39266h-4.41075v-9.43547h23.28201v-2.73573h-18.06171v-3.21029zM126.42916,241.42276v3.15447h-34.42053v-3.15447zM130.78407,235.53258v3.09863h-42.76743v9.12839h45.55904v3.21029h-21.69079c1.80524,2.38213 3.88033,4.34553 6.22528,5.8902c2.66134,-1.67494 5.24823,-3.5825 7.76067,-5.72269l3.43368,2.28907c-2.23329,1.82382 -4.88531,3.56389 -7.95608,5.22021c3.38715,1.47022 7.54665,2.60546 12.47848,3.4057l-2.59619,3.71278c-7.25818,-1.37717 -12.97167,-3.73138 -17.14047,-7.06265c-2.56828,-2.04714 -4.82018,-4.62468 -6.75569,-7.73262h-7.59317v10.0217c5.28544,-0.74442 9.66827,-1.45162 13.14847,-2.12158l0.33499,3.18237c-6.84874,1.6005 -14.43262,2.94045 -22.7516,4.01986l-1.25622,-3.85235c2.21467,-0.20472 4.25255,-0.41875 6.11362,-0.64206v-10.60793h-7.34192c-0.14889,3.55459 -0.64207,6.49504 -1.47955,8.82132c-0.76304,2.10298 -1.87968,4.00123 -3.34993,5.69478l-3.60118,-3.21029c1.87969,-2.21464 3.07077,-4.6805 3.57326,-7.39762c0.31638,-1.69355 0.47458,-3.70347 0.47458,-6.02978v-13.31573z" fill="none" fill-rule="evenodd" stroke="#ffffff" stroke-width="1" stroke-linecap="butt" stroke-linejoin="round"/><path d="M154.9873,226.37626l-3.04284,2.70781c-0.94915,-3.29403 -2.05649,-6.19726 -3.32203,-8.70966l2.70787,-2.1495c1.48886,2.56822 2.70787,5.28534 3.657,8.15134zM173.91442,211.46934v4.10359h15.1305v3.32196h-15.1305v3.48945h12.95304v3.26612h-12.95304v3.65695h17.3638v3.48945h-38.3567v-3.48945h16.69382v-3.65695h-12.59014v-3.26612h12.59014v-3.48945h-14.62802v-3.32196h14.62802v-4.10359zM138.62848,223.30556l3.71284,0.44664c-0.3536,7.57443 -1.15386,13.57628 -2.40079,18.00556l-3.60117,-2.09367c1.13526,-4.20595 1.8983,-9.6588 2.28911,-16.35852zM162.18966,239.55242v4.04777h19.42959v-4.04777zM162.18966,246.92214v4.27108h19.42959v-4.27108zM185.97415,236.34212v24.8728c0,1.48883 -0.37221,2.57752 -1.11664,3.26612c-0.7072,0.66997 -1.90759,1.00496 -3.60118,1.00496c-1.67496,0 -3.86172,-0.09306 -6.56027,-0.27915l-0.72582,-3.9361v0c2.34494,0.26054 4.37352,0.39082 6.0857,0.39082c0.68861,0 1.12596,-0.13958 1.31206,-0.41873c0.1675,-0.24194 0.25126,-0.65136 0.25126,-1.22829v-5.44354h-19.42959v11.19415h-4.29908v-29.42303zM148.48286,211.46934v54.32375h-4.35492v-54.32375z" fill="none" fill-rule="evenodd" stroke="#ffffff" stroke-width="1" stroke-linecap="butt" stroke-linejoin="round"/><path d="M202.44464,231.37314c0.78165,2.34491 1.52608,5.04342 2.2333,8.09553h5.77862c0.81888,-2.10298 1.63774,-4.80149 2.45663,-8.09553zM232.25902,239.18951c1.37718,4.76427 3.09868,8.65384 5.16448,11.66872c2.0844,-3.57318 3.52673,-7.46277 4.32699,-11.66872zM210.14947,211.46933v6.28102h9.26815v3.71277h-9.26815v6.19726h10.9152v3.71276h-3.96408c-0.65138,2.51242 -1.54469,5.21091 -2.67995,8.09553h6.2532v3.71278h-10.46853v6.53224h9.99396v3.7686h-9.99396v12.28286h-4.35492v-12.28286h-10.2452v-3.7686h10.2452v-6.53224h-10.85936v-3.71278h5.72281c-0.8561,-3.42432 -1.63774,-6.12283 -2.34496,-8.09553h-4.41074v-3.71276h11.83642v-6.19726h-9.60314v-3.71277h9.60314v-6.28102zM244.79334,213.64676v13.4274c0,1.65632 -0.41874,2.79155 -1.25623,3.4057c-0.7072,0.50248 -1.95411,0.75372 -3.74075,0.75372c-2.14023,0 -4.23393,-0.09304 -6.28112,-0.27915l-0.83749,-3.88026v0c2.9405,0.29776 5.14586,0.44664 6.61612,0.44664c0.83747,0 1.25622,-0.41873 1.25622,-1.2562v-8.84924h-13.65096v18.0614h17.08463l2.45663,2.12158c-1.32136,6.42057 -3.40576,11.94787 -6.2532,16.58185c2.23328,2.71712 5.09933,5.22952 8.59815,7.53722l-2.56827,3.93609c-3.40576,-2.45656 -6.2346,-5.07132 -8.4865,-7.84428c-2.08438,2.81018 -4.72712,5.49938 -7.92816,8.06761l-2.73578,-3.60111c2.92189,-1.95408 5.61113,-4.57816 8.06775,-7.87219c-3.23827,-4.96897 -5.49016,-10.04031 -6.7557,-15.214h-1.47954v26.57564h-4.29908v-52.11839z" fill="none" fill-rule="evenodd" stroke="#ffffff" stroke-width="1" stroke-linecap="butt" stroke-linejoin="round"/><path d="M74.79685,96.69435v69.98359c0,9.4008 -1.85695,16.19025 -5.57082,20.36837c-4.64235,5.22266 -11.35442,7.83399 -20.13619,7.83399c-10.67741,0 -18.74349,-5.66755 -24.19825,-17.00265l6.78944,-6.67339c4.06206,9.20734 9.74893,13.81101 17.06064,13.81101c5.76425,0 9.90368,-1.99235 12.41829,-5.97705c1.74088,-2.78541 2.61132,-7.13763 2.61132,-13.05663v-69.28725z" fill="#ffffff" fill-rule="evenodd" stroke="#ffffff" stroke-width="4.5" stroke-linecap="square" stroke-linejoin="miter"/><path d="M112.80609,105.97908v40.27248h18.27925c9.55551,0 16.48035,-1.47007 20.77452,-4.41024c4.60366,-3.09491 6.9055,-8.54969 6.9055,-16.36433c0,-7.04091 -2.63067,-12.20554 -7.892,-15.49388c-4.25548,-2.66935 -10.21317,-4.00403 -17.87305,-4.00403zM133.98682,96.69435c9.59418,0 17.42815,1.62483 23.5019,4.87448c2.94015,1.58614 5.41607,3.65586 7.42776,6.20916c3.9073,4.91317 5.86096,10.75481 5.86096,17.52491c0,20.07822 -12.47632,30.11732 -37.42895,30.11732h-20.5424v37.5451h-11.02558v-96.27098z" fill="#ffffff" fill-rule="evenodd" stroke="#ffffff" stroke-width="4.5" stroke-linecap="square" stroke-linejoin="miter"/><path d="M251.67038,96.69435v9.51685h-51.82023v32.20638h46.24941v9.28472h-46.24941v35.51407h53.38702v9.74896h-64.18048v-96.27098z" fill="#ffffff" fill-rule="evenodd" stroke="#ffffff" stroke-width="4.5" stroke-linecap="square" stroke-linejoin="miter"/><path d="M312.31108,104.23819c-7.273,0 -13.71428,2.16643 -19.32379,6.49931c-9.59417,7.42777 -14.39127,18.8209 -14.39127,34.17938c0,9.24604 1.91497,17.23477 5.7449,23.9662c2.8628,5.10659 6.63468,9.11063 11.31574,12.01211c5.02922,3.13359 10.67741,4.70038 16.94459,4.70038c6.11242,0 11.41242,-1.43139 15.90003,-4.29417l-1.45074,-0.9865c-9.12994,-6.42194 -16.77049,-11.43182 -22.9216,-15.02965l5.80295,-7.02158c8.89785,5.45479 17.38947,11.16102 25.4749,17.11872c6.96353,-7.35042 10.44528,-17.48624 10.44528,-30.40747c0,-8.47231 -1.56677,-15.90009 -4.70036,-22.28334c-2.43723,-4.95185 -5.68689,-8.97523 -9.74896,-12.07013c-5.53213,-4.2555 -11.89599,-6.38325 -19.09166,-6.38325zM312.31108,94.83741c13.73362,0 24.87526,4.99054 33.42491,14.97162c7.93071,9.3234 11.89603,20.968 11.89603,34.93377c0,15.12635 -4.64233,27.52533 -13.92703,37.19693c5.06787,3.90732 10.32922,7.42777 15.78397,10.56136l-6.38321,8.0661c-5.10659,-3.13359 -10.77413,-7.25368 -17.00262,-12.36029c-6.84747,4.44894 -14.85552,6.6734 -24.02415,6.6734c-10.56135,0 -19.73001,-3.05623 -27.50593,-9.16867c-6.92485,-5.49346 -11.87668,-12.82453 -14.85553,-21.99318c-1.85694,-5.80296 -2.78541,-12.08949 -2.78541,-18.85959c0,-13.65629 3.75257,-25.08811 11.2577,-34.29545c8.54965,-10.484 19.92342,-15.726 34.12127,-15.726z" fill="#ffffff" fill-rule="evenodd" stroke="#ffffff" stroke-width="4.5" stroke-linecap="square" stroke-linejoin="miter"/><path d="M74.79685,96.69435v69.98359c0,9.4008 -1.85695,16.19025 -5.57082,20.36837c-4.64235,5.22266 -11.35442,7.83399 -20.13619,7.83399c-10.67741,0 -18.74349,-5.66755 -24.19825,-17.00265l6.78944,-6.67339c4.06206,9.20734 9.74893,13.81101 17.06064,13.81101c5.76425,0 9.90368,-1.99235 12.41829,-5.97705c1.74088,-2.78541 2.61132,-7.13763 2.61132,-13.05663v-69.28725z" fill="none" fill-rule="evenodd" stroke="#ffffff" stroke-width="4.5" stroke-linecap="butt" stroke-linejoin="round"/><path d="M112.80609,105.97908v40.27248h18.27925c9.55551,0 16.48035,-1.47007 20.77452,-4.41024c4.60366,-3.09491 6.9055,-8.54969 6.9055,-16.36433c0,-7.04091 -2.63067,-12.20554 -7.892,-15.49388c-4.25548,-2.66935 -10.21317,-4.00403 -17.87305,-4.00403zM133.98682,96.69435c9.59418,0 17.42815,1.62483 23.5019,4.87448c2.94015,1.58614 5.41607,3.65586 7.42776,6.20916c3.9073,4.91317 5.86096,10.75481 5.86096,17.52491c0,20.07822 -12.47632,30.11732 -37.42895,30.11732h-20.5424v37.5451h-11.02558v-96.27098z" fill="none" fill-rule="evenodd" stroke="#ffffff" stroke-width="4.5" stroke-linecap="butt" stroke-linejoin="round"/><path d="M251.67038,96.69435v9.51685h-51.82023v32.20638h46.24941v9.28472h-46.24941v35.51407h53.38702v9.74896h-64.18048v-96.27098z" fill="none" fill-rule="evenodd" stroke="#ffffff" stroke-width="4.5" stroke-linecap="butt" stroke-linejoin="round"/><path d="M312.31108,104.23819c-7.273,0 -13.71428,2.16643 -19.32379,6.49931c-9.59417,7.42777 -14.39127,18.8209 -14.39127,34.17938c0,9.24604 1.91497,17.23477 5.7449,23.9662c2.8628,5.10659 6.63468,9.11063 11.31574,12.01211c5.02922,3.13359 10.67741,4.70038 16.94459,4.70038c6.11242,0 11.41242,-1.43139 15.90003,-4.29417l-1.45074,-0.9865c-9.12994,-6.42194 -16.77049,-11.43182 -22.9216,-15.02965l5.80295,-7.02158c8.89785,5.45479 17.38947,11.16102 25.4749,17.11872c6.96353,-7.35042 10.44528,-17.48624 10.44528,-30.40747c0,-8.47231 -1.56677,-15.90009 -4.70036,-22.28334c-2.43723,-4.95185 -5.68689,-8.97523 -9.74896,-12.07013c-5.53213,-4.2555 -11.89599,-6.38325 -19.09166,-6.38325zM312.31108,94.83741c13.73362,0 24.87526,4.99054 33.42491,14.97162c7.93071,9.3234 11.89603,20.968 11.89603,34.93377c0,15.12635 -4.64233,27.52533 -13.92703,37.19693c5.06787,3.90732 10.32922,7.42777 15.78397,10.56136l-6.38321,8.0661c-5.10659,-3.13359 -10.77413,-7.25368 -17.00262,-12.36029c-6.84747,4.44894 -14.85552,6.6734 -24.02415,6.6734c-10.56135,0 -19.73001,-3.05623 -27.50593,-9.16867c-6.92485,-5.49346 -11.87668,-12.82453 -14.85553,-21.99318c-1.85694,-5.80296 -2.78541,-12.08949 -2.78541,-18.85959c0,-13.65629 3.75257,-25.08811 11.2577,-34.29545c8.54965,-10.484 19.92342,-15.726 34.12127,-15.726z" fill="none" fill-rule="evenodd" stroke="#ffffff" stroke-width="4.5" stroke-linecap="butt" stroke-linejoin="round"/><path d="M17.66484,201.0208h360.46451v4.11032h-360.46451z" fill="#ffffff" fill-rule="evenodd" stroke="none" stroke-width="1" stroke-linecap="square" stroke-linejoin="miter"/><path d="M17.66484,201.0208h360.46451v4.11032h-360.46451z" fill="none" fill-rule="evenodd" stroke="#ffffff" stroke-width="1" stroke-linecap="butt" stroke-linejoin="round"/><path d="M374.28533,203.90464l8.99782,-28.80676l3.92034,1.22618l-8.99778,28.80676z" fill="#ffffff" fill-rule="evenodd" stroke="none" stroke-width="1" stroke-linecap="square" stroke-linejoin="miter"/><path d="M374.28533,203.90464l8.99782,-28.80676l3.92034,1.22618l-8.99778,28.80676z" fill="none" fill-rule="evenodd" stroke="#ffffff" stroke-width="1" stroke-linecap="butt" stroke-linejoin="round"/><path d="M387.44978,174.03941l12.34824,56.6464l-4.00672,0.88078l-12.34821,-56.6464z" fill="#ffffff" fill-rule="evenodd" stroke="none" stroke-width="1" stroke-linecap="square" stroke-linejoin="miter"/><path d="M387.44978,174.03941l12.34824,56.6464l-4.00672,0.88078l-12.34821,-56.6464z" fill="none" fill-rule="evenodd" stroke="#ffffff" stroke-width="1" stroke-linecap="butt" stroke-linejoin="round"/><path d="M395.89457,229.51113l12.52093,-40.06696l3.92034,1.22618l-12.52093,40.06696z" fill="#ffffff" fill-rule="evenodd" stroke="none" stroke-width="1" stroke-linecap="square" stroke-linejoin="miter"/><path d="M395.89457,229.51113l12.52093,-40.06696l3.92034,1.22618l-12.52093,40.06696z" fill="none" fill-rule="evenodd" stroke="#ffffff" stroke-width="1" stroke-linecap="butt" stroke-linejoin="round"/><path d="M413.31889,204.65759l-4.85294,-15.50868l3.92034,-1.22618l4.85294,15.50867z" fill="#ffffff" fill-rule="evenodd" stroke="none" stroke-width="1" stroke-linecap="square" stroke-linejoin="miter"/><path d="M413.31889,204.65759l-4.85294,-15.50868l3.92034,-1.22618l4.85294,15.50867z" fill="none" fill-rule="evenodd" stroke="#ffffff" stroke-width="1" stroke-linecap="butt" stroke-linejoin="round"/><path d="M413.57991,200.74735h48.8057v4.11032h-48.8057z" fill="#ffffff" fill-rule="evenodd" stroke="none" stroke-width="1" stroke-linecap="square" stroke-linejoin="miter"/><path d="M413.57991,200.74735h48.8057v4.11032h-48.8057z" fill="none" fill-rule="evenodd" stroke="#ffffff" stroke-width="1" stroke-linecap="butt" stroke-linejoin="round"/><text transform="translate(254.60001,231.18744) scale(0.54971,0.54971)" font-size="40" xml:space="preserve" fill="#ffffff" fill-rule="nonzero" stroke="none" stroke-width="1" stroke-linecap="butt" stroke-linejoin="miter" font-family="&quot;BIZ UDPGothic&quot;, Sans Serif" font-weight="normal" text-anchor="start"><tspan x="0" dy="0">V1.25</tspan></text></g></g></svg>