<svg version="1.1" xmlns="http://www.w3.org/2000/svg" xmlns:xlink="http://www.w3.org/1999/xlink" width="13.61821" height="13.76279" viewBox="0,0,13.61821,13.76279"><g transform="translate(-294.56247,-119.24707)"><g fill="#ff0000" fill-rule="evenodd" stroke="#ffffff" stroke-width="0" stroke-linecap="round" stroke-linejoin="round" stroke-miterlimit="10"><path d="M296.3326,119.26465l0.14201,0.19807l0.13703,0.01869l0.24416,-0.07475l0.27778,0.28776l-0.06104,0.08346l0.13953,0.21177l0.13703,0.35628l-0.07225,0.05606l0.09841,0.16569l0.08969,-0.00997l0.21924,-0.22049l0.2043,-0.10838l0.08846,0.076l0.35379,0.11087l0.16195,-0.21302l0.23918,0.02367l0.22673,0.1009l0.06478,0.12707l0.18935,0.07847l0.35752,-0.05481l0.16319,0.08846l0.16818,-0.01993l0.01743,0.15696l0.14201,-0.01495l0.19433,0.13827l0.32139,-0.07724l0.13205,0.00623l0.41483,0.09592l0.20554,0.09342l0.19932,0.14201l0.23543,0.07349l0.2155,-0.01743l0.14077,-0.05979l0.05979,0.11336h0.16194l0.11834,-0.16443l0.00374,-0.16195l0.10215,-0.09094l-0.13453,-0.15697l0.06602,-0.22172l-0.05729,-0.24915l0.11585,-0.30894l0.29524,-0.12583l0.22797,0.13329l0.19309,-0.01121l0.23295,-0.13453l0.1445,0.03114l0.25787,-0.04983l0.12831,0.07225l0.07724,0.14077l0.11087,0.147l0.5531,-0.07474l0.24666,0.03238l0.04359,0.25661l0.04982,0.08346l0.35005,0.20554l0.25039,-0.01869l0.21054,0.15945l0.12208,0.03612l0.05729,0.10463l0.16569,0.12707l0.1009,0.16817l0.19807,0.23543l0.14326,0.1009l0.09716,0.19185l0.18187,0.0573l0.04983,-0.07973l0.17191,0.16569l0.2043,0.11585l0.07225,-0.06976l0.36874,-0.04734l0.03737,0.19807l-0.04733,0.07724l0.27281,0.10214l0.05606,0.09218l-0.05979,0.09592l-0.27156,0.07847l-0.34506,-0.09964l-0.08346,0.08969l-0.15945,0.04485l-0.01495,0.09342l-0.12332,0.11834l0.01245,0.21801l-0.08346,0.06104l-0.01619,0.30647l0.07847,0.05107l-0.00996,0.19185l0.06727,0.11585l0.01245,0.23669l0.35877,0.04983l-0.14575,0.25911l0.19683,0.4385l-0.33385,0.29897l-0.12831,0.02367l-0.04484,0.13081l-0.2915,-0.14575l-0.09218,0.08097l-0.27032,-0.08097l-0.147,0.13951l-0.21177,-0.2342l-0.1881,-0.02865l-0.06853,0.11336l-0.12083,0.04111l-0.07475,0.11087l-0.30644,-0.03489l-0.07475,0.13453l-0.09716,0.04982l-0.07599,-0.09218l-0.23295,0.08846l0.03612,0.21801l-0.09592,0.16443l-0.20679,0.16817l-0.15322,-0.01619l-0.03863,0.14202l-0.20181,-0.04485l-0.22174,-0.10713l-0.18935,0.11709l-0.18437,0.04359l0.11212,0.10838l0.0299,0.20181l-0.04983,0.15945l0.09592,0.06478l-0.02367,0.16569l0.03737,0.11834l0.16817,0.07973l0.04111,0.11087l-0.05357,0.15198l0.10465,0.19433l0.31392,-0.05108l0.31143,0.16195l-0.01869,0.08346l0.22298,0.22298l-0.03239,0.27281l0.01993,0.12955l-0.12955,0.06354l-0.10837,0.1445l0.01121,0.20055l0.15322,0.3052l-0.11833,0.31269l0.0274,0.07599l0.21177,0.14824l0.06727,0.1582l0.01993,0.40236l-0.06104,0.1744l0.08097,0.17067l-0.03737,0.2342l-0.28527,0.21426l-0.00248,0.1308l-0.19059,0.16569l0.06229,0.23669l0.10215,0.11709l-0.11585,0.09218l-0.0598,0.15696l0.05856,0.25661l-0.00248,0.16693l-0.21177,-0.03114l-0.00746,0.18312l-0.06478,0.29025l-0.12583,0.05979l0.02118,0.12332l-0.16693,0.06229l0.07349,-0.1881l-0.00872,-0.10465l-0.20928,-0.05231l-0.05357,-0.16569l-0.19683,0.04359l-0.08222,-0.16443l-0.22797,-0.07973l-0.22921,0.08846l-0.22298,-0.26161l-0.12707,0.06853l-0.04484,0.22547l0.01869,0.18187l-0.24042,-0.06603l-0.06727,0.07847l-0.13329,-0.01245l-0.16444,0.36499l0.01745,0.13205l-0.2753,0.09964l-0.03362,0.13579l-0.20804,-0.01371l-0.10589,-0.13329l-0.01495,-0.20181l-0.31269,-0.24042l-0.16817,0.09716l-0.35877,-0.19932l0.01495,-0.37371l-0.12456,0.02367l-0.33759,-0.28527l0.02492,-0.10713l0.19433,0.03612l0.12208,-0.07847l0.20679,-0.26035l-0.01495,-0.1495l-0.07599,-0.19059l-0.19557,-0.04734l-0.19683,0.04485l-0.07101,-0.10963l-0.13205,-0.04609l-0.21054,0.12707l-0.16567,-0.07101l-0.17316,0.04359l-0.05108,0.07349l-0.13703,-0.02118l-0.03612,-0.08846l-0.16569,-0.01495l-0.14575,0.09094l-0.11834,-0.02242l-0.13453,0.06229l-0.28403,-0.47213l-0.17813,-0.06976l-0.28028,-0.17316l-0.05357,0.07475l-0.12458,-0.18064l-0.21426,0.00124l-0.21801,-0.05729l-0.14077,-0.16693l-0.29524,-0.147l-0.04485,-0.11585l-0.16195,-0.10091l-0.37496,0.00125l-0.147,0.09342l-0.10713,0.00248l0.01371,-0.17565l-0.13453,-0.32638l0.00623,-0.17565l0.17937,-0.12955l0.01495,-0.09592l0.13453,-0.15572l0.06602,-0.19059l-0.03238,-0.09218l0.14575,-0.16443l-0.07225,-0.17439l0.06229,-0.12333l-0.05481,-0.09592l-0.26286,-0.08846l-0.08596,0.05357l-0.23793,-0.11709l0.03737,-0.17316l0.09094,-0.19309l-0.09094,-0.14823l0.17565,-0.09841l-0.25288,-0.26036l0.19682,-0.19184l0.10465,-0.24541l0.15322,0.01371l0.02615,-0.09218l0.24416,-0.09468l-0.1308,-0.1856l-0.11087,0.02118l-0.12208,-0.09841l-0.17316,-0.04859l0.03489,-0.10837l-0.05606,-0.14077l0.09218,-0.16443l0.21302,-0.05357l0.01371,-0.18686l-0.14326,-0.04983l-0.10339,-0.17565l-0.1495,-0.04112l-0.13703,-0.10465l-0.35005,-0.17813l-0.00623,-0.38493l-0.29524,-0.04982l0.04485,-0.17191l-0.05357,-0.05107l0.07101,-0.24168l0.13205,-0.02242l-0.07475,-0.22174l-0.18312,-0.06229l-0.00125,-0.19059l-0.15945,-0.14575l0.04236,-0.23918l-0.16817,-0.01743l-0.15322,-0.10465l0.1308,-0.20928l-0.06851,-0.16693l0.28527,-0.06851l0.04983,-0.10215l0.00623,-0.20305l-0.10713,-0.17938l0.15572,-0.26409l0.08222,-0.02367l0.25413,-0.19807l0.0299,-0.10465l-0.06478,-0.22921l0.11336,-0.07847l0.02367,-0.23295l0.14823,-0.04734l0.05979,-0.23794l-0.02367,-0.17316l-0.12831,-0.09841l0.01495,-0.20804l0.12333,0.00746l0.17439,-0.08595l0.12458,-0.2778l0.13703,-0.04983l0.0897,-0.21177l0.15945,0.01743"></path></g></g></svg>