<svg version="1.1" xmlns="http://www.w3.org/2000/svg" xmlns:xlink="http://www.w3.org/1999/xlink" width="6.65222" height="6.71209" viewBox="0,0,6.65222,6.71209"><g transform="translate(-172.77792,-200.70361)"><g fill="#ff0000" stroke="#ffffff" stroke-width="0" stroke-linecap="round" stroke-linejoin="round" stroke-miterlimit="10"><path d="M174.80026,201.13672l0.13158,0.07993l0.08362,0.21889l0.15126,0.0541l0.03566,0.15249l0.09223,0.00984l0.30006,0.28283l0.08608,-0.0209l0.11314,0.1365l0.04304,0.24964l0.13035,0.06395l0.30373,-0.0332l0.14757,-0.07132l0.25085,-0.01598l0.08238,0.12173l0.13158,0.10207l-0.14141,0.21274l-0.19676,0.2447l-0.22504,0.08854l-0.05902,0.09592l-0.17831,0.11191l0.02459,0.11068l-0.11806,0.11805l0.22135,0.43655l-0.17462,0.03075l-0.08117,-0.11928l-0.08116,0.01106l0.00246,0.18446l-0.08854,0.15618l0.01476,0.17831l0.35907,0.34554l-0.04304,0.12789l0.10453,0.16233l0.14879,0.03812l0.20905,-0.08609l0.10822,0.02828l0.1365,-0.08854l0.07379,-0.23611l0.09223,-0.10206l0.3935,0.04795l0.02214,-0.07501l0.1943,-0.04919l0.13281,-0.26563l0.17955,-0.0541l0.08485,0.07132l0.13281,-0.01844l0.13773,-0.29512l0.10821,-0.08239l0.21028,0.08239l0.091,-0.07379l0.08608,0.07993l-0.03812,0.13035l0.22381,0.11436l0.08854,0.10453l0.18692,-0.04919l0.08485,0.04182l0.08239,0.08731l0.03689,0.15863l-0.04182,0.09346l-0.18938,0.14511l-0.10084,-0.06518l0.01352,0.32587l-0.09223,0.06887l0.01353,0.18692l-0.09592,0.04303l-0.03935,0.19182l-0.07993,0.09346l-0.13404,0.02214l-0.0209,0.10207l-0.11805,0.21397l-0.02951,0.15495l-0.12544,0.07255l-0.0332,0.13404l0.05657,0.07379l0.20782,0.0246l0.14141,-0.08116l0.10576,0.0332l0.17585,-0.05533l0.18692,0.06518l-0.05287,0.13773l-0.13158,0.08977l0.03689,0.06518l-0.02951,0.16356l-0.18815,0.19059l-0.19922,-0.01967l-0.15987,0.1033l-0.14265,0.19922l-0.32095,0.16971l-0.19553,-0.01107l-0.04795,-0.11559l-0.17337,0.06395l0.01721,-0.13895l0.12666,-0.11682l-0.1242,-0.04673l-0.03689,0.14388l-0.10698,0.05902l-0.07132,-0.091l0.12911,-0.07132l-0.11682,-0.07501l-0.08854,0.0787l-0.31605,0.08238l-0.0787,0.11191l-0.08731,-0.15863l-0.16724,-0.19676l0.06395,-0.22504l-0.02828,-0.23365l-0.17708,-0.13527l0.05411,-0.11928l-0.35907,-0.00123l-0.22748,-0.40458l-0.08485,-0.07009l-0.1574,0.02706l-0.22627,-0.08977l-0.21151,-0.03689l0.00368,-0.11929l-0.1365,-0.10084l-0.1033,0.1697l0.02337,0.09715l-0.10945,0.06518l-0.08238,0.11928l0.08116,0.09715l-0.18444,0.25331l-0.09223,0.04919l-0.04673,0.15863l-0.2152,0.17954l-0.23611,0.15372l-0.29635,0.27913l-0.11805,0.00492l-0.17585,-0.17339l0.08116,-0.28776l-0.10084,-0.20782l0.0123,-0.1242l0.0787,-0.14757l0.00246,-0.13158l-0.15618,-0.08116l0.13896,-0.30744l-0.04919,-0.23486l-0.18815,-0.13404l-0.16601,-0.05533l-0.0086,-0.15249l-0.10822,-0.08731l0.00246,-0.11928l-0.13404,-0.07993l0.04182,-0.15372l0.02214,-0.33571l0.16601,-0.07132l0.1365,0.10822l0.13527,-0.08977l-0.03074,-0.11559l0.11068,-0.1574l0.07993,-0.00984l0.12173,-0.15002l0.08486,-0.30619l-0.02337,-0.28899l-0.17708,-0.07993l0.07132,-0.14265l-0.00492,-0.22012l-0.26069,-0.22381l-0.0541,-0.17462l-0.18323,-0.14264l-0.17462,-0.17831l0.08486,-0.11682l0.13404,-0.04673l-0.01352,-0.10453l0.09592,-0.09837l0.0123,-0.25825l-0.0332,-0.21643l0.11682,-0.09838l0.00738,-0.14511l0.07378,-0.02582l0.07132,0.12052l0.08977,0.0123l0.15003,0.16109l0.0455,-0.1365l0.17831,-0.01106l0.38243,-0.16233l0.12544,0.07747l0.15002,0.19061" fill-rule="evenodd"></path><path d="M172.89352,201.18567l-0.1156,-0.14389l0.22874,-0.05287l0.16725,-0.17094l-0.03813,-0.11436l0.16233,0.15003l-0.03566,0.1525l-0.24718,0.01352l-0.12174,0.16602" fill-rule="nonzero"></path></g></g></svg>