<svg version="1.1" xmlns="http://www.w3.org/2000/svg" xmlns:xlink="http://www.w3.org/1999/xlink" width="14.72738" height="9.92158" viewBox="0,0,14.72738,9.92158"><g transform="translate(-244.68645,-187.67735)"><g fill="#ff0000" stroke="#ffffff" stroke-width="0" stroke-miterlimit="10"><g fill-rule="evenodd" stroke-linecap="round" stroke-linejoin="round"><path d=""></path><path d=""></path></g><g><path d="" fill-rule="nonzero" stroke-linecap="butt" stroke-linejoin="miter"></path><path d="" fill-rule="nonzero" stroke-linecap="butt" stroke-linejoin="miter"></path><path d="" fill-rule="nonzero" stroke-linecap="butt" stroke-linejoin="miter"></path><path d="" fill-rule="nonzero" stroke-linecap="butt" stroke-linejoin="miter"></path><path d="" fill-rule="nonzero" stroke-linecap="butt" stroke-linejoin="miter"></path><path d="" fill-rule="nonzero" stroke-linecap="butt" stroke-linejoin="miter"></path><path d="" fill-rule="nonzero" stroke-linecap="butt" stroke-linejoin="miter"></path><path d="" fill-rule="nonzero" stroke-linecap="butt" stroke-linejoin="miter"></path><path d="" fill-rule="nonzero" stroke-linecap="butt" stroke-linejoin="miter"></path><path d="" fill-rule="nonzero" stroke-linecap="butt" stroke-linejoin="miter"></path><path d="" fill-rule="nonzero" stroke-linecap="butt" stroke-linejoin="miter"></path><path d="" fill-rule="nonzero" stroke-linecap="butt" stroke-linejoin="miter"></path><path d="" fill-rule="nonzero" stroke-linecap="butt" stroke-linejoin="miter"></path><path d="" fill-rule="nonzero" stroke-linecap="butt" stroke-linejoin="miter"></path><path d="" fill-rule="nonzero" stroke-linecap="butt" stroke-linejoin="miter"></path><path d="" fill-rule="nonzero" stroke-linecap="butt" stroke-linejoin="miter"></path><path d="" fill-rule="evenodd" stroke-linecap="round" stroke-linejoin="round"></path><path d="" fill-rule="evenodd" stroke-linecap="round" stroke-linejoin="round"></path><path d="" fill-rule="evenodd" stroke-linecap="round" stroke-linejoin="round"></path><path d="" fill-rule="evenodd" stroke-linecap="round" stroke-linejoin="round"></path><path d="" fill-rule="evenodd" stroke-linecap="round" stroke-linejoin="round"></path><path d="" fill-rule="evenodd" stroke-linecap="round" stroke-linejoin="round"></path><path d="" fill-rule="evenodd" stroke-linecap="round" stroke-linejoin="round"></path></g><g><path d="" fill-rule="nonzero" stroke-linecap="butt" stroke-linejoin="miter"></path><path d="" fill-rule="evenodd" stroke-linecap="round" stroke-linejoin="round"></path></g><g fill-rule="evenodd" stroke-linecap="round" stroke-linejoin="round"><g><path d="M244.82521,191.34211l0.19452,0.09168l-0.14124,0.21929l-0.19204,-0.06691l0.03346,-0.21929l0.13628,-0.11274l0.11399,0.02106l-0.14495,0.06689"></path></g><g><path d="M246.68367,190.83414l-0.01115,-0.34319h0.25894l0.10037,0.28992l-0.26142,0.06319l-0.08673,-0.00991"></path><path d="M246.65888,191.04476l0.15735,-0.07309v0.14495l-0.12018,0.18213l-0.1462,-0.11522l0.10902,-0.13876"></path><path d="M247.3527,190.48723l0.06195,-0.19699l0.09788,-0.13504l0.0508,0.02229l-0.08921,0.28001l-0.12142,0.02973"></path><path d="M247.09251,190.61113l-0.07558,-0.15362l0.13256,-0.06442l0.07806,0.01115l-0.03718,0.17346l-0.09788,0.03346"></path><path d="M249.53328,195.28203l0.16974,0.08549l-0.05575,0.11522l-0.11399,-0.20072"></path></g><g><path d="M259.29635,188.03407l-0.08549,0.12762l-0.09788,0.25647l-0.13134,0.04831l0.0892,0.12513l0.0954,0.00247l0.09168,0.09788l-0.05204,0.14744l0.0954,0.09912l-0.08796,0.05947l-0.19824,0.25646l-0.10655,0.06071l0.04956,0.30974l-0.10284,0.16726l-0.20071,-0.02849l-0.01362,0.29487l-0.08921,0.08549l-0.34939,0.23912l-0.14248,0.24531l-0.14248,0.07806l-0.00991,0.11646l-0.12142,0.14992l-0.07062,0.21187l0.08796,0.13753l-0.1016,0.1462l0.09168,0.18955l-0.13876,0.01239l-0.25522,0.39399l-0.06071,-0.04336l-0.13753,0.05575l-0.10532,0.16973l0.02229,0.11895l-0.07186,0.10037l0.01115,0.1016l-0.09293,0.11275l0.01115,0.1747l-0.0954,0.11399l-0.21434,0.15362l-0.23291,0.04336l-0.02849,0.20195l-0.1016,0.13753l-0.27011,-0.03222l-0.17593,0.04089l-0.15115,0.11522l-0.18461,0.01239l-0.07558,0.07682l-0.22054,0.06939l0.02106,0.12018l-0.18214,0.1747l0.09167,0.15115l-0.01858,0.22425l-0.13505,0.06939l-0.06566,0.11275l0.00867,0.27381l-0.04089,0.1016l0.08053,0.14124l0.02478,0.31098l0.05823,0.04213l0.05575,0.22054l-0.08426,0.42745l-0.61454,0.11151l-0.88215,0.21063l-0.68515,0.19576l-0.84622,0.29487l-0.23044,0.10407l-0.18832,0.04089l-0.337,0.11522l-0.19204,0.09044l-0.26267,0.10037l-0.31717,0.04584l-0.28002,-0.05452l-0.32584,0.07309l-0.36674,0.10655l-0.09416,-0.03098l-0.1623,0.03717l0.11399,-0.18214l0.0384,-0.1747l0.14371,-0.27381l0.21806,-0.49559l0.10779,-0.12018l0.16479,-0.00867l0.10655,0.08549l-0.00992,0.09541l0.15488,0.06195l0.00124,0.11274l0.21559,0.05327l0.2131,-0.09912l0.08301,-0.19328l0.32832,-0.03718l0.20195,-0.18957l0.14495,0.00371l0.10532,-0.13628l0.21434,0.03469l0.07309,-0.05327l0.04336,-0.14371l-0.00373,-0.15736l0.15859,-0.10655l0.20071,0.11026l0.06442,-0.14744l-0.06442,-0.10902l0.28621,-0.22674l0.19948,0.04336v0.51666l-0.12142,0.0384l0.03221,0.14744l0.18214,0.00124l0.09167,-0.10779l-0.09044,-0.20442l0.00124,-0.33948l0.26142,-0.00124l-0.11646,-0.12266l0.00991,-0.57984l0.12266,-0.14l-0.27877,0.02602l-0.06442,-0.2131l0.15239,-0.05204l-0.06071,-0.12514l-0.11769,-0.08176l-0.10407,0.08426l-0.16602,-0.04584l-0.12142,0.04213l-0.20319,-0.01735l-0.11522,-0.09787l-0.26019,-0.06691l-0.16355,0.2131l-0.13753,-0.12637l-0.06815,0.09416l-0.07682,0.36548l0.03098,0.07433l-0.14248,0.15115l-0.05451,-0.07062l0.05327,-0.13381l-0.11646,-0.12637l0.01859,-0.08053l0.0062,-0.43116l0.36177,-0.05452l-0.09788,-0.11522l0.07806,-0.13134l-0.06194,-0.10158l0.15486,-0.1239l0.02354,-0.13256l0.2255,-0.07433l0.38779,0.1338l-0.00867,-0.12142l0.14991,-0.24161l0.12639,0.05947l0.16106,-0.01487l0.14868,0.06938l0.11522,-0.09167l0.28248,-0.11026l0.17841,-0.10779l0.02602,0.10037l0.10902,0.08797l0.20195,-0.11646l0.06319,0.08426l0.14495,0.06938l0.13009,-0.16232l-0.00992,-0.12142l0.21187,-0.11895l-0.04584,-0.20442l-0.07309,-0.06319l0.01735,-0.21929l-0.13009,-0.14001l0.00496,-0.11769l-0.13256,-0.1016l0.10407,-0.14867l-0.19452,-0.19699l0.11151,-0.09167l0.04584,-0.1623l0.1276,-0.10283l0.11028,0.04336l0.11149,-0.02849l0.00496,-0.18461l0.12018,-0.10035l-0.06566,-0.10902l0.01858,-0.22054l0.1016,-0.15362l0.06691,-0.02106v-0.19451l-0.14495,-0.15983l-0.05204,-0.26267l0.1623,-0.08673l0.06442,-0.14495l-0.0384,-0.16355l0.15736,-0.04584l0.13504,-0.11522l0.08177,-0.13753l-0.15611,-0.15115l0.26019,-0.29487l0.04708,-0.21434l0.19204,-0.02725l-0.03098,0.16355l0.15486,-0.00867l0.07929,0.10902l0.23292,-0.18584l0.35806,0.03469l0.10654,0.0384l0.07309,-0.07062l-0.02973,-0.12514l0.15859,-0.01362l0.14371,-0.1016l0.29363,-0.08797l0.22054,0.04336l0.11399,-0.13628l0.00124,-0.13256l0.17345,-0.00867l0.16602,-0.11895l0.07309,0.06691l0.23044,-0.04708l0.07433,0.07558l0.12886,-0.02602l0.00247,0.1276l0.1623,-0.00867l0.09663,0.05823l0.21187,-0.02849l0.09416,0.03469l-0.00373,0.17593l0.14125,0.06195l0.05451,-0.04833l0.20938,0.00496l0.26142,-0.15239l0.20567,0.04833l-0.1177,0.01362"></path><path d="M252.97762,195.26964l-0.13133,-0.02849l0.07682,-0.20443l0.05575,0.00124l-0.00124,0.23168"></path></g></g></g></g></svg>