<svg version="1.1" xmlns="http://www.w3.org/2000/svg" xmlns:xlink="http://www.w3.org/1999/xlink" width="26.82715" height="55.83107" viewBox="0,0,26.82715,55.83107"><g transform="translate(-226.58642,-152.08446)"><g fill-rule="evenodd" stroke-miterlimit="10"><path d="M239.88884,156.80957c-1.75781,0 -3.21913,0.7942 -4.38395,2.38258c-1.31307,1.82135 -1.9696,4.25687 -1.9696,7.30658c0,2.7532 0.58239,4.98753 1.74721,6.70299c0.97421,1.41896 2.14962,2.53083 3.52623,3.33561c0.66396,0.38227 1.05074,0.57341 1.16039,0.57341c0.00579,0 0.01076,-0.00053 0.01502,-0.00158c1.94842,-0.76243 3.48387,-2.03314 4.6063,-3.81212c1.24954,-1.99078 1.87432,-4.27805 1.87432,-6.86183c0,-2.4567 -0.48712,-4.56396 -1.46133,-6.32177c-1.22836,-2.20256 -2.93321,-3.30384 -5.1146,-3.30384zM239.69823,181.23895c0,0 -0.02118,0.01059 -0.06354,0.03177c-4.68043,2.16021 -7.02066,6.06764 -7.02066,11.72229c0,2.41435 0.44473,4.45807 1.33425,6.13117c1.33422,2.41435 3.31441,3.62153 5.94055,3.62153c2.54143,0 4.50044,-1.20718 5.87702,-3.62153c1.03774,-1.80017 1.55663,-3.92861 1.55663,-6.38531c0,-2.28728 -0.54007,-4.37335 -1.62017,-6.25824c-1.16482,-2.01195 -2.55199,-3.4415 -4.16157,-4.28865c-0.7836,-0.42357 -1.19656,-0.64594 -1.23892,-0.66712c-0.29651,-0.1906 -0.49771,-0.28591 -0.6036,-0.28591zM239.88884,152.58447c3.70622,0 6.69241,1.41896 8.95848,4.25688c1.9696,2.49906 2.95442,5.59112 2.95442,9.27617c0,3.81212 -0.86834,6.81947 -2.60497,9.02203c-1.44015,1.84253 -2.93321,3.10264 -4.47926,3.78036v0.1906c5.46405,2.71085 8.19607,7.32776 8.19607,13.85072c0,3.60034 -0.84713,6.63946 -2.5414,9.11733c-2.39318,3.55799 -5.87702,5.33698 -10.45158,5.33698c-4.48984,0 -7.889,-1.62016 -10.19743,-4.86047c-1.75783,-2.47788 -2.63674,-5.59111 -2.63674,-9.3397c0,-6.31119 2.58379,-10.81161 7.75134,-13.50128v-0.28591c-1.99077,-1.20717 -3.61095,-2.88028 -4.86048,-5.0193c-1.27068,-2.16021 -1.90606,-4.77575 -1.90606,-7.84662c0,-3.66388 0.93185,-6.77711 2.79558,-9.3397c2.24489,-3.09206 5.25226,-4.63809 9.02202,-4.63809z" fill="#ffffff" stroke="none" stroke-linecap="square" stroke-linejoin="miter"></path><path d="M239.88884,156.80957c-1.75781,0 -3.21913,0.7942 -4.38395,2.38258c-1.31307,1.82135 -1.9696,4.25687 -1.9696,7.30658c0,2.7532 0.58239,4.98753 1.74721,6.70299c0.97421,1.41896 2.14962,2.53083 3.52623,3.33561c0.66396,0.38227 1.05074,0.57341 1.16039,0.57341c0.00579,0 0.01076,-0.00053 0.01502,-0.00158c1.94842,-0.76243 3.48387,-2.03314 4.6063,-3.81212c1.24954,-1.99078 1.87432,-4.27805 1.87432,-6.86183c0,-2.4567 -0.48712,-4.56396 -1.46133,-6.32177c-1.22836,-2.20256 -2.93321,-3.30384 -5.1146,-3.30384zM239.69823,181.23895c0,0 -0.02118,0.01059 -0.06354,0.03177c-4.68043,2.16021 -7.02066,6.06764 -7.02066,11.72229c0,2.41435 0.44473,4.45807 1.33425,6.13117c1.33422,2.41435 3.31441,3.62153 5.94055,3.62153c2.54143,0 4.50044,-1.20718 5.87702,-3.62153c1.03774,-1.80017 1.55663,-3.92861 1.55663,-6.38531c0,-2.28728 -0.54007,-4.37335 -1.62017,-6.25824c-1.16482,-2.01195 -2.55199,-3.4415 -4.16157,-4.28865c-0.7836,-0.42357 -1.19656,-0.64594 -1.23892,-0.66712c-0.29651,-0.1906 -0.49771,-0.28591 -0.6036,-0.28591zM239.88884,152.58447c3.70622,0 6.69241,1.41896 8.95848,4.25688c1.9696,2.49906 2.95442,5.59112 2.95442,9.27617c0,3.81212 -0.86834,6.81947 -2.60497,9.02203c-1.44015,1.84253 -2.93321,3.10264 -4.47926,3.78036v0.1906c5.46405,2.71085 8.19607,7.32776 8.19607,13.85072c0,3.60034 -0.84713,6.63946 -2.5414,9.11733c-2.39318,3.55799 -5.87702,5.33698 -10.45158,5.33698c-4.48984,0 -7.889,-1.62016 -10.19743,-4.86047c-1.75783,-2.47788 -2.63674,-5.59111 -2.63674,-9.3397c0,-6.31119 2.58379,-10.81161 7.75134,-13.50128v-0.28591c-1.99077,-1.20717 -3.61095,-2.88028 -4.86048,-5.0193c-1.27068,-2.16021 -1.90606,-4.77575 -1.90606,-7.84662c0,-3.66388 0.93185,-6.77711 2.79558,-9.3397c2.24489,-3.09206 5.25226,-4.63809 9.02202,-4.63809z" fill="none" stroke="#ffffff" stroke-linecap="butt" stroke-linejoin="round"></path></g></g></svg>