<svg version="1.1" xmlns="http://www.w3.org/2000/svg" xmlns:xlink="http://www.w3.org/1999/xlink" width="10.35569" height="15.42579" viewBox="0,0,10.35569,15.42579"><g transform="translate(-297.03772,-93.84317)"><g fill="#ff0000" fill-rule="evenodd" stroke="#ffffff" stroke-width="0" stroke-linecap="round" stroke-linejoin="round" stroke-miterlimit="10"><path d="M303.78203,94.54951l0.06977,0.22673l-0.09342,0.51074l-0.06478,0.88571l-0.01869,0.58175l0.02615,0.08595l0.00747,0.84461l0.04859,0.08596l0.01745,0.38991l0.06727,0.78356l0.11087,0.85208l0.1308,0.88072l0.13827,0.77734l0.09966,0.27904l0.147,0.64777l0.22048,0.6129l0.05606,0.19807l0.07101,0.06354l0.08222,0.27281l0.1196,0.06727l-0.05606,0.13081h0.15696l0.03489,0.22673l0.15198,0.06727l0.11461,0.15198l0.1283,0.03987l0.2342,-0.0573l0.1582,-0.20305l0.12332,0.00248l0.14701,0.33884l0.25911,0.13579l0.03114,0.12456l0.25537,0.20554l0.02492,0.15696l0.14326,0.11461l0.05107,0.11461l0.13329,0.06727l0.07599,0.12083l0.20804,0.13827l-0.10589,0.06354l-0.05357,0.1495l-0.21801,0.15696l-0.06602,-0.00997l-0.19682,0.13081l-0.14824,-0.00872l-0.08472,0.0872l-0.218,0.05481l-0.17316,0.22423l0.00248,0.40237l-0.218,0.20055l-0.09841,0.00499l-0.21177,0.21676l-0.29648,-0.0897l-0.09964,-0.15446l-0.33262,-0.21551l-0.17937,-0.02118l-0.14701,0.07225l-0.1582,-0.04983l-0.17689,0.18064l-0.25413,0.1283l-0.11834,-0.16693l-0.09592,0.2342l-0.09468,0.1283l-0.3625,0.23171l-0.05854,-0.12582l-0.17938,-0.11335l0.04111,-0.15198l-0.1607,-0.24416l-0.10589,-0.04361l-0.06851,0.09342l-0.14326,0.01619l-0.0872,0.12955l0.00499,0.10215l-0.21426,0.11461l-0.1582,-0.07972l-0.02865,0.12456l-0.14575,0.01495l-0.20679,0.21052l-0.06851,0.00248l-0.09593,0.16195l-0.26035,0.16817l-0.32015,-0.03364l-0.22174,0.13703l-0.19683,0.01494l-0.04983,0.09342l-0.18062,0.07847l-0.25039,0.15945l0.12831,0.31267l-0.07475,0.0872l-0.17316,0.0573l-0.17191,-0.00747l-0.20554,0.2342l-0.16693,0.01869l-0.24541,0.17316l-0.05481,0.10215l-0.2043,0.03862l-0.18187,-0.07847l-0.14077,0.05108l-0.13329,-0.14077l-0.04983,-0.1881l-0.12831,-0.12831l-0.11709,-0.17067l0.08846,-0.2155l-0.00499,-0.26409l-0.10465,-0.1445l0.16942,-0.16693l0.01619,-0.24666l0.12083,-0.25911l-0.07101,-0.15073l0.22797,0.05481l0.1744,-0.19433l-0.04983,-0.19807l0.04734,-0.04609l-0.13205,-0.29897l0.03612,-0.16195l-0.07349,-0.1196l0.04734,-0.35254l-0.16195,-0.05979l-0.26035,0.07474l-0.11585,-0.06354l-0.11212,0.14575l-0.17191,-0.09841l-0.33136,0.06354v-0.0897l0.18935,-0.06603l0.09094,-0.1881l-0.1171,-0.34257l0.17439,0.00374l-0.03612,0.2043l0.24416,0.0897l0.0872,-0.1607l-0.03612,-0.35254l-0.0897,-0.06478l-0.21177,-0.34631l-0.24541,0.00498l-0.22921,0.07225l0.02367,-0.18686l-0.24168,-0.48209l-0.11585,-0.08597l0.13329,-0.15198l0.0573,-0.32513l-0.00499,-0.18312l-0.09218,-0.05232l0.05108,-0.15073l-0.05856,-0.10215l0.05729,-0.09592l0.17191,-0.06976l-0.00623,-0.1632l0.09342,-0.19185l-0.09218,-0.18064l0.13205,-0.10837l0.22298,-0.01869l0.20181,0.14575l0.22298,0.04111l0.20055,-0.06727l0.05856,-0.30022l0.10589,-0.14575l0.03489,-0.31516l0.07349,-0.076l-0.08597,-0.12954l-0.20928,-0.21178l-0.29897,-0.04734l-0.03612,-0.08346l-0.20554,-0.04111l-0.10713,-0.15073l0.11585,-0.3077l0.12208,-0.07599l0.23917,0.03612l0.17316,-0.09966l0.09592,-0.11834l-0.03737,-0.1196l0.21801,-0.19185l0.06229,-0.23918l0.19308,-0.1445l0.25661,-0.07972l0.04236,-0.1009l-0.02492,-0.18437l0.26534,-0.05357l0.08471,-0.19059l-0.0573,-0.21302l0.06727,-0.20055l0.37122,-0.147l0.09094,-0.00248l0.23918,0.22547l0.35877,-0.00248l0.20804,-0.10963l0.34881,-0.39364l0.15945,-0.24168l0.16444,-0.31891l0.21054,-0.51572l0.11585,-0.38119l0.10463,-0.50077l0.06727,-0.65774l-0.00872,-0.35627l0.06354,-0.09966l-0.00872,-0.25413l0.10465,-0.26409l0.21676,-0.2342l0.04983,-0.26285l0.11585,-0.10215l0.31143,0.08596l0.15446,-0.03987l0.05605,0.30645l0.07973,0.20057l-0.10837,0.11087l0.12208,0.13205l0.15696,0.03862l0.26035,-0.09342l0.11212,-0.21054l0.22797,-0.12582l-0.03736,0.30146M302.9748,98.8647l-0.15696,0.08596l-0.09593,0.26658l-0.12083,0.16443l-0.00747,0.17316l0.1495,0.51572l0.0897,0.09218l0.01745,0.16817l0.10589,0.16817l-0.12583,0.07225l-0.33758,-0.03612l-0.15447,0.1582l0.07349,0.20679l0.17316,0.1856l0.10713,0.01619l0.19557,-0.1445l0.12955,-0.02492l0.18312,0.10589l0.15322,-0.24914l0.01495,-0.33136l-0.05606,-0.31267l-0.07724,-0.05108l-0.01245,-0.42853l0.13953,-0.19807l0.11461,-0.33012l-0.14575,-0.14201l-0.2155,0.03736l-0.13703,-0.16942l-0.00374,0.00125"></path></g></g></svg>