<svg version="1.1" xmlns="http://www.w3.org/2000/svg" xmlns:xlink="http://www.w3.org/1999/xlink" width="10.1593" height="10.14007" viewBox="0,0,10.1593,10.14007"><g transform="translate(-304.31689,-37.83704)"><g fill="#ff0000" fill-rule="evenodd" stroke="#ffffff" stroke-width="0" stroke-linecap="round" stroke-linejoin="round" stroke-miterlimit="10"><path d="M314.47612,38.79604l-0.05917,0.13735l0.0578,0.22405l-0.04817,0.12702l-0.01514,0.38384l-0.25322,0.28888l0.13626,0.49667l0.10459,0.17094l-0.17891,0.25983l0.12524,0.14725l-0.0867,0.06497l0.02202,0.26616l-0.10459,0.23562l-0.14863,0.17973l-0.03302,0.18648l-0.15963,0.00523l-0.12387,-0.12372l-0.12523,0.03592l-0.20919,-0.03936l-0.13487,0.23988l-0.25322,-0.08244l-0.25736,-0.02862l-0.24496,0.308l0.00413,0.37599l-0.16102,0.09413l-0.25185,0.03413l-0.08532,0.21496l-0.13763,0.04129l0.05917,0.14892l-0.10734,0.1796l0.25598,0.47205l-0.05643,0.13584l-0.24909,0.09386l-0.15827,0.19171l-0.00551,0.18772l-0.10597,0.20396l0.00276,0.22502l-0.39498,0.08492l0.00963,0.19638l-0.23258,-0.04293l-0.2257,0.14931l0.12798,0.20933l-0.03029,0.27483l-0.24084,0.2052l-0.2202,0.11395l0.06468,0.15592l-0.11284,0.38357l-0.08532,-0.03579l-0.17617,-0.26202l-0.09496,-0.26149l-0.30276,-0.18799l-0.11835,0.05946l-0.16513,-0.07348l-0.05367,0.19872l0.13348,0.55283l-0.15413,0.19859l-0.40461,-0.25543l-0.23258,0.06675l-0.2023,-0.06978l-0.20643,0.14271l-0.03302,0.18359l-0.11835,-0.04417l-0.45691,0.31489l-0.19818,0.20025l-0.2835,0.11244l-0.18165,0.02271l-0.07431,0.14162l-0.1968,0.07872l-0.16653,0.1496l-0.03715,0.135l-0.14588,-0.0673l-0.15552,-0.24372l-0.41149,-0.05807l-0.09772,-0.12991l-0.19818,-0.01031l-0.07707,-0.1485l0.03028,-0.14382l-0.12248,-0.214l-0.1624,0.00344l-0.30139,0.19019l-0.46655,-0.18813l0.18716,-0.33044l0.14725,-0.12648l0.11835,-0.30593l0.02202,-0.26576l0.13763,-0.20092l0.23121,-0.18497l0.16102,-0.04349l0.31929,-0.22707l0.17341,-0.05367l0.15552,-0.13405l0.12248,0.0512l0.37433,-0.06001l0.22295,-0.36209l0.13075,-0.07101l0.24772,0.13474l0.12661,-0.16501l0.2147,0.01362l0.0399,-0.13198l0.23671,-0.11381l0.08119,-0.17754l0.12799,-0.04556l0.26837,-0.57499l0.13625,-0.12495l0.09084,-0.41824l0.06881,-0.14987l0.09772,-0.39057l0.07294,-0.50577l0.12523,-0.20726l0.03303,-0.28735l-0.00276,-1.05296l-0.03028,-0.42526l-0.0922,-0.80317l0.00963,-0.22984l0.06056,-0.13996l-0.02891,-0.90626l0.15276,-0.08477l0.25874,-0.02849l0.16513,0.17464l0.13349,-0.00537l0.27937,0.36236l-0.08257,0.27855l0.10597,0.09096l0.25185,0.08422l0.3248,0.41617l0.08395,0.39471l-0.10183,0.17574l0.20368,0.26493l0.37709,0.14355l0.1679,-0.16391l-0.00827,-0.16501l0.21193,-0.17905l0.36609,0.124l0.07018,0.07611l0.2491,0.03206l0.30139,-0.15l0.0578,-0.15607l0.4225,0.10404l0.07294,-0.16955l-0.05643,-0.41149l0.1156,-0.01405l0.17341,0.09649l0.25874,-0.13184l0.20919,0.07872l0.26561,-0.13005l0.16239,0.08903l0.19404,-0.18979l0.10459,-0.24469l0.28075,0.08368"></path></g></g></svg>