<svg version="1.1" xmlns="http://www.w3.org/2000/svg" xmlns:xlink="http://www.w3.org/1999/xlink" width="9.83861" height="7.96506" viewBox="0,0,9.83861,7.96506"><g transform="translate(-306.88904,-41.0324)"><g fill="#ff0000" fill-rule="evenodd" stroke="none" stroke-width="0.4" stroke-linecap="round" stroke-linejoin="round" stroke-miterlimit="10"><path d="M315.48077,43.76561l-0.0055,0.1233l0.17891,0.1251l-0.03853,0.32877l0.17753,0.11478l0.21745,0.04293h0.31653l0.13075,0.2052l-0.16102,0.34929l0.29451,0.49834l0.1101,0.06647l0.02615,0.173l-0.16651,0.06537l-0.08119,0.14863l0.06605,0.21951l-0.09909,0.03963l-0.30828,0.36732l-0.01927,0.16473l0.0523,0.22351l-0.05781,0.06151l-0.26974,0.0117l-0.03303,0.1873l0.12524,0.1006l-0.05092,0.32713l-0.00964,0.4836l0.23397,0.36167l0.06881,0.24731l0.12248,-0.0973l0.40599,-0.11644l-0.03165,0.2162l-0.16377,0.02272l-0.16102,0.13102l-0.54223,-0.109l-0.31377,0.03372l-0.2601,-0.08285l-0.24496,0.09949l-0.14175,-0.19473l-0.17478,-0.03302l-0.34956,0.31557l-0.15827,0.00977l-0.11834,-0.08918l-0.29865,0.01128l-0.20506,-0.11987l-0.0578,-0.13721l-0.34818,-0.19405l-0.14588,-0.1562l-0.29728,-0.10529l-0.21469,0.06812l-0.10597,0.12908l-0.13899,-0.29038l-0.1569,-0.0662v-0.13322l0.19956,-0.07171l0.01514,-0.18511l-0.24359,-0.38136l-0.11973,0.0505l-0.2023,-0.06014l-0.37021,0.02794l-0.40049,0.20466l-0.32066,-0.15332l-0.12248,-0.11628l-0.21469,-0.10225l-0.14175,0.00716l-0.24634,-0.12441l-0.3124,-0.0128l-0.2725,-0.07418l-0.01651,-0.12318l-0.29865,0.15565l-0.1445,0.02229l-0.34818,-0.06371l-0.15552,0.01445l-0.54774,0.24539l-0.21469,0.02808l-0.18855,0.27993l-0.20368,0.10074l-0.31791,-0.10996l0.18165,-0.02271l0.2835,-0.11244l0.19818,-0.20025l0.45691,-0.31489l0.11835,0.04417l0.03302,-0.18358l0.20643,-0.14272l0.2023,0.06978l0.23258,-0.06675l0.40461,0.25543l0.15413,-0.19858l-0.13348,-0.55283l0.05367,-0.19873l0.16514,0.07348l0.11834,-0.05946l0.30278,0.18799l0.09496,0.26149l0.17617,0.26204l0.08532,0.03578l0.11284,-0.38354l-0.06468,-0.15594l0.2202,-0.11395l0.24084,-0.2052l0.03029,-0.27483l-0.12798,-0.20932l0.22571,-0.14932l0.23258,0.04293l-0.00964,-0.19638l0.39498,-0.08492l-0.00276,-0.22501l0.10597,-0.20396l0.00551,-0.18772l0.15827,-0.19171l0.2491,-0.09386l0.05643,-0.13585l-0.25599,-0.47205l0.10736,-0.1796l-0.05917,-0.14892l0.13763,-0.04129l0.08532,-0.21497l0.25185,-0.03413l0.16102,-0.09413l-0.00413,-0.37599l0.24496,-0.308l0.25736,0.02861l0.25322,0.08244l0.13487,-0.23988l0.20919,0.03936l0.12524,-0.03592l0.12387,0.12372l0.15964,-0.00524l0.03303,-0.18648l0.14863,-0.17973l0.10459,-0.23562l-0.02202,-0.26617l0.0867,-0.06497l0.39772,0.06937l0.04267,0.10033l-0.13074,0.19281l0.03302,0.28061l0.15276,0.33043l0.03441,0.21566l0.11146,0.16955l-0.10184,0.22832l0.13487,0.1796l0.10459,0.42306l0.23534,0.28461l0.13211,0.25873"></path></g></g></svg>