<svg version="1.1" xmlns="http://www.w3.org/2000/svg" xmlns:xlink="http://www.w3.org/1999/xlink" width="6.3782" height="6.80564" viewBox="0,0,6.3782,6.80564"><g transform="translate(-210.93324,-197.8021)"><g fill="#ff0000" stroke="#ffffff" stroke-width="0" stroke-linecap="round" stroke-linejoin="round" stroke-miterlimit="10"><path d="M217.2334,203.7318l-0.10779,0.057l-0.06938,0.11646l-0.08426,0.01239l-0.10655,-0.14867l-0.13009,0.05204l-0.1016,-0.02229l-0.34072,-0.29364l-0.12266,0.01239l-0.04833,0.17097l-0.19699,-0.01115l-0.17222,-0.06071l-0.07806,0.09663l-0.09788,0.00744l-0.09912,-0.13257l-0.18584,0.03966l-0.04708,-0.06939l-0.1623,-0.03718l-0.15983,0.07309l-0.33205,-0.01734l-0.20195,0.10779l-0.11399,0.01238l-0.27257,-0.05947l-0.18584,0.1239l-0.15362,0.0446l-0.12886,0.18957l0.04956,0.26637l-0.21063,0.22921l-0.34444,0.06319l-0.15983,-0.10035l-0.13256,0.1276l-0.11769,0.02602l-0.14248,-0.0954l-0.17097,-0.17346l-0.08053,-0.1623l-0.06195,0.00247l-0.04584,-0.27628l0.05823,-0.0446l0.02602,-0.1623l-0.05452,-0.12513l0.02602,-0.11275l-0.10284,-0.03098l-0.05204,-0.32461l-0.10532,-0.10532l-0.23788,-0.35187l0.1016,-0.27257l-0.1177,-0.08797l-0.16602,0.04336l-0.32956,-0.13133l-0.01362,-0.24035l-0.05204,-0.18955l-0.16355,-0.22674l0.06319,-0.07433l0.23294,-0.06072l0.05327,-0.10902l-0.23169,-0.34939l0.00744,-0.22797l-0.08301,-0.10284l-0.01487,-0.18461l0.19328,0.21187l0.05204,-0.08053l0.1462,0.04956l0.05452,0.18957l0.20938,-0.02973l0.12886,0.09293l0.58232,0.12637l0.11646,-0.04708l0.16107,0.06938l0.22796,0.01239l0.08177,-0.04584l0.06689,-0.14371l0.01982,-0.32956l0.19204,0.18955l0.09293,0.19699l0.06566,-0.00867l-0.05204,-0.25275l0.15362,-0.14744l-0.02725,-0.14868l0.12018,-0.06442l0.28745,0.1685l0.04833,0.1685l-0.07682,0.20938l0.03345,0.14248l-0.05204,0.17593l0.05452,0.18088l0.17222,0.09541l0.05204,-0.12018l0.08426,-0.01982l0.02354,-0.18708l0.22054,0.04213l0.10779,-0.09912l-0.11274,-0.25399l0.15239,0.07186l0.02106,0.18461l0.16973,0.15735l0.10902,-0.01735l0.11522,-0.1685l0.09044,0.09416l0.09167,0.39399l-0.16726,0.11522l-0.057,0.11151l0.11151,0.25276l0.08301,0.06442l0.11522,-0.0954l0.10902,0.15239l0.19328,0.07433l0.12142,-0.06691l0.21807,0.19452l0.28868,0.19576l0.1239,-0.0161l0.09912,0.06442l0.14992,-0.06691l0.16353,-0.01734l0.10532,0.20071l0.16726,0.09788l-0.06566,0.057l0.0384,0.12142l0.22797,0.17841l0.14744,0.04956l-0.02725,0.27505l-0.10779,0.09167l0.057,0.2069" fill-rule="evenodd"></path><path d="M216.25462,198.19361l0.06319,0.14744l-0.05823,0.07309l0.01238,0.18708l-0.11275,0.16973l0.04956,0.11523l-0.10532,0.07186l0.13381,0.15486l-0.05204,0.24779l-0.17345,0.20815l0.06195,0.14248l-0.08797,0.04089l-0.04089,-0.16107l-0.12886,-0.18337l-0.18832,0.00373l-0.14992,0.16478l-0.0954,-0.08301l0.06566,-0.15115l0.13505,0.03966l0.08176,-0.04833l0.11522,0.04956l-0.00867,-0.16973l-0.07186,-0.09788l-0.21682,0.02478l-0.31098,0.12018l-0.09912,0.20195l0.03718,0.07062l-0.14,0.16107l-0.14867,0.3531l-0.10158,-0.00124l-0.08053,-0.14248l0.1747,-0.11274l-0.05204,-0.17097l0.09293,-0.21682l-0.10532,-0.27133l-0.06319,-0.06319l-0.12762,0.09541l-0.07433,-0.10902l-0.2193,-0.04833l-0.15982,0.13753l-0.12886,0.02973l-0.03469,0.13256l-0.20567,0.05204l-0.09911,-0.17222l0.01238,-0.09044l0.25771,-0.31841l-0.00496,-0.28248l0.06691,-0.11275l0.10037,0.13009l0.16355,-0.04584l0.21062,-0.00496l0.18957,-0.1276l0.07186,0.03717l0.32832,-0.24284l0.07806,-0.13381l0.12639,0.06691l0.27628,0.01362l0.1177,-0.03717l0.12513,-0.14868l0.17717,-0.07309l0.21929,-0.01364l0.01362,0.2069l-0.03346,0.15363l0.12143,0.03098" fill-rule="evenodd"></path><path d="M216.34514,198.34111l-0.05824,0.07312l0.01239,0.18709l-0.11275,0.16974l0.04957,0.11523l-0.10532,0.07186l0.13381,0.15488l-0.05205,0.2478l-0.17346,0.20816l0.06195,0.14248l-0.08797,0.04089l-0.04089,-0.16107l-0.12886,-0.18338l-0.18834,0.00373l-0.14992,0.16479l-0.0954,-0.08301l0.06566,-0.15116l0.13504,0.03964l0.08177,-0.04833l0.11523,0.04957l-0.00867,-0.16974l-0.07186,-0.09789l-0.21683,0.02478l-0.20692,0.10284l-0.10407,0.01734l-0.09912,0.20195l0.03717,0.07062l-0.14001,0.16107l-0.057,0.17593l0.057,0.04337l-0.14868,0.13381l-0.1016,-0.00124l-0.08053,-0.14249l0.1747,-0.11275l-0.05204,-0.17099l0.09293,-0.21683l-0.10532,-0.27134l-0.06319,-0.06319l-0.12762,0.0954l-0.07433,-0.10903l-0.2193,-0.04831l-0.15983,0.13753l-0.12886,0.02973l-0.03469,0.13257l-0.20569,0.05204l-0.09912,-0.17223l0.01239,-0.09044l0.25773,-0.31843l-0.00496,-0.28249l0.06691,-0.11275l0.10037,0.1301l0.16356,-0.04584l0.21063,-0.00496l0.18957,-0.12762l0.07186,0.03718l0.32833,-0.24285l0.07806,-0.13381l0.12639,0.06691l0.27629,0.01362l0.1177,-0.03717l0.12514,-0.14868l0.17718,-0.07312l0.2193,-0.01364l0.01362,0.20693l-0.03346,0.15362l0.12143,0.03098l0.06319,0.14744" fill-rule="nonzero"></path></g></g></svg>