<svg version="1.1" xmlns="http://www.w3.org/2000/svg" xmlns:xlink="http://www.w3.org/1999/xlink" width="8.60789" height="12.15455" viewBox="0,0,8.60789,12.15455"><g transform="translate(-244.94401,-152.2427)"><g fill="#ff0000" fill-rule="evenodd" stroke="#ffffff" stroke-width="0" stroke-linecap="round" stroke-linejoin="round" stroke-miterlimit="10"><path d="M246.09259,161.46975l-0.03489,-0.10465l0.09094,-0.1009l0.05232,-0.38119l-0.04236,-0.07972l0.02865,-0.19683l-0.08472,-0.09094l-0.23793,-0.11087l0.03987,-0.26909l-0.09592,-0.05107l-0.21302,-0.39489l-0.04236,-0.33884l0.13703,-0.27654l-0.04859,-0.28651l0.02367,-0.30521l-0.10837,-0.1445l-0.20928,-0.06603l-0.08097,0.1445l-0.26409,0.00248l-0.05856,-0.12582l0.0872,-0.29898l-0.01371,-0.28153l0.08596,-0.17813l-0.02616,-0.17938l0.17191,-0.12332l0.13827,-0.24914l-0.05856,-0.10713l0.03362,-0.12208l0.11087,-0.03862l0.11087,-0.12083l0.16195,-0.36998l0.01371,-0.13827l-0.12582,-0.1009l0.03364,-0.15945l-0.07349,-0.24168l0.04609,-0.12083l0.17938,-0.19932l0.16942,-0.08097l0.03862,-0.29399l0.20679,-0.01743l0.25911,-0.17316h0.11212l0.10713,-0.15198l0.23669,-0.05107l0.21426,-0.18437l0.39739,-0.07225l0.42853,0.1769h0.1283l0.53193,-0.27905l0.09218,-0.00498l0.13951,-0.12582l0.38866,-0.18437l0.15572,0.00248l0.20055,-0.18312l0.34507,-0.1769l0.15945,-0.17439l0.11212,-0.18686l0.13205,-0.02118l0.07474,-0.10837l0.41109,-0.18935l0.35129,-0.05979l0.09466,0.05107l0.27406,-0.10837l0.17316,-0.03612l0.12831,-0.13205l0.23543,-0.04609l0.22547,-0.17439l0.14701,-0.03489l0.29275,0.11335l0.34382,-0.05231l0.0299,0.15945l0.16443,0.04112l0.11335,0.23171l-0.13578,0.23794l0.0872,0.21426l0.12831,0.1308l0.03736,0.22049l-0.14325,0.11709l-0.21551,0.06354l-0.25163,0.02492l-0.1582,-0.08097l-0.3077,0.05357l-0.21551,0.12707l-0.06602,0.0897l-0.09342,0.28527l0.01121,0.1607l-0.09094,0.11336l0.02742,0.29275l0.11335,0.27032l0.15322,-0.01371l-0.02742,0.26408l0.06229,0.19932l-0.15945,0.12208l-0.05232,0.1582l-0.22298,0.12582l-0.19308,0.05856l-0.06104,-0.09218l-0.16942,0.05729l-0.32389,-0.07101l-0.20305,-0.01122l-0.32513,0.19807l-0.12831,0.03114l-0.11212,0.12083l-0.10589,0.02865l-0.05856,0.23794l-0.1009,0.22673l-0.10339,0.05854l-0.12208,0.21924l0.01743,0.21054l-0.11461,0.08097l-0.38243,0.17191l-0.03986,0.21676l-0.09592,-0.01121l-0.1582,0.07972l-0.18312,-0.25039l-0.12955,-0.06229l-0.12083,0.04236l-0.09716,-0.0573l-0.22423,-0.35503l-0.27281,0.12083l-0.03612,0.22797l-0.1308,0.09466l-0.07101,0.21676l-0.24291,0.31767l-0.12332,0.37746l0.31765,0.05481l-0.05481,0.13453l-0.04359,0.25163l-0.23171,-0.02492l-0.07847,0.04609l-0.02367,0.21924l0.04111,0.11461l-0.11834,0.15073l0.01245,0.07101l0.16443,0.08097l0.17565,0.03114l0.1196,-0.05107l0.10837,-0.12083l0.00499,-0.1495l0.12707,-0.02865l0.1445,0.07599l0.15073,0.27904l0.2753,0.01121l-0.08471,0.15696l0.21177,0.16071l0.14326,-0.01993l0.05357,-0.12831l0.17316,-0.15198l0.13205,-0.37122l0.10465,-0.17316l0.26408,-0.1009l0.11336,0.01993l0.01371,0.22797l-0.0299,0.147l0.05108,0.11212l-0.11087,0.58175l0.07101,0.27156l-0.06354,0.147l0.01371,0.12332l0.08222,0.12583l-0.06478,0.12955l0.01993,0.16195l0.07847,0.13205l-0.06104,0.13453l-0.1744,-0.12456l-0.41607,0.08846l-0.09094,-0.07973l-0.12955,-0.00997l-0.06354,0.24666l-0.09716,0.11087l-0.24541,-0.18187l-0.32888,0.12954l-0.15696,0.26783l-0.24168,0.0897l-0.20679,0.28651l-0.01371,0.10589l0.09592,0.22299l-0.03239,0.1308l-0.147,0.21924l-0.10963,0.03736l0.01121,0.27158l-0.08597,0.04733l0.04485,0.16693l-0.14077,0.25288l0.06603,0.2753l-0.04484,0.1333l-0.08846,0.08222l0.09716,0.19932l-0.07475,0.19932l-0.13827,-0.10963l-0.00747,-0.16693l-0.20055,0.08471l-0.14077,-0.09716l-0.19557,-0.00623l-0.11461,-0.07724l-0.05357,-0.11212l-0.3351,0.03114l-0.01371,-0.10589l-0.3052,0.0274l0.24042,-0.57926l0.11212,-0.33884l0.09716,-0.38493l0.09094,-0.45593l-0.00872,-0.19557l-0.21801,-0.24666l0.06354,-0.09218l0.08846,-0.10215"></path><path d="M249.56815,157.96927l0.15696,0.26534l-0.12831,0.1009l-0.03114,0.1034l0.11709,0.23045l-0.11086,0.09342l-0.1856,0.01371l-0.14824,0.06727l-0.11212,-0.08472l-0.14201,-0.00623l-0.19184,0.20927l-0.15945,-0.00374l-0.18312,0.11709l-0.20055,-0.35379l-0.15073,-0.05979l-0.09716,-0.15572h-0.10963l-0.05357,-0.12332l0.06104,-0.1445l0.12208,-0.03489l0.07973,0.17689l0.09841,0.05856l0.10838,-0.04609l0.28278,-0.03238l0.08222,-0.18312l0.31269,0.24541l0.17565,0.02616l0.20181,-0.12208l0.01619,-0.21054l0.15073,-0.15073l0.03862,0.00374"></path></g></g></svg>