<svg version="1.1" xmlns="http://www.w3.org/2000/svg" xmlns:xlink="http://www.w3.org/1999/xlink" width="15.97944" height="9.3322" viewBox="0,0,15.97944,9.3322"><g transform="translate(-357.45683,-48.6043)"><g fill="#ff0000" fill-rule="evenodd" stroke="#ffffff" stroke-width="0" stroke-linecap="round" stroke-linejoin="round" stroke-miterlimit="10"><path d="M358.44909,56.64437l-0.29314,0.11147l-0.28625,0.29108l-0.41287,-0.9763l0.1968,0.12964l0.12799,-0.11093l-0.03302,-0.24524l0.12387,-0.15759l0.18992,0.01844l0.1624,-0.13184l0.10459,-0.1705l-0.03715,-0.33388l-0.05917,-0.13336l0.00688,-0.08684l0.25322,0.0117l0.25048,-0.04996l0.18304,0.04197l0.42389,0.26424l-0.04679,0.12798l-0.32203,-0.13735l-0.06056,0.20713l0.01514,0.28323l0.13075,0.12895l0.18578,-0.16748l0.4349,0.11973l0.37846,0.28254l0.15276,-0.04734l0.3702,0.00591l0.20506,-0.08698l-0.19955,-0.13212l-0.2133,-0.03964l-0.03441,-0.23768l-0.11973,0.01665l-0.06056,-0.06194l0.22433,0.03757l0.36745,0.13569l0.06056,0.05794l0.44727,0.16997l0.11284,-0.01101l0.16789,0.13378l0.15964,-0.22763l0.01101,-0.12592l0.11973,-0.20534l0.15,-0.12028l-0.03441,-0.08491l0.20782,-0.07651l0.21883,-0.14079l-0.03028,-0.11657l0.1968,-0.02532l0.1913,-0.26726l0.26974,-0.28488l0.15827,-0.03455l0.17754,-0.11518l0.37709,-0.53756l0.16102,-0.02422l0.48718,0.17148l0.32341,0.01074l0.47893,-0.29741l0.06744,0.12441l0.33992,0.11367l0.30966,-0.03248l-0.01652,0.34062l-0.08808,0.14946l-0.16514,0.03399l-0.05367,0.1057l-0.41012,0.30181l-0.25048,0.01294l-0.02891,0.13501l-0.25736,-0.10983l-0.20643,0.16446l-0.16651,0.0077l-0.16927,0.15235l-0.52435,-0.02629l-0.28488,0.1134l-0.11147,0.08698l-0.05643,0.24909l-0.12524,0.25268l-0.15689,0.09496l-0.06194,-0.12455l-0.17478,0.1401l-0.12798,0.3241l-0.11835,0.72156l-0.06743,0.19253l-0.17754,0.04569l-0.04403,0.19983l0.07982,0.15951l-0.08257,0.09276l-0.23533,-0.06592l-0.05643,0.1207l0.21883,0.3014l-0.38121,0.15827l-0.02891,-0.14699l0.12387,-0.14423l-0.18304,-0.21443l-0.17341,-0.05161l-0.706,0.01817l-0.65647,0.09647l-0.35782,0.08436l-0.1445,-0.01418l-0.20643,0.0966l-0.12937,-0.26231l-0.04267,-0.29066l-0.42113,-0.1734l-0.21193,-0.28998M361.73003,56.21334l0.21331,0.34392l0.13349,-0.19213l-0.10184,-0.25695l-0.20092,-0.25983l-0.11284,0.19556l0.06881,0.16941"></path><path d="M371.23428,50.95366l-0.22845,0.32411l-0.03165,0.16955l0.16651,0.19391l-0.03853,0.15317l-0.33443,0.17424l-0.22295,0.04527l-0.3124,0.18826l-0.09772,-0.1997l-0.13074,-0.12675l-0.01377,-0.17341l-0.12524,-0.20106l-0.11423,-0.02999l-0.05506,-0.15303l-0.17065,-0.23795l-0.16377,-0.06468l0.30828,-0.17451l0.15414,-0.01115l0.19818,-0.11767l0.14175,-0.0022l0.2133,-0.15634l0.3647,0.26767l0.23946,0.04844l0.29589,-0.03785l-0.04267,0.12165"></path><path d="M369.34884,53.06892l-0.19818,0.25336l-0.30139,-0.16129l0.21194,-0.15799l-0.00276,-0.08739l0.17753,-0.09812l0.04954,0.12702l0.18028,-0.06647l0.24222,-0.0238l-0.05917,-0.17712l0.22434,-0.21042l0.11011,0.31199l-0.18028,0.01569l-0.11423,0.21057l-0.33992,0.064"></path><path d="M367.53221,52.451l0.09772,-0.1595l0.10734,0.00537l-0.12248,0.29232l0.13487,0.13089l0.07845,0.21524l-0.22845,0.00757l-0.18442,-0.07267l-0.2601,0.06275l-0.00688,-0.25089l-0.05506,-0.19626l-0.23808,-0.16983l0.12248,-0.11754l0.14038,0.25736l0.26149,0.03839l0.15276,-0.04322"></path><path d="M373.43626,49.24851l-0.33855,-0.01788l-0.18028,-0.08987l-0.14863,0.04789l-0.19955,-0.15703l0.22707,-0.20052l0.02615,-0.2268l0.21607,0.23492l0.33305,0.01569l-0.03028,0.19515l0.09496,0.19845"></path><path d="M362.85303,57.0201l-0.00137,-0.14148l0.14038,-0.12786l0.15689,0.19639l-0.17617,0.12345l-0.11973,-0.0505"></path></g></g></svg>