<svg version="1.1" xmlns="http://www.w3.org/2000/svg" xmlns:xlink="http://www.w3.org/1999/xlink" width="5.04588" height="6.76586" viewBox="0,0,5.04588,6.76586"><g transform="translate(-159.50112,-211.92123)"><g fill="#ff0000" stroke="#ffffff" stroke-width="0" stroke-linecap="round" stroke-linejoin="round" stroke-miterlimit="10"><path d="M160.37706,215.03236l0.04354,0.10206l-0.0594,0.1242l0.06271,0.11314l0.21225,-0.02951l0.09248,0.15126l-0.28516,0.19061l-0.16047,0.0246l-0.15249,0.06887l-0.07981,-0.08731l0.0905,-0.10822l-0.04121,-0.35169l0.07341,-0.08363l-0.21581,-0.1943l0.01204,-0.03566l0.04833,0.05165l0.23155,0.00615l0.12752,0.0578" fill-rule="evenodd"></path><path d="M163.30254,214.0609l0.06763,0.04919l0.30496,-0.00984l0.0578,-0.08977l0.3271,0.00492l0.11191,0.07624l0.11928,-0.10084l0.10207,0.00738l0.14757,0.13404l-0.03689,0.12912l0.04303,0.10945l-0.01721,0.29268l-0.14019,0.32833l0.01476,0.1279l-0.04303,0.11805l-0.1574,0.17093l-0.02459,0.13035l0.06394,0.11436l0.01353,0.182l-0.05903,0.08239l0.02214,0.11191l-0.18692,-0.01353l-0.18815,0.21398l-0.17708,0.15863l-0.14388,0.03321l-0.14879,0.18321l-0.13158,0.03689l-0.11191,0.13035l-0.11313,0.0332l-0.12913,0.12543l-0.11191,-0.07993l-0.28651,0.03198l-0.25418,0.08731l-0.11116,0.09469l-0.02115,0.10452l-0.1172,0.09715l-0.10132,-0.03444l-0.20414,0.27422l-0.06271,0.12543l-0.11743,0.0455l-0.20992,-0.01476l-0.05226,0.11068l0.08387,0.31726l0.06369,0.01722l-0.00406,0.16601l0.07649,0.05411l-0.01316,0.16233l0.11571,-0.03812l0.1483,0.12789l-0.40186,0.10698l-0.33153,-0.0578l-0.11818,-0.1033l-0.14265,-0.02706l-0.05276,-0.0787l-0.19859,0.03074l-0.24816,-0.15126l-0.00198,-0.11436l-0.12408,-0.27791l0.07587,-0.14757l-0.03886,-0.13404l0.06801,-0.12912l-0.43458,-0.41195l-0.09382,-0.19305l-0.16601,-0.15618l0.12468,-0.41441l0.09186,-0.20291l0.17498,-0.11068l0.14769,0.12297l0.13047,0.25331l0.05423,-0.00246l0.16527,0.27053l0.13711,0.14388l0.0514,-0.20782l-0.19097,-0.04919l0.13194,-0.2816l-0.10403,-0.08116l-0.03529,-0.10206l0.21335,-0.11314l-0.04734,-0.07501l0.08694,-0.15741l-0.02164,-0.08362l0.12112,-0.07009l0.06922,-0.22627l0.08681,-0.12543l-0.0953,-0.25085l-0.05042,0.06026l-0.15643,0.0123l-0.1735,-0.12174l-0.13552,-0.00615l0.03517,-0.14141l-0.1178,-0.04427l-0.04648,-0.11928l-0.24841,-0.10698l-0.10009,-0.12174l0.08842,-0.1242l0.12702,0.06394l-0.08644,-0.25825l0.07575,-0.03444l0.07981,-0.16355l0.24816,0.09346l-0.00713,0.16109l0.13944,0.06148l-0.02989,0.19799l0.10244,0.08731l0.16502,-0.20167l0.00652,-0.09223l-0.15654,-0.23734l-0.0953,-0.09223l0.04464,-0.11068l-0.13194,-0.15495l0.04279,-0.09837l-0.02914,-0.11682l0.22234,0.06149l0.09371,-0.25946l-0.10305,-0.06887l-0.00959,-0.14141l0.31911,0.16724l0.10674,0.02706l0.0514,-0.10822l0.14203,-0.11191l0.14265,-0.00246l0.06014,0.1033l0.20278,-0.04181l-0.01377,0.1242l0.20203,0.1242l0.08375,-0.01967l0.053,0.17955l0.15039,0.08977l-0.13478,0.08238l-0.17671,0.18938l0.02053,0.12174l-0.10096,0.04673l0.12654,0.13527l0.21533,-0.15863l0.07291,0.11313l-0.13748,0.09961l0.13231,0.2066l0.18211,0.03689l0.16441,0.07993l0.3405,-0.0123l0.14388,-0.08116l-0.03443,-0.18569l0.04303,-0.06271l0.07255,0.03812l0.28529,-0.07501" fill-rule="evenodd"></path><path d="M160.59841,212.19176l0.18211,-0.27053l-0.04267,0.21151l0.06566,0.22748l-0.20512,-0.16847" fill-rule="evenodd"></path><path d="M161.1198,212.89269l-0.11559,0.11314l-0.08829,-0.22012l0.0985,-0.12174l0.0942,0.11436l0.01119,0.11436" fill-rule="evenodd"></path><path d="M159.89257,216.01648l0.14769,0.12298l0.13048,0.25334l0.05424,-0.00246l0.16528,0.27055l0.13711,0.14389l0.0514,-0.20783l-0.19097,-0.04919l0.13194,-0.28162l-0.10403,-0.08116l-0.03529,-0.10207l0.21336,-0.11314l-0.04734,-0.07501l0.08694,-0.15741l-0.02164,-0.08362l0.12112,-0.0701l0.06924,-0.22628l0.08681,-0.12543l-0.09532,-0.25088l-0.05042,0.06025l-0.15643,0.0123l-0.1735,-0.12174l-0.13552,-0.00615l0.03516,-0.14141l-0.1178,-0.04427l-0.04648,-0.11929l-0.24842,-0.10699l-0.10009,-0.12174l0.08842,-0.12421l0.12704,0.06395l-0.08646,-0.25826l0.07575,-0.03444l0.07981,-0.16356l0.24816,0.09346l-0.00713,0.1611l0.13945,0.06149l-0.02989,0.19799l0.10245,0.08731l0.16502,-0.20169l0.00652,-0.09223l-0.11154,-0.15741l-0.0637,0.06518l-0.10416,-0.07255l0.12286,-0.07256l-0.09532,-0.09223l0.04464,-0.11069l-0.13194,-0.15495l0.0428,-0.09838l-0.02914,-0.11683l0.22235,0.06149l0.09371,-0.25948l-0.10305,-0.06887l-0.00959,-0.14141l0.31912,0.16725l0.10674,0.02706l0.0514,-0.10822l0.14204,-0.11191l0.14265,-0.00246l0.06013,0.10331l0.20279,-0.04182l-0.01378,0.12421l0.20204,0.12421l0.08375,-0.01967l0.05301,0.17955l0.15039,0.08977l-0.13478,0.08239l-0.17671,0.18939l0.02053,0.12174l-0.10096,0.04673l0.12654,0.13528l0.21533,-0.15863l0.07291,0.11314l-0.13749,0.09961l0.13232,0.2066l0.18213,0.03689l0.16442,0.07993l0.34052,-0.0123l0.14389,-0.08117l-0.03444,-0.1857l0.04303,-0.06271" fill-rule="nonzero"></path><path d="M161.11864,212.89291l-0.1156,0.11314l-0.0883,-0.22013l0.0985,-0.12174l0.09419,0.11437l0.01119,0.11437" fill-rule="nonzero"></path><path d="M160.59722,212.19195l0.18213,-0.27055l-0.04267,0.21152l0.06566,0.2275l-0.20513,-0.16847" fill-rule="nonzero"></path><path d="M160.42261,215.37701l0.21226,-0.02952l0.09248,0.15126l-0.28519,0.19061l-0.16048,0.0246l-0.1525,0.06887l-0.07981,-0.08731l0.09051,-0.10822l-0.04121,-0.3517l0.07341,-0.08362l-0.21582,-0.19431l0.01205,-0.03566l0.04833,0.05165l0.23156,0.00615l0.12752,0.0578l0.04354,0.10207l-0.05941,0.1242l0.06272,0.11314" fill-rule="nonzero"></path></g></g></svg>