<svg version="1.1" xmlns="http://www.w3.org/2000/svg" xmlns:xlink="http://www.w3.org/1999/xlink" width="8.50547" height="8.78544" viewBox="0,0,8.50547,8.78544"><g transform="translate(-248.37108,-179.06153)"><g fill="#ff0000" fill-rule="evenodd" stroke="#ffffff" stroke-width="0" stroke-linecap="round" stroke-linejoin="round" stroke-miterlimit="10"><path d="M255.98832,186.85705l-0.04956,0.08053l-0.18088,0.05327l-0.27258,-0.057l-0.09044,0.21682l-0.21682,0.16602l-0.24779,0.08549l-0.17965,0.18708l-0.10779,0.00867l-0.14,0.10284l-0.09168,0.1462l-0.12142,-0.04213l-0.10035,-0.20566l-0.09788,0.08426l-0.09788,-0.1016l-0.15859,0.02229l-0.06195,-0.10035l0.02354,-0.18214l-0.28621,-0.03345l-0.22178,0.04708l-0.0508,-0.1016l0.057,-0.14001l-0.23417,-0.1016l-0.27133,-0.15362l-0.25894,0.04336l-0.10655,-0.01735l-0.14371,0.05575l-0.15859,0.25275h-0.07806l-0.23541,0.18213l-0.16479,-0.04833l-0.14,0.12514l-0.19204,-0.03964l-0.10035,-0.0954l0.00247,-0.14744l-0.13753,-0.18461l-0.24409,0.03718l-0.17593,-0.20938l-0.37912,-0.12142l-0.02602,0.13753l-0.21807,0.00496l-0.01858,-0.22178l-0.09416,0.00247l-0.10037,-0.2131l0.11028,-0.08797l-0.05947,-0.14l-0.0793,-0.0508l-0.14744,0.07062l-0.0446,-0.0793l0.04336,-0.30354l-0.05823,-0.11893l-0.13753,-0.00992l-0.07062,-0.11026l-0.32461,-0.09293l-0.03593,-0.13133l-0.09541,-0.04584l-0.08549,-0.28496l0.01362,-0.19204l-0.2639,0.05327l-0.04089,0.09664l-0.09912,0.00744l-0.03593,-0.15982l0.1177,-0.33452l0.04087,-0.33081l-0.11274,-0.07433l0.06814,-0.13504l-0.08426,-0.06939l-0.06689,-0.18708l0.02354,-0.1239l0.55258,-0.05452l0.10532,-0.18955l0.17097,-0.21187l0.16107,-0.03964l0.0892,-0.2069l0.09663,0.05575l0.08921,-0.14248l0.24903,-0.17593l-0.07309,-0.14l-0.09168,-0.06815l-0.06071,-0.13753l0.13133,-0.45594l0.33948,-0.12637l0.05947,0.09788l0.11026,-0.01362l0.09416,0.07806l0.34072,-0.05452l0.07682,-0.10407l0.29612,-0.09168l0.10779,-0.12142l0.11769,-0.04213l0.11895,-0.13134l-0.057,-0.17345l0.14495,-0.14371l0.16726,-0.06566l0.31098,0.10532l0.07433,-0.2255l0.22797,-0.13381l0.09663,0.09293l0.11399,0.01487l0.19328,-0.06442l0.02354,-0.10283l0.34814,-0.1276l0.02106,-0.09912l-0.04213,-0.36674l0.06442,-0.35681l0.12637,-0.14124l0.19948,-0.33948l0.25894,-0.08177l0.13133,0.04089l0.10037,0.35435l0.13876,-0.02849l0.15982,0.04461l0.12018,0.10035l0.08053,0.14124l0.24035,-0.04336l0.06442,0.07682l0.00867,0.19204l0.06566,0.12143l0.17841,0.16974l0.00991,0.29239l0.15736,0.14248l-0.01859,0.11769l0.27257,0.1685l0.20072,0.17717l0.1239,0.22425l-0.0892,0.19452l-0.12514,0.03593l-0.06689,0.25276l-0.07062,0.01362l-0.03964,0.15982l0.07806,0.12018l0.22548,0.23417l0.09788,-0.03717l0.23789,0.03346l0.06194,0.07806l-0.07186,0.20567l0.08053,0.057l0.04213,0.27628l0.3469,0.21062l0.05947,-0.04336l0.30107,0.37418l-0.08797,0.12637l0.06319,0.35435l-0.01487,0.15239l-0.12514,-0.00743l-0.31221,0.31841l0.27505,0.24408l0.00496,0.11399l0.07806,0.17345l0.1239,0.01859l0.02106,0.17717l-0.18957,0.11151l-0.34319,-0.02849l-0.18957,-0.09912l0.03098,0.15115l0.254,0.16726l-0.00496,0.20567l0.057,0.16973l-0.01362,0.35558l-0.13628,0.00868l-0.03593,0.10283l-0.34071,0.21434l-0.03098,0.2255l0.05452,0.08177"></path></g></g></svg>