<svg version="1.1" xmlns="http://www.w3.org/2000/svg" xmlns:xlink="http://www.w3.org/1999/xlink" width="5.11498" height="10.73065" viewBox="0,0,5.11498,10.73065"><g transform="translate(-246.18974,-161.09475)"><g fill="#ff0000" fill-rule="evenodd" stroke="#ffffff" stroke-width="0" stroke-linecap="round" stroke-linejoin="round" stroke-miterlimit="10"><path d="M249.70519,161.22061l-0.30022,0.29275l0.06229,0.25911l-0.09592,0.15447l-0.08471,0.04359l-0.19309,0.33634l-0.12208,0.16195l-0.09716,0.03114l0.07599,0.36002l0.09841,0.15446l0.26783,0.26658l0.29773,0.19931l0.15446,0.19433l0.36749,0.28153l0.17565,-0.02367l0.45593,0.1495l-0.01245,0.07225l0.24666,0.1171l0.30272,0.08097l-0.01371,0.15198l-0.15323,0.07724l-0.19308,0.04112l-0.06602,0.25039l-0.17191,-0.00997l-0.16195,0.21676l0.07474,0.2479l-0.04359,0.14326l-0.17316,0.08222l-0.09841,-0.04484l-0.15447,0.38119l-0.0897,-0.07101l-0.08846,0.22423l-0.20181,-0.04733l0.10465,0.21676l-0.10963,0.12707l-0.03489,0.13329l0.00125,0.32888l-0.1769,0.31516l-0.02866,0.22921l-0.00996,0.39862l-0.04859,0.09966l0.02492,0.29647l-0.07847,0.12208l0.27281,0.04734l0.05979,0.38243l0.06229,0.1196l0.05357,0.28651l-0.11958,0.22921l0.09218,0.1607l-0.07475,0.23295l0.02866,0.22049l-0.04859,0.07349l-0.09342,0.32139l0.14201,0.00248l0.04485,0.09592l-0.16195,0.31143l0.04112,0.24914l-0.18312,0.18686l-0.23918,0.02492l0.03612,0.10339l-0.23295,0.34382l-0.15572,-0.00374l-0.17316,0.17439l-0.22423,-0.02742l0.09094,-0.22423l0.06977,-0.36126l-0.09095,-0.05729l-0.11087,-0.31143l-0.19059,-0.15198l-0.08969,0.01122l-0.1196,-0.1009l-0.19059,-0.09094l-0.21676,0.23669l-0.09094,0.05481l-0.07847,-0.07475l-0.00623,-0.21426l-0.0897,-0.04859l-0.04609,0.21924l-0.16693,0.03238l-0.09592,-0.05482l-0.08346,0.05856l0.06478,0.21801l-0.19807,0.47462l-0.21676,-0.00248l-0.06229,-0.05357l-0.14824,0.10712l-0.04859,-0.20181l0.00872,-0.19433l-0.05481,-0.29275l0.03114,-0.06853l0.2342,-0.11087l0.00872,-0.12208l-0.07599,-0.09468l-0.06851,-0.4933l-0.20181,-0.20305l-0.09592,0.00623l-0.02118,-0.25911l0.10837,-0.00248l0.21177,-0.19308l-0.07599,-0.17316l0.11461,-0.11212l-0.03364,-0.20305l0.0872,-0.15198l-0.09592,-0.18062l0.00248,-0.22423l0.22174,-0.4223l0.05232,-0.22797l-0.18312,-0.2479l-0.14326,-0.01619l0.05482,-0.21052l-0.0872,-0.1495l0.00248,-0.13953l-0.06229,-0.20305l0.00872,-0.1856l0.19557,-0.14575l-0.00125,-0.12582l0.1769,-0.22797l0.10589,-0.33262l-0.14201,-0.06727l0.02616,-0.28028l-0.17813,-0.10589l-0.11212,-0.11834l0.1196,-0.19557l0.25413,-0.00996l0.02242,-0.1445l0.21676,-0.07972l0.07475,-0.16443l0.07475,-0.19932l-0.09716,-0.19932l0.08846,-0.08222l0.04484,-0.13329l-0.06602,-0.2753l0.14077,-0.25288l-0.04485,-0.16693l0.08597,-0.04733l-0.01121,-0.27158l0.10963,-0.03737l0.147,-0.21924l0.03238,-0.13081l-0.09592,-0.22298l0.01371,-0.10589l0.20679,-0.28651l0.24168,-0.0897l0.15696,-0.26783l0.32887,-0.12955l0.24541,0.18188l0.09716,-0.11087l0.06354,-0.24666l0.12955,0.00997l0.09094,0.07972l0.41607,-0.08846l0.1744,0.12456"></path></g></g></svg>