<svg version="1.1" xmlns="http://www.w3.org/2000/svg" xmlns:xlink="http://www.w3.org/1999/xlink" width="14.49818" height="7.26025" viewBox="0,0,14.49818,7.26025"><g transform="translate(-161.29632,-252.14481)"><g fill="#ff0000" stroke="#ffffff" stroke-width="0" stroke-linecap="round" stroke-linejoin="round" stroke-miterlimit="10"><path d="M175.55039,252.6613l0.11191,0.09592l-0.01598,0.16847l0.09961,0.03565l0.04673,0.17462l-0.13773,0.20414l0.0086,0.73168l0.06025,0.31111l-0.11314,0.0332l-0.08238,0.14388l0.01967,0.11067l-0.08977,0.06518l-0.0787,0.34432l0.10945,0.09223l-0.07132,0.15987l0.02706,0.34677l-0.091,0.14141l-0.16971,0.08608l0.01598,0.19799l-0.14265,0.26807l-0.10206,0.0787l-0.19676,0.03812l-0.05042,0.24595l-0.12543,0.09223l-0.07379,0.13404l-0.00122,0.18938l-0.20044,0.33078l0.07993,0.12052l-0.13035,0.14879l0.14879,0.17585l0.08731,0.20536l-0.10698,0.11682l0.00615,0.17585l0.11067,0.1365l-0.16478,0.15495l-0.0123,0.26563l-0.33939,-0.02706l-0.39596,0.16356l-0.14141,0.09961l-0.12052,0.18692l-0.15987,-0.04795l-0.10822,-0.18446l-0.04427,-0.14511l0.10085,-0.33078l-0.00246,-0.33693l-0.17585,-0.44638l-0.00369,-0.28283l0.22748,0.06271l0.06026,-0.06025l0.09838,-0.26563l0.16478,-0.10207l0.24226,-0.37259l0.23486,-0.44884l0.12913,-0.28283l0.10206,-0.31726l-0.04919,-0.18077l0.00738,-0.41072l-0.10084,-0.18938l0.07255,-0.24964l-0.07502,-0.10084l0.1697,-0.16847l0.23611,-0.37137l0.04795,-0.21643l0.11436,0.03197l0.07255,-0.0578l-0.05533,-0.13896l0.17093,-0.2029l0.07009,-0.21521l-0.01476,-0.14757l-0.0578,-0.08486l0.35538,-0.46483l0.00984,-0.13527l0.09837,0.0332l0.19553,-0.25454l0.06763,0.07009l0.0209,0.27176" fill-rule="evenodd"></path><path d="M162.03103,252.45225l-0.14154,0.16724l-0.19307,0.08854l-0.09492,0.00246l-0.15237,-0.07747l-0.15174,-0.19799l0.00417,-0.11191l0.12666,-0.00369l0.11547,-0.14265l0.17535,-0.03197l0.04193,0.09469l0.11375,0.03812l0.1563,0.17462" fill-rule="evenodd"></path><path d="M166.42598,252.99332l-0.09961,0.1574l-0.09961,-0.01722l-0.29758,0.05534l-0.19553,-0.01106l-0.00368,-0.17954l0.13527,-0.00246l0.07379,-0.07993l0.26315,-0.15863l0.17708,0.13281l0.04673,0.1033" fill-rule="evenodd"></path><path d="M173.14016,253.73114l-0.04427,0.14634l-0.09469,0.07747l-0.22627,-0.02214l0.04919,-0.31482l0.18815,-0.24103l0.04426,0.21151l0.08362,0.14265" fill-rule="evenodd"></path><path d="M167.90162,252.88264l-0.37014,-0.14388l0.19676,-0.13527l0.12666,0.1242l0.09838,0.01722l-0.05165,0.13773" fill-rule="evenodd"></path><path d="M161.69538,252.71231l-0.09494,0.00246l-0.15237,-0.07747l-0.15175,-0.198l0.00417,-0.11191l0.12666,-0.00369l0.11548,-0.14265l0.17536,-0.03198l0.04193,0.09469l0.11374,0.03813l0.15631,0.17463l-0.14154,0.16725l-0.19307,0.08855" fill-rule="nonzero"></path><path d="M175.64816,252.92137l0.09961,0.03566l0.04673,0.17463l-0.13773,0.20414l-0.00369,0.40212l0.0123,0.32958l0.06025,0.31113l-0.11314,0.0332l-0.08239,0.14389l0.01967,0.11068l-0.08977,0.06518l-0.07871,0.34434l0.10945,0.09223l-0.07132,0.15988l0.02705,0.34678l-0.091,0.14142l-0.16971,0.08609l0.01598,0.19799l-0.14265,0.26809l-0.10207,0.07871l-0.19676,0.03812l-0.05042,0.24596l-0.12543,0.09223l-0.07379,0.13404l-0.00123,0.18939l-0.20045,0.33081l0.07993,0.12052l-0.13035,0.14879l0.1488,0.17585l0.08731,0.20537l-0.10699,0.11683l0.00615,0.17585l0.11068,0.13651l-0.16479,0.15495l-0.0123,0.26563l-0.3394,-0.02705l-0.39597,0.16356l-0.14141,0.09961l-0.12052,0.18693l-0.15987,-0.04796l-0.10822,-0.18447l-0.04427,-0.14511l0.10084,-0.33079l-0.00246,-0.33697l-0.17585,-0.4464l-0.00368,-0.28285l0.2275,0.06271l0.06025,-0.06025l0.09838,-0.26563l0.16479,-0.10207l0.24227,-0.3726l0.23489,-0.44886l0.12913,-0.28285l0.10207,-0.31728l-0.04919,-0.18078l0.00738,-0.41073l-0.10085,-0.18939l0.07256,-0.24964l-0.07501,-0.10084l0.16971,-0.16848l0.23612,-0.37138l0.04796,-0.21644l0.11437,0.03197l0.07256,-0.0578l-0.05534,-0.13896l0.17094,-0.20291l0.0701,-0.21521l-0.01476,-0.14757l-0.0578,-0.08485l0.35539,-0.46486l0.00984,-0.13528l0.09838,0.0332l0.19554,-0.25456l0.06763,0.0701l0.02091,0.27178l0.11191,0.09592l-0.01598,0.16848" fill-rule="nonzero"></path><path d="M172.77055,253.92976l0.04919,-0.31482l0.18816,-0.24104l0.04427,0.21153l0.08362,0.14265l-0.04427,0.14634l-0.09469,0.07747l-0.22628,-0.02214" fill-rule="nonzero"></path><path d="M165.92082,253.19191l-0.19553,-0.01107l-0.00368,-0.17955l0.13528,-0.00246l0.07378,-0.07993l0.26317,-0.15863l0.17709,0.13282l0.04674,0.1033l-0.09961,0.15741l-0.09961,-0.01722l-0.29761,0.05534" fill-rule="nonzero"></path><path d="M167.53179,252.7369l0.19676,-0.13528l0.12666,0.1242l0.09838,0.01721l-0.05165,0.13774l-0.37015,-0.14389" fill-rule="nonzero"></path></g></g></svg>