<svg version="1.1" xmlns="http://www.w3.org/2000/svg" xmlns:xlink="http://www.w3.org/1999/xlink" width="57.31305" height="56.21087" viewBox="0,0,57.31305,56.21087"><g transform="translate(-211.34348,-151.89457)"><g stroke-miterlimit="10"><path d="M256.88763,152.69453v4.34362l-14.7764,16.7558h-0.00003c0.00945,-0.00002 0.0189,-0.00003 0.02833,-0.00003c2.90417,0 5.50528,0.67343 7.80336,2.02029c2.29808,1.34686 4.13317,3.23667 5.50529,5.66944c1.37212,2.42434 2.05817,5.24012 2.05817,8.44733c0,3.41766 -0.81653,6.43125 -2.44959,9.04079c-1.62467,2.60954 -3.8596,4.65089 -6.70485,6.12401c-2.84522,1.47312 -6.15344,2.20969 -9.92466,2.20969c-3.51868,0 -6.71324,-0.6566 -9.58373,-1.96979c-2.87049,-1.32161 -5.29063,-3.24931 -7.26042,-5.78308l4.97498,-4.96233c1.18692,1.80984 2.81155,3.24509 4.87393,4.30575c2.0708,1.06065 4.37308,1.59097 6.90687,1.59097c2.38225,0 4.44044,-0.45036 6.17451,-1.35106c1.73409,-0.90914 3.10198,-2.18865 4.10371,-3.83854c1.01013,-1.65832 1.51522,-3.5776 1.51522,-5.75782c0,-2.22232 -0.50508,-4.14581 -1.51522,-5.77044c-1.00174,-1.63306 -2.40752,-2.88734 -4.21734,-3.76279c-1.80984,-0.88388 -3.95641,-1.32582 -6.43968,-1.32582c-0.93438,0 -1.86876,0.06733 -2.80315,0.20202c-0.92596,0.12627 -1.83088,0.31987 -2.71475,0.58084v-4.41937l13.91609,-15.83401h-22.21189v-6.51543z" fill-opacity="0.72941" fill="#000000" fill-rule="evenodd" stroke="none" stroke-width="1" stroke-linecap="square"></path><path d="M211.34348,208.10544v-56.21087h57.31305v56.21087z" fill="none" fill-rule="nonzero" stroke="#000000" stroke-width="0" stroke-linecap="butt"></path></g></g></svg>