<svg version="1.1" xmlns="http://www.w3.org/2000/svg" xmlns:xlink="http://www.w3.org/1999/xlink" width="22.94916" height="9.59608" viewBox="0,0,22.94916,9.59608"><g transform="translate(-138.31702,-285.06971)"><g stroke-miterlimit="10"><g><g fill="none" fill-rule="nonzero" stroke="none" stroke-width="1" stroke-linecap="butt" stroke-linejoin="miter" font-family="sans-serif" font-weight="normal" font-size="12" text-anchor="start"></g><g fill="none" fill-rule="nonzero" stroke="none" stroke-width="1" stroke-linecap="butt" stroke-linejoin="miter" font-family="sans-serif" font-weight="normal" font-size="12" text-anchor="start"></g><g fill="#ff0000" fill-rule="evenodd" stroke="#ffffff" stroke-width="0" stroke-linecap="round" stroke-linejoin="round"><path d=""></path><path d=""></path></g><g fill="#ff0000" fill-rule="evenodd" stroke="#ffffff" stroke-width="0" stroke-linecap="round" stroke-linejoin="round"><path d="M138.55576,294.57868l-0.03017,0.08711l-0.14052,-0.09721l-0.06805,-0.15276l0.06578,-0.10604l0.17296,0.26891"></path></g><g fill="#ff0000" fill-rule="evenodd" stroke="#ffffff" stroke-width="0" stroke-linecap="round" stroke-linejoin="round"><path d=""></path><path d=""></path><path d=""></path><path d=""></path><path d=""></path><path d=""></path><path d=""></path><path d=""></path><path d=""></path><path d=""></path></g><g fill="#ff0000" fill-rule="evenodd" stroke="#ffffff" stroke-width="0" stroke-linecap="round" stroke-linejoin="round"><path d=""></path><path d=""></path><path d=""></path><path d=""></path><path d=""></path><path d=""></path><path d=""></path><path d=""></path></g><g fill="#ff0000" fill-rule="evenodd" stroke="#ffffff" stroke-width="0" stroke-linecap="round" stroke-linejoin="round"><path d=""></path><path d=""></path></g><g fill="#ff0000" fill-rule="evenodd" stroke="#ffffff" stroke-width="0" stroke-linecap="round" stroke-linejoin="round"><path d="M157.01199,285.72867l0.07271,0.09848l0.16689,0.09216l0.04205,0.23861l-0.08686,0.10604l0.06666,0.1111l-0.12637,0.25628l-0.08673,0.0101l-0.10037,0.10099l-0.26462,0.0404l-0.09254,0.16791l-0.44111,-0.11867l-0.24189,0.11742l-0.04671,0.15276l-0.17006,0.18558l-0.01831,0.12626l-0.09721,0.01767l-0.2905,0.46838l-0.32383,0.03283l-0.05087,0.09216l0.15314,0.17043l-0.09053,0.08207l-0.14847,0.01767l-0.08926,0.06439l-0.23835,0.03535l-0.17297,0.12626l-0.30893,-0.11236l-0.09216,0.28785l0.06881,0.13129l-0.13988,0.09721l-0.07222,0.14898l-0.11994,0.03661l-0.32712,-0.0303l0.12499,0.11362l0.07903,-0.00757l0.25389,0.19315l0.11034,-0.0404l0.23823,0.15908l-0.02752,0.13004l-0.1717,0.05681l-0.02941,0.12499l-0.41044,0.13761l-0.18622,-0.05302l0.01402,0.32699l-0.07133,0.20957l-0.23039,-0.12371l-0.19354,-0.00883l-0.21942,-0.12372l-0.17372,0.09974l0.22333,0.15276l0.1842,0.2285l0.03105,0.15403l0.08306,0.05555l-0.01881,0.20831l-0.18773,-0.12626l-0.02045,-0.21211l-0.15138,0.05429l-0.28065,-0.06187l-0.12879,-0.10984l-0.30893,-0.14771l0.06692,-0.10984l-0.09254,-0.40778l-0.09418,-0.01389l-0.10214,0.12626l-0.13559,-0.01894l0.01666,-0.14643l0.1053,-0.08837l0.00051,-0.11236l0.09216,-0.01389l0.19089,-0.16159l-0.18887,-0.02525l-0.08472,0.07574l-0.09165,-0.22977l-0.16715,-0.00252l0.01389,0.18433l-0.10757,0.21462l-0.04772,-0.17675l-0.25326,-0.07827l-0.20843,0.05176l-0.13508,-0.13129l-0.11198,0.08584l-0.10402,-0.03157l-0.05289,-0.21967l-0.12953,-0.05427l-0.13636,0.08963l-0.02462,-0.13004l-0.08837,-0.02525l-0.02007,-0.14013l0.30603,0.01892l0.02474,-0.09469l0.13496,-0.09342l0.09191,0.09469l0.17018,0.00632l0.03422,0.08837l0.12499,0.04797l0.03724,-0.19315l0.15579,-0.10605l0.20364,0.09216l0.14822,0.02525l0.12031,-0.02904l0.11526,0.08711l0.0582,-0.21462l0.22977,-0.02525l-0.03951,-0.09469l-0.38228,0.03535l-0.03889,0.13636l-0.11362,-0.03283l-0.1457,-0.14391l-0.05037,0.03914l-0.29025,-0.29163l0.19859,-0.10857l0.08396,0.02652l0.13345,-0.06691l0.27864,-0.19315l0.32725,-0.01262l0.14543,-0.03914l0.10706,-0.08207l-0.02879,-0.09342l0.06754,-0.07954l0.12435,-0.03155l0.03435,-0.11236l0.12573,-0.15276l0.08041,-0.01135l0.08863,0.12371l0.17712,0.08711l0.26714,-0.27396l0.10339,0.07954l0.04961,0.18054l0.07297,-0.06059l0.01074,-0.19443l-0.08824,-0.09974l0.36954,-0.11489l0.09405,0.09847l0.1741,-0.01137l0.08131,-0.41661l0.14771,-0.00504l-0.00279,0.13761l0.13356,0.0265l0.09406,-0.09089l0.13748,0.0505l-0.01969,0.30425l0.05731,-0.01515l0.09936,-0.23355l0.12915,-0.06565l-0.08762,-0.10479l0.10112,-0.21715l-0.03232,-0.13004l0.06312,-0.13887l0.1799,-0.07322l0.07903,-0.15024l0.15061,0.0707l0.34971,-0.18053l0.08584,0.0164l0.0861,-0.11488l0.25742,-0.03661l0.07562,0.14013l-0.08244,0.0303l-0.12701,0.20453l0.01881,0.22599l-0.12599,-0.00128l0.0063,0.09974l-0.09293,0.21588l0.15592,-0.02147l0.01351,-0.23735l0.20944,-0.10605l-0.05606,-0.10479l0.12361,-0.04292l0.05239,0.19948l-0.10972,0.08459l-0.00214,0.16413l0.1111,0.05302l0.1342,-0.03157l0.04229,-0.09721l0.20023,-0.12246l-0.13407,-0.23861l0.12335,-0.15528l0.03283,0.1881l0.16146,-0.16413l-0.02196,-0.14644l-0.19089,-0.19315l-0.01262,-0.10479l-0.11893,-0.12246l0.14077,-0.03915l0.24746,-0.38127l0.16563,-0.04924l0.04583,0.28405l-0.04305,0.10605l0.10099,0.2689"></path><path d="M150.88895,290.18524l-0.01653,0.12752l0.18987,0.12372l0.23218,0.05176l0.12751,-0.10352l-0.02349,-0.19064l0.11362,0.02399l0.11047,0.09594l0.04432,0.18306l-0.30616,-0.02904l-0.00214,0.15528l-0.10466,0.06817l0.0471,0.13761l0.26867,-0.10984l0.04746,0.07702l0.00352,0.21715l0.09431,-0.00252l0.04621,-0.10352l0.10466,0.20074l0.20528,-0.09721l0.13445,0.13004l0.29783,-0.10984l0.13534,0.19063l-0.12965,0.22345l-0.01717,0.12247l-0.31108,0.07827l0.06653,-0.23356l-0.00352,-0.13636l-0.21121,0.14391l-0.15579,-0.05555l-0.08523,0.10099l0.04242,0.11236l-0.05769,0.18431l-0.18635,-0.10352l-0.09444,-0.11867l0.04912,-0.06944l-0.04697,-0.10857l-0.03358,-0.22977l-0.22888,0.09595l-0.14835,0.15654l-0.09859,-0.30805l-0.06868,-0.02652l-0.00214,-0.31561l0.05517,-0.06187l-0.12663,-0.10857l-0.13584,0.01892l-0.04659,-0.13761l-0.09013,-0.02904l-0.04001,-0.2424l-0.08724,-0.06439l-0.03195,-0.13508h0.18078l0.07511,-0.12877l0.17005,-0.06564l0.03573,0.12499l-0.08913,0.13004l0.10213,0.15023"></path><path d="M161.19965,287.6224l-0.08964,0.04797l-0.06692,0.15529l-0.18685,0.08711l-0.04216,0.18054l-0.08661,0.08458l-0.18798,0.36234l-0.06085,0.05934l-0.23963,0.11615l-0.1294,0.01892l-0.07587,-0.05176l-0.09633,-0.20326l-0.13105,0.02399l-0.05669,-0.08584l-0.02614,-0.21967l0.12524,-0.17171l0.33204,-0.06439l0.2294,-0.18054l0.08547,-0.02525l0.18078,-0.18938l0.06868,-0.11362l0.10859,-0.06312l0.07575,-0.10859l0.13129,-0.0404l0.18559,0.14898l0.01767,0.09342l-0.06439,0.13887"></path><path d="M151.17299,292.21784l0.15151,-0.1212l0.08257,0.13004l0.14379,-0.08711l0.05113,0.15023l-0.00442,0.12372l-0.15314,0.17423l-0.04986,-0.12877l-0.34819,-0.15908l-0.17928,0.03409l-0.0755,-0.16286l0.10568,-0.2967l0.15175,0.15023l0.12397,0.19315"></path><path d="M150.28421,292.05371l0.05947,0.07575l-0.06616,0.09848l0.00859,0.12877l-0.22498,0.10731l-0.04721,-0.13382l0.06641,-0.18306l0.01655,-0.16159l0.19732,-0.2929l0.08041,-0.01389l-0.03459,0.09469l0.02866,0.19443l-0.08446,0.08584"></path><path d="M150.98236,288.58189l-0.16752,0.04167l-0.36574,-0.21715l0.07474,-0.11994l0.35489,0.10604l0.10365,0.18938"></path></g></g><path d="M157.08468,285.82717l0.16691,0.09216l0.04205,0.23862l-0.08686,0.10605l0.06666,0.1111l-0.12639,0.25631l-0.08673,0.0101l-0.10038,0.101l-0.26463,0.0404l-0.09255,0.16792l-0.14644,0.00757l-0.03043,-0.05555l-0.26425,-0.0707l-0.2419,0.11742l-0.04672,0.15276l-0.17006,0.18559l-0.01831,0.12626l-0.09722,0.01767l-0.11249,0.15908l-0.17802,0.30932l-0.32384,0.03283l-0.05088,0.09216l0.15315,0.17044l-0.09053,0.08207l-0.14848,0.01767l-0.08926,0.0644l-0.23836,0.03535l-0.17297,0.12626l-0.1563,-0.07827l-0.15264,-0.0341l-0.09216,0.28786l0.06881,0.13131l-0.13989,0.09721l-0.07222,0.14898l-0.11994,0.03661l-0.32713,-0.0303l0.12499,0.11364l0.07904,-0.00757l0.25391,0.19316l0.11035,-0.0404l0.23825,0.15909l-0.02752,0.13004l-0.17171,0.05682l-0.02943,0.12499l-0.41045,0.13762l-0.18622,-0.05302l0.01402,0.327l-0.07133,0.20959l-0.23042,-0.12372l-0.19354,-0.00883l-0.21943,-0.12372l-0.17372,0.09974l0.22334,0.15276l0.1842,0.22851l0.03106,0.15403l0.08307,0.05555l-0.01882,0.20831l-0.18773,-0.12626l-0.02045,-0.21211l-0.15138,0.05429l-0.28065,-0.06187l-0.12879,-0.10984l-0.30895,-0.14772l0.06692,-0.10984l-0.09255,-0.40779l-0.09418,-0.01389l-0.10214,0.12626l-0.13559,-0.01894l0.01666,-0.14646l0.1053,-0.08837l0.00051,-0.11237l0.09216,-0.01389l0.19089,-0.16161l-0.18888,-0.02525l-0.08472,0.07576l-0.09166,-0.22979l-0.16717,-0.00252l0.01389,0.18433l-0.10757,0.21463l-0.04772,-0.17675l-0.25327,-0.07827l-0.20844,0.05176l-0.13509,-0.13131l-0.11198,0.08585l-0.10403,-0.03155l-0.0529,-0.21968l-0.12954,-0.0543l-0.13636,0.08964l-0.02461,-0.13004l-0.08837,-0.02525l-0.02007,-0.14014l0.30604,0.01894l0.02474,-0.09469l0.13496,-0.09342l0.09192,0.09469l0.17019,0.00632l0.03422,0.08837l0.12499,0.04797l0.03724,-0.19316l0.1558,-0.10605l0.20364,0.09216l0.14823,0.02525l0.12032,-0.02905l0.11527,0.08712l0.0582,-0.21463l0.22979,-0.02525l-0.03951,-0.09469l-0.3823,0.03535l-0.03888,0.13637l-0.11362,-0.03283l-0.1457,-0.14392l-0.05037,0.03915l-0.29026,-0.29165l0.19859,-0.10859l0.08396,0.02652l0.13345,-0.06692l0.27864,-0.19316l0.32725,-0.01263l0.14543,-0.03915l0.10707,-0.08207l-0.02879,-0.09342l0.06753,-0.07954l0.12435,-0.03155l0.03435,-0.11237l0.12575,-0.15277l0.08042,-0.01137l0.08862,0.12372l0.17714,0.08712l0.26715,-0.27396l0.1034,0.07954l0.04961,0.18053l0.07297,-0.0606l0.01074,-0.19444l-0.08825,-0.09974l0.36954,-0.11489l0.09405,0.09847l0.1741,-0.01137l0.0813,-0.41664l0.14772,-0.00505l-0.00278,0.13762l0.13356,0.02652l0.09405,-0.0909l0.13749,0.0505l-0.01969,0.30428l0.05731,-0.01515l0.09936,-0.23356l0.12915,-0.06565l-0.08762,-0.10479l0.10112,-0.21715l-0.03232,-0.13004l0.06312,-0.13887l0.17991,-0.07323l0.07903,-0.15024l0.15062,0.0707l0.34972,-0.18054l0.08585,0.01642l0.0861,-0.11489l0.25742,-0.03661l0.07563,0.14014l-0.08244,0.0303l-0.12701,0.20453l0.01881,0.22599l-0.12599,-0.00127l0.0063,0.09974l-0.09293,0.21589l0.15592,-0.02147l0.01351,-0.23735l0.20945,-0.10605l-0.05606,-0.10479l0.12361,-0.04292l0.05239,0.19948l-0.10972,0.08459l-0.00214,0.16413l0.1111,0.05302l0.1342,-0.03157l0.04229,-0.09722l0.20025,-0.12247l-0.13407,-0.23862l0.04697,-0.11867l0.07639,-0.03661l0.03283,0.18811l0.16148,-0.16413l-0.02199,-0.14644l-0.19089,-0.19317l-0.01262,-0.10479l-0.11893,-0.12247l0.14077,-0.03915l0.24746,-0.38128l0.16564,-0.04924l0.04583,0.28406l-0.04305,0.10605l0.101,0.26891l0.07271,0.09847" fill="#ff0000" fill-rule="nonzero" stroke="#ffffff" stroke-width="0" stroke-linecap="round" stroke-linejoin="round"></path><path d="M161.11217,287.67047l-0.06692,0.15529l-0.18686,0.08712l-0.04218,0.18054l-0.08661,0.08459l-0.18799,0.36234l-0.06085,0.05935l-0.23963,0.11615l-0.12941,0.01894l-0.07587,-0.05176l-0.09634,-0.20327l-0.13105,0.024l-0.05669,-0.08585l-0.02614,-0.21968l0.12524,-0.17171l0.33205,-0.0644l0.2294,-0.18054l0.08547,-0.02525l0.18079,-0.18939l0.06868,-0.11362l0.10859,-0.06312l0.07576,-0.10859l0.13131,-0.0404l0.18559,0.14899l0.01767,0.09342l-0.0644,0.13887l-0.08964,0.04797" fill="#ff0000" fill-rule="nonzero" stroke="#ffffff" stroke-width="0" stroke-linecap="round" stroke-linejoin="round"></path></g></g></svg>