<svg version="1.1" xmlns="http://www.w3.org/2000/svg" xmlns:xlink="http://www.w3.org/1999/xlink" width="4.81087" height="3.52119" viewBox="0,0,4.81087,3.52119"><g transform="translate(-273.09348,-177.58707)"><g fill="#ff0000" fill-rule="evenodd" stroke="#ffffff" stroke-width="0" stroke-linecap="round" stroke-linejoin="round" stroke-miterlimit="10"><path d="M275.04364,178.048l0.14124,0.0384l0.29363,-0.01115l0.29735,0.1276l0.04708,0.09293l0.13876,0.04089l0.22301,0.12266l0.13256,-0.01362l0.11769,-0.08301l0.24656,0.15239l0.24531,-0.02478l0.1016,0.03469l0.2639,-0.05327l0.24035,0.06938l0.01734,0.16602l0.1685,0.0062l-0.01487,0.14371l0.0892,0.22425l0.1016,0.09167l-0.07806,0.19081l-0.1462,0.08549l-0.17222,-0.08797l-0.07806,0.09044l0.05575,0.13877l-0.00124,0.17841l0.18088,0.05947l0.11152,0.26515l0.10407,0.08301l0.03346,0.21929l-0.34319,0.01487l-0.32958,-0.02229l-0.09787,0.06071l-0.61948,-0.10407l-0.14991,0.06195l-0.02602,0.19824l-0.06689,0.17593l-0.34567,-0.00496l-0.01858,0.12886l-0.10407,0.18584l-0.17841,0.01735l-0.19699,-0.0793l-0.31841,-0.28992l-0.16602,0.0062l-0.13009,-0.07558l-0.11895,0.00247l-0.41382,-0.24284l-0.20071,-0.16355l-0.21434,-0.43364l-0.15859,-0.07806l-0.09912,-0.18708l0.02479,-0.22054l-0.1177,-0.10407l-0.08177,-0.23788l-0.01239,-0.40887l-0.08796,0.02725l-0.18461,-0.20938l-0.04213,-0.17593l-0.01239,-0.08177l0.14248,-0.21434l0.1685,-0.12266l0.13505,-0.04336l0.07929,0.05823l0.19204,-0.04213l0.12018,-0.20071l0.16232,-0.00373l0.17345,0.12637l0.15115,0.15611l0.28248,0.10902l0.12266,-0.04831l0.22054,0.11769"></path></g></g></svg>