<svg version="1.1" xmlns="http://www.w3.org/2000/svg" xmlns:xlink="http://www.w3.org/1999/xlink" width="4.6556" height="5.42746" viewBox="0,0,4.6556,5.42746"><g transform="translate(-80.79757,-342.81056)"><g fill="#ff0000" stroke="#ff0000" stroke-width="0" stroke-linecap="round" stroke-linejoin="round" stroke-miterlimit="10"><path d="M82.69717,343.17167l-0.02941,0.15781l0.0938,0.12246l0.15832,-0.11236l0.03761,-0.11615l0.14973,0.07197l0.05215,-0.02904l0.16651,0.13382l0.10542,-0.13508l0.14001,0.0707l0.01553,0.15023l0.25881,0.04167l0.17813,0.09974l0.0683,0.16539l0.20389,0.01262l-0.02966,0.2222l-0.10352,0.06944l-0.01554,0.14771l0.03775,0.0808l-0.24454,0.11867l-0.14241,0.25628l0.05542,0.17296l-0.03435,0.20326l-0.12372,-0.09216l-0.12536,0.00127l0.04078,0.14644l-0.04621,0.1881l-0.22763,-0.00127l-0.22435,-0.15653l-0.14518,-0.0606l-0.34844,0.03282l-0.20124,-0.07701l-0.20515,-0.01515l-0.23495,-0.04672l-0.18028,-0.12626l-0.09367,-0.10352l-0.1279,-0.04672l-0.05075,0.29415l-0.19984,-0.01263l-0.08584,-0.05934l-0.20401,0.0038l-0.23458,-0.34845l0.113,-0.07702l0.14203,0.08711l0.0654,-0.03914l-0.08888,-0.16159l0.03964,-0.11994l0.32143,0.09974l-0.07323,-0.13636l0.14102,0.01262l0.13483,-0.11489l0.04646,0.09721l0.11843,0.06187l0.02298,0.10984l0.1077,-0.01137l0.02639,-0.22346l-0.06944,-0.05934l0.11173,-0.14518l-0.08788,-0.08459l-0.0442,-0.12623l0.12562,-0.11869l-0.08799,-0.16411l0.08257,-0.03661l-0.01704,-0.13636l0.12549,-0.1818l0.1462,-0.04419l-0.00365,-0.12499l-0.10555,-0.05176l0.07804,-0.0909l0.14809,-0.0063l0.22435,0.20705l0.01742,0.09342l0.13547,0.06059" fill-rule="evenodd"></path><path d="M82.58481,348.19635l-0.09709,0.04167l-0.44073,-0.03661l-0.09291,-0.06312l0.01452,-0.13508l0.28343,-0.11867l0.1318,-0.00378l0.25161,0.07322l0.03573,0.10857l-0.08635,0.13382" fill-rule="evenodd"></path><path d="M85.45317,345.58302l-0.0428,0.10479l-0.16488,0.1212l-0.15744,-0.03661l-0.12827,-0.23735l-0.00202,-0.08332l0.16702,-0.0909l0.15149,0.09469l0.1015,-0.04167l0.07537,0.16919" fill-rule="evenodd"></path><path d="M85.10221,344.27003l0.00278,0.0808l-0.11375,0.04672l-0.13017,-0.10479l-0.25666,-0.02272l0.07815,-0.14518l-0.05619,-0.11362l0.12183,-0.04797l0.22624,0.11109l-0.03333,0.08207l0.16109,0.11362" fill-rule="evenodd"></path><path d="M81.67834,343.84078l0.15921,0.12499l-0.02425,0.11362l-0.22509,-0.18558l0.09013,-0.05302" fill-rule="evenodd"></path><path d="M84.30178,345.62089l0.14721,-0.11236l0.04746,0.07575l-0.16021,0.16034l-0.03446,-0.12372" fill-rule="evenodd"></path><path d="M81.60133,343.60092l-0.08257,0.20831l-0.08901,-0.07575l0.03736,-0.10099l0.1342,-0.03157" fill-rule="evenodd"></path><path d="M84.07202,345.86076l0.17309,-0.05429l0.01755,0.13129l-0.1294,0.0101l-0.06123,-0.08711" fill-rule="evenodd"></path><path d="M82.58255,348.19635l-0.09709,0.04167l-0.44075,-0.03661l-0.09293,-0.06312l0.01452,-0.13509l0.28344,-0.11867l0.13181,-0.00378l0.25162,0.07322l0.03574,0.10857l-0.08636,0.13382" fill-rule="nonzero"></path><path d="M84.24279,345.81017l0.01755,0.13131l-0.12941,0.0101l-0.06123,-0.08711l0.17309,-0.05429" fill-rule="nonzero"></path><path d="M82.66462,343.3356l0.09381,0.12247l0.15832,-0.11236l0.03761,-0.11615l0.14973,0.07197l0.05215,-0.02904l0.16653,0.13382l0.10542,-0.13509l0.14002,0.0707l0.01553,0.15024l0.25881,0.04167l0.17814,0.09974l0.0683,0.16539l0.2039,0.01263l-0.02966,0.2222l-0.10352,0.06945l-0.01553,0.14772l0.03775,0.0808l-0.24455,0.11867l-0.14241,0.25631l0.05542,0.17297l-0.03435,0.20327l-0.12372,-0.09216l-0.12537,0.00127l0.04078,0.14646l-0.04621,0.18811l-0.22764,-0.00127l-0.22435,-0.15654l-0.14519,-0.0606l-0.34846,0.03283l-0.20125,-0.07702l-0.20517,-0.01516l-0.23496,-0.04671l-0.18029,-0.12626l-0.09367,-0.10352l-0.1279,-0.04672l-0.05075,0.29418l-0.19987,-0.01262l-0.08585,-0.05935l-0.20402,0.00378l-0.23458,-0.34846l0.113,-0.07702l0.14204,0.08712l0.0654,-0.03915l-0.08889,-0.16161l0.03964,-0.11995l0.32144,0.09974l-0.07323,-0.13636l0.14103,0.01262l0.13484,-0.11489l0.04646,0.09721l0.11844,0.06187l0.02299,0.10984l0.1077,-0.01137l0.02639,-0.22346l-0.06944,-0.05934l0.11173,-0.14519l-0.08788,-0.08459l-0.0442,-0.12626l0.12562,-0.11869l-0.08799,-0.16413l0.08257,-0.03662l-0.01704,-0.13636l0.1255,-0.1818l0.1462,-0.0442l-0.00365,-0.12499l-0.10555,-0.05176l0.07804,-0.0909l0.1481,-0.00632l0.22435,0.20706l0.01742,0.09342l0.13547,0.0606l-0.02943,0.15782" fill-rule="nonzero"></path><path d="M81.58642,343.89111l0.09015,-0.05303l0.15921,0.12499l-0.02425,0.11364l-0.22511,-0.18559" fill-rule="nonzero"></path><path d="M81.59904,343.60073l-0.08257,0.20832l-0.08901,-0.07575l0.03737,-0.101l0.1342,-0.03157" fill-rule="nonzero"></path><path d="M84.44606,345.50715l0.04747,0.07576l-0.16021,0.16034l-0.03448,-0.12372l0.14721,-0.11237" fill-rule="nonzero"></path><path d="M85.40937,345.68391l-0.16488,0.1212l-0.15744,-0.03662l-0.12828,-0.23735l-0.00202,-0.08332l0.09255,-0.09216l0.07449,0.00127l0.15151,0.09469l0.10151,-0.04167l0.07536,0.16919l-0.04279,0.10479" fill-rule="nonzero"></path><path d="M85.10257,344.34563l-0.11375,0.04671l-0.13016,-0.10479l-0.25667,-0.02272l0.07815,-0.14519l-0.05618,-0.11364l0.12183,-0.04797l0.22625,0.1111l-0.03334,0.08207l0.1611,0.11364l0.00278,0.08082" fill-rule="nonzero"></path></g></g></svg>