<svg version="1.1" xmlns="http://www.w3.org/2000/svg" xmlns:xlink="http://www.w3.org/1999/xlink" width="9.70105" height="8.14986" viewBox="0,0,9.70105,8.14986"><g transform="translate(-240.00197,-187.33288)"><g fill="#ff0000" fill-rule="evenodd" stroke="#ffffff" stroke-width="0" stroke-linecap="round" stroke-linejoin="round" stroke-miterlimit="10"><path d="M244.82521,191.34211l0.19452,0.09168l-0.14124,0.21929l-0.19204,-0.06691l0.03346,-0.21929l0.13628,-0.11274l0.11399,0.02106l-0.14495,0.06689"></path><g><path d="M246.68367,190.83414l-0.01115,-0.34319h0.25894l0.10037,0.28992l-0.26142,0.06319l-0.08673,-0.00991"></path><path d="M246.65888,191.04476l0.15735,-0.07309v0.14495l-0.12018,0.18213l-0.1462,-0.11522l0.10902,-0.13876"></path><path d="M247.3527,190.48723l0.06195,-0.19699l0.09788,-0.13504l0.0508,0.02229l-0.08921,0.28001l-0.12142,0.02973"></path><path d="M247.09251,190.61113l-0.07558,-0.15362l0.13256,-0.06442l0.07806,0.01115l-0.03718,0.17346l-0.09788,0.03346"></path><path d="M249.53328,195.28203l0.16974,0.08549l-0.05575,0.11522l-0.11399,-0.20072"></path></g><path d="M245.01106,189.28542l0.23294,0.06442l0.23417,0.29487l0.2131,0.11895l0.22674,0.2515l0.04708,0.41876l0.09293,0.23169l0.1462,0.20195l-0.02602,0.0446h-0.09293l-0.1685,-0.22797l-0.27505,0.16726l-0.20567,0.01735l-0.16106,0.05947l0.02849,0.19824l-0.16973,0.04831l-0.13628,-0.04089l-0.1846,0.08673l-0.10655,0.11769l-0.07186,0.25275l0.05452,0.02725l-0.06072,0.28496l-0.09787,0.14371l0.31594,0.01487l0.04708,0.12637l-0.16974,-0.00496l-0.09293,0.0446l-0.00868,0.34196l0.02354,0.11522l-0.10035,0.1016l-0.08921,0.29612l-0.19081,0.3147l-0.33079,0.48691l-0.23664,0.30479l-0.14248,-0.11151l-0.36798,0.05947l-0.02973,-0.06319l-0.19081,0.08177l-0.11646,0.00992l-0.08301,0.09787l-0.36053,-0.19081l-0.19824,0.01981l-0.19576,-0.25646l0.00373,-0.17965l-0.15239,-0.07062l-0.06195,0.07309l-0.12142,-0.05575l-0.04213,0.07806l-0.19451,0.05204l-0.16107,0.21434l-0.13134,-0.03593l-0.26761,0.06815l-0.25522,-0.01115l-0.00496,0.10408l-0.13133,0.07806l-0.22178,-0.08797l-0.18955,0.03718l-0.0793,-0.07433l0.06814,-0.09663l0.01115,-0.19824l0.14124,-0.09044l-0.08673,-0.23788l-0.06442,-0.04213l0.07433,-0.16355l0.2639,-0.07433l0.09788,-0.08176l0.00373,-0.09663l0.1623,-0.02479l0.1623,-0.10283l0.33081,-0.14371l0.02106,-0.25646l0.07558,-0.02725l-0.01487,-0.28001l0.18584,-0.16355l0.08796,0.02478l0.10283,-0.26761l0.15859,-0.17593l0.0062,-0.17097l0.06195,-0.12018l-0.05452,-0.16974l0.05327,-0.15115l-0.05947,-0.24284l0.01734,-0.1846l0.08426,-0.11275l0.20938,-0.14744l-0.07806,-0.23912l0.08426,-0.05574l-0.04213,-0.15488l0.04708,-0.21929l-0.03099,-0.08673l0.09912,-0.10902l-0.15363,-0.10407l0.09044,-0.1276l0.0384,-0.16355l0.11151,-0.0384l-0.00373,-0.13628l-0.1338,-0.15611l-0.24035,-0.19328l-0.19576,-0.04089l0.09168,-0.27752l-0.01239,-0.18584l0.19576,-0.17717l0.12142,0.19204l0.1623,-0.19452l0.14868,-0.12018l0.17965,0.0384l0.03098,-0.07309l0.28744,0.07186l0.05947,-0.057l0.03469,-0.17593l0.17841,-0.11026l0.06814,0.03469l0.07806,0.21806l0.13009,0.13753l-0.04089,0.14371l0.12142,0.02725l0.06071,0.22921l0.15859,0.05823l0.13257,0.11026l0.1462,0.26017l0.19204,0.27011l0.0384,0.14495l0.10779,0.0508l0.07682,-0.05574l0.19203,0.0384l0.00373,-0.27505l0.11522,0.07186l0.07309,0.17964l0.14001,0.21929l0.0446,0.0892"></path></g></g></svg>