<svg version="1.1" xmlns="http://www.w3.org/2000/svg" xmlns:xlink="http://www.w3.org/1999/xlink" width="57.31305" height="56.21087" viewBox="0,0,57.31305,56.21087"><g transform="translate(-211.34347,-151.89457)"><g stroke-miterlimit="10"><path d="M246.7782,152.69454v6.51543h-22.33547l-1.61171,15.14999c0.09396,-0.05967 0.18879,-0.11787 0.28455,-0.17461c1.13642,-0.67343 2.42856,-1.19111 3.87644,-1.55309c1.44788,-0.36196 3.13145,-0.54295 5.05073,-0.54295c3.7207,0 6.8732,0.77866 9.45747,2.33597c2.58429,1.54888 4.56249,3.64073 5.9346,6.27552c1.37212,2.63478 2.05817,5.58104 2.05817,8.83876c0,3.41766 -0.84179,6.47334 -2.52536,9.16705c-1.67516,2.6853 -3.99007,4.78977 -6.94473,6.31341c-2.94626,1.52364 -6.30499,2.28546 -10.07619,2.28546c-3.67861,0 -6.95315,-0.6566 -9.82364,-1.96979c-2.86208,-1.32161 -5.278,-3.2493 -7.24779,-5.78307l4.96233,-4.96234c1.19534,1.80984 2.83684,3.24509 4.92446,4.30575c2.09603,1.06065 4.43621,1.59097 7.0205,1.59097c2.43277,0 4.56667,-0.46299 6.40178,-1.38894c1.83509,-0.93438 3.28297,-2.24335 4.34362,-3.92693c1.06065,-1.68358 1.59096,-3.68703 1.59096,-6.01036c0,-2.38226 -0.51771,-4.39833 -1.55308,-6.04824c-1.02697,-1.65832 -2.40752,-2.91259 -4.14159,-3.76279c-1.73409,-0.85862 -3.63652,-1.28793 -5.70732,-1.28793c-2.1213,0 -4.049,0.26095 -5.78308,0.78285c-1.72567,0.51349 -3.36714,1.38894 -4.92444,2.62637l-3.9522,-3.95218l2.39909,-24.82428z" fill-opacity="0.72941" fill="#000000" fill-rule="evenodd" stroke="none" stroke-width="1" stroke-linecap="square"></path><path d="M243.39102,169.11941v-6.5209h8.07247l0,-8.22222l6.57861,-0.03082l-0.02306,8.25304h8.19512v6.5209h-8.19512l-0.01552,8.31728l-6.54004,0.01606l0,-8.33333z" fill-opacity="0.72941" fill="#000000" fill-rule="nonzero" stroke="none" stroke-width="0" stroke-linecap="butt"></path><path d="M211.34348,208.10545v-56.21087h57.31305v56.21087z" fill="none" fill-rule="nonzero" stroke="#000000" stroke-width="0" stroke-linecap="butt"></path></g></g></svg>