<svg version="1.1" xmlns="http://www.w3.org/2000/svg" xmlns:xlink="http://www.w3.org/1999/xlink" width="14.16381" height="8.90187" viewBox="0,0,14.16381,8.90187"><g transform="translate(-293.1324,-128.98384)"><g fill="#ff0000" fill-rule="evenodd" stroke="#ffffff" stroke-width="0" stroke-linecap="round" stroke-linejoin="round" stroke-miterlimit="10"><path d="M306.88387,129.62907l-0.07475,0.04111l0.04112,0.20554l0.147,0.41982l0.00499,0.22423l0.20055,0.16195l-0.05606,0.17938l0.10215,0.12456l0.04734,0.25289l-0.19308,-0.05481l-0.11336,-0.13827l-0.03114,-0.15696l-0.10589,-0.06727l-0.10963,-0.18935l-0.32015,0.25661l-0.10837,-0.2155l-0.0872,-0.01743l-0.02615,-0.23669l-0.0872,0.07101l0.1495,0.41357l-0.1171,0.40735l0.10713,0.31018l-0.19932,0.2342l0.03612,0.11212l-0.23295,0.00124l-0.03488,0.13205l-0.15323,0.10713l-0.17937,0.05856l-0.11461,0.08596l-0.02367,0.19683l-0.08471,0.13329l0.21924,0.14824l0.01121,0.15945l0.12083,0.02118v0.12208l0.15447,0.05232l0.13453,-0.04235l0.02118,0.17565l-0.09966,0.13703l0.10837,0.11335l-0.09716,0.10465l-0.10465,-0.0872l-0.09466,0.04485l-0.13205,-0.13205l-0.08346,0.07973l-0.08846,0.21676l-0.01121,0.13951l-0.23669,-0.01993l-0.07724,0.06851l0.01619,0.15696l-0.20554,-0.05481l-0.22797,0.15696l-0.16443,-0.05481l0.06977,0.25661l-0.08597,0.22423l0.22423,0.01869l0.03862,-0.09094l0.27406,0.09716l0.54064,0.09342l-0.01619,0.08969l-0.06727,-0.03362l-0.18064,0.28153l-0.42603,-0.09716l-0.16569,0.09466l-0.03862,0.07723l-0.39614,0.27031l-0.11461,-0.01245l-0.12208,-0.12583l-0.12208,-0.03238l-0.25288,0.22547l-0.17565,-0.02367l-0.32263,0.22673l-0.15696,0.00872l-0.09592,0.12208l-0.24541,-0.04734l-0.12954,-0.08472l0.04484,-0.40112l-0.17191,-0.05108l-0.14077,0.08097l0.02117,0.20928l-0.06352,0.08471l-0.28901,0.13953l-0.05357,0.09466l-0.03238,0.29399l-0.06352,0.23295l-0.12333,-0.00248l-0.25039,-0.11461l-0.23171,0.16693l-0.00747,0.19807l-0.16693,0.27156l0.08097,0.21551l-0.11834,0.1881l0.08846,0.3625l-0.16071,0.02616l-0.24291,0.15073l-0.09593,-0.12208l-0.16071,0.12583l-0.34755,-0.06478l-0.07225,-0.05854l-0.25661,0.06727l-0.00248,0.06478l-0.31269,-0.07225l-0.11834,0.01869l0.12831,-0.2778l-0.16194,-0.10215l-0.09716,-0.13827l-0.10589,0.06354l-0.07225,-0.08346l-0.04111,-0.21302l-0.24666,-0.18562l-0.26161,-0.03114l-0.09966,0.1171l0.00125,0.13329l-0.20181,0.04609l-0.28153,-0.10215l-0.18686,-0.18064l-0.26908,0.05108l-0.2915,-0.10713l-0.39739,0.09342l-0.20055,0.11585l-0.18312,0.01743l-0.2043,-0.04359l-0.07847,0.03362l-0.51448,-0.01121l-0.20305,0.1607l-0.07225,-0.01743l-0.36499,0.21676l-0.56681,0.39614l-0.0872,-0.10963l-0.14326,-0.05854v-0.16569l-0.13081,-0.29524l-0.29897,-0.1196l-0.12707,-0.25039l0.10589,-0.23918l-0.11834,-0.01743l-0.10463,-0.22298l0.13205,-0.08222l0.06478,-0.14824l-0.04111,-0.06977l0.1495,-0.13579l-0.09466,-0.19309l-0.01869,-0.22298l-0.13827,-0.05481l0.04859,-0.11585l-0.12583,-0.13453l-0.18187,-0.32638l0.11087,-0.25289l0.20305,0.02616l0.08222,0.15696l0.25537,0.06977l0.15073,-0.10837l0.05107,-0.23669l0.15945,-0.27904l0.06851,-0.23543l-0.09966,-0.20429l-0.11709,-0.04485v-0.28777l0.17316,-0.16319l0.02616,-0.16195l0.10339,-0.08597l0.06352,-0.24042l0.12583,-0.11834l-0.12083,-0.12583l-0.11709,0.05606l-0.29773,-0.15696l-0.09716,-0.29524l0.04609,-0.24291l-0.01121,-0.13703l-0.09716,-0.1607l-0.26658,-0.17191l-0.12707,-0.00747l-0.076,-0.19059l-0.14575,-0.03489l-0.03114,-0.1607l0.11087,-0.15696l-0.00747,-0.1283l0.0897,0.20804l0.09841,0.04859l0.38617,-0.22174l0.17316,0.00623l0.03114,-0.09342l0.25413,0.05107l0.1283,0.08597l0.05856,-0.07599l0.32513,-0.13579l0.02367,-0.1034l0.15696,-0.22423l0.18437,-0.09966l0.08346,0.0573l0.20181,-0.22673l0.10963,-0.23793l0.16443,-0.11336l0.35253,-0.02742l0.10713,-0.00248l0.147,-0.09342l0.37497,-0.00124l0.16195,0.1009l0.04484,0.11585l0.29524,0.147l0.14077,0.16693l0.218,0.0573l0.21426,-0.00125l0.12456,0.18064l0.05357,-0.07474l0.28028,0.17316l0.17813,0.06976l0.28403,0.47213l0.13453,-0.06229l0.11834,0.02242l0.14575,-0.09094l0.16567,0.01494l0.03612,0.08846l0.13703,0.02118l0.05107,-0.07349l0.17316,-0.04359l0.16569,0.07101l0.21054,-0.12707l0.13205,0.04609l0.07101,0.10963l0.19683,-0.04484l0.19557,0.04734l0.07599,0.19059l0.01495,0.1495l-0.20679,0.26035l-0.12208,0.07847l-0.19433,-0.03612l-0.02492,0.10713l0.33759,0.28527l0.12458,-0.02367l-0.01495,0.37371l0.35877,0.19931l0.16817,-0.09716l0.31269,0.24042l0.01495,0.20181l0.10589,0.13329l0.20804,0.01371l0.03364,-0.13578l0.2753,-0.09966l-0.01745,-0.13205l0.16443,-0.36499l0.13329,0.01245l0.06727,-0.07847l0.24042,0.06602l-0.01869,-0.18187l0.04485,-0.22547l0.12707,-0.06851l0.22298,0.26159l0.22921,-0.08846l0.22798,0.07973l0.08222,0.16443l0.19683,-0.04359l0.05357,0.16569l0.20928,0.05232l0.00872,0.10465l-0.07349,0.1881l0.16693,-0.06229l-0.02118,-0.12333l0.12582,-0.05979l0.06478,-0.29025l0.00746,-0.18312l0.21178,0.03114l0.00248,-0.16693l-0.05856,-0.25661l0.05979,-0.15696l0.11585,-0.09218l-0.10215,-0.11709l-0.06229,-0.23669l0.19059,-0.16569l0.00248,-0.1308l0.28527,-0.21427l0.03737,-0.2342l-0.08097,-0.17067l0.06104,-0.1744l-0.01993,-0.40236l-0.06727,-0.1582l0.04734,-0.24541l0.06354,-0.0872l0.30146,0.01121l0.08097,0.11087l0.31267,-0.07973l0.2342,0.00498l0.09342,0.13951l0.11834,-0.02242l0.21676,0.03862l0.22174,0.19433l0.1582,0.05481l0.1196,0.19308"></path><path d="M306.74684,130.92462l0.01993,0.19433l-0.13329,0.06229l0.12333,0.2043l-0.07349,0.21924l-0.12458,-0.07225l-0.03114,-0.15073l-0.08846,-0.10215l0.01993,-0.14077l-0.08097,-0.15323l0.20803,-0.07847l0.07225,-0.10713l0.08846,0.12456"></path></g></g></svg>