<svg version="1.1" xmlns="http://www.w3.org/2000/svg" xmlns:xlink="http://www.w3.org/1999/xlink" width="4.75664" height="6.47447" viewBox="0,0,4.75664,6.47447"><g transform="translate(-174.06485,-218.1459)"><g fill="#ff0000" fill-rule="evenodd" stroke="#ffffff" stroke-width="0" stroke-linecap="round" stroke-linejoin="round" stroke-miterlimit="10"><path d="M178.82139,223.45583l-0.08116,0.06394l-0.26315,-0.01352l-0.12174,0.02582l-0.06764,-0.05165l-0.25454,0.07132l-0.09346,0.12297l-0.03074,0.19676l-0.10698,0.08238l-0.01476,0.182l-0.09837,0.03074l-0.00246,0.10822l0.11436,0.11191l-0.15126,0.23365l-0.26684,-0.06763l-0.14757,-0.24349l0.05533,-0.18446l-0.1574,-0.22627l-0.17217,-0.02582l-0.10207,-0.14511l-0.13281,-0.06887l-0.1279,-0.00738l-0.06763,0.06026l-0.01598,0.15618l-0.18077,0.14757l-0.15495,-0.00861l-0.07747,0.05165l-0.28406,0.01107l-0.04549,-0.05657l-0.38736,0.08362l-0.14141,0.08239l-0.09961,-0.08239l-0.19676,0.05165l-0.14141,-0.04427l-0.09715,-0.14757l0.02337,-0.07501l-0.08731,-0.14019l-0.16233,-0.0209l0.03197,-0.11928l-0.091,-0.16478l0.10084,-0.091l-0.00738,-0.1365l-0.08363,-0.09838l0.15002,-0.16233l-0.15126,-0.11314l-0.18569,0.03566l-0.10576,-0.06641l0.22136,-0.37628l-0.11682,-0.15371l0.11191,-0.15372l-0.10085,-0.25577l0.0787,-0.07502l-0.2693,-0.24716l0.13158,-0.17585l0.04426,-0.19182l-0.01598,-0.22627l0.17955,-0.28651l0.25333,-0.00122l0.15249,-0.13158l0.10453,-0.15126l0.07255,-0.30129l-0.08608,-0.091l0.04673,-0.14388l0.11806,-0.1156l-0.18569,-0.30865l-0.18446,-0.15988l-0.02951,-0.15126l-0.16109,-0.18323l0.07132,-0.14879l0.01476,-0.23611l0.10698,-0.22627l0.14142,0.08977l0.13404,-0.00246l0.27301,-0.23858l0.26438,-0.01476l0.08854,0.0541l0.34309,0.09223l0.12543,-0.01722l0.12174,0.08977l0.03565,0.14634l0.12913,0.04919l0.06148,0.10084l0.17094,0.07379l0.00246,0.07747l0.16233,0.13158l0.0701,0.17708l-0.04058,0.17954l0.11806,0.17093l-0.01107,0.22258l0.02706,0.09715l0.14141,0.13527l0.12912,0.0455l0.2398,0.28897l0.09346,0.49803l0.14388,0.12666l0.15249,0.1943l-0.00615,0.18815l0.19676,0.07747l-0.08854,0.20044l-0.11682,0.02214l0.02336,0.20536l-0.02951,0.11191l0.08609,0.23119l0.00246,0.38736l0.13035,0.27299l0.09592,0.03689l0.2816,0.29145l0.19307,0.06148l0.15126,0.12666l0.08609,0.16233"></path></g></g></svg>