<svg version="1.1" xmlns="http://www.w3.org/2000/svg" xmlns:xlink="http://www.w3.org/1999/xlink" width="11.54412" height="9.97076" viewBox="0,0,11.54412,9.97076"><g transform="translate(-278.47141,-163.03936)"><g fill="#ff0000" fill-rule="evenodd" stroke="#ffffff" stroke-width="0" stroke-linecap="round" stroke-linejoin="round" stroke-miterlimit="10"><path d="M289.59323,163.9612l-0.00125,0.14201l0.09218,0.10713l-0.07723,0.11461l0.09094,0.1856l0.26285,0.22049l0.05481,0.13578l-0.06727,0.26783l-0.18064,0.09094h-0.26285l-0.16569,0.03238l-0.16195,0.20305l0.13703,0.26409l-0.02616,0.12208l0.1445,0.1769l0.02242,0.22299l-0.10465,0.0299l0.17565,0.36749l0.00872,0.17813l-0.07101,0.23045l0.04484,0.26408l-0.03986,0.07349l0.09592,0.1283l-0.05606,0.1009l0.00872,0.21054l0.15572,0.26161l-0.15696,0.03862l0.01619,0.11585l-0.09218,0.06976l-0.1358,0.00248l-0.01245,0.18686l-0.07723,0.14326l-0.08472,0.04111l-0.17067,0.37995l0.04112,0.12332l-0.06104,0.12955l0.02492,0.26909l-0.13453,0.25039l-0.09094,0.09716l-0.24416,-0.0274l-0.1171,0.0299l-0.13827,-0.21054l-0.16569,-0.04859l-0.22049,0.06354l-0.03612,0.19683l-0.11834,0.01619l-0.1171,-0.07101l-0.30021,-0.02492l0.01122,0.21924l-0.06853,0.10837l-0.19184,0.09966l-0.1582,-0.03362l-0.28278,0.02118l-0.13953,0.12954l-0.14575,0.01245l-0.19059,-0.11335l-0.11585,0.10963l-0.00997,0.25538l-0.22797,0.0274l-0.13827,0.08846l-0.15447,0.0299l-0.10465,0.07475l-0.04983,0.41607l0.00623,0.13329l-0.08097,0.04983l-0.12458,-0.06104l0.02866,-0.12083l-0.30021,-0.08222l-0.19433,0.07101l-0.08595,-0.02118l-0.18437,0.30895l0.08097,0.22423l-0.12208,0.18935l-0.06354,0.27032l-0.06229,0.12083l-0.76985,0.31641l-0.14575,0.12583l-0.24042,0.13579l-0.01869,-0.05481l-0.24914,-0.07724l-0.01245,0.13953l-0.16071,-0.07225l-0.07101,0.10589l-0.13205,-0.02865l-0.0299,-0.10465l-0.13081,0.01869l0.06478,-0.12458l-0.13329,-0.25163l-0.10339,-0.11834l-0.10215,-0.03488l-0.14575,-0.20804l0.07225,-0.10837l-0.03238,-0.12955l-0.22423,-0.05232l-0.09094,0.08472l-0.29897,-0.01619l-0.29025,0.03114l-0.15073,-0.20554l-0.06478,0.07225l-0.22921,-0.13827l-0.06352,0.05979l-0.47337,0.13703l-0.23171,0.00747l0.04484,-0.13827l-0.12954,-0.13453l-0.16817,0.01245l-0.00124,-0.08222l-0.20928,-0.1582l-0.13703,-0.18437l-0.00997,-0.1308l0.14575,-0.00124l-0.04734,-0.12208l-0.32263,-0.20927l-0.10589,-0.13703l-0.24666,-0.19557l-0.02866,-0.18686l-0.06602,-0.06602l0.11087,-0.21801l0.06976,-0.03987l0.01743,-0.16567l0.18437,-0.20554l0.03364,-0.15323l0.1009,-0.03986l0.03114,-0.12707l0.09094,-0.08846l-0.01495,-0.1196l0.20804,-0.01121l0.10837,-0.10589l-0.08472,-0.24791l-0.147,-0.19557l0.04734,-0.21925l0.07475,-0.02865l0.15198,-0.22921l-0.04485,-0.19683l0.03737,-0.19932l0.16071,0.02118l0.10713,-0.0573l0.05979,-0.16071l0.10463,-0.04859l-0.00125,-0.09841l0.11335,-0.1582l-0.11461,-0.11087l-0.0299,-0.19308l-0.07475,-0.05606l0.01869,-0.09841l0.26534,-0.17565l0.25413,-0.1196l-0.14077,-0.22049l-0.02118,-0.12583l0.05232,-0.16194l0.09841,-0.05606l0.09966,-0.19308l0.10963,-0.0299l-0.02118,-0.39366l0.17316,-0.03488l0.13827,-0.07599l0.15447,0.01121l0.17813,0.147l-0.03238,0.11212l0.0872,0.4659l0.10339,0.04983l0.20554,0.22673l0.47711,0.21676l0.17565,-0.21177l-0.15073,-0.2043l0.09466,-0.03862l0.13081,0.05357l0.16569,-0.01619l0.07599,0.09841l0.16443,-0.09468l0.16319,-0.00374l0.01245,0.24291l0.15323,0.09218l-0.09716,0.12831l-0.00747,0.15198l0.16195,0.10465l0.1495,-0.04983l0.07972,0.04734l0.15198,-0.16567l0.17813,-0.00872l-0.02865,-0.10463l0.30021,-0.10465l0.02242,-0.18437l-0.03987,-0.25911l-0.09342,-0.14824l0.03114,-0.36126l0.13205,-0.01993l0.14326,-0.14326l0.1196,-0.04111l0.07225,0.15073l0.21924,0.00374l0.01495,-0.21426l0.22423,-0.1632l0.26658,0.11585l0.30644,0.00747l0.06229,0.03114l0.31641,0.00248l0.02367,-0.10713l0.31891,-0.03364l0.03862,-0.21052l-0.06851,-0.08346l0.1308,-0.08472l-0.03737,-0.07724l0.18687,-0.1856l-0.11461,-0.1769l0.12333,-0.30645l0.19683,0.1196l0.10837,0.15322l0.35503,0.24666l0.08097,-0.11212l0.05232,-0.19185l0.09841,0.06354l0.20181,-0.04485l0.09841,-0.15572l0.14077,-0.01869l0.25163,0.1308l0.04236,0.06977h0.26534l0.27406,-0.25288l0.08222,-0.20554l0.06104,-0.02742l0.04733,-0.18062l0.16071,0.11834l0.13453,-0.07972l0.07724,-0.1856l0.16195,-0.09218l0.17191,0.08097l0.01371,0.14701l-0.05107,0.17316l0.06727,0.23295l0.25537,0.28777"></path></g></g></svg>