<svg version="1.1" xmlns="http://www.w3.org/2000/svg" xmlns:xlink="http://www.w3.org/1999/xlink" width="13.88221" height="17.48254" viewBox="0,0,13.88221,17.48254"><g transform="translate(-271.29617,-136.11305)"><g fill-rule="evenodd" stroke="#ffffff" stroke-width="0" stroke-linecap="round" stroke-linejoin="round" stroke-miterlimit="10"><path d="M284.92177,140.08068l0.11461,0.03862l0.12955,0.12458l0.01245,0.2753l-0.29026,0.22174l-0.01121,0.15322l-0.08846,0.06602l-0.10463,0.26909l-0.26909,0.11834l-0.24042,0.17068l-0.10339,0.01993l-0.13453,0.14575l-0.23669,0.1283l-0.218,-0.07475l-0.06851,0.09468l-0.24291,-0.1445l-0.09094,0.01993l-0.22673,-0.09218l-0.18437,0.18437l-0.02492,0.13453l-0.17316,0.26908l0.02742,0.1632l0.07225,0.06354l0.01371,0.15945l-0.03986,0.16693l0.04609,0.34257l-0.1171,0.07847l-0.09841,0.26161l-0.03114,0.23171h0.17689l0.00125,0.17316l0.07599,0.14202l-0.22298,0.25911l-0.21426,0.05108l-0.06478,0.26658l0.02367,0.37995l-0.11585,0.07225l-0.07101,0.1196l0.06229,0.07225l-0.07101,0.17565l0.08222,0.09592l-0.06354,0.16195l0.03612,0.0872l-0.04484,0.19185l-0.09468,0.06976l-0.08346,0.20057l0.08595,0.29399l-0.03362,0.08346l0.11461,0.2155l0.22673,0.1308l0.00498,0.12955l0.27281,0.18935l0.02242,0.07225l0.21177,-0.01245l0.16071,-0.10589l0.12333,0.2342l0.10339,0.1308l0.01993,0.01619l0.02492,-0.00374l0.04359,0.04112l0.06853,0.16071l-0.24791,0.1308l-0.1009,0.16443l-0.10713,0.04983l-0.10339,0.16817l-0.2043,0.15945l-0.27778,0.31516l-0.00872,0.22299l-0.09468,0.1856l-0.08346,0.02367l-0.22921,0.30272l-0.03489,0.13453l0.08222,0.12458l-0.23543,0.12083l-0.10589,0.24291l-0.15198,0.02492l-0.25163,0.22174l-0.23918,0.06354l0.0299,0.19308l-0.07101,0.12458l0.07599,0.15945l-0.04484,0.13951l0.07349,0.11834l0.09841,0.03489l0.02367,0.17813l0.07724,0.14575l0.01743,0.1769l-0.05232,0.0872l0.03238,0.37247l0.10339,0.13951l0.15073,0.03489l-0.06851,0.23669l-0.22547,0.16569l-0.30146,-0.15198l-0.28279,-0.02865l-0.07847,0.08097l-0.21302,-0.06104l-0.1333,0.03489l-0.12707,0.12208l-0.12083,-0.09094l-0.11087,-0.1495l-0.22673,0.07349l-0.13205,-0.01619l-0.17689,0.09342l-0.07847,0.24791l0.02492,0.13453l-0.05108,0.09967l0.00747,0.17813l-0.11087,0.09966l-0.1495,-0.05856l-0.21177,-0.02865l-0.07349,-0.07101l-0.20928,0.15198l-0.13329,0.03862l-0.10713,-0.07225l-0.24168,0.05979l-0.25661,0.09966l-0.11585,-0.00872l-0.22798,0.0897l-0.09592,-0.08471l0.076,-0.1881l0.23669,-0.17316l0.08471,-0.12955l0.18811,-0.01869l-0.1009,-0.19932l-0.03364,-0.15572l-0.13703,-0.01245l-0.0299,-0.11709l-0.17689,0.05854l-0.05232,-0.22547l0.03862,-0.14575l-0.13827,-0.04112l-0.06602,-0.17439l-0.10339,-0.0872l-0.03737,-0.35752l-0.07599,-0.07101l-0.07847,-0.31392l-0.30272,-0.1881l-0.17439,0.22921l-0.32263,-0.14201l-0.04983,-0.27156l-0.12707,-0.05605l-0.07847,-0.19932l0.00248,-0.23046h-0.16942l-0.13827,-0.06229l-0.11834,-0.14077l0.06354,-0.48334l-0.14575,-0.14326l0.08471,-0.17565l0.09716,-0.08097l-0.10963,-0.12955l-0.2043,0.11585l-0.1744,-0.06354l-0.26783,0.1769l-0.06352,0.1445l-0.21302,0.24666l-0.00125,-0.1769l-0.09967,-0.07475l-0.19932,0.10837l-0.1009,0.12707l-0.00125,0.24914l-0.39116,0.02242l-0.06602,0.08719l-0.0274,0.23046l-0.21676,0.15696l-0.12458,-0.11212l0.00997,0.23045l0.06851,0.15198l-0.16443,0.00125l-0.26035,0.1308l-0.20305,0.03238l-0.38243,0.1445l-0.13453,0.09716l-0.12083,0.02117l-0.06851,-0.07599l0.14824,-0.1495l-0.17439,-0.2753l-0.00747,-0.15073l-0.11709,0.03238l-0.06727,0.10339l-0.25911,-0.29399l0.01121,-0.25787l0.06727,-0.11335l0.15945,-0.00498l-0.01993,-0.10465l0.08222,-0.23543l-0.03736,-0.09342l-0.13953,-0.05357l-0.14575,0.04609l0.00746,-0.2155l0.09218,-0.1582l0.09592,-0.38493l0.10837,-0.22673l0.07847,-0.28776l0.31891,-0.45095l0.2915,-0.30647l0.33759,-0.26658l0.31516,-0.19184l0.05605,-0.06104l0.41732,-0.23543l0.53815,-0.36749l0.5394,-0.41109l0.19807,-0.20928l0.4385,-0.13951l0.01495,-0.04983l0.36999,-0.0274l0.60293,-0.21054l0.34383,-0.13453l0.05854,-0.10339l0.12332,-0.06977l0.08222,0.0573l0.07599,-0.15198l0.17316,-0.12458l0.05856,0.03737l0.38493,-0.28403l0.32762,-0.2915l0.39862,-0.4248l0.18187,-0.21801l0.45842,-0.64902l0.24914,-0.40237l0.2915,-0.52818l-0.02492,-0.25538l0.10963,-0.28651l0.15572,-0.29524l0.01121,-0.12083l-0.11087,-0.08471l0.09218,-0.41358l-0.00996,-0.17689l0.04111,-0.39739l-0.0299,-0.0573l0.04609,-0.38244l-0.01993,-0.38866l0.11461,-0.3052l-0.06354,-0.14575l0.09342,-0.17938l0.1196,-0.35005l0.1308,-0.16693l-0.00872,-0.09966l0.19185,-0.29897l0.13329,-0.40985l0.41483,-0.71877l0.10589,-0.22299l-0.02492,-0.14823l0.10963,0.12208l0.48458,0.29399l0.04859,0.07349l0.18062,-0.06478l0.21801,0.07101l0.11336,0.17439l0.15696,0.06229l0.11087,-0.02367l0.26035,0.05481l0.12458,-0.0299l0.10837,0.08346l0.23793,0.08346l0.06354,0.15572l-0.17191,0.23669l0.1009,0.33386l-0.04485,0.29524l0.00623,0.17813l-0.13827,0.21302l-0.01371,0.22299l0.09342,0.10465l0.12208,-0.11212l0.11211,0.19931l0.02242,0.15945l0.24168,0.19807l0.11585,-0.03362l0.11336,0.12954l0.16443,-0.00124l0.07101,0.06851l0.1744,-0.1009l0.1607,-0.01495l0.1333,0.17439l0.26408,0.03489l-0.00872,0.09841l0.21925,0.17191l0.11833,0.14325l0.05606,0.21178" fill="#ff0000"></path><path d="M277.19829,137.22798l-0.06104,0.2753l-0.07225,0.18935l-0.26783,0.25413l-0.14326,-0.00248l0.09716,-0.15945l0.00623,-0.17565l0.18935,-0.19931l-0.01495,-0.0573l0.2342,-0.25911l0.03238,0.13453" fill="#3b4238"></path></g></g></svg>