<svg version="1.1" xmlns="http://www.w3.org/2000/svg" xmlns:xlink="http://www.w3.org/1999/xlink" width="11.63376" height="8.43358" viewBox="0,0,11.63376,8.43358"><g transform="translate(-256.96265,-155.79795)"><g fill="#ff0000" fill-rule="evenodd" stroke="#ffffff" stroke-width="0" stroke-linecap="round" stroke-linejoin="round" stroke-miterlimit="10"><path d="M267.75571,160.19911l-0.12083,0.07101l-0.12831,-0.01619l-0.16693,0.05729l-0.16071,-0.0274l-0.29524,0.21054l-0.24291,0.06354l-0.01121,0.05232l-0.21426,0.05605l-0.03862,0.10339l-0.1495,0.12707l-0.03364,0.12456l-0.15198,0.29524l0.00872,0.14201l-0.08471,0.1632l-0.10837,0.07475l-0.07225,0.1283l-0.17316,-0.09468l-0.14575,0.02616l-0.26534,0.22423l-0.07475,0.21801l0.11336,0.15696l-0.13453,0.28403l0.09468,0.15945l-0.10713,0.19557l-0.1582,0.07475l-0.05481,-0.05232l0.01495,-0.16818l-0.04112,-0.08471l-0.23793,-0.07599l-0.24791,0.01869l-0.2043,-0.06478l-0.09094,0.14326l-0.12583,0.08472l-0.22174,0.02865l-0.18686,0.1171l-0.26534,-0.04485l-0.12083,-0.05357l-0.20804,0.00374l-0.19682,0.10713l-0.22299,0.21177l-0.10463,0.20306l0.0274,0.09841l-0.08719,0.10465l-0.19932,0.05979l-0.00499,-0.1171l-0.22423,-0.02118l-0.06104,-0.12831l-0.14824,-0.0274l-0.16817,-0.1171l0.20679,-0.24666l-0.05357,-0.1582l0.00996,-0.12458l0.18686,-0.27654l-0.00623,-0.20554l-0.19308,-0.02865l-0.02492,-0.16941l-0.13329,-0.01495l-0.14077,-0.08846l-0.18935,0.03737l-0.08471,-0.03862l-0.0897,0.13453l-0.11461,-0.04484l-0.07225,-0.12458l-0.19059,-0.01993l-0.15447,-0.0872l-0.32887,0.15447l-0.23171,-0.09094l-0.13953,0.04609l-0.01121,0.09218l0.10963,0.06603l-0.12083,0.1856l0.08222,0.20306l0.11958,0.07101l-0.27406,0.36874l0.01245,0.08846l-0.14575,0.14326l-0.17689,0.26161v0.15198l-0.10215,0.03238l-0.03489,0.12083l-0.33262,0.17938l-0.02241,0.11585l-0.19683,0.0872l-0.16567,0.11585l-0.0573,-0.12955l-0.1009,-0.08097l0.05729,-0.26286l-0.11709,-0.29026l-0.16071,-0.1308l0.0299,-0.12083l-0.01869,-0.21178l0.02866,-0.1582l-0.03862,-0.28777l-0.0897,-0.06602l-0.14824,-0.24666l-0.00498,-0.1607l0.06478,-0.05856l0.03362,-0.29399l-0.08846,-0.1308l-0.02742,-0.14201l-0.29524,0.01619l-0.26534,-0.16443l-0.18312,-0.23918l-0.20554,-0.16693l0.20181,-0.01371l0.35877,-0.15572l0.25413,-0.05979l0.83338,-0.36001l0.5805,-0.19557l0.19059,-0.1495l0.21054,-0.07475l0.48458,-0.12208l0.34257,-0.13453l0.34631,-0.22673l0.11087,-0.1632l0.15198,-0.04111l0.18187,-0.16195l0.15696,-0.08595l0.20554,-0.16942l0.15073,0.01743l0.12831,-0.03986l0.26409,-0.17565l0.14077,-0.24168l0.28527,-0.22921l0.10713,-0.19059l0.12831,-0.05979l0.26161,0.05856l0.11087,0.09592l0.24791,0.04733l0.31891,-0.04733l0.24291,-0.09342l0.24416,0.01371l0.2342,-0.1034l0.24666,-0.24914l0.12456,-0.09342l0.13953,-0.00872l0.49206,-0.41233l0.49455,-0.46965l0.78231,-0.81221l0.05979,0.19059l0.13329,-0.11212l0.12831,0.07599l0.36624,0.10837l0.20928,0.0274l0.27406,0.23171l0.13453,-0.04983l0.08471,0.05481l0.06478,0.16942l-0.18562,0.1495l-0.05605,0.22299l-0.13081,0.147l0.26909,0.18437l0.01619,0.18437l0.10713,0.10837l0.15073,-0.05357l0.09342,0.05108l-0.02742,0.12955l0.18686,0.17689l-0.08595,0.36874l-0.16071,0.13205l-0.0872,0.12332l-0.16071,0.01869l-0.04859,0.14077l0.04983,0.07847l-0.07599,0.19308l0.13703,0.19683l0.00872,0.11336l0.1196,0.09218l-0.10713,0.21924l0.00996,0.24416l0.04485,0.17565l-0.18935,0.1632l-0.00499,0.06104l-0.29025,0.08346"></path><path d="M265.06496,157.39623l-0.11461,0.09094l-0.06851,-0.08346l0.05481,-0.17191l0.12831,0.16443"></path></g></g></svg>