<svg version="1.1" xmlns="http://www.w3.org/2000/svg" xmlns:xlink="http://www.w3.org/1999/xlink" width="9.28953" height="10.02029" viewBox="0,0,9.28953,10.02029"><g transform="translate(-322.36194,-70.93111)"><g fill="#ff0000" fill-rule="evenodd" stroke="#ffffff" stroke-width="0" stroke-linecap="round" stroke-linejoin="round" stroke-miterlimit="10"><path d="M331.65147,76.63l-0.00551,0.17478l-0.09496,0.51746l0.06056,0.17617l-0.18028,0.61518l-0.00413,0.18442l0.06056,0.29176l-0.03029,0.12798l-0.21883,0.08258l-0.07019,0.28075l-0.1789,0.09634l-0.22707,0.34956l-0.20919,0.695l-0.04954,0.45141l0.06331,0.12938l-0.04816,0.14863l-0.36333,-0.45278l-0.27663,-0.13212l-0.1679,-0.15552l-0.05506,-0.11973l-0.2133,-0.17341l-0.03715,-0.2601l-0.15827,-0.23808l-0.04403,-0.139l-0.16377,-0.19818l-0.42389,-0.28764l-0.1101,-0.12248l-0.3303,-0.14588l-0.13487,-0.13762l-0.72803,-0.3303l-0.12111,-0.07844l-0.02477,-0.12523l-0.27386,-0.14175l-0.1679,-0.29865l-0.44315,-0.14725l-0.19818,-0.00551l-0.1445,-0.11423l-0.45554,-0.00137l-0.4803,-0.15414l-0.36607,-0.02065l-0.18028,-0.16102l-0.35782,-0.18028l-0.19818,-0.26561l-0.3303,-0.04129l-0.17754,-0.13899l-0.3413,-0.03165l-0.08808,-0.09634l-0.30828,-0.01377l-0.29312,-0.31929l0.05643,-0.16514l0.25322,-0.10322l-0.03166,-0.15l0.19266,-0.13625l0.21883,-0.01651l0.20093,-0.15414l0.10183,-0.1445l0.24634,-0.22983l-0.04954,-0.14725l0.09634,-0.08395l0.11423,-0.22983l-0.00276,-0.16927l0.24496,-0.3413l-0.04403,-0.34819l0.05092,-0.18578l0.12798,-0.14175l0.20782,-0.42113l-0.13212,-0.20782l0.06605,-0.17203l-0.15827,-0.22984l0.02202,-0.37709l0.35232,-0.07155l0.17617,-0.08119l0.20643,-0.16927l0.1156,0.04679l0.1445,-0.10047l0.2133,-0.00413l0.03028,-0.21056l0.18579,-0.04679l0.08809,0.22433l0.14038,0.09359l0.07431,0.32479l0.2835,-0.04679l0.08946,0.08808l0.21607,0.03853l0.04403,0.23946l0.22983,0.23395l0.04679,0.19679l0.15276,0.14588l0.11835,0.18992l0.13625,0.03853l0.14175,0.34544l0.20506,0.10597l0.03715,0.15414l0.15552,0.18028l0.11834,0.00276l0.09634,0.28764l0.2835,0.22983l0.03028,0.1968l0.40049,0.09633l0.08119,0.10873l-0.01652,0.13349l0.07982,0.22983l0.2133,0.03441l0.22434,0.1156l-0.01652,0.21469l0.24772,0.32341l0.18028,-0.00826l0.10186,0.0867l0.00826,0.14863l0.13763,0.3358l0.32617,0.26974l0.13349,-0.07844l0.26974,0.12248l0.0523,0.13899l0.17203,-0.0055l0.00688,0.11147l0.4404,-0.08532l0.08532,0.09084l0.26699,0.04542"></path></g></g></svg>