<svg version="1.1" xmlns="http://www.w3.org/2000/svg" xmlns:xlink="http://www.w3.org/1999/xlink" width="12.06997" height="8.11302" viewBox="0,0,12.06997,8.11302"><g transform="translate(-187.52294,-196.93242)"><g fill="#ff0000" stroke="#ffffff" stroke-width="0" stroke-linecap="round" stroke-linejoin="round" stroke-miterlimit="10"><path d="M198.05418,197.64847l-0.09044,0.0062l0.06442,0.23417l-0.14744,0.12514l-0.26267,0.08921l0.06442,0.3085l0.14,0.06319l0.22797,0.02478l0.10284,0.17222l-0.00496,0.07062l0.22425,0.41134l0.10902,0.11275l-0.06194,0.14495l-0.13877,-0.02973l-0.07309,-0.08426l-0.11275,0.04089l0.15363,0.21929l0.00991,0.07558l-0.11275,0.12637l0.12637,0.0793l0.05204,0.35806l-0.04214,0.10035l0.10284,0.10532l0.23417,0.14744l0.10532,0.12637l-0.00373,0.24161l0.12513,0.08177l0.13009,-0.07062l0.30477,0.14868l0.21187,-0.03966l0.09044,0.08053l0.00991,0.22425l-0.19948,-0.12514l-0.14124,0.09416l-0.22921,-0.08673l-0.24531,0.01239l-0.17345,0.14744l-0.24284,-0.02229l-0.21806,0.01982l-0.11895,0.16355l-0.18708,0.057l-0.08301,0.21063l-0.19081,0.00991l-0.14867,-0.11522l0.02106,-0.10655l-0.20938,-0.07806l-0.21929,0.12266l-0.083,0.19328l-0.16726,0.27877l-0.19452,-0.06319l-0.12266,0.00124l-0.02973,0.08673l0.23169,0.34072l-0.17346,0.09663l0.02354,0.08549l-0.337,-0.02602l-0.15859,0.02229l-0.25027,0.08426l-0.1338,0.17717l-0.03593,0.14248l-0.07558,0.04956l-0.15859,-0.12266l-0.1239,0.07433l0.04833,0.07682l-0.28744,0.08673l-0.14868,-0.11895l-0.28992,-0.13504l0.03593,-0.09541l-0.1177,-0.04089l-0.10532,0.23417l-0.23044,0.19451l-0.19328,0.09293l-0.18832,-0.02106l0.06938,-0.2069l-0.15239,-0.18832l0.08053,-0.09663l0.1276,0.00247l0.12514,-0.1462l-0.36425,-0.09168l0.01487,-0.11274l-0.09167,-0.09664l-0.10284,0.02106l-0.00247,-0.16232l0.057,-0.2131l-0.12389,-0.1623l-0.05204,-0.1524l-0.13009,-0.19948l0.13256,-0.26761l-0.07433,-0.05575l-0.03221,-0.15488l0.31346,-0.16602l-0.08673,-0.0508l-0.10532,0.10284l-0.17594,0.03346l-0.16726,-0.04831l-0.11646,0.057l-0.20567,0.00124l-0.03346,0.17965l-0.1462,-0.07186l0.02354,-0.10037l-0.26142,-0.11522l-0.06939,0.04213l-0.19451,-0.08673l-0.27133,0.03964l0.01612,0.12018l-0.15115,0.07309l-0.05452,-0.1239l-0.11275,0.07186l-0.04336,0.14248l-0.13505,0.057l-0.1239,-0.09663l-0.08921,0.0954l0.01735,0.09044l-0.29612,0.42249l-0.12142,0.09167l-0.06442,0.17222l-0.22053,0.20071l-0.05823,-0.01982l-0.12514,0.13753l-0.18832,0.08797l-0.06319,0.15239l-0.02229,0.19824l0.14248,0.12389l0.10655,0.18214l-0.02354,0.06566l-0.28868,0.03345l-0.09912,0.07309l-0.16107,-0.06319l-0.09912,0.01115l0.11026,-0.24035l-0.39771,-0.16107l-0.1685,0.06689l-0.08053,-0.11895l-0.03221,-0.19699l-0.17097,-0.32958l0.07558,-0.14371l-0.01858,-0.0892l-0.12143,-0.11646l-0.07062,-0.23912l0.08426,-0.23044l-0.12639,-0.05327l-0.17097,0.01362l-0.05204,-0.23541l-0.18957,-0.13134l-0.18213,-0.01982l-0.01115,-0.23417l0.08673,-0.27381l-0.09168,-0.04213l0.057,-0.14867l-0.07062,-0.21434l0.057,-0.04956l0.04336,-0.27257l0.04956,-0.08797l-0.1177,-0.22178l-0.03593,-0.14124l-0.13876,-0.28496l0.02849,-0.08426l-0.09293,-0.10037l-0.19575,-0.03469l0.13256,-0.1685l0.06939,-0.26761l0.38779,-0.11028l0.20072,-0.2639l0.16726,-0.11274l0.1462,-0.30974l0.14868,0.15859l0.06195,0.13753l0.08301,-0.02106l0.08673,0.23665l0.13753,0.12018l0.2131,0.04089l-0.21929,0.20815l0.0446,0.10532l0.21434,0.24409l0.10407,0.07558l0.09663,-0.04584l0.02229,-0.15611l0.11522,-0.06689l0.29735,0.1016l0.00744,-0.14248l0.11895,-0.19081l0.36798,-0.18957l0.32338,-0.1276l0.32212,-0.06815l0.1462,0.0508l0.12142,-0.03964l0.18708,0.14371l0.08797,-0.04584l0.18584,-0.2131l0.01114,-0.13381l-0.04213,-0.18088l0.03469,-0.12886l0.1239,-0.18461l0.18832,0.07186l0.13009,-0.06072l0.16232,0.1685l0.22054,-0.16973l0.09541,-0.15859l0.19699,0.03098l0.22178,0.19204l0.1685,0.0384l0.09416,-0.15859l0.06691,0.00867l0.16973,0.3494l0.38037,0.15982l0.11026,0.12886l0.15736,-0.1685l0.06689,-0.15239l0.14868,-0.01115l0.00496,-0.15362l0.06195,-0.07433l0.23417,0.06071l0.16355,-0.07309l0.10284,0.03717l0.1338,-0.11026l0.17717,0.04336l0.17097,0.2131l0.01487,0.08921l-0.13381,0.27752l0.10902,0.28868l-0.06442,0.07433l0.11769,0.08426l0.08426,-0.04833l0.01858,-0.13009l0.07806,-0.10655l0.16355,0.00247l0.14495,-0.0446l0.23044,-0.25771l0.21682,-0.01858l0.1623,-0.11274l-0.00991,-0.20815l0.10035,-0.14495l0.00991,-0.12886l0.08176,-0.10655l0.11647,-0.00247l0.31965,0.24531h0.12886l0.16602,-0.11026l0.06071,0.04584l0.15611,-0.05204l0.13381,0.24159l0.08053,0.04336l0.02973,0.18088l-0.11895,0.12142" fill-rule="evenodd"></path><path d="M193.18504,202.50522l0.03718,0.29239l-0.07309,0.18088l-0.00247,0.26515l-0.19203,0.10283l-0.02725,0.18832l0.09788,0.12266l0.12886,0.29859l-0.09168,0.15115l-0.25275,0.14248l-0.25522,-0.01362l-0.06195,-0.10655l0.10037,-0.12886l-0.0161,-0.26886l0.04831,-0.22053l-0.06071,-0.16479l-0.07433,0.00124l-0.03718,0.23665l-0.14,-0.01735l-0.01982,-0.24902l-0.16479,-0.10779l-0.24284,-0.29487l0.00867,-0.26019l-0.05823,-0.23417l0.07309,-0.057l0.37293,0.04336l0.31221,0.52904l0.16973,-0.08921l0.08921,0.19948l0.10532,0.10037l0.05947,-0.35683l-0.12886,-0.21063l-0.21063,-0.1276l-0.00743,0.1016l-0.19452,0.01239l-0.03469,-0.09416l0.1276,-0.11275l0.01238,-0.1363l-0.0892,-0.06071l-0.01859,-0.15736l0.30974,-0.04336l0.2577,0.01362l-0.01734,-0.14124l0.03221,0.12514l0.14124,0.15859l0.05947,0.13256l-0.07186,0.25522" fill-rule="evenodd"></path><path d="M193.77974,203.68223l-0.01487,0.1338l-0.10902,-0.01487l-0.11769,0.11895l0.11399,0.14991l0.23044,-0.02849l-0.03099,0.30727l-0.11646,0.11646l0.02849,0.15982l0.11646,-0.10407l0.14,0.00373l0.16602,-0.14991l0.11274,0.06689l-0.16479,0.11026l-0.02478,0.27257l-0.14371,0.21807l-0.22921,-0.18213l-0.06319,-0.1363l-0.09912,0.12637l-0.27877,-0.12018l-0.0446,0.18461h-0.1747l-0.15239,0.0446l-0.12142,0.08426l-0.06691,-0.03964l-0.11646,-0.28992l0.05327,-0.11275l0.25276,-0.0954l0.20566,-0.18584l0.19081,-0.03964l0.04833,-0.16106l-0.13381,-0.04584l-0.0508,-0.22921l0.12142,-0.34196l0.18955,-0.10655l0.10779,-0.11647l0.09787,-0.00373l0.00744,0.19328l0.13628,-0.03098l0.11646,0.16726l-0.18214,0.07682" fill-rule="evenodd"></path><path d="M191.30181,202.1583l-0.33329,0.25894l-0.1239,0.19452l-0.24035,0.14495l-0.14868,0.01982l-0.06939,-0.24779l0.20319,-0.32833l0.08301,-0.22921l0.14371,-0.0954l0.16726,-0.02726l0.22674,-0.23417l0.07681,0.19824l0.10902,0.09416l-0.0062,0.14l-0.08797,0.11151" fill-rule="evenodd"></path><path d="M195.35324,203.71939l-0.14124,-0.08176l-0.14867,0.04956l0.04833,-0.20566l0.09044,-0.12639l0.23664,-0.10779v0.09912l0.11769,0.11895l-0.10283,0.18957l-0.10037,0.06442" fill-rule="evenodd"></path><path d="M192.09475,204.06632l-0.22053,-0.03221l-0.05204,-0.10408l-0.01858,-0.21559l0.04833,-0.09293l0.2639,0.14248l0.12762,0.14001l-0.04214,0.11893l-0.10655,0.04336" fill-rule="evenodd"></path><path d="M192.33016,201.73705l0.12018,-0.17841l-0.01487,-0.08177l0.10407,-0.08673l0.057,0.12142l-0.04087,0.23169l-0.12886,0.06442l-0.09663,-0.07062" fill-rule="evenodd"></path><path d="M190.69472,203.44682l0.0508,-0.15362l0.18957,0.01362l0.09663,0.1276l-0.22301,0.05204l-0.11399,-0.03966" fill-rule="evenodd"></path><path d="M193.04874,201.0804l0.06319,0.16479l-0.07309,0.07062l-0.04833,-0.21807l0.05823,-0.01734" fill-rule="evenodd"></path><path d="M193.79503,203.81756l-0.10903,-0.01487l-0.1177,0.11896l0.11399,0.14992l0.23046,-0.0285l-0.03098,0.30728l-0.11646,0.11646l0.0285,0.15983l0.11646,-0.10408l0.14001,0.00371l0.16602,-0.14991l0.11275,0.06691l-0.16479,0.11028l-0.02478,0.27258l-0.14372,0.21808l-0.22921,-0.18214l-0.06319,-0.1363l-0.09912,0.12639l-0.27878,-0.12019l-0.0446,0.18461h-0.1747l-0.1524,0.0446l-0.12143,0.08426l-0.06691,-0.03966l-0.11646,-0.28993l0.05327,-0.11275l0.25276,-0.0954l0.20567,-0.18586l0.19081,-0.03964l0.04833,-0.16107l-0.13381,-0.04584l-0.0508,-0.22921l0.12143,-0.34197l0.18957,-0.10655l0.10779,-0.11646l0.09789,-0.00373l0.00744,0.19329l0.1363,-0.03098l0.11646,0.16727l-0.18214,0.07682l-0.01487,0.13381" fill-rule="nonzero"></path><path d="M192.12234,204.06537l-0.22054,-0.03221l-0.05204,-0.10408l-0.01859,-0.2156l0.04833,-0.09293l0.26391,0.14248l0.12762,0.14001l-0.04213,0.11895l-0.10655,0.04337" fill-rule="nonzero"></path><path d="M195.38098,203.71845l-0.14125,-0.08177l-0.14868,0.04957l0.04833,-0.20569l0.09044,-0.12639l0.23666,-0.10779v0.09912l0.1177,0.11895l-0.10284,0.18957l-0.10037,0.06442" fill-rule="nonzero"></path><path d="M190.77184,203.28479l0.18957,0.01362l0.09664,0.12762l-0.22301,0.05204l-0.11399,-0.03964l0.0508,-0.15363" fill-rule="nonzero"></path><path d="M193.21269,202.50421l0.03717,0.29239l-0.0731,0.1809l-0.00247,0.26515l-0.19205,0.10284l-0.02725,0.18834l0.09789,0.12266l0.12886,0.2986l-0.09168,0.15116l-0.25276,0.14249l-0.25525,-0.01362l-0.06195,-0.10655l0.10037,-0.12886l-0.01612,-0.26887l0.04833,-0.22054l-0.06071,-0.16479l-0.07433,0.00124l-0.03718,0.23666l-0.14001,-0.01734l-0.01982,-0.24904l-0.16479,-0.10779l-0.24285,-0.29489l0.00867,-0.26019l-0.05824,-0.23418l0.0731,-0.057l0.37295,0.04337l0.31224,0.52906l0.16976,-0.08921l0.08921,0.19949l0.10532,0.10037l0.05947,-0.35684l-0.12886,-0.21063l-0.21063,-0.12762l-0.00744,0.10158l-0.19452,0.01239l-0.03469,-0.09417l0.12762,-0.11275l0.01238,-0.1363l-0.08921,-0.06071l-0.01858,-0.15736l0.30975,-0.04336l0.25771,0.01362l-0.01735,-0.14125l0.03221,0.12514l0.14125,0.1586l0.05947,0.13256l-0.03221,0.2255l-0.03964,0.02973" fill-rule="nonzero"></path><path d="M190.99485,202.41748l-0.1239,0.19453l-0.24036,0.14495l-0.14869,0.01982l-0.06939,-0.2478l0.2032,-0.32835l0.08303,-0.22921l0.14372,-0.09541l0.16727,-0.02725l0.22675,-0.23418l0.07682,0.19824l0.10903,0.09417l-0.0062,0.14001l-0.08798,0.11151l-0.33329,0.25896" fill-rule="nonzero"></path><path d="M192.48168,201.56255l-0.01487,-0.08177l0.10408,-0.08673l0.057,0.12143l-0.04087,0.23169l-0.12886,0.06442l-0.09664,-0.07062l0.12019,-0.17841" fill-rule="nonzero"></path><path d="M193.13835,201.24041l-0.0731,0.07062l-0.04831,-0.21806l0.05824,-0.01735l0.06319,0.16479" fill-rule="nonzero"></path></g></g></svg>