<svg version="1.1" xmlns="http://www.w3.org/2000/svg" xmlns:xlink="http://www.w3.org/1999/xlink" width="8.42374" height="8.27502" viewBox="0,0,8.42374,8.27502"><g transform="translate(-216.43299,-181.05748)"><g fill="#ff0000" fill-rule="evenodd" stroke="#ffffff" stroke-width="0" stroke-linecap="round" stroke-linejoin="round" stroke-miterlimit="10"><path d="M221.99103,181.20737l0.25894,0.26637l0.15983,-0.21434l0.16353,-0.02849l0.02106,0.00991l0.00373,-0.00124l-0.04089,0.09788l0.03718,0.23664l0.08301,0.23169l-0.10407,0.33079l-0.14248,0.15488l0.10779,0.03593l0.16232,0.19699l0.06566,0.15115l0.24531,0.12142l0.02725,0.1016l0.14495,0.06815l0.05574,0.10283l-0.05204,0.15859l0.18584,0.24409l0.14868,-0.0384l0.2639,-0.00496l0.02354,-0.08053l0.34814,-0.22054l0.18088,0.01114l0.23788,-0.09787l0.12018,0.02229l-0.00867,0.12142l0.08426,0.16106l-0.03593,0.58354l0.06566,0.40514l0.05452,0.06071l-0.03469,0.41258l0.02106,0.25152l-0.23169,-0.04213l-0.00371,0.06939l-0.13009,0.1747l-0.35434,0.12762l-0.02479,-0.10902l-0.09663,-0.08426l-0.12266,-0.00867l-0.14867,-0.15362l-0.15859,-0.06442l-0.17097,0.11151l-0.11522,0.22674l0.04708,0.2069l-0.09788,0.19824l0.057,0.15488l-0.07806,0.2131l0.10407,0.05327l0.03099,0.09787l-0.08426,0.19451l0.04213,0.08797l0.15982,0.06071l0.00744,0.10902l-0.16232,0.1747l-0.02602,0.1747l-0.09663,0.16479l-0.10037,0.09168l-0.06938,0.19203l0.09416,0.20195l-0.0508,0.17346l0.16973,0.1685l-0.0384,0.09787l-0.1747,0.16726l-0.12266,0.0062l-0.10654,0.13133l-0.04708,0.15859l-0.15611,0.10283l-0.27628,0.09167l0.00247,0.19452l-0.11275,0.14124l-0.12637,0.08301l-0.14371,-0.11399l-0.10407,0.02973l-0.19081,-0.03346l-0.19948,0.25027l-0.12142,-0.28619l-0.10779,0.12142l-0.24655,-0.06691l-0.1462,-0.28619l0.05947,-0.09167l-0.13256,-0.20442l0.12143,-0.14495l-0.08921,-0.20071l-0.12266,-0.14868l-0.15488,-0.03593l-0.00496,-0.22053l-0.08673,-0.08921l0.08176,-0.10283l-0.10407,-0.08176l-0.08053,0.08176l-0.14371,-0.12762l-0.20815,-0.05204l-0.03099,-0.12639l-0.21186,-0.25522l-0.17717,0.00991l-0.07806,0.12886l-0.15983,0.04336l-0.24035,-0.22921l-0.02602,-0.22054l-0.08177,-0.02478l-0.13877,-0.14371l-0.13876,-0.03099l-0.06071,-0.09663l-0.20318,-0.10532l-0.27258,-0.24035l0.04336,-0.18708l-0.09044,-0.22674l-0.20319,-0.05204l-0.14744,-0.08301l-0.04089,-0.08176l0.1239,-0.46213l-0.05823,-0.06195l0.03966,-0.15859l-0.2131,-0.17965l-0.12886,0.00496l-0.15735,-0.11398l-0.06691,-0.39027l0.04584,-0.07062l-0.13009,-0.33948l0.04336,-0.08921l-0.22054,-0.23044l0.09416,-0.16726l0.05452,-0.35683l-0.0446,-0.16602h-0.14248l-0.06071,-0.11895l0.03964,-0.25275l-0.08301,-0.1177l-0.17717,-0.13256l-0.19576,-0.07433l-0.01982,-0.09168l0.21682,0.01362l0.09787,-0.09168l0.09044,0.04708l0.27628,-0.07433l0.11275,0.00867l0.00991,-0.18832l0.22674,0.06566l0.12018,-0.16726l0.11274,0.01858l0.22301,-0.21806l0.19328,-0.12639l0.08549,0.04956l0.32956,-0.18461l0.14497,0.18214l0.15735,0.0446l0.2701,-0.05575l0.09541,0.05823l0.09663,-0.04336l0.16973,0.26763l0.18708,-0.02478l0.00373,-0.11769l0.14371,-0.00124l0.07062,-0.15488l0.20938,-0.10284l0.03469,0.06442l0.36921,0.13134l0.15735,-0.057l0.02725,-0.11895l0.16726,-0.02354l0.1462,0.10902l0.25522,-0.01981l0.16355,0.03469l0.17097,-0.11769l0.13628,-0.04584l0.10902,0.08549l0.17717,0.05575"></path></g></g></svg>