<svg version="1.1" xmlns="http://www.w3.org/2000/svg" xmlns:xlink="http://www.w3.org/1999/xlink" width="9.40372" height="10.72082" viewBox="0,0,9.40372,10.72082"><g transform="translate(-254.89558,-186.62288)"><g fill="#ff0000" fill-rule="evenodd" stroke="#ffffff" stroke-width="0" stroke-linecap="round" stroke-linejoin="round" stroke-miterlimit="10"><path d="M261.56366,186.85705l0.02479,0.22921l-0.16107,0.14248l0.02229,0.08797l0.12389,-0.00373l0.03346,0.09664l-0.04336,0.1623l0.2986,0.21929l-0.04336,0.10283l0.04336,0.1462l-0.35187,0.49807l-0.09044,0.1747l-0.01735,0.30604l0.08796,0.05204l0.06071,0.22921l0.2069,-0.02354l0.35187,0.34816l-0.14371,0.27628l0.00496,0.23417l-0.08426,0.0793l0.10655,0.27133l0.00124,0.16355l-0.32584,0.21682l-0.00124,0.08426l0.15115,0.15115l0.03593,0.14992l-0.08673,0.11769l-0.21434,0.15115l-0.01858,0.11026l0.07062,0.27877l-0.0062,0.18584l0.07062,0.11769l0.19204,0.05327l0.08176,0.09788l0.04833,0.19948l0.12142,0.07062l-0.00247,0.19081l-0.13381,0.19204l0.02725,0.34567l0.27628,0.03098l0.06319,0.21807l0.22178,0.04708l0.06939,0.11522l-0.01487,0.16974l0.05204,0.11151l0.0954,0.02849l0.08301,0.18337l0.08921,0.09168l0.12637,-0.20567l0.09416,0.33452l-0.01362,0.28124l-0.06566,0.03099l-0.03593,0.19824l0.12389,0.14495l-0.02354,0.23044l0.07186,0.19699l-0.00247,0.22921l0.21929,0.1016l0.1239,0.1363l0.00744,0.15611l0.10655,0.03346l0.00744,0.1462l-0.17965,0.23664l0.03221,0.29487l0.11275,-0.01982l0.18832,0.1016l0.14124,-0.02229l0.18584,0.20071l0.11769,-0.0062l0.02106,0.12018l-0.07309,0.06442l-0.25522,-0.07806l-0.18213,-0.00744l-0.15488,-0.1016l-0.41629,-0.15239l-0.1016,-0.06442l-0.64055,-0.27752l-0.35187,-0.1239l-0.48568,-0.13877l-0.43239,-0.09044l-0.39027,-0.04833l-0.33452,-0.0161l-0.88462,0.14495l-0.31841,0.08053l-0.20567,0.08549l-0.13628,0.01859l-0.28124,-0.01982l-0.35806,-0.15239l-0.22797,-0.05823l-0.87347,-0.16107l-0.45593,-0.05204l-0.28992,-0.00496l-0.34814,-0.06319l-0.61577,0.04089l-0.45471,0.0508l0.08426,-0.42745l-0.05575,-0.22053l-0.05824,-0.04214l-0.02478,-0.31098l-0.08053,-0.14124l0.04089,-0.1016l-0.00867,-0.27381l0.06566,-0.11275l0.13505,-0.06939l0.01859,-0.22424l-0.09168,-0.15115l0.18214,-0.1747l-0.02106,-0.12018l0.22054,-0.06939l0.07558,-0.07681l0.18461,-0.01239l0.15115,-0.11522l0.17593,-0.04087l0.2701,0.03221l0.1016,-0.13753l0.02849,-0.20195l0.23292,-0.04336l0.21434,-0.15362l0.0954,-0.11399l-0.01115,-0.1747l0.09293,-0.11275l-0.01115,-0.1016l0.07186,-0.10037l-0.02229,-0.11895l0.10532,-0.16973l0.13753,-0.05575l0.06071,0.04336l0.25522,-0.39399l0.13877,-0.01239l-0.09167,-0.18955l0.1016,-0.1462l-0.08796,-0.13753l0.07062,-0.21187l0.12142,-0.14992l0.00991,-0.11646l0.14248,-0.07806l0.14248,-0.24531l0.3494,-0.23912l0.0892,-0.08549l0.01362,-0.29487l0.20072,0.02849l0.10283,-0.16726l-0.04956,-0.30974l0.10655,-0.06071l0.19824,-0.25647l0.08796,-0.05947l-0.0954,-0.09912l0.05204,-0.14744l-0.09168,-0.09787l-0.0954,-0.00247l-0.08921,-0.12514l0.13133,-0.04833l0.09788,-0.25647l0.08549,-0.1276l0.11769,-0.01364l0.08426,-0.12886l0.17717,-0.03469l0.16479,0.06689l0.09788,-0.11399l0.05575,-0.14991l-0.02973,-0.17964l0.15982,-0.14992l0.14248,0.057l0.14495,-0.00247l0.07682,-0.08921l0.05575,-0.23044l0.18461,-0.01239l0.0954,-0.10283l0.19081,-0.01735l0.07558,-0.1338l0.11149,0.00991l0.12018,-0.14124l0.1685,-0.04089l0.1623,0.04956l-0.08053,0.18461M255.82104,194.72574l0.15362,-0.05824l0.13504,-0.34072l-0.28744,-0.07433l-0.01487,0.46213l-0.11893,0.0062l-0.11399,0.11152l-0.00867,0.11151l0.10902,0.11646l0.057,0.2069l-0.15982,0.02229l0.20442,0.19824l0.09788,-0.06815l0.06566,0.18957l0.0954,0.0954l-0.02478,0.12639l0.17965,0.07186l0.11769,0.12142l0.23665,0.03346l-0.00247,-0.09541l0.13877,-0.27752l0.03966,-0.21806l0.1016,-0.14495l0.16479,-0.1016l-0.17965,-0.21434l-0.05204,0.23294l-0.14744,-0.05575l-0.07309,0.20567l-0.14495,0.06815l-0.07929,-0.06072l0.05823,-0.26515l0.1016,-0.18708l0.39524,-0.43239l0.11026,-0.00496l0.04089,-0.14992l-0.29983,-0.12266l-0.14,0.30479l-0.09663,-0.1016l-0.37666,0.10408l-0.02973,0.17222l-0.13133,0.1363l-0.12142,-0.1239"></path></g></g></svg>