<svg version="1.1" xmlns="http://www.w3.org/2000/svg" xmlns:xlink="http://www.w3.org/1999/xlink" width="8.56816" height="7.79202" viewBox="0,0,8.56816,7.79202"><g transform="translate(-289.8573,-140.65241)"><g fill="#ff0000" fill-rule="evenodd" stroke="#ffffff" stroke-width="0" stroke-linecap="round" stroke-linejoin="round" stroke-miterlimit="10"><path d="M298.42542,142.13611l-0.1283,0.29774l-0.17813,0.51324l-0.09466,0.35503l-0.07723,0.48707l-0.03489,0.57926l-0.08222,0.51822l0.00248,0.52694l0.09716,0.79477l0.10215,0.32139l-0.37497,-0.02242l-0.03737,-0.08472l-0.34755,0.10339l-0.17316,0.0872l-0.02117,0.25911l0.07599,0.11585l-0.02616,0.17191l-0.1009,0.11087l0.06727,0.32513l-0.02865,0.11461l0.05605,0.10963l-0.00248,0.18187l-0.07724,0.11834l-0.26534,0.00872l-0.08471,-0.06229l-0.15945,0.04859l-0.44596,-0.16817l-0.03114,0.14077l0.27406,0.24042l-0.08846,0.11585l-0.15198,-0.11087l-0.4634,-0.08472l-0.13703,0.0897l-0.04982,-0.17316l-0.14326,-0.12831l-0.21302,-0.04112l-0.18562,-0.52943l0.09218,-0.08596l0.07474,-0.23295l-0.12582,-0.26909l0.1009,-0.15073l-0.0299,-0.0872l-0.26783,-0.09342l-0.0872,-0.09218l-0.19059,0.08596l-0.21676,-0.0573l-0.1445,-0.24791l-0.2479,0.13578l-0.14326,-0.04235l-0.22298,-0.21924l-0.04236,0.17938l-0.32513,0.05979l-0.18811,-0.01869l-0.07475,0.08346l-0.16942,-0.01619l-0.17316,0.07847l-0.1445,-0.11585l-0.0897,-0.17316l-0.02492,-0.31517l0.09218,-0.14077l-0.16693,-0.09218l-0.17067,0.02367l-0.03862,-0.09218l-0.13205,0.04983l-0.31018,-0.15696l-0.02118,-0.15696l-0.11087,-0.01245l-0.16195,0.15073v0.1769l-0.37995,-0.06603l-0.08097,0.12208l-0.24666,-0.1283l-0.15198,0.00248l-0.17813,-0.17316l-0.13329,-0.01993l-0.1445,-0.09966l-0.06229,-0.11461l0.02367,-0.1632l0.15696,-0.2043l-0.16071,-0.33884l-0.00872,-0.11709l0.07475,-0.12955l-0.05979,-0.18935l0.1495,-0.05107l0.19185,0.08471l0.1308,-0.06977l0.36874,0.07973l0.13703,-0.08097l0.24168,0.01619l0.09218,-0.10963l0.1769,-0.07847l0.26286,-0.17439l0.03737,-0.07724l-0.04111,-0.27905l0.16941,-0.37995l0.18312,-0.04734l-0.03737,-0.1445l0.11585,-0.19059l0.19557,-0.09468l0.02367,-0.2155l0.13205,-0.18312l-0.03612,-0.29524l-0.07972,-0.21801l0.04236,-0.1582l-0.06229,-0.06104l-0.00124,-0.23045l0.04111,-0.14824l0.10838,-0.04734l0.25413,-0.00374l0.07475,-0.06104l0.50701,-0.03238l0.17813,-0.09841l0.28153,0.06977l0.28279,-0.03238l0.17067,0.10465l0.10589,0.00623l0.24791,0.14824l0.00872,0.13453l0.20055,0.01121l0.20305,0.21676l0.23918,0.09592l0.24915,0.05357l0.16693,0.09342l0.07724,0.17316l0.02242,0.26783l0.16195,0.09716l0.24666,-0.04359l0.14201,0.06851l0.31641,-0.19185l-0.19059,-0.11709l-0.12458,-0.12208l-0.05107,-0.19061l0.17191,-0.06104l0.10712,0.1196l0.1333,-0.12707l0.12083,0.02865l0.22547,0.15198l0.23045,0.08472l-0.04609,0.11087l0.09218,0.11461l0.41109,-0.0299l0.20804,0.09342l0.22797,0.01371l0.08097,-0.03862l0.26534,0.17938"></path></g></g></svg>