<svg version="1.1" xmlns="http://www.w3.org/2000/svg" xmlns:xlink="http://www.w3.org/1999/xlink" width="169" height="169" viewBox="0,0,169,169"><defs><radialGradient cx="240" cy="180" r="84.5" gradientUnits="userSpaceOnUse" id="color-1"><stop offset="0" stop-color="#ffffff" stop-opacity="0.13333"></stop><stop offset="1" stop-color="#ffffff" stop-opacity="0"></stop></radialGradient></defs><g transform="translate(-155.5,-95.5)"><g stroke-miterlimit="10"><path d="M155.5,180c0,-46.66806 37.83194,-84.5 84.5,-84.5c46.66806,0 84.5,37.83194 84.5,84.5c0,46.66806 -37.83194,84.5 -84.5,84.5c-46.66806,0 -84.5,-37.83194 -84.5,-84.5z" fill="url(#color-1)" fill-rule="nonzero" stroke="#000000" stroke-width="0" stroke-linecap="butt" stroke-linejoin="miter"></path><path d="M176.99211,180.00001v0c0,-34.79828 28.2096,-63.00788 63.00791,-63.00788v0v0c16.71069,0 32.73699,6.63831 44.55328,18.45459c11.81628,11.81628 18.45459,27.84259 18.45459,44.55329v0v0c0,34.79828 -28.20959,63.00787 -63.00787,63.00787v0v0c-34.79831,0 -63.00791,-28.20959 -63.00791,-63.00787z" fill="#bcbc6d" fill-rule="evenodd" stroke="none" stroke-width="1" stroke-linecap="square" stroke-linejoin="miter"></path><path d="M187.92827,179.99129v0c0,-28.7536 23.30939,-52.06299 52.06302,-52.06299v0v0c13.80792,0 27.05035,5.48517 36.81409,15.2489c9.76367,9.76373 15.2489,23.00611 15.2489,36.8141v0v0c0,28.7536 -23.30939,52.06299 -52.06299,52.06299v0v0c-28.75363,0 -52.06302,-23.30939 -52.06302,-52.06299z" fill="#ffff96" fill-rule="evenodd" stroke="none" stroke-width="1" stroke-linecap="square" stroke-linejoin="miter"></path><path d="M250.08729,142.28115l-26.43231,46.62762h24.27429v-21.08502h10.10028v21.08502h10.8609v9.12738h-10.8609v19.66992h-10.10028v-19.66992h-36.84571v-6.29718l27.48835,-49.45782z" fill="#454525" fill-rule="evenodd" stroke="none" stroke-width="1" stroke-linecap="square" stroke-linejoin="miter"></path><path d="M250.08729,142.28115l-26.43231,46.62762h24.27429v-21.08502h10.10028v21.08502h10.8609v9.12738h-10.8609v19.66992h-10.10028v-19.66992h-36.84571v-6.29718l27.48835,-49.45782z" fill="none" fill-rule="evenodd" stroke="#454525" stroke-width="2" stroke-linecap="butt" stroke-linejoin="round"></path></g></g></svg>