<svg version="1.1" xmlns="http://www.w3.org/2000/svg" xmlns:xlink="http://www.w3.org/1999/xlink" width="1.96255" height="4.00845" viewBox="0,0,1.96255,4.00845"><g transform="translate(-279.70235,-204.46784)"><g fill="#ff0000" stroke="#ffffff" stroke-width="0" stroke-linecap="round" stroke-linejoin="round" stroke-miterlimit="10"><path d="M280.80999,204.7553l0.02231,0.17471l-0.04337,0.1016l0.01239,0.27382l-0.14495,0.14868l-0.2032,0.08426l-0.07433,0.09541l-0.20195,-0.03098l-0.13877,0.04584l-0.14001,-0.0855h-0.09168l-0.05947,-0.1301l0.03221,-0.15736l-0.07682,-0.11523l0.0954,-0.07186l0.01982,-0.13134l0.13257,-0.2032l-0.05947,-0.10408l0.04461,-0.10655l0.16974,-0.04585l0.32091,-0.02973l0.0855,0.01239l0.24409,0.19329l0.05452,0.08177"></path><path d="M281.52983,208.47627l-0.35188,-0.03098l-0.16107,-0.07806l-0.03346,-0.09664l0.01982,-0.25027l0.15612,-0.2255l0.15736,-0.04708l0.18462,0.1301l0.08426,0.12886l0.0793,0.22674l-0.13505,0.24285"></path></g></g></svg>