<svg version="1.1" xmlns="http://www.w3.org/2000/svg" xmlns:xlink="http://www.w3.org/1999/xlink" width="8.8636" height="6.51583" viewBox="0,0,8.8636,6.51583"><g transform="translate(-212.2602,-206.4885)"><g fill="#ff0000" fill-rule="evenodd" stroke="#ffffff" stroke-width="0" stroke-linecap="round" stroke-linejoin="round" stroke-miterlimit="10"><path d="M215.41212,212.83821l-0.16726,-0.01239l-0.04584,0.08549l-0.39027,0.02973l-0.24531,-0.21806l-0.20319,0.07558l-0.17964,-0.19824l0.00867,-0.07806l-0.12018,-0.19451l-0.1016,-0.04213l0.02354,-0.18832l-0.20443,-0.03221l-0.01362,-0.16726l-0.05824,-0.11151l0.17097,-0.07309l0.08053,-0.09663l0.16974,-0.10532l-0.15983,-0.12886l0.04956,-0.05823l-0.07806,-0.13753l0.08053,-0.07682l-0.00867,-0.11895l-0.1363,-0.06195l-0.18832,0.03593l-0.27628,-0.15115l-0.32708,0.01858l-0.41629,0.08921l-0.12018,-0.07929l0.08549,-0.09293l0.03593,-0.13877l-0.01735,-0.14867l0.04213,-0.13256l-0.15239,-0.35063l0.03593,-0.13504l-0.00247,-0.23417l-0.04336,-0.11895l-0.11646,-0.0793l0.00867,-0.13504l-0.16479,-0.15239l0.0446,-0.16479l-0.0508,-0.12018l0.08673,-0.09912l0.12018,0.01115l0.35931,-0.1747l0.08549,0.02973l0.1239,-0.16479l0.18708,0.03469l0.18213,-0.07062l0.1239,-0.12143l0.15983,-0.057l0.20567,0.05575l0.10035,-0.06442l0.05452,-0.11399l0.16479,-0.11646l0.19452,0.06814l0.19328,-0.12266l0.2131,-0.0384l-0.09416,-0.24284l0.21807,-0.11149l0.1623,-0.03346l0.29983,0.03717l0.0508,0.12514l0.10037,-0.09293l0.06319,-0.19328l0.13009,-0.00247l0.15362,-0.12513l0.17593,0.14124l0.14868,-0.11026l0.15859,-0.0161l0.22301,-0.13256l0.07062,0.02354l0.14744,-0.06939l-0.00247,-0.08796l0.29239,-0.06689l0.54019,0.05452l0.11026,-0.20567l0.06319,0.01734l0.22424,-0.07186l0.12513,0.11151l0.10408,-0.01611l0.17222,0.05204l0.06566,0.06566l0.18584,-0.09044l0.1685,-0.01858l0.10655,0.27381l0.28619,-0.07806l0.16973,-0.01735l0.04336,-0.19204l0.12266,-0.07681l0.12266,0.07433l0.11522,-0.27752l0.09416,-0.05327l0.15859,0.30974l0.26267,0.11647l0.12266,0.08301l0.11895,0.38532l-0.07433,0.11769l-0.04584,0.21683l-0.09168,0.03717l-0.05452,0.13256l-0.34567,0.29487l-0.25399,0.05452l0.03469,0.14248l0.0954,0.13504l-0.04213,0.10655l0.58852,-0.12885l0.02725,0.0508l0.18957,-0.03469l0.0062,0.12265l-0.13133,0.00496l-0.22674,0.11399l0.00496,0.057l0.22797,-0.04213l0.03221,-0.04213l0.25275,0.05823l0.11275,-0.09416l0.14495,-0.05327l0.07682,0.14744l-0.23912,0.13009l-0.41505,0.16479l-0.0793,0.10408l-0.23912,0.05204l-0.26761,0.19328l-0.15362,0.03718l-0.19204,-0.00124l-0.13505,0.10037l-0.04956,0.10532l-0.3085,0.04089l0.01362,0.1016l-0.14372,0.02354l0.06195,0.12514l-0.07806,0.14867l-0.03593,0.16355l-0.1177,-0.13381l-0.18214,0.12266l0.02478,0.18584l-0.19204,0.1685l-0.28868,0.14992l-0.22425,0.17222l-0.26142,0.11522l-0.06319,0.06442l-0.38285,0.17594l-0.13256,-0.02229l-0.01735,0.13381l-0.16107,-0.05204l-0.19081,0.14248l-0.05204,0.13133l-0.17717,0.10037l-0.07309,0.15488l0.29115,-0.00247l-0.06442,0.15115l-0.14124,0.06939l-0.12265,0.20071l0.03593,0.09168l-0.12762,0.09663l0.01239,0.07433l-0.20319,0.00496l-0.11646,-0.05947l-0.14371,0.00496l-0.11151,0.14744l-0.00124,0.12142l0.08921,0.1462l-0.12637,0.07806l-0.02478,-0.07806l-0.20442,-0.08797"></path></g></g></svg>