<svg version="1.1" xmlns="http://www.w3.org/2000/svg" xmlns:xlink="http://www.w3.org/1999/xlink" width="8.50242" height="7.75578" viewBox="0,0,8.50242,7.75578"><g transform="translate(-154.4882,-213.50263)"><g fill="#ff0000" stroke="#ffffff" stroke-width="0" stroke-linecap="round" stroke-linejoin="round" stroke-miterlimit="10"><path d="M159.66876,216.90151l0.09382,0.19307l0.43458,0.41195l-0.06799,0.12912l0.03886,0.13404l-0.07587,0.14757l0.12408,0.27791l0.00198,0.11436l0.24816,0.15126l0.1986,-0.03075l0.05275,0.0787l0.14265,0.02706l0.11818,0.1033l0.33153,0.0578l0.40186,-0.10698l0.12581,0.45991l0.09136,0.07993l0.00504,0.15371l-0.06641,0.12052l-0.12986,-0.04181l-0.19011,0.10207l-0.03578,0.22627l0.1317,0.03074l0.07083,0.20905l0.19578,0.11929l0.11411,0.02459l0.23685,0.11068l0.13319,0.12912l0.00466,0.15863l0.08116,0.16847l0.17093,0.12052l0.15249,-0.04181l0.00738,0.1156l0.17954,0.12543l-0.182,0.06149l-0.06026,0.07747l-0.16109,-0.04673l-0.20475,0.04181l-0.10255,0.11067l-0.26267,0.05287l-0.0643,-0.12666l-0.11068,0.02336l-0.05891,-0.11928l0.01624,-0.2398l-0.20758,-0.18569l-0.30226,-0.1697l-0.0594,-0.16355l-0.30189,-0.21889l-0.07132,0.0578l-0.17867,-0.01352l-0.08104,0.12543l-0.10514,-0.03812l-0.07808,0.22504l-0.13058,0.06641l-0.01685,-0.23857l0.16489,-0.04919l-0.07956,-0.09346l-0.17081,-0.01967l-0.13096,-0.05657l0.02053,-0.11068l-0.1285,-0.12543l0.01907,-0.11806l-0.10255,-0.16109l0.10009,-0.12174l-0.0316,-0.20537l0.05435,-0.09346l-0.04833,-0.10084l-0.10982,-0.07255l-0.38685,-0.02214l-0.16847,0.18569l-0.05411,-0.06148l-0.1735,-0.01598l-0.00479,-0.2447l0.03394,-0.14879l-0.12605,-0.03689l-0.14621,0.05164l0.09567,0.36522l0.02852,0.30373l-0.17252,0.06887l-0.09628,-0.03443l-0.19405,0.05657l-0.15715,-0.01476l-0.0011,-0.18692l0.22184,-0.07625l0.15999,-0.14511l-0.18137,-0.20537l0.01869,-0.06887l-0.1017,-0.11929l-0.24791,-0.09715l0.01069,-0.32217l-0.20928,-0.00492l-0.10219,0.091l-0.15224,-0.1943l-0.10759,-0.01107l-0.06309,-0.12543l-0.19909,-0.05533l-0.23574,-0.02828l0.0246,-0.28774l-0.02484,-0.14141l0.05989,-0.30619l0.24237,-0.05533l0.00344,-0.18938l-0.04562,-0.1365l0.1178,-0.05411l-0.04354,-0.09837l-0.20155,-0.06641l-0.16356,-0.23732l0.01844,-0.12174l0.10477,0.02828l-0.00504,-0.21766l0.07022,-0.24716l-0.10342,-0.12052l0.11276,-0.13281l0.12604,0.02951l0.084,0.11806l0.12838,0.02214l0.07919,-0.07747l0.14793,0.12666l0.14337,-0.04303l0.12346,0.04795l0.27103,-0.31849l-0.02964,-0.11682l0.091,-0.07255l0.06518,0.13527l-0.02792,0.07993l-0.01881,0.33939l0.04279,0.12666l0.11191,-0.02214l-0.00075,-0.10206l0.12506,0.00246l-0.00382,0.10945l0.1108,0.10945l0.20327,-0.06148l0.11338,-0.15372l0.17229,-0.08731l0.11302,0.01352l0.10378,0.17339l0.09899,-0.00246l0.06001,-0.11682l0.00652,-0.14019l0.14916,0.00492l0.00382,0.2029l0.05067,0.07379l-0.02815,0.18323l-0.17498,0.11068l-0.09186,0.2029l-0.12469,0.41441l0.16601,0.15618" fill-rule="evenodd"></path><path d="M157.06302,215.65951l0.07747,0.08116l-0.257,0.14388l0.008,0.10576l-0.1226,0.12666l-0.19934,0.05042l0.02337,0.13404l0.11436,0.15002l-0.09555,0.11559l-0.0728,-0.02706l-0.16847,0.06026l0.09876,0.15372l-0.20635,0.10576l0.11204,0.19676l-0.04157,0.14757l-0.16501,0.11806l-0.03603,0.14388l-0.15274,0.16601l-0.11006,0.2398l-0.08165,-0.01476l-0.15592,0.16601l-0.12556,0.18446l-0.2302,0.1242l-0.12604,0.0246l-0.09248,0.08485l-0.27496,0.09346l-0.29304,-0.20782l0.09407,-0.13527l-0.09063,-0.14634l0.06764,-0.07624l0.19565,0.33201l0.17387,0.00246l0.10993,0.04303l0.08252,-0.04919l0.038,-0.18938l-0.15728,0.01106l-0.15582,-0.16233l-0.00196,-0.23365l0.12272,-0.09468l0.05435,-0.11068l0.1686,-0.0332l0.15987,0.09715l0.129,-0.07993l-0.11411,-0.14019l-0.15445,-0.05902l0.0246,-0.11806l-0.10022,-0.07255l0.06739,-0.16355l0.14313,-0.02705l0.02632,-0.15495l0.29243,-0.11806l-0.17683,-0.25577l0.13478,-0.24964l-0.07969,-0.1943l0.05275,-0.09469l0.15211,0.03321l0.1922,-0.08116l0.10538,0.04058l0.07489,-0.06395l0.22086,-0.0209l0.05571,-0.1365l0.01452,-0.18692l0.13071,0.00368l0.00186,0.21151l-0.05497,0.09715l0.10601,0.06149l0.03235,-0.12913l0.08141,-0.09469l-0.02214,-0.10576l0.20819,-0.00492l0.06074,-0.06148l-0.08731,-0.13404l-0.22504,-0.03689l-0.08165,-0.12913l0.1167,-0.05287l0.06788,0.04303l0.09752,-0.10206l0.14473,-0.0123l0.01697,0.18692l0.08597,0.21766l-0.06825,0.11929l0.03948,0.14388" fill-rule="evenodd"></path><path d="M155.5222,215.08155l0.01746,0.10945l-0.06751,0.16356l-0.0064,0.15617l0.08031,0.13035l-0.02706,0.16233l-0.18507,0.05287l-0.23512,-0.11068l0.09358,-0.23858l0.05891,-0.24103l-0.01021,-0.09961l0.11276,-0.15372l0.02286,-0.18321l-0.03591,-0.1611l0.17227,-0.13035l-0.01573,0.32341l-0.06073,0.13896l0.08558,0.08116" fill-rule="evenodd"></path><path d="M157.30527,213.70429l-0.06629,0.19799l-0.15666,0.15617l-0.1033,0.05411l-0.23426,-0.07747l-0.08977,-0.14879l-0.11043,0.01721l0.00048,0.17585l-0.1365,-0.03566l0.02558,-0.12912l0.2136,-0.19676l0.01046,-0.04795l0.35342,-0.16724l-0.03185,0.31726l0.09223,0.02337l0.11251,-0.14879l0.12076,0.00984" fill-rule="evenodd"></path><path d="M156.40267,214.61427l0.17904,-0.07625l0.11264,-0.2066l0.11178,0.12789l-0.09013,0.11068l-0.33791,0.15372l0.0246,-0.10945" fill-rule="evenodd"></path><path d="M156.80724,218.99201l-0.04475,0.09837l-0.13675,-0.07747l-0.01808,-0.13527l0.25037,-0.09223l0.08485,0.11191l-0.01033,0.11436l-0.1253,-0.01967" fill-rule="evenodd"></path><path d="M157.41594,218.47554l-0.12309,-0.14019l0.02422,-0.14757l0.11657,-0.0209l0.0391,0.0332l-0.00319,0.24103l-0.05361,0.03444" fill-rule="evenodd"></path><path d="M156.6239,219.01708l-0.01808,-0.13528l0.25038,-0.09223l0.08485,0.11191l-0.01033,0.11437l-0.12531,-0.01967l-0.04477,0.09838l-0.13676,-0.07747" fill-rule="nonzero"></path><path d="M156.88214,215.89351l0.008,0.10577l-0.12261,0.12666l-0.19934,0.05042l0.02337,0.13404l0.11436,0.15003l-0.09555,0.1156l-0.0728,-0.02706l-0.16848,0.06025l0.09876,0.15372l-0.20635,0.10577l0.11204,0.19676l-0.04156,0.14757l-0.16502,0.11806l-0.03604,0.14389l-0.15274,0.16602l-0.11006,0.2398l-0.08165,-0.01476l-0.15594,0.16601l-0.12556,0.18447l-0.23022,0.12421l-0.12605,0.02459l-0.09248,0.08485l-0.27498,0.09347l-0.29304,-0.20782l0.09407,-0.13528l-0.09063,-0.14634l0.06763,-0.07625l0.19566,0.33204l0.17389,0.00246l0.10995,0.04303l0.08252,-0.04919l0.038,-0.18939l-0.15729,0.01107l-0.15581,-0.16233l-0.00198,-0.23366l0.12272,-0.09469l0.05436,-0.11068l0.16861,-0.03321l0.15987,0.09715l0.12901,-0.07993l-0.11412,-0.14019l-0.15445,-0.05903l0.02459,-0.11805l-0.10022,-0.07256l0.06739,-0.16356l0.14314,-0.02706l0.02632,-0.15496l0.29244,-0.11805l-0.17684,-0.25579l0.13478,-0.24964l-0.07969,-0.19431l0.05276,-0.09469l0.15212,0.0332l0.1922,-0.08116l0.10539,0.04058l0.07489,-0.06395l0.22087,-0.0209l0.05572,-0.13651l0.01451,-0.18693l0.13073,0.00369l0.00185,0.21153l-0.05497,0.09715l0.10601,0.06149l0.03235,-0.12912l0.08141,-0.09469l-0.02214,-0.10577l0.20819,-0.00492l0.06074,-0.06149l-0.08731,-0.13404l-0.22505,-0.0369l-0.08165,-0.12913l0.11671,-0.05287l0.06788,0.04303l0.09752,-0.10207l0.14474,-0.0123l0.01697,0.18693l0.08595,0.21767l-0.06825,0.11928l0.03948,0.14389l0.07747,0.08116l-0.25702,0.14389" fill-rule="nonzero"></path><path d="M155.46424,215.51228l0.08029,0.13035l-0.06912,0.06887l0.04206,0.09346l-0.18508,0.05288l-0.23512,-0.11068l0.09359,-0.23858l0.05891,-0.24104l-0.01021,-0.09961l0.11276,-0.15372l0.02286,-0.18323l-0.03592,-0.1611l0.17229,-0.13035l-0.01574,0.32343l-0.06074,0.13896l0.08558,0.08116l0.01746,0.10945l-0.06751,0.16356l-0.0064,0.15618" fill-rule="nonzero"></path><path d="M156.57963,214.54078l0.11264,-0.2066l0.11179,0.1279l-0.09013,0.11069l-0.33794,0.15372l0.0246,-0.10945l0.17905,-0.07625" fill-rule="nonzero"></path><path d="M157.08136,214.06118l-0.10331,0.05411l-0.23426,-0.07747l-0.08977,-0.1488l-0.11043,0.01721l0.00048,0.17585l-0.1365,-0.03565l0.02558,-0.12913l0.21361,-0.19676l0.01046,-0.04796l0.35344,-0.16725l-0.03185,0.31729l0.09223,0.02337l0.11252,-0.14879l0.12077,0.00984l-0.06629,0.19799l-0.15666,0.15618" fill-rule="nonzero"></path><path d="M157.43307,218.16855l0.0391,0.0332l-0.00319,0.24104l-0.05361,0.03444l-0.1231,-0.14019l0.02423,-0.14758l0.11658,-0.0209" fill-rule="nonzero"></path></g></g></svg>