<svg version="1.1" xmlns="http://www.w3.org/2000/svg" xmlns:xlink="http://www.w3.org/1999/xlink" width="30.35336" height="54.02033" viewBox="0,0,30.35336,54.02033"><g transform="translate(-224.82332,-152.98983)"><g fill-rule="evenodd" stroke-miterlimit="10"><path d="M244.32041,159.33509c-1.52485,4.36277 -3.06029,8.11136 -4.60631,11.24577l-9.30794,18.87002h13.78718v-16.20153c0,-3.83331 0.12708,-8.47139 0.38122,-13.91426zM249.21264,153.48984v35.96106h5.46404v4.89224h-5.46404v12.16703h-5.20991v-12.16703h-18.67941v-4.89224l17.50401,-35.96106z" fill="#ffffff" stroke="none" stroke-linecap="square" stroke-linejoin="miter"></path><path d="M244.32041,159.33509c-1.52485,4.36277 -3.06029,8.11136 -4.60631,11.24577l-9.30794,18.87002h13.78718v-16.20153c0,-3.83331 0.12708,-8.47139 0.38122,-13.91426zM249.21264,153.48984v35.96106h5.46404v4.89224h-5.46404v12.16703h-5.20991v-12.16703h-18.67941v-4.89224l17.50401,-35.96106z" fill="none" stroke="#ffffff" stroke-linecap="butt" stroke-linejoin="round"></path></g></g></svg>