<svg version="1.1" xmlns="http://www.w3.org/2000/svg" xmlns:xlink="http://www.w3.org/1999/xlink" width="1.0978" height="3.25862" viewBox="0,0,1.0978,3.25862"><g transform="translate(-276.35072,-198.27544)"><g fill="#ff0000" stroke="#ffffff" stroke-width="0" stroke-linecap="round" stroke-linejoin="round" stroke-miterlimit="10"><path d="M277.1561,198.51457l0.00744,-0.14869l0.14744,-0.09044l0.12762,0.06815l-0.00124,0.12514l-0.12266,0.13134l-0.1586,-0.0855"></path><path d="M277.25524,200.73242l0.0062,0.3271l-0.05452,0.254l-0.23912,-0.12639l-0.10037,-0.13754l-0.03098,-0.23169l0.1301,-0.18834l0.05947,-0.24036l-0.01982,-0.1177l0.14249,-0.11895l0.01858,-0.10779l0.0954,-0.0062l0.06566,-0.1239l-0.02973,-0.11028l0.11399,0.06814l0.03593,0.28125l-0.16727,0.26638l-0.02602,0.31224"></path><path d="M276.35074,201.46344l0.12514,-0.23913l0.16974,0.12885l-0.16356,0.1809l-0.13134,-0.07062"></path></g></g></svg>