<svg version="1.1" xmlns="http://www.w3.org/2000/svg" xmlns:xlink="http://www.w3.org/1999/xlink" width="8.42368" height="9.42857" viewBox="0,0,8.42368,9.42857"><g transform="translate(-228.36436,-205.25318)"><g fill="#ff0000" fill-rule="evenodd" stroke="#ffffff" stroke-width="0" stroke-linecap="round" stroke-linejoin="round" stroke-miterlimit="10"><path d="M234.91347,208.52659l-0.06071,0.18337l0.03964,0.09663l-0.03717,0.14745l0.10532,0.14744l0.19824,0.11151l0.13009,0.01858l0.09044,0.17345l0.09293,0.32214l0.12639,0.02106l0.057,0.1239l0.09788,0.07062l0.13009,-0.03346l0.01238,0.26267l0.07433,0.09788l0.21807,0.11522l0.1685,-0.00744l-0.0508,-0.15859l0.1276,-0.01362l0.30727,0.13876l0.04708,0.05575l-0.24408,0.34939l-0.04708,0.22797l-0.11647,0.06815l-0.06442,0.13753l0.07558,0.28992l-0.23417,-0.04833l-0.27257,0.13628l-0.03099,0.07558l0.10408,0.18337l-0.04584,0.18337l-0.19948,0.1016l0.07062,0.19948l0.16355,-0.1239l0.0793,0.20938l0.1276,-0.057l-0.08177,0.22921l-0.32831,0.01239l-0.08053,0.1016l-0.11769,0.0161l-0.03593,0.11026l0.0892,0.13504l-0.70745,0.39399l-0.20815,0.13504l-0.20815,0.0384l-0.1747,0.19081l-0.17346,0.07309l-0.03593,0.16107l-0.14744,0.23664l0.1363,0.33081l-0.12142,0.12018l-0.06195,-0.09416l-0.11026,-0.01239l-0.06071,0.17097l-0.13505,-0.01611l0.02602,-0.11647l-0.07309,-0.07433l0.14495,-0.10284l0.16974,-0.06566l-0.01362,-0.15611l-0.08549,-0.14868l-0.10037,-0.04708l-0.14867,0.02973l-0.11152,0.083l-0.13876,-0.00991l-0.21434,-0.15859l-0.13381,-0.03345l-0.29363,0.0384l-0.14991,-0.04336l-0.11399,-0.1462l-0.13133,-0.01858l-0.18832,-0.09541l-0.10779,0.07433l-0.16106,-0.09664l-0.11895,0.03966l-0.22301,-0.00124l-0.04831,-0.1276l-0.18957,0.02229l-0.15611,-0.02849l-0.02849,-0.06195l-0.1747,0.01238l-0.22797,-0.09044l0.01982,-0.0954l-0.15735,-0.04833l-0.02849,-0.08426l-0.13628,-0.13009l-0.11151,0.05452l-0.40267,-0.0446l0.03346,-0.11151l-0.06442,-0.10037l-0.24408,-0.12266l-0.09293,-0.13628l-0.08301,0.07433l-0.21557,-0.19204l-0.08177,-0.16974l0.05204,-0.2577l0.05823,-0.12142l-0.04336,-0.26142l-0.11769,-0.12142l-0.35806,-0.05452l-0.26017,-0.16974l0.00496,-0.11399l0.12886,-0.06071l0.02106,-0.1623l0.25275,0.08673l0.15115,-0.17717l0.19699,-0.15736l0.00496,-0.14371l-0.1685,-0.08426l-0.08301,-0.13009l-0.26267,-0.07806l0.06815,-0.07682l-0.07806,-0.10035l-0.18337,0.01734l0.10902,-0.27381l0.0508,-0.20195l0.01115,-0.25894l-0.03966,-0.21559l0.11522,0.00373l0.10655,-0.08053l0.05452,-0.11399l0.14744,-0.15611l0.12018,-0.07558l0.13628,-0.00496l0.15115,0.057l0.13256,-0.06566l0.22797,-0.0384l0.14497,0.04213l0.12637,-0.22177l-0.1747,-0.02229l-0.0793,-0.12018l-0.21682,-0.11895l0.02478,-0.13876l-0.27257,-0.02229l-0.17222,-0.2131l0.04584,-0.12514l-0.02973,-0.27505l0.09788,-0.12018l0.13381,0.00867l0.14371,-0.24035l0.09416,0.09168l0.13877,-0.09293l0.17841,0.0161l0.06566,0.11399l0.16106,-0.07186l0.11274,0.02973l0.38159,-0.18832l0.07186,0.01735l0.23911,-0.15488l0.07682,-0.1747l-0.12886,-0.30354l-0.09168,-0.07309l0.10283,-0.19576l-0.11522,-0.15362l-0.25152,-0.02479l-0.03098,-0.30603l0.36921,-0.09788l0.15611,-0.25522l0.18957,0.07186l0.0446,0.08921l0.16726,0.01734l0.09167,0.14124l0.08176,0.04089l0.06319,0.17964l-0.1016,0.18832l0.05204,0.11647l0.15735,-0.02973l0.16602,0.057l0.11274,0.28001l0.07186,0.01734l0.0446,0.33576l-0.057,0.1239l0.01487,0.1276l-0.14248,0.00496l-0.09044,-0.06566l-0.0161,0.26514l-0.09044,0.07186l0.057,0.10284l-0.04833,0.18337l-0.12639,0.06939l0.07682,0.13628l0.16479,-0.00496l0.09044,0.21929l-0.10902,0.18957l0.21682,-0.07309l0.15488,0.00124l0.17593,-0.18213l-0.01982,-0.12639l0.12886,-0.04336l0.0954,0.03345l0.08301,-0.08176l0.47947,0.0062l0.2069,0.17965l0.18708,0.09044l0.12639,-0.08426l0.14371,0.03964l0.1846,-0.09663l0.11399,-0.01735l0.01982,-0.10779l0.15982,-0.0384l0.25522,0.15239l0.11646,-0.01982l0.11151,0.13256l-0.03964,0.08673l0.07186,0.13256l-0.05575,0.22797l0.08921,0.13256"></path></g></g></svg>