<svg version="1.1" xmlns="http://www.w3.org/2000/svg" xmlns:xlink="http://www.w3.org/1999/xlink" width="2.25996" height="10.5527" viewBox="0,0,2.25996,10.5527"><g transform="translate(-282.19891,-218.77623)"><g fill="#ff0000" stroke="#ffffff" stroke-width="0" stroke-linecap="round" stroke-linejoin="round" stroke-miterlimit="10"><path d="M283.69811,219.02031l0.02354,0.13257l0.20443,0.07682l0.03099,0.12019l0.34568,0.05824l0.15488,0.26391l-0.03469,0.11275l0.03593,0.17594l-0.21683,0.04336l-0.08426,0.15116l-0.01239,0.30108l-0.15116,-0.18462l-0.29489,-0.06938l-0.14744,-0.10532l-0.04957,-0.08797l-0.01858,-0.29861l-0.14621,-0.08797l-0.11646,-0.01239l-0.08177,-0.19576l-0.13877,-0.23046l-0.00991,-0.20815l0.12514,-0.16974l0.13505,-0.02973l0.19824,0.03964l0.09293,0.11028l0.15612,0.09417"></path><path d="M282.19891,219.19377l0.1301,-0.08673l0.16232,0.17842l0.01239,0.09168l-0.20073,-0.00373l-0.10408,-0.17967"></path><path d="M283.37596,229.32893l-0.19204,-0.12019l0.00744,-0.29984l0.03964,-0.02478l0.14248,0.06566l0.13505,0.17346l-0.02106,0.14621l-0.11152,0.05947"></path></g></g></svg>