<svg version="1.1" xmlns="http://www.w3.org/2000/svg" xmlns:xlink="http://www.w3.org/1999/xlink" width="43.60033" height="55.38115" viewBox="0,0,43.60033,55.38115"><g transform="translate(-218.19984,-152.30944)"><g fill="#ffffff" fill-rule="evenodd" stroke="none" stroke-linecap="square" stroke-miterlimit="10"><path d="M232.46814,161.50175c-2.17181,1.57413 -3.86802,3.90169 -5.0886,6.98262c-1.2122,3.07252 -1.81827,6.88582 -1.81827,11.43988c0,4.55407 0.60608,8.38419 1.81827,11.49039c1.22059,3.09777 2.91679,5.43794 5.0886,7.02051c2.17181,1.57413 4.68033,2.36121 7.52556,2.36121c2.84523,0 5.34116,-0.78709 7.48768,-2.36121c2.14657,-1.58255 3.83854,-3.92272 5.07597,-7.0205c1.24585,-3.10618 1.86878,-6.93632 1.86878,-11.49039c0,-4.55407 -0.62293,-8.36736 -1.86878,-11.43987c-1.23743,-3.08094 -2.94203,-5.40847 -5.11386,-6.98262c-2.17181,-1.58255 -4.68034,-2.37383 -7.52557,-2.37383c-2.79473,0 -5.27801,0.79128 -7.4498,2.37383zM239.91794,152.30945c4.08267,0 7.77812,1.12379 11.08632,3.37136c3.31664,2.24757 5.94304,5.44214 7.87913,9.58374c1.94455,4.13316 2.91679,9.04499 2.91679,14.73548c0,5.63997 -0.97225,10.54337 -2.91679,14.71021c-1.93609,4.15843 -4.54564,7.36142 -7.8286,9.60899c-3.28301,2.24756 -6.91528,3.37136 -10.89694,3.37136c-4.04057,0 -7.7276,-1.13642 -11.06106,-3.40925c-3.33351,-2.27283 -5.98511,-5.48844 -7.95488,-9.64687c-1.96136,-4.16684 -2.94206,-9.07024 -2.94206,-14.71021c0,-5.63996 0.96806,-10.52655 2.90418,-14.65973c1.94451,-4.14158 4.57088,-7.33616 7.87911,-9.58373c3.3082,-2.24757 6.95314,-3.37136 10.9348,-3.37136z"></path></g></g></svg>