<svg version="1.1" xmlns="http://www.w3.org/2000/svg" xmlns:xlink="http://www.w3.org/1999/xlink" width="36.15052" height="54.61091" viewBox="0,0,36.15052,54.61091"><g transform="translate(-221.92474,-152.69454)"><g fill="#ffffff" fill-rule="evenodd" stroke="none" stroke-linecap="square" stroke-miterlimit="10"><path d="M240.46088,152.69455c3.30821,0 6.19134,0.64818 8.64936,1.94454c2.45801,1.28794 4.36043,3.09777 5.70731,5.42951c1.34686,2.32334 2.02029,5.03389 2.02029,8.13166c0,2.23073 -0.27358,4.22576 -0.82073,5.9851c-0.53874,1.75091 -1.49417,3.54814 -2.86629,5.39166c-1.37212,1.83509 -3.27456,4.01953 -5.70732,6.5533l-14.25624,14.65971h24.888v6.51543h-36.15052v-4.41938l19.86196,-20.94786c2.01187,-2.0708 3.586,-3.86801 4.72241,-5.39164c1.14482,-1.52364 1.96134,-2.93362 2.44959,-4.22998c0.48824,-1.29635 0.73236,-2.63901 0.73236,-4.02795c0,-2.74422 -0.87967,-4.89077 -2.63901,-6.43967c-1.75091,-1.5573 -4.02374,-2.33596 -6.81847,-2.33596c-2.74422,0 -5.15174,0.6608 -7.22253,1.98242c-2.06238,1.3216 -3.89749,3.35031 -5.50528,6.08612l-5.11384,-4.26786c2.1213,-3.51024 4.68033,-6.15767 7.67708,-7.94226c2.99677,-1.78458 6.46071,-2.67688 10.39185,-2.67688z"></path></g></g></svg>