<svg version="1.1" xmlns="http://www.w3.org/2000/svg" xmlns:xlink="http://www.w3.org/1999/xlink" width="61.44219" height="19.17251" viewBox="0,0,61.44219,19.17251"><g transform="translate(-78.25678,-305.56185)"><g stroke-miterlimit="10"><g><g fill="#ff0000" fill-rule="evenodd" stroke="#ffffff" stroke-width="0" stroke-linecap="round" stroke-linejoin="round"><path d=""></path><path d="M78.6143,324.65104l-0.12435,-0.01137l-0.1828,0.09469l-0.05037,-0.13129l0.20578,-0.10984l0.13093,0.03282l0.02082,0.12499"></path><path d=""></path></g><g fill="#ff0000" fill-rule="evenodd" stroke="#ffffff" stroke-width="0" stroke-linecap="round" stroke-linejoin="round"><path d=""></path><path d=""></path><path d=""></path><path d=""></path><path d=""></path></g><g fill="#ff0000" fill-rule="evenodd" stroke="#ffffff" stroke-width="0" stroke-linecap="round" stroke-linejoin="round"><path d=""></path><path d=""></path></g><g fill="none" fill-rule="nonzero" stroke="none" stroke-width="1" stroke-linecap="butt" stroke-linejoin="miter" font-family="sans-serif" font-weight="normal" font-size="12" text-anchor="start"></g><g fill="#ff0000" fill-rule="evenodd" stroke="#ffffff" stroke-width="0" stroke-linecap="round" stroke-linejoin="round"><path d="M135.18616,315.8389l0.05303,-0.12751l0.18053,-0.1212l0.08711,0.28658l-0.17625,0.13004l-0.12991,0.00252l-0.01452,-0.17043"></path><path d="M134.92358,316.21766l-0.03183,-0.14898l0.24567,-0.20453l0.05493,0.14266l0.05404,0.06817l-0.18786,0.16664l-0.13496,-0.02399"></path><path d="M133.7217,316.44489l-0.1751,-0.04167l0.04456,-0.09721l0.23495,-0.12877l0.08332,0.10604l0.01982,0.08584l-0.04595,0.03661l-0.16159,0.03914"></path><path d="M135.44247,315.47277l0.12802,-0.10732l0.0428,0.04167l-0.06704,0.22345l-0.06464,-0.01892l-0.03914,-0.13887"></path></g><g fill="#ff0000" fill-rule="evenodd" stroke="#ffffff" stroke-width="0" stroke-linecap="round" stroke-linejoin="round"><path d="M133.34674,314.69004l-0.16097,0.11109l-0.04141,0.09721l-0.24416,0.16413l-0.0303,0.08711l-0.12726,-0.01767l-0.1448,-0.07575l-0.14834,0.06187l-0.13685,-0.05807l0.40133,-0.28405l0.1688,0.10731l0.18508,-0.07702l-0.00997,-0.13761l0.25768,-0.24871l0.1241,-0.05176l0.05529,-0.11489l0.11754,-0.01642l-0.05857,-0.21083l0.04596,-0.11615l0.14821,0.05176l0.14026,-0.14518l0.28671,0.08584l0.03472,-0.11236l0.17535,-0.07322l0.16426,-0.0038l0.02626,-0.15149l0.07361,0.00757l0.09316,-0.15024l0.09278,0.03914l0.3285,-0.22598l0.10415,-0.10099l0.09393,-0.2222l-0.00518,-0.14391l-0.227,-0.08333l-0.27068,-0.16918l-0.28848,-0.09216l-0.11261,0.11615l-0.21322,-0.07702l-0.00543,-0.11489l-0.17939,-0.30425l-0.01653,-0.2525l0.15138,-0.09342l-0.02423,-0.16538l-0.1866,-0.1717l-0.00328,-0.09216l0.07814,-0.17548l0.11741,-0.00757l0.18066,0.07196l0.09329,-0.04671l0.29655,-0.00757l0.17434,-0.07322l0.13168,0.01137l0.16462,0.13887l0.42672,0.13382l0.03093,0.06692l-0.1496,0.08837l-0.09545,0.30425l0.01566,0.11867l0.11375,0.05302l0.07739,0.17296l0.10592,-0.0101l0.13874,0.06059l0.18861,-0.13004l0.11943,0.03157l0.28925,-0.14139l0.09809,-0.00252l0.29239,-0.27396l0.25868,0.05302l-0.04986,-0.12246l-0.14065,-0.04797l-0.12511,-0.10479l0.2501,-0.3333l0.10416,0.00252l0.22333,-0.08079l0.1539,-0.14013l0.05631,-0.10479l-0.06641,-0.19948l0.20579,-0.09594l0.1289,-0.02525l0.09444,-0.16411l0.19935,-0.125l0.05606,-0.11236l0.27219,-0.28405l-0.0063,-0.10984l0.2751,-0.49237l0.00783,-0.15908l-0.11338,-0.1111l0.03195,-0.12751l0.1361,-0.10731l0.05681,0.12877l0.1077,0.10731l0.13457,0.06691l0.10869,0.10984l0.17562,0.00757l0.01262,0.21083l0.20237,0.26513l-0.03624,0.08837l0.04609,0.13129l-0.05656,0.04922l0.11501,0.15149l-0.04772,0.17171l-0.01439,0.18938l0.07286,0.10731l-0.0885,0.04672l-0.03598,0.16287l-0.13838,0.06564l-0.08523,0.24113l-0.10441,0.0606l0.03675,0.09342l-0.17827,0.14267l-0.00619,0.19948l-0.06781,0.09848l-0.11476,0.03914l-0.01566,0.12499l-0.09367,0.00757l-0.14733,0.29542l-0.07664,0.0808l-0.32357,0.0808l-0.38998,0.03157l-0.28532,-0.09594l-0.13458,0.01892l-0.0404,0.08837l0.09709,0.14139l0.0207,0.10984l-0.04216,0.10859l-0.3525,-0.0707l0.06312,0.14139l0.10137,0.0808l0.09974,0.20958l-0.08294,0.0808l0.02196,0.14898l-0.17322,0.00883l-0.1919,0.05934l-0.25251,0.2083l-0.17738,-0.14266l-0.15844,-0.07449l-0.16563,0.0606l-0.12158,-0.05807l-0.07247,0.04672l0.10579,0.15276l0.11249,0.23987l-0.1736,-0.0063l-0.17143,0.14518l-0.17133,-0.03661l-0.18798,0.05049l-0.07146,0.07449l0.12107,0.15149l-0.00619,0.14644l-0.12132,0.11362l-0.29668,0.09721l-0.17384,-0.08079l-0.09103,0.16539l-0.04532,0.21462l0.01844,0.06692l-0.25729,0.04545l-0.09619,-0.11362l-0.25161,-0.04924l-0.1433,-0.09469l-0.20023,-0.00378l-0.24164,0.12876l-0.09115,0.15654l-0.01653,0.02777l-0.04432,-0.18938l-0.18092,0.00378"></path><path d="M135.36292,306.3324h-0.13812l-0.09847,0.07702l-0.0183,0.18431l-0.20579,0.024l-0.18382,0.08459l0.00822,-0.10984l0.15957,-0.16286l0.07021,-0.16413l0.10972,-0.07449l0.12536,-0.18054l0.21993,-0.16664l0.10555,-0.20074l0.16197,-0.01767l0.15452,-0.06187l-0.24708,0.28027l-0.03004,0.1881l-0.09393,0.24492l-0.09948,0.05555"></path><path d="M133.18388,311.04146l-0.3107,-0.04419l-0.32231,0.0202l-0.11362,-0.07575l-0.03636,-0.11741l0.07258,-0.18558l0.07247,-0.03409l0.20098,0.05302l0.23281,-0.0063l0.16577,-0.06564l0.26664,0.21336l-0.00454,0.19821l-0.22371,0.04419"></path><path d="M134.94251,307.97364l0.02171,0.14644l-0.16413,0.02399l-0.22043,-0.10226l0.00834,-0.1717l-0.1284,-0.07827l0.09773,-0.15781l0.22624,-0.1111l0.22384,0.14139l0.02298,0.15149l-0.08788,0.15781"></path><path d="M135.88939,311.8242l-0.13004,-0.08206l-0.09556,0.08584l-0.1289,-0.06817l-0.03459,-0.13382l0.0808,-0.12499l0.24378,-0.08584l0.01918,0.12499l0.1294,0.1818l-0.08408,0.10226"></path><path d="M125.9953,312.87207l-0.08648,-0.03535l-0.33506,0.05555l0.10655,-0.23483l0.18584,-0.13382l0.11096,0.02904l0.10264,0.19315l-0.08446,0.12626"></path><path d="M135.71642,311.15509l-0.03977,-0.13004l0.10517,-0.08459l0.13963,0.05934l-0.05378,0.21211l-0.15125,-0.05682"></path><path d="M133.79493,312.01357l-0.05694,-0.13634l0.14822,-0.07954l0.09936,0.0707l-0.04646,0.11615l-0.14417,0.02902"></path><path d="M134.57009,307.05202l-0.1005,-0.08584l0.14468,-0.07827l-0.04419,0.16413"></path></g><g fill="none" fill-rule="nonzero" stroke="none" stroke-width="1" stroke-linecap="butt" stroke-linejoin="miter" font-family="sans-serif" font-weight="normal" font-size="12" text-anchor="start"></g><g fill="none" fill-rule="nonzero" stroke="none" stroke-width="1" stroke-linecap="butt" stroke-linejoin="miter" font-family="sans-serif" font-weight="normal" font-size="12" text-anchor="start"></g></g><path d="M125.57309,312.89592l0.10655,-0.23484l0.18584,-0.13382l0.11097,0.02905l0.10264,0.19316l-0.08446,0.12626l-0.08649,-0.03535l-0.33508,0.05555" fill="#ff0000" fill-rule="nonzero" stroke="#ffffff" stroke-width="0" stroke-linecap="round" stroke-linejoin="round"></path><path d="M133.88689,311.7975l0.09937,0.0707l-0.04646,0.11615l-0.14417,0.02905l-0.05694,-0.13636l0.14821,-0.07954" fill="#ff0000" fill-rule="nonzero" stroke="#ffffff" stroke-width="0" stroke-linecap="round" stroke-linejoin="round"></path><path d="M132.87307,311.0021l-0.32233,0.0202l-0.11364,-0.07576l-0.03636,-0.11742l0.0726,-0.18559l0.07247,-0.0341l0.20099,0.05302l0.23282,-0.0063l0.16577,-0.06565l0.26666,0.21336l-0.00454,0.19822l-0.22372,0.0442l-0.3107,-0.0442" fill="#ff0000" fill-rule="nonzero" stroke="#ffffff" stroke-width="0" stroke-linecap="round" stroke-linejoin="round"></path><path d="M135.66327,311.82275l-0.1289,-0.06817l-0.03459,-0.13382l0.0808,-0.12499l0.24379,-0.08585l0.01918,0.12499l0.12941,0.1818l-0.08408,0.10227l-0.13004,-0.08207l-0.09558,0.08585" fill="#ff0000" fill-rule="nonzero" stroke="#ffffff" stroke-width="0" stroke-linecap="round" stroke-linejoin="round"></path><path d="M135.6759,311.01473l0.10517,-0.08459l0.13964,0.05935l-0.00429,0.14519l-0.0495,0.06691l-0.15126,-0.05682l-0.03977,-0.13004" fill="#ff0000" fill-rule="nonzero" stroke="#ffffff" stroke-width="0" stroke-linecap="round" stroke-linejoin="round"></path><path d="M134.79969,308.14877l-0.22043,-0.10226l0.00834,-0.17171l-0.1284,-0.07827l0.09773,-0.15782l0.22625,-0.1111l0.22385,0.14139l0.02298,0.15151l-0.08788,0.15782l0.02171,0.14646l-0.16413,0.02399" fill="#ff0000" fill-rule="nonzero" stroke="#ffffff" stroke-width="0" stroke-linecap="round" stroke-linejoin="round"></path><path d="M134.46891,306.96199l0.14469,-0.07827l-0.0442,0.16413l-0.1005,-0.08585" fill="#ff0000" fill-rule="nonzero" stroke="#ffffff" stroke-width="0" stroke-linecap="round" stroke-linejoin="round"></path><path d="M135.22391,306.33072l-0.09847,0.07702l-0.01831,0.18433l-0.20579,0.024l-0.18382,0.08459l0.00821,-0.10984l0.15958,-0.16287l0.07021,-0.16413l0.10972,-0.07449l0.12537,-0.18054l0.21994,-0.16666l0.10555,-0.20074l0.16198,-0.01767l0.15453,-0.06187l-0.24708,0.28028l-0.03005,0.18811l-0.09394,0.24494l-0.09948,0.05555h-0.13812" fill="#ff0000" fill-rule="nonzero" stroke="#ffffff" stroke-width="0" stroke-linecap="round" stroke-linejoin="round"></path></g></g></svg>