<svg version="1.1" xmlns="http://www.w3.org/2000/svg" xmlns:xlink="http://www.w3.org/1999/xlink" width="19.60785" height="16.56288" viewBox="0,0,19.60785,16.56288"><g transform="translate(-155.59821,-231.14393)"><g fill="#ff0000" fill-rule="evenodd" stroke="#ffffff" stroke-width="0" stroke-linecap="round" stroke-linejoin="round" stroke-miterlimit="10"><g><path d=""></path><path d=""></path></g><g><path d=""></path><path d=""></path><path d=""></path><path d=""></path><path d=""></path></g><path d="M175.20606,244.77889h-0.18692l0.0246,-0.17954l0.12543,-0.00861l0.03689,0.18815"></path><g><path d="M171.51695,234.89208l0.14634,0.17339l0.13527,0.04303l0.03689,0.11682l0.18938,0.12666l0.02214,0.26807l0.06763,0.27422l0.12666,0.08362l0.13281,0.34062l0.1574,0.12789l0.27545,-0.0246l0.30867,0.12666l0.15495,0.17093l0.15249,0.2693l0.08731,0.21766l-0.12174,0.40088l0.01721,0.13158l-0.05902,0.091l-0.10085,0.01844l0.06763,0.15495l-0.05902,0.25702l0.09346,0.14879l-0.09715,0.2152l0.03689,0.20905l-0.06026,0.10452l0.15741,0.0578l0.00122,0.06394l0.14757,0.11068l-0.08609,0.08608l-0.06395,0.16356l0.14019,0.07379l-0.00368,0.45744l0.06886,0.08116l-0.00738,0.21397l0.08608,0.22012l-0.13035,0.02705l-0.38243,-0.06148l-0.01352,0.23732l0.18692,0.15495l-0.0246,0.25085l-0.23858,-0.04673l-0.17462,0.22135l-0.2152,0.04181l-0.20167,-0.04058l0.01476,-0.24224l-0.16601,-0.091l0.10698,-0.13527l0.10576,-0.05411l0.05902,-0.21275l-0.07009,-0.21151l-0.07624,-0.13281l-0.10452,-0.07255l-0.12789,-0.20782l-0.13158,0.0086l-0.19061,-0.06886l-0.44023,-0.03935l-0.02706,-0.11682l-0.14388,-0.10575h-0.13035l-0.2447,-0.14019l-0.1574,0.1033l-0.15863,-0.01106l-0.32955,0.25331l-0.07255,-0.03689l-0.16478,0.24595l-0.06026,0.24224l0.04796,0.20782l-0.02337,0.14634l-0.09837,0.14757l-0.0123,0.18938l-0.32341,0.24103l-0.04303,0.17217l-0.11928,0.08977l0.08609,0.18321l-0.0123,0.20537l-0.12297,0.34308l-0.12174,0.03935l-0.10206,0.1242l-0.02582,0.18692l-0.06641,0.21643l-0.0209,0.33078l-0.13158,-0.11682l-0.08608,0.02214l0.06763,0.27914l0.16725,0.0209l-0.00738,0.11068l-0.20537,-0.02583l-0.02337,0.07993l0.06271,0.14019l-0.00368,0.15741l0.0787,0.18938l0.03443,0.25208l0.14019,0.23732l0.1365,-0.08116l0.09961,0.15002l-0.14879,0.16601l0.22873,0.74888l0.1033,0.15741l0.21028,0.14264l0.05657,0.09715l0.16109,0.05287l0.16356,0.21028l0.08609,0.04796l0.37628,0.0332l0.07993,0.08485l-0.09837,0.1156l-0.10085,0.26069l0.10945,0.24716l-0.04058,0.06518l-0.16847,0.00368l-0.13896,0.08854l0.19797,0.11805l-0.06641,0.17462l-0.17585,0.1365l-0.30373,-0.01967l-0.13281,0.09592l-0.05903,0.21521l-0.25825,-0.21521l-0.13527,-0.03935l-0.16847,0.16233l-0.12174,0.05287l-0.14879,-0.03566l-0.11682,-0.13281l-0.00492,-0.26563l0.091,-0.06886l-0.1574,-0.3271l-0.2029,-0.22996l-0.14511,-0.11682l-0.18446,-0.08608l-0.18813,-0.01967l-0.1611,0.08608l-0.21766,-0.02705l-0.1279,-0.07256l-0.18938,0.03812l-0.29512,-0.01844l-0.15863,0.01844l-0.11805,-0.07009l-0.22258,0.00861l-0.08485,-0.03075l-0.11313,-0.13527l-0.1033,0.04427l-0.17585,-0.0541l-0.02214,0.18815l-0.08854,0.07624l-0.18938,-0.10576l-0.1943,0.04673l-0.05657,-0.08977l-0.19922,0.07747l-0.0332,-0.28037l0.07132,-0.13896l-0.24103,0.00984l-0.09592,-0.13158l0.05042,-0.06395l0.23119,-0.06763l0.05533,-0.07132l-0.14141,-0.21889l-0.30988,0.06149l-0.14388,-0.18692l0.16355,-0.03565l0.0578,0.03689l0.12912,-0.10698l0.03444,-0.16109l-0.17462,-0.14019l-0.05533,-0.12666l-0.1943,0.00368l-0.30619,-0.33325l-0.07747,-0.18323l-0.23857,-0.19922l-0.2152,0.04549l0.03812,-0.12543l0.15495,-0.02582l0.15126,0.09715l0.13404,-0.15372l0.10453,-0.05165l0.05042,-0.12052l0.10945,0.06271l0.04796,0.20782l0.15495,0.03444l0.03935,0.11313l0.47344,0.11436l0.10698,-0.10698l0.46114,-0.2447l0.25208,-0.37997l0.18938,-0.36398l0.15126,-0.38243l0.08485,-0.30006l0.08854,-0.53493l0.00738,-0.53l-0.06271,-0.4267l-0.06395,-0.2152l-0.10452,-0.21274l-0.19676,-0.04304l-0.00368,-0.11928l-0.13404,-0.27791l-0.15618,-0.22996l-0.16478,-0.02706l-0.02582,-0.21398l-0.09591,-0.00738l-0.04796,-0.13035l-0.10945,-0.03197l-0.16478,-0.18569l-0.18446,-0.14265l-0.15126,0.02459l-0.08731,0.11436l-0.07624,-0.34554l-0.06271,-0.12666l-0.1033,-0.08116l-0.06518,-0.14634l0.07993,-0.08731v-0.20167l0.08485,-0.04796l0.091,-0.26438l0.09592,-0.10698l0.0086,-0.19676l0.08609,-0.16478l0.07993,-0.03935l0.14511,-0.34923l0.03566,-0.21766l-0.06026,-0.09223l0.00492,-0.22748l-0.03935,-0.23365l-0.09592,-0.34185l-0.10453,-0.07747l0.01722,-0.09592l-0.15863,-0.07379l-0.12052,-0.16724l0.00615,-0.21028l0.15125,-0.03321l-0.0086,-0.17093l0.15002,-0.12543l0.00615,-0.21889l0.04796,-0.07132l-0.1033,-0.27176l-0.34062,-0.01722l0.04303,-0.18569l0.01106,-0.21643l0.06518,-0.06764l0.37014,-0.21151l0.19061,-0.05287l0.29512,0.0086l0.1574,0.13158l0.28406,0.14265l0.27914,0.01598l0.07747,-0.12666l0.26192,-0.11682l0.18938,-0.15863l0.02459,-0.13281l0.10453,-0.09469l-0.05411,-0.15495l0.02828,-0.09346l0.23611,0.26192l0.08239,0.04673l0.06518,0.19184l0.13895,0.14264l-0.00738,0.06026l0.47344,0.08977l0.31726,-0.02337l0.11067,-0.09961l0.01107,-0.2398l0.19061,0.07747l0.2066,-0.09961l0.09837,0.06763l0.28283,-0.02214l0.07255,-0.17339l0.14019,-0.0701l0.3099,-0.01106l0.07747,-0.18692l0.09469,-0.11805l-0.06148,-0.14634l0.23119,-0.00984l0.05902,0.15249l0.02828,0.19061l0.06271,0.10207l0.35538,0.06887l0.04181,0.22627l0.18938,0.09837l0.35292,0.31849l0.26438,0.08977l-0.05657,0.21889l-0.1525,0.1242l0.00369,0.28283l0.38982,0.13773M169.43383,246.88292l0.1365,-0.05903l0.09592,-0.16355l-0.07255,-0.19922l-0.27176,-0.06025l-0.24103,0.15863l0.0787,0.05903l0.13404,0.22012l0.14019,0.04427"></path><path d="M164.92574,232.7647l-0.13527,0.12298l-0.05287,0.10944l0.03566,0.18692l0.12051,-0.02214l0.11682,0.07747l0.03689,0.13035l-0.05165,0.07009l-0.15126,0.01967l-0.16724,0.15126l-0.03689,0.31356l-0.11682,0.26438l-0.11928,0.11191l-0.10576,-0.06271l-0.0332,-0.18077l-0.09592,0.01722l-0.11805,-0.14511l-0.11436,-0.04181l-0.07624,-0.10821l0.04795,-0.36153l-0.08485,-0.1525l-0.01599,-0.14141l-0.11313,-0.05902l-0.03812,-0.15126l0.06271,-0.11191l0.20782,-0.11805l-0.15987,-0.04303l0.00368,-0.14019l0.0787,-0.04182l0.10576,0.05903l0.13158,-0.06025l0.2189,0.12297l-0.01107,-0.12666l0.09715,-0.13527l0.10207,0.0578l0.12052,-0.10698l0.01844,0.11929l0.07993,0.04303l0.03566,0.12789l0.17708,0.20537"></path><path d="M170.76684,242.08586l-0.11314,-0.03444l-0.32341,0.11929l-0.11682,-0.15863l-0.11191,-0.07501l-0.16478,-0.19061l-0.05903,0.01598l-0.12666,-0.10945l-0.01107,-0.11436l0.18692,-0.12297l0.06026,-0.15987l0.18323,-0.17217l0.20168,-0.00368l0.13281,-0.06271l0.19553,-0.03443l0.18569,0.08362l0.09592,-0.04303l0.26315,0.34801l-0.02582,0.06641l0.08116,0.12052l-0.09592,0.10698l0.07255,0.07747l-0.11314,0.25208l-0.10576,0.02337l-0.12174,0.05903l-0.07993,0.10206l-0.08977,-0.09346"></path><path d="M165.66357,231.5104l-0.0246,0.08608l-0.27545,0.20167l-0.11068,-0.00738l-0.15987,0.13895l0.00368,-0.40211l0.11436,-0.18569l0.0787,0.06025l0.04795,-0.16233l0.17708,-0.02336l0.11805,-0.07255l0.00246,0.10207l0.09346,0.09715l0.05042,0.14879l-0.11559,0.01844"></path><path d="M164.64291,232.12525l-0.06886,0.1242l-0.10822,-0.04181l0.07009,-0.24595l0.11068,-0.06271l0.13896,-0.15126l-0.01844,-0.06641l0.03689,0.11191l-0.07132,0.1242l-0.1033,0.07625l0.01353,0.13158"></path><path d="M165.04871,232.54335l-0.20905,-0.11436l0.05165,-0.182l-0.03444,-0.2029l0.08609,0.07009l-0.00615,0.13896l0.12544,0.14634l-0.01353,0.14388"></path><path d="M155.66485,247.15223l0.0064,0.31357l-0.07304,-0.0332l0.06666,-0.28037"></path></g></g></g></svg>