<svg version="1.1" xmlns="http://www.w3.org/2000/svg" xmlns:xlink="http://www.w3.org/1999/xlink" width="8.33825" height="9.57592" viewBox="0,0,8.33825,9.57592"><g transform="translate(-224.95464,-200.50923)"><g fill="#ff0000" fill-rule="evenodd" stroke="#ffffff" stroke-width="0" stroke-linecap="round" stroke-linejoin="round" stroke-miterlimit="10"><path d="M232.37359,200.78305l0.0954,0.16107l-0.03964,0.42869l0.09663,0.01734l-0.02106,0.25647l0.03469,0.17593l0.07433,0.13257l-0.02973,0.09912l0.1239,0.16973l0.12018,-0.12142l0.32089,0.22425l0.06195,0.34814l0.08176,0.12637l-0.03098,0.16355l-0.17222,0.09416l-0.07186,0.09293l-0.17222,-0.13256l-0.20071,-0.0954l-0.12266,-0.01115l-0.15488,0.11895l-0.08921,-0.04089l-0.1685,0.21559l0.08426,0.19576l0.00867,0.12513l-0.16602,0.09416l-0.09912,0.1623l0.0161,0.11399l-0.38408,0.14124l-0.07062,0.12513l-0.00744,0.12637l-0.07186,0.23664l-0.16107,0.05327l-0.19948,0.18337l0.00124,0.23292l-0.12514,0.14371l0.10532,0.10902l-0.15611,0.25522l-0.36921,0.09787l0.03099,0.30603l0.2515,0.02479l0.11522,0.15362l-0.10283,0.19576l0.09167,0.07309l0.12886,0.30354l-0.07682,0.1747l-0.23911,0.15488l-0.07186,-0.01735l-0.38159,0.18832l-0.11275,-0.02973l-0.16106,0.07186l-0.06566,-0.11399l-0.17841,-0.0161l-0.13877,0.09293l-0.09416,-0.09168l-0.14371,0.24035l-0.13381,-0.00867l-0.09787,0.12018l0.02973,0.27505l-0.04584,0.12514l0.17222,0.2131l0.27257,0.02229l-0.02478,0.13876l0.21682,0.11895l0.0793,0.12018l0.1747,0.02229l-0.12639,0.22178l-0.14495,-0.04213l-0.22797,0.0384l-0.13256,0.06566l-0.15115,-0.057l-0.13628,0.00496l-0.12018,0.07559l-0.14744,0.15611l-0.05452,0.11399l-0.10655,0.08053l-0.11522,-0.00373l0.03964,0.21559l-0.01115,0.25894l-0.0508,0.20195l-0.10902,0.27381l-0.07186,0.01982l-0.07186,-0.23169l-0.15859,-0.1462l-0.13504,0.04213l-0.1016,-0.08549l-0.27381,-0.15115l-0.40267,0.03098l-0.06071,-0.05452l0.03221,-0.20442l-0.18832,-0.1016l-0.05452,-0.07433l-0.24655,-0.05947l-0.12762,-0.08673l-0.0161,-0.11399l-0.12762,-0.08176l-0.11151,-0.29735l-0.07558,-0.08673l-0.00496,-0.1338l-0.11522,-0.17964l-0.22425,-0.14248l-0.24409,-0.06691l-0.14124,0.06566l-0.20195,0.02725l-0.0508,-0.057l-0.23912,0.16726l-0.04708,-0.13381l0.09044,-0.0446l-0.06566,-0.19699l0.28248,-0.02478l0.01487,-0.16355l-0.08549,-0.03221l-0.00494,-0.22674l0.16479,-0.2131l0.14371,-0.0062l0.12637,-0.19824l-0.38159,0.10407l0.07433,-0.17222l-0.08053,-0.03346l-0.05823,-0.13876l0.16479,-0.00373l0.06689,-0.20938l0.14125,0.00247l0.18955,-0.09293l0.07309,0.02478l0.31594,-0.14495l-0.10655,-0.1239l0.09664,-0.13504l0.24779,-0.11399l-0.10283,-0.17222l-0.13256,-0.01487l-0.06691,-0.16973l-0.10407,-0.02229l-0.03099,-0.10779l-0.34567,-0.07309l-0.26017,-0.00496l0.11274,-0.14124l0.01239,-0.17593l0.13877,-0.10532l0.06566,-0.16726l0.2515,-0.14124l0.01239,-0.10779l-0.15735,-0.06566l0.13009,-0.11646l0.28745,-0.01114l0.14,0.06938l0.20195,-0.1239l0.20939,-0.01487l-0.03718,-0.07681l-0.15982,0.0062l-0.02602,-0.3531l-0.05327,-0.10654l-0.18337,-0.13381l-0.07558,0.04956l-0.19948,-0.11769l0.03469,-0.15363l-0.0446,-0.13876l0.06071,-0.04087l-0.06566,-0.15983l-0.22301,0.00744l-0.17841,-0.05327l-0.04089,-0.12886l0.18088,0.03593l0.12142,0.11026l0.05575,-0.0384l-0.11895,-0.1747l-0.14867,-0.05327l-0.18955,-0.11647l-0.07682,-0.11895l-0.33329,-0.02354l0.03098,-0.16107l0.11275,-0.11769l-0.07682,-0.1462l0.07682,-0.21929l0.16355,-0.03221l0.06566,-0.06815l0.1685,0.09416l-0.11769,0.13009l0.02229,0.12142l0.12885,0.09541l0.01487,0.13256l0.2701,0.02106l0.17841,-0.1685l0.13505,0.09787l0.1747,-0.05203l0.11399,0.00991l0.13504,-0.09787l0.13753,-0.01735l0.03221,-0.19452l0.07559,-0.08797l0.1685,0.08301l0.13009,-0.04089l0.13753,-0.14495l0.14,-0.03593l0.18337,0.05204l0.12513,-0.08549l0.10902,0.27505l0.13628,-0.07929l0.01735,-0.13256l0.11399,-0.0062l0.32089,-0.23044l0.24656,-0.05327l0.2639,0.06815l0.31098,-0.08053l0.04708,-0.12143l0.19328,0.02973l0.04831,-0.08426l0.30604,-0.06442l0.05204,0.0384l0.38532,-0.13628l0.16106,0.09293l0.03966,0.13504l0.08797,0.04336l0.18708,-0.19328l0.17841,-0.09664l0.15982,-0.02725l0.11151,-0.14867l0.16974,-0.10037l0.22177,0.00991l0.01115,-0.05824l0.21557,0.03964l0.08177,-0.11769l0.38656,0.01858l0.05824,0.25522"></path></g></g></svg>