<svg version="1.1" xmlns="http://www.w3.org/2000/svg" xmlns:xlink="http://www.w3.org/1999/xlink" width="14.42274" height="10.35405" viewBox="0,0,14.42274,10.35405"><g transform="translate(-282.33249,-169.65532)"><g fill="#ff0000" fill-rule="evenodd" stroke="#ffffff" stroke-width="0" stroke-linecap="round" stroke-linejoin="round" stroke-miterlimit="10"><path d="M288.54837,170.10621l-0.12018,0.1462l-0.01114,0.22301l-0.1239,0.00991l-0.07186,0.23664l0.01362,0.13256l0.11026,-0.00496l0.12142,0.18337l0.12142,0.11895l0.11522,-0.06815l0.12637,0.07433l0.12639,0.19576l0.01858,0.13134l0.15859,0.17964l0.13133,0.00124l0.14124,0.18708l0.43487,0.04831l0.03964,0.09293l-0.04956,0.11151l-0.15488,0.00991l-0.10779,0.36302l0.03717,0.12018l0.12389,0.04708l0.19081,0.15486l0.14248,0.01115l0.02973,0.13009l0.24779,0.20072l-0.22798,0.06566l-0.10779,0.28372l0.03346,0.14371l0.00992,0.0062l-0.00992,0.00867l-0.00247,0.08426l0.18214,0.0508l0.14495,0.14497l-0.02602,0.14495l0.37416,0.18584l0.23294,0.19328l-0.0446,0.13009l0.17965,0.12018l-0.32089,0.37169l-0.51666,-0.00124l-0.25152,-0.10655l-0.18214,0.12514l-0.17345,-0.09416l-0.43612,-0.04833l-0.07558,-0.19451l-0.1623,-0.0508l-0.05824,0.08921l0.03222,0.30851l0.09663,0.21683l0.3977,0.17717l0.21187,-0.00247l0.20938,0.09912l0.25152,-0.05451l0.17345,0.04584l0.24656,-0.01735l0.33576,0.42125l-0.33948,0.15983l0.2131,0.11895l0.32708,0.02354l0.17222,-0.1276l0.44355,0.19824l0.05947,0.13134l0.29612,0.17222l0.24779,0.08053l0.15488,-0.18088l-0.03964,-0.16478l-0.13381,-0.11895l-0.17717,-0.04089l-0.09912,-0.38037l-0.057,-0.01611l-0.35806,-0.66408l-0.16355,-0.20195l-0.057,-0.29735l-0.14495,-0.08796l-0.08797,-0.17841l0.0384,-0.14248l-0.20938,-0.3531l-0.2069,-0.18461l-0.03593,0.00247l0.00124,-0.12018l0.12142,0.04336l0.26763,-0.02602l0.14991,0.28248l0.16726,-0.08053l0.1747,-0.18584l0.07309,-0.35558l0.11399,-0.1338l-0.09044,-0.24656l-0.28496,-0.14744l-0.04833,-0.10158l0.07186,-0.14124l0.13877,0.00247l0.10902,-0.16479l0.07682,0.15363l0.10779,-0.09788l0.25894,-0.05204l0.20815,-0.17594l0.02229,-0.28619l0.20195,0.00373l0.1685,-0.02725l0.01487,0.0508l0.14124,0.07433l0.23541,0.02725l0.03222,0.06939l0.05823,0.56746l0.08053,0.4485l0.11151,0.49064l0.19575,0.65789l0.16107,0.42745l0.28248,0.68391l0.33079,0.76321l0.15488,0.29983l0.17717,0.12886l0.19948,0.40762l-0.08797,0.13753l-0.21062,0.14868l0.00371,0.11151l0.28249,-0.21187l0.09788,0.06691l0.41629,0.71861l0.00496,0.11026l0.66037,1.0841l0.41629,0.59595l0.17345,0.1623l0.11399,0.02849l-0.07433,0.07309l-0.29735,0.0062l-0.08177,-0.03098l-0.337,-0.25894l-0.57613,-0.40762l-0.19576,-0.23788l-0.10779,-0.337l-0.13134,-0.20567l-0.24531,-0.17593l-0.25275,-0.08301l-0.44231,-0.09044l-0.02354,-0.08549l-0.2577,-0.47577l-0.11275,-0.11275l-0.12886,-0.04336l-0.09044,-0.15983l-0.13133,-0.11646l-0.41134,-0.22424l-0.32461,-0.30604l-0.14248,0.21929l-0.02973,0.16107l-0.12514,0.08053l0.04213,0.20195l-0.07558,0.08797l-0.32338,-0.25771l-0.12266,0.17593l-0.37789,0.13133l-0.26637,-0.03964l-0.25522,0.1016l-0.15115,0.04584l-0.13133,0.11399l-0.05824,0.13256l-0.16602,0.16602l-0.14744,0.09663l-0.18337,0.02478l-0.27505,-0.13009l-0.12266,-0.00867l-0.13009,0.06442l-0.27381,0.2131l-0.13628,0.01982l-0.21187,-0.11522l-0.12514,0.00496l-0.23291,0.1462l-0.37046,0.13753l-0.12637,-0.04584l-0.15239,-0.20195l-0.08177,-0.1747l-0.30727,-0.15859l-0.18214,-0.0508l-0.17097,0.11399l-0.16355,-0.1747l-0.1685,-0.06071l-0.20319,-0.13134l-0.15115,-0.14495l-0.27505,0.01239l-0.23788,-0.20567l-0.14867,-0.06195l-0.17345,-0.14371l-0.15982,-0.06815l-0.08549,-0.15611l0.07806,-0.17222l-0.06815,-0.11275l-0.19576,-0.01362l-0.21434,-0.11026l-0.18832,-0.17345l-0.07433,-0.28744l-0.26142,-0.33452l-0.24656,-0.17841l-0.29115,-0.32709l-0.06689,-0.12266l-0.05575,-0.2515l-0.07929,-0.1462l-0.13133,-0.11895l-0.10902,0.08549l-0.02229,0.11895l-0.12886,0.15859l-0.23541,-0.1016l-0.18584,0.00867l-0.04336,-0.05575l-0.01487,-0.26637l-0.00867,-0.07682l-0.15859,-0.21062l-0.04336,-0.14868l-0.17345,-0.31346l-0.06442,-0.28992l0.03346,-0.25152l-0.07062,-0.12266l0.07062,-0.10532l0.15982,0.07186l0.01239,-0.13876l0.24779,0.07681l0.01858,0.05452l0.23912,-0.13504l0.14495,-0.12513l0.76568,-0.3147l0.06194,-0.12018l0.06319,-0.26886l0.12142,-0.18832l-0.08053,-0.22301l0.18337,-0.30727l0.08549,0.02106l0.19328,-0.07062l0.29859,0.08177l-0.02849,0.12018l0.1239,0.06071l0.08053,-0.04956l-0.0062,-0.13256l0.04956,-0.41383l0.10408,-0.07433l0.15362,-0.02973l0.13753,-0.08796l0.22674,-0.02726l0.00991,-0.25399l0.11522,-0.10902l0.18957,0.11274l0.14495,-0.01239l0.13877,-0.12886l0.28124,-0.02106l0.15735,0.03346l0.19081,-0.09912l0.06815,-0.10779l-0.01115,-0.21806l0.29859,0.02478l0.11646,0.07062l0.11769,-0.0161l0.03593,-0.19576l0.21929,-0.06319l0.16479,0.04831l0.13753,0.20938l0.11646,-0.02973l0.24284,0.02725l0.05452,0.19576M293.71983,177.19062l-0.18584,-0.10902l-0.07929,0.17964l0.23665,0.31841l0.10532,-0.22054l-0.07681,-0.1685M292.86866,174.71021l-0.07929,0.20567l0.1276,0.27257l0.18214,0.1338l-0.07309,0.11646l0.11399,0.15611l-0.19575,0.32956l0.19081,0.07062l0.3147,0.32956l-0.08177,0.04833l0.12142,0.24035l0.31346,0.01735l-0.20442,-0.17965l0.09788,-0.16479l-0.15735,-0.3655l-0.14,-0.05204l-0.01115,-0.1623l-0.0954,-0.13009l-0.04089,-0.37293l-0.12514,-0.07433l-0.02849,-0.17222l-0.17222,-0.15362l-0.11026,-0.4386l-0.1462,0.19701l0.19948,0.14867"></path></g></g></svg>