<svg version="1.1" xmlns="http://www.w3.org/2000/svg" xmlns:xlink="http://www.w3.org/1999/xlink" width="6.71267" height="8.08427" viewBox="0,0,6.71267,8.08427"><g transform="translate(-272.76644,-181.02767)"><g fill="#ff0000" fill-rule="evenodd" stroke="#ffffff" stroke-width="0" stroke-linecap="round" stroke-linejoin="round" stroke-miterlimit="10"><path d="M275.87374,181.18259l0.02602,0.15735l0.12265,0.09044l0.15239,-0.02725l0.08053,-0.08549l0.21929,0.11274l-0.00247,0.13134l0.05823,0.17345l0.12018,0.1685l0.27628,0.19576l0.38037,-0.17594l0.12018,0.02229l0.08176,0.08426l0.18337,0.02849l0.08177,-0.03221l0.51789,0.11026l0.35558,0.2131l0.09912,0.00992l0.02602,0.10779l0.09663,0.03346l0.05452,0.13876l0.18957,0.24159l0.20319,0.14001l0.1623,0.19948l-0.02973,0.11522l-0.16107,0.1239l-0.1685,0.07558l-0.10779,-0.12266l-0.16973,0.24531l-0.14371,0.02849l-0.09293,0.09912l-0.16974,-0.01364l0.07433,0.35683l-0.01858,0.15362l-0.09044,0.13009l0.04956,0.19081l-0.07433,0.4609l0.05327,0.18832l-0.17965,-0.00496l-0.04336,0.16478l-0.10655,0.07559l-0.14991,-0.08549l-0.0384,0.05947l-0.22674,0.04213l-0.11523,-0.07806l-0.16479,0.02478l0.00991,0.12266l-0.20443,0.00867l-0.09912,0.2515l-0.22673,0.04956l-0.12514,0.09912l0.02229,0.17345l0.06195,0.09293l-0.15239,0.13753l0.06071,0.07806l0.00247,0.15611l-0.05327,0.27257l-0.33948,0.15115l-0.28124,0.26019l-0.15611,0.08176l-0.28249,0.22797l-0.08176,0.20195l-0.00744,0.33823l-0.06319,0.34444l0.10779,0.20319l-0.0161,0.23292l-0.29116,0.04087l-0.10532,0.1177l-0.26637,0.01859l-0.21434,-0.07559l-0.08301,0.01611l-0.32832,-0.09912l-0.11399,0.01364l-0.04956,-0.16355l0.03346,-0.14868l-0.09293,-0.17593l-0.09663,-0.0062l-0.13381,-0.08177l-0.18957,-0.19824l0.00124,-0.17965l-0.16479,-0.534l0.01239,-0.24161l0.13009,-0.21929l0.13877,-0.15859l0.07186,-0.01114l0.09541,-0.32089l-0.01362,-0.04708l0.11646,-0.23788l-0.1016,-0.13381l-0.03346,-0.1846l-0.02725,-0.38159l-0.09044,-0.13133l0.03966,-0.22674l-0.1016,-0.06814l-0.11769,0.02601l-0.18088,-0.04833l-0.0384,0.04585l-0.61948,0.01982l0.02106,-0.16355l0.09416,-0.05947l0.06071,-0.1685l-0.03964,-0.17222l0.33576,-0.337l0.30107,-0.05947l0.12389,-0.14991l0.23912,-0.01487l0.08426,-0.08053l0.15611,-0.01611l0.0384,-0.11769l0.16478,-0.16355l0.02602,-0.15611l0.1747,0.03346l0.10532,-0.05204l0.2131,-0.01859l0.10532,-0.14867l0.12142,-0.07682l0.12142,-0.17593l-0.02354,-0.17222l0.20319,-0.19576l-0.00744,-0.28001l-0.07929,-0.08921l0.09788,-0.11769l0.05452,-0.32338l-0.12637,-0.12513l0.04336,-0.27257l-0.12018,-0.19824l0.17345,-0.26017l0.19699,0.0793l0.17841,-0.01735l0.06939,0.09293M273.60023,187.6661l0.14,0.22301l0.01487,0.22797l0.13877,0.13133l0.01487,0.09787l0.25399,-0.11151l-0.21929,-0.1623l-0.1239,-0.1524l-0.05823,-0.27133l-0.1177,-0.04461l-0.04336,0.06195"></path></g></g></svg>