<svg version="1.1" xmlns="http://www.w3.org/2000/svg" xmlns:xlink="http://www.w3.org/1999/xlink" width="7.69609" height="9.04526" viewBox="0,0,7.69609,9.04526"><g transform="translate(-286.78533,-128.00958)"><g fill="#ff0000" fill-rule="evenodd" stroke="none" stroke-width="0.4" stroke-linecap="round" stroke-linejoin="round" stroke-miterlimit="10"><path d="M290.52753,128.40826l0.18935,0.1445l0.21302,0.02367l0.03238,0.23793l0.13205,0.22174l0.24291,0.07101l0.24666,0.01869l0.22423,-0.02865l0.07225,0.15696l0.09716,0.02616l0.07101,0.13951l0.03114,0.21054l-0.05107,0.20804l0.10837,0.1881l0.04236,0.21676l0.22673,0.09094l0.15447,0.1308l0.0274,0.12208l0.1333,0.06229l0.13204,-0.08595l0.12707,0.04609l0.11834,-0.05232l0.1445,0.18437l0.00746,0.12831l-0.11087,0.15696l0.03114,0.1607l0.14575,0.03489l0.07599,0.19059l0.12707,0.00746l0.26658,0.17191l0.09716,0.1607l0.01122,0.13703l-0.0461,0.24291l0.09716,0.29524l0.29773,0.15696l0.1171,-0.05606l0.12083,0.12583l-0.12583,0.11834l-0.06354,0.24042l-0.10339,0.08596l-0.02615,0.16195l-0.17316,0.16319v0.28777l0.11709,0.04485l0.09966,0.2043l-0.06851,0.23543l-0.15945,0.27905l-0.05107,0.23669l-0.15073,0.10837l-0.25538,-0.06977l-0.08222,-0.15696l-0.20305,-0.02616l0.03238,-0.18437l-0.02492,-0.15572l-0.09592,-0.23045l-0.17565,-0.13329l-0.17191,0.05232l-0.07972,-0.10589l-0.12083,-0.00747l-0.05232,0.09342l-0.24666,-0.08719l0.00498,-0.09841l-0.13329,-0.15696l-0.01743,-0.12955l-0.43103,0.27281l-0.30022,0.01619l-0.22423,0.1445l-0.10837,0.1445l-0.21924,-0.05606l-0.39117,0.15945l-0.15696,0.01371l0.09218,0.22299l-0.01993,0.19184l-0.07475,0.11461l-0.15945,0.05481l0.03489,0.41732l-0.17439,0.13827l-0.15696,0.04983l-0.1308,0.29524l-0.1308,0.1607l-0.17191,0.09716l-0.07349,0.28028l-0.22299,0.0872l-0.11461,0.19683l-0.36001,-0.03612l-0.23295,0.14201l-0.21676,0.27032l-0.22547,0.08346l-0.0299,0.16569l-0.09466,0.00248l-0.22921,-0.23918l-0.20305,-0.04112l-0.06976,0.09841l-0.3052,0.13827l-0.18935,-0.14824l0.00996,-0.43103l0.09218,0.08222l0.30022,-0.13951l0.13827,-0.15572l0.05729,-0.15447l0.16817,-0.01619l0.01495,-0.15447l0.12332,-0.09841l0.05979,-0.16567l-0.07475,-0.38992l0.0299,-0.18062l-0.13827,-0.04485l-0.07599,-0.10215l-0.12954,-0.02367l-0.21178,-0.16817l-0.05979,-0.21676l-0.1607,-0.06354l-0.03987,-0.12707l-0.14077,-0.21426l0.11336,-0.05357l0.01993,-0.22298l0.0872,-0.17316l0.08096,-0.30022l-0.12208,-0.07349l-0.13951,-0.48832l-0.08097,-0.14326l0.33136,-0.30022l0.12831,0.00623l0.09841,-0.14575l0.12083,-0.02616l-0.07847,-0.23794l0.15696,-0.07724l0.2753,0.02742l0.07225,-0.05856l0.00124,-0.1607l-0.05729,-0.06853l-0.31392,-0.11212l0.06104,-0.3351l0.26783,-0.09094l0.07599,-0.08346l-0.00997,-0.36624l0.24291,-0.22423l-0.21054,-0.21801l-0.00747,-0.26534l0.06603,-0.06727l0.13579,0.0299l0.07724,-0.11585l-0.07724,-0.15572l0.11834,-0.147l-0.03862,-0.10465l-0.16443,-0.11087l-0.07849,0.03986l-0.1607,-0.06851l0.07101,-0.15446l0.05357,-0.24168l-0.08846,-0.23918l0.20928,-0.147l0.04609,-0.14326l0.19683,-0.10339l0.30022,-0.12955l0.32638,-0.03862l0.04609,0.09964l-0.05232,0.28527l0.26534,0.07475l0.06977,0.06354l0.22921,-0.05979l0.0872,0.04112l0.11461,-0.10465l0.27904,0.10713l0.12332,0.15945l0.20305,0.07225l0.09966,-0.18312l0.00124,-0.09966l0.12831,-0.0573"></path></g></g></svg>