<svg version="1.1" xmlns="http://www.w3.org/2000/svg" xmlns:xlink="http://www.w3.org/1999/xlink" width="8.51305" height="12.23094" viewBox="0,0,8.51305,12.23094"><g transform="translate(-263.65495,-176.46099)"><g fill="#ff0000" fill-rule="evenodd" stroke="#ffffff" stroke-width="0" stroke-linecap="round" stroke-linejoin="round" stroke-miterlimit="10"><path d="M270.69486,177.52763l0.20567,0.0384l0.14248,-0.01982l0.14744,0.11026l0.09787,0.32214l0.14124,0.03221l0.06442,0.1177l0.18461,-0.05204l0.04833,0.05327l0.16107,-0.07806l0.13876,0.04213l0.07558,0.08921l0.03346,0.26886l-0.05327,0.13877l-0.12266,0.1276l0.10902,0.11646l-0.0384,0.1462l0.07433,0.03593l0.06319,0.32585l-0.06319,0.05327l-0.56621,0.04213l0.02849,0.17593l0.10655,0.15363l0.21559,0.09416l0.17345,0.33081l-0.05452,0.19204l0.00124,0.19204l0.05823,0.20318l-0.15983,0.24409l0.04336,0.18088v0.17841l-0.25522,0.30479l-0.12266,-0.0062l-0.06442,0.11399l-0.14001,-0.01858l-0.12389,0.09044l-0.14868,0.02602l-0.02725,0.09044l-0.1276,0.13256l0.06195,0.11769l-0.01487,0.10284l0.14991,0.01611l0.02229,0.1623l0.08176,0.07558l-0.02106,0.13877l-0.11028,0.03345l-0.21559,-0.00867l-0.13753,0.08176l-0.27133,0.10655l-0.06939,0.057l-0.40391,0.14248l-0.21807,0.2131l-0.49434,0.09664l-0.19328,0.1685l-0.23044,-0.03966l-0.09788,0.14124l0.0161,0.18584l-0.1623,0.13628v0.01364l-0.07062,-0.0062l-0.0446,0.14744l0.07433,0.13133l0.05204,0.00247l0.00496,0.12018l-0.02602,0.02726l-0.05575,0.07433l-0.22674,0.1016l-0.04336,0.12266l-0.12266,0.14124l-0.17222,0.11275l-0.00744,0.11026l0.057,0.18708l-0.06319,0.20815l-0.00124,0.46462l0.05204,0.06815l0.00371,0.15982l-0.28496,0.25771l0.04956,0.26514l0.06938,0.19204l-0.01734,0.19081l-0.07558,0.13133l0.08053,0.10284l0.07682,0.34691l0.06689,0.14l-0.06071,0.09912l0.07186,0.24161l-0.13381,0.02602l-0.20072,0.19824l-0.06319,0.14495l-0.11893,0.1239l-0.08921,-0.08797l-0.28745,-0.08053l-0.05327,0.01982l-0.32089,-0.03345l-0.14744,-0.26142l-0.14124,-0.08053l-0.09912,0.04089l-0.06566,-0.11522l-0.03098,-0.25771l-0.06938,-0.32461l-0.09912,-0.11646l-0.13876,-0.24656l-0.00247,-0.30603l0.07062,-0.13753l-0.02354,-0.08177l-0.16107,-0.19699l-0.17593,-0.00371l-0.10037,-0.13009l-0.13381,-0.00991l-0.26761,0.16107l-0.0793,0.00124l-0.13876,0.18584l-0.19204,-0.15362l-0.14744,-0.03099l-0.11399,-0.23044l0.10283,-0.10655l-0.07062,-0.37789l-0.23912,-0.11769l0.10035,-0.25646l0.07186,-0.0446l0.0062,-0.13256l0.14495,-0.11522l0.01611,-0.36053l-0.0508,-0.20567l-0.13628,-0.14497l0.02478,-0.14248l0.0892,-0.03717l0.05452,-0.15363l0.02849,-0.45471l0.10902,-0.12514l-0.07929,-0.19824l-0.06566,-0.05574l0.02725,-0.337l-0.18708,-0.15983l-0.06195,-0.3531l0.05204,-0.07433l-0.03718,-0.2069l-0.06071,-0.01611l0.00496,-0.24531l-0.09664,-0.07558l0.04956,-0.19699l-0.05204,-0.08797l-0.11646,0.02106l-0.13133,-0.17222l-0.03221,-0.12886l-0.15115,-0.12142l0.00867,-0.35434l-0.1623,-0.24035l0.01115,-0.10902l0.19452,-0.13256l0.26886,-0.28124l0.03593,-0.07682l0.18088,-0.11026l-0.14867,-0.12142l-0.24035,-0.2577l-0.08673,0.01487l-0.1623,-0.14495l0.03221,-0.13504l0.22178,-0.24159l-0.02725,-0.10532l0.28868,-0.53152l0.07186,-0.28619l0.06939,-0.0954l0.12886,-0.05452l0.19576,0.15363l0.10407,0.16726l0.13381,0.08549l0.11769,-0.11769l0.18088,-0.31221l0.20567,-0.22797l0.0892,-0.18337l0.13009,-0.17346l0.03717,-0.23911l0.18708,-0.14867l0.02229,-0.17717l0.10654,-0.13381l0.14001,0.00124l0.11026,0.07558l0.41505,0.11274l0.23541,0.12018l0.13753,0.19576l-0.08426,0.13877l-0.0384,0.17593l0.12142,0.22301l0.07806,-0.00496l0.13876,0.11151l0.28496,-0.08921l-0.00124,-0.13876l0.1016,-0.0161l0.03593,-0.10283l0.19452,0.00247l0.09911,0.06442l0.19824,-0.00371l0.10408,-0.06442l0.13133,0.02478l0.15239,0.09044l0.05327,-0.08549l0.14124,-0.01858l0.12513,0.12886l0.12142,0.01735l-0.06319,0.13753l-0.00496,0.32461l0.04956,0.07309l0.28992,0.05575l0.10284,-0.07186l0.16602,-0.01734l0.24903,0.09293l0.08301,-0.17841l0.0384,-0.18955l0.07558,-0.03098l0.19948,-0.21063l0.26017,0.0062l0.24904,0.11646"></path></g></g></svg>