<svg version="1.1" xmlns="http://www.w3.org/2000/svg" xmlns:xlink="http://www.w3.org/1999/xlink" width="11.70615" height="8.60541" viewBox="0,0,11.70615,8.60541"><g transform="translate(-278.0378,-158.18734)"><g fill="#ff0000" fill-rule="evenodd" stroke="#ffffff" stroke-width="0" stroke-linecap="round" stroke-linejoin="round" stroke-miterlimit="10"><path d="M285.94326,158.19349l0.02242,0.07599l0.20055,0.02492l0.44099,0.10465l0.12208,-0.04484l0.28279,0.11833l0.12955,0.147l0.10589,-0.01993l0.2915,0.0897l0.16567,0.00872l0.31517,0.26286l0.11212,-0.03489l0.23918,0.23543l-0.03362,0.06602l0.24042,0.26286l0.25288,0.07475l-0.0299,0.13827l0.11336,0.13953l-0.00623,0.30146l0.04983,0.07101l0.2043,0.08346l0.06229,-0.08346l0.30146,-0.03114l0.0299,0.26159l-0.13827,0.13703l0.13453,0.26409l-0.08846,0.1582l0.11461,0.15945l-0.15572,0.2043l0.03737,0.10339l0.22547,0.0897l0.03238,0.06478l-0.13453,0.0573l-0.06352,0.12955l0.00374,0.19433l0.06977,0.27655l0.0299,0.28028l-0.06478,0.32139l0.04359,0.16443l0.13329,0.20181l0.00872,0.58923l-0.15696,0.11585l-0.25538,-0.28777l-0.06727,-0.23295l0.05108,-0.17316l-0.01371,-0.147l-0.17191,-0.08097l-0.16195,0.09218l-0.07724,0.18562l-0.13453,0.07972l-0.16071,-0.11834l-0.04734,0.18064l-0.06104,0.0274l-0.08222,0.20554l-0.27406,0.25288h-0.26534l-0.04236,-0.06977l-0.25163,-0.1308l-0.14077,0.01869l-0.09841,0.15572l-0.20181,0.04484l-0.09841,-0.06354l-0.05231,0.19184l-0.08097,0.11212l-0.35503,-0.24666l-0.10837,-0.15322l-0.19683,-0.1196l-0.12333,0.30645l0.11461,0.1769l-0.18686,0.1856l0.03737,0.07724l-0.13081,0.08472l0.06853,0.08346l-0.03862,0.21054l-0.31891,0.03362l-0.02367,0.10713l-0.31642,-0.00248l-0.06229,-0.03114l-0.30647,-0.00747l-0.26658,-0.11585l-0.22423,0.1632l-0.01495,0.21426l-0.21924,-0.00374l-0.07225,-0.15073l-0.1196,0.04111l-0.14326,0.14326l-0.13205,0.01993l-0.03114,0.36126l0.09342,0.14824l0.03986,0.25911l-0.02242,0.18437l-0.30021,0.10465l0.02865,0.10465l-0.17813,0.00872l-0.15198,0.16569l-0.07973,-0.04734l-0.1495,0.04983l-0.16194,-0.10465l0.00746,-0.15198l0.09716,-0.1283l-0.15322,-0.09218l-0.01245,-0.24291l-0.16319,0.00374l-0.16443,0.09466l-0.07599,-0.09841l-0.16569,0.01619l-0.1308,-0.05357l-0.09468,0.03862l0.15073,0.2043l-0.17565,0.21177l-0.47711,-0.21676l-0.20554,-0.22673l-0.10339,-0.04982l-0.0872,-0.46591l0.03238,-0.11212l-0.17813,-0.147l-0.15447,-0.01121l-0.13827,0.07599l-0.17316,0.03488l0.02118,0.39366l-0.10963,0.0299l-0.09966,0.19309l-0.09841,0.05606l-0.05231,0.16195l0.02118,0.12582l0.14077,0.22049l-0.25413,0.1196l-0.26534,0.17565l-0.01869,0.09841l-0.25413,-0.01245l-0.10837,0.08596l-0.1171,0.00997l-0.18064,-0.10837l-0.17067,0.09218l-0.1495,-0.15198h-0.18562l-0.24291,-0.04859l-0.08222,-0.1283l-0.19931,-0.06603l-0.01993,-0.08969l0.0299,-0.13827l-0.04734,-0.23046l0.09716,-0.13329l0.05979,-0.19557l-0.0299,-0.21426l0.24168,-0.23296l0.17439,-0.58798l-0.17689,-0.08596l-0.06602,-0.20181l0.14326,-0.26909l0.1495,-0.05482l0.04609,-0.12083l-0.00125,-0.19308l0.13329,-0.01245l0.03114,-0.14326l0.19433,-0.19433l-0.11709,-0.12083l-0.13205,-0.01245l-0.25163,-0.10215l-0.03364,-0.08222l-0.13953,-0.02616l0.06976,-0.36126l0.12083,-0.07723l0.03362,-0.19309l0.10963,-0.1308l0.18064,-0.08222l-0.00746,-0.1171l0.07225,-0.1445l0.16319,-0.11709l0.18312,0.05357l0.10091,-0.18312l-0.00747,-0.09342l0.2778,-0.18686l0.05605,-0.26286l0.28777,-0.07349l0.12458,0.1171l0.1196,-0.02492l0.13953,-0.12955l0.21924,-0.06104l0.1495,-0.14201l0.12208,-0.02492l0.31143,-0.19433l0.0299,-0.15572l0.20927,0.04485l0.1607,-0.02742l0.17316,-0.19059l0.12583,-0.09218l0.36624,-0.13453l0.14575,-0.25288l0.19184,-0.09094l0.10463,0.04983l0.13081,-0.142l0.27406,-0.00375l0.05357,-0.05231l0.19184,0.02242l0.12707,-0.07972l0.18686,-0.2043l0.12583,-0.0299l0.26783,0.09218l0.11212,-0.00623l0.03238,-0.36749l-0.07349,-0.11585l0.1582,-0.1582l0.04859,-0.11461l0.19932,-0.09094l0.16443,-0.02118l0.06602,-0.1009l0.14077,0.01743l0.21177,-0.11087l0.27032,0.0872l0.218,-0.09466l0.34257,0.00623"></path></g></g></svg>