<svg version="1.1" xmlns="http://www.w3.org/2000/svg" xmlns:xlink="http://www.w3.org/1999/xlink" width="19.60857" height="12.83745" viewBox="0,0,19.60857,12.83745"><g transform="translate(-298.40857,-61.17217)"><g fill="#ff0000" fill-rule="evenodd" stroke="#ffffff" stroke-width="0" stroke-linecap="round" stroke-linejoin="round" stroke-miterlimit="10"><path d="M317.28363,61.28502l0.04542,0.28625l-0.13074,0.18304l0.07018,0.22983l0.31791,0.0578l-0.00688,0.14038l0.12661,0.12111l0.02477,0.1624l0.28074,0.17891l0.0055,0.16927l-0.11698,0.16927l-0.15827,0.17617l0.06743,0.30002l-0.14175,0.24222l-0.04403,0.18992l0.10046,0.32754l-0.06331,0.11423l0.01101,0.29451l-0.03853,0.23397l-0.08532,0.06881l-0.00413,0.26286l-0.46241,0.26423l-0.17203,0.2202l-0.45278,0.04954l0.00276,0.19266l-0.10734,0.19405l-0.30966,0.06881l-0.05506,0.3647l-0.2546,0.15552l-0.09496,0.16102l-0.02891,0.17617l-0.13348,0.04679l0.00276,0.20369l-0.12938,0.09359l-0.01377,0.22845l-0.10873,0.15827l-0.10046,0.30552l-0.0523,0.48306l-0.13487,0.04128l-0.25736,0.16927l-0.08946,0.13487l-0.24222,0.06331l-0.08258,-0.03441l-0.13487,0.20368l-0.22295,0.18992l-0.30416,0.11146l-0.01514,0.11698l-0.21607,-0.09496l-0.18165,-0.00551l-0.04679,0.18167l-0.16789,0.13212l-0.15,-0.19542l-0.19818,-0.11284l-0.07844,-0.13626l-0.23809,-0.14588l-0.20369,-0.3248l-1.12851,-0.52847l-0.1624,-0.0922l-0.12248,0.1679l-0.27387,-0.09772l0.03441,-0.11698l-0.33305,-0.14313l-0.59178,-0.12387l-0.35232,-0.02477l-0.23534,0.01652l-0.1968,-0.04954l-0.39085,0.04403l-0.09496,-0.04129l-0.56426,0.12387l-0.74317,0.20368l-0.92758,0.37983l-0.60417,0.33305l-0.53536,0.33443l-0.53948,0.36882l-0.32066,0.31103l-0.12524,0.04679l-0.37296,0.28901l-1.02253,0.9152l-0.22845,0.01238l-0.32891,0.24634l-0.13625,-0.01375l-0.22571,0.20229l-0.51058,0.50921l-0.35232,0.37709l-0.3248,0.44591l-0.40461,0.46928l-0.14725,0.20369l-0.05506,0.28762l-0.09358,0.09909l-0.36882,-0.14588l-0.09359,0.02477l-0.14175,-0.18165l-0.20093,-0.03578l-0.15964,-0.35508l0.25736,-0.12937l0.24634,0.16513l0.011,0.15552l0.20506,0.02202l-0.05367,-0.39635l-0.05504,-0.18165l-0.54911,-0.10322l-0.26561,-0.10734l-0.12111,-0.1968l0.33992,-0.15552l0.2133,0.01514l0.24084,-0.21469l0.11698,-0.15964l0.12248,-0.05506l-0.0578,-0.18028l0.0578,-0.2202l0.09633,-0.10322l-0.13075,-0.13075l0.01101,-0.21883l0.07844,-0.18716l-0.20369,-0.1101l0.00413,-0.40736l-0.05917,-0.10459l0.36332,-0.23808l0.28213,-0.0468l0.10459,0.06056l0.23809,-0.12249l0.17478,-0.2023l0.21745,-0.011l-0.0523,-0.28213l0.26561,-0.17754l0.04129,-0.13487l-0.01927,-0.42801l0.10322,-0.19818l0.2491,-0.18578l0.03028,-0.14588l0.16651,0.01514l0.28901,-0.2023l0.03578,-0.11698l-0.06744,-0.17478l0.15139,-0.08808l0.01238,-0.25185l0.0867,-0.17203l0.28213,-0.23808l0.11284,-0.14313l0.07569,-0.02478l0.17478,-0.25185l0.12248,0.03715l0.34818,0.00827l0.10046,-0.23533l0.10459,-0.05917l0.57251,0.38534l0.15139,0.16927l0.15827,0.03166l0.23945,-0.04403l0.26287,0.06881l0.17203,-0.08119l0.01514,-0.11835l0.18992,-0.00413l0.22571,-0.45691l0.12661,-0.09772l0.00413,-0.40461l-0.03165,-0.36745l0.38672,0.05367l0.17617,-0.06193l0.13349,0.15276l0.36607,0.11147l0.31929,-0.00413l0.24359,0.04954l0.19818,-0.07294l0.2546,0.14313l0.15,-0.01238l0.27937,-0.29176l0.16514,-0.24222l0.22984,-0.00137l0.37984,-0.07982l0.27524,0.02202l0.3124,0.07982l0.20506,0.01377l0.21744,-0.18167l0.3303,-0.18028l0.2546,-0.3647l0.15139,-0.07982l0.00413,-0.18442l-0.16102,-0.17617l0.34544,-0.16377l-0.06193,-0.14726l0.12111,-0.33717l-0.0399,-0.1679l0.2133,-0.3124l0.42113,-0.28213l0.41837,-0.18716l0.03578,-0.08121l0.15276,0.1734l0.49132,0.27938l0.00964,0.14726l0.26974,0.13487l0.26699,0.54361l0.03441,0.14175l0.22571,0.08808l0.06744,0.08119l0.21194,-0.22571l0.14725,0.08532l0.23258,-0.08395l0.27938,-0.24496l0.13487,0.04954l0.23946,-0.25046l0.10597,0.08258l0.39361,-0.47342l0.07018,-0.18855l-0.02339,-0.20506l0.3757,-0.23121l0.10459,-0.01514l-0.01514,-0.39085l0.15689,-0.10734l0.08946,0.07294l0.2078,-0.16377l0.12661,0.14863l0.25322,-0.03853l0.08532,-0.12524l0.17341,-0.0523l-0.00827,-0.09909l0.21331,-0.11284l0.22983,0.14175l0.09909,-0.29451l0.13075,-0.09084l0.10734,0.11284"></path></g></g></svg>