<svg version="1.1" xmlns="http://www.w3.org/2000/svg" xmlns:xlink="http://www.w3.org/1999/xlink" width="105.93278" height="28.12686" viewBox="0,0,105.93278,28.12686"><g transform="translate(-71.70344,-314.69006)"><g stroke-miterlimit="10"><g fill="#ff0000" fill-rule="evenodd" stroke="#ffffff" stroke-width="0" stroke-linecap="round" stroke-linejoin="round"><path d=""></path><path d=""></path><path d=""></path><path d=""></path><path d=""></path><path d=""></path><path d=""></path><path d=""></path><path d=""></path></g><path d="M72.42182,342.28793l0.18533,0.0202l0.32837,0.14898l-0.06085,0.13887l-0.1712,0.09974l-0.11287,0.1212l-0.36422,-0.07196l-0.02374,0.04797l-0.17548,0.01515l-0.24391,-0.09342l-0.07828,0.00505l0.02248,-0.19569l0.15074,-0.05555l0.09569,-0.14643l0.15276,0.07196l0.18092,-0.04292l0.11425,-0.06313" fill="#ff0000" fill-rule="evenodd" stroke="#ffffff" stroke-width="0" stroke-linecap="round" stroke-linejoin="round"></path><g><g fill="#ff0000" fill-rule="evenodd" stroke="#ffffff" stroke-width="0" stroke-linecap="round" stroke-linejoin="round"><path d=""></path><path d=""></path><path d=""></path></g><g fill="#ff0000" fill-rule="evenodd" stroke="#ffffff" stroke-width="0" stroke-linecap="round" stroke-linejoin="round"><path d=""></path><path d=""></path><path d=""></path><path d=""></path><path d=""></path><path d=""></path><path d=""></path></g><g fill="#ff0000" fill-rule="evenodd" stroke="#ffffff" stroke-width="0" stroke-linecap="round" stroke-linejoin="round"><path d="M176.6272,322.80781l0.17044,0.07196l0.10226,0.202l-0.0745,0.19443v0.12119l-0.13004,0.17548l-0.29795,0.06944l-0.11109,-0.03788l-0.14139,-0.10731l0.04797,-0.11489v-0.23608l0.10226,-0.31184l0.19315,-0.03155l0.13887,0.00504"></path><path d="M177.30893,321.6337l0.16413,-0.0101l0.16159,0.07322l-0.11362,0.27017l-0.22473,0.04924l-0.13886,-0.07322l-0.11615,-0.20831l0.0101,-0.17675l0.25755,0.07575"></path></g><g fill="#ff0000" fill-rule="evenodd" stroke="#ffffff" stroke-width="0" stroke-linecap="round" stroke-linejoin="round"><path d=""></path></g><g fill="#ff0000" fill-rule="evenodd" stroke="#ffffff" stroke-width="0" stroke-linecap="round" stroke-linejoin="round"><path d="M133.38333,315.05617l0.22017,0.23483l0.34225,0.25376l0.12599,0.16539l-0.07271,0.02904l-0.03219,0.17296l0.19051,0.29795l0.22358,0.14266l0.12361,0.12372l0.10188,0.28027l-0.02853,0.10099l-0.27913,-0.13508l-0.35122,-0.37622l-0.03132,-0.06817l-0.07941,-0.11867l-0.28785,0.16538l-0.06477,0.09595l0.16159,0.16287l-0.23014,0.0164l-0.02449,0.14013l-0.14014,-0.02652l-0.07247,0.15908l0.06919,0.07449l0.0029,0.15781l-0.08534,0.03031l-0.14455,0.13634l-0.10693,0.23861l-0.02739,0.31689l-0.27359,0.29922l0.06149,0.16792l0.09545,0.07827l-0.0038,0.20831l0.16034,0.01767l0.05694,-0.202l0.32748,-0.08584l0.00431,0.13381l0.12423,0.08207l-0.01729,0.15403l-0.22573,0.14139l-0.23974,0.28658l-0.10087,0.03283l-0.12068,-0.03409l-0.24631,0.21462l-0.10932,0.02147l-0.16248,0.26638l-0.11009,0.11741l-0.15363,0.04797l-0.08193,-0.03535l-0.25629,0.11994l-0.07916,0.09216l-0.3006,-0.13256l0.0303,-0.25503l0.06944,-0.16918l0.00316,-0.13256l-0.05707,-0.18053l-0.08459,0.02147l-0.06969,-0.14013l0.26638,-0.09721l-0.03964,-0.07197l-0.02209,-0.02272l-0.02879,-0.01515l-0.0192,-0.02778l-0.01452,0.00757l-0.06464,-0.00757l-0.12487,-0.22725l-0.00694,-0.14898l-0.0904,-0.14014l0.15643,-0.25376l0.10984,0.04544l0.09494,-0.11362l0.20124,-0.0707l-0.17637,-0.0808l0.0279,-0.14266l0.06956,-0.05555l0.10252,0.04545l0.00934,-0.17801l0.09128,0.00883l0.19846,-0.2525l0.16387,-0.02147l0.04886,0.04419l0.11817,-0.15024l0.09986,-0.01892l0.12322,-0.0909l0.12107,-0.28027l-0.17637,-0.18054l-0.04229,-0.11615l0.05644,-0.12371l-0.07398,-0.14898l-0.04306,-0.17673l-0.27079,-0.55045l-0.03826,-0.13256l0.01237,-0.41662l0.13269,0.01137l0.14266,0.24871l0.07096,0.00252l0.13685,0.05807l0.14834,-0.06186l0.1448,0.07575l0.12726,0.01767l0.0303,-0.08711l0.24416,-0.16413l0.04141,-0.09721l0.16097,-0.1111l0.18092,-0.00378l0.04432,0.18938l0.02752,0.05176l-0.04331,0.06564l-0.11678,-0.06944l-0.05593,0.12877"></path><path d="M127.60875,318.33863l-0.11122,0.09216l-0.00947,0.11236l0.04519,0.26006l-0.23369,0.03535l0.04419,-0.1818l-0.08382,-0.05681l-0.02967,-0.15782l0.06993,-0.11236l0.04331,-0.28533l0.08066,-0.08207l0.03195,-0.14139l0.11905,0.05934l0.06956,0.09721l0.02234,0.18558l-0.05832,0.17548"></path><path d="M127.00781,317.74526l-0.02032,-0.11615l-0.11539,0.03661l0.04141,0.14014l-0.13723,0.10731l-0.15023,-0.10352l-0.01086,-0.0909l0.07057,-0.11995l0.07613,0.0606l0.09898,-0.19948l0.01262,0.06187l0.1929,0.04292l0.07804,0.06187l-0.13662,0.11867"></path><path d="M135.18616,315.8389l0.05303,-0.12751l0.18053,-0.1212l0.08711,0.28658l-0.17625,0.13004l-0.12991,0.00252l-0.01452,-0.17043"></path><path d="M134.92358,316.21766l-0.03183,-0.14898l0.24567,-0.20453l0.05493,0.14266l0.05404,0.06817l-0.18786,0.16664l-0.13496,-0.02399"></path><path d="M124.79594,316.05353l-0.11994,-0.19695l0.12385,-0.2285l-0.00643,0.14518l0.04318,0.12246l0.12991,0.0606l-0.17056,0.09721"></path><path d="M133.7217,316.44489l-0.1751,-0.04167l0.04456,-0.09721l0.23495,-0.12877l0.08332,0.10604l0.01982,0.08584l-0.04595,0.03661l-0.16159,0.03914"></path><path d="M126.32607,318.23761l0.03523,-0.13761l0.13142,-0.0707l0.1573,0.24113l-0.18079,0.07323l-0.03573,-0.08332l-0.10743,-0.02272"></path><path d="M134.42869,318.59112l-0.00189,0.03409l-0.27383,0.21841l0.01464,-0.11994l0.26107,-0.13256"></path><path d="M128.59223,317.93463l0.06993,-0.0846l0.03042,0.09216l-0.10441,0.21083l-0.08232,-0.01137l0.08635,-0.20705"></path><path d="M134.73168,317.53064l0.14001,-0.2083l0.04659,0.06059l-0.02084,0.13887l-0.07814,0.08964l-0.08763,-0.0808"></path><path d="M135.44247,315.47277l0.12802,-0.10732l0.0428,0.04167l-0.06704,0.22345l-0.06464,-0.01892l-0.03914,-0.13887"></path><path d="M135.15966,316.47015l-0.1842,0.11742l-0.00189,-0.20705l0.18609,0.08963"></path><path d="M131.37475,318.84362l-0.10086,0.0303l-0.12346,-0.01894l0.05517,-0.11867l0.07385,0.00757l0.05884,0.03662l0.03649,0.06312"></path><path d="M126.59499,318.36387l0.06956,0.1212l-0.1039,0.04167l-0.04847,-0.09847l0.08281,-0.06439"></path></g><g fill="#ff0000" fill-rule="evenodd" stroke="#ffffff" stroke-width="0" stroke-linecap="round" stroke-linejoin="round"><path d=""></path><path d=""></path><path d=""></path><path d=""></path><path d=""></path><path d=""></path><path d=""></path><path d=""></path></g><g fill="none" fill-rule="nonzero" stroke="none" stroke-width="1" stroke-linecap="butt" stroke-linejoin="miter" font-family="sans-serif" font-weight="normal" font-size="12" text-anchor="start"></g><g fill="none" fill-rule="nonzero" stroke="none" stroke-width="1" stroke-linecap="butt" stroke-linejoin="miter" font-family="sans-serif" font-weight="normal" font-size="12" text-anchor="start"></g></g><path d="M131.27345,318.86769l-0.12349,-0.01894l0.05517,-0.11869l0.07385,0.00757l0.05884,0.03661l0.03649,0.06313l-0.10087,0.0303" fill="#ff0000" fill-rule="nonzero" stroke="#ffffff" stroke-width="0" stroke-linecap="round" stroke-linejoin="round"></path><path d="M134.42598,318.62781l-0.27383,0.21841l0.01464,-0.11994l0.2611,-0.13256l-0.0019,0.0341" fill="#ff0000" fill-rule="nonzero" stroke="#ffffff" stroke-width="0" stroke-linecap="round" stroke-linejoin="round"></path><path d="M126.66519,318.48894l-0.1039,0.04167l-0.04848,-0.09848l0.08281,-0.0644l0.06957,0.1212" fill="#ff0000" fill-rule="nonzero" stroke="#ffffff" stroke-width="0" stroke-linecap="round" stroke-linejoin="round"></path><path d="M127.6083,318.33743l-0.11122,0.09217l-0.00947,0.11237l0.0452,0.26008l-0.23369,0.03535l0.0442,-0.18181l-0.08383,-0.05681l-0.02967,-0.15782l0.06993,-0.11237l0.04331,-0.28533l0.08068,-0.08207l0.03195,-0.14141l0.11905,0.05935l0.06956,0.09721l0.02235,0.18559l-0.05833,0.17549" fill="#ff0000" fill-rule="nonzero" stroke="#ffffff" stroke-width="0" stroke-linecap="round" stroke-linejoin="round"></path><path d="M126.36091,318.09755l0.13144,-0.0707l0.15731,0.24114l-0.1808,0.07323l-0.03573,-0.08332l-0.10744,-0.02273l0.03523,-0.13762" fill="#ff0000" fill-rule="nonzero" stroke="#ffffff" stroke-width="0" stroke-linecap="round" stroke-linejoin="round"></path><path d="M128.66252,317.84504l0.03043,0.09216l-0.10441,0.21084l-0.08232,-0.01137l0.08635,-0.20706l0.06993,-0.08459" fill="#ff0000" fill-rule="nonzero" stroke="#ffffff" stroke-width="0" stroke-linecap="round" stroke-linejoin="round"></path><path d="M127.00733,317.74404l-0.02032,-0.11615l-0.1154,0.03661l0.04141,0.14014l-0.13724,0.10732l-0.15024,-0.10352l-0.01086,-0.0909l0.07057,-0.11994l0.07613,0.0606l0.09898,-0.19949l0.01263,0.06187l0.19291,0.04292l0.07804,0.06187l-0.13662,0.11867" fill="#ff0000" fill-rule="nonzero" stroke="#ffffff" stroke-width="0" stroke-linecap="round" stroke-linejoin="round"></path><path d="M133.546,316.39313l0.04456,-0.09721l0.23496,-0.12879l0.08332,0.10605l0.01982,0.08585l-0.04595,0.03662l-0.16161,0.03915l-0.17511,-0.04167" fill="#ff0000" fill-rule="nonzero" stroke="#ffffff" stroke-width="0" stroke-linecap="round" stroke-linejoin="round"></path><path d="" fill="#ff0000" fill-rule="nonzero" stroke="#ffffff" stroke-width="0" stroke-linecap="round" stroke-linejoin="round"></path><path d="M124.79538,316.05224l-0.11995,-0.19695l0.12385,-0.22851l-0.00643,0.14519l0.04318,0.12247l0.12991,0.0606l-0.17057,0.09721" fill="#ff0000" fill-rule="nonzero" stroke="#ffffff" stroke-width="0" stroke-linecap="round" stroke-linejoin="round"></path><path d="" fill="#ff0000" fill-rule="nonzero" stroke="#ffffff" stroke-width="0" stroke-linecap="round" stroke-linejoin="round"></path><path d="M134.79464,317.44103l-0.01212,-0.13131l0.08901,0.00127l0.04659,0.0606l-0.02083,0.13887l-0.07815,0.08964l-0.08763,-0.0808l0.06312,-0.07827" fill="#ff0000" fill-rule="nonzero" stroke="#ffffff" stroke-width="0" stroke-linecap="round" stroke-linejoin="round"></path><path d="M134.97519,316.58249l-0.00189,-0.20706l0.1861,0.08964l-0.1842,0.11742" fill="#ff0000" fill-rule="nonzero" stroke="#ffffff" stroke-width="0" stroke-linecap="round" stroke-linejoin="round"></path><path d="M134.92343,316.21637l-0.03182,-0.14899l0.24569,-0.20453l0.05493,0.14267l0.05404,0.06817l-0.18786,0.16666l-0.13496,-0.024" fill="#ff0000" fill-rule="nonzero" stroke="#ffffff" stroke-width="0" stroke-linecap="round" stroke-linejoin="round"></path><path d="M135.23906,315.71135l0.12753,-0.04924l0.05302,-0.07197l0.08712,0.2866l-0.17625,0.13004l-0.12991,0.00252l-0.01451,-0.17044l0.05302,-0.12752" fill="#ff0000" fill-rule="nonzero" stroke="#ffffff" stroke-width="0" stroke-linecap="round" stroke-linejoin="round"></path><path d="M135.56984,315.35784l0.0428,0.04167l-0.06704,0.22346l-0.06465,-0.01894l-0.03915,-0.13887l0.12802,-0.10732" fill="#ff0000" fill-rule="nonzero" stroke="#ffffff" stroke-width="0" stroke-linecap="round" stroke-linejoin="round"></path><path d="" fill="#ff0000" fill-rule="nonzero" stroke="#ffffff" stroke-width="0" stroke-linecap="round" stroke-linejoin="round"></path><path d="" fill="#ff0000" fill-rule="nonzero" stroke="#ffffff" stroke-width="0" stroke-linecap="round" stroke-linejoin="round"></path><path d="M176.62872,322.8068l0.17044,0.07196l0.10227,0.202l-0.07449,0.19444v0.1212l-0.13004,0.1755l-0.29796,0.06945l-0.1111,-0.03788l-0.14139,-0.10732l0.04797,-0.11489v-0.23609l0.10227,-0.31185l0.19316,-0.03155l0.13887,0.00504" fill="#ff0000" fill-rule="nonzero" stroke="#ffffff" stroke-width="0" stroke-linecap="round" stroke-linejoin="round"></path><path d="M177.31048,321.63263l0.16413,-0.0101l0.16161,0.07322l-0.11364,0.27019l-0.22474,0.04924l-0.13887,-0.07323l-0.11615,-0.20831l0.0101,-0.17675l0.25756,0.07575" fill="#ff0000" fill-rule="nonzero" stroke="#ffffff" stroke-width="0" stroke-linecap="round" stroke-linejoin="round"></path><path d="" fill="#ff0000" fill-rule="nonzero" stroke="#ffffff" stroke-width="0" stroke-linecap="round" stroke-linejoin="round"></path><path d="" fill="#ff0000" fill-rule="nonzero" stroke="#ffffff" stroke-width="0" stroke-linecap="round" stroke-linejoin="round"></path><path d="" fill="#ff0000" fill-rule="nonzero" stroke="#ffffff" stroke-width="0" stroke-linecap="round" stroke-linejoin="round"></path><path d="" fill="#ff0000" fill-rule="nonzero" stroke="#ffffff" stroke-width="0" stroke-linecap="round" stroke-linejoin="round"></path><path d="" fill="#ff0000" fill-rule="nonzero" stroke="#ffffff" stroke-width="0" stroke-linecap="round" stroke-linejoin="round"></path><path d="" fill="#ff0000" fill-rule="nonzero" stroke="#ffffff" stroke-width="0" stroke-linecap="round" stroke-linejoin="round"></path><path d="" fill="#ff0000" fill-rule="nonzero" stroke="#ffffff" stroke-width="0" stroke-linecap="round" stroke-linejoin="round"></path><path d="" fill="#ff0000" fill-rule="nonzero" stroke="#ffffff" stroke-width="0" stroke-linecap="round" stroke-linejoin="round"></path><path d="" fill="#ff0000" fill-rule="nonzero" stroke="#ffffff" stroke-width="0" stroke-linecap="round" stroke-linejoin="round"></path><path d="" fill="#ff0000" fill-rule="nonzero" stroke="#ffffff" stroke-width="0" stroke-linecap="round" stroke-linejoin="round"></path><path d="" fill="#ff0000" fill-rule="nonzero" stroke="#ffffff" stroke-width="0" stroke-linecap="round" stroke-linejoin="round"></path><path d="" fill="#ff0000" fill-rule="nonzero" stroke="#ffffff" stroke-width="0" stroke-linecap="round" stroke-linejoin="round"></path><path d="M72.70197,342.69171l-0.11287,0.1212l-0.36424,-0.07196l-0.02373,0.04797l-0.1755,0.01516l-0.24392,-0.09342l-0.07827,0.00505l0.02247,-0.19569l0.15075,-0.05555l0.09569,-0.14644l0.15277,0.07196l0.18092,-0.04292l0.11425,-0.06313l0.18534,0.0202l0.32838,0.14899l-0.06085,0.13887l-0.1712,0.09974" fill="#ff0000" fill-rule="nonzero" stroke="#ffffff" stroke-width="0" stroke-linecap="round" stroke-linejoin="round"></path><path d="" fill="#ff0000" fill-rule="nonzero" stroke="#ffffff" stroke-width="0" stroke-linecap="round" stroke-linejoin="round"></path><path d="" fill="#ff0000" fill-rule="nonzero" stroke="#ffffff" stroke-width="0" stroke-linecap="round" stroke-linejoin="round"></path><path d="" fill="#ff0000" fill-rule="nonzero" stroke="#ffffff" stroke-width="0" stroke-linecap="round" stroke-linejoin="round"></path><path d="" fill="#ff0000" fill-rule="nonzero" stroke="#ffffff" stroke-width="0" stroke-linecap="round" stroke-linejoin="round"></path><path d="" fill="#ff0000" fill-rule="nonzero" stroke="#ffffff" stroke-width="0" stroke-linecap="round" stroke-linejoin="round"></path><path d="" fill="#ff0000" fill-rule="nonzero" stroke="#ffffff" stroke-width="0" stroke-linecap="round" stroke-linejoin="round"></path><path d="" fill="#ff0000" fill-rule="nonzero" stroke="#ffffff" stroke-width="0" stroke-linecap="round" stroke-linejoin="round"></path></g></g></svg>