<svg version="1.1" xmlns="http://www.w3.org/2000/svg" xmlns:xlink="http://www.w3.org/1999/xlink" width="26.19181" height="55.704" viewBox="0,0,26.19181,55.704"><g transform="translate(-226.90409,-152.148)"><g fill-rule="evenodd" stroke-miterlimit="10"><path d="M240.5877,177.36329c-2.18137,0 -3.97096,1.32365 -5.36873,3.97096c-1.22836,2.35081 -1.84253,5.01929 -1.84253,8.00546c0,3.49445 0.61418,6.56533 1.84253,9.21264c1.18598,2.60495 2.97557,3.90743 5.36873,3.90743c2.03314,0 3.60034,-1.11187 4.70162,-3.33562c1.22836,-2.47788 1.84253,-5.65465 1.84253,-9.53031c0,-4.4263 -0.76243,-7.68779 -2.28728,-9.78446c-1.186,-1.63074 -2.60495,-2.44611 -4.25688,-2.44611zM245.09873,152.648l2.41434,4.0345c-4.25688,2.24492 -7.83604,5.68642 -10.73748,10.32451c-2.45671,3.91802 -3.90744,8.03723 -4.35218,12.35764h0.25413c0.9954,-2.05431 2.30846,-3.63211 3.93921,-4.73339c1.46131,-0.99539 2.98616,-1.49308 4.57454,-1.49308c3.13442,0 5.76055,1.38719 7.87839,4.16157c2.35082,3.07088 3.52623,7.12656 3.52623,12.16703c0,5.67584 -1.15423,10.10214 -3.46269,13.27891c-2.22374,3.07088 -5.09342,4.60631 -8.60906,4.60631c-4.27804,0 -7.59248,-2.23432 -9.9433,-6.70299c-2.11784,-4.0451 -3.17676,-9.96447 -3.17676,-17.75815c0,-6.77711 1.87429,-13.10948 5.62288,-18.99709c3.24031,-5.08283 7.26422,-8.83143 12.07173,-11.24577z" fill="#ffffff" stroke="none" stroke-linecap="square" stroke-linejoin="miter"></path><path d="M240.5877,177.36329c-2.18137,0 -3.97096,1.32365 -5.36873,3.97096c-1.22836,2.35081 -1.84253,5.01929 -1.84253,8.00546c0,3.49445 0.61418,6.56533 1.84253,9.21264c1.18598,2.60495 2.97557,3.90743 5.36873,3.90743c2.03314,0 3.60034,-1.11187 4.70162,-3.33562c1.22836,-2.47788 1.84253,-5.65465 1.84253,-9.53031c0,-4.4263 -0.76243,-7.68779 -2.28728,-9.78446c-1.186,-1.63074 -2.60495,-2.44611 -4.25688,-2.44611zM245.09873,152.648l2.41434,4.0345c-4.25688,2.24492 -7.83604,5.68642 -10.73748,10.32451c-2.45671,3.91802 -3.90744,8.03723 -4.35218,12.35764h0.25413c0.9954,-2.05431 2.30846,-3.63211 3.93921,-4.73339c1.46131,-0.99539 2.98616,-1.49308 4.57454,-1.49308c3.13442,0 5.76055,1.38719 7.87839,4.16157c2.35082,3.07088 3.52623,7.12656 3.52623,12.16703c0,5.67584 -1.15423,10.10214 -3.46269,13.27891c-2.22374,3.07088 -5.09342,4.60631 -8.60906,4.60631c-4.27804,0 -7.59248,-2.23432 -9.9433,-6.70299c-2.11784,-4.0451 -3.17676,-9.96447 -3.17676,-17.75815c0,-6.77711 1.87429,-13.10948 5.62288,-18.99709c3.24031,-5.08283 7.26422,-8.83143 12.07173,-11.24577z" fill="none" stroke="#ffffff" stroke-linecap="butt" stroke-linejoin="round"></path></g></g></svg>