<svg version="1.1" xmlns="http://www.w3.org/2000/svg" xmlns:xlink="http://www.w3.org/1999/xlink" width="25.77882" height="54.68744" viewBox="0,0,25.77882,54.68744"><g transform="translate(-227.11059,-152.65628)"><g fill-rule="evenodd" stroke-miterlimit="10"><path d="M250.57866,153.15628v4.95576h-15.62972l-1.01657,18.13936h0.25415c1.60957,-2.37199 3.90742,-3.55798 6.89358,-3.55798c3.47328,0 6.29001,1.66251 8.45021,4.98753c1.90607,2.94381 2.8591,6.84065 2.8591,11.69052c0,4.27805 -0.80479,7.89958 -2.41436,10.86456c-2.39316,4.40513 -5.95114,6.60769 -10.67394,6.60769c-4.59573,0 -8.49258,-1.9696 -11.69052,-5.90879l3.0497,-3.78036c2.49907,3.11323 5.38993,4.66985 8.6726,4.66985c1.9696,0 3.63211,-0.88949 4.98752,-2.66848c1.73664,-2.35081 2.60495,-5.66525 2.60495,-9.9433c0,-3.47327 -0.54005,-6.27942 -1.62016,-8.41844c-1.24952,-2.49906 -3.01793,-3.74859 -5.3052,-3.74859c-1.50369,0 -2.91205,0.65654 -4.22511,1.9696c-1.01657,1.01657 -1.81076,2.32963 -2.38259,3.9392l-4.66985,-0.8895l1.42954,-28.90862z" fill="#ffffff" stroke="none" stroke-linecap="square" stroke-linejoin="miter"></path><path d="M250.57866,153.15628v4.95576h-15.62972l-1.01657,18.13936h0.25415c1.60957,-2.37199 3.90742,-3.55798 6.89358,-3.55798c3.47328,0 6.29001,1.66251 8.45021,4.98753c1.90607,2.94381 2.8591,6.84065 2.8591,11.69052c0,4.27805 -0.80479,7.89958 -2.41436,10.86456c-2.39316,4.40513 -5.95114,6.60769 -10.67394,6.60769c-4.59573,0 -8.49258,-1.9696 -11.69052,-5.90879l3.0497,-3.78036c2.49907,3.11323 5.38993,4.66985 8.6726,4.66985c1.9696,0 3.63211,-0.88949 4.98752,-2.66848c1.73664,-2.35081 2.60495,-5.66525 2.60495,-9.9433c0,-3.47327 -0.54005,-6.27942 -1.62016,-8.41844c-1.24952,-2.49906 -3.01793,-3.74859 -5.3052,-3.74859c-1.50369,0 -2.91205,0.65654 -4.22511,1.9696c-1.01657,1.01657 -1.81076,2.32963 -2.38259,3.9392l-4.66985,-0.8895l1.42954,-28.90862z" fill="none" stroke="#ffffff" stroke-linecap="butt" stroke-linejoin="round"></path></g></g></svg>