<svg version="1.1" xmlns="http://www.w3.org/2000/svg" xmlns:xlink="http://www.w3.org/1999/xlink" width="12.07646" height="10.23466" viewBox="0,0,12.07646,10.23466"><g transform="translate(-306.41272,-46.7992)"><g fill="#ff0000" fill-rule="evenodd" stroke="none" stroke-width="0.4" stroke-linecap="round" stroke-linejoin="round" stroke-miterlimit="10"><path d="M316.70561,48.58792l0.25599,-0.15963l0.14036,0.00674l0.16102,0.15716l0.19266,0.38108l-0.06605,0.21978l0.04129,0.15963l-0.11011,0.13816l0.04403,0.20025l0.01789,0.3775l0.15413,0.19942l0.03165,0.22722l0.28351,0.14562l-0.01789,0.2089l0.15414,0.2286l0.07294,0.28845l0.11698,-0.00881l0.2601,0.22337l0.05092,0.15813l-0.17478,0.23107l0.02202,0.1518l0.04954,0.15703l0.01514,0.3252l0.08809,0.09386l-0.01789,0.2213l-0.12799,0.08546l-0.08395,0.34061l-0.139,0.17561l0.00963,0.13969l0.11973,0.13171l-0.27111,0.13516l-0.24909,0.19887l-0.10597,0.01087l-0.17203,0.16653l-0.03853,0.14629l0.09634,0.24855l-0.21744,0.15152l-0.11698,0.46336l0.18442,0.16515l0.03853,0.17905l-0.1445,0.49833l0.02477,0.27194l-0.01927,0.25405l-0.30552,0.07364l-0.12387,-0.02684l-0.06331,0.19473l-0.2491,0.08065l-0.11834,-0.06166l-0.38535,0.09084l-0.08119,-0.12991l-0.24772,-0.13075l-0.03853,-0.10597l-0.22707,-0.04156l-0.07157,0.09703l-0.2133,0.06414l-0.14313,-0.04859l-0.27113,-0.66499l-0.07019,-0.22543l-0.16651,-0.0889l0.03028,-0.24759l-0.22571,-0.09812l-0.22708,-0.29879l0.0578,-0.21786l0.12524,-0.13226l0.05917,-0.17093l-0.19818,-0.23479l0.1624,-0.16253l-0.08395,-0.11795l0.09634,-0.13666l-0.13212,-0.17175l-0.1101,-0.60361l-0.16927,-0.14038l-0.17203,0.00937l-0.3248,0.43901l-0.18442,0.06248l-0.05643,0.16253l-0.16102,0.20836l-0.32617,-0.13679l-0.13763,0.0501l-0.07431,-0.13859l-0.18578,-0.1752l-0.13212,0.02285l-0.63582,-0.16184l-0.02065,0.10074l-0.4693,-0.10294l-0.03302,0.22391l-0.30139,0.19102l-0.34956,-0.01267l-0.21469,-0.2535l-0.18304,-0.05629l-0.14175,-0.2857l0.03164,-0.24346l-0.21469,-0.2758l0.16927,-0.16363l-0.14863,-0.24263l0.07431,-0.21937l-0.15276,-0.29465l-0.45278,-0.26136l-0.14863,0.03895l-0.04403,-0.15565l-0.12387,-0.16143l-0.11561,0.03111l-0.07157,-0.17162l-0.09909,-0.05794l-0.22571,-0.3091l0.04679,-0.25845l-0.16653,-0.35025l-0.17891,-0.1518l-0.18992,-0.25337l-0.04542,-0.23134l-0.34544,-0.40806l-0.45554,-0.35562l-0.12798,-0.3548l-0.13212,-0.2012l-0.23397,-0.14409l0.03716,-0.13501l0.16651,-0.14959l0.1968,-0.07872l0.07431,-0.14162l0.31791,0.10996l0.20368,-0.10074l0.18855,-0.27993l0.21469,-0.02808l0.54774,-0.24539l0.15552,-0.01445l0.34818,0.06371l0.1445,-0.02229l0.29865,-0.15565l0.01651,0.12318l0.2725,0.07418l0.3124,0.01281l0.24634,0.12441l0.14175,-0.00716l0.21469,0.10226l0.12248,0.11628l0.32067,0.15332l0.40049,-0.20466l0.37021,-0.02794l0.2023,0.06014l0.11973,-0.05051l0.24359,0.38136l-0.01514,0.1851l-0.19955,0.07171v0.13321l0.1569,0.0662l0.13899,0.29039l0.10597,-0.12908l0.21469,-0.06811l0.29726,0.10527l0.14588,0.1562l0.34818,0.19405l0.0578,0.13722l0.20506,0.11987l0.29865,-0.01128l0.11834,0.08918l0.15828,-0.00977l0.34955,-0.31557l0.17478,0.03302l0.14175,0.19473l0.24496,-0.0995l0.2601,0.08285l0.31377,-0.03372l0.54224,0.109l0.16102,-0.13102l0.16377,-0.02271l0.03165,-0.2162"></path></g></g></svg>