<svg version="1.1" xmlns="http://www.w3.org/2000/svg" xmlns:xlink="http://www.w3.org/1999/xlink" width="408.38919" height="61.39043" viewBox="0,0,408.38919,61.39043"><g transform="translate(-35.80541,-149.30478)"><g fill-rule="evenodd" stroke-miterlimit="10"><path d="M49.07602,157.39727c-4.74398,0 -7.11597,7.62425 -7.11597,22.87275c0,14.90965 2.39316,22.36447 7.1795,22.36447c4.80752,0 7.21127,-7.49718 7.21127,-22.49154c0,-15.16379 -2.42494,-22.74568 -7.27481,-22.74568zM62.00549,180.11119c0,18.31939 -4.29923,27.47907 -12.89769,27.47907c-8.53493,0 -12.80239,-9.1597 -12.80239,-27.47907c0,-18.36174 4.28864,-27.54261 12.86592,-27.54261c8.5561,0 12.83416,9.18087 12.83416,27.54261z" fill="#ffffff" stroke="none" stroke-linecap="square" stroke-linejoin="miter"></path><path d="M85.41829,153.33101v53.02032h-5.33698v-46.76208c-1.94842,1.20718 -4.70162,2.4567 -8.2596,3.74859l-1.04834,-4.41571c4.00273,-1.3766 7.53954,-3.2403 10.61041,-5.59112z" fill="#ffffff" stroke="none" stroke-linecap="square" stroke-linejoin="miter"></path><path d="M113.59625,152.66388c4.2357,0 7.50777,1.59897 9.81622,4.79692c1.71546,2.37199 2.57319,5.28403 2.57319,8.73612c0,3.19795 -0.86832,6.37473 -2.60495,9.53031c-0.42357,0.76243 -2.06491,2.79556 -4.924,6.09941c-0.29649,0.33886 -0.70948,0.83655 -1.23894,1.49308l-1.62016,1.93783c-2.49906,2.98616 -4.41571,5.8982 -5.74996,8.73612c-1.41895,2.94381 -2.17079,5.32639 -2.25551,7.14774h18.74295v5.20991h-24.33407v-4.95576c0.63536,-3.83331 1.8743,-7.3807 3.71682,-10.64218c1.4825,-2.62613 3.66388,-5.66525 6.54415,-9.11733l1.30248,-1.58839c2.43553,-2.92263 4.02391,-5.00871 4.76516,-6.25824c1.33425,-2.28728 2.00137,-4.73338 2.00137,-7.33834c0,-2.07549 -0.40239,-3.85449 -1.20717,-5.33698c-1.29189,-2.37199 -3.22972,-3.55798 -5.8135,-3.55798c-3.47327,0 -6.24765,2.29786 -8.32314,6.8936l-3.78036,-3.0497c0.99539,-2.32963 2.34023,-4.21452 4.0345,-5.65465c2.43553,-2.05432 5.2205,-3.08147 8.35491,-3.08147z" fill="#ffffff" stroke="none" stroke-linecap="square" stroke-linejoin="miter"></path><path d="M222.11478,153.64868v4.95576h-15.62972l-1.01657,18.13936h0.25415c1.60957,-2.37199 3.90742,-3.55798 6.89358,-3.55798c3.47328,0 6.29001,1.66251 8.45021,4.98753c1.90607,2.94381 2.8591,6.84065 2.8591,11.69052c0,4.27805 -0.80479,7.89958 -2.41436,10.86456c-2.39316,4.40513 -5.95114,6.60769 -10.67394,6.60769c-4.59573,0 -8.49258,-1.9696 -11.69052,-5.90879l3.0497,-3.78036c2.49907,3.11323 5.38993,4.66985 8.6726,4.66985c1.9696,0 3.63211,-0.88949 4.98752,-2.66848c1.73664,-2.35081 2.60495,-5.66525 2.60495,-9.9433c0,-3.47327 -0.54005,-6.27942 -1.62016,-8.41844c-1.24952,-2.49906 -3.01793,-3.74859 -5.3052,-3.74859c-1.50369,0 -2.91205,0.65654 -4.22511,1.9696c-1.01657,1.01657 -1.81076,2.32963 -2.38259,3.9392l-4.66985,-0.8895l1.42954,-28.90862z" fill="#ffffff" stroke="none" stroke-linecap="square" stroke-linejoin="miter"></path><path d="M245.05106,177.41094c-2.18137,0 -3.97096,1.32365 -5.36873,3.97096c-1.22836,2.35081 -1.84253,5.01929 -1.84253,8.00546c0,3.49445 0.61418,6.56533 1.84253,9.21264c1.18598,2.60495 2.97557,3.90743 5.36873,3.90743c2.03314,0 3.60034,-1.11187 4.70162,-3.33562c1.22836,-2.47788 1.84253,-5.65465 1.84253,-9.53031c0,-4.4263 -0.76243,-7.68779 -2.28728,-9.78446c-1.186,-1.63074 -2.60495,-2.44611 -4.25688,-2.44611zM249.56209,152.69565l2.41434,4.0345c-4.25688,2.24492 -7.83604,5.68642 -10.73748,10.32451c-2.45671,3.91802 -3.90744,8.03723 -4.35218,12.35764h0.25413c0.9954,-2.05431 2.30846,-3.63211 3.93921,-4.73339c1.46131,-0.99539 2.98616,-1.49308 4.57454,-1.49308c3.13442,0 5.76055,1.38719 7.87839,4.16157c2.35082,3.07088 3.52623,7.12656 3.52623,12.16703c0,5.67584 -1.15423,10.10214 -3.46269,13.27891c-2.22374,3.07088 -5.09342,4.60631 -8.60906,4.60631c-4.27804,0 -7.59248,-2.23432 -9.9433,-6.70299c-2.11784,-4.0451 -3.17676,-9.96447 -3.17676,-17.75815c0,-6.77711 1.87429,-13.10948 5.62288,-18.99709c3.24031,-5.08283 7.26422,-8.83143 12.07173,-11.24577z" fill="#ffffff" stroke="none" stroke-linecap="square" stroke-linejoin="miter"></path><path d="M290.22478,153.64868v4.41571c-4.6381,13.46951 -8.40786,29.56515 -11.3093,48.28693h-5.46405c1.52487,-11.13988 5.18873,-26.99197 10.99162,-47.55627h-14.58138v11.65875h-5.14637v-16.80512z" fill="#ffffff" stroke="none" stroke-linecap="square" stroke-linejoin="miter"></path><path d="M308.99948,156.85722c-1.75781,0 -3.21913,0.7942 -4.38395,2.38258c-1.31307,1.82135 -1.9696,4.25687 -1.9696,7.30658c0,2.7532 0.58239,4.98753 1.74721,6.70299c0.97421,1.41896 2.14962,2.53083 3.52623,3.33561c0.66396,0.38227 1.05074,0.57341 1.16039,0.57341c0.00579,0 0.01076,-0.00053 0.01502,-0.00158c1.94842,-0.76243 3.48387,-2.03314 4.6063,-3.81212c1.24954,-1.99078 1.87432,-4.27805 1.87432,-6.86183c0,-2.4567 -0.48712,-4.56396 -1.46133,-6.32177c-1.22836,-2.20256 -2.93321,-3.30384 -5.1146,-3.30384zM308.80887,181.2866c0,0 -0.02118,0.01059 -0.06354,0.03177c-4.68043,2.16021 -7.02066,6.06764 -7.02066,11.72229c0,2.41435 0.44473,4.45807 1.33425,6.13117c1.33422,2.41435 3.31441,3.62153 5.94055,3.62153c2.54143,0 4.50044,-1.20718 5.87702,-3.62153c1.03774,-1.80017 1.55663,-3.92861 1.55663,-6.38531c0,-2.28728 -0.54007,-4.37335 -1.62017,-6.25824c-1.16482,-2.01195 -2.55199,-3.4415 -4.16157,-4.28865c-0.7836,-0.42357 -1.19656,-0.64594 -1.23892,-0.66712c-0.29651,-0.1906 -0.49771,-0.28591 -0.6036,-0.28591zM308.99948,152.63212c3.70622,0 6.69241,1.41896 8.95848,4.25688c1.9696,2.49906 2.95442,5.59112 2.95442,9.27617c0,3.81212 -0.86834,6.81947 -2.60497,9.02203c-1.44015,1.84253 -2.93321,3.10264 -4.47926,3.78036v0.1906c5.46405,2.71085 8.19607,7.32776 8.19607,13.85072c0,3.60034 -0.84713,6.63946 -2.5414,9.11733c-2.39318,3.55799 -5.87702,5.33698 -10.45158,5.33698c-4.48984,0 -7.889,-1.62016 -10.19743,-4.86047c-1.75783,-2.47788 -2.63674,-5.59111 -2.63674,-9.3397c0,-6.31119 2.58379,-10.81161 7.75134,-13.50128v-0.28591c-1.99077,-1.20717 -3.61095,-2.88028 -4.86048,-5.0193c-1.27068,-2.16021 -1.90606,-4.77575 -1.90606,-7.84662c0,-3.66388 0.93185,-6.77711 2.79558,-9.3397c2.24489,-3.09206 5.25226,-4.63809 9.02202,-4.63809z" fill="#ffffff" stroke="none" stroke-linecap="square" stroke-linejoin="miter"></path><path d="M340.92602,157.46081c-1.44012,0 -2.71083,0.593 -3.81212,1.77899c-1.94842,2.07549 -2.92263,5.89821 -2.92263,11.46815c0,3.53681 0.51886,6.4912 1.5566,8.8632c1.14364,2.5626 2.76381,3.84389 4.86048,3.84389c1.84252,0 3.39913,-0.95304 4.66984,-2.85909c0.42358,-0.63536 0.86831,-1.5778 1.33425,-2.82733c0.7836,-2.13903 1.17541,-4.26747 1.17541,-6.38531c0,-3.40974 -0.56124,-6.62886 -1.68371,-9.65738c-0.57181,-1.50367 -1.4613,-2.64731 -2.66847,-3.43091c-0.7836,-0.52946 -1.62014,-0.7942 -2.50966,-0.7942zM340.92602,152.63212c4.19334,0 7.41247,2.1708 9.6574,6.51238c2.07549,4.02391 3.11323,10.04919 3.11323,18.07583c0,10.16567 -1.80016,17.55695 -5.40052,22.17387c-3.21913,4.1298 -8.00546,7.08419 -14.359,8.86319l-2.5414,-4.38395c5.80289,-1.52485 9.97505,-3.92861 12.51648,-7.21127c2.75319,-3.5368 4.28862,-8.41844 4.6063,-14.64492h-0.28592c-0.65652,1.52485 -1.49307,2.72144 -2.50963,3.58975c-1.73666,1.52485 -3.74861,2.28728 -6.03586,2.28728c-3.11323,0 -5.70761,-1.47191 -7.78311,-4.41571c-2.11785,-2.98617 -3.17677,-7.09479 -3.17677,-12.32587c0,-5.71819 1.15423,-10.27156 3.46269,-13.66012c2.20256,-3.2403 5.1146,-4.86046 8.7361,-4.86046z" fill="#ffffff" stroke="none" stroke-linecap="square" stroke-linejoin="miter"></path><path d="M371.80426,197.23399v9.11733h-9.11733v-9.11733z" fill="#ffffff" stroke="none" stroke-linecap="square" stroke-linejoin="miter"></path><path d="M420.66301,151.1708l-24.39762,59.02441l-2.98616,-1.36602l24.39762,-59.02441z" fill="#ffffff" stroke="none" stroke-linecap="square" stroke-linejoin="miter"></path><path d="M443.6946,161.46354v8.51375h-8.45021v-8.51375zM443.6946,190.02271v8.51375h-8.45021v-8.51375z" fill="#ffffff" stroke="none" stroke-linecap="square" stroke-linejoin="miter"></path><path d="M49.07602,157.39727c-4.74398,0 -7.11597,7.62425 -7.11597,22.87275c0,14.90965 2.39316,22.36447 7.1795,22.36447c4.80752,0 7.21127,-7.49718 7.21127,-22.49154c0,-15.16379 -2.42494,-22.74568 -7.27481,-22.74568zM62.00549,180.11119c0,18.31939 -4.29923,27.47907 -12.89769,27.47907c-8.53493,0 -12.80239,-9.1597 -12.80239,-27.47907c0,-18.36174 4.28864,-27.54261 12.86592,-27.54261c8.5561,0 12.83416,9.18087 12.83416,27.54261z" fill="none" stroke="#ffffff" stroke-linecap="butt" stroke-linejoin="round"></path><path d="M85.41829,153.33101v53.02032h-5.33698v-46.76208c-1.94842,1.20718 -4.70162,2.4567 -8.2596,3.74859l-1.04834,-4.41571c4.00273,-1.3766 7.53954,-3.2403 10.61041,-5.59112z" fill="none" stroke="#ffffff" stroke-linecap="butt" stroke-linejoin="round"></path><path d="M113.59625,152.66388c4.2357,0 7.50777,1.59897 9.81622,4.79692c1.71546,2.37199 2.57319,5.28403 2.57319,8.73612c0,3.19795 -0.86832,6.37473 -2.60495,9.53031c-0.42357,0.76243 -2.06491,2.79556 -4.924,6.09941c-0.29649,0.33886 -0.70948,0.83655 -1.23894,1.49308l-1.62016,1.93783c-2.49906,2.98616 -4.41571,5.8982 -5.74996,8.73612c-1.41895,2.94381 -2.17079,5.32639 -2.25551,7.14774h18.74295v5.20991h-24.33407v-4.95576c0.63536,-3.83331 1.8743,-7.3807 3.71682,-10.64218c1.4825,-2.62613 3.66388,-5.66525 6.54415,-9.11733l1.30248,-1.58839c2.43553,-2.92263 4.02391,-5.00871 4.76516,-6.25824c1.33425,-2.28728 2.00137,-4.73338 2.00137,-7.33834c0,-2.07549 -0.40239,-3.85449 -1.20717,-5.33698c-1.29189,-2.37199 -3.22972,-3.55798 -5.8135,-3.55798c-3.47327,0 -6.24765,2.29786 -8.32314,6.8936l-3.78036,-3.0497c0.99539,-2.32963 2.34023,-4.21452 4.0345,-5.65465c2.43553,-2.05432 5.2205,-3.08147 8.35491,-3.08147z" fill="none" stroke="#ffffff" stroke-linecap="butt" stroke-linejoin="round"></path><path d="M222.11478,153.64868v4.95576h-15.62972l-1.01657,18.13936h0.25415c1.60957,-2.37199 3.90742,-3.55798 6.89358,-3.55798c3.47328,0 6.29001,1.66251 8.45021,4.98753c1.90607,2.94381 2.8591,6.84065 2.8591,11.69052c0,4.27805 -0.80479,7.89958 -2.41436,10.86456c-2.39316,4.40513 -5.95114,6.60769 -10.67394,6.60769c-4.59573,0 -8.49258,-1.9696 -11.69052,-5.90879l3.0497,-3.78036c2.49907,3.11323 5.38993,4.66985 8.6726,4.66985c1.9696,0 3.63211,-0.88949 4.98752,-2.66848c1.73664,-2.35081 2.60495,-5.66525 2.60495,-9.9433c0,-3.47327 -0.54005,-6.27942 -1.62016,-8.41844c-1.24952,-2.49906 -3.01793,-3.74859 -5.3052,-3.74859c-1.50369,0 -2.91205,0.65654 -4.22511,1.9696c-1.01657,1.01657 -1.81076,2.32963 -2.38259,3.9392l-4.66985,-0.8895l1.42954,-28.90862z" fill="none" stroke="#ffffff" stroke-linecap="butt" stroke-linejoin="round"></path><path d="M245.05106,177.41094c-2.18137,0 -3.97096,1.32365 -5.36873,3.97096c-1.22836,2.35081 -1.84253,5.01929 -1.84253,8.00546c0,3.49445 0.61418,6.56533 1.84253,9.21264c1.18598,2.60495 2.97557,3.90743 5.36873,3.90743c2.03314,0 3.60034,-1.11187 4.70162,-3.33562c1.22836,-2.47788 1.84253,-5.65465 1.84253,-9.53031c0,-4.4263 -0.76243,-7.68779 -2.28728,-9.78446c-1.186,-1.63074 -2.60495,-2.44611 -4.25688,-2.44611zM249.56209,152.69565l2.41434,4.0345c-4.25688,2.24492 -7.83604,5.68642 -10.73748,10.32451c-2.45671,3.91802 -3.90744,8.03723 -4.35218,12.35764h0.25413c0.9954,-2.05431 2.30846,-3.63211 3.93921,-4.73339c1.46131,-0.99539 2.98616,-1.49308 4.57454,-1.49308c3.13442,0 5.76055,1.38719 7.87839,4.16157c2.35082,3.07088 3.52623,7.12656 3.52623,12.16703c0,5.67584 -1.15423,10.10214 -3.46269,13.27891c-2.22374,3.07088 -5.09342,4.60631 -8.60906,4.60631c-4.27804,0 -7.59248,-2.23432 -9.9433,-6.70299c-2.11784,-4.0451 -3.17676,-9.96447 -3.17676,-17.75815c0,-6.77711 1.87429,-13.10948 5.62288,-18.99709c3.24031,-5.08283 7.26422,-8.83143 12.07173,-11.24577z" fill="none" stroke="#ffffff" stroke-linecap="butt" stroke-linejoin="round"></path><path d="M290.22478,153.64868v4.41571c-4.6381,13.46951 -8.40786,29.56515 -11.3093,48.28693h-5.46405c1.52487,-11.13988 5.18873,-26.99197 10.99162,-47.55627h-14.58138v11.65875h-5.14637v-16.80512z" fill="none" stroke="#ffffff" stroke-linecap="butt" stroke-linejoin="round"></path><path d="M308.99948,156.85722c-1.75781,0 -3.21913,0.7942 -4.38395,2.38258c-1.31307,1.82135 -1.9696,4.25687 -1.9696,7.30658c0,2.7532 0.58239,4.98753 1.74721,6.70299c0.97421,1.41896 2.14962,2.53083 3.52623,3.33561c0.66396,0.38227 1.05074,0.57341 1.16039,0.57341c0.00579,0 0.01076,-0.00053 0.01502,-0.00158c1.94842,-0.76243 3.48387,-2.03314 4.6063,-3.81212c1.24954,-1.99078 1.87432,-4.27805 1.87432,-6.86183c0,-2.4567 -0.48712,-4.56396 -1.46133,-6.32177c-1.22836,-2.20256 -2.93321,-3.30384 -5.1146,-3.30384zM308.80887,181.2866c0,0 -0.02118,0.01059 -0.06354,0.03177c-4.68043,2.16021 -7.02066,6.06764 -7.02066,11.72229c0,2.41435 0.44473,4.45807 1.33425,6.13117c1.33422,2.41435 3.31441,3.62153 5.94055,3.62153c2.54143,0 4.50044,-1.20718 5.87702,-3.62153c1.03774,-1.80017 1.55663,-3.92861 1.55663,-6.38531c0,-2.28728 -0.54007,-4.37335 -1.62017,-6.25824c-1.16482,-2.01195 -2.55199,-3.4415 -4.16157,-4.28865c-0.7836,-0.42357 -1.19656,-0.64594 -1.23892,-0.66712c-0.29651,-0.1906 -0.49771,-0.28591 -0.6036,-0.28591zM308.99948,152.63212c3.70622,0 6.69241,1.41896 8.95848,4.25688c1.9696,2.49906 2.95442,5.59112 2.95442,9.27617c0,3.81212 -0.86834,6.81947 -2.60497,9.02203c-1.44015,1.84253 -2.93321,3.10264 -4.47926,3.78036v0.1906c5.46405,2.71085 8.19607,7.32776 8.19607,13.85072c0,3.60034 -0.84713,6.63946 -2.5414,9.11733c-2.39318,3.55799 -5.87702,5.33698 -10.45158,5.33698c-4.48984,0 -7.889,-1.62016 -10.19743,-4.86047c-1.75783,-2.47788 -2.63674,-5.59111 -2.63674,-9.3397c0,-6.31119 2.58379,-10.81161 7.75134,-13.50128v-0.28591c-1.99077,-1.20717 -3.61095,-2.88028 -4.86048,-5.0193c-1.27068,-2.16021 -1.90606,-4.77575 -1.90606,-7.84662c0,-3.66388 0.93185,-6.77711 2.79558,-9.3397c2.24489,-3.09206 5.25226,-4.63809 9.02202,-4.63809z" fill="none" stroke="#ffffff" stroke-linecap="butt" stroke-linejoin="round"></path><path d="M340.92602,157.46081c-1.44012,0 -2.71083,0.593 -3.81212,1.77899c-1.94842,2.07549 -2.92263,5.89821 -2.92263,11.46815c0,3.53681 0.51886,6.4912 1.5566,8.8632c1.14364,2.5626 2.76381,3.84389 4.86048,3.84389c1.84252,0 3.39913,-0.95304 4.66984,-2.85909c0.42358,-0.63536 0.86831,-1.5778 1.33425,-2.82733c0.7836,-2.13903 1.17541,-4.26747 1.17541,-6.38531c0,-3.40974 -0.56124,-6.62886 -1.68371,-9.65738c-0.57181,-1.50367 -1.4613,-2.64731 -2.66847,-3.43091c-0.7836,-0.52946 -1.62014,-0.7942 -2.50966,-0.7942zM340.92602,152.63212c4.19334,0 7.41247,2.1708 9.6574,6.51238c2.07549,4.02391 3.11323,10.04919 3.11323,18.07583c0,10.16567 -1.80016,17.55695 -5.40052,22.17387c-3.21913,4.1298 -8.00546,7.08419 -14.359,8.86319l-2.5414,-4.38395c5.80289,-1.52485 9.97505,-3.92861 12.51648,-7.21127c2.75319,-3.5368 4.28862,-8.41844 4.6063,-14.64492h-0.28592c-0.65652,1.52485 -1.49307,2.72144 -2.50963,3.58975c-1.73666,1.52485 -3.74861,2.28728 -6.03586,2.28728c-3.11323,0 -5.70761,-1.47191 -7.78311,-4.41571c-2.11785,-2.98617 -3.17677,-7.09479 -3.17677,-12.32587c0,-5.71819 1.15423,-10.27156 3.46269,-13.66012c2.20256,-3.2403 5.1146,-4.86046 8.7361,-4.86046z" fill="none" stroke="#ffffff" stroke-linecap="butt" stroke-linejoin="round"></path><path d="M371.80426,197.23399v9.11733h-9.11733v-9.11733z" fill="none" stroke="#ffffff" stroke-linecap="butt" stroke-linejoin="round"></path><path d="M420.66301,151.1708l-24.39762,59.02441l-2.98616,-1.36602l24.39762,-59.02441z" fill="none" stroke="#ffffff" stroke-linecap="butt" stroke-linejoin="round"></path><path d="M443.6946,161.46354v8.51375h-8.45021v-8.51375zM443.6946,190.02271v8.51375h-8.45021v-8.51375z" fill="none" stroke="#ffffff" stroke-linecap="butt" stroke-linejoin="round"></path><path d="M145.77694,152.69565c3.30385,0 6.12059,1.00597 8.45021,3.01793c2.88028,2.47788 4.32041,5.87703 4.32041,10.19744c0,3.70623 -0.93185,6.59709 -2.79556,8.67258c-1.84252,2.01196 -4.01332,3.26149 -6.51237,3.74859v0.25414c6.81947,1.50368 10.2292,6.03587 10.2292,13.59658c0,3.9392 -1.03774,7.27481 -3.11323,10.00683c-2.62613,3.47327 -6.3006,5.20991 -11.0234,5.20991c-4.95576,0 -9.09615,-2.44611 -12.42118,-7.33834l3.24031,-3.71682c2.43552,4.02391 5.47463,6.03587 9.11733,6.03587c2.62613,0 4.84987,-1.1754 6.67123,-3.52621c1.29188,-1.6731 1.93783,-3.98156 1.93783,-6.92536c0,-3.79094 -0.95303,-6.58651 -2.8591,-8.38668c-1.82134,-1.75781 -4.2357,-2.63672 -7.24304,-2.63672h-3.65328v-4.66985h3.78036c2.96498,0 5.29462,-1.00598 6.9889,-3.01793c1.3766,-1.6731 2.0649,-4.07686 2.0649,-7.21127c0,-2.24492 -0.55064,-4.11921 -1.65192,-5.62289c-1.41895,-1.94842 -3.37798,-2.92263 -5.87703,-2.92263c-3.43091,0 -6.25824,1.91665 -8.48198,5.74996l-3.11323,-3.68505c1.27071,-2.05432 2.9544,-3.68505 5.05107,-4.89223c2.22373,-1.29189 4.5216,-1.93783 6.89358,-1.93783z" fill="#ffffff" stroke="none" stroke-linecap="square" stroke-linejoin="miter"></path><path d="M145.77694,152.69565c3.30385,0 6.12059,1.00597 8.45021,3.01793c2.88028,2.47788 4.32041,5.87703 4.32041,10.19744c0,3.70623 -0.93185,6.59709 -2.79556,8.67258c-1.84252,2.01196 -4.01332,3.26149 -6.51237,3.74859v0.25414c6.81947,1.50368 10.2292,6.03587 10.2292,13.59658c0,3.9392 -1.03774,7.27481 -3.11323,10.00683c-2.62613,3.47327 -6.3006,5.20991 -11.0234,5.20991c-4.95576,0 -9.09615,-2.44611 -12.42118,-7.33834l3.24031,-3.71682c2.43552,4.02391 5.47463,6.03587 9.11733,6.03587c2.62613,0 4.84987,-1.1754 6.67123,-3.52621c1.29188,-1.6731 1.93783,-3.98156 1.93783,-6.92536c0,-3.79094 -0.95303,-6.58651 -2.8591,-8.38668c-1.82134,-1.75781 -4.2357,-2.63672 -7.24304,-2.63672h-3.65328v-4.66985h3.78036c2.96498,0 5.29462,-1.00598 6.9889,-3.01793c1.3766,-1.6731 2.0649,-4.07686 2.0649,-7.21127c0,-2.24492 -0.55064,-4.11921 -1.65192,-5.62289c-1.41895,-1.94842 -3.37798,-2.92263 -5.87703,-2.92263c-3.43091,0 -6.25824,1.91665 -8.48198,5.74996l-3.11323,-3.68505c1.27071,-2.05432 2.9544,-3.68505 5.05107,-4.89223c2.22373,-1.29189 4.5216,-1.93783 6.89358,-1.93783z" fill="none" stroke="#ffffff" stroke-linecap="butt" stroke-linejoin="round"></path><path d="M183.517,159.17626c-1.52485,4.36277 -3.06029,8.11136 -4.60631,11.24577l-9.30794,18.87002h13.78718v-16.20153c0,-3.83331 0.12708,-8.47139 0.38122,-13.91426zM188.40923,153.33101v35.96106h5.46404v4.89224h-5.46404v12.16703h-5.20991v-12.16703h-18.67941v-4.89224l17.50401,-35.96106z" fill="#ffffff" stroke="none" stroke-linecap="square" stroke-linejoin="miter"></path><path d="M183.517,159.17626c-1.52485,4.36277 -3.06029,8.11136 -4.60631,11.24577l-9.30794,18.87002h13.78718v-16.20153c0,-3.83331 0.12708,-8.47139 0.38122,-13.91426zM188.40923,153.33101v35.96106h5.46404v4.89224h-5.46404v12.16703h-5.20991v-12.16703h-18.67941v-4.89224l17.50401,-35.96106z" fill="none" stroke="#ffffff" stroke-linecap="butt" stroke-linejoin="round"></path></g></g></svg>