<svg version="1.1" xmlns="http://www.w3.org/2000/svg" xmlns:xlink="http://www.w3.org/1999/xlink" width="11.31261" height="17.42557" viewBox="0,0,11.31261,17.42557"><g transform="translate(-303.70572,-22.79201)"><g fill="#ff0000" fill-rule="evenodd" stroke="none" stroke-width="0.4" stroke-linecap="round" stroke-linejoin="round" stroke-miterlimit="10"><path d="M313.47146,24.71994l-0.05229,0.2696l-0.13763,0.18456l0.18992,0.18607l0.05917,0.1602l-0.13212,0.37626l0.0977,0.28598l-0.10873,0.26369l0.05504,0.08299l-0.19266,0.63252l0.03578,0.14079l-0.18304,0.29864l0.11147,0.33113l0.14726,0.17093l-0.01927,0.27071l0.10322,0.09346l-0.07431,0.20823l-0.09909,0.08299l0.11834,0.20877l0.01514,0.30966l0.15689,0.09772l-0.0922,0.15634l0.00276,0.41576l0.14863,0.09316l0.00276,0.18304l-0.09222,0.08009l0.10873,0.25501l0.3413,0.13171l0.09496,0.49944l0.11147,0.15523l-0.06744,0.21758l-0.13349,0.19749l0.18855,0.32727l0.17753,0.17547l0.07707,0.16115l0.18167,0.13763l0.30828,0.00661l0.09496,0.2718l0.00276,0.18028l-0.139,0.50989l-0.23671,0.00234l-0.46792,0.57499l-0.26149,0.0629l0.0055,0.09276l-0.19818,0.20286l0.14175,0.24401l-0.03853,0.12964l0.10872,0.48016l0.15964,0.02559l0.17478,0.16308l-0.09908,0.18455l0.07018,0.22845l-0.07707,0.11587l0.09909,0.20093l-0.40736,0.259l0.11284,0.28695l0.25598,0.26657l0.11973,0.39195l-0.31653,0.14809l0.08946,0.19956l-0.08809,0.09359l0.08395,0.16184l0.14175,0.12579l0.30276,0.03509l0.08532,0.25776l-0.17203,0.33208l-0.28075,-0.08368l-0.10459,0.24469l-0.19404,0.18979l-0.1624,-0.08903l-0.26561,0.13005l-0.20919,-0.07872l-0.25874,0.13184l-0.17341,-0.09647l-0.11561,0.01404l0.05643,0.41149l-0.07294,0.16955l-0.4225,-0.10404l-0.0578,0.15606l-0.30139,0.15002l-0.2491,-0.03206l-0.07019,-0.07611l-0.36609,-0.124l-0.21194,0.17905l0.00827,0.16501l-0.1679,0.16391l-0.37709,-0.14355l-0.20368,-0.26493l0.10183,-0.17574l-0.08395,-0.39471l-0.3248,-0.41617l-0.25185,-0.08422l-0.10597,-0.09097l0.08257,-0.27855l-0.27937,-0.36236l-0.13349,0.00537l-0.16513,-0.17464l-0.25874,0.02848l-0.15276,0.08478l-0.02477,-0.21208l0.04954,-0.42484l-0.05092,-0.42539l-0.0922,-0.53439l-0.00826,-0.3848l0.2023,-0.0673l0.23533,-0.32906l0.18304,-0.64531l0.20506,-0.22571l0.03441,-0.259l0.36609,-0.46118l0.17341,-0.39442l0.0867,-0.29712l0.07707,-0.40791l0.05092,-0.73862l-0.01514,-0.38935l0.05917,-0.48016l0.20506,-0.30828l0.06881,-0.29052l0.07019,-1.0202l-0.00826,-0.42814l-0.12524,-1.28967l-0.10459,-0.72639l-0.13349,-0.6903l-0.25185,-1.08267l-0.14588,-0.40957l0.0523,-0.07254l-0.15,-0.62921l-0.03992,-0.25089l-0.1569,-0.4938l0.24496,-0.26066l0.15828,-0.04969l0.23533,-0.27166l0.22434,-0.04776l0.25185,-0.13114l0.33305,-0.02147l0.17478,0.06083l0.30828,-0.06799l0.10322,0.10652l0.00963,0.15028l0.10734,0.17727l0.07707,0.45622l-0.00688,0.34998l0.30415,0.13019l0.14863,0.02299l0.12523,0.11697l-0.12248,0.12318l0.26561,0.17093l0.01652,-0.15029l0.25873,-0.05202l0.05506,0.24729l0.18579,-0.0867l0.11423,-0.16831l0.20369,-0.09633l0.04954,0.24621l0.15414,0.10873l0.22983,-0.25309l0.09772,0.11174l-0.12111,0.17244l-0.22295,0.04377"></path><path d="M304.292,33.65581l-0.2202,0.32162l-0.34681,0.05643l-0.01927,-0.13336l0.19818,-0.14973l0.26561,-0.28984l0.12248,0.19488"></path><path d="M305.393,33.7439l-0.30139,-0.06303l-0.10322,-0.13528l0.30965,-0.11684l0.23121,-0.04817l0.04679,0.25212l-0.18304,0.1112"></path></g></g></svg>