<svg version="1.1" xmlns="http://www.w3.org/2000/svg" xmlns:xlink="http://www.w3.org/1999/xlink" width="12.50858" height="10.16694" viewBox="0,0,12.50858,10.16694"><g transform="translate(-266.33618,-159.70011)"><g fill="#ff0000" fill-rule="evenodd" stroke="#ffffff" stroke-width="0" stroke-linecap="round" stroke-linejoin="round" stroke-miterlimit="10"><path d="M276.67905,161.53256l0.10779,0.17097l0.1747,-0.0446l0.16726,-0.09663l0.16726,0.11522l0.1623,-0.0508l0.1276,0.13381l0.27752,0.01858l0.18461,-0.0446l0.12886,0.18214l0.25152,-0.04089l0.12637,0.10779l0.12389,0.00991l0.00744,0.11647l-0.17965,0.08176l-0.10902,0.13009l-0.03346,0.19203l-0.12018,0.07682l-0.06939,0.3593l0.13877,0.02602l0.03346,0.08177l0.25027,0.1016l0.13133,0.01239l0.11646,0.12018l-0.19328,0.19328l-0.03098,0.14248l-0.13256,0.01238l0.00124,0.19203l-0.04584,0.12018l-0.14867,0.05452l-0.14248,0.26761l0.06566,0.20072l0.17593,0.08549l-0.17345,0.58479l-0.24035,0.23169l0.02973,0.2131l-0.05947,0.19452l-0.09663,0.13256l0.04708,0.22921l-0.02973,0.13753l-0.19576,0.15239l-0.08301,0.11646l-0.09293,0.3147l-0.1177,0.09168l-0.38285,-0.03221l-0.19699,0.057l-0.05327,0.09912l-0.16726,0.10283l-0.08549,-0.00991l-0.32461,0.10655l-0.03346,0.15982l-0.23664,-0.05203l-0.14,-0.21187l-0.31221,-0.04584l-0.12514,0.04089l-0.17717,-0.07309l-0.15859,0.02354l-0.39027,-0.1239l-0.16106,0.03345l-0.18461,-0.06319l-0.39276,0.09293l-0.03221,-0.06691l-0.17222,-0.01858l-0.21682,0.11769l-0.28371,-0.07558l-0.24779,-0.02849l-0.12389,0.057l-0.15488,-0.0446l-0.1016,0.13628l0.09416,0.07433l-0.04708,0.27011l0.13381,0.07186l0.22797,0.00373l0.08177,0.06195l0.09912,-0.05575l-0.03964,0.30479l-0.14,0.11769l-0.09168,0.1462l-0.2255,0.07186l-0.15239,0.10779l-0.15735,0.28496l-0.16602,0.02973l-0.07062,0.12142l-0.15362,-0.02478l-0.26514,0.03099l-0.42743,-0.057l-0.1462,0.0508l-0.04956,-0.06691l-0.16602,-0.01981l-0.10035,0.04584l-0.29487,-0.02354l-0.09293,-0.07062l-0.20442,0.057l-0.11151,0.08426l-0.13009,-0.0062l-0.11151,0.14867l-0.09788,0.01858l-0.10779,0.14l-0.1239,0.07062l-0.10283,0.17965l0.04708,0.19328l-0.03346,0.20442l-0.0892,-0.08921l-0.13133,0.02602l-0.23169,-0.1177l-0.21929,-0.01115l-0.21187,0.07309l-0.22425,0.02106l-0.17841,0.23044l-0.14,-0.00373l-0.29612,-0.17964l-0.16479,0.02229l-0.0384,0.18955l-0.13753,-0.05327l-0.22674,-0.00496l-0.03221,-0.23788l-0.19081,-0.03718l-0.49807,-0.17593l0.02106,-0.28124l-0.03718,-0.14001l0.00867,-0.3085l-0.04584,-0.14124l0.11026,-0.25894l-0.02229,-0.22674l0.12142,-0.1623l-0.01982,-0.13628l0.06566,-0.02725l0.13753,-0.20071l-0.00496,-0.19204l-0.10035,-0.13133l0.08426,-0.17097l0.02106,-0.14868l0.07929,-0.03593l0.0793,-0.16106l0.16602,-0.04956l0.06939,-0.19452l-0.01858,-0.12886l0.17345,-0.14248l0.21063,0.0446l0.22301,-0.10902l0.20815,-0.04089l0.11646,-0.23788l-0.20319,-0.16602l0.02602,-0.23664l0.21559,-0.10035l0.07682,-0.07681l0.20815,-0.04833l0.17965,-0.00247l0.10407,0.08921l0.1363,-0.19204l0.20815,0.11151l0.13256,-0.21187l0.10283,0.01115l0.23294,-0.1177l0.32708,-0.05823l0.25522,-0.11769l0.2131,-0.01115l0.10902,-0.16106l-0.0062,-0.14744l0.06939,-0.07682l0.32585,0.14248l0.21062,0.13628l0.23665,0.01982l0.07309,-0.20567l0.13628,-0.09912l0.14248,0.04584l0.11274,-0.16479l0.02725,-0.35806l-0.09167,-0.34443l0.22178,0.00743l0.14,0.0793l0.30603,-0.1016l0.04833,-0.09788l0.28619,-0.03346l0.32832,-0.08549l-0.06319,-0.22548l-0.08549,-0.02726l0.06195,-0.18708l-0.06071,-0.14495l0.07186,-0.20071l0.1016,-0.12886l0.11399,-0.05327l0.16479,-0.00124l0.22177,0.12266l0.09416,-0.06071l0.0062,-0.20567l-0.06566,-0.13504l0.02849,-0.11769l-0.12266,-0.15488l-0.03718,-0.34072l0.02849,-0.07559l0.00496,-0.32956l0.04089,-0.03966l0.38159,0.03469l0.18461,-0.14124l0.18337,0.07186l0.21559,-0.06195l0.02973,-0.11151l0.28992,-0.21186l0.08673,-0.00247l0.13256,-0.1747l-0.02973,-0.14001l0.01982,-0.24779l0.08177,-0.2131l0.17717,0.05327l0.0508,0.11895l0.09293,0.0062l0.11151,0.33205l0.16602,0.10532l0.05327,0.13628l0.26515,0.1276l0.10408,0.17345l-0.05204,0.26637l0.09788,0.18832l0.12886,0.0062l0.14744,0.07929l0.16479,-0.07433l0.12389,-0.00744l0.11275,0.23044l-0.07309,0.09044"></path></g></g></svg>