<svg version="1.1" xmlns="http://www.w3.org/2000/svg" xmlns:xlink="http://www.w3.org/1999/xlink" width="9.15619" height="17.07132" viewBox="0,0,9.15619,17.07132"><g transform="translate(-303.08187,-105.48216)"><g fill="#ff0000" fill-rule="evenodd" stroke="#ffffff" stroke-width="0" stroke-linecap="round" stroke-linejoin="round" stroke-miterlimit="10"><path d="M310.75807,122.55337l-0.11834,-0.05481l-0.26161,0.02492l-0.21054,-0.01245l-0.10589,0.04235l-0.16443,-0.11212l-0.06603,-0.1582l-0.1607,-0.06602l-0.0573,-0.24291l-0.22423,-0.25413l-0.03612,-0.13703l-0.11958,-0.06977l-0.13081,0.00374l-0.07225,-0.23918l-0.20057,-0.33136l-0.15073,-0.0897l-0.05232,-0.1582l-0.20679,-0.05606l-0.08471,-0.12955l-0.18437,-0.04859l-0.06602,0.09841l-0.02492,0.19185l-0.20804,0.04734l-0.16443,0.147l-0.05481,0.32513l0.1582,0.26035l0.07349,0.26286l-0.36874,0.04734l-0.07225,0.06976l-0.2043,-0.11585l-0.17191,-0.16567l-0.04983,0.07972l-0.18187,-0.0573l-0.09716,-0.19184l-0.14326,-0.10091l-0.19807,-0.23543l-0.1009,-0.16817l-0.16569,-0.12707l-0.0573,-0.10465l-0.12208,-0.03612l-0.21054,-0.15945l-0.25039,0.01869l-0.35005,-0.20554l-0.04983,-0.08346l-0.04359,-0.25661l-0.24666,-0.03238l-0.55311,0.07475l-0.11087,-0.147l0.19557,-0.09841l-0.04983,-0.21302l-0.18935,-0.1308l-0.12831,-0.1856l-0.1582,-0.11585l-0.45095,-0.19433l-0.17191,-0.13329l-0.08097,-0.19683l0.11087,-0.09342l0.08222,-0.1856l0.15945,-0.14077l0.23793,-0.06104l0.16817,-0.20679l0.1358,-0.11336v-0.15322l-0.15323,-0.1009l0.03987,-0.20055l-0.05979,-0.15447l0.07723,-0.11709l-0.04484,-0.17565l0.16319,-0.20181l0.14575,0.05979l0.20804,-0.0573l0.0872,-0.08222l0.17068,-0.03612l0.18312,0.03364l0.05108,-0.17565l0.08097,-0.01993l0.06104,-0.22921l0.11709,-0.04859l-0.01121,-0.22174l0.22673,-0.01993l0.13578,-0.05979l-0.08846,-0.10465l-0.04609,-0.26783l-0.1582,-0.32513l0.03489,-0.13579l-0.00747,-0.24541l-0.17813,-0.03986l-0.12208,-0.16941l0.09966,-0.19433l0.16319,0.01371l0.13453,-0.11087l0.19184,0.02866l0.25787,0.0872l0.17565,-0.20928l-0.05856,-0.20804l0.27032,-0.19308l0.04359,-0.21924l-0.01371,-0.28527l-0.14575,-0.24791l-0.05357,-0.16443l-0.23045,-0.28527l-0.04111,-0.18062l-0.16443,-0.09841l-0.0573,-0.1445l0.05854,-0.09966l-0.09342,-0.1582l0.00125,-0.29275l-0.12083,-0.11461l-0.16569,0.06104l-0.19557,-0.15696l-0.03489,-0.25038l-0.22797,-0.09966l-0.11212,-0.41607l0.24168,-0.26409l0.03986,-0.28776l0.10713,-0.17813l-0.06602,-0.16569l0.1607,-0.12208l-0.04359,-0.15572l0.1308,-0.07847l0.05856,-0.13703l0.11834,-0.02242l0.0573,-0.20804l0.15696,0.09966l0.28777,-0.09716l0.23295,0.07972l0.21302,-0.24666l0.23045,-0.01495l0.00623,-0.4061l-0.14575,-0.02118l-0.17813,-0.11461l0.03489,-0.29025l-0.13329,-0.07349l-0.00498,-0.2043l-0.06851,-0.05979l0.04236,-0.12955l0.09218,-0.00499l-0.00997,-0.19059l0.08846,-0.12707l0.13453,-0.00747l0.07101,-0.19932l-0.26658,-0.19308l-0.03114,-0.0897l-0.00248,-0.40236l0.17316,-0.22423l0.21801,-0.05481l0.08471,-0.0872l0.14824,0.00872l0.19682,-0.1308l0.06602,0.00996l0.21801,-0.15696l0.05357,-0.1495l0.10589,-0.06354l0.13703,0.24541l0.09716,0.05979l0.23793,0.37869v0.14575l0.15945,0.23794l0.06602,0.02117l0.2043,0.25911l0.01495,0.22921l0.1881,0.13953l-0.00872,0.20679l0.04609,0.1856l0.13951,0.11212l0.06976,0.21801l0.22423,0.37247l0.28153,0.70135l-0.01743,0.23543l-0.13953,-0.00747l-0.14824,0.09593l-0.10463,0.22921l0.05357,0.12458l-0.02615,0.14575l0.21924,0.08846l0.15572,0.00374l0.18935,0.17191l0.16941,0.07475l0.0573,0.147l0.14201,0.19557l-0.05231,0.12083l-0.15323,0.06104l-0.13578,-0.04734l-0.09841,0.09218l-0.05979,0.17565l-0.1009,0.11585l-0.01371,0.22921l0.08097,0.36499l0.21054,0.29398l0.3538,0.15696l0.09964,0.21925l0.0897,0.09964l0.06851,0.19433l0.21054,0.12083l0.23918,-0.02616l0.26658,0.48833l-0.03238,0.13453l0.04484,0.41109l-0.15322,0.00248l-0.08471,0.23295l0.01495,0.19683l0.06853,0.07724l0.12332,0.38244l0.19557,0.10215l0.09841,0.33634l-0.0573,0.21676l0.07225,0.22547l0.13205,0.27406l-0.08596,0.09716l-0.00623,0.17316l0.04983,0.25163l0.14077,0.23295l-0.10589,0.09841l0.0274,0.23794l-0.07349,0.2342l-0.17565,0.15696l0.15322,0.06727l0.00747,0.22423l-0.1171,0.07101l-0.03986,0.19683l0.03364,0.11958l0.12083,-0.00996l-0.05482,0.2342l-0.11585,0.1881l0.12083,0.26161l-0.21302,0.12456l0.09592,0.18312l-0.06851,0.04485l-0.02742,0.1881l-0.22921,0.20429l0.05232,0.15198l0.10339,0.0573l0.17565,-0.3239l0.19185,-0.19309l0.24541,-0.43725l0.17565,-0.1769l0.08222,0.14326l-0.05606,0.19059l0.00623,0.35504l0.10339,0.39739l-0.03986,0.21177l0.1856,0.04359l0.17191,-0.02242l-0.01619,0.13579l0.13953,0.05107l0.05481,0.28278l-0.0872,0.14326l-0.12955,0.06851l-0.26286,0.04484l-0.05357,0.11709l-0.00374,0.21551l-0.24541,0.23045l0.03364,0.24168l-0.13827,0.00248l-0.11709,-0.07225l-0.1009,0.05481l-0.12831,-0.02616l-0.21426,0.11336l0.01619,0.29399l0.18312,0.14325l0.10339,0.14077l0.11709,-0.1607l0.16818,-0.11087l0.07474,-0.14201l0.21676,-0.13579l0.10963,-0.14824l0.16693,0.00499l0.13703,0.19807l-0.14201,0.21801l-0.00498,0.10215l-0.11336,0.05357l-0.00746,0.1607l0.07475,0.15198l-0.15945,0.18064l-0.1632,-0.13453l-0.10463,-0.02865l0.00996,0.17813l-0.21302,0.09966l-0.16195,-0.01495l0.06229,-0.1196l-0.05606,-0.15447l-0.21924,0.23794l-0.12707,0.20679"></path></g></g></svg>