<svg version="1.1" xmlns="http://www.w3.org/2000/svg" xmlns:xlink="http://www.w3.org/1999/xlink" width="5.9309" height="16.36006" viewBox="0,0,5.9309,16.36006"><g transform="translate(-293.4736,-146.41399)"><g fill="#ff0000" fill-rule="evenodd" stroke="#ffffff" stroke-width="0" stroke-linecap="round" stroke-linejoin="round" stroke-miterlimit="10"><path d="M298.05169,146.78268l0.08596,0.25288l0.11335,0.13205l0.04609,0.19308l0.08222,0.15945l0.32762,0.14077l0.02866,0.72626l0.04359,0.17191l0.2043,0.26908l0.04111,0.17191l0.00997,0.44099l-0.01371,0.33759l0.04609,0.23918l0.07349,0.08097l-0.01745,0.20679l0.06727,0.26658l-0.0299,0.28028l0.06478,0.29276l-0.0299,0.27654l0.01619,0.37247l0.05107,0.51324l0.09966,0.39862l0.04235,0.31641l-0.06478,0.19059l0.01619,0.36376l-0.04485,0.26909l-0.01371,0.3924l0.02367,0.15447l0.00248,0.43724l-0.04609,0.35628l-0.05357,0.09716l-0.02616,0.22298l0.03489,0.09094l-0.04984,0.18437l0.00375,0.16817l-0.09966,0.3924l-0.04859,0.31517l0.00374,0.16195l0.09966,0.09966l-0.10712,0.08472l-0.07847,0.26908l-0.05979,0.33385l-0.00747,0.55061l0.02615,0.06853l-0.04983,0.26161l0.00747,0.36624l-0.11834,0.14201l-0.07724,0.17316l-0.07225,0.30647l-0.05232,0.36001l-0.00996,0.40363l0.09094,0.19557l0.02118,0.21426l-0.16693,0.18686l0.01495,0.16693l-0.1196,0.08719l-0.13205,0.17191l-0.15447,0.06602l-0.13951,0.17439l-0.22548,-0.06727l-0.19308,0.12458l-0.14575,0.15073l-0.11336,-0.00125l-0.21676,0.11834l-0.1495,0.15696l-0.16195,-0.03737l-0.19308,0.10215l-0.17937,0.22174l-0.11585,0.29897l0.04609,0.2043l-0.20305,-0.12332l-0.12955,0.09094l-0.13953,-0.12458l-0.1881,-0.09466l-0.32888,0.04359l-0.14824,-0.16693l-0.23045,-0.11087l-0.4522,-0.16195l-0.12583,0.05357l-0.28153,-0.10713l-0.20804,-0.32015l-0.14824,-0.31641l-0.04859,-0.31641l-0.15073,-0.14824l-0.05232,-0.16569l0.08097,-0.0872l0.33635,-0.21676l0.09218,-0.14824l0.09218,0.02367l0.08222,-0.10837l-0.00248,-0.22299l0.04484,-0.20305l0.1196,-0.12707l0.11336,-0.01743l-0.0299,-0.19059l0.21924,-0.11834l-0.06354,-0.13578l0.14077,-0.09342l-0.0299,-0.15572l-0.13827,-0.29275l-0.11834,-0.11212l0.01869,-0.09841l-0.19059,-0.22798l-0.19433,-0.09592l-0.0274,-0.24416l-0.10713,-0.1445l0.08471,-0.14326l-0.01121,-0.2479l0.13205,0.00498l0.12333,-0.12707l0.24666,-0.09218l0.0299,-0.07225l0.15945,-0.09342l0.06602,0.04236l0.18686,-0.13951l0.03238,-0.1582l-0.03114,-0.13702l0.03364,-0.23544l0.10339,-0.147l-0.02367,-0.10713l0.03488,-0.22049l-0.0573,-0.02367l0.06727,-0.23171l0.14077,0.00124l0.1582,-0.14575l-0.01121,-0.15696l-0.14326,-0.1881l-0.07599,-0.17191l0.04609,-0.1582l-0.06104,-0.11212l0.19932,-0.23171l-0.01121,-0.12583l0.16817,-0.11461l0.15073,0.05606l0.02866,0.11585l0.15572,0.01121l0.10963,0.14701l0.07475,-0.05856l0.31269,0.09966l0.25039,-0.02242l0.24292,0.11211l0.19557,0.03862l0.01371,-0.16941l0.1009,-0.05482l0.00747,-0.18935l-0.03987,-0.25039l-0.06602,-0.1769l-0.02118,-0.19059l-0.06354,-0.04484l-0.01495,-0.26035l-0.09966,-0.04112l-0.02866,-0.12083l-0.17316,0.06853l-0.07599,-0.10589l-0.17565,-0.03114l-0.09468,0.06104l-0.14824,-0.10837l-0.10463,0.05481l-0.22049,-0.20927l-0.16817,-0.07972l-0.11461,0.00623l-0.35628,-0.18686l-0.12955,-0.02118l0.16569,-0.31267l-0.11834,-0.03987l-0.17565,-0.19184l0.1607,-0.35005l0.08097,-0.23669l0.15073,0.03612l0.16071,-0.31891l-0.1009,-0.12582l-0.14575,-0.07724l-0.09342,0.01371l-0.27281,-0.23794l-0.10589,-0.14326l-0.02492,-0.18686l0.02616,-0.1769l-0.04859,-0.04733l0.02865,-0.32015l-0.13827,-0.18062l-0.13827,-0.06354l0.20927,-0.26908l0.07972,-0.04112l0.01743,-0.17565l0.0872,-0.0872l0.00124,-0.13205l0.07847,-0.08596l0.22299,-0.04734l0.05231,-0.08222l0.2915,-0.0274l0.09342,-0.08222l-0.00248,-0.17565l-0.15073,0.1009l-0.26286,0.03612l-0.03737,-0.06977l-0.1881,-0.09841l-0.07475,-0.26909l0.19932,-0.25163l0.21302,0.04111l0.14326,0.12831l0.04983,0.17316l0.13703,-0.08969l0.4634,0.08472l0.15198,0.11087l0.08846,-0.11585l-0.27406,-0.24042l0.03114,-0.14077l0.44597,0.16817l0.15945,-0.04859l0.08471,0.06229l0.26534,-0.00872l0.07724,-0.11834l0.00248,-0.18187l-0.05606,-0.10963l0.02866,-0.11461l-0.06727,-0.32513l0.1009,-0.11087l0.02616,-0.17191l-0.07599,-0.11585l0.02118,-0.25911l0.17316,-0.0872l0.34755,-0.10339l0.03737,0.08471l0.37497,0.02242l0.02742,0.26159M298.53131,147.79669l-0.09342,0.42853l0.20679,0.15073l0.04859,-0.64031l-0.17067,-0.04983l0.00872,0.11087"></path></g></g></svg>