<svg version="1.1" xmlns="http://www.w3.org/2000/svg" xmlns:xlink="http://www.w3.org/1999/xlink" width="8.59438" height="18.56894" viewBox="0,0,8.59438,18.56894"><g transform="translate(-288.98962,-112.62796)"><g fill="#ff0000" fill-rule="evenodd" stroke="#ff0000" stroke-width="0.4" stroke-linecap="round" stroke-linejoin="round" stroke-miterlimit="10"><path d="M297.10495,113.58415l-0.06104,0.27031l0.05979,0.0872l-0.0299,0.12583l0.16693,0.18935l-0.00498,0.19433l0.08846,0.0897l0.05979,0.17565l-0.01993,0.14575l-0.25787,0.07724l-0.1769,-0.03114l-0.18187,-0.2155l-0.18064,0.09218l-0.18062,-0.04111l-0.21551,0.22423l0.02118,0.18437l0.05856,0.06727l-0.02241,0.46962l0.20679,0.13205l0.12083,-0.04236l0.14325,0.12583l0.21177,0.08346l0.08346,0.18935l-0.17067,0.20055l-0.1881,0.147l-0.04609,0.15073l-0.13081,0.09468l0.00997,0.147l-0.10713,0.10465l-0.20804,0.05107l0.03362,0.20305l0.13703,0.25661l0.19185,0.02616v0.15447l0.1582,0.17068l-0.05232,0.12707l0.0573,0.23669l-0.03489,0.20554l-0.16444,0.34631l-0.02492,0.29898l-0.12083,0.15945l-0.15945,-0.01743l-0.08969,0.21177l-0.13703,0.04982l-0.12458,0.2778l-0.17439,0.08595l-0.12332,-0.00746l-0.01495,0.20804l0.12831,0.09841l0.02367,0.17316l-0.05979,0.23794l-0.14824,0.04734l-0.02367,0.23295l-0.11336,0.07847l0.06478,0.22921l-0.0299,0.10465l-0.25413,0.19807l-0.08222,0.02367l-0.15572,0.26409l0.10713,0.17938l-0.00623,0.20305l-0.04983,0.10215l-0.28527,0.06851l0.06851,0.16693l-0.1308,0.20928l0.15322,0.10465l0.16817,0.01743l-0.04236,0.23918l0.15945,0.14575l0.00125,0.19059l0.18312,0.06229l0.07474,0.22174l-0.13205,0.02241l-0.07101,0.24168l0.05357,0.05107l-0.04484,0.17191l0.29524,0.04983l0.00623,0.38493l0.35005,0.17813l0.13703,0.10465l0.1495,0.04112l0.10339,0.17565l0.14326,0.04983l-0.01371,0.18686l-0.21302,0.05357l-0.09218,0.16443l0.05606,0.14077l-0.03489,0.10837l0.17316,0.04859l0.12208,0.09841l0.11087,-0.02118l0.1308,0.1856l-0.24416,0.09468l-0.02615,0.09218l-0.15322,-0.01371l-0.10465,0.24541l-0.19682,0.19185l0.25288,0.26035l-0.17565,0.09841l0.09094,0.14824l-0.09094,0.19308l-0.03737,0.17316l0.23794,0.1171l0.08596,-0.05357l0.26286,0.08846l0.05482,0.09592l-0.06229,0.12332l0.07225,0.17439l-0.14575,0.16443l0.03238,0.09218l-0.06602,0.19059l-0.13453,0.15572l-0.01495,0.09592l-0.17938,0.12954l-0.00623,0.17565l0.13453,0.32638l-0.01371,0.17565l-0.35254,0.02742l-0.16443,0.11336l-0.10963,0.23793l-0.20181,0.22673l-0.08346,-0.0573l-0.18437,0.09966l-0.15696,0.22423l-0.02367,0.1034l-0.32513,0.13578l-0.05856,0.07599l-0.12831,-0.08595l-0.25413,-0.05107l-0.03114,0.09342l-0.17316,-0.00623l-0.38617,0.22174l-0.09841,-0.04859l-0.0897,-0.20804l-0.1445,-0.18437l-0.11834,0.05232l-0.12706,-0.04609l-0.13205,0.08595l-0.13329,-0.06229l-0.0274,-0.12208l-0.15447,-0.1308l-0.22673,-0.09094l-0.04236,-0.21676l-0.10837,-0.1881l0.05107,-0.20804l-0.03114,-0.21054l-0.07101,-0.13951l-0.09716,-0.02616l-0.07225,-0.15696l-0.22423,0.02866l-0.24666,-0.01869l-0.24291,-0.07101l-0.13205,-0.22174l-0.03238,-0.23794l-0.21302,-0.02367l-0.18935,-0.1445l0.16942,-0.17316l-0.09342,-0.15447l-0.01869,-0.14824l0.1196,-0.15073l-0.02866,-0.24791l-0.13329,-0.17938l-0.16569,-0.01494l-0.05357,-0.23794l-0.10215,-0.11585l-0.01869,-0.16195l-0.13703,-0.19184l-0.12955,-0.08846l-0.02367,-0.19932l-0.07475,-0.12955l-0.09218,-0.02865l-0.11833,-0.15696l0.01245,-0.08097l-0.11087,-0.14077l-0.12208,0.05107l-0.11336,-0.1607l-0.00374,-0.11834l-0.09841,-0.11461l0.01121,-0.14077l0.0872,-0.03489l0.23295,0.07225l0.15198,-0.16443l0.26534,-0.08846l0.0274,-0.04859l0.659,-0.0897l0.03986,-0.16569l-0.12831,-0.03737l0.03987,-0.19683l0.08222,-0.1171l0.03238,-0.22798l0.147,-0.00623l-0.02492,-0.1607l-0.14326,-0.11087l-0.00125,-0.24168l-0.08346,0.03986l-0.0897,-0.11834l0.01869,-0.14575l-0.15198,-0.13453l-0.19433,0.01743l-0.02242,-0.09592l-0.36874,-0.02241l-0.01743,-0.23046l0.11212,-0.07475l0.54438,-0.12332l-0.05481,-0.12583l-0.33386,-0.05856l0.19557,-0.20803l0.02118,-0.15696l-0.34755,-0.12208l-0.11087,-0.16443l0.00498,-0.25911l0.147,-0.07973l-0.00498,-0.19683l-0.19059,-0.28901l0.11585,-0.10215l-0.06104,-0.19059l-0.09218,-0.13579l-0.13579,-0.01869l-0.04112,-0.09964l-0.0274,-0.3077l-0.06478,-0.08719l-0.16569,0.00623l0.05979,-0.26658l0.07972,-0.04236l0.05107,-0.17067l0.1358,-0.03612v-0.18686l0.17067,-0.23543l-0.00623,-0.13453l0.11585,-0.09466l0.09095,-0.15322l0.00248,-0.24915l-0.16071,0.01371l-0.05231,-0.07599l0.04359,-0.147l0.26658,-0.03114l0.03862,0.10713l0.17067,0.01993l0.01619,-0.12955l-0.04609,-0.19184l0.23543,-0.21302l0.15945,0.06727l0.11709,-0.24042l0.20305,-0.06229l0.10339,0.03612l0.25039,-0.11335l0.3351,-0.24541l0.16194,0.12332l0.18437,0.03737l0.34507,-0.19059l0.10589,-0.00996l0.24791,-0.14077l0.06851,-0.23045l0.08597,-0.11834l-0.06727,-0.11212l-0.04859,-0.21426l-0.20181,-0.20804l-0.12083,-0.25661l0.13828,-0.12707l0.26408,-0.09218l0.05482,-0.10465l-0.09342,-0.37995l0.05606,-0.10713l0.17068,-0.06229l0.11335,-0.17316l0.01121,-0.32513l0.24042,-0.04734l0.16071,-0.1632l0.15696,-0.00872l0.1445,0.16195l0.23918,0.00623l0.1495,-0.09218l0.13205,-0.25288l-0.07724,-0.35752l0.0573,-0.07723l0.15696,-0.01495l0.15447,-0.12332l0.06602,-0.1881l0.33386,-0.24417l0.10463,-0.2778l0.17566,-0.07847l0.00747,-0.1308l0.20055,-0.03612l0.09716,0.03862l0.20679,0.25787l-0.04859,0.15696l0.06851,0.12458l0.30647,-0.00125l0.13951,-0.10713l0.11087,0.01743l0.12955,-0.10091l0.32762,0.16942l0.12208,0.09841l0.11585,0.10215M294.29957,117.43593l0.21177,0.27406l0.24416,-0.08222l0.17938,0.03737l0.07599,-0.23794l0.12955,-0.16319l-0.04236,-0.14325l-0.16941,-0.16194l-0.33012,-0.09342l-0.20305,0.02865l-0.13827,0.40735l0.04236,0.13453"></path></g></g></svg>