<svg version="1.1" xmlns="http://www.w3.org/2000/svg" xmlns:xlink="http://www.w3.org/1999/xlink" width="6.83661" height="7.63567" viewBox="0,0,6.83661,7.63567"><g transform="translate(-268.62082,-178.18314)"><g fill="#ff0000" fill-rule="evenodd" stroke="#ffffff" stroke-width="0" stroke-linecap="round" stroke-linejoin="round" stroke-miterlimit="10"><path d="M273.148,178.41968l0.18461,0.20938l0.08796,-0.02725l0.01239,0.40887l0.08177,0.23788l0.1177,0.10407l-0.02478,0.22054l0.09911,0.18708l0.15859,0.07806l0.21434,0.43364l0.20072,0.16355l0.41381,0.24284l0.11895,-0.00247l0.13009,0.07558l0.16602,-0.0062l0.31841,0.28992l-0.17345,0.26017l0.12018,0.19824l-0.04336,0.27257l0.12637,0.12514l-0.05452,0.32338l-0.09788,0.1177l0.07929,0.0892l0.00744,0.28001l-0.20319,0.19575l0.02354,0.17222l-0.12143,0.17594l-0.12142,0.07681l-0.10532,0.14868l-0.2131,0.01858l-0.10532,0.05204l-0.1747,-0.03346l-0.02602,0.15611l-0.16479,0.16355l-0.0384,0.11769l-0.15611,0.0161l-0.08426,0.08053l-0.23912,0.01487l-0.1239,0.14992l-0.30107,0.05947l-0.33576,0.337l0.03966,0.17222l-0.06071,0.1685l-0.09416,0.05947l-0.02106,0.16355l-0.16727,0.06442l-0.18584,0.15239l-0.17841,0.07062l-0.13256,-0.12885l-0.14868,-0.00496l-0.20815,0.10037l-0.14991,0.14744l-0.27752,-0.03717l-0.85118,0.21063l-0.07433,-0.03717l-0.3023,0.0384l-0.02106,0.04584l-0.22548,0.02973l-0.11523,-0.534l-0.09663,-0.08301h-0.3023l-0.37045,0.07806l-0.14124,-0.58727l-0.11399,-0.07559l-0.08177,-0.13628l0.02602,-0.02725l-0.00496,-0.12018l0.14,0.00744l0.08301,-0.09663l-0.07186,-0.17345l-0.1623,-0.01239v-0.01362l0.1623,-0.13628l-0.0161,-0.18584l0.09788,-0.14124l0.23044,0.03964l0.19328,-0.1685l0.49434,-0.09663l0.21807,-0.2131l0.40391,-0.14248l0.06939,-0.057l0.27133,-0.10655l0.13753,-0.08177l0.21559,0.00868l0.11028,-0.03346l0.02106,-0.13876l-0.08176,-0.07558l-0.02229,-0.1623l-0.14991,-0.01611l0.01487,-0.10283l-0.06195,-0.11769l0.1276,-0.13256l0.02725,-0.09044l0.14868,-0.02602l0.12389,-0.09044l0.14001,0.01858l0.06442,-0.11399l0.12266,0.0062l0.25522,-0.30479v-0.17841l-0.04336,-0.18088l0.15982,-0.24409l-0.05823,-0.20319l-0.00124,-0.19204l0.05452,-0.19204l-0.17345,-0.33081l-0.21557,-0.09416l-0.10655,-0.15362l-0.02849,-0.17593l0.5662,-0.04213l0.06319,-0.05327l-0.06319,-0.32585l-0.07433,-0.03593l0.0384,-0.1462l-0.10902,-0.11646l0.12266,-0.1276l0.05327,-0.13877l-0.03346,-0.26886l0.08301,0.02354l0.12762,0.15735l0.15239,0.10902l0.23417,-0.19699l0.19204,0.05823l0.21682,-0.09044l0.04213,0.17593"></path></g></g></svg>