<svg version="1.1" xmlns="http://www.w3.org/2000/svg" xmlns:xlink="http://www.w3.org/1999/xlink" width="131.87137" height="308.98032" viewBox="0,0,131.87137,308.98032"><g transform="translate(-101.36668,-8.4584)"><g stroke-miterlimit="10"><path d="M232.65469,11.76149v54.23746c0,1.82112 -1.48069,3.30245 -3.30309,3.30245h-127.48492l0.08334,-60.843h127.40159c1.8224,0 3.30309,1.48197 3.30309,3.30308z" fill-opacity="0.6" fill="#000000" stroke="none" stroke-width="1"></path><path d="M233.23803,73.35304v54.23746c0,1.82112 -1.48069,3.30245 -3.30309,3.30245h-128.15159l0.08334,-60.843h128.06827c1.8224,0 3.30309,1.48197 3.30309,3.30308z" fill-opacity="0.6" fill="#000000" stroke="none" stroke-width="1"></path><path d="M232.65469,135.01968v54.23746c0,1.82112 -1.48069,3.30245 -3.30309,3.30245h-127.65159l0.08333,-60.843h127.56827c1.8224,0 3.30309,1.48197 3.30309,3.30308z" fill-opacity="0.6" fill="#000000" stroke="none" stroke-width="1"></path><path d="M232.82135,196.51972v54.23746c0,1.82112 -1.48069,3.30245 -3.30309,3.30245h-127.98492l0.08334,-60.843h127.90159c1.8224,0 3.30309,1.48197 3.30309,3.30308z" fill-opacity="0.6" fill="#000000" stroke="none" stroke-width="1"></path><path d="M232.98802,258.44793v54.53299c0,1.83105 -1.48069,3.32045 -3.30309,3.32045l-128.31825,-0.33515l0.08334,-61.17452l128.23493,0.33516c1.8224,0 3.30309,1.49004 3.30309,3.32108z" fill-opacity="0.6" fill="#000000" stroke="none" stroke-width="1"></path><text transform="translate(104.19288,31.90417) scale(0.16106,0.16106)" font-size="40" xml:space="preserve" fill="#ffffff" stroke="#ffffff" stroke-width="0.3" font-family="&quot;BIZ UDPGothic&quot;, Sans Serif" font-weight="normal" text-anchor="start"><tspan x="0" dy="0">震源地</tspan></text><text transform="translate(103.10955,66.18596) scale(0.41524,0.41524)" font-size="40" xml:space="preserve" fill="#ffffff" stroke="#ffffff" stroke-width="0.3" font-family="&quot;BIZ UDPGothic&quot;, Sans Serif" font-weight="normal" text-anchor="start"><tspan x="0" dy="0">M</tspan></text><text transform="translate(104.35955,92.9042) scale(0.16106,0.16106)" font-size="40" xml:space="preserve" fill="#ffffff" stroke="#ffffff" stroke-width="0.3" font-family="&quot;BIZ UDPGothic&quot;, Sans Serif" font-weight="normal" text-anchor="start"><tspan x="0" dy="0">震源地</tspan></text><text transform="translate(104.52621,153.90417) scale(0.16106,0.16106)" font-size="40" xml:space="preserve" fill="#ffffff" stroke="#ffffff" stroke-width="0.3" font-family="&quot;BIZ UDPGothic&quot;, Sans Serif" font-weight="normal" text-anchor="start"><tspan x="0" dy="0">震源地</tspan></text><text transform="translate(104.35955,213.90417) scale(0.16106,0.16106)" font-size="40" xml:space="preserve" fill="#ffffff" stroke="#ffffff" stroke-width="0.3" font-family="&quot;BIZ UDPGothic&quot;, Sans Serif" font-weight="normal" text-anchor="start"><tspan x="0" dy="0">震源地</tspan></text><text transform="translate(104.35955,276.90421) scale(0.16106,0.16106)" font-size="40" xml:space="preserve" fill="#ffffff" stroke="#ffffff" stroke-width="0.3" font-family="&quot;BIZ UDPGothic&quot;, Sans Serif" font-weight="normal" text-anchor="start"><tspan x="0" dy="0">震源地</tspan></text><text transform="translate(103.10954,128.51925) scale(0.41524,0.41524)" font-size="40" xml:space="preserve" fill="#ffffff" stroke="#ffffff" stroke-width="0.3" font-family="&quot;BIZ UDPGothic&quot;, Sans Serif" font-weight="normal" text-anchor="start"><tspan x="0" dy="0">M</tspan></text><text transform="translate(103.10955,188.5193) scale(0.41524,0.41524)" font-size="40" xml:space="preserve" fill="#ffffff" stroke="#ffffff" stroke-width="0.3" font-family="&quot;BIZ UDPGothic&quot;, Sans Serif" font-weight="normal" text-anchor="start"><tspan x="0" dy="0">M</tspan></text><text transform="translate(103.10955,250.85261) scale(0.41524,0.41524)" font-size="40" xml:space="preserve" fill="#ffffff" stroke="#ffffff" stroke-width="0.3" font-family="&quot;BIZ UDPGothic&quot;, Sans Serif" font-weight="normal" text-anchor="start"><tspan x="0" dy="0">M</tspan></text><text transform="translate(102.77621,312.18593) scale(0.41524,0.41524)" font-size="40" xml:space="preserve" fill="#ffffff" stroke="#ffffff" stroke-width="0.3" font-family="&quot;BIZ UDPGothic&quot;, Sans Serif" font-weight="normal" text-anchor="start"><tspan x="0" dy="0">M</tspan></text><g fill="#ffffff" stroke="#ffffff" stroke-width="0.3" font-family="&quot;BIZ UDPGothic&quot;, Sans Serif" font-weight="normal" font-size="40" text-anchor="start"><text transform="translate(221.89051,21.06969) scale(0.15553,0.15524)" font-size="40" xml:space="preserve" fill="#ffffff"><tspan x="0" dy="0">頃</tspan></text><text transform="translate(221.39051,82.45611) scale(0.15553,0.15524)" font-size="40" xml:space="preserve" fill="#ffffff"><tspan x="0" dy="0">頃</tspan></text><text transform="translate(221.89051,144.3416) scale(0.15553,0.15524)" font-size="40" xml:space="preserve" fill="#ffffff"><tspan x="0" dy="0">頃</tspan></text><text transform="translate(221.39051,205.72799) scale(0.15553,0.15524)" font-size="40" xml:space="preserve" fill="#ffffff"><tspan x="0" dy="0">頃</tspan></text><text transform="translate(221.39051,266.61528) scale(0.15553,0.15524)" font-size="40" xml:space="preserve" fill="#ffffff"><tspan x="0" dy="0">頃</tspan></text></g></g></g></svg>