<svg version="1.1" xmlns="http://www.w3.org/2000/svg" xmlns:xlink="http://www.w3.org/1999/xlink" width="7.36967" height="12.55209" viewBox="0,0,7.36967,12.55209"><g transform="translate(-316.77859,-50.56139)"><g fill="#ff0000" fill-rule="evenodd" stroke="none" stroke-width="0.4" stroke-linecap="round" stroke-linejoin="round" stroke-miterlimit="10"><path d="M322.87112,53.04003l-0.15,0.18015l0.11284,0.24525l0.15,0.19858l0.15964,0.12138l0.19818,0.35039l0.40461,0.1233l0.15689,-0.0728l0.10597,0.20259l-0.18855,0.02285l-0.0922,0.09908l-0.0523,0.30029l-0.11698,0.10777l0.04129,0.10376l-0.05917,0.29218l0.02478,0.24276l0.14175,0.36497l-0.00138,0.10432l-0.18028,0.20782l0.11284,0.15716l-0.1156,0.1207l0.09084,0.40722l0.11561,0.03152l0.20093,0.199l0.08257,0.21978l-0.02341,0.16033l0.15827,0.12814l-0.19818,0.21938l0.03441,0.59494l-0.09358,0.1734l-0.10183,-0.03578l-0.10597,0.15276l0.07982,0.09772l-0.19543,0.26974l0.09634,0.14588l-0.22295,0.18992l0.0055,0.0922l0.15964,0.12111l0.12937,0.27663l-0.01377,0.18442l0.07294,0.10459l0.01377,0.43765l-0.18579,0.15276l-0.18165,-0.0867l-0.23808,0.29865l-0.28764,0.1101l-0.1569,-0.05506l-0.16377,0.16515l-0.1913,-0.07295l-0.28075,-0.00826l-0.2491,0.24772l-0.09909,-0.0055l-0.26837,0.14038l-0.13075,0.34268l-0.08946,0.10873l0.02615,0.19543l-0.1789,0.27113l-0.19266,0.11698l-0.13487,0.00413l-0.04817,-0.12387l-0.15552,-0.11284l-0.25185,0.17478l-0.22845,-0.17754l-0.15964,0.1624l-0.12524,-0.04542l-0.30552,0.10734l-0.21744,-0.20092l-0.04542,-0.12387l-0.2133,-0.09084l-0.13899,0.0399l0.07431,0.32341l-0.31516,0.50507l-0.28625,-0.07707l-0.29176,0.1445l-0.20369,-0.13074l0.11698,-0.16927l-0.00551,-0.16927l-0.28075,-0.1789l-0.02477,-0.1624l-0.12661,-0.12111l0.00688,-0.14038l-0.31791,-0.05781l-0.07019,-0.22983l0.13075,-0.18304l-0.04542,-0.28626l0.1569,-0.40186l0.06331,-0.23946l0.3771,-0.19679l0.09634,-0.11284l-0.13349,-0.2835l-0.36057,-0.08119l-0.36195,-0.30552l-0.06881,-0.31929l-0.18442,-0.16102l0.01927,-0.13075l-0.10186,-0.11284l0.02065,-0.22295l0.11423,-0.08119l0.01927,-0.19542l0.10872,-0.06881l-0.12798,-0.29121l0.03028,-0.1679l0.10183,-0.12538l0.08946,-0.24001l0.01377,-0.16997l0.18579,-0.17464l-0.00276,-0.29272l-0.07019,-0.22666l0.01927,-0.25405l-0.02477,-0.27194l0.1445,-0.49833l-0.03853,-0.17905l-0.18442,-0.16514l0.11698,-0.46336l0.21745,-0.15152l-0.09634,-0.24855l0.03853,-0.14629l0.17203,-0.16653l0.10596,-0.01087l0.2491,-0.19887l0.27111,-0.13516l-0.11974,-0.13171l-0.00963,-0.13969l0.13899,-0.17561l0.08395,-0.34062l0.12798,-0.08546l0.01789,-0.22129l-0.08809,-0.09386l-0.01514,-0.3252l-0.04954,-0.15703l0.26837,-0.09799l0.06744,0.05753l0.23808,-0.10376l-0.00963,-0.48457l0.0578,-0.08051l-0.01927,-0.26767l0.02341,-0.38466l0.10183,-0.04417l0.09496,0.12689l0.1101,-0.01982l0.16927,-0.2623l0.06605,0.18578l0.24496,0.26631l0.1445,0.23739l0.15827,0.10197l0.37433,0.07941l0.21057,-0.17698l0.19543,0.04417l0.10183,0.10514l0.20643,-0.07267l0.13349,-0.11203l0.11284,0.05284l0.25185,0.24896l-0.09084,0.0717l0.05506,0.19695l0.24772,0.32617l0.34406,0.1518l0.3248,0.43503l0.21607,0.17217l0.13212,0.1646"></path></g></g></svg>