<svg version="1.1" xmlns="http://www.w3.org/2000/svg" xmlns:xlink="http://www.w3.org/1999/xlink" width="7.87488" height="8.23047" viewBox="0,0,7.87488,8.23047"><g transform="translate(-193.59389,-205.9966)"><g fill="#ff0000" stroke="#ffffff" stroke-width="0" stroke-linecap="round" stroke-linejoin="round" stroke-miterlimit="10"><path d="M201.26311,210.6824l-0.23911,0.09416l-0.07558,0.14495l0.02849,0.21682l-0.06195,0.2069l-0.12142,0.05204l-0.19699,-0.01735l-0.19576,0.10779l-0.09663,0.41753l0.15362,0.20567l-0.11893,0.11274l-0.15611,0.07062l-0.10158,0.16973l-0.02973,0.14497l0.19204,0.20442l0.00373,0.23912l-0.04213,0.09912l-0.26391,0.18337l-0.0446,0.21559l-0.25894,0.31594l0.02478,0.14248l-0.3531,0.12018h-0.10035l-0.23788,0.09788l-0.19081,-0.08301l-0.35931,0.06319l-0.17965,-0.03964l-0.05823,-0.08426l0.06195,-0.15362l-0.06195,-0.15611l0.05327,-0.10037l0.00247,-0.16107l0.11522,-0.04956l0.14371,-0.23664l-0.05327,-0.11522l0.05574,-0.20442l0.05823,-0.07806l-0.26017,-0.22797l-0.09663,-0.1623l-0.20319,-0.06938l-0.17097,0.03964l-0.13504,-0.08426l-0.12142,-0.00371l-0.02849,-0.19081l0.06319,-0.0161l0.09416,-0.19452l-0.0384,-0.11769l-0.17593,-0.15488l-0.18708,0.15362l-0.1462,0.01858l-0.20319,0.14371l-0.08921,-0.02478l-0.13381,0.1177l-0.14991,0.07682l-0.08549,-0.19948l-0.11647,-0.10283l-0.26884,0.04089l-0.07682,0.17345l-0.15362,0.07062l-0.41383,-0.18708l-0.18832,0.07186l-0.12639,-0.10284l0.04585,-0.23417l-0.03346,-0.19699l-0.15983,-0.03964l-0.09044,0.07186l-0.11274,-0.00867l-0.16602,0.18584l-0.12142,0.23541l-0.22674,-0.06071l-0.06814,0.12639l-0.18708,0.23541l-0.08053,-0.05575l-0.00496,-0.13381l-0.19575,-0.20938l-0.08053,-0.13256l0.52532,-0.19699l0.15239,-0.03966l0.29239,-0.22798l0.10283,-0.12142l0.10655,-0.03593l0.16353,-0.15859l0.08426,-0.03098l0.15982,-0.1685l0.04708,-0.15362l0.13753,-0.24656l0.06939,-0.22921l0.16107,-0.09787l0.08797,-0.12886l-0.0384,-0.31594l-0.08673,-0.09167l0.03099,-0.09663l-0.04089,-0.12762l0.04708,-0.20072l-0.01982,-0.2131l-0.04956,-0.0446l0.15611,-0.17841l-0.04584,-0.08921l0.17594,-0.03098l0.02602,-0.06938l-0.05204,-0.21929l-0.10283,-0.04831l0.13256,-0.44727l0.2639,0.057l0.18832,-0.04213l0.09912,-0.08426l0.01858,-0.18708l0.14371,-0.3655l0.04087,-0.24531l-0.02229,-0.17097l0.05204,-0.15486l-0.04213,-0.14992l0.19204,-0.18584l0.18088,-0.02106l0.09664,-0.12266l0.11399,0.10284l0.05823,0.1276l0.14495,0.06938l0.09663,-0.09168l0.20072,0.13505l0.28001,-0.0062l0.11275,0.11522l-0.05947,0.40762l0.02849,0.1524l0.3593,0.2069l0.10037,0.10408l0.02973,0.24035l-0.03593,0.08673l0.16106,0.09293l0.16107,-0.09044l0.11399,0.0508l0.01362,0.17594l-0.04214,0.12514l0.06319,0.19081l0.08176,0.04213l0.07433,0.20319l-0.08301,0.13009l0.06689,0.24531l0.07806,0.06195l0.08176,0.20815l0.18584,-0.07186l0.14744,0.057l0.12886,0.4448l-0.08053,0.05204l0.01487,0.16974l0.46832,0.18461l0.21559,-0.0446l0.10407,0.03469l0.23417,-0.08549l0.10655,-0.15735l0.09788,0.09416l0.20938,0.03718l0.29487,0.20319l0.04213,0.27752l-0.26514,0.23912l0.05947,0.16355" fill-rule="evenodd"></path><path d="M195.01871,206.3708l0.05204,0.17345l-0.16602,0.06939l0.11646,0.09788l0.01115,0.20815l-0.10779,0.04089l-0.19948,-0.057l-0.14867,0.10407l-0.05204,0.11769l-0.1276,-0.14248l-0.0384,-0.26142l0.21557,-0.21187l0.06815,-0.14l0.15362,0.00247l0.13133,-0.15115l0.14868,-0.10532l0.0062,-0.11895l0.07682,0.07558l-0.13753,0.15115l-0.00247,0.14744" fill-rule="evenodd"></path><path d="M195.42758,207.74605l-0.01735,0.12142l0.11522,0.19328l-0.03469,0.06442l-0.20566,0.02354l0.07929,-0.33328l-0.11151,-0.20938l0.17222,0.0161l0.08301,-0.06566l-0.01239,-0.11026l0.14495,-0.08176l0.04833,0.13381l-0.01858,0.17965l-0.24284,0.06814" fill-rule="evenodd"></path><path d="M193.69302,206.46991l0.13009,-0.0793l0.21062,-0.03469l-0.07558,0.23417l-0.14248,0.14744l-0.12266,-0.26761" fill-rule="evenodd"></path><path d="M195.21696,207.00266l-0.08921,-0.09788l0.03469,-0.14992l0.11769,-0.0954l0.13256,0.05575l0.00744,0.17964l-0.20319,0.10779" fill-rule="evenodd"></path><path d="M193.5939,207.25047l0.15115,0.01115l0.14495,-0.07186l-0.1747,0.16973l-0.11026,0.00867l-0.01115,-0.11769" fill-rule="evenodd"></path><path d="M195.44293,207.86916l0.11523,0.19329l-0.03469,0.06442l-0.20569,0.02354l0.0793,-0.33329l-0.09168,-0.10408l-0.01982,-0.10532l0.17223,0.01611l0.08303,-0.06566l-0.01239,-0.11028l0.14497,-0.08177l0.04833,0.13381l-0.05575,0.06319l0.03718,0.11646l-0.24285,0.06814l-0.01735,0.12143" fill-rule="nonzero"></path><path d="M193.91893,207.20007l-0.1747,0.16976l-0.11028,0.00867l-0.01114,-0.1177l0.15116,0.01115l0.14497,-0.07186" fill-rule="nonzero"></path><path d="M195.15795,206.90271l0.03469,-0.14992l0.1177,-0.0954l0.13257,0.05575l0.00744,0.17967l-0.2032,0.10779l-0.08921,-0.09789" fill-rule="nonzero"></path><path d="M194.92253,206.61774l0.11646,0.09788l0.01115,0.20816l-0.10779,0.04089l-0.19949,-0.057l-0.14869,0.10408l-0.05204,0.1177l-0.12762,-0.14249l-0.0384,-0.26143l0.21559,-0.21187l0.06815,-0.14001l0.15363,0.00247l0.13134,-0.15115l0.14869,-0.10532l0.0062,-0.11895l0.07682,0.07558l-0.13754,0.15116l-0.00247,0.14744l0.05204,0.17347l-0.16602,0.06939" fill-rule="nonzero"></path><path d="M193.85698,206.39472l0.21063,-0.0347l-0.07558,0.23418l-0.14249,0.14744l-0.12266,-0.26763l0.1301,-0.0793" fill-rule="nonzero"></path></g></g></svg>