<svg version="1.1" xmlns="http://www.w3.org/2000/svg" xmlns:xlink="http://www.w3.org/1999/xlink" width="10.66378" height="42.16233" viewBox="0,0,10.66378,42.16233"><g transform="translate(-307.90163,-298.7981)"><g fill="none" stroke="#ffffff" stroke-width="0.2" stroke-linecap="round" stroke-linejoin="round" stroke-miterlimit="10"><path d="M317.66928,310.98377l-0.15788,0.10125l0.04246,0.1176l0.1655,-0.03811l0.02286,0.07186l-0.05879,0.09799l0.02069,0.1263l0.11759,0.09908l-0.03375,0.13392l0.01633,0.0882l-0.11869,0.07077l-0.08492,-0.08384l-0.09582,-0.25588l0.04356,-0.04681l-0.04464,-0.15679l-0.15569,-0.17203l-0.02286,-0.12086l-0.05879,-0.08275l0.0294,-0.10343l0.11215,0.16876l0.20252,-0.10016l0.05879,0.08493" fill-rule="evenodd"></path><path d="M308.80646,334.19697l-0.10888,0.13501l-0.12194,0.00435l-0.331,0.21341l-0.04464,-0.0969l0.0294,-0.24934l-0.06423,-0.10235l0.1949,-0.10344l0.19816,-0.16767l0.06969,0.02286l0.12086,0.13283l0.0577,0.21123" fill-rule="evenodd"></path><path d="M318.37697,306.24748l-0.01851,0.04791l0.1067,0.10344l-0.01088,0.2526l-0.12411,0.20034l-0.13501,0.00109l-0.20905,-0.10016l0.06532,-0.1753l-0.08928,-0.11977l0.05989,-0.03375l0.14808,0.00763l0.00653,-0.13937l-0.08928,-0.11977l-0.08492,0.08275l-0.08493,-0.04791l-0.0098,-0.0882l0.1263,-0.06642l0.12086,0.00435l0.14481,0.06532l0.0773,0.12521" fill-rule="evenodd"></path><path d="M318.27901,305.72488l0.10997,0.10344l-0.00544,0.0871l-0.06642,0.09908l-0.14481,-0.00326l-0.01088,-0.08492l-0.19381,-0.16769l0.04137,-0.17638l0.03158,0.0773l0.11325,0.10997l0.12521,-0.04464" fill-rule="evenodd"></path><path d="M318.06123,305.45267l-0.17095,0.09908l0.04137,-0.1274l-0.01198,-0.11215l0.04681,-0.13065l-0.02723,-0.12848l0.04464,-0.03484l0.07186,0.06642l-0.00763,0.13937l0.0773,0.05009l-0.06423,0.17855" fill-rule="evenodd"></path><path d="M308.0443,326.53181l-0.04246,-0.11977l0.01632,-0.14808l0.11325,-0.08602l0.09908,0.14808l0.00108,0.12957l-0.12521,0.08274l-0.06207,-0.00653" fill-rule="evenodd"></path><path d="M310.0368,340.86041l-0.06423,-0.05335l0.01851,-0.15134l0.0773,-0.03811l0.0969,0.03921l-0.02395,0.17421l-0.10453,0.0294" fill-rule="evenodd"></path><path d="M317.35351,298.8981l0.18402,0.06315l0.00763,0.12411l-0.23518,-0.10125l0.04355,-0.08601" fill-rule="evenodd"></path><path d="M317.58217,312.67141l0.03049,-0.01307l0.0686,0.06315l-0.00218,0.12521l-0.05553,0.06967l-0.04137,-0.24498" fill-rule="evenodd"></path><path d="M310.03667,340.85634l-0.06425,-0.05335l0.01851,-0.15134l0.0773,-0.03811l0.09691,0.03921l-0.02396,0.17421l-0.10453,0.0294" fill-rule="nonzero"></path><path d="M308.80628,334.19263l-0.10888,0.13502l-0.12195,0.00435l-0.33101,0.21341l-0.04464,-0.09691l0.0294,-0.24935l-0.06425,-0.10235l0.1949,-0.10343l0.19818,-0.16769l0.06969,0.02286l0.12086,0.13284l0.0577,0.21123" fill-rule="nonzero"></path><path d="M308.0441,326.52719l-0.04247,-0.11977l0.01632,-0.14809l0.11325,-0.08602l0.09908,0.14809l0.00108,0.12957l-0.12521,0.08275l-0.06207,-0.00653" fill-rule="nonzero"></path><path d="M317.58235,312.66622l0.03049,-0.01307l0.0686,0.06315l-0.00218,0.12521l-0.05554,0.06969l-0.04137,-0.24499" fill-rule="nonzero"></path><path d="M317.66946,310.97852l-0.15788,0.10126l0.04246,0.1176l0.16551,-0.03811l0.02286,0.07186l-0.05879,0.098l0.02069,0.1263l0.1176,0.09908l-0.03377,0.13392l0.01633,0.0882l-0.11869,0.07079l-0.08493,-0.08384l-0.09582,-0.25588l0.04355,-0.04682l-0.04464,-0.1568l-0.1557,-0.17203l-0.02286,-0.12086l-0.05879,-0.08275l0.0294,-0.10344l0.11215,0.16876l0.20252,-0.10018l0.05879,0.08492" fill-rule="nonzero"></path><path d="M318.3772,306.24205l-0.01851,0.04791l0.10672,0.10343l-0.01088,0.2526l-0.12413,0.20034l-0.13502,0.00108l-0.20906,-0.10018l0.06533,-0.1753l-0.08928,-0.11976l0.05989,-0.03375l0.14809,0.00763l0.00653,-0.13938l-0.08928,-0.11976l-0.08492,0.08275l-0.08493,-0.04791l-0.0098,-0.0882l0.12631,-0.06642l0.12086,0.00435l0.14481,0.06533l0.0773,0.12521" fill-rule="nonzero"></path><path d="M318.27919,305.71941l0.10997,0.10343l-0.00544,0.08711l-0.06642,0.09908l-0.14481,-0.00328l-0.01089,-0.08493l-0.19381,-0.16769l0.04137,-0.17639l0.03157,0.0773l0.11325,0.10997l0.12521,-0.04464" fill-rule="nonzero"></path><path d="M318.06141,305.4472l-0.17095,0.09908l0.04137,-0.1274l-0.01198,-0.11215l0.04682,-0.13067l-0.02723,-0.12848l0.04464,-0.03484l0.07186,0.06642l-0.00763,0.13937l0.0773,0.05009l-0.06425,0.17858" fill-rule="nonzero"></path><path d="M317.4408,299.02303l-0.1274,-0.03484l0.04355,-0.08602l0.18402,0.06315l0.00763,0.12413l-0.09908,0.01742l-0.00872,-0.08384" fill-rule="nonzero"></path></g></g></svg>