<svg version="1.1" xmlns="http://www.w3.org/2000/svg" xmlns:xlink="http://www.w3.org/1999/xlink" width="13.56963" height="12.87768" viewBox="0,0,13.56963,12.87768"><g transform="translate(-329.07242,-38.41783)"><g fill="#ff0000" fill-rule="evenodd" stroke="#ffffff" stroke-width="0" stroke-linecap="round" stroke-linejoin="round" stroke-miterlimit="10"><path d="M342.62004,39.85711l-0.25874,-0.06152l-0.19405,0.06275l-0.06881,0.21594l-0.11698,0.10693l-0.21606,0.31515l-0.00551,0.11437l-0.16927,0.17217l0.05917,0.12745l-0.00826,0.29272l-0.0922,0.27498l-0.15827,0.18388l0.21057,0.10336l0.10597,0.39361l-0.11973,0.11628l0.03715,0.19088l-0.35232,0.18442l-0.02891,0.30056l0.13899,0.09028l0.02891,0.35396l0.10596,0.13899l0.31929,-0.06908l-0.01377,0.21676l-0.22434,0.30386l0.09909,0.12937l0.01927,0.18497l-0.41149,0.23175l0.04267,0.10803l-0.22983,0.16514l0.01651,0.24608l-0.12111,0.22418l-0.01927,0.15043l-0.18855,0.13378l0.06331,0.15483l-0.27937,0.39332l-0.00826,0.25473l-0.17203,0.06358l-0.12387,-0.18842l-0.15827,0.17024l0.02341,0.21111l-0.30415,0.18497l-0.10597,0.12331l0.02065,0.13404l-0.15552,0.2674l-0.04817,0.26396l-0.10734,0.05917l-0.18304,-0.10707l-0.27387,-0.03895l-0.17065,0.12564l-0.34268,0.38191l-0.04679,0.20355l0.24359,0.16804l-0.07157,0.19501l-0.11698,0.13528l-0.21469,-0.03799l-0.17203,0.14079l-0.18579,-0.04556l-0.00413,0.31764l-0.05506,0.05781l-0.21057,0.1218l-0.26149,-0.05161l-0.03578,-0.30758l-0.20506,-0.09606l-0.1624,0.09786l-0.20092,-0.07969l-0.2202,0.25915l-0.30415,-0.01982l-0.03715,-0.12908l-0.22157,-0.11561l-0.19405,0.04279l0.09084,0.28653l-0.18442,0.19392l-0.01788,0.11891l-0.35232,0.0428l-0.28762,0.17148l-0.36607,-0.0706l-0.14863,0.19776l-0.07982,0.30498l0.02065,0.1423l-0.18718,0.34241l-0.17617,-0.01762l-0.18442,0.12468l-0.0922,0.15442l-0.14175,0.06524l-0.09909,0.30923l-0.11973,0.05904l-0.44177,-0.29836l-0.06743,-0.14629l-0.27524,-0.25379l-0.11973,0.04309l-0.22983,-0.14905l-0.23533,0.109l-0.31103,-0.20382l-0.27386,0.19556l-0.22571,0.0007l-0.39498,-0.13405l-0.10597,-0.10115l-0.3592,0.15386l-0.14038,-0.07197l0.00551,-0.37957l-0.17478,-0.00937l-0.05506,-0.16486l-0.32341,-0.03138l-0.17615,-0.17244l-0.24634,0.06358l-0.16927,-0.06908l-0.08532,-0.08643l0.00276,-0.15552l0.15964,-0.1529l0.10459,-0.24402l0.24359,-0.16777l-0.04129,-0.21663l-0.10873,-0.06881l-0.01789,-0.13762l-0.26837,-0.16336l-0.02752,-0.17588l0.09084,-0.07198l0.0055,-0.17505l0.20093,-0.29849l0.1445,-0.01143l0.13626,0.0018l0.18992,0.12495l0.18718,-0.03799l0.23258,0.1039l0.37159,-0.25046l0.03715,-0.233l-0.09083,-0.20396l0.02065,-0.11066l0.26286,-0.15373l0.26697,-0.3186l0.24634,0.07694l0.15828,-0.19446l0.10734,0.105l0.14588,-0.02684l0.03441,-0.10927l0.15689,-0.04637l0.18442,-0.16294l-0.03439,-0.1163l0.19266,-0.04885l0.01652,-0.13268l0.30276,0.04954l0.47067,-0.07115l0.26837,-0.26257l0.26149,0.01748l0.08395,-0.05396l0.1445,0.1006l0.34818,-0.09303l0.1679,-0.22653l0.04542,-0.17134l0.23945,-0.08368l0.18167,-0.00963l0.1789,-0.10171l-0.09634,-0.24001l0.05918,-0.40489l0.18716,-0.1529l0.0523,-0.17671l-0.03853,-0.5037l0.08258,-0.32603l-0.04679,-0.13377l-0.17478,-0.05243l-0.01375,-0.27773l0.2133,-0.10734l-0.04954,-0.109l0.07018,-0.25997l0.25186,-0.12097l0.40049,0.03729l0.07844,0.12318l0.15414,-0.09069l-0.04817,-0.11738l0.17617,-0.25158l0.24496,-0.11284l0.22845,0.11023l0.21744,0.04762l-0.01238,-0.20466l0.06605,-0.20396l0.28213,-0.62316l0.02891,-0.51251l0.08395,-0.07307l-0.07294,-0.21359l0.0055,-0.29438l0.06881,-0.02766l0.15827,0.1163l-0.03165,0.24262l0.11423,0.08368l0.12524,-0.17203l0.15139,0.1913l0.33717,0.00523l0.35506,-0.19693l0.13349,-0.00701l0.4225,0.17781l0.43901,-0.00413l0.25737,0.1057l0.11697,0.14382l0.13212,-0.01115l0.24634,-0.33884l0.11698,-0.37599l-0.04542,-0.19941l-0.58627,-0.22295l-0.18716,0.05657l-0.71702,-0.34338l-1.13264,-0.40805l0.00137,-0.06345l0.17478,0.08698l0.68812,0.24456l1.01015,0.32466l0.97161,0.26576l1.1753,0.23575l0.34268,-0.05299l0.14726,0.02973l0.05506,0.10639l0.19405,0.08162l-0.02202,0.11684"></path></g></g></svg>