<svg version="1.1" xmlns="http://www.w3.org/2000/svg" xmlns:xlink="http://www.w3.org/1999/xlink" width="4.5855" height="8.3724" viewBox="0,0,4.5855,8.3724"><g transform="translate(-264.06216,-139.61741)"><g fill="#ff0000" fill-rule="evenodd" stroke="#ffffff" stroke-width="0" stroke-linecap="round" stroke-linejoin="round" stroke-miterlimit="10"><path d="M267.93011,139.61977l0.07475,0.15447l-0.10963,0.12208l-0.05232,0.30396l0.00124,0.50826l-0.05979,0.36002l-0.11834,0.25038l-0.03364,0.36126l-0.11585,0.15198l-0.06352,0.20055l-0.20679,0.2915l-0.12458,0.24416l-0.03862,0.19683l-0.147,0.29897l0.03238,0.20679l-0.04359,0.12583l0.02742,0.1856l0.15446,0.1495l0.38992,0.1632l0.147,-0.1196l0.17191,-0.03862l0.19059,0.01494l0.18187,-0.11336l0.21801,-0.04236l0.09592,-0.07972l0.14575,0.12083v0.25911l-0.06602,0.1009l-0.04609,0.21676l-0.12583,0.17439l-0.08846,0.36624l-0.08969,0.07475l-0.33634,0.68017l-0.11585,0.25787l0.00997,0.11087l-0.05854,0.19185l-0.11336,0.08097l-0.21054,0.26534l-0.02866,0.09094l-0.27406,0.10589l-0.0872,0.11087l-0.18062,0.05606l-0.20181,0.17067l-0.00374,0.09094l-0.12955,0.03987l-0.2342,0.27406l-0.27281,0.20181l-0.43475,0.09592l-0.25288,-0.03489l-0.15696,0.07225l-0.34507,0.25039l-0.17937,0.04859l-0.16693,-0.07225l-0.07101,0.02242l-0.19308,-0.06727l-0.13205,-0.15322l0.03737,-0.12831l0.11461,-0.13951l0.35752,-0.01371l0.05357,-0.08222l0.12332,0.02616l0.1196,-0.09841l0.13703,-0.23669l0.12083,-0.35627l-0.00623,-0.18064l-0.13578,-0.16693l0.08346,-0.20181l0.19433,-0.17689l0.0573,-0.13081l0.29773,-0.15945l0.17938,-0.24666l-0.0299,-0.19557l-0.28278,-0.33758l-0.15073,-0.09716l-0.25163,-0.01993l-0.15073,0.06977l-0.01743,0.15447l-0.13453,0.12208l-0.11087,0.32265l-0.32265,-0.24416l0.09218,-0.06602l-0.01869,-0.39614l-0.14575,-0.0872l0.21801,-0.26909l-0.04734,-0.11709l0.03612,-0.12707l-0.05979,-0.24168l0.1856,-0.23543l-0.10837,-0.07349l0.05856,-0.11461l0.21302,-0.1445l-0.01371,-0.05979l0.15198,-0.20554l-0.01619,-0.10713l0.23669,-0.19433l0.01619,-0.13951l0.13453,-0.147l0.01745,-0.2155l0.10215,-0.05107l0.04485,-0.15572l0.13578,-0.24291l0.31018,-0.16567l0.26783,-0.25413l0.04609,-0.11087l0.13953,-0.07972l0.03489,-0.1059l0.18312,-0.16443l0.1445,-0.07225l0.15073,-0.00499l0.10713,-0.12208l-0.00374,-0.12583l0.08595,-0.12083l-0.04859,-0.14575l0.14325,-0.21924l0.01993,-0.12456l0.13329,-0.10339l-0.00374,-0.13329l0.12208,0.01869l0.25787,-0.1582l0.11212,-0.00124l0.1495,0.00248M266.86128,143.98852l0.22423,-0.01495l-0.11461,-0.16817l0.0274,-0.11336l-0.1445,-0.16942l-0.06229,0.08346l0.06976,0.38244"></path></g></g></svg>