<svg version="1.1" xmlns="http://www.w3.org/2000/svg" xmlns:xlink="http://www.w3.org/1999/xlink" width="7.58779" height="14.24745" viewBox="0,0,7.58779,14.24745"><g transform="translate(-280.71994,-125.62157)"><g fill="#ff0000" fill-rule="evenodd" stroke="none" stroke-width="0.4" stroke-linecap="round" stroke-linejoin="round" stroke-miterlimit="10"><path d="M288.11083,128.28368l-0.04609,0.14326l-0.20928,0.147l0.08846,0.23918l-0.05357,0.24168l-0.07101,0.15447l0.16071,0.06853l0.07847,-0.03987l0.16444,0.11087l0.03862,0.10465l-0.11834,0.147l0.07723,0.15572l-0.07723,0.11585l-0.13579,-0.0299l-0.06602,0.06727l0.00746,0.26534l0.21054,0.21801l-0.24291,0.22423l0.00996,0.36625l-0.07599,0.08346l-0.26783,0.09094l-0.06104,0.3351l0.31392,0.11212l0.0573,0.06851l-0.00125,0.1607l-0.07225,0.05854l-0.2753,-0.0274l-0.15696,0.07723l0.07847,0.23794l-0.12083,0.02616l-0.09841,0.14575l-0.12831,-0.00623l-0.33136,0.30022l0.08097,0.14325l0.13951,0.48833l0.12208,0.07349l-0.08097,0.30022l-0.0872,0.17316l-0.01993,0.22299l-0.11335,0.05357l0.14077,0.21426l0.03986,0.12707l0.16071,0.06354l0.05979,0.21676l0.21177,0.16817l0.12955,0.02367l0.07599,0.10215l0.13827,0.04484l-0.0299,0.18064l0.07475,0.38991l-0.05979,0.16569l-0.12333,0.09841l-0.01495,0.15447l-0.16817,0.01619l-0.0573,0.15447l-0.13827,0.15572l-0.30022,0.13951l-0.09218,-0.08222l-0.1196,-0.22423l-0.28776,0.0872l-0.17813,0.10713l-0.10837,0.12583l-0.32139,0.18064l-0.08597,0.14326l-0.16195,0.03238l0.00499,0.15945l0.08969,0.07225l-0.19682,0.1632l0.06229,0.16942l-0.07475,0.30272l0.10339,0.02865l0.01245,0.23172l-0.09342,0.21054l-0.10713,0.02367l-0.04859,0.12707l0.08471,0.2753l-0.14077,0.22921l0.09218,0.19433l-0.18811,0.29399l0.00872,0.13329l-0.09841,0.14326l-0.15198,0.07349l-0.1009,0.15073l-0.11833,-0.14326l-0.21924,-0.17191l0.00872,-0.09841l-0.26409,-0.03489l-0.13329,-0.17439l-0.16071,0.01494l-0.17439,0.1009l-0.07101,-0.06851l-0.16443,0.00124l-0.11335,-0.12955l-0.11585,0.03364l-0.24168,-0.19807l-0.02241,-0.15945l-0.11212,-0.19931l-0.12208,0.11212l-0.09342,-0.10465l0.01371,-0.22299l0.13827,-0.21302l-0.00623,-0.17813l0.04485,-0.29524l-0.1009,-0.33385l0.17191,-0.23669l-0.06354,-0.15572l-0.23793,-0.08346l-0.10837,-0.08346l-0.12458,0.0299l-0.26035,-0.05481l-0.11087,0.02367l-0.15696,-0.06229l-0.11336,-0.17439l-0.21801,-0.07101l-0.18062,0.06478l-0.04859,-0.07349l-0.48458,-0.29399l-0.10963,-0.12208l-0.02492,-0.15198l0.14575,-0.20679l0.08097,-0.31517l0.07599,-0.06976l0.3239,-0.66646l-0.00997,-0.07101l0.1856,-0.37746l0.13578,-0.14325l0.07475,-0.14326l0.1009,0.04484l0.31641,-0.31392l0.02367,-0.11834l0.10463,-0.11212l0.12831,0.01869l0.21924,-0.21676l-0.02616,-0.04859l0.13703,-0.25538l0.32139,-0.28901l0.16071,-0.10963l0.1856,-0.38492l0.20055,-0.52944l0.19309,-0.61663l0.13329,-0.50452l0.08346,-0.42853l0.09342,-0.22048l0.1445,-0.24042l-0.13081,-0.04112l0.08846,-0.22921l0.08471,0.02118l0.12208,-0.26909l0.3052,-0.99159l0.07972,-0.57428l0.07349,-0.14077l-0.02118,-0.13827l-0.1009,-0.20804l0.45344,-0.00872l0.49455,0.09592l0.0299,-0.06976l0.57679,0.1881l0.03986,-0.16569l0.12707,-0.11585l0.67642,-0.16569l-0.00747,0.32015l0.06977,0.21801l-0.05729,0.11087l0.13703,0.09716l0.36376,0.05979l0.15198,0.08597l0.02492,0.15322l0.16071,0.08346l0.17565,0.0274l0.08597,0.19433l-0.19683,0.10339"></path><path d="M281.01021,125.77979l-0.1333,0.08471l-0.1495,0.17938l-0.00747,-0.2043l0.10837,-0.12707l0.00248,-0.09094l0.17937,0.1582"></path></g></g></svg>