<svg version="1.1" xmlns="http://www.w3.org/2000/svg" xmlns:xlink="http://www.w3.org/1999/xlink" width="5.46719" height="5.42171" viewBox="0,0,5.46719,5.42171"><g transform="translate(-198.79879,-170.66004)"><g fill="#ff0000" stroke="#ffffff" stroke-width="0" stroke-linecap="round" stroke-linejoin="round" stroke-miterlimit="10"><path d="M203.38174,171.04783l0.15859,0.22548l0.13133,0.07186l0.20319,0.20815l0.28496,0.21929l0.07558,0.13753l-0.15486,0.25399l0.06195,0.31346l-0.07062,0.1239l-0.02354,0.24408l-0.19081,0.06071l-0.12018,-0.19328l-0.1239,0.19204l-0.26637,-0.02354l0.01858,0.07682l0.25647,0.03221l0.0446,0.42373l-0.17222,0.03469l-0.3085,-0.14248l-0.14744,0.03469l-0.14744,-0.10779l0.0161,0.1809l-0.53274,0.01114l0.0446,-0.22053l0.07806,-0.10532l-0.25771,0.02602l-0.19204,-0.14867l-0.01238,-0.18088l-0.27505,-0.07309l-0.02229,-0.14l0.08796,-0.10654l0.02354,-0.22674l-0.18461,-0.06566l-0.01362,-0.0954l0.12143,-0.17841l0.01858,-0.22054l0.10407,-0.24409l0.17717,-0.04833l-0.0062,-0.15239l0.18088,-0.03964l0.08797,-0.09044l0.02229,-0.14497l0.17222,-0.08673l0.11026,0.10779l0.08673,-0.00743l0.20566,-0.19452l-0.01238,-0.12886l0.22301,0.31841l0.23911,0.06939" fill-rule="evenodd"></path><path d="M200.59406,173.95939l-0.1239,0.20567l-0.19451,0.09416l-0.28372,0.05823l-0.03469,0.07309l0.06689,0.16973l0.06442,-0.01487l0.08549,0.19824l-0.08177,0.06566l0.00867,0.19699l-0.16602,0.05575l-0.19328,-0.02355l-0.13133,-0.1747l-0.07558,-0.23169l-0.17345,-0.02725l-0.02602,0.10779l-0.15611,0.02725l0.20938,0.40887l-0.09293,0.11769l-0.14124,-0.05452l-0.01858,-0.07309l-0.23911,-0.0508l-0.09788,-0.06442l0.05575,-0.12142l-0.03964,-0.10655l0.15982,-0.18832l0.14991,-0.24531l0.17097,-0.12639l0.25152,0.06566l0.0793,-0.05452l-0.00373,-0.31098l0.22548,-0.02725l0.30479,0.12018l0.17222,-0.19948l0.11151,0.00124l0.15735,0.12886" fill-rule="evenodd"></path><path d="M201.12683,174.47977l-0.09912,0.04089l0.01487,0.11275l0.11895,0.0954l-0.07186,0.16726l-0.19576,-0.08797l0.00247,0.19699l-0.09663,0.02478l-0.13753,0.23541l-0.11275,0.04708l-0.12266,0.14124l-0.12018,-0.07558l0.05204,-0.14868l-0.02602,-0.11522l0.10655,-0.2069l-0.18088,-0.39027l0.21557,-0.08177l0.1524,-0.20938l0.22921,-0.04584l0.20815,0.1747l0.06319,0.12514" fill-rule="evenodd"></path><path d="M200.02415,175.73112l0.21682,0.13009l0.04584,0.22054l-0.29363,-0.18957l-0.27257,0.03469l-0.13381,0.06319l-0.02106,-0.26017l-0.08177,-0.12514l0.03469,-0.08921l0.39027,0.06566l0.11522,0.14992" fill-rule="evenodd"></path><path d="M200.05206,175.72905l0.21683,0.1301l0.04584,0.22054l-0.29364,-0.18957l-0.27258,0.03469l-0.13381,0.06319l-0.02106,-0.26019l-0.08177,-0.12514l0.03469,-0.08921l0.39028,0.06566l0.11523,0.14992" fill-rule="nonzero"></path><path d="M201.15479,174.47764l-0.09912,0.04089l0.01487,0.11275l-0.10655,0.14001l0.2255,-0.0446l-0.07186,0.16727l-0.19576,-0.08797l0.00247,0.19699l-0.09664,0.02478l-0.13753,0.23541l-0.11276,0.04708l-0.12266,0.14125l-0.12019,-0.07558l0.05205,-0.14869l-0.02602,-0.11523l0.10655,-0.20692l-0.1809,-0.39028l0.21559,-0.08178l0.1524,-0.20939l0.22922,-0.04584l0.20815,0.17471l0.06319,0.12514" fill-rule="nonzero"></path><path d="M200.49811,174.16788l-0.19453,0.09417l-0.28372,0.05824l-0.0347,0.0731l0.06691,0.16976l0.06442,-0.01487l0.0855,0.19825l-0.08177,0.06566l0.00867,0.19699l-0.16603,0.05577l-0.19329,-0.02354l-0.13134,-0.1747l-0.07558,-0.23169l-0.17347,-0.02725l-0.02602,0.10779l-0.15612,0.02725l0.20939,0.40889l-0.09293,0.1177l-0.14125,-0.05452l-0.01859,-0.0731l-0.23912,-0.0508l-0.09789,-0.06443l0.05577,-0.12143l-0.03966,-0.10655l0.15983,-0.18834l0.14992,-0.24532l0.17097,-0.12639l0.25153,0.06566l0.0793,-0.05452l-0.00373,-0.311l0.2255,-0.02725l0.3048,0.12019l0.17223,-0.19949l0.11152,0.00124l0.15736,0.12886l-0.1239,0.20567" fill-rule="nonzero"></path><path d="M203.57088,171.28097l0.13134,0.07186l0.2032,0.20816l0.28498,0.2193l0.07558,0.13753l-0.15489,0.254l0.06196,0.31347l-0.07062,0.1239l-0.02354,0.24409l-0.19082,0.06071l-0.12019,-0.19329l-0.1239,0.19205l-0.26638,-0.02354l0.01858,0.07682l0.25647,0.03221l0.0446,0.42374l-0.17222,0.0347l-0.30851,-0.14249l-0.14744,0.03469l-0.14744,-0.10779l0.01612,0.1809l-0.53278,0.01114l0.0446,-0.22054l0.07806,-0.10532l-0.25771,0.02602l-0.19204,-0.14869l-0.01239,-0.18088l-0.27506,-0.07312l-0.02231,-0.14l0.08797,-0.10655l0.02354,-0.22674l-0.18461,-0.06566l-0.01362,-0.0954l0.12143,-0.17841l0.01859,-0.22054l0.10408,-0.24409l0.17718,-0.04833l-0.0062,-0.1524l0.1809,-0.03964l0.08797,-0.09044l0.02231,-0.14497l0.17223,-0.08673l0.11028,0.10779l0.08673,-0.00744l0.20569,-0.19452l-0.01239,-0.12886l0.22301,0.31843l0.23912,0.06938l0.1586,0.2255" fill-rule="nonzero"></path></g></g></svg>