<svg version="1.1" xmlns="http://www.w3.org/2000/svg" xmlns:xlink="http://www.w3.org/1999/xlink" width="3.3495" height="3.76304" viewBox="0,0,3.3495,3.76304"><g transform="translate(-158.26931,-237.28633)"><g fill="#ff0000" stroke="#ffffff" stroke-width="0" stroke-linecap="round" stroke-linejoin="round" stroke-miterlimit="10"><path d="M159.96636,238.74105l-0.04317,0.07993l0.04058,0.13281l-0.08877,0.14265l0.00147,0.09837l-0.13932,0.10576l0.02311,0.10944l-0.13859,0.33693l-0.13058,0.03689l-0.01586,-0.09837l-0.10501,-0.00369l-0.10698,0.16356l0.04291,0.23858l-0.21533,0.26438l0.01636,0.15002l0.13527,0.08731l-0.1418,0.09469l-0.0728,0.1156l-0.12089,0.07747l-0.11435,-0.02705l-0.05718,0.20044l-0.14301,-0.00246l-0.00356,-0.09469l-0.22725,-0.16601l-0.09112,-0.27422l0.288,-0.03812l0.02077,-0.25825l0.11657,-0.17217l-0.03185,-0.13895l0.13588,-0.06271l-0.01157,-0.09347l0.0594,-0.14019l0.18433,-0.08239l0.23242,-0.0578l0.1178,-0.07993l0.17437,0.00246l0.1296,-0.03812l0.07255,-0.2029l0.11472,-0.20905l-0.08927,-0.07379l0.03922,-0.24964l0.1429,0.12666" fill-rule="evenodd"></path><path d="M161.00913,237.65891l0.18457,0.07255l0.02324,0.07255l0.15101,0.06271l0.09555,-0.09468l-0.11326,-0.09346l0.00688,-0.1365l0.17192,0.05533l0.08977,0.15987l-0.10759,0.04058l-0.02103,0.12052l0.1055,0.01106l0.00923,0.20537l-0.13515,0.10821l-0.13932,-0.07501l-0.10477,0.12052l-0.3094,0.06394l-0.00578,-0.15863l-0.10576,0.01353l-0.053,-0.09715l0.02176,-0.14142l-0.18027,0.04673l0.06186,-0.28037l-0.12666,-0.11436l-0.10378,0.091l-0.02853,0.21766l-0.12446,-0.14019l-0.05448,-0.1943l0.13146,-0.091l0.08682,-0.19797l0.21114,-0.01967l0.26512,0.21643l0.0974,0.15618" fill-rule="evenodd"></path><path d="M160.45085,238.40903l-0.00554,0.11436l-0.11707,0.17585l0.04365,0.14264l-0.16687,-0.0701l-0.03112,-0.24841l0.06247,-0.05902l0.02337,-0.15987l0.23426,-0.09223l0.04106,0.06395l-0.08423,0.13281" fill-rule="evenodd"></path><path d="M159.87535,239.19732l-0.13932,0.10577l0.02312,0.10945l-0.1386,0.33696l-0.1306,0.0369l-0.01586,-0.09838l-0.10501,-0.00369l-0.10699,0.16356l0.04292,0.23858l-0.21534,0.2644l0.01636,0.15003l0.13528,0.08731l-0.1418,0.09469l-0.0728,0.1156l-0.12089,0.07747l-0.11437,-0.02705l-0.05717,0.20045l-0.14303,-0.00246l-0.00356,-0.09469l-0.22726,-0.16601l-0.09112,-0.27422l0.288,-0.03812l0.02078,-0.25826l0.11659,-0.17217l-0.03185,-0.13896l0.13588,-0.06272l-0.01156,-0.09346l0.05941,-0.14019l0.18433,-0.08239l0.23242,-0.0578l0.11781,-0.07993l0.17437,0.00246l0.12961,-0.03812l0.07255,-0.20292l0.11472,-0.20906l-0.08927,-0.07379l0.03923,-0.24964l0.1429,0.12666l-0.04317,0.07993l0.04058,0.13281l-0.08879,0.14266l0.00147,0.09838" fill-rule="nonzero"></path><path d="M160.37095,238.84069l-0.16688,-0.0701l-0.03112,-0.24841l0.06247,-0.05903l0.02337,-0.15987l0.23426,-0.09223l0.04106,0.06395l-0.08424,0.13281l-0.00554,0.11437l-0.11707,0.17585l0.04365,0.14265" fill-rule="nonzero"></path><path d="M161.19366,237.73393l0.02325,0.07255l0.15101,0.06271l0.09555,-0.09469l-0.11326,-0.09346l0.00688,-0.13651l0.17192,0.05534l0.08977,0.15987l-0.1076,0.04058l-0.02103,0.12053l0.10551,0.01106l0.00923,0.20537l-0.13515,0.10822l-0.13932,-0.07501l-0.10478,0.12052l-0.3094,0.06395l-0.00578,-0.15864l-0.10577,0.01353l-0.05301,-0.09715l0.02177,-0.14142l-0.18028,0.04674l0.01341,-0.14511l-0.06862,-0.09346l0.11707,-0.04181l-0.12666,-0.11437l-0.10381,0.091l-0.02853,0.21767l-0.12445,-0.1402l-0.05449,-0.19431l0.13146,-0.091l0.08682,-0.19799l0.21115,-0.01967l0.13207,0.08239l0.13306,0.13404l0.0974,0.15618l0.18457,0.07255" fill-rule="nonzero"></path></g></g></svg>