<svg version="1.1" xmlns="http://www.w3.org/2000/svg" xmlns:xlink="http://www.w3.org/1999/xlink" width="9.01477" height="6.42275" viewBox="0,0,9.01477,6.42275"><g transform="translate(-229.81634,-179.60299)"><g fill="#ff0000" fill-rule="evenodd" stroke="#ffffff" stroke-width="0" stroke-linecap="round" stroke-linejoin="round" stroke-miterlimit="10"><path d="M238.49409,180.73655l-0.19576,0.32585l0.16479,0.11151l0.04585,0.21682l0.10283,0.20319l0.00124,0.14744l0.08673,0.10158l0.13134,0.35931l-0.1363,0.18832l0.04708,0.17593l-0.39151,-0.06938l-0.21187,-0.00744l-0.11151,0.04214l-0.03098,0.21434l-0.05823,0.05947l0.04956,0.15611l-0.06938,0.22425l-0.25522,-0.15362l-0.07682,0.1524l-0.09663,0.06442l-0.10532,-0.08549l-0.15362,-0.03966l-0.24779,0.08301l0.0062,0.08549l-0.15859,0.16974l-0.05327,0.22301l-0.06195,0.08797l-0.2131,-0.01238l-0.10532,0.09044l-0.10408,-0.20319l-0.12389,-0.01982l-0.1338,-0.14992l-0.05947,-0.14124l-0.09168,-0.00124l-0.01982,0.14371l-0.1016,0.29239l-0.09293,0.09293l-0.00744,0.14744l-0.07062,0.08426l-0.00496,0.22054l-0.0384,0.11274l0.02106,0.25152l-0.14248,0.04089l-0.12018,0.1462l-0.02973,0.25275l-0.32338,0.13381l-0.12637,-0.09663l0.01362,-0.13256l-0.21062,-0.07186l-0.31223,0.01858l-0.02973,0.05327l-0.04089,0.36673l-0.20567,-0.01982l0.01362,0.08426l-0.15982,0.11522l-0.01735,0.11522l-0.11026,0.15115l-0.1685,0.02354l-0.13753,-0.06814l-0.09541,0.11895l-0.21682,-0.06319l-0.22178,0.17593l-0.29612,-0.09293l-0.11026,-0.11026l-0.08549,0.01115l-0.23417,-0.15735l-0.07186,0.04584l-0.1623,-0.09416l-0.20318,-0.02478l-0.23541,0.04956l-0.10532,-0.10035l-0.55877,-0.03964l-0.08673,-0.04213l0.0508,-0.19081l-0.07929,-0.15611l0.05947,-0.08177l-0.03717,-0.15239l-0.20938,-0.09044l-0.05452,0.05327l-0.12762,-0.08426l0.06319,-0.09293l-0.11769,-0.09168l-0.06071,-0.15239l-0.19576,-0.08921l-0.14744,-0.21929l0.0508,-0.15115l0.17097,-0.16479l-0.11895,-0.3023l-0.20815,-0.17222v-0.09788l0.13134,-0.32337l0.32338,-0.14371l-0.09912,0.10408l-0.00867,0.13628l0.05327,0.18584l0.25275,0.0793l-0.03964,-0.34691l0.23417,-0.03221l-0.05204,0.21186l0.03221,0.1462l-0.11646,0.31098l0.14497,0.18088l0.21186,0.07558l0.1239,-0.08549l0.1239,0.05947l0.23291,-0.04336l0.21063,-0.13753l0.14124,-0.19328l0.21434,-0.09664l-0.01115,-0.07681l0.16602,-0.16726l0.29487,-0.11274l0.10407,0.05327l0.0446,0.24655l-0.17593,-0.08673l-0.24655,0.18337l0.0892,0.18213l-0.06938,0.0446l-0.09787,0.18461l-0.15363,-0.00867l-0.22425,0.06195l0.07186,0.07433l0.20938,-0.0384l0.34072,0.11647l0.07558,-0.03221l0.07433,-0.17717l0.18834,0.06815l0.20071,-0.00124l0.10532,-0.07682l0.17345,0.14495l0.07186,-0.12018l0.21682,-0.0508l0.16355,-0.35062l0.0161,-0.22178l0.14124,0.01487l-0.00124,-0.09912l-0.32461,0.03469l-0.06195,0.14991l-0.17346,0.08797l-0.01611,-0.32089l-0.17222,-0.05452l-0.10408,0.02478l-0.05452,-0.09168l0.16726,-0.14248l0.14248,-0.1809l0.25647,-0.02106l0.11522,0.10779l0.11026,0.27877l0.05947,0.05204l0.25894,-0.11769l0.10902,0.28744l0.0954,0.08053l0.12018,-0.09044l0.34443,-0.05823l-0.11274,-0.25399l-0.15983,-0.09788l-0.10532,-0.14248l0.22301,-0.08176l0.083,0.14744l0.1462,0.01362l0.10779,-0.21929l0.11151,-0.06442l-0.04831,-0.32461l-0.13009,-0.06815l-0.10902,0.04213l-0.09044,-0.07309l0.14991,-0.16355l-0.19699,-0.1276l0.057,-0.15488l0.22796,0.0508l-0.03098,0.13504l0.14744,0.02973l0.04708,0.20815l0.13505,0.04213l0.1846,-0.1462l0.0793,0.08921l0.09167,-0.18213l0.11151,-0.0062l-0.00371,0.12266l0.07309,0.10655l0.15239,-0.01239l0.17345,-0.08426l0.06442,-0.1239l0.11895,-0.08053l0.09541,0.1016l0.14867,-0.03469l0.13134,-0.17965l0.00867,-0.10283l-0.23292,-0.25152l0.01859,-0.22178l0.11522,-0.18955l-0.02725,-0.17717l-0.19452,-0.05327l-0.00371,-0.22674l-0.06195,-0.05327l0.17346,-0.22797l0.15735,0.02973l0.16974,-0.23665l0.07929,-0.01858l0.23292,-0.21062l0.1276,0.15982l-0.02725,0.24161l0.10284,0.11769l-0.00743,0.13134l0.07433,0.23044l-0.00991,0.11151l-0.1177,0.10655l-0.06195,0.19204l0.20195,0.1462l0.06815,0.18957l0.29116,-0.05575l0.03098,-0.26514l0.14744,-0.11026l-0.05947,-0.05823l-0.03593,-0.22054l0.17222,-0.11399l-0.01735,-0.08921l0.09416,-0.14371l-0.04956,-0.24161l0.06566,-0.06938l0.0161,-0.1747l-0.03593,-0.10902l0.17964,-0.00247l0.07062,0.2069l0.1747,0.22177l-0.00744,0.22425l0.20815,0.18337l0.01859,0.19699v0.10037M235.12286,182.49712l0.14,-0.01362l0.04089,-0.10408l0.00744,-0.02849l-0.15239,-0.2515l-0.09168,0.21062l0.05575,0.17841l-0.13133,0.08549l0.05452,0.12018l0.14248,0.06442l0.22921,-0.10655l-0.15488,-0.13009l-0.14,-0.02478"></path></g></g></svg>