<svg version="1.1" xmlns="http://www.w3.org/2000/svg" xmlns:xlink="http://www.w3.org/1999/xlink" width="11.11719" height="19.84468" viewBox="0,0,11.11719,19.84468"><g transform="translate(-78.25372,-324.491)"><g stroke-miterlimit="10"><g><g fill="#ff0000" fill-rule="evenodd" stroke="#ffffff" stroke-width="0" stroke-linecap="round" stroke-linejoin="round"><path d="M89.34036,340.48258l-0.01464,0.15276l0.04519,0.09216l-0.07689,0.22598l-0.16311,0.16413l-0.11793,0.05176l-0.09696,0.12499l-0.01616,0.11867l0.06957,0.09847l-0.16627,0.22472l-0.14847,0.08838l-0.02954,0.24871l-0.26727,0.18431l-0.1169,0.20074l0.00682,0.16159l0.075,0.06313l-0.09481,0.22345l0.10226,0.24871l-0.06325,0.19064l-0.04205,0.54287l-0.17283,0.19948l-0.19051,-0.06059l-0.07398,-0.0808l-0.15516,0.00757l-0.02488,0.16034l-0.10693,0.1111l-0.14139,0.06439l-0.14392,0.00883l-0.25628,-0.18558l-0.06717,-0.08584l-0.23419,-0.09342l-0.17852,-0.15149l0.0611,-0.09974l0.13521,-0.04924l0.12892,-0.10479l0.04873,-0.09594l-0.01704,-0.11742l0.04229,-0.17928l-0.11212,-0.02399l-0.01943,-0.08459l-0.15301,-0.17928l-0.07536,0.04167l-0.1467,-0.02652l-0.19178,0.14139l-0.22524,-0.07702l0.02904,-0.13381l0.10542,-0.14898l0.17775,-0.06817l0.20149,0.13761l0.09885,-0.02652l-0.02222,-0.2285l0.09809,-0.05302l-0.01502,-0.11236l0.1308,-0.01892l0.13345,0.16919l-0.12372,0.22093l0.06753,0.07196l0.1621,-0.16538l0.33001,0.07954l0.17624,-0.12372l0.16337,-0.00378l0.2179,0.03535l0.04014,-0.05302l-0.06629,-0.13004l0.04482,-0.18685l0.06338,-0.11489l-0.00127,-0.10479l0.12094,-0.01262l0.2477,-0.29038l0.113,0.07323l0.09533,0.13508l0.06236,-0.2222l0.17574,-0.38254l-0.14228,-0.14643l0.18887,-0.15528l0.05417,-0.14771l0.1231,-0.19442l0.00732,-0.22094l0.05442,-0.02147l0.06993,0.06187l0.20314,0.03661"></path><path d="M78.6143,324.65104l-0.12435,-0.01137l-0.1828,0.09469l-0.05037,-0.13129l0.20578,-0.10984l0.13093,0.03282l0.02082,0.12499"></path><path d="M87.02118,344.32053l-0.1621,0.01515l-0.01174,-0.06817l0.20048,-0.0101l-0.02663,0.06313"></path></g><g fill="#ff0000" fill-rule="evenodd" stroke="#ffffff" stroke-width="0" stroke-linecap="round" stroke-linejoin="round"><path d=""></path><path d=""></path></g><g fill="none" fill-rule="nonzero" stroke="none" stroke-width="1" stroke-linecap="butt" stroke-linejoin="miter" font-family="sans-serif" font-weight="normal" font-size="12" text-anchor="start"></g><g fill="none" fill-rule="nonzero" stroke="none" stroke-width="1" stroke-linecap="butt" stroke-linejoin="miter" font-family="sans-serif" font-weight="normal" font-size="12" text-anchor="start"></g><g fill="none" fill-rule="nonzero" stroke="none" stroke-width="1" stroke-linecap="butt" stroke-linejoin="miter" font-family="sans-serif" font-weight="normal" font-size="12" text-anchor="start"></g><g fill="none" fill-rule="nonzero" stroke="none" stroke-width="1" stroke-linecap="butt" stroke-linejoin="miter" font-family="sans-serif" font-weight="normal" font-size="12" text-anchor="start"></g><g fill="none" fill-rule="nonzero" stroke="none" stroke-width="1" stroke-linecap="butt" stroke-linejoin="miter" font-family="sans-serif" font-weight="normal" font-size="12" text-anchor="start"></g><g fill="none" fill-rule="nonzero" stroke="none" stroke-width="1" stroke-linecap="butt" stroke-linejoin="miter" font-family="sans-serif" font-weight="normal" font-size="12" text-anchor="start"></g></g><path d="M78.4869,324.63747l-0.18281,0.09468l-0.05037,-0.13131l0.20579,-0.10984l0.13093,0.03283l0.02082,0.12499l-0.12435,-0.01137" fill="#ff0000" fill-rule="nonzero" stroke="#ffffff" stroke-width="0" stroke-linecap="round" stroke-linejoin="round"></path></g></g></svg>