<svg version="1.1" xmlns="http://www.w3.org/2000/svg" xmlns:xlink="http://www.w3.org/1999/xlink" width="6.46463" height="10.32463" viewBox="0,0,6.46463,10.32463"><g transform="translate(-174.84324,-223.4105)"><g fill="#ff0000" fill-rule="evenodd" stroke="#ffffff" stroke-width="0" stroke-linecap="round" stroke-linejoin="round" stroke-miterlimit="10"><path d="M181.01028,224.31663l-0.20782,0.00246l-0.11805,0.20414l0.07993,0.05042l0.01844,0.12789l-0.10576,0.14634l0.03812,0.11191l-0.01722,0.18323l-0.091,0.19061l-0.11806,0.04181l-0.15495,0.14265l-0.08117,0.20537l0.01353,0.08854l-0.16847,0.14634l0.07625,0.10084l-0.06764,0.31236l0.16847,0.10206l0.04181,0.18938l-0.03444,0.04304l-0.01352,0.33816l-0.09837,0.27176l-0.09346,0.05165l-0.02706,0.13404l0.14634,-0.03812l0.17585,0.0209l0.19922,-0.13895l0.15618,0.02828l0.23857,0.11436l0.19922,0.2152l0.14265,0.31972l-0.11314,0.21766l0.02951,0.21274l-0.16847,0.06025l-0.03812,0.27793l0.03566,0.12051l-0.09346,0.06518l-0.30373,0.03566l-0.05287,0.13281l0.09469,0.21889l0.00492,0.17462l-0.14511,0.21274l-0.24103,0.03689l-0.06763,0.09346l-0.1365,-0.00122l-0.09592,0.05411l-0.26684,-0.00738l-0.10821,0.27301l-0.23365,0.23486l-0.24839,-0.15987l-0.08977,-0.01106l-0.07993,0.11436l-0.05533,0.30744l0.02214,0.11805l-0.23119,0.10945l-0.15987,0.00246l-0.09223,0.09592l-0.19553,0.09223l-0.28651,-0.10453l-0.16971,-0.18692l-0.17462,0.00615l-0.13896,0.06764l-0.15126,-0.08854l-0.08731,-0.10084l-0.17462,-0.05657l-0.08363,0.16847l-0.08362,0.06518l-0.01844,0.19061l0.19799,0.04427l0.15002,0.16109l-0.01352,0.05288l0.28037,0.28899l-0.0455,0.20905l0.19676,0.28283l0.03566,0.15126l0.15863,0.2398l0.16847,0.03443l0.12297,-0.0332l0.00492,0.13404l-0.11682,0.04427l0.17708,0.27176l-0.1697,0.03689l-0.02337,0.08854l-0.13281,0.11068l-0.12174,-0.04795l-0.08362,0.04427l-0.16233,-0.07501l-0.12052,0.06026l-0.06148,0.24964l-0.16724,-0.01598l-0.09961,0.15617l0.05164,0.12052l-0.17954,0.06026l-0.1033,-0.02214l-0.13035,-0.13035l-0.31357,0.02459l-0.05533,-0.14634l-0.1033,0.03197l-0.15249,-0.22627l-0.09346,-0.18815l0.03566,-0.27422l-0.04673,-0.13895l-0.19922,-0.06763l-0.13035,-0.26071l-0.03444,-0.15371l-0.17093,-0.16356l-0.17585,-0.03197l0.02214,-0.21643l0.11928,-0.0578l-0.0541,-0.23732l0.11068,-0.05042l0.14388,0.09346l0.24595,-0.19799l0.19059,-0.44269l0.01476,-0.13035l-0.14388,-0.25333l-0.2152,-0.06271l-0.04919,-0.1574l0.07255,-0.12174l-0.07009,-0.12543l-0.07625,-0.3603l-0.29758,-0.00738l-0.13404,-0.18323l-0.20168,-0.3935l-0.02705,-0.21889l0.02582,-0.15372l-0.11559,-0.2447l0.02951,-0.36891l0.18815,-0.07132l0.00246,-0.16478l-0.08485,-0.21643l0.07255,-0.10085l0.18569,-0.01598l-0.01598,-0.15003l0.06886,-0.25702l0.10945,-0.0787l0.27422,0.04182l0.16478,0.08116l0.14141,0.0123l0.10822,-0.05287l0.13895,-0.2447l-0.04427,-0.32341l0.04919,-0.11928l-0.04549,-0.19799l0.09223,-0.02828l0.04303,-0.14019l0.15987,-0.15249l0.03689,-0.16356l0.10085,-0.06148l0.14388,0.12297l0.14388,-0.00246l0.00368,-0.3148l0.06518,-0.09837l-0.01353,-0.14141l0.13158,-0.17831l0.19799,-0.11928l0.07132,0.0209l0.24103,-0.22381l0.0332,-0.13773l0.15126,-0.23365l-0.11436,-0.11191l0.00246,-0.10821l0.09837,-0.03074l0.01476,-0.182l0.10698,-0.08238l0.03074,-0.19676l0.09347,-0.12298l0.25454,-0.07132l0.06763,0.05165l0.12174,-0.02582l0.26315,0.01353l0.08116,-0.06394l0.13281,-0.00615l0.08363,0.07993l0.04303,0.16233l-0.02459,0.091l0.18815,0.10698l0.17708,-0.08854l0.2693,-0.05903l0.25825,0.02214l0.1242,-0.09346l0.07009,-0.15002l0.21151,-0.00615l0.27301,-0.10453l0.20905,0.29758l0.29635,0.22012l-0.08238,0.15618l-0.02828,0.23242"></path></g></g></svg>