<svg version="1.1" xmlns="http://www.w3.org/2000/svg" xmlns:xlink="http://www.w3.org/1999/xlink" width="3.09027" height="4.24622" viewBox="0,0,3.09027,4.24622"><g transform="translate(-164.03173,-222.74877)"><g fill="#ff0000" fill-rule="evenodd" stroke="#ffffff" stroke-width="0" stroke-linecap="round" stroke-linejoin="round" stroke-miterlimit="10"><path d="M164.23711,223.99691l-0.1033,-0.17337l0.12052,-0.02337l0.13404,-0.23486l0.0246,-0.22258l-0.12544,-0.06641l0.31972,-0.36153l0.12173,0.18077l0.1365,0.14019l0.18077,-0.11191l0.182,-0.06764l0.13035,-0.1574l0.10453,-0.06518l0.21275,0.05902l0.34308,-0.07993l0.10085,-0.06394l0.08854,0.02705l0.08485,0.13158l0.26438,0.13896l0.10084,0.08485l0.06148,0.22504l0.19061,0.3566l0.05533,0.17462l0.13895,0.2152l0.01721,0.14757l-0.09961,0.21275l0.08239,0.24964l-0.00984,0.10452l-0.37752,0.46606l0.14511,0.18938l-0.04058,0.182l-0.07255,0.12297l-0.15126,0.05533l-0.1033,0.0996l-0.33447,0.17955l-0.33202,-0.03935l-0.17337,0.17339l0.00122,0.1156l-0.14511,0.12543l-0.11805,-0.0123l-0.14634,0.23488l-0.09961,0.07379l-0.27793,0.01844l-0.17708,0.16601l-0.14019,0.02706l-0.04919,-0.10452l0.1156,-0.13404l-0.06641,-0.17708l-0.15249,-0.06271l-0.1033,-0.13896l-0.23732,-0.1119l-0.02705,-0.13773l0.06394,-0.45622l0.26807,-0.0209l0.07009,-0.16233l0.15126,-0.12666l0.17217,-0.07379l0.06395,-0.12174l0.091,-0.02459l0.11313,-0.22748l0.02337,-0.14634l-0.02828,-0.13773l-0.1574,-0.04058l-0.10945,-0.28776l0.08609,-0.11313l-0.17217,-0.16971l-0.29512,0.01353l-0.13527,-0.03566"></path></g></g></svg>