<svg version="1.1" xmlns="http://www.w3.org/2000/svg" xmlns:xlink="http://www.w3.org/1999/xlink" width="8.04457" height="11.21521" viewBox="0,0,8.04457,11.21521"><g transform="translate(-194.69045,-214.00404)"><g fill="#ff0000" fill-rule="evenodd" stroke="#ffffff" stroke-width="0" stroke-linecap="round" stroke-linejoin="round" stroke-miterlimit="10"><path d="M202.46491,216.19582l-0.12637,0.07433l0.06195,0.08673l0.21806,0.13876l-0.01982,0.07558l-0.18213,0.1623l0.05452,0.10902l0.00867,0.22921l0.14744,0.057l0.03593,0.13753l0.07186,0.057l-0.20442,0.11274l0.02229,0.24779l0.08176,0.11522l-0.20938,0.12637l-0.04213,0.27381l-0.25399,0.08673l-0.05947,0.12762l0.13753,0.14371l-0.0161,0.25771l-0.07062,0.07681l-0.11399,-0.11769l0.01982,-0.08426l-0.18708,-0.03593l-0.2639,0.2515l-0.05823,0.17717l-0.14,0.19576l-0.00867,0.09912l-0.19204,0.36177l-0.12266,0.04089l-0.16479,0.11646l-0.01239,0.08673l-0.10902,0.06319l0.02354,0.17841l-0.09787,0.04336l-0.06939,0.39647l-0.12886,0.0793l-0.13009,-0.15859l-0.23169,-0.02973l-0.24531,0.03718l-0.20319,0.20443l-0.1016,0.1623l-0.12886,0.44107l0.05575,0.07682l-0.10655,0.2069l-0.02849,0.14868l0.08673,0.09293l-0.06566,0.21186l0.03964,0.13505l0.13381,0.16355l-0.02973,0.23044l0.0384,0.21683l-0.09167,0.02106l-0.10654,0.25647l-0.12513,-0.03346l-0.27628,-0.00124l-0.14371,0.10655l0.08176,0.11026l0.03717,0.34691l-0.10654,0.08673l0.08549,0.21807l0.1016,0.10037l0.46089,0.1747l-0.00867,0.07806l0.10283,0.21187l0.09416,0.08797l-0.04584,0.09912l0.09788,0.38036l-0.03099,0.0793l-0.23788,0.01239l-0.08549,-0.12637l-0.24903,-0.01859l-0.09541,-0.08549l0.06939,-0.0954l-0.02602,-0.09788l-0.29364,-0.21186l-0.07558,-0.14868l-0.10532,-0.08053l-0.23292,-0.09541l-0.17593,0.01239l-0.13009,-0.05452l-0.22053,0.34072l0.02354,-0.26637l-0.08673,-0.05452l-0.30727,0.11769l-0.05327,0.18337l-0.24656,0.23044l-0.1462,0.01115l-0.02229,0.06938l-0.15611,-0.02602l-0.27628,-0.16973l-0.11151,0.12018l-0.10283,-0.11399l-0.07806,-0.17841l-0.1747,-0.08796l-0.13133,-0.26886l-0.33205,0.04708l-0.12266,0.18584l-0.1747,-0.0446l-0.23169,0.1016l-0.10902,0.11646l-0.0793,-0.20938l-0.02478,-0.26267l0.21682,0.00867l0.03718,-0.08053l-0.10037,-0.11151l0.07433,-0.17717l0.17593,-0.09788l-0.07186,-0.0793l0.11399,-0.11026l-0.08797,-0.11647l0.04833,-0.09912l0.2069,-0.16479l0.11152,-0.05327l0.02354,-0.13505l0.33823,-0.14744l-0.07062,-0.13009l0.0384,-0.08549l-0.10902,-0.25522l-0.15611,0.01114l-0.11895,0.08053l-0.24035,0.00867l-0.13876,-0.08921l-0.03717,-0.2069l0.1016,-0.04833l0.21806,-0.00744l0.07682,-0.09788l-0.01239,-0.19948l0.09912,-0.15488l-0.12514,-0.29859l0.06566,-0.05204l-0.12018,-0.20319l-0.01858,-0.16726l0.03098,-0.23044l-0.25152,-0.28124l0.1462,-0.20938l-0.03469,-0.13753l0.03222,-0.17593l-0.07186,-0.24531l-0.20938,-0.09788l-0.11275,-0.24903l-0.11522,-0.03469l0.0508,-0.21434l-0.21557,-0.29612l0.05575,-0.17222l0.20195,-0.08176l-0.01611,0.11275l0.15239,0.10283l0.16107,0.17594l0.03346,0.08176l0.13876,0.06566l0.16479,0.22425l0.11026,-0.04089l0.03469,-0.13009l0.14868,-0.10037l0.11151,-0.20072l0.07682,-0.02229l0.19948,-0.31841l-0.01612,-0.17097l0.23294,-0.0062l0.20442,-0.09912l-0.05947,-0.26515l0.04708,-0.11399l-0.03718,-0.10407l0.19081,-0.31841l0.07186,-0.18214l0.09168,-0.00991l0.21186,-0.1239l0.08426,0.02478l0.41258,-0.1623l0.18337,-0.1747l0.15362,-0.03221l0.1685,-0.11275l0.05947,-0.22921l-0.03593,-0.20072l-0.20567,-0.27628l-0.29487,-0.09044l-0.04213,-0.14371l-0.02602,-0.29983l-0.16602,0.0062l-0.11769,-0.1623l0.02973,-0.1685l-0.11275,-0.04089l-0.01858,-0.10283l0.05452,-0.12513l-0.01487,-0.10902l-0.22921,-0.12142l0.03717,-0.18214l0.09663,-0.00743l0.0508,-0.09416l0.21557,-0.02726l0.08797,-0.06566l0.21063,0.1016l0.24284,-0.00991l0.20567,0.03964l0.17965,0.03964l0.3593,-0.06319l0.19081,0.08301l0.23788,-0.09788h0.10037l0.3531,-0.12018l0.23541,0.02479l0.1276,0.07062l0.1747,-0.07682l0.02849,0.15982l0.0892,0.04833l0.06319,0.19576l0.2131,0.01239l0.14497,0.12886l0.11646,-0.10902l0.1747,-0.08797l0.14495,-0.0062l0.22177,-0.12513l0.28498,-0.00124l0.06071,-0.10902l0.16726,-0.0161l0.10283,0.09663l0.11769,0.00496l0.07806,0.07186l0.15362,0.00867l0.22301,0.13877l0.08549,0.15859l-0.08673,0.12018l-0.23788,0.06691l-0.18461,-0.02725l-0.11151,0.02849l-0.01982,0.27133l0.0384,0.08426l-0.1747,0.10284l-0.24779,-0.01238l0.0446,0.23044l0.057,0.07186l0.14248,0.00744l0.17222,-0.06566l0.06319,0.05574l0.17097,-0.00991l0.03966,0.14371l0.12142,0.06939l0.03469,0.10035l0.24779,0.25894l-0.08797,0.1016l-0.17717,0.00496"></path></g></g></svg>