<svg version="1.1" xmlns="http://www.w3.org/2000/svg" xmlns:xlink="http://www.w3.org/1999/xlink" width="12.56692" height="7.67953" viewBox="0,0,12.56692,7.67953"><g transform="translate(-152.40375,-219.56143)"><g fill="#ff0000" stroke="#ffffff" stroke-width="0" stroke-linecap="round" stroke-linejoin="round" stroke-miterlimit="10"><path d="M157.84142,221.93101l0.02337,0.14634l-0.11386,0.14757l-0.13909,-0.01476l-0.07489,-0.06641l-0.07403,-0.16478l0.00517,-0.13895l0.06161,-0.06149l0.08042,0.13035l0.09543,-0.06025l0.13588,0.08238" fill-rule="evenodd"></path><path d="M157.54007,222.76783l-0.08583,-0.07255l0.11844,-0.08854l0.04071,0.08977l-0.07329,0.07132" fill-rule="nonzero"></path><path d="M157.74911,222.22674l-0.13909,-0.01476l-0.07489,-0.06641l-0.07403,-0.16479l0.00517,-0.13896l0.06162,-0.06149l0.08041,0.13036l0.09543,-0.06026l0.13588,0.08239l0.02337,0.14634l-0.11387,0.14757" fill-rule="nonzero"></path><path d="M152.49221,220.7136l0.09347,0.07993l-0.07328,0.11806l-0.10785,-0.11191l0.08767,-0.08609" fill-rule="evenodd"></path><path d="M162.38272,221.09481l0.20475,-0.04181l0.16109,0.04673l0.06025,-0.07747l0.182,-0.06149l0.22873,0.2644l0.182,-0.02582l0.15863,0.19922l0.17339,-0.01106l0.34309,0.09469l0.16233,-0.04919l0.06887,0.13035l0.28776,0.00861l0.37506,0.07379l-0.04795,0.27545l0.02705,0.13527l-0.18323,0.06641l-0.04426,0.16233l-0.12297,-0.04058l-0.10945,0.1365l-0.10085,0.0209l-0.0123,0.17585l0.23242,0.34431l-0.31972,0.36153l0.12543,0.06641l-0.0246,0.22258l-0.13404,0.23486l-0.12052,0.02337l0.1033,0.17339l-0.10945,0.09223l-0.13404,0.02828l-0.2447,-0.07993l-0.25702,-0.01722l-0.35415,0.21151l-0.17093,0.18569l-0.11068,0.02583l-0.09592,0.10452l-0.23242,0.00738l-0.0766,-0.05903l-0.13281,0.04427l-0.2725,-0.091h-0.09308l-0.13613,0.091l0.11411,0.25454l-0.03714,0.06518l-0.15863,0.07624l0.02989,0.08485l-0.20512,0.13158l-0.00984,0.12913l-0.15408,-0.06149l-0.0193,0.14019l0.05251,0.05657l-0.06665,0.17585l-0.10391,0.1033l-0.07157,0.24964l-0.15211,0.15002l-0.14351,0.02706l-0.07624,0.10206l-0.23968,0.08362l-0.10746,-0.03197l-0.03223,0.11682l0.03504,0.16233l-0.09235,0.11682l-0.23685,0.21889l-0.08042,0.10576l-0.24557,0.11805l-0.06001,0.07255l-0.14006,-0.07747l-0.15605,0.03197l-0.03664,0.08977l-0.1879,0.00123l0.14965,-0.25331l0.21766,-0.04304l0.28751,-0.29022l0.01586,-0.23242l0.11867,-0.14019l0.1017,-0.22873l0.08743,0.02214l-0.00344,-0.26438l0.0375,-0.19061l-0.16627,0.06518l-0.13317,-0.05165l-0.0134,-0.12666l0.20585,0.00492l0.08301,-0.19553l0.13957,-0.01106l-0.03885,0.16724l0.17782,-0.03075l0.09149,-0.12052l0.04943,-0.21643l0.20512,-0.24964l-0.11843,-0.0578l-0.02779,0.15249l-0.11251,0.07379l-0.02311,0.091l-0.15039,-0.07009l-0.0723,0.10576l-0.09861,-0.07993l0.14769,-0.21028l-0.09899,-0.12174l-0.17844,0.05165l-0.01857,-0.17585l-0.1333,-0.15618l0.05657,-0.17954l-0.12272,-0.02706l-0.204,-0.2816l-0.1022,-0.02828l0.11351,-0.24347l-0.16048,-0.09469l-0.06173,0.06641l-0.14117,-0.04673l-0.08054,0.22258l-0.09358,-0.12912l-0.14941,-0.09837l-0.01548,-0.1611l-0.22467,-0.00123l0.01192,-0.08854l-0.10009,-0.05411l-0.09358,-0.13157l-0.09899,-0.21398l0.03295,-0.18569l-0.06911,-0.07255l-0.09136,-0.20291l-0.06985,-0.25331l-0.07613,-0.07747l-0.03504,-0.14757l-0.21876,-0.07747l0.04328,-0.14757l-0.13785,-0.06394l0.03591,-0.15003l-0.02349,-0.26438l0.06665,-0.12297l0.15372,-0.05657l0.07795,0.06763l0.04009,-0.22748l-0.09628,-0.27545l0.03357,-0.30373l0.11288,0.02337l0.03616,-0.30744l0.09223,-0.09346l0.01303,-0.14634l0.06505,-0.11928l-0.03701,-0.11314l0.10969,-0.08854l0.26967,0.18938l0.08609,-0.00492l0.12002,0.14511l0.11128,0.0209l0.0755,0.1574l-0.0712,0.09715l-0.0385,0.15863l0.09899,-0.00861l0.08854,-0.1365l0.21852,0.07625l0.01955,0.08608l-0.15187,0.12052l-0.10686,0.15002l-0.06149,0.23119l0.06209,0.11682l-0.06073,0.08363l0.06309,0.09346l0.10538,-0.04427l0.04723,-0.20044l0.10662,-0.11191l0.21446,0.04058l0.02964,0.08485l0.18347,-0.02337l0.1799,0.13896l-0.00258,0.10084l0.14375,0.16233l-0.05325,0.19184l-0.12333,0.05287l0.12468,0.25946l-0.06825,0.39104l-0.07367,0.06026l-0.10465,-0.08116l-0.03491,-0.25085l0.00246,-0.18569l-0.13158,0.07132l-0.00898,0.24964l0.1076,0.22873l0.14744,0.09715l0.01869,0.30496l-0.08177,0.0787l-0.12001,-0.03935l-0.02779,0.15987h0.09432l0.05103,0.14019l0.1461,-0.01722l0.3951,0.3271l0.09974,-0.06887l0.18741,0.0123l0.07194,-0.17708l0.07956,-0.07255l-0.01021,-0.15987l0.13281,0.00122l0.17671,-0.0541l0.1049,0.17093l0.0696,-0.03444l0.19638,0.16356l0.16761,-0.06763l0.12827,0.10084l-0.00294,0.12544l0.1558,-0.04427l0.12778,0.13527l0.16293,-0.0209l-0.05595,-0.25579l-0.11953,-0.11682l-0.20978,-0.12666l0.02447,-0.12789l-0.14007,-0.2066l0.0059,-0.09223l-0.27951,-0.29512l-0.02718,-0.28651l0.03922,-0.31111l0.045,-0.14019l0.07931,0.01229l0.08583,-0.23242l0.11067,-0.02337l0.06432,0.12666l0.26267,-0.05287l0.10255,-0.11068" fill-rule="evenodd"></path><path d="M157.84142,221.93101l0.02337,0.14634l-0.11386,0.14757l-0.13909,-0.01476l-0.07489,-0.06641l-0.07403,-0.16478l0.00517,-0.13895l0.06161,-0.06149l0.08042,0.13035l0.09543,-0.06025l0.13588,0.08238" fill-rule="evenodd"></path><path d="M157.19707,220.87346l-0.11043,0.12544l-0.06629,-0.11682l0.12777,-0.08608l-0.09211,-0.17217l0.02299,-0.05902l0.26598,0.04181l0.08398,0.08485l-0.08275,0.13158l-0.14916,0.05042" fill-rule="evenodd"></path><path d="M153.19436,221.10709l-0.16404,-0.10576l0.00406,-0.15002l0.17646,-0.17831l-0.01044,0.091l0.0996,0.25085l-0.10563,0.09223" fill-rule="evenodd"></path><path d="M154.38472,220.77507l0.12765,-0.07625l0.05054,0.24716l-0.19934,-0.04549l0.02115,-0.12543" fill-rule="evenodd"></path><path d="M153.02811,220.99698l0.00406,-0.15003l0.17647,-0.17832l-0.01046,0.091l0.08154,0.13528l0.01808,0.1156l-0.10563,0.09223l-0.16404,-0.10577" fill-rule="nonzero"></path><path d="M154.36115,220.91091l0.02116,-0.12543l0.12765,-0.07624l0.05055,0.24718l-0.19935,-0.0455" fill-rule="nonzero"></path><path d="M152.5116,220.92319l-0.10785,-0.11191l0.08767,-0.08609l0.09346,0.07993l-0.07329,0.11805" fill-rule="nonzero"></path><path d="M157.54007,222.76783l-0.08583,-0.07255l0.11844,-0.08854l0.04071,0.08977l-0.07329,0.07132" fill-rule="nonzero"></path><path d="M157.74911,222.22674l-0.13909,-0.01476l-0.07489,-0.06641l-0.07403,-0.16479l0.00517,-0.13896l0.06162,-0.06149l0.08041,0.13036l0.09543,-0.06026l0.13588,0.08239l0.02337,0.14634l-0.11387,0.14757" fill-rule="nonzero"></path><path d="M157.01863,220.88631l0.12778,-0.08609l-0.09211,-0.17217l0.02299,-0.05902l0.26599,0.04182l0.084,0.08485l-0.08277,0.13158l-0.14918,0.05042l-0.11043,0.12543l-0.06629,-0.11683" fill-rule="nonzero"></path><path d="M159.75731,225.54706l-0.09949,-0.15126l0.11239,-0.02828l0.05989,0.14265l-0.07281,0.0369" fill-rule="nonzero"></path></g></g></svg>