<svg version="1.1" xmlns="http://www.w3.org/2000/svg" xmlns:xlink="http://www.w3.org/1999/xlink" width="9.29957" height="4.94594" viewBox="0,0,9.29957,4.94594"><g transform="translate(-273.50863,-171.74047)"><g fill="#ff0000" fill-rule="evenodd" stroke="#ffffff" stroke-width="0" stroke-linecap="round" stroke-linejoin="round" stroke-miterlimit="10"><path d="M282.0314,172.84433l0.13009,-0.01858l0.02973,0.10407l0.13133,0.02849l0.07062,0.12266l-0.03346,0.2515l0.06442,0.28992l0.17345,0.31346l0.04336,0.14868l0.15859,0.21062l0.00867,0.07682l-0.08549,0.09912l-0.24903,0.04708l-0.11026,0.21063l0.06815,0.11152l0.14371,0.03717l0.01362,0.08177l-0.13009,0.1747l-0.17717,0.00247l-0.00124,0.22178l-0.15859,-0.0161l-0.25027,0.09293l-0.38779,-0.10035l-0.07558,-0.07433l-0.08426,0.14744l-0.25152,0.16973l-0.41505,-0.23788l-0.08797,0.00373l-0.16602,-0.11399l-0.15363,0.06195l0.02602,0.17593l-0.14248,0.02478l-0.15611,0.30107l-0.24035,-0.07558l-0.11026,0.02602l-0.18957,0.12637l-0.00496,0.07309l-0.24904,0.02106l-0.37292,0.28001l-0.31346,0.05947l-0.25399,0.07433l-0.23788,0.21806l-0.21929,-0.0384l-0.25275,-0.31221l-0.23292,-0.10158l-0.13381,0.10654l-0.1462,-0.02354l-0.36302,0.18337l-0.21929,0.27628l-0.14124,-0.14248l-0.28372,-0.06071l-0.10407,-0.25152l0.05452,-0.0446l0.00373,-0.17345l-0.09663,-0.08177l-0.17097,-0.26886l0.0446,-0.13133l-0.01239,-0.32833l0.04336,-0.08549l-0.0446,-0.3655l-0.05327,-0.08673l-0.15735,-0.04584l0.01115,-0.33823l0.07682,-0.1338l0.02849,-0.1685l0.12637,-0.09663l-0.47947,-0.11522l-0.16973,0.04956l-0.22301,0.18708l-0.00247,0.11769l-0.20567,0.07558l-0.21434,-0.09416l-0.11151,0.13628l-0.01982,0.13381l-0.11149,0.10532l-0.46213,0.05327l-0.04708,0.02725l-0.20689,-0.33576l0.11399,0.02478l0.09044,-0.13628l0.11149,-0.01239l0.1685,-0.13504l0.1363,0.01982l0.057,0.07806l0.13876,-0.01115l0.00373,-0.30107l0.07806,-0.06691l0.14371,0.00247l0.03964,-0.10158l-0.06319,-0.08301l-0.02849,-0.24903l0.08176,-0.08177l0.00373,-0.15115l0.22797,-0.29487l0.09044,-0.20815l0.27505,-0.46213l-0.04213,-0.04833l0.23788,-0.25894l0.45718,-0.0062l0.2069,0.15115l0.21557,0.10532l0.12762,-0.00373l0.04708,0.09416l0.14744,-0.02973l0.16726,0.18584l0.20319,0.00496l0.1623,0.04956l-0.00247,-0.11895l0.3494,0.10408l0.24903,0.10779l0.15982,-0.06071l0.37416,-0.19576l0.22921,0.13504l0.2069,0.25894l0.31841,0.17222l0.43612,0.38408l0.24903,0.02973l0.38037,-0.06319l0.19948,0.03593l0.17345,-0.02602l0.24161,-0.12143l0.23294,-0.05204l0.17717,-0.09416l0.19824,0.10655l0.11399,0.14868l0.16602,0.00744l0.13381,-0.06071l0.17717,-0.01735l-0.02602,-0.19699l0.13133,-0.057l0.05452,0.12018"></path></g></g></svg>