<svg version="1.1" xmlns="http://www.w3.org/2000/svg" xmlns:xlink="http://www.w3.org/1999/xlink" width="7.70137" height="6.06586" viewBox="0,0,7.70137,6.06586"><g transform="translate(-204.76939,-199.90365)"><g fill="#ff0000" stroke="#ffffff" stroke-width="0" stroke-linecap="round" stroke-linejoin="round" stroke-miterlimit="10"><path d="M212.24036,204.69709l-0.11769,0.19328l-0.14124,-0.03345l-0.20442,0.21186l-0.21063,-0.04708l-0.09788,-0.08301l-0.12266,-0.01858l-0.03221,-0.08301l-0.15611,-0.09663l0.0062,-0.10779l-0.08426,-0.09663l0.02725,-0.10037l-0.21682,0.00744l-0.13257,0.14992l-0.1276,0.06442l-0.10408,-0.12142l-0.31964,0.12018l-0.15239,-0.05947l-0.15611,0.13753l-0.10035,-0.04213l-0.15239,0.09044l-0.03346,0.24656l-0.23541,0.08549l-0.18337,-0.15362l-0.27133,0.14868l-0.17222,0.23291l-0.25399,0.15115l-0.07309,0.11522l-0.02229,0.21187l-0.15488,0.10407l-0.10532,-0.03717l-0.1462,0.08176l-0.11151,-0.00247l-0.01611,-0.08549l-0.15859,-0.13256l-0.11646,-0.02973l-0.20442,0.04708l-0.15611,-0.17717l-0.1685,0.08177l-0.11275,-0.05327l-0.07062,-0.11646l0.15859,-0.01487l0.20319,-0.1276l0.07558,-0.25399l-0.02726,-0.14991l0.05204,-0.22178l0.01362,-0.28248l0.15362,-1.08161l-0.14744,-0.21929l-0.03098,-0.13628l-0.25522,-0.15115l-0.12762,-0.21186l-0.04708,0.0062l-0.23417,-0.15611l-0.08426,-0.20815l0.1462,-0.0508l0.08549,0.09912l0.20195,0.05327l0.16602,0.23417l0.1363,-0.04956l0.18832,0.09167l0.15362,-0.10158l0.10902,-0.01487l0.14248,0.09787l0.07806,-0.04708l0.1276,0.04213l0.11895,-0.08549l0.14992,-0.19576l0.19204,-0.12514l-0.05327,-0.25771l0.19204,-0.10035l0.06071,0.09912l0.20319,-0.13504l-0.07682,-0.18214l0.25771,-0.16106l0.08673,0.17964l0.21683,-0.18584l0.19204,-0.21807l-0.02478,-0.38532l0.24779,-0.07186l0.2131,-0.02106l-0.00371,0.1747l-0.22921,0.1685l-0.10779,0.01858l0.04833,0.12639l0.14991,-0.04584l0.14124,0.01982l0.25522,-0.27133l0.20442,-0.14744l-0.08549,-0.3085l0.07433,-0.10902l0.08053,0.07062l0.11399,-0.06566l0.13876,0.06566l0.08301,-0.17965l0.01487,0.18461l0.08301,0.10284l-0.00744,0.22796l0.23169,0.3494l-0.05327,0.10902l-0.23292,0.06071l-0.06319,0.07433l0.16355,0.22674l0.05204,0.18955l0.01362,0.24035l0.32956,0.13133l0.16602,-0.04336l0.11769,0.08797l-0.1016,0.27257l0.23788,0.35187l0.10532,0.10532l0.05204,0.32461l0.10283,0.03098l-0.02602,0.11275l0.05452,0.12514l-0.02602,0.1623l-0.05823,0.0446l0.04584,0.27628l0.06195,-0.00247l0.08053,0.1623l0.17097,0.17345l-0.09541,0.10532l-0.02725,0.14248l-0.10779,0.0508" fill-rule="evenodd"></path><path d="M208.42434,200.72l-0.13256,-0.01238l-0.03717,0.15115l-0.12514,0.01858l-0.17717,-0.13876l0.05327,-0.06691l0.01982,-0.18088l0.08549,-0.01362l0.02725,-0.12143l0.11895,-0.00743l0.01734,-0.17717l0.17841,0.21929l0.06938,0.2131l-0.09788,0.11646" fill-rule="evenodd"></path><path d="M209.03144,200.49699l-0.02479,0.07433l-0.15362,0.03718l0.03221,-0.13876l-0.09044,-0.13505l0.18337,-0.06442l0.1239,-0.13133l0.15982,0.08673l-0.02726,0.12762l-0.20318,0.14371" fill-rule="evenodd"></path><path d="M207.12342,202.16959l0.11522,-0.08301l-0.0062,-0.23294l0.07806,0.26763l-0.1276,0.19452l-0.05947,-0.1462" fill-rule="evenodd"></path><path d="M207.7429,200.36069l-0.08301,-0.06689l-0.03098,-0.23044l0.15982,-0.06566l0.04584,0.05575l0.01858,0.21557l-0.11026,0.09167" fill-rule="evenodd"></path><path d="M207.14821,201.15363l-0.03221,-0.2639l0.04833,-0.04956l0.12886,0.23169l-0.05327,0.11399l-0.09168,-0.03221" fill-rule="evenodd"></path><path d="M207.76769,201.53771l-0.07558,-0.12886l-0.00124,-0.13134l0.19576,0.12637v0.1685l-0.11895,-0.03469" fill-rule="evenodd"></path><path d="M209.52702,200.27397l0.1016,-0.0508l0.0508,0.07682l-0.11893,0.08549l-0.03346,-0.11152" fill-rule="evenodd"></path><path d="M204.76939,200.99257l0.10655,-0.10284l0.14744,0.14868l-0.0508,0.06938l-0.1747,-0.04089l-0.02849,-0.07433" fill-rule="evenodd"></path><path d="M206.25616,200.62088l-0.37416,-0.20318l0.12266,-0.08301l0.18708,-0.20938l0.10532,0.15239l-0.07558,0.21806l0.15239,0.02849l0.0161,0.12639l-0.13381,-0.02973" fill-rule="evenodd"></path><path d="M205.89685,200.02618l0.07558,-0.11895l-0.057,0.28248l-0.0793,0.11895l-0.10655,-0.20567l0.16726,-0.07681" fill-rule="evenodd"></path><path d="M206.49155,200.89346l0.24779,-0.19081l-0.07682,0.18955l-0.17097,0.00124" fill-rule="evenodd"></path><path d="M205.78534,201.05451l-0.15239,0.00373l0.01362,-0.15488l0.13877,0.15115" fill-rule="evenodd"></path><path d="M205.66481,200.89239l0.13877,0.15116l-0.1524,0.00371l0.01364,-0.15488" fill-rule="nonzero"></path><path d="M206.69319,200.89239l-0.17099,0.00124l0.2478,-0.19082l-0.07682,0.18958" fill-rule="nonzero"></path><path d="M206.42062,200.64458l-0.13381,-0.02973l-0.37419,-0.2032l0.12266,-0.08301l0.18709,-0.20939l0.10532,0.1524l-0.07559,0.21807l0.1524,0.0285l0.01612,0.12639" fill-rule="nonzero"></path><path d="M205.75155,200.09942l0.16727,-0.07682l0.07559,-0.11895l-0.057,0.28249l-0.0793,0.11895l-0.10655,-0.20567" fill-rule="nonzero"></path><path d="M204.89662,200.88l0.14744,0.14868l-0.0508,0.06939l-0.1747,-0.04087l-0.0285,-0.07433l0.10655,-0.10284" fill-rule="nonzero"></path><path d="M206.20998,204.22535l-0.10903,0.04337l-0.0731,-0.1586l0.18214,0.11523" fill-rule="nonzero"></path><path d="M207.61007,202.09423l-0.15489,-0.01982l-0.11646,0.03718l-0.12762,0.19452l-0.05947,-0.14621l0.11523,-0.08303l-0.0062,-0.23294l0.02602,0.1363l0.1524,0.08177l0.10655,-0.1016l0.06443,0.13381" fill-rule="nonzero"></path><path d="M207.72159,201.40038l-0.00124,-0.13134l0.19576,0.12639v0.1685l-0.11895,-0.03469l-0.07558,-0.12886" fill-rule="nonzero"></path><path d="M207.13925,200.89239l0.04833,-0.04957l0.12886,0.23169l-0.05327,0.11399l-0.09168,-0.03221l-0.03221,-0.26391" fill-rule="nonzero"></path><path d="M208.31631,200.70654l-0.03717,0.15116l-0.12514,0.01858l-0.17718,-0.13877l0.05327,-0.06691l0.01981,-0.1809l0.0855,-0.01362l0.02725,-0.12143l0.11895,-0.00744l0.01735,-0.17718l0.17841,0.2193l0.06939,0.21311l-0.09789,0.11646l-0.13257,-0.01239" fill-rule="nonzero"></path><path d="M209.03494,200.57024l-0.15363,0.03718l0.03221,-0.13877l-0.09044,-0.13504l0.18337,-0.06443l0.1239,-0.13134l0.15983,0.08673l-0.02725,0.12762l-0.2032,0.14372l-0.02478,0.07433" fill-rule="nonzero"></path><path d="M209.65444,200.22332l0.0508,0.07682l-0.11896,0.0855l-0.03345,-0.11152l0.10158,-0.0508" fill-rule="nonzero"></path><path d="M207.68442,200.28527l-0.03098,-0.23046l0.15983,-0.06566l0.04584,0.05575l0.01858,0.21559l-0.11028,0.09168l-0.08301,-0.06692" fill-rule="nonzero"></path></g></g></svg>