<svg version="1.1" xmlns="http://www.w3.org/2000/svg" xmlns:xlink="http://www.w3.org/1999/xlink" width="8.73957" height="11.91233" viewBox="0,0,8.73957,11.91233"><g transform="translate(-176.91526,-223.40654)"><g fill-rule="evenodd" stroke="#ffffff" stroke-width="0" stroke-linecap="round" stroke-linejoin="round" stroke-miterlimit="10"><path d="M185.53558,224.91918l-0.17585,-0.01598l-0.05042,0.07624l0.08238,0.15863l-0.17585,-0.04919l-0.05165,0.19797l0.09592,0.08363l-0.13035,0.17708l-0.20167,-0.23486l-0.12052,0.05533l-0.01599,0.23242l-0.16847,0.0455l-0.13281,0.16724l-0.07501,-0.03197l-0.27053,0.23119l0.05411,0.17093l0.07625,0.09223l-0.00369,0.09469l-0.10453,0.08609l-0.00246,0.17462l-0.10453,0.182l-0.09469,0.02951l-0.07255,0.14388l-0.36769,0.03444l-0.10821,0.1242l-0.19184,0.34677l-0.07009,0.22504l0.00122,0.14264l0.06764,0.12543l-0.06149,0.15372l0.13896,0.03689l0.04427,-0.06271l0.16601,-0.02459l-0.01721,0.20044l0.18938,0.03566l0.00615,0.11928l-0.10576,0.12666l-0.22504,0.15618l-0.15495,0.04673l-0.14019,-0.1574l-0.2029,-0.02951l-0.0086,0.19061l-0.08485,0.09469l0.01844,0.16233l0.17093,0.11929l0.16847,0.03689l0.0123,0.11436l-0.14265,0.01844l0.06641,0.14141l-0.12174,0.16233l-0.14879,-0.03935l-0.08854,0.06518l-0.08854,0.18446l-0.07009,0.22996l0.03935,0.14141l-0.08116,0.03566l-0.08363,0.18569l0.06641,0.08608l-0.06395,0.12174l-0.1365,0.10821l-0.16478,0.23488l-0.16233,0.38489l-0.09592,0.29881l-0.01598,0.17955l-0.05042,0.07993l0.04427,0.17339l-0.15249,0.34432l-0.12297,0.41563l-0.00492,0.14141l-0.07993,0.19799l-0.05902,0.23365l-0.01476,0.25085l-0.06394,0.20782l-0.11191,0.23486l-0.13527,0.42793l-0.08977,0.37628l-0.25454,0.07009l-0.23732,-0.13035l-0.17831,-0.02582l-0.14511,-0.07132l-0.1943,0.06763l-0.05165,-0.08854l-0.1697,-0.10452l-0.06149,0.06518l-0.20044,0.4058l0.01476,0.17217l-0.16601,0.03074l-0.17831,-0.12052l-0.12052,0.00246l-0.19922,-0.15002l-0.03935,-0.11313l-0.10085,-0.1033l-0.03197,-0.12543l-0.08485,0.0086l-0.34062,-0.20044l-0.11191,-0.11314l-0.11068,-0.23857l-0.25333,0.0086l-0.14141,-0.07132l-0.1033,-0.18938l-0.10206,-0.11682l-0.16233,0.03689l-0.13773,-0.15125l-0.05165,-0.12052l0.0996,-0.15618l0.16725,0.01598l0.06148,-0.24964l0.12052,-0.06025l0.16233,0.07501l0.08363,-0.04427l0.12173,0.04795l0.13281,-0.11068l0.02337,-0.08854l0.1697,-0.03689l-0.17708,-0.27176l0.11682,-0.04427l-0.00492,-0.13404l-0.12297,0.0332l-0.16847,-0.03444l-0.15863,-0.2398l-0.03565,-0.15126l-0.19676,-0.28283l0.0455,-0.20905l-0.28037,-0.28899l0.01353,-0.05287l-0.15003,-0.16109l-0.19799,-0.04427l0.01844,-0.19061l0.08362,-0.06518l0.08362,-0.16847l0.17462,0.05657l0.08731,0.10085l0.15126,0.08854l0.13895,-0.06763l0.17462,-0.00615l0.16971,0.18692l0.28651,0.10453l0.19553,-0.09223l0.09223,-0.09591l0.15987,-0.00246l0.23119,-0.10945l-0.02214,-0.11805l0.05533,-0.30744l0.07993,-0.11435l0.08977,0.01106l0.24841,0.15987l0.23365,-0.23486l0.10822,-0.27301l0.26684,0.00738l0.09592,-0.05411l0.1365,0.00122l0.06764,-0.09346l0.24103,-0.03689l0.14511,-0.21274l-0.00492,-0.17462l-0.09469,-0.2189l0.05287,-0.13281l0.30373,-0.03566l0.09347,-0.06518l-0.03566,-0.12051l0.03812,-0.27791l0.16847,-0.06026l-0.02951,-0.21275l0.11314,-0.21766l-0.14265,-0.31972l-0.19921,-0.21521l-0.23857,-0.11436l-0.15617,-0.02828l-0.19922,0.13896l-0.17585,-0.0209l-0.14634,0.03812l0.02706,-0.13404l0.09346,-0.05165l0.09837,-0.27176l0.01353,-0.33816l0.03444,-0.04303l-0.04181,-0.18938l-0.16847,-0.10207l0.06763,-0.31236l-0.07625,-0.10084l0.16847,-0.14634l-0.01353,-0.08854l0.08116,-0.20536l0.15495,-0.14264l0.11805,-0.04182l0.091,-0.19061l0.01722,-0.18323l-0.03812,-0.1119l0.10576,-0.14634l-0.01844,-0.12789l-0.07993,-0.05042l0.11805,-0.20414l0.20782,-0.00246l0.04426,0.06641l0.29758,0.15863l0.40088,0.06763l0.12666,-0.09961l0.13404,-0.19184l0.34185,0.01476l0.09101,-0.0209l0.18938,0.06149l0.09346,-0.0209l0.34432,0.04919l0.24593,-0.091l0.19922,0.01599l0.07132,-0.25333l0.11806,-0.09469l0.03935,-0.27176l0.05657,-0.22258l0.22627,-0.07748l0.18077,-0.00738l0.22748,0.04795l0.00615,0.08362l0.23242,0.08485l0.2189,-0.11314l0.12297,0.14879l0.16724,0.02705l0.13157,-0.05287l0.01598,0.22504l-0.13281,0.22873l-0.06149,0.19799l0.06764,0.30619l-0.0701,0.12174l0.03566,0.17094l0.17831,-0.06148l0.14757,-0.00492l0.15003,-0.0787l-0.11928,0.18077" fill="#ff0000"></path><path d="M184.95761,225.96443l-0.03075,0.09346l-0.17831,-0.03935l-0.01353,-0.10453l0.08977,-0.12912l0.13281,0.17954" fill="#3b4238"></path></g></g></svg>