<svg version="1.1" xmlns="http://www.w3.org/2000/svg" xmlns:xlink="http://www.w3.org/1999/xlink" width="9.60956" height="10.16192" viewBox="0,0,9.60956,10.16192"><g transform="translate(-227.71607,-185.51526)"><g fill="#ff0000" fill-rule="evenodd" stroke="#ffffff" stroke-width="0" stroke-linecap="round" stroke-linejoin="round" stroke-miterlimit="10"><path d="M233.77362,185.8411l-0.05823,0.17345l0.2069,0.06071l0.12514,0.25522l0.25152,0.15611l0.11026,0.34072l0.11769,0.21682l0.06195,0.04087l0.32461,-0.13504l-0.10284,0.2131l-0.09663,0.11522l-0.08921,0.36053l-0.00124,0.17593l-0.08053,0.04831l0.00247,0.18708l0.1338,0.31223l-0.0161,0.14867l0.07681,0.26761l0.11647,0.0446l-0.09293,0.26637l0.0446,0.11522l-0.03098,0.20815l-0.08053,0.16106l-0.00496,0.11151l-0.09787,0.16974l0.05947,0.07806l-0.09787,0.22301l0.03717,0.24035l-0.23541,0.1239l-0.0062,0.07929l0.11399,0.09788l0.12266,0.20567l-0.02229,0.19081l0.04831,0.12513l-0.11274,0.15239l0.18337,0.01735l0.17964,0.15115l-0.05575,0.13009l0.14371,0.20815l0.14248,0.05947l0.05575,0.28992l-0.11399,0.1276l0.0062,0.24284l-0.10037,0.09416l0.05452,0.15736l0.10407,0.10655l0.15859,0.07558v0.08673l0.13628,0.06195l0.12142,-0.083l0.03964,-0.09912l0.14001,-0.02106l0.14867,-0.10284l0.06442,0.10532l0.02973,0.17964l-0.03221,0.13753l0.10655,0.18337l0.09293,-0.04831l0.18584,0.13133l-0.00744,0.11399l0.41876,-0.06939l-0.03717,0.15611l0.0384,0.09416l0.12513,-0.00124l0.15115,0.07309l0.01611,0.06566l-0.17222,0.12514l-0.04708,0.20071l0.13628,0.06442l0.00371,0.13877l0.13628,0.04336l-0.05327,0.22054l0.01115,0.13504l0.31346,0.26142l-0.1685,0.06442l-0.03098,0.2131l-0.12514,0.09664l-0.03098,0.11522l-0.15982,-0.02602l-0.10779,-0.14371l-0.06815,0.06566l-0.16726,-0.03469l-0.00124,-0.16602l-0.06319,-0.16355l-0.1016,-0.07433l-0.17965,0.01859l-0.04213,-0.11152l-0.17097,0.13877l-0.10655,0.02106l-0.11522,-0.10408l0.07062,-0.12266l-0.15735,-0.01487l-0.16355,0.31346l-0.06939,0.03098l-0.08921,0.32212l-0.1747,-0.06689l-0.15859,0.11522l-0.17717,0.00496l-0.12389,-0.08797l-0.23789,0.00124l-0.19948,-0.15362l-0.14497,-0.04336l-0.1276,0.02479l-0.33329,-0.07806l0.02849,-0.11523l-0.13256,-0.16479l-0.16107,-0.11893l-0.05947,-0.35063l0.14992,-0.15611l0.07309,-0.19452l-0.18214,-0.32337l-0.09417,-0.00867l-0.1747,-0.3531l-0.09788,-0.07681l-0.13256,-0.02354l-0.0062,-0.22921l-0.10532,-0.05574l-0.03346,-0.13877l0.03469,-0.09788l-0.10037,-0.18708l-0.32338,-0.14124v-0.24779l-0.19204,-0.13133l-0.11399,-0.00371l-0.10655,0.11026l-0.1747,-0.03221l0.12018,-0.15115l0.09912,-0.28868l-0.06815,-0.18708l-0.29859,0.06071l-0.05575,-0.12018l-0.17097,0.08053l0.0954,0.21063l-0.19204,0.03346l-0.01611,0.24035l0.23912,0.01114l0.00247,0.22054l-0.17222,0.09293l-0.1747,0.01115l-0.21434,-0.08177l0.01239,-0.06938l-0.17841,-0.07186l-0.09416,-0.10037l-0.00373,-0.10283l-0.13256,-0.0384l-0.1685,0.06814l-0.11769,-0.12885l0.04833,-0.06442l-0.03593,-0.16107l0.08176,-0.01981l-0.06566,-0.23169l0.12266,-0.08797l-0.13876,-0.11274l-0.13256,0.00496l-0.14001,-0.10284l-0.09788,-0.00247l-0.19576,-0.10037l-0.16602,0.09541l-0.16107,-0.14248l-0.34939,0.01735l-0.04833,-0.15486l0.04956,-0.08426l-0.02106,-0.19576l-0.10902,-0.09416l-0.03098,-0.14495l0.09787,-0.1685l0.13009,-0.09788l0.15362,-0.05452l0.01487,-0.26761l-0.16107,-0.08177l0.06939,-0.17097l-0.13753,-0.2924l-0.11769,0.01239l-0.22301,-0.11647l-0.14248,0.01487l-0.07186,-0.1276l-0.13133,-0.07806l-0.4101,0.11647l-0.17097,-0.08177l0.15239,-0.21806l-0.03593,-0.1685l-0.03346,-0.42373l0.08921,0.03098l0.06939,-0.33452l-0.13256,-0.21559l0.12266,-0.00992l0.05575,-0.11895l0.2515,-0.17841l-0.05947,-0.28744l0.17097,0.04087l0.07681,-0.13256l0.15735,-0.14248l0.19824,-0.04089l0.14867,-0.16602l0.06566,-0.18337l0.20319,-0.15115l0.13256,-0.03346l0.06319,-0.11522l0.14495,-0.11522l0.34816,-0.05452l0.23292,0.03099l0.29859,-0.01487l0.07309,-0.06442l-0.06566,-0.16355l0.20195,-0.07433l0.06691,-0.07558l0.15611,-0.02354l0.00124,-0.09416l0.55877,0.03964l0.10532,0.10035l0.23541,-0.04956l0.20318,0.02478l0.16232,0.09416l0.07186,-0.04584l0.23417,0.15735l0.08549,-0.01115l0.11026,0.11026l0.29612,0.09293l0.22178,-0.17593l0.21682,0.06319l0.09541,-0.11895l0.13753,0.06815l0.1685,-0.02354"></path></g></g></svg>