<svg version="1.1" xmlns="http://www.w3.org/2000/svg" xmlns:xlink="http://www.w3.org/1999/xlink" width="4.40957" height="4.34259" viewBox="0,0,4.40957,4.34259"><g transform="translate(-280.78369,-178.82485)"><g fill-rule="evenodd" stroke="#ffffff" stroke-width="0" stroke-linecap="round" stroke-linejoin="round" stroke-miterlimit="10"><path d="M284.95537,179.93123l-0.00992,0.31964l0.21683,0.23665l0.03098,0.15611l-0.12514,0.18708l-0.27505,0.10532l0.01238,0.34196l-0.04833,0.1685l-0.14868,0.09787l-0.16726,-0.00744l-0.29115,-0.07433l-0.32708,0.05452l-0.08301,0.06195l0.00991,0.15488l-0.18461,-0.01611l-0.13877,-0.23044l0.20195,-0.15982l-0.04833,-0.04956l-0.19452,0.15362l-0.14248,-0.0954l-0.01114,0.23664l-0.09663,0.03593l-0.02479,0.43364l-0.03593,0.04956l0.00124,0.21434l0.1338,0.37045l0.15362,-0.07062l0.17841,-0.02354l0.29487,0.47949l-0.17717,0.10532l-0.22797,-0.03593l-0.24779,-0.15362l-0.37665,0.01734l-0.10902,0.08301l-0.14372,0.02725l-0.09044,-0.14l0.05823,-0.12018l-0.16726,-0.06072l-0.16355,-0.1338l-0.08797,-0.28372l-0.15488,-0.07558l-0.31718,-0.26763l-0.23541,-0.13133l-0.27258,-0.03964l0.04089,-0.1239l-0.11149,-0.21929l0.09416,-0.07559l0.00247,-0.14495l-0.057,-0.13628v-0.26515l0.07309,-0.03593l-0.04089,-0.16355l0.06442,-0.1623l-0.26637,-0.2131l-0.10407,-0.03469l0.04708,-0.19081l-0.00496,-0.2701l-0.07682,-0.14867l0.24035,-0.1462l0.08177,-0.11151l0.19328,0.05327l0.23044,0.1239l0.01858,-0.21187l0.18461,-0.18461l0.01487,-0.07433l0.15859,-0.0384l0.53027,0.01487l0.16106,0.11026l0.30603,0.03098l0.04833,0.14495l0.2131,-0.09663l0.07186,-0.16106l-0.12389,-0.19451l0.26019,-0.10284l0.09167,0.13134l0.16355,0.04584l0.25894,-0.04708l0.15859,0.22921l0.14744,-0.11399l0.18088,0.13256l0.2255,-0.0793l0.07186,0.05327l-0.06566,0.12637l0.07309,0.06689l0.20567,-0.02354l-0.17717,0.23169l0.05575,0.15488l0.19204,0.19824" fill="#ff0000"></path><path d="M283.50576,182.4835l-0.33576,0.00124l-0.08177,-0.18337l-0.00247,-0.17717l0.07309,-0.25894l0.10532,0.13753l0.18584,0.33823l0.05575,0.14248" fill="#3b4238"></path><path d="M283.87747,182.45872l-0.24779,-0.2131l0.33329,-0.22301l0.07806,0.14868l0.06939,0.13256l-0.23291,0.15488" fill="#3b4238"></path><path d="M283.55533,182.09941l-0.23664,-0.36425l0.11149,-0.15736l0.05452,0.18585l0.14371,0.21806l-0.07309,0.11769" fill="#3b4238"></path><path d="M283.70401,182.02509l0.13628,-0.10037l0.10902,0.07186l-0.33205,0.22178l0.08673,-0.19328" fill="#3b4238"></path><path d="M284.03853,181.66578l0.17594,-0.00744l-0.01735,0.25894l-0.14,-0.08549l-0.01859,-0.16602" fill="#3b4238"></path><path d="M283.14648,181.65339l0.04956,-0.04336l0.02106,0.22054l-0.08176,0.00496l0.01114,-0.18213" fill="#3b4238"></path></g></g></svg>