<svg version="1.1" xmlns="http://www.w3.org/2000/svg" xmlns:xlink="http://www.w3.org/1999/xlink" width="13.95838" height="14.81783" viewBox="0,0,13.95838,14.81783"><g transform="translate(-276.01977,-147.16516)"><g fill="#ff0000" fill-rule="evenodd" stroke="#ffffff" stroke-width="0" stroke-linecap="round" stroke-linejoin="round" stroke-miterlimit="10"><path d="M289.45621,149.08727l-0.14326,0.05979l-0.03238,0.2155l0.0897,0.19931l-0.07225,0.38742l0.18062,0.04859l0.1856,0.14575l0.22298,0.07973l0.0573,0.11834l-0.02616,0.2043l0.05979,0.21924l-0.12831,0.13827l-0.17191,0.26286l-0.15572,0.04609l-0.12955,0.14326l0.00498,0.27281l-0.08846,0.11709l-0.04111,0.15696l-0.12208,0.00872l-0.10589,-0.12582l-0.22174,0.13703l-0.01494,0.14202l-0.31767,0.27406l0.16071,0.22298l0.14077,0.04236l-0.03114,0.22547l0.1445,0.1769l-0.07225,0.17316l0.07973,0.05979l0.0299,0.13951l-0.04111,0.18935l-0.20181,-0.03612l-0.08097,-0.10589l-0.11336,0.00374l-0.147,-0.05854l0.00248,-0.03114l-0.0897,-0.22921l0.08346,-0.18935l-0.12208,-0.17191l-0.32638,-0.07349l-0.09094,-0.07101l0.05606,-0.21177l-0.05232,-0.11336l-0.35503,-0.04236l-0.23669,0.01993l-0.21924,0.15696l-0.01869,0.0897l-0.11212,0.00746l-0.21177,0.16443l0.08222,0.13205l0.09094,0.31891l0.18062,0.05606l-0.00248,0.2155l0.2778,0.28278l0.01743,0.17191l-0.09716,0.03489l-0.06976,0.16443l-0.08097,0.05856l-0.05481,0.39862l0.08597,0.35752l-0.03364,0.16443l-0.1769,0.28651l-0.13951,-0.07475l-0.12083,0.19061l-0.01993,0.10339l-0.1582,0.07599l-0.1009,0.17067l-0.01743,0.16319l-0.20181,0.22298l0.02367,0.15323h-0.18187l0.07724,0.21676l-0.03489,0.19683l-0.17813,0.16693l-0.05232,0.23045l0.12583,0.07349l0.09716,0.1495l0.20181,0.0872l-0.2753,0.33759l0.05108,0.29647l-0.03364,0.1196l-0.34257,-0.00623l-0.21801,0.09468l-0.27031,-0.0872l-0.21178,0.11087l-0.14077,-0.01743l-0.06602,0.1009l-0.16443,0.02118l-0.19932,0.09094l-0.04859,0.11461l-0.1582,0.1582l0.07349,0.11585l-0.03238,0.36749l-0.11212,0.00623l-0.26783,-0.09218l-0.12583,0.0299l-0.18686,0.2043l-0.12707,0.07972l-0.19185,-0.02242l-0.05357,0.05232l-0.27406,0.00374l-0.1308,0.14202l-0.10465,-0.04983l-0.19184,0.09094l-0.14575,0.25288l-0.36624,0.13453l-0.12583,0.09218l-0.17316,0.19059l-0.16071,0.0274l-0.20927,-0.04484l-0.0299,0.15572l-0.31143,0.19433l-0.12208,0.02492l-0.1495,0.14201l-0.21924,0.06104l-0.13953,0.12955l-0.1196,0.02492l-0.12458,-0.11709l-0.28776,0.07349l-0.05606,0.26286l-0.27778,0.18686l0.00746,0.09342l-0.1009,0.18312l-0.18312,-0.05357l-0.16319,0.11709l-0.07225,0.1445l-0.12458,-0.00997l-0.12707,-0.10838l-0.25289,0.04112l-0.12955,-0.18312l-0.18562,0.04485l-0.27904,-0.01869l-0.1283,-0.13453l-0.1632,0.05107l-0.16817,-0.11585l-0.16817,0.09716l-0.17565,0.04485l-0.10837,-0.17191l0.10589,-0.01121l0.01745,-0.12208l0.11709,-0.20181l-0.03862,-0.147l0.04983,-0.07973l0.02118,-0.21426l-0.03489,-0.22298l-0.09468,-0.16443l0.06354,-0.24541l0.13827,-0.19433l-0.02865,-0.19683l-0.12831,-0.23171l0.02118,-0.16569l-0.12583,-0.142l-0.03986,-0.36624l0.01371,-0.03114l0.07724,0.04609l0.08222,-0.34507l-0.02242,-0.21801l0.06851,-0.19184l-0.12208,-0.14201l0.01743,-0.16818l-0.33386,-0.44348l-0.05854,0.15447l-0.09716,0.08471l-0.10713,0.00248l-0.02367,-0.15572l-0.14575,-0.20928l-0.21426,-0.23171l-0.01371,-0.11336l0.12332,-0.26534l0.21302,-0.20305l0.16942,-0.22299l0.08595,-0.04112l0.04236,-0.35129l0.07973,-0.09966l-0.05232,-0.29773l0.12707,-0.1445l0.06851,-0.00623v-0.20927l0.05481,-0.25039l-0.08097,-0.11336l0.00248,-0.11212l-0.12208,-0.09342l-0.08222,0.03238l-0.20679,-0.34133l0.12083,-0.06354l-0.01121,-0.1856l0.06851,-0.15322l0.12458,-0.15572l0.18062,0.05357l0.17068,-0.11461l0.09592,0.08471l0.22798,-0.0897l0.11585,0.00872l0.25661,-0.09964l0.24168,-0.05979l0.10713,0.07225l0.13329,-0.03862l0.20928,-0.15198l0.07349,0.07101l0.21177,0.02865l0.1495,0.05856l0.11087,-0.09966l-0.00747,-0.17813l0.05107,-0.09966l-0.02492,-0.13453l0.07847,-0.2479l0.1769,-0.09342l0.13205,0.01619l0.22673,-0.07349l0.11087,0.1495l0.12083,0.09094l0.12707,-0.12208l0.13329,-0.03489l0.21302,0.06104l0.07847,-0.08097l0.28279,0.02866l0.30146,0.15198l0.22547,-0.16569l0.06853,-0.23669l-0.15073,-0.03489l-0.10339,-0.13951l-0.03238,-0.37247l0.05232,-0.0872l-0.01743,-0.17689l-0.07724,-0.14575l-0.02367,-0.17813l-0.09841,-0.03488l-0.07349,-0.11834l0.04485,-0.13951l-0.07599,-0.15945l0.07101,-0.12458l-0.0299,-0.19309l0.23918,-0.06354l0.25163,-0.22174l0.15198,-0.02492l0.10589,-0.24291l0.23543,-0.12083l-0.08222,-0.12458l0.03489,-0.13453l0.22921,-0.30272l0.08346,-0.02367l0.09466,-0.1856l0.00872,-0.22299l0.2778,-0.31516l0.2043,-0.15945l0.10339,-0.16817l0.10713,-0.04983l0.1009,-0.16443l0.24791,-0.1308l-0.06851,-0.1607l-0.04359,-0.04112l-0.02492,0.00374l-0.01993,-0.01619l-0.10339,-0.1308l-0.12332,-0.2342l-0.16071,0.10589l-0.21177,0.01245l0.18935,-0.02492l0.12707,-0.11709l0.1171,0.02742l0.00499,0.11335l0.1009,0.15945l0.04236,0.02492l0.00124,0.02118l0.03489,0.05357l0.0299,-0.00124l0.04236,0.03986l0.06354,0.12332l0.512,-0.18437l0.15696,0.22673l0.09466,0.05482l0.01869,0.12456l0.11461,0.03489l0.10339,-0.12582l0.20804,-0.04236l0.22049,-0.1769l0.09592,0.01743l0.2043,0.23171l0.22423,-0.00124l0.05481,-0.05482l0.28651,-0.00746l0.08846,-0.24042l0.2155,0.20554l0.09967,0.02367l0.05231,0.14325l-0.02492,0.15945l0.0897,0.18687l0.14326,0.1582l-0.00997,0.11834l0.10589,0.09218l0.19308,0.01619l0.10215,-0.07225l0.34009,-0.06354l0.13703,-0.17439l0.20055,0.17813l0.05482,0.15572l0.22174,-0.00125l0.19308,0.32015l0.31269,0.05856l0.1582,-0.0872l0.07349,-0.20928l0.19433,-0.06229l0.20804,0.00248l0.26534,0.05856l0.05979,0.08097l0.40985,0.01869l0.07599,0.19683"></path></g></g></svg>