<svg version="1.1" xmlns="http://www.w3.org/2000/svg" xmlns:xlink="http://www.w3.org/1999/xlink" width="6.60859" height="11.45092" viewBox="0,0,6.60859,11.45092"><g transform="translate(-303.07963,-46.96127)"><g fill="#ff0000" fill-rule="evenodd" stroke="#ffffff" stroke-width="0" stroke-linecap="round" stroke-linejoin="round" stroke-miterlimit="10"><path d="M306.42516,47.97688l0.23397,0.1441l0.13212,0.2012l0.12798,0.3548l0.45554,0.35562l0.34544,0.40805l0.04542,0.23135l0.18992,0.25336l0.17891,0.1518l0.16651,0.35025l-0.04679,0.25845l0.22571,0.3091l0.09909,0.05794l0.07157,0.17162l0.1156,-0.03111l0.12387,0.16143l0.04403,0.15565l0.14863,-0.03895l0.45278,0.26134l0.15276,0.29465l-0.07431,0.21938l-0.12937,0.10983l-0.14176,-0.05739l-0.15139,0.2019l-0.21194,0.19666l-0.19818,0.06014l-0.02891,0.12482l-0.20093,0.23093l-0.04954,0.14368l-0.29726,0.28667l-0.32891,0.19695l-0.00276,0.38053l-0.18304,0.18097l0.19818,0.17878l0.10322,0.19735l-0.04403,0.24043l0.10186,0.19611l0.03578,0.34681l0.12111,0.11891l0.47205,-0.04885l0.02478,0.2308l-0.09909,0.13115l0.21883,0.19405l-0.07294,0.22198l0.18578,0.3113l-0.25322,0.13845l0.06744,0.14699l-0.17891,0.15882l-0.04954,0.32328l-0.12798,-0.04459l-0.16927,0.20203l-0.14038,0.24456l0.16378,0.10115l-0.60968,0.06675l-0.03302,-0.28447l-1.90058,0.2118l-0.06056,-0.14368l-0.20093,-0.05161l-0.21057,0.03702l-0.0633,-0.13281l0.13212,-0.17327l-0.0867,-0.05284l-0.20506,0.29286l-0.10873,0.03221l-0.30001,-0.07872l-0.12661,0.308l-0.22157,0.20492l-0.2835,0.04377l-0.40324,0.24015l-0.4858,-0.47742l0.26563,-0.26974l0.04954,0.049l0.29451,-0.2725l-0.02478,-0.27057l0.05506,-0.1551l0.14588,-0.04294l0.03164,-0.22571l0.11698,0.02311l0.20506,-0.20272l0.51608,-0.68398l0.09634,-0.17767l0.30278,-0.36786l0.13487,-0.25763l0.23121,-0.34269l-0.02891,-0.259l0.09909,-0.36153l-0.05092,-0.17684l0.09496,-0.35699l-0.0578,-0.61298l-0.28626,-0.61711l-0.11284,-0.15867l-0.0867,-0.27441l-0.24496,-0.27717l-0.02891,-0.16914l-0.18716,-0.35892l0.02064,-0.32893l0.14175,-0.31337l0.07707,-0.08602l0.11973,-0.47535l-0.02752,-0.41452l-0.23809,-0.24525l-0.0867,-0.3201l-0.09634,-0.13198l-0.03715,-0.49944l-0.12938,-0.31489l-0.01514,-0.17368l-0.10873,-0.27537l-0.01377,-0.34021l0.10047,-0.22914l0.46655,0.18813l0.30139,-0.19018l0.1624,-0.00344l0.12248,0.214l-0.03028,0.14382l0.07707,0.1485l0.19818,0.01031l0.09772,0.12991l0.41149,0.05807l0.15552,0.24372l0.14588,0.0673"></path></g></g></svg>