<svg version="1.1" xmlns="http://www.w3.org/2000/svg" xmlns:xlink="http://www.w3.org/1999/xlink" width="2.0426" height="2.31921" viewBox="0,0,2.0426,2.31921"><g transform="translate(-157.89104,-208.28872)"><g fill="#ff0000" stroke="#ffffff" stroke-width="0" stroke-linecap="round" stroke-linejoin="round" stroke-miterlimit="10"><path d="M158.91741,208.41657l0.12001,-0.00861l0.0391,0.07625l0.36068,0.04919l0.23906,0.07379l-0.10072,0.12052l-0.00824,0.2152l-0.10586,0.19553l0.18163,0.15126l0.09689,0.01967l0.07673,0.13158l-0.24347,0.01845l-0.07403,0.15987l0.08952,0.09715l0.07539,-0.07993l0.18433,0.05287l0.08521,0.19799l-0.07514,0.01106l-0.02226,0.16109l-0.09088,0.05533l-0.20044,0.02828l-0.11498,-0.02582l-0.17929,0.03197l-0.14572,0.24716l-0.098,0.0701l-0.04279,0.14141l-0.22848,-0.07747l-0.06235,-0.10452l-0.18359,-0.13282l0.09837,-0.14879l-0.02361,-0.08854l-0.1397,-0.15002l-0.04943,0.09223l-0.16687,0.02337l-0.07944,-0.09468l0.04537,-0.1279l-0.10157,-0.091l0.04291,-0.0787l0.33693,0.07625l-0.00775,-0.11314h-0.15764l-0.05423,-0.07747l0.04341,-0.3271l-0.06186,-0.14264l0.28259,0.11436h0.08016l-0.16319,-0.31849l0.01192,-0.17217l0.061,-0.10821l0.34285,-0.26807l0.08744,0.1242" fill-rule="evenodd"></path><path d="M158.04925,210.12585l-0.12802,0.091l-0.02902,-0.13035l0.10538,-0.05165l0.05165,0.091" fill-rule="evenodd"></path><path d="M157.92006,210.22435l-0.02902,-0.13036l0.10539,-0.05164l0.05165,0.091l-0.12802,0.091" fill-rule="nonzero"></path><path d="M159.57407,208.72406l-0.00824,0.21521l-0.10588,0.19554l0.18164,0.15126l0.09691,0.01967l0.07673,0.13159l-0.2435,0.01844l-0.07403,0.15988l0.08952,0.09715l0.07539,-0.07994l0.18433,0.05287l0.08523,0.198l-0.07514,0.01106l-0.02226,0.1611l-0.09088,0.05534l-0.20044,0.02828l-0.11498,-0.02582l-0.1793,0.03197l-0.07367,0.07747l-0.07206,0.16971l-0.09801,0.0701l-0.04279,0.14142l-0.22849,-0.07748l-0.06235,-0.10452l-0.1836,-0.13282l0.09838,-0.1488l-0.02362,-0.08854l-0.1397,-0.15003l-0.04943,0.09223l-0.16688,0.02337l-0.07944,-0.09469l0.04537,-0.1279l-0.10157,-0.091l0.04291,-0.0787l0.33697,0.07625l-0.00775,-0.11314h-0.15764l-0.05424,-0.07747l0.04342,-0.32712l-0.06186,-0.14266l0.2826,0.11437h0.08018l-0.16319,-0.31851l0.01192,-0.17217l0.06099,-0.10822l0.34286,-0.26809l0.08744,0.1242l0.12002,-0.0086l0.03911,0.07625l0.36069,0.04919l0.23907,0.07379l-0.10072,0.12052" fill-rule="nonzero"></path></g></g></svg>