<svg version="1.1" xmlns="http://www.w3.org/2000/svg" xmlns:xlink="http://www.w3.org/1999/xlink" width="169" height="169" viewBox="0,0,169,169"><defs><radialGradient cx="240" cy="180" r="84.5" gradientUnits="userSpaceOnUse" id="color-1"><stop offset="0" stop-color="#ffffff" stop-opacity="0.13333"></stop><stop offset="1" stop-color="#ffffff" stop-opacity="0"></stop></radialGradient></defs><g transform="translate(-155.5,-95.5)"><g stroke-miterlimit="10"><path d="M155.5,180c0,-46.66806 37.83194,-84.5 84.5,-84.5c46.66806,0 84.5,37.83194 84.5,84.5c0,46.66806 -37.83194,84.5 -84.5,84.5c-46.66806,0 -84.5,-37.83194 -84.5,-84.5z" fill="url(#color-1)" fill-rule="nonzero" stroke="#000000" stroke-width="0" stroke-linecap="butt" stroke-linejoin="miter"></path><path d="M176.99213,180.00002v0c0,-34.79828 28.20958,-63.00788 63.00788,-63.00788v0v0c16.71071,0 32.73701,6.63831 44.5533,18.45459c11.81625,11.81628 18.45456,27.84259 18.45456,44.55329v0v0c0,34.79828 -28.20956,63.00787 -63.00786,63.00787v0v0c-34.7983,0 -63.00787,-28.20959 -63.00787,-63.00787z" fill="#135ea9" fill-rule="evenodd" stroke="none" stroke-width="1" stroke-linecap="square" stroke-linejoin="miter"></path><path d="M187.92827,179.99127v0c0,-28.7536 23.3094,-52.06299 52.06299,-52.06299v0v0c13.80799,0 27.05039,5.48516 36.81409,15.2489c9.76373,9.76373 15.2489,23.0061 15.2489,36.81409v0v0c0,28.7536 -23.30938,52.063 -52.06299,52.063v0v0c-28.75358,0 -52.06299,-23.30939 -52.06299,-52.06299z" fill="#1e82e6" fill-rule="evenodd" stroke="none" stroke-width="1" stroke-linecap="square" stroke-linejoin="miter"></path><path d="M242.28414,139.27802c4.63444,0 8.6734,0.90802 12.11679,2.72406c3.44342,1.80426 6.10853,4.33966 7.99534,7.6062c1.88681,3.2547 2.8302,7.05194 2.8302,11.39154c0,3.12506 -0.38324,5.91986 -1.14975,8.38452c-0.75473,2.45282 -2.0932,4.97053 -4.01535,7.55311c-1.92218,2.57074 -4.58731,5.63092 -7.99534,9.18042l-19.97143,20.53668h34.86539v9.12744h-50.64296v-6.1911l27.82443,-29.34564c2.8184,-2.901 5.0236,-5.4187 6.61558,-7.5531c1.60379,-2.13446 2.74768,-4.10974 3.43164,-5.92578c0.68396,-1.81604 1.02594,-3.69696 1.02594,-5.6427c0,-3.84436 -1.2323,-6.85144 -3.69696,-9.02124c-2.45282,-2.18164 -5.63681,-3.27246 -9.55193,-3.27246c-3.84436,0 -7.21701,0.92572 -10.11796,2.77716c-2.88918,1.85138 -5.45995,4.69342 -7.71232,8.526l-7.16396,-5.97882c2.97172,-4.91748 6.55665,-8.62622 10.75478,-11.12622c4.19814,-2.50006 9.05075,-3.75006 14.55786,-3.75006z" fill="#ffffff" fill-rule="evenodd" stroke="none" stroke-width="1" stroke-linecap="square" stroke-linejoin="miter"></path><path d="M242.28414,139.27802c4.63444,0 8.6734,0.90802 12.11679,2.72406c3.44342,1.80426 6.10853,4.33966 7.99534,7.6062c1.88681,3.2547 2.8302,7.05194 2.8302,11.39154c0,3.12506 -0.38324,5.91986 -1.14975,8.38452c-0.75473,2.45282 -2.0932,4.97053 -4.01535,7.55311c-1.92218,2.57074 -4.58731,5.63092 -7.99534,9.18042l-19.97143,20.53668h34.86539v9.12744h-50.64296v-6.1911l27.82443,-29.34564c2.8184,-2.901 5.0236,-5.4187 6.61558,-7.5531c1.60379,-2.13446 2.74768,-4.10974 3.43164,-5.92578c0.68396,-1.81604 1.02594,-3.69696 1.02594,-5.6427c0,-3.84436 -1.2323,-6.85144 -3.69696,-9.02124c-2.45282,-2.18164 -5.63681,-3.27246 -9.55193,-3.27246c-3.84436,0 -7.21701,0.92572 -10.11796,2.77716c-2.88918,1.85138 -5.45995,4.69342 -7.71232,8.526l-7.16396,-5.97882c2.97172,-4.91748 6.55665,-8.62622 10.75478,-11.12622c4.19814,-2.50006 9.05075,-3.75006 14.55786,-3.75006z" fill="none" fill-rule="evenodd" stroke="#ffffff" stroke-width="2" stroke-linecap="butt" stroke-linejoin="round"></path></g></g></svg>