<svg version="1.1" xmlns="http://www.w3.org/2000/svg" xmlns:xlink="http://www.w3.org/1999/xlink" width="11.2747" height="10.97473" viewBox="0,0,11.2747,10.97473"><g transform="translate(-244.95646,-184.79913)"><g fill="#ff0000" fill-rule="evenodd" stroke="#ffffff" stroke-width="0" stroke-linecap="round" stroke-linejoin="round" stroke-miterlimit="10"><g><path d=""></path><path d=""></path><path d=""></path><path d=""></path></g><path d=""></path><path d="M255.93875,187.22873l-0.11274,0.07309l-0.02973,0.12018l0.05452,0.13504l0.15115,0.11399l0.19948,0.24159v0.31841l0.02973,0.12514l-0.07309,0.07062l-0.10654,-0.0384l-0.35806,-0.03469l-0.23292,0.18584l-0.07929,-0.10902l-0.15488,0.00867l0.03098,-0.16355l-0.19204,0.02725l-0.04708,0.21434l-0.26019,0.29487l0.15611,0.15115l-0.08177,0.13753l-0.13504,0.11522l-0.15735,0.04584l0.0384,0.16355l-0.06442,0.14495l-0.1623,0.08673l0.05204,0.26267l0.14495,0.15983v0.19451l-0.06691,0.02106l-0.1016,0.15362l-0.01858,0.22054l0.06566,0.10902l-0.12018,0.10035l-0.00496,0.18461l-0.11149,0.02849l-0.11028,-0.04336l-0.1276,0.10284l-0.04584,0.1623l-0.11152,0.09167l0.19452,0.19699l-0.10407,0.14867l0.13256,0.1016l-0.00496,0.11769l0.13009,0.14001l-0.01734,0.21929l0.07309,0.06319l0.04584,0.20442l-0.21186,0.11895l0.00991,0.12142l-0.13009,0.16232l-0.14495,-0.06939l-0.06319,-0.08426l-0.20195,0.11647l-0.10902,-0.08797l-0.02602,-0.10037l-0.17841,0.10779l-0.28248,0.11026l-0.11522,0.09167l-0.14867,-0.06939l-0.16107,0.01487l-0.12637,-0.05947l-0.14992,0.24161l0.00867,0.12142l-0.38779,-0.1338l-0.2255,0.07433l-0.02354,0.13257l-0.15488,0.1239l0.06195,0.1016l-0.07806,0.13133l0.09788,0.11522l-0.36178,0.05452l-0.0062,0.43116l-0.01858,0.08053l-0.19576,0.0954l-0.08301,-0.10283l-0.14371,-0.00744l-0.11399,0.08549l-0.09167,-0.10655l-0.23665,0.09664l-0.12886,0.11151l-0.14744,-0.16355l-0.43984,0.17222l-0.19452,-0.03469l-0.09167,-0.18708l-0.21682,-0.21682l-0.03964,-0.17841l-0.08053,0.00867l-0.32338,-0.10283l-0.09541,-0.15859l-0.01734,-0.32585l0.16479,-0.25522l0.10902,-0.34567l0.00496,-0.3085l0.05327,-0.21683l-0.0062,-0.22424l0.05947,-0.11646l-0.06691,-0.07433l-0.06195,0.28124l-0.04213,0.39895l-0.04089,0.16106l-0.14992,0.30354l-0.16106,0.00373l0.01982,0.17345l-0.19081,0.3147l-0.01239,0.14248l0.07433,0.13628l-0.10532,0.03718l-0.01858,0.20567l-0.06689,0.0446l0.01362,0.26886l-0.06319,0.15488l-0.01487,0.19452l0.15115,0.0892l0.00496,0.10532l0.09168,0.0508l0.2131,0.23665l0.15362,0.057l0.10408,0.26763l-0.03593,0.09416l0.04831,0.16355l-0.16479,-0.02973l-0.22178,0.00867l-0.40143,-0.20442l-0.27011,-0.09912l-0.2069,-0.14001l-0.15983,-0.15859l-0.20815,-0.32585l0.1747,-0.4708l0.07186,-0.30974l0.05823,-0.36053l-0.11646,-0.36302l-0.19948,-0.23788l-0.1685,0.0384l-0.07186,-0.13504l0.05327,-0.12637l-0.04708,-0.14248v-0.19824l0.0508,-0.57116l0.03222,-0.1276l-0.10284,-0.07558l0.31841,-0.49311l-0.03099,-0.08673l0.32833,-0.56744l0.11026,-0.07806l0.12886,-0.34814l0.00867,-0.29612l-0.18584,-0.00744l-0.24531,0.51169l-0.15983,-0.03966l0.0793,-0.29487l-0.02106,-0.06566l-0.23912,0.0062l-0.06195,0.07186l0.00744,0.1462l0.12389,0.06566l-0.04336,0.2069l-0.41134,-0.01858l0.04708,0.10283l-0.0062,0.24035l-0.1747,-0.10408l-0.06566,0.03221l0.19576,0.17097l-0.03345,0.11769l-0.20442,-0.11646l-0.08426,0.01115l0.02602,-0.0446l-0.1462,-0.20195l-0.09293,-0.23169l-0.04708,-0.41876l-0.22674,-0.2515l-0.2131,-0.11893l-0.23417,-0.29487l-0.23292,-0.06442l-0.0446,-0.0892l0.01858,-0.26886l-0.03964,-0.31718l0.01487,-0.23292l0.1338,-0.16726l-0.06442,-0.63188l0.22425,-0.26019l0.12637,-0.29363l0.16355,-0.16355l0.11026,-0.16602l0.1016,-0.24656l0.1685,-0.31221l0.11151,-0.3147l0.11151,-0.14744l0.09416,-0.04087l0.23294,0.01981l0.12018,0.1239l0.37292,0.06319l0.33452,-0.18834l0.0446,-0.06442l0.26391,-0.07433l0.4448,-0.02478l0.16107,-0.13753l0.32956,-0.17593l-0.00744,-0.22548l0.04089,-0.09663l0.2639,-0.05327l-0.01362,0.19204l0.08549,0.28496l0.0954,0.04584l0.03593,0.13133l0.32461,0.09293l0.07062,0.11026l0.13753,0.00991l0.05823,0.11895l-0.04336,0.30354l0.0446,0.0793l0.14744,-0.07062l0.0793,0.0508l0.05947,0.14l-0.11026,0.08796l0.10035,0.2131l0.09416,-0.00247l0.01858,0.22177l0.21807,-0.00496l0.02602,-0.13753l0.37912,0.12143l0.17593,0.20938l0.24408,-0.03717l0.13753,0.1846l-0.00247,0.14744l0.10035,0.09541l0.19204,0.03964l0.14,-0.12513l0.16479,0.04831l0.23541,-0.18214h0.07806l0.15859,-0.25275l0.14371,-0.05575l0.10655,0.01735l0.25894,-0.04336l0.27133,0.15362l0.23417,0.1016l-0.057,0.14l0.0508,0.1016l0.22177,-0.04708l0.28621,0.03345l-0.02354,0.18213l0.06195,0.10037l0.15859,-0.02229l0.09788,0.1016l0.09788,-0.08426l0.10035,0.20567l0.12142,0.04213l0.09168,-0.1462l0.14,-0.10283l0.10779,-0.00867l0.17965,-0.18708l0.24779,-0.08549l0.21682,-0.16602l0.09044,-0.21683l0.27258,0.057l0.18088,-0.05327l0.04956,-0.08053l0.10779,0.09541l-0.18337,0.16106l0.01982,0.12018"></path></g></g></svg>